<?xml version="1.0" encoding="UTF-8"?>
<svg width="16px" height="16px" viewBox="0 0 16 16" version="1.1" xmlns="http://www.w3.org/2000/svg" xmlns:xlink="http://www.w3.org/1999/xlink">
    <title>icon/Add 2</title>
    <defs>
        <path d="M7.9997,4.7498 C7.5847,4.7498 7.2497,5.0858 7.2497,5.4998 L7.2497,7.2498 L5.4997,7.2498 C5.0847,7.2498 4.7497,7.5858 4.7497,7.9998 C4.7497,8.4148 5.0847,8.7498 5.4997,8.7498 L7.2497,8.7498 L7.2497,10.4998 C7.2497,10.9148 7.5847,11.2498 7.9997,11.2498 C8.4137,11.2498 8.7497,10.9148 8.7497,10.4998 L8.7497,8.7498 L10.4997,8.7498 C10.9137,8.7498 11.2497,8.4148 11.2497,7.9998 C11.2497,7.5858 10.9137,7.2498 10.4997,7.2498 L8.7497,7.2498 L8.7497,5.4998 C8.7497,5.0858 8.4137,4.7498 7.9997,4.7498 M8,16 C12.418278,16 16,12.418278 16,8 C16,3.581722 12.418278,0 8,0 C3.581722,0 0,3.581722 0,8 C0,12.418278 3.581722,16 8,16 Z M8.01528359,14.5543736 C11.6051345,14.5543736 14.5152836,11.6442245 14.5152836,8.05437362 C14.5152836,4.46452275 11.6051345,1.55437362 8.01528359,1.55437362 C4.42543272,1.55437362 1.51528359,4.46452275 1.51528359,8.05437362 C1.51528359,11.6442245 4.42543272,14.5543736 8.01528359,14.5543736 Z" id="path-1"></path>
    </defs>
    <g id="页面-1" stroke="none" stroke-width="1" fill="none" fill-rule="evenodd">
        <g id="Overview" transform="translate(-1065.000000, -121.000000)">
            <g id="icon/Add-2" transform="translate(1065.000000, 121.000000)">
                <mask id="mask-2" fill="white">
                    <use xlink:href="#path-1"></use>
                </mask>
                <use id="add" fill="#231916" xlink:href="#path-1"></use>
                <g id="add" mask="url(#mask-2)">
                    <g transform="translate(0.000000, 0.000000)" id="Colors/Background">
                        <rect id="Color" fill="#FFFFFF" x="0" y="0" width="16" height="16"></rect>
                    </g>
                </g>
            </g>
        </g>
    </g>
</svg>