<?xml version="1.0" encoding="UTF-8"?>
<svg width="14px" height="16px" viewBox="0 0 14 16" version="1.1" xmlns="http://www.w3.org/2000/svg" xmlns:xlink="http://www.w3.org/1999/xlink">
    <title>icon/Add </title>
    <defs>
        <path d="M9.757,0 L4,0 C2.349,0 1,1.35 1,3 L1,13 C1,14.65 2.349,16 4,16 L11.999,16 C13.65,16 14.999,14.65 14.999,13 L14.999,5.243 C14.999,4.447 14.684,3.684 14.121,3.122 L11.878,0.879 C11.316,0.316 10.553,0 9.757,0 M9.757,1.5 C10.157,1.5 10.534,1.656 10.818,1.939 L13.06,4.182 C13.344,4.465 13.499,4.842 13.499,5.243 L13.499,13 C13.499,13.828 12.826,14.5 11.999,14.5 L4,14.5 C3.173,14.5 2.5,13.828 2.5,13 L2.5,3 C2.5,2.173 3.173,1.5 4,1.5 L9.757,1.5 M7.9997,4.75 C7.5847,4.75 7.2497,5.086 7.2497,5.5 L7.2497,7.25 L5.4997,7.25 C5.0847,7.25 4.7497,7.586 4.7497,8 C4.7497,8.415 5.0847,8.75 5.4997,8.75 L7.2497,8.75 L7.2497,10.5 C7.2497,10.915 7.5847,11.25 7.9997,11.25 C8.4137,11.25 8.7497,10.915 8.7497,10.5 L8.7497,8.75 L10.4997,8.75 C10.9137,8.75 11.2497,8.415 11.2497,8 C11.2497,7.586 10.9137,7.25 10.4997,7.25 L8.7497,7.25 L8.7497,5.5 C8.7497,5.086 8.4137,4.75 7.9997,4.75" id="path-1"></path>
    </defs>
    <g id="page-1" stroke="none" stroke-width="1" fill="none" fill-rule="evenodd">
        <g id="FilesDetail（ARDesynced）" transform="translate(-513.000000, -193.000000)">
            <g id="icon/Add-" transform="translate(512.000000, 193.000000)">
                <mask id="mask-2" fill="white">
                    <use xlink:href="#path-1"></use>
                </mask>
                <use id="mask" fill="#231916" xlink:href="#path-1"></use>
                <g id="group" mask="url(#mask-2)" fill="#34A9FF">
                    <g id="Colors/Background">
                        <rect id="Color" x="0" y="0" width="16" height="16"></rect>
                    </g>
                </g>
            </g>
        </g>
    </g>
</svg>