<?xml version="1.0" encoding="UTF-8"?>
<svg width="14px" height="16px" viewBox="0 0 14 16" version="1.1" xmlns="http://www.w3.org/2000/svg" xmlns:xlink="http://www.w3.org/1999/xlink">
    <title>icon/copy</title>
    <defs>
        <path d="M10.5,2 L3.5,2 C2.125,2 1,3.125 1,4.5 L1,13.5 C1,14.875 2.125,16 3.5,16 L10.5,16 C11.875,16 13,14.875 13,13.5 L13,4.5 C13,3.125 11.875,2 10.5,2 M10.5,3.5 C11.042,3.5 11.5,3.958 11.5,4.5 L11.5,13.5 C11.5,14.042 11.042,14.5 10.5,14.5 L3.5,14.5 C2.958,14.5 2.5,14.042 2.5,13.5 L2.5,4.5 C2.5,3.958 2.958,3.5 3.5,3.5 L10.5,3.5 M9.25,6.4775 L4.75,6.4775 C4.337,6.4775 4,6.1405 4,5.7275 C4,5.3145 4.337,4.9775 4.75,4.9775 L9.25,4.9775 C9.663,4.9775 10,5.3145 10,5.7275 C10,6.1405 9.663,6.4775 9.25,6.4775 M9.25,13.0225 L4.75,13.0225 C4.337,13.0225 4,12.6855 4,12.2725 C4,11.8605 4.337,11.5225 4.75,11.5225 L9.25,11.5225 C9.663,11.5225 10,11.8605 10,12.2725 C10,12.6855 9.663,13.0225 9.25,13.0225 M12.489,0 C13.876,0 15,1.124 15,2.51 L15,2.51 L15,12.25 C15,12.664 14.664,13 14.25,13 C13.836,13 13.5,12.664 13.5,12.25 L13.5,12.25 L13.5,2.892 C13.5,2.123 12.877,1.5 12.108,1.5 L12.108,1.5 L4.75,1.5 C4.336,1.5 4,1.164 4,0.75 L4,0.75 L4.00685069,0.648274306 C4.05654167,0.282333333 4.3705,0 4.75,0 L4.75,0 Z M9.25,8.25 C9.663,8.25 10,8.587 10,9 C10,9.412 9.663,9.75 9.25,9.75 L4.75,9.75 C4.337,9.75 4,9.412 4,9 C4,8.587 4.337,8.25 4.75,8.25 L9.25,8.25 Z" id="path-1"></path>
    </defs>
    <g id="page-1" stroke="none" stroke-width="1" fill="none" fill-rule="evenodd">
        <g id="view（Syncing）" transform="translate(-1018.000000, -546.000000)">
            <g id="icon/copy" transform="translate(1017.000000, 546.000000)">
                <mask id="mask-2" fill="white">
                    <use xlink:href="#path-1"></use>
                </mask>
                <use id="mask" fill="#231916" xlink:href="#path-1"></use>
                <g id="group" mask="url(#mask-2)" fill="#999999">
                    <g id="Colors/Background">
                        <rect id="Color" x="0" y="0" width="16" height="16"></rect>
                    </g>
                </g>
            </g>
        </g>
    </g>
</svg>