<?xml version="1.0" encoding="UTF-8"?>
<svg width="16px" height="14px" viewBox="0 0 16 14" version="1.1" xmlns="http://www.w3.org/2000/svg" xmlns:xlink="http://www.w3.org/1999/xlink">
    <title>icon/Download</title>
    <defs>
        <path d="M8.00011257,6.99978198 C8.41311257,6.99978198 8.75011257,7.33778198 8.75011257,7.74978198 L8.75011257,7.74978198 L8.75011257,11.449782 L8.98611257,11.041782 C9.19311257,10.684782 9.65311257,10.560782 10.0111126,10.767782 C10.3681126,10.973782 10.4911126,11.434782 10.2851126,11.791782 L10.2851126,11.791782 L8.64911257,14.624782 C8.64211257,14.638782 8.62911257,14.645782 8.62011257,14.657782 C8.60111257,14.687782 8.58011257,14.712782 8.55711257,14.739782 C8.53511257,14.764782 8.51211257,14.786782 8.48711257,14.807782 L8.45111257,14.839282 L8.45111257,14.839282 L8.41211257,14.867782 C8.39911257,14.876782 8.39011257,14.891782 8.37611257,14.899782 C8.36111257,14.908782 8.34311257,14.908782 8.32811257,14.915782 C8.29911257,14.929782 8.27111257,14.939782 8.24111257,14.950782 C8.20911257,14.961782 8.17811257,14.970782 8.14411257,14.977782 C8.11111257,14.983782 8.07811257,14.988782 8.04511257,14.990782 C8.02911257,14.991782 8.01611257,14.999782 8.00011257,14.999782 C7.98511257,14.999782 7.97111257,14.991782 7.95611257,14.990782 C7.92211257,14.988782 7.89011257,14.983782 7.85611257,14.977782 C7.82211257,14.970782 7.79211257,14.961782 7.75911257,14.950782 C7.72911257,14.939782 7.70111257,14.929782 7.67311257,14.915782 C7.65711257,14.908782 7.64011257,14.908782 7.62511257,14.899782 C7.61011257,14.891782 7.60211257,14.876782 7.58811257,14.867782 C7.56111257,14.849782 7.53711257,14.829782 7.51311257,14.807782 L7.47711257,14.775282 L7.47711257,14.775282 L7.44411257,14.739782 C7.42111257,14.712782 7.39911257,14.687782 7.38011257,14.657782 C7.37211257,14.645782 7.35911257,14.638782 7.35111257,14.624782 L7.35111257,14.624782 L5.71511257,11.791782 C5.50911257,11.434782 5.63211257,10.973782 5.98911257,10.767782 C6.34711257,10.560782 6.80811257,10.684782 7.01411257,11.041782 L7.01411257,11.041782 L7.25011257,11.449782 L7.25011257,7.74978198 C7.25011257,7.33778198 7.58811257,6.99978198 8.00011257,6.99978198 Z M3.25011257,5.74948198 C3.25011257,2.81048198 5.93411257,0.486481977 8.97911257,1.09848198 C11.2431126,1.55348198 12.8801126,3.67948198 12.7431126,5.98548198 C12.7421126,6.00048198 12.7411126,6.01548198 12.7401126,6.03148198 C14.7021126,6.28948198 16.1911126,8.06848198 15.9791126,10.142482 C15.7811126,12.086482 14.0161126,13.499482 12.0611126,13.499482 L12.0611126,13.499482 L11.7501126,13.499482 C11.3361126,13.499482 11.0001126,13.163482 11.0001126,12.749482 C11.0001126,12.335482 11.3361126,11.999482 11.7501126,11.999482 L11.7501126,11.999482 L12.1171126,11.999482 C13.2941126,11.999482 14.3691126,11.155482 14.4881126,9.98448198 C14.6251126,8.63848198 13.5671126,7.49948198 12.2501126,7.49948198 C12.1691126,7.49948198 12.0911126,7.51348198 12.0121126,7.52448198 L12.0121126,7.52448198 L10.8831126,7.68648198 L11.1221126,6.59348198 C11.2091126,6.27248198 11.2501126,6.00448198 11.2501126,5.74948198 C11.2501126,3.77248198 9.47511257,2.20248198 7.43511257,2.54748198 C6.14311257,2.76648198 5.14811257,3.82948198 4.83411257,5.10148198 C4.71511257,5.58648198 4.71611257,5.99848198 4.87811257,6.59348198 L4.87811257,6.59348198 L5.17611257,7.68948198 L4.05111257,7.53348198 C3.90811257,7.51348198 3.83111257,7.49948198 3.75011257,7.49948198 C2.43111257,7.49948198 1.37511257,8.63848198 1.51211257,9.98448198 C1.63111257,11.155482 2.70611257,11.999482 3.88311257,11.999482 L3.88311257,11.999482 L4.25011257,11.999482 C4.66411257,11.999482 5.00011257,12.335482 5.00011257,12.749482 C5.00011257,13.163482 4.66411257,13.499482 4.25011257,13.499482 L4.25011257,13.499482 L3.93811257,13.499482 C1.98411257,13.499482 0.21911257,12.086482 0.0201125702,10.142482 C-0.19188743,8.06848198 1.29811257,6.28948198 3.26011257,6.03148198 C3.25311257,5.93748198 3.25011257,5.84348198 3.25011257,5.74948198 Z" id="path-1"></path>
    </defs>
    <g id="page-1" stroke="none" stroke-width="1" fill="none" fill-rule="evenodd">
        <g id="view（Failure）-" transform="translate(-341.000000, -194.000000)">
            <g id="icon/Download" transform="translate(341.000000, 193.000000)">
                <mask id="mask-2" fill="white">
                    <use xlink:href="#path-1"></use>
                </mask>
                <use id="mask" fill="#231916" xlink:href="#path-1"></use>
                <g id="group" mask="url(#mask-2)">
                    <g transform="translate(-0.000000, 0.000000)" id="Colors/Background">
                        <rect id="Color" fill="#FFFFFF" x="0" y="0" width="16" height="16"></rect>
                    </g>
                </g>
            </g>
        </g>
    </g>
</svg>