<svg width="20" height="20" viewBox="0 0 20 20" fill="none" xmlns="http://www.w3.org/2000/svg">
<path fill-rule="evenodd" clip-rule="evenodd" d="M10.3358 0.987416C10.1143 0.941857 9.88579 0.941857 9.66427 0.987416C9.40821 1.04008 9.17934 1.16827 8.99739 1.27018L8.9478 1.29789L2.78113 4.72381L2.72851 4.75287C2.5359 4.85896 2.29372 4.99235 2.10774 5.19417C1.94695 5.36865 1.82527 5.57546 1.75083 5.80075C1.66473 6.06133 1.66574 6.33782 1.66654 6.55771L1.66669 6.61782V13.3821L1.66654 13.4422C1.66574 13.6621 1.66473 13.9386 1.75083 14.1991C1.82527 14.4244 1.94695 14.6312 2.10774 14.8057C2.29372 15.0075 2.53591 15.1409 2.72852 15.247L2.78113 15.2761L8.9478 18.702L8.99738 18.7297C9.17933 18.8316 9.4082 18.9598 9.66427 19.0125C9.88579 19.058 10.1143 19.058 10.3358 19.0125C10.5918 18.9598 10.8207 18.8316 11.0027 18.7297L11.0522 18.702L17.2189 15.2761L17.2715 15.247C17.4641 15.1409 17.7063 15.0075 17.8923 14.8057C18.0531 14.6312 18.1748 14.4244 18.2492 14.1991C18.3353 13.9386 18.3343 13.6621 18.3335 13.4422L18.3334 13.3821V6.61782L18.3335 6.55771C18.3343 6.33782 18.3353 6.06133 18.2492 5.80075C18.1748 5.57545 18.0531 5.36865 17.8923 5.19417C17.7063 4.99235 17.4641 4.85896 17.2715 4.75287L17.2189 4.72381L11.0522 1.29789L11.0026 1.27018C10.8207 1.16827 10.5918 1.04008 10.3358 0.987416ZM8.44194 7.55806C8.19786 7.31398 7.80214 7.31398 7.55806 7.55806C7.31398 7.80214 7.31398 8.19786 7.55806 8.44194L9.11612 10L7.55806 11.5581C7.31398 11.8021 7.31398 12.1979 7.55806 12.4419C7.80214 12.686 8.19786 12.686 8.44194 12.4419L10 10.8839L11.5581 12.4419C11.8021 12.686 12.1979 12.686 12.4419 12.4419C12.686 12.1979 12.686 11.8021 12.4419 11.5581L10.8839 10L12.4419 8.44194C12.686 8.19786 12.686 7.80214 12.4419 7.55806C12.1979 7.31398 11.8021 7.31398 11.5581 7.55806L10 9.11612L8.44194 7.55806Z" fill="#F04438"/>
</svg>
