<svg xmlns="http://www.w3.org/2000/svg" width="20" height="20" viewBox="0 0 20 20" fill="none">
  <path opacity="0.75" fill-rule="evenodd" clip-rule="evenodd" d="M13.5314 1.75H6.46858H6.46857C5.7952 1.74999 5.24449 1.74998 4.79693 1.78655C4.33367 1.8244 3.91527 1.90514 3.52453 2.10423C2.913 2.41582 2.41582 2.913 2.10423 3.52453C1.90514 3.91527 1.8244 4.33367 1.78655 4.79693C1.74998 5.24449 1.74999 5.7952 1.75 6.46857V6.46858V13.5314V13.5314C1.74999 14.2048 1.74998 14.7555 1.78655 15.2031C1.8244 15.6663 1.90514 16.0847 2.10423 16.4755C2.41582 17.087 2.913 17.5842 3.52453 17.8958C3.91527 18.0949 4.33367 18.1756 4.79693 18.2134C5.24449 18.25 5.79519 18.25 6.46856 18.25H13.5314C14.2048 18.25 14.7555 18.25 15.2031 18.2134C15.6663 18.1756 16.0847 18.0949 16.4755 17.8958C17.087 17.5842 17.5842 17.087 17.8958 16.4755C18.0949 16.0847 18.1756 15.6663 18.2134 15.2031C18.25 14.7555 18.25 14.2048 18.25 13.5314V6.46856C18.25 5.79519 18.25 5.24449 18.2134 4.79693C18.1756 4.33367 18.0949 3.91527 17.8958 3.52453C17.5842 2.913 17.087 2.41582 16.4755 2.10423C16.0847 1.90514 15.6663 1.8244 15.2031 1.78655C14.7555 1.74998 14.2048 1.74999 13.5314 1.75H13.5314ZM10 5.83329C9.53976 5.83329 9.16667 6.20639 9.16667 6.66663C9.16667 7.12686 9.53976 7.49996 10 7.49996H10.0083C10.4686 7.49996 10.8417 7.12686 10.8417 6.66663C10.8417 6.20639 10.4686 5.83329 10.0083 5.83329H10ZM10.8333 9.99996C10.8333 9.53972 10.4602 9.16663 10 9.16663C9.53976 9.16663 9.16667 9.53972 9.16667 9.99996V13.3333C9.16667 13.7935 9.53976 14.1666 10 14.1666C10.4602 14.1666 10.8333 13.7935 10.8333 13.3333V9.99996Z" fill="white"/>
</svg>