<svg width="1000" height="1000" viewBox="0 0 1000 1000" fill="none" xmlns="http://www.w3.org/2000/svg">
<rect width="1000" height="1000" fill="black"/>
<path fill-rule="evenodd" clip-rule="evenodd" d="M499.782 707.498C458.781 707.48 418.706 695.306 384.623 672.514C377.88 668.005 371.431 663.12 365.303 657.891C357.41 653.103 349.89 647.905 342.785 642.335C334.771 637.82 327.145 632.968 319.951 627.81C311.351 623.351 303.204 618.579 295.561 613.523C286.933 609.386 278.776 604.99 271.138 600.361C261.564 596.17 252.584 591.719 244.261 587.033C233.571 582.714 223.664 578.124 214.625 573.295C205.155 569.732 196.415 566.02 188.437 562.177C177.031 558.348 166.738 554.344 157.606 550.191C148.305 547.312 139.761 544.317 132.041 541.218C86.6504 529.27 60 515.114 60 500.129C60 485.52 85.2674 471.699 128.488 459.944C137.703 456.092 148.189 452.395 159.82 448.879C168.297 445.128 177.733 441.501 188.096 438.018C196.25 434.089 205.211 430.293 214.954 426.65C223.978 421.851 233.861 417.292 244.519 413.002C252.757 408.38 261.633 403.987 271.09 399.849C278.838 395.153 287.118 390.698 295.883 386.509C303.418 381.544 311.439 376.854 319.899 372.466C327.282 367.171 335.12 362.2 343.367 357.584C350.262 352.217 357.545 347.199 365.177 342.563C392.1 319.554 424.545 303.764 459.458 296.826C499.672 288.833 541.354 292.944 579.232 308.639C599.732 317.132 618.619 328.812 635.246 343.146C642.465 347.576 649.369 352.35 655.924 357.44C664.264 362.094 672.188 367.111 679.648 372.457C688.294 376.937 696.482 381.734 704.162 386.816C712.865 390.992 721.091 395.43 728.789 400.105C738.394 404.317 747.401 408.79 755.747 413.498C766.321 417.786 776.126 422.339 785.079 427.127C794.349 430.63 802.911 434.276 810.74 438.046C821.154 441.53 830.644 445.159 839.173 448.914C850.184 452.233 860.183 455.713 869.061 459.33C913.779 471.217 940 485.265 940 500.129C940 514.941 914.002 528.943 869.657 540.804C861.282 544.228 851.898 547.529 841.594 550.685C832.066 554.987 821.279 559.129 809.282 563.083C801.955 566.544 793.995 569.899 785.422 573.136C776.325 578.019 766.341 582.658 755.558 587.02C747.275 591.682 738.342 596.113 728.82 600.285C721.016 605.023 712.67 609.516 703.832 613.739C696.315 618.695 688.313 623.377 679.874 627.757C672.443 633.093 664.55 638.1 656.241 642.747C649.355 648.11 642.08 653.124 634.458 657.757C597.05 689.715 549.334 707.466 499.782 707.498ZM814.208 545.895C812.346 546.227 810.459 546.558 808.546 546.888C807.401 547.084 806.251 547.279 805.096 547.473C817.1 532.676 823.638 516.754 823.638 500.175C823.638 483.446 816.96 467.382 804.715 452.464C805.877 452.66 807.035 452.858 808.188 453.056C810.039 453.376 811.866 453.696 813.67 454.017C830.586 468.34 839.986 483.953 839.986 500.179C839.986 516.243 830.785 531.699 814.208 545.895ZM832.555 542.424C830.521 542.832 828.451 543.239 826.345 543.645C839.521 530.065 846.705 515.429 846.705 500.179C846.705 484.768 839.337 469.98 825.843 456.271C827.777 456.643 829.68 457.017 831.554 457.391C851.822 470.698 863.227 485.233 863.227 500.228C863.227 514.994 852.198 529.302 832.555 542.424ZM850.404 538.608C849.575 538.797 848.738 538.986 847.894 539.175C862.275 526.833 869.766 513.707 869.766 500.228C869.766 486.554 861.977 473.208 847.121 460.676C847.741 460.814 848.357 460.952 848.969 461.091C873.284 473.687 886.521 487.182 886.521 500.228C886.521 513.025 873.804 526.239 850.404 538.608ZM901.412 523.723C923.986 514.937 933.282 506.574 933.282 500.039C933.282 493.416 923.706 484.889 900.395 475.942C910.917 483.694 916.575 491.844 916.575 500.224C916.575 508.332 911.28 516.215 901.412 523.723ZM793.738 450.67C808.515 466.1 816.696 482.843 816.696 500.22C816.696 517.404 808.7 533.962 794.24 549.239C790.752 549.788 787.225 550.328 783.662 550.856C794.358 534.97 800.171 517.915 800.171 500.17C800.171 482.276 794.24 465.079 783.342 449.074C786.843 449.595 790.309 450.127 793.738 450.67ZM785.432 442.737C785.338 442.654 785.244 442.571 785.149 442.489C782.55 441.957 779.926 441.434 777.278 440.918C777.468 441.153 777.657 441.388 777.845 441.624C780.397 441.99 782.927 442.361 785.432 442.737ZM767.769 440.22C767.375 439.779 766.976 439.339 766.572 438.899C763.322 438.306 760.039 437.725 756.724 437.155C757.117 437.741 757.505 438.329 757.887 438.919C761.215 439.345 764.51 439.778 767.769 440.22ZM749.182 437.832C748.663 437.095 748.134 436.36 747.597 435.629C743.781 435.008 739.926 434.402 736.033 433.812C736.519 434.689 736.995 435.569 737.462 436.453C741.411 436.902 745.318 437.362 749.182 437.832ZM740.941 443.471C745.31 443.981 749.638 444.505 753.922 445.043C764.427 462.236 770.159 480.787 770.159 500.121C770.159 519.34 764.493 537.784 754.105 554.891C749.829 555.427 745.508 555.949 741.146 556.457C749.28 538.732 753.678 519.808 753.678 500.161C753.678 480.371 749.204 461.312 740.941 443.471ZM729.319 435.548C728.752 434.548 728.171 433.553 727.579 432.562C723.483 431.972 719.347 431.398 715.173 430.841C715.685 431.964 716.185 433.092 716.673 434.225C720.931 434.654 725.147 435.095 729.319 435.548ZM719.467 441.119C724.038 441.588 728.569 442.073 733.058 442.573C742.033 460.612 746.915 479.994 746.915 500.161C746.915 520.185 742.104 539.432 733.254 557.355C728.767 557.854 724.237 558.339 719.668 558.808C726.632 540.316 730.391 520.633 730.391 500.222C730.391 479.624 726.56 459.764 719.467 441.119ZM709.107 433.479C708.548 432.256 707.975 431.038 707.386 429.827C703.067 429.278 698.71 428.747 694.315 428.233C694.808 429.565 695.287 430.902 695.753 432.244C700.247 432.643 704.699 433.055 709.107 433.479ZM697.982 439.051C702.717 439.477 707.414 439.919 712.072 440.376C719.651 459.164 723.762 479.276 723.762 500.177C723.762 520.921 719.713 540.888 712.243 559.554C707.551 560.014 702.819 560.46 698.049 560.889C704.039 541.39 707.174 520.944 707.197 500.173C707.197 479.34 704.058 458.744 697.982 439.051ZM690.581 438.4C631.345 433.315 566.514 430.662 500.045 430.662H498.925C432.614 430.662 367.967 433.356 308.909 438.445C298.403 470.929 296.335 505.651 303.03 539.31C304.526 546.831 306.447 554.234 308.775 561.487C368.2 566.609 433.298 569.282 500.045 569.282H501.164C567.296 569.282 631.815 566.599 690.776 561.529C697.112 541.806 700.389 521.114 700.389 500.173C700.365 478.999 696.998 458.172 690.581 438.4ZM688.235 431.593C630.825 426.734 566.887 423.989 500.045 423.989H498.925C432.273 423.989 368.517 426.731 311.265 431.584C311.789 430.145 312.33 428.71 312.887 427.281C370.325 420.917 433.731 417.545 498.969 417.545H499.865C565.345 417.545 629.001 420.95 686.636 427.357C687.185 428.763 687.718 430.175 688.235 431.593ZM304.001 432.214C304.476 430.845 304.966 429.481 305.469 428.123C301.025 428.64 296.619 429.175 292.252 429.728C291.649 430.967 291.062 432.213 290.49 433.465C294.95 433.035 299.454 432.618 304.001 432.214ZM282.854 434.219C283.354 433.057 283.866 431.9 284.391 430.749C280.238 431.302 276.123 431.871 272.047 432.457C271.434 433.48 270.834 434.507 270.249 435.54C274.407 435.088 278.609 434.647 282.854 434.219ZM266.484 442.621C270.962 442.122 275.482 441.638 280.042 441.169C272.976 459.785 269.161 479.613 269.161 500.177C269.161 520.582 272.917 540.263 279.878 558.756C275.323 558.286 270.808 557.801 266.335 557.301C257.487 539.378 252.676 520.135 252.676 500.117C252.676 479.982 257.541 460.632 266.484 442.621ZM262.147 436.442C262.632 435.524 263.127 434.609 263.633 433.697C259.764 434.282 255.933 434.882 252.14 435.497C251.573 436.268 251.015 437.042 250.467 437.82C254.318 437.35 258.212 436.891 262.147 436.442ZM245.694 445.081C249.969 444.544 254.287 444.022 258.648 443.514C250.414 461.327 245.958 480.357 245.958 500.117C245.958 519.759 250.363 538.681 258.505 556.406C254.125 555.893 249.787 555.366 245.494 554.824C235.128 537.736 229.475 519.315 229.475 500.121C229.475 480.801 235.2 462.263 245.694 445.081ZM241.755 438.909C242.163 438.278 242.578 437.649 242.999 437.022C239.687 437.59 236.408 438.169 233.161 438.76C232.715 439.244 232.275 439.73 231.84 440.217C235.11 439.773 238.415 439.337 241.755 438.909ZM225.601 447.752C229.487 447.205 233.414 446.671 237.381 446.149C227.872 463.095 222.712 481.249 222.712 500.121C222.712 518.864 227.804 536.902 237.193 553.751C233.223 553.226 229.294 552.688 225.406 552.137C212.877 535.626 206.323 518.042 206.323 500.08C206.323 482.011 212.936 464.334 225.601 447.752ZM221.759 441.625C221.984 441.342 222.21 441.059 222.438 440.777C219.727 441.304 217.041 441.839 214.381 442.383C214.23 442.514 214.081 442.646 213.931 442.777C216.515 442.388 219.125 442.004 221.759 441.625ZM205.634 450.727C209.14 450.174 212.685 449.632 216.267 449.101C205.446 465.07 199.56 482.226 199.56 500.08C199.56 517.826 205.374 534.886 216.073 550.778C212.449 550.236 208.863 549.683 205.318 549.119C190.852 533.831 182.852 517.268 182.852 500.086C182.852 482.773 190.967 466.098 205.634 450.727ZM185.496 454.102C187.454 453.752 189.44 453.404 191.454 453.056C192.595 452.861 193.74 452.667 194.89 452.474C182.749 467.358 176.134 483.387 176.134 500.086C176.134 516.655 182.65 532.568 194.62 547.361C193.696 547.204 192.775 547.046 191.857 546.888C189.577 546.495 187.334 546.101 185.127 545.704C168.571 531.515 159.384 516.076 159.384 500.045C159.384 483.897 168.708 468.361 185.496 454.102ZM167.783 457.453C169.635 457.082 171.516 456.712 173.427 456.343C160.109 469.986 152.845 484.702 152.845 500.045C152.845 515.278 160.011 529.901 173.159 543.473C171.184 543.091 169.241 542.707 167.33 542.323C147.612 529.173 136.537 514.837 136.537 500.049C136.537 485.129 147.781 470.681 167.783 457.453ZM149.851 461.279C150.396 461.155 150.943 461.032 151.494 460.908C136.979 473.31 129.416 486.506 129.416 500.049C129.416 513.466 136.95 526.576 151.304 538.909C150.541 538.737 149.785 538.565 149.034 538.392C125.705 526.028 113.028 512.828 113.028 500.049C113.028 487.111 126.001 473.756 149.851 461.279ZM98.5439 476.247C76.0283 485.023 66.763 493.377 66.763 499.905C66.763 506.469 76.1542 514.903 99.0069 523.762C88.7816 516.112 83.2891 508.077 83.2891 499.821C83.2891 491.685 88.6164 483.777 98.5439 476.247ZM213.954 557.426C214.067 557.526 214.18 557.626 214.294 557.725C216.971 558.274 219.673 558.814 222.402 559.346C222.196 559.091 221.991 558.835 221.788 558.579C219.152 558.2 216.54 557.816 213.954 557.426ZM231.889 559.99C232.301 560.452 232.719 560.913 233.142 561.373C236.371 561.963 239.633 562.541 242.926 563.107C242.521 562.502 242.122 561.896 241.728 561.287C238.414 560.863 235.134 560.43 231.889 559.99ZM250.442 562.377C250.974 563.133 251.516 563.886 252.068 564.636C255.868 565.255 259.708 565.858 263.586 566.446C263.091 565.553 262.606 564.656 262.131 563.756C258.193 563.307 254.296 562.847 250.442 562.377ZM270.235 564.659C270.811 565.674 271.4 566.685 272.002 567.691C276.06 568.276 280.158 568.844 284.294 569.396C283.778 568.261 283.275 567.121 282.784 565.976C278.558 565.549 274.375 565.11 270.235 564.659ZM290.404 566.729C290.966 567.965 291.544 569.194 292.136 570.418C296.518 570.975 300.94 571.514 305.399 572.034C304.902 570.688 304.419 569.339 303.95 567.985C299.391 567.579 294.875 567.161 290.404 566.729ZM301.626 560.856C291.62 528.166 289.823 493.401 296.542 459.671C297.93 452.699 299.672 445.826 301.754 439.075C296.965 439.507 292.214 439.955 287.503 440.418C279.937 459.194 275.835 479.291 275.835 500.177C275.835 520.902 279.871 540.852 287.32 559.506C292.049 559.972 296.818 560.422 301.626 560.856ZM311.212 568.616C311.73 570.043 312.264 571.464 312.814 572.879C370.474 579.288 434.173 582.679 499.73 582.679H500.537C565.802 582.679 629.25 579.301 686.732 572.927C687.277 571.525 687.806 570.118 688.32 568.705C631.183 573.539 567.598 576.269 501.164 576.269H500.045C432.95 576.269 368.786 573.505 311.212 568.616ZM695.701 568.066C695.235 569.406 694.756 570.741 694.263 572.07C698.685 571.555 703.069 571.022 707.414 570.471C708.001 569.262 708.573 568.046 709.131 566.824C704.697 567.251 700.22 567.665 695.701 568.066ZM716.741 566.075C716.255 567.206 715.758 568.332 715.248 569.453C719.399 568.9 723.512 568.33 727.587 567.745C728.18 566.754 728.76 565.758 729.328 564.758C725.176 565.209 720.979 565.648 716.741 566.075ZM737.502 563.849C737.036 564.734 736.56 565.615 736.074 566.492C739.931 565.908 743.75 565.31 747.53 564.696C748.071 563.961 748.604 563.222 749.127 562.481C745.294 562.947 741.419 563.404 737.502 563.849ZM757.913 561.384C757.529 561.977 757.14 562.568 756.745 563.158C760.066 562.588 763.354 562.006 766.61 561.413C767.018 560.969 767.421 560.525 767.819 560.08C764.552 560.522 761.25 560.957 757.913 561.384ZM774.323 552.205C786.833 535.718 793.363 518.147 793.363 500.17C793.363 482.048 786.708 464.33 773.989 447.718C770.114 447.171 766.197 446.636 762.242 446.115C771.786 463.084 776.967 481.266 776.967 500.166C776.967 518.919 771.87 536.963 762.472 553.817C766.463 553.292 770.414 552.755 774.323 552.205ZM777.936 558.668C777.745 558.908 777.553 559.148 777.361 559.388C780.035 558.867 782.685 558.339 785.31 557.802C785.409 557.715 785.508 557.628 785.607 557.542C783.074 557.922 780.517 558.298 777.936 558.668ZM241.875 570.114C241.648 569.904 241.422 569.694 241.197 569.484C243.57 569.895 245.964 570.301 248.378 570.702C248.653 571.06 248.929 571.418 249.208 571.775C246.735 571.228 244.29 570.674 241.875 570.114ZM259.55 573.984C259.054 573.413 258.564 572.839 258.079 572.264C261.317 572.77 264.589 573.267 267.894 573.754C268.349 574.482 268.812 575.207 269.281 575.93C265.993 575.293 262.749 574.645 259.55 573.984ZM278.503 577.663C277.881 576.784 277.27 575.9 276.669 575.013C280.315 575.522 283.998 576.019 287.718 576.504C288.24 577.529 288.772 578.549 289.314 579.565C285.663 578.945 282.059 578.311 278.503 577.663ZM297.693 580.948C297.045 579.815 296.41 578.676 295.788 577.531C299.858 578.036 303.968 578.526 308.118 579.002C308.179 579.152 308.241 579.301 308.303 579.451C308.767 580.573 309.241 581.69 309.724 582.801C305.662 582.201 301.651 581.583 297.693 580.948ZM499.82 589.397C434.191 589.397 371.54 585.942 315.676 579.847C316.267 581.212 316.872 582.569 317.492 583.919C370.611 591.358 432.154 595.807 499.775 595.807H500.402C567.764 595.807 629.084 591.39 682.036 583.999C682.647 582.671 683.243 581.336 683.824 579.996C628.198 586.001 565.873 589.397 500.626 589.397H499.82ZM689.914 582.868C690.452 581.633 690.978 580.392 691.493 579.147C695.597 578.681 699.662 578.2 703.688 577.706C703.08 578.823 702.458 579.934 701.824 581.038C697.905 581.665 693.935 582.275 689.914 582.868ZM710.204 579.659C710.731 578.674 711.248 577.684 711.756 576.69C715.481 576.209 719.17 575.715 722.821 575.21C722.243 576.062 721.655 576.911 721.057 577.755C717.488 578.404 713.87 579.039 710.204 579.659ZM730.363 576.01C730.807 575.326 731.244 574.64 731.676 573.952C734.94 573.475 738.172 572.989 741.372 572.493C740.922 573.026 740.467 573.556 740.007 574.085C736.836 574.738 733.621 575.38 730.363 576.01ZM750.431 571.862C750.673 571.553 750.914 571.243 751.153 570.932C753.566 570.535 755.96 570.133 758.333 569.725C758.167 569.88 758.001 570.034 757.834 570.187C755.396 570.753 752.929 571.311 750.431 571.862ZM909.812 500.224C909.812 510.654 897.156 521.52 874.042 531.785C886.678 521.757 893.24 511.188 893.24 500.363C893.24 489.291 886.338 478.457 873.08 468.19C896.807 478.613 909.812 489.662 909.812 500.224ZM758.074 430.379L758.182 430.479C755.823 430.072 753.444 429.67 751.046 429.273C750.858 429.03 750.669 428.787 750.48 428.544C752.988 429.099 755.466 429.661 757.913 430.23L758.074 430.379ZM740.171 426.339C740.568 426.796 740.961 427.255 741.35 427.715C738.117 427.211 734.85 426.716 731.551 426.232C731.16 425.611 730.765 424.992 730.365 424.375C733.678 425.017 736.948 425.672 740.171 426.339ZM721.108 422.634C721.655 423.409 722.195 424.187 722.727 424.969C719.057 424.458 715.349 423.959 711.604 423.472C711.13 422.546 710.646 421.625 710.155 420.707C713.855 421.334 717.506 421.977 721.108 422.634ZM701.833 419.333C702.427 420.368 703.01 421.409 703.581 422.454C699.59 421.961 695.559 421.481 691.49 421.015C691.006 419.842 690.51 418.673 690.004 417.509C693.997 418.1 697.94 418.708 701.833 419.333ZM681.957 416.35C682.536 417.608 683.103 418.872 683.656 420.141C627.923 414.081 565.46 410.647 500.044 410.647H499.193C433.887 410.647 371.519 414.048 315.866 420.061C316.42 418.789 316.987 417.524 317.567 416.265C370.516 408.882 431.833 404.471 499.192 404.471H499.775C567.357 404.471 628.864 408.917 681.957 416.35ZM309.796 417.379C309.287 418.547 308.789 419.721 308.301 420.899C304.184 421.367 300.106 421.849 296.067 422.345C296.641 421.297 297.227 420.254 297.823 419.216C301.762 418.586 305.754 417.974 309.796 417.379ZM289.42 420.597C288.928 421.516 288.444 422.439 287.968 423.366C284.248 423.846 280.564 424.339 276.917 424.844C277.451 424.061 277.992 423.281 278.542 422.504C282.12 421.854 285.746 421.218 289.42 420.597ZM269.325 424.23C268.923 424.849 268.526 425.47 268.133 426.093C264.867 426.57 261.632 427.057 258.43 427.553C258.823 427.089 259.221 426.626 259.622 426.164C262.812 425.508 266.047 424.863 269.325 424.23ZM249.284 428.366C249.092 428.612 248.9 428.858 248.71 429.105C246.324 429.497 243.957 429.894 241.611 430.297C241.669 430.243 241.728 430.189 241.786 430.135C241.822 430.102 241.858 430.069 241.894 430.035C244.328 429.472 246.791 428.916 249.284 428.366ZM106.31 500.049C106.31 489.064 113.096 478.321 126.149 468.135C102.6 478.489 89.6938 489.467 89.6938 500C89.6938 510.519 102.594 521.522 126.138 531.907C113.101 521.73 106.31 511.003 106.31 500.049ZM732.523 418.108L732.496 418.081C729.907 417.414 727.288 416.757 724.642 416.111C724.732 416.233 724.822 416.356 724.911 416.478L725.07 416.694C727.572 417.158 730.056 417.629 732.523 418.108ZM715.332 414.947C714.993 414.522 714.652 414.098 714.308 413.675C711.221 412.972 708.098 412.283 704.942 411.608C705.301 412.195 705.656 412.784 706.008 413.374C709.14 413.886 712.248 414.411 715.332 414.947ZM697.387 412.003C696.902 411.245 696.41 410.489 695.913 409.737C692.457 409.042 688.963 408.365 685.434 407.705C685.883 408.607 686.326 409.511 686.762 410.419C690.33 410.932 693.872 411.46 697.387 412.003ZM678.524 409.268C623.518 401.799 562.59 397.842 499.775 397.842H499.192C436.628 397.842 375.892 401.711 321.045 409.09C321.56 408.079 322.083 407.074 322.615 406.073C375.583 396.763 436.173 391.348 499.322 391.348H499.77C563.056 391.348 623.801 396.798 676.905 406.156C677.453 407.189 677.993 408.226 678.524 409.268ZM313.092 410.19C313.515 409.311 313.945 408.436 314.381 407.563C310.8 408.23 307.257 408.915 303.753 409.617C303.278 410.334 302.809 411.054 302.345 411.777C305.899 411.233 309.482 410.704 313.092 410.19ZM293.638 413.15C293.967 412.599 294.299 412.05 294.634 411.502C291.507 412.169 288.412 412.85 285.352 413.545C285.041 413.926 284.733 414.309 284.426 414.692C287.473 414.166 290.544 413.652 293.638 413.15ZM274.721 416.421C274.832 416.27 274.944 416.118 275.055 415.967C272.906 416.49 270.776 417.02 268.665 417.557C270.672 417.173 272.691 416.794 274.721 416.421ZM268.699 582.578C270.77 583.105 272.859 583.627 274.966 584.142C274.857 583.994 274.748 583.846 274.64 583.698C272.649 583.33 270.668 582.956 268.699 582.578ZM284.355 585.441C284.657 585.819 284.961 586.196 285.267 586.573C288.305 587.265 291.376 587.943 294.48 588.608C294.151 588.068 293.825 587.527 293.502 586.984C290.43 586.481 287.381 585.967 284.355 585.441ZM302.184 588.365C302.64 589.078 303.101 589.787 303.567 590.494C307.097 591.205 310.668 591.898 314.276 592.573C313.847 591.711 313.423 590.846 313.006 589.978C309.371 589.456 305.763 588.918 302.184 588.365ZM320.96 591.089C321.467 592.087 321.983 593.08 322.507 594.069C375.694 603.46 436.568 608.929 499.994 608.929H500.442C563.522 608.929 624.048 603.521 676.975 594.225C677.495 593.246 678.006 592.263 678.509 591.276C623.676 598.655 562.969 602.525 500.402 602.525H499.775C436.931 602.525 375.976 598.565 320.96 591.089ZM686.567 590.161C686.154 591.015 685.736 591.868 685.311 592.717C688.87 592.054 692.392 591.374 695.876 590.676C696.335 589.981 696.79 589.284 697.239 588.584C693.709 589.124 690.151 589.65 686.567 590.161ZM705.931 587.213C705.614 587.742 705.295 588.27 704.973 588.796C708.084 588.133 711.161 587.457 714.205 586.766C714.499 586.405 714.792 586.043 715.082 585.68C712.055 586.203 709.004 586.714 705.931 587.213ZM724.893 583.932C724.798 584.062 724.702 584.192 724.607 584.321C726.458 583.87 728.296 583.414 730.12 582.953C728.386 583.284 726.644 583.61 724.893 583.932ZM293.875 596.394C293.77 596.282 293.664 596.17 293.559 596.057C293.431 595.921 293.304 595.785 293.177 595.649C295.422 596.128 297.681 596.599 299.953 597.061C300.229 597.464 300.507 597.865 300.787 598.266C298.461 597.652 296.157 597.028 293.875 596.394ZM310.915 600.841C310.432 600.209 309.954 599.574 309.481 598.937C312.463 599.505 315.467 600.059 318.493 600.599C318.928 601.385 319.369 602.169 319.814 602.95C316.817 602.263 313.85 601.56 310.915 600.841ZM499.77 615.648C438.841 615.648 379.854 610.939 326.98 602.068C327.543 603.022 328.114 603.972 328.693 604.917C379.304 615.762 437.925 622.048 499.775 622.048H500.133C561.83 622.048 620.321 615.788 670.834 604.98C671.412 604.036 671.982 603.088 672.545 602.135C619.806 610.99 561.098 615.648 500.218 615.648H499.77ZM679.812 602.992C680.257 602.213 680.698 601.431 681.133 600.647C684.117 600.113 687.081 599.566 690.024 599.005C689.548 599.644 689.067 600.281 688.582 600.916C685.689 601.623 682.765 602.316 679.812 602.992ZM698.732 598.338C699.014 597.933 699.295 597.528 699.574 597.121C701.868 596.654 704.149 596.177 706.416 595.692L706.272 595.847C706.199 595.925 706.125 596.004 706.052 596.082L705.852 596.295L705.706 596.45C703.403 597.09 701.078 597.719 698.732 598.338ZM705.749 403.905C705.988 404.159 706.226 404.413 706.463 404.668C704.154 404.174 701.83 403.689 699.491 403.212C699.207 402.8 698.922 402.389 698.635 401.978C701.029 402.61 703.401 403.252 705.749 403.905ZM688.564 399.418C689.053 400.057 689.538 400.7 690.018 401.345C687.112 400.791 684.185 400.25 681.237 399.723C680.8 398.934 680.359 398.149 679.912 397.366C682.825 398.035 685.709 398.719 688.564 399.418ZM670.711 395.326C671.296 396.279 671.873 397.236 672.441 398.198C619.564 389.324 560.567 384.63 499.591 384.63H499.143C438.428 384.63 379.802 389.244 327.121 398.04C327.666 397.119 328.218 396.203 328.777 395.291C379.373 384.482 437.966 378.221 499.775 378.221C561.557 378.221 620.131 384.496 670.711 395.326ZM319.896 397.253C319.469 398.001 319.046 398.751 318.628 399.503C315.638 400.035 312.668 400.58 309.719 401.139C310.17 400.535 310.625 399.934 311.083 399.335C313.991 398.625 316.929 397.931 319.896 397.253ZM300.917 401.912C300.66 402.279 300.405 402.646 300.151 403.015C297.854 403.48 295.572 403.955 293.303 404.437C293.405 404.328 293.507 404.219 293.609 404.11C293.704 404.009 293.798 403.909 293.893 403.809C296.212 403.166 298.553 402.533 300.917 401.912ZM681.445 390.665C681.306 390.503 681.166 390.342 681.026 390.18C678.825 389.511 676.604 388.854 674.364 388.208C674.581 388.547 674.797 388.886 675.012 389.226C677.172 389.697 679.316 390.177 681.445 390.665ZM665.459 387.215C665.044 386.606 664.625 386 664.203 385.395C615.925 372.57 559.46 365.094 499.774 365.094C440.045 365.094 383.56 372.556 335.276 385.365C334.88 385.933 334.486 386.504 334.096 387.076C383.273 377.145 439.622 371.503 499.461 371.503C559.498 371.503 616.082 377.2 665.459 387.215ZM665.542 613.163C616.358 623.111 559.995 628.766 500.133 628.766H499.775C439.765 628.766 383.264 623.085 333.976 613.095C334.381 613.689 334.789 614.282 335.2 614.872C383.51 627.721 440.028 635.212 499.774 635.212L499.998 638.571V635.212C559.641 635.212 616.067 627.752 664.313 614.946C664.726 614.354 665.136 613.76 665.542 613.163ZM674.857 611.209L674.689 611.472C674.608 611.6 674.526 611.729 674.444 611.857C674.369 611.974 674.293 612.092 674.218 612.209C676.499 611.553 678.761 610.885 681.002 610.205C681.133 610.054 681.264 609.903 681.395 609.752C679.231 610.246 677.052 610.732 674.857 611.209ZM318.077 609.666C320.286 610.172 322.512 610.669 324.754 611.157C324.966 611.491 325.179 611.825 325.392 612.158C323.059 611.486 320.747 610.802 318.457 610.105L318.271 609.891L318.077 609.666ZM318.307 390.467C320.479 389.972 322.667 389.485 324.87 389.007C324.956 388.872 325.042 388.737 325.128 388.602C325.24 388.426 325.353 388.25 325.466 388.074C323.168 388.733 320.891 389.405 318.635 390.089C318.525 390.215 318.416 390.341 318.307 390.467ZM499.774 641.885C442.449 641.885 388.562 635.325 341.817 623.827C342.093 624.178 342.369 624.529 342.647 624.879C389.363 640.123 443.435 648.285 499.911 648.285C556.254 648.285 610.196 640.133 656.895 624.908C657.164 624.569 657.433 624.228 657.7 623.887C611.002 635.347 557.2 641.885 499.998 641.885H499.774ZM499.55 358.376C442.367 358.376 388.604 364.905 341.948 376.354C342.213 376.015 342.48 375.677 342.748 375.341C389.411 360.143 443.438 352.019 499.866 352.01C556.102 352.019 610.039 360.139 656.67 375.3C656.974 375.682 657.277 376.065 657.578 376.449C610.767 364.943 556.841 358.376 499.55 358.376ZM648.637 634.655L648.599 634.697C605.909 651.542 554.773 661.359 499.862 661.359C444.86 661.359 393.643 651.515 350.904 634.628L350.819 634.535C394.781 647.553 445.705 655.003 499.955 655.003C554.012 655.003 604.777 647.6 648.637 634.655ZM648.484 365.659C604.547 352.676 553.712 345.247 499.642 345.247C445.608 345.247 394.853 352.656 351.001 365.611L351.062 365.543C393.753 348.703 444.892 338.888 499.817 338.883C554.616 338.888 605.637 348.653 648.26 365.412L648.378 365.543L648.484 365.659ZM499.862 668.121C453.271 668.121 409.328 661.115 370.749 648.749C408.34 665.061 452.554 674.477 499.818 674.477C547.008 674.477 591.152 665.096 628.699 648.838C590.185 661.149 546.34 668.121 499.862 668.121ZM499.772 332.165C453.09 332.165 409.067 339.199 370.437 351.611C408.085 335.223 452.402 325.759 499.796 325.756C547.161 325.759 591.461 335.224 629.103 351.61C590.464 339.199 546.441 332.165 499.772 332.165ZM609.915 663.347C577.376 678.792 539.797 687.616 499.821 687.616V694.379C532.942 694.379 564.457 688.468 592.955 677.83C587.62 680.628 582.148 683.192 576.551 685.51C539.895 700.693 499.56 704.666 460.646 696.925C441.779 693.172 423.657 686.748 406.795 677.927C435.252 688.531 466.713 694.424 499.776 694.424V687.661C459.409 687.661 421.511 678.679 388.778 662.977C422.339 674.673 460.025 681.241 499.818 681.241C539.263 681.241 576.609 674.812 609.915 663.347ZM609.698 336.912C576.416 325.459 539.123 319.038 499.773 319.038C460.449 319.038 423.186 325.448 389.93 336.881C422.408 321.514 459.895 312.738 499.776 312.738C539.684 312.738 577.199 321.526 609.698 336.912ZM499.731 305.975C466.588 305.975 435.052 311.898 406.539 322.553C435.208 307.504 467.194 299.567 499.782 299.567C532.45 299.603 564.289 307.598 592.708 322.475C564.246 311.869 532.785 305.975 499.731 305.975Z" fill="url(#paint0_linear_197_3410)"/>
<defs>
<linearGradient id="paint0_linear_197_3410" x1="59.7761" y1="500.084" x2="939.776" y2="500.084" gradientUnits="userSpaceOnUse">
<stop stop-color="#FDA9FF"/>
<stop offset="1" stop-color="#039CFF"/>
</linearGradient>
</defs>
</svg>
