<?xml version="1.0" encoding="UTF-8"?>
<svg width="291px" height="40px" viewBox="0 0 291 40" version="1.1" xmlns="http://www.w3.org/2000/svg" xmlns:xlink="http://www.w3.org/1999/xlink">
    <title>logo</title>
    <defs>
        <linearGradient x1="-9.18114948e-06%" y1="49.9999994%" x2="100.001064%" y2="49.9999994%" id="linearGradient-1">
            <stop stop-color="#FDA8FF" offset="0%"></stop>
            <stop stop-color="#029CFF" offset="100%"></stop>
        </linearGradient>
        <linearGradient x1="-4.85568891e-07%" y1="50.000009%" x2="100.000007%" y2="50.000009%" id="linearGradient-2">
            <stop stop-color="#FDA8FF" offset="0%"></stop>
            <stop stop-color="#029CFF" offset="100%"></stop>
        </linearGradient>
        <linearGradient x1="-4.05783294e-06%" y1="50.0000049%" x2="99.9999892%" y2="50.0000049%" id="linearGradient-3">
            <stop stop-color="#FDA8FF" offset="0%"></stop>
            <stop stop-color="#029CFF" offset="100%"></stop>
        </linearGradient>
        <linearGradient x1="-3.47474748e-06%" y1="50.0000017%" x2="99.9999904%" y2="50.0000017%" id="linearGradient-4">
            <stop stop-color="#FDA8FF" offset="0%"></stop>
            <stop stop-color="#029CFF" offset="100%"></stop>
        </linearGradient>
        <linearGradient x1="-2.98195915e-06%" y1="50.0000026%" x2="100.000008%" y2="50.0000026%" id="linearGradient-5">
            <stop stop-color="#FDA8FF" offset="0%"></stop>
            <stop stop-color="#029CFF" offset="100%"></stop>
        </linearGradient>
        <linearGradient x1="-2.76759149e-07%" y1="50.0000103%" x2="99.9999883%" y2="50.0000103%" id="linearGradient-6">
            <stop stop-color="#FDA8FF" offset="0%"></stop>
            <stop stop-color="#029CFF" offset="100%"></stop>
        </linearGradient>
        <linearGradient x1="0.000645429899%" y1="49.999999%" x2="99.9999942%" y2="49.999999%" id="linearGradient-7">
            <stop stop-color="#FDA8FF" offset="0%"></stop>
            <stop stop-color="#029CFF" offset="100%"></stop>
        </linearGradient>
        <linearGradient x1="-7.86406063e-07%" y1="49.9999994%" x2="99.9999842%" y2="49.9999994%" id="linearGradient-8">
            <stop stop-color="#FDA8FF" offset="0%"></stop>
            <stop stop-color="#029CFF" offset="100%"></stop>
        </linearGradient>
        <linearGradient x1="-0.000569727601%" y1="49.9989153%" x2="99.9999937%" y2="49.9989153%" id="linearGradient-9">
            <stop stop-color="#FDA8FF" offset="0%"></stop>
            <stop stop-color="#029CFF" offset="100%"></stop>
        </linearGradient>
        <linearGradient x1="-1.61214916e-07%" y1="50.0000128%" x2="99.9999947%" y2="50.0000128%" id="linearGradient-10">
            <stop stop-color="#FDA8FF" offset="0%"></stop>
            <stop stop-color="#029CFF" offset="100%"></stop>
        </linearGradient>
        <linearGradient x1="0%" y1="50.0000168%" x2="99.9999912%" y2="50.0000168%" id="linearGradient-11">
            <stop stop-color="#FDA8FF" offset="0%"></stop>
            <stop stop-color="#029CFF" offset="100%"></stop>
        </linearGradient>
    </defs>
    <g id="page-1" stroke="none" stroke-width="1" fill="none" fill-rule="evenodd">
        <g id="view（Syncing）" transform="translate(-40.000000, -20.000000)">
            <g id="logo" transform="translate(40.000000, 20.000000)">
                <g id="group" transform="translate(94.799011, 13.790366)" fill="#617083">
                    <path d="M15.8868817,12.1827957 L15.8868817,6.87827957 L1.78795699,6.87827957 C0.802150538,6.87827957 0,6.07655914 0,5.09075269 L0,0.116989247 L1.4572043,0.116989247 L1.4572043,5.42107527 L15.8868817,5.42107527 L15.8868817,0.116989247 L17.344086,0.116989247 L17.344086,12.1827957 L15.8868817,12.1827957 Z" id="Fill-1"></path>
                    <path d="M28.9669677,6.90683871 L28.9729892,5.45006452 L39.4099785,5.49565591 L39.4035269,6.952 L28.9669677,6.90683871 Z M28.1067527,12.1464086 C24.7850323,12.1464086 22.0856774,9.4431828 22.0856774,6.12146237 C22.0856774,2.79974194 24.788043,0.0973763441 28.1097634,0.0973763441 L39.4099785,0.14683871 L39.4035269,1.60404301 L28.1067527,1.55458065 C25.5884731,1.55458065 23.5428817,3.6031828 23.5428817,6.12146237 C23.5428817,8.63974194 25.5914839,10.6887742 28.1097634,10.6887742 L39.4099785,10.7378065 L39.4035269,12.1950108 L28.1067527,12.1464086 Z" id="Fill-3"></path>
                    <path d="M53.383957,12.1827957 C52.8996559,12.1827957 52.4295484,11.9823656 52.0944946,11.6339785 L52.044172,11.5815054 L45.1534194,0.784086022 L46.3818065,0 L53.3835269,10.972043 L60.3822366,0.00301075269 L61.6110538,0.786666667 L54.7228817,11.5815054 L54.6734194,11.6331183 C54.3379355,11.9823656 53.867828,12.1827957 53.383957,12.1827957" id="Fill-5"></path>
                    <path d="M72.6904946,6.89088172 L72.6969462,5.43367742 L83.1339355,5.47926882 L83.1274839,6.93604301 L72.6904946,6.89088172 Z M71.8302796,12.1304516 C68.508129,12.1304516 65.8096344,9.42722581 65.8096344,6.10550538 C65.8096344,2.78378495 68.512,0.0814193548 71.8337204,0.0814193548 L83.1339355,0.13088172 L83.1274839,1.58765591 L71.8302796,1.53862366 C69.3124301,1.53862366 67.2668387,3.58722581 67.2668387,6.10550538 C67.2668387,8.62378495 69.3145806,10.6728172 71.8337204,10.6728172 L83.1339355,10.7218495 L83.1274839,12.1790538 L71.8302796,12.1304516 Z" id="Fill-7"></path>
                    <path d="M95.920086,12.2096774 C94.9342796,12.2096774 94.1325591,11.407957 94.1325591,10.4221505 L94.1325591,7.22430108 C94.1325591,6.23849462 94.9342796,5.43677419 95.920086,5.43677419 L101.717935,5.43677419 C102.791484,5.43677419 103.664172,4.55806452 103.664172,3.47806452 L103.664172,3.41096774 C103.664172,2.91204301 103.470194,2.44322581 103.116645,2.09053763 C102.765247,1.73784946 102.296,1.54344086 101.796645,1.54344086 L89.2344946,1.54516129 L89.2344946,12.2096774 L87.7768602,12.2096774 L87.7768602,1.87591398 C87.7768602,0.890107527 88.5794409,0.0879569892 89.5652473,0.0879569892 L101.796645,0.0866666667 C102.685247,0.0866666667 103.520086,0.432473118 104.147183,1.06 C104.77557,1.68795699 105.121376,2.52322581 105.121376,3.41096774 L105.121376,3.47806452 C105.121376,5.36150538 103.594925,6.8944086 101.717935,6.8944086 L95.5889032,6.8944086 L95.5889032,10.7524731 L104.621161,10.7524731 L104.621161,12.2096774 L95.920086,12.2096774 Z" id="Fill-9"></path>
                    <path d="M112.102022,12.1773333 C111.116215,12.1773333 110.314495,11.3756129 110.314495,10.3898065 L110.314495,0.119268817 L111.770839,0.119268817 L111.770839,10.7205591 L127.591914,10.7205591 L127.591914,12.1773333 L112.102022,12.1773333 Z" id="Fill-11"></path>
                    <path d="M148.675011,12.1773333 L148.675011,7.45475269 L138.084043,7.45475269 L138.084043,5.99711828 L148.675011,5.99711828 L148.675011,1.57604301 L134.245333,1.57604301 L134.245333,12.1773333 L132.787699,12.1773333 L132.787699,1.90636559 C132.787699,0.920989247 133.59028,0.119268817 134.576086,0.119268817 L148.343828,0.119268817 C149.329634,0.119268817 150.132215,0.920989247 150.132215,1.90636559 L150.132215,12.1773333 L148.675011,12.1773333 Z" id="Fill-13"></path>
                    <path d="M170.88271,12.2390968 C170.595828,12.2390968 170.317548,12.1698495 170.055183,12.0335054 L169.988946,11.9990968 L156.782495,1.17845161 L156.782495,12.1810323 L155.32529,12.1810323 L155.32529,1.84812903 C155.32529,1.21802151 155.647011,0.646408602 156.185505,0.319526882 C156.467656,0.148344086 156.788086,0.0575913978 157.111097,0.0575913978 C157.398839,0.0575913978 157.677548,0.126408602 157.938624,0.262322581 L158.00529,0.296731183 L171.212172,11.1186667 L171.212172,0.115655914 L172.668516,0.115655914 L172.668516,10.4485591 C172.668516,11.0786667 172.347226,11.6498495 171.808301,11.9767312 C171.52572,12.1483441 171.20572,12.2390968 170.88271,12.2390968" id="Fill-15"></path>
                    <path d="M177.86228,12.1827957 L177.86228,5.95956989 L179.319484,5.95956989 L179.319484,10.7255914 L189.209806,10.7255914 C191.728086,10.7255914 193.777118,8.67741935 193.777118,6.15870968 C193.777118,3.64043011 191.728086,1.59139785 189.209806,1.59139785 L177.86228,1.59139785 L177.86228,0.134623656 L189.209806,0.134623656 C192.530667,0.134623656 195.233892,2.83698925 195.233892,6.15870968 C195.233892,9.48043011 192.530667,12.1827957 189.209806,12.1827957 L177.86228,12.1827957 Z" id="Fill-17"></path>
                </g>
                <path d="M22.3423656,19.9096774 C22.3423656,30.8886022 31.2739785,39.8197849 42.2524731,39.8197849 L42.2524731,39.8197849 C53.2313978,39.8197849 62.1621505,30.8886022 62.1621505,19.9096774 L62.1621505,19.9096774 C62.1621505,8.9311828 53.2313978,0 42.2524731,0 L42.2524731,0 C31.2739785,0 22.3423656,8.9311828 22.3423656,19.9096774 M22.9888172,19.9096774 C22.9888172,9.28817204 31.6305376,0.646451613 42.2524731,0.646451613 L42.2524731,0.646451613 C52.8748387,0.646451613 61.5152688,9.28817204 61.5152688,19.9096774 L61.5152688,19.9096774 C61.5152688,30.5316129 52.8748387,39.1729032 42.2524731,39.1729032 L42.2524731,39.1729032 C31.6305376,39.1729032 22.9888172,30.5316129 22.9888172,19.9096774" id="Fill-19" fill="url(#linearGradient-1)"></path>
                <path d="M20.107957,19.9083871 C20.107957,30.1922581 30.0421505,38.5595699 42.2546237,38.5595699 L42.2546237,38.5595699 L42.2554839,38.236129 L42.2554839,38.5595699 C54.4645161,38.5595699 64.3969892,30.1948387 64.3969892,19.9101075 L64.3969892,19.9101075 C64.3969892,9.62580645 54.4627957,1.25892473 42.2498925,1.25892473 L42.2498925,1.25892473 C30.0408602,1.25892473 20.107957,9.62451613 20.107957,19.9083871 L20.107957,19.9083871 Z M42.2529032,37.9135484 C30.3987097,37.9135484 20.7539785,29.8356989 20.7539785,19.9083871 L20.7539785,19.9083871 C20.7539785,9.98107527 30.3969892,1.90580645 42.2529032,1.90580645 L42.2529032,1.90580645 C54.1066667,1.90580645 63.7505376,9.98236559 63.7505376,19.9101075 L63.7505376,19.9101075 C63.7505376,29.8369892 54.1075269,37.9135484 42.2554839,37.9135484 L42.2554839,37.9135484 L42.2554839,38.236129 L42.2529032,37.9135484 Z" id="Fill-21" fill="url(#linearGradient-2)"></path>
                <path d="M17.8739785,19.9062366 C17.8739785,29.4972043 28.8103226,37.3002151 42.2533333,37.3002151 L42.2533333,37.3002151 L42.2589247,37.3002151 C55.6980645,37.3002151 66.6313978,29.4993548 66.6313978,19.9109677 L66.6313978,19.9109677 C66.6313978,10.3208602 55.6950538,2.51827957 42.2477419,2.51827957 L42.2477419,2.51827957 C28.8077419,2.51827957 17.8739785,10.3187097 17.8739785,19.9062366 M18.5208602,19.9062366 C18.5208602,10.6748387 29.1647312,3.16430108 42.2533333,3.16430108 L42.2533333,3.16430108 C55.3389247,3.16430108 65.9849462,10.6769892 65.9849462,19.9109677 L65.9849462,19.9109677 C65.9849462,29.1427957 55.3415054,36.6533333 42.2589247,36.6533333 L42.2589247,36.6533333 L42.2533333,36.6533333 C29.1668817,36.6533333 18.5208602,29.1410753 18.5208602,19.9062366" id="Fill-23" fill="url(#linearGradient-3)"></path>
                <path d="M15.6395699,19.9053763 C15.6395699,28.8012903 27.5784946,36.04 42.2533333,36.04 L42.2533333,36.04 L42.2627957,36.04 C56.932043,36.04 68.8653763,28.8051613 68.8653763,19.911828 L68.8653763,19.911828 C68.8653763,11.0150538 56.9273118,3.77677419 42.243871,3.77677419 L42.243871,3.77677419 C27.5737634,3.77677419 15.6395699,11.012043 15.6395699,19.9053763 M16.2860215,19.9053763 C16.2860215,11.3686022 27.9307527,4.42365591 42.2533333,4.42365591 L42.2533333,4.42365591 C56.5707527,4.42365591 68.2189247,11.3716129 68.2189247,19.911828 L68.2189247,19.911828 C68.2189247,28.448172 56.5750538,35.3931183 42.2627957,35.3931183 L42.2627957,35.3931183 L42.2533333,35.3931183 C27.9350538,35.3931183 16.2860215,28.4447312 16.2860215,19.9053763" id="Fill-25" fill="url(#linearGradient-4)"></path>
                <path d="M13.4051613,19.9032258 C13.4051613,28.1062366 26.3466667,34.7797849 42.2537634,34.7802151 L42.2537634,34.7802151 L42.267957,34.7802151 C58.1660215,34.7802151 71.0997849,28.1109677 71.0997849,19.9122581 L71.0997849,19.9122581 C71.0997849,11.7092473 58.1595699,5.03569892 42.2382796,5.03569892 L42.2382796,5.03569892 C26.3402151,5.03569892 13.4051613,11.7058065 13.4051613,19.9032258 M22.2309677,29.8589247 C16.9565591,27.1513978 14.052043,23.615914 14.052043,19.9032258 L14.052043,19.9032258 C14.052043,16.1931183 16.9548387,12.6602151 22.2266667,9.95483871 L22.2266667,9.95483871 C27.5939785,7.19956989 34.7010753,5.68258065 42.2537634,5.68258065 L42.2537634,5.68258065 C49.7939785,5.68258065 56.904086,7.20086022 62.2748387,9.95741935 L62.2748387,9.95741935 C67.5492473,12.6649462 70.4537634,16.2 70.4537634,19.9122581 L70.4537634,19.9122581 C70.4537634,23.6215054 67.5501075,27.1552688 62.2782796,29.8615054 L62.2782796,29.8615054 C56.9113978,32.615914 49.8047312,34.1333333 42.267957,34.1333333 L42.267957,34.1333333 L42.2537634,34.1333333 C34.7126882,34.1333333 27.6017204,32.6150538 22.2309677,29.8589247" id="Fill-27" fill="url(#linearGradient-5)"></path>
                <path d="M11.1711828,19.9019355 C11.1711828,27.4111828 25.1148387,33.5195699 42.2537634,33.5195699 L42.2537634,33.5195699 L42.2765591,33.5195699 C59.4017204,33.5195699 73.3346237,27.415914 73.3346237,19.9131183 L73.3346237,19.9131183 C73.3346237,12.4034409 59.391828,6.29505376 42.2313978,6.29505376 L42.2313978,6.29505376 C25.1053763,6.29505376 11.1711828,12.3991398 11.1711828,19.9019355 M11.8176344,19.9019355 C11.8176344,12.8765591 25.7458065,6.94193548 42.2537634,6.94193548 L42.2537634,6.94193548 C58.7513978,6.94193548 72.688172,12.8817204 72.688172,19.9131183 L72.688172,19.9131183 C72.688172,26.9384946 58.7608602,32.8735484 42.2765591,32.8735484 L42.2765591,32.8735484 L42.2537634,32.8735484 C25.7556989,32.8735484 11.8176344,26.9329032 11.8176344,19.9019355" id="Fill-29" fill="url(#linearGradient-6)"></path>
                <path d="M8.93634409,19.9002151 C8.93634409,26.7148387 23.8825806,32.2597849 42.2537634,32.2597849 L42.2537634,32.2597849 L42.2855914,32.2597849 C60.6382796,32.2597849 75.5686022,26.7217204 75.5686022,19.9131183 L75.5686022,19.9131183 C75.5686022,13.0989247 60.624086,7.5544086 42.2232258,7.55397849 L42.2232258,7.55397849 C23.8692473,7.55397849 8.93634409,13.0924731 8.93634409,19.9002151 M9.5827957,19.9002151 C9.5827957,13.5582796 24.5307527,8.20043011 42.2537634,8.20043011 L42.2537634,8.20043011 C59.9621505,8.20086022 74.9221505,13.5647312 74.9221505,19.9131183 L74.9221505,19.9131183 C74.9221505,26.2554839 59.9763441,31.6133333 42.2855914,31.6133333 L42.2855914,31.6133333 L42.2537634,31.6133333 C24.5445161,31.6133333 9.5827957,26.2498925 9.5827957,19.9002151" id="Fill-31" fill="url(#linearGradient-7)"></path>
                <path d="M42.2111828,8.81290323 C32.8602151,8.81290323 23.9901075,9.96774194 17.2344086,12.0632258 L17.2344086,12.0632258 C10.4430108,14.1711828 6.7027957,16.9535484 6.7027957,19.8989247 L6.7027957,19.8989247 C6.7027957,22.8477419 10.448172,25.6339785 17.248172,27.744086 L17.248172,27.744086 C24.0124731,29.8430108 32.8933333,30.9995699 42.2541935,31.0004301 L42.2541935,31.0004301 L42.2963441,31.0004301 C51.6460215,31.0004301 60.5156989,29.8451613 67.2713978,27.7483871 L67.2713978,27.7483871 C74.0632258,25.6425806 77.8034409,22.8589247 77.8034409,19.9139785 L77.8034409,19.9139785 C77.8034409,16.9651613 74.0580645,14.1793548 67.2576344,12.0688172 L67.2576344,12.0688172 C60.4933333,9.96903226 51.6137634,8.81333333 42.2541935,8.81290323 L42.2541935,8.81290323 L42.2111828,8.81290323 Z M7.34924731,19.8989247 C7.34924731,14.3376344 23.6395699,9.45978495 42.2111828,9.45978495 L42.2111828,9.45978495 L42.2541935,9.45978495 C60.8464516,9.45978495 77.1565591,14.3453763 77.1565591,19.9139785 L77.1565591,19.9139785 C77.1565591,25.4756989 60.8666667,30.3535484 42.2963441,30.3535484 L42.2963441,30.3535484 L42.2541935,30.3535484 C23.6602151,30.3531183 7.34924731,25.467957 7.34924731,19.8989247 L7.34924731,19.8989247 Z" id="Fill-33" fill="url(#linearGradient-8)"></path>
                <path d="M42.1956989,10.0722581 C32.2864516,10.0722581 22.864086,11.0984946 15.664086,12.9612903 L15.664086,12.9612903 C8.44430108,14.8296774 4.4688172,17.2924731 4.4688172,19.8976344 L4.4688172,19.8976344 C4.4688172,22.5058065 8.4511828,24.9729032 15.6834409,26.8451613 L15.6834409,26.8451613 C22.8946237,28.711828 32.3316129,29.7406452 42.2541935,29.7406452 L42.2541935,29.7406452 L42.3126882,29.7406452 C52.2215054,29.7406452 61.6421505,28.7139785 68.8417204,26.8503226 L68.8417204,26.8503226 C76.0615054,24.9823656 80.0378495,22.5187097 80.0378495,19.9148387 L80.0378495,19.9148387 C80.0378495,17.3062366 76.0546237,14.8387097 68.8227957,12.9668817 L68.8227957,12.9668817 C61.6116129,11.0997849 52.175914,10.0722581 42.2541935,10.0722581 L42.2541935,10.0722581 L42.1956989,10.0722581 Z M5.11526882,19.8976344 C5.11526882,15.5556989 20.3436559,10.7187097 42.1956989,10.7187097 L42.1956989,10.7187097 L42.2541935,10.7187097 C64.1397849,10.7187097 79.3909677,15.5651613 79.3909677,19.9148387 L79.3909677,19.9148387 C79.3909677,24.2563441 64.1634409,29.0937634 42.3126882,29.0937634 L42.3126882,29.0937634 L42.2541935,29.0937634 C20.3673118,29.0937634 5.11526882,24.2468817 5.11526882,19.8976344 L5.11526882,19.8976344 Z" id="Fill-35" fill="url(#linearGradient-9)"></path>
                <path d="M42.1741935,11.3311828 C20.5247312,11.3311828 2.2344086,15.2529032 2.2344086,19.895914 L2.2344086,19.895914 C2.2344086,24.5488172 20.5617204,28.4795699 42.2550538,28.4795699 L42.2550538,28.4795699 L42.3346237,28.4795699 C63.9827957,28.4795699 82.271828,24.5582796 82.271828,19.9152688 L82.271828,19.9152688 C82.271828,15.2623656 63.9462366,11.3311828 42.2550538,11.3311828 L42.2550538,11.3311828 L42.1741935,11.3311828 Z M14.2511828,25.3135484 C7.13204301,23.7956989 2.88086022,21.7703226 2.88086022,19.895914 L2.88086022,19.895914 C2.88086022,18.0253763 7.12215054,16.0055914 14.2262366,14.492043 L14.2262366,14.492043 C21.836129,12.8705376 31.7621505,11.9780645 42.1741935,11.9780645 L42.1741935,11.9780645 L42.2550538,11.9780645 C52.6843011,11.9780645 62.627957,12.8731183 70.2546237,14.4980645 L70.2546237,14.4980645 C77.3746237,16.0154839 81.6253763,18.0408602 81.6253763,19.9152688 L81.6253763,19.9152688 C81.6253763,21.7853763 77.384086,23.8047312 70.28,25.3187097 L70.28,25.3187097 C62.6696774,26.9406452 52.7453763,27.8335484 42.3346237,27.8335484 L42.3346237,27.8335484 L42.2550538,27.8335484 C31.824086,27.8335484 21.8787097,26.9380645 14.2511828,25.3135484 L14.2511828,25.3135484 Z" id="Fill-37" fill="url(#linearGradient-10)"></path>
                <path d="M42.1475269,12.5901075 C19.3010753,12.5901075 0,15.9341935 0,19.8937634 L0,19.8937634 C0,23.8653763 19.3501075,27.2193548 42.2550538,27.2197849 L42.2550538,27.2197849 L42.3625806,27.2197849 C65.2068817,27.2197849 84.5058065,23.8752688 84.5058065,19.916129 L84.5058065,19.916129 C84.5058065,15.9453763 65.1578495,12.5901075 42.2550538,12.5901075 L42.2550538,12.5901075 L42.1475269,12.5901075 Z M12.6597849,24.4073118 C3.80215054,22.8808602 0.646451613,21.0752688 0.646451613,19.8937634 L0.646451613,19.8937634 C0.646451613,18.7169892 3.79311828,16.9169892 12.6249462,15.3956989 L12.6249462,15.3956989 C20.7113978,14.003871 31.196129,13.2369892 42.1475269,13.2369892 L42.1475269,13.2369892 L42.2550538,13.2369892 C53.2288172,13.2369892 63.7372043,14.0064516 71.8468817,15.4034409 L71.8468817,15.4034409 C80.7036559,16.9290323 83.8593548,18.7346237 83.8593548,19.916129 L83.8593548,19.916129 C83.8593548,21.0933333 80.7126882,22.8929032 71.8817204,24.4137634 L71.8817204,24.4137634 C63.7952688,25.8064516 53.3113978,26.5733333 42.3625806,26.5733333 L42.3625806,26.5733333 L42.2550538,26.5733333 C31.2795699,26.5733333 20.7690323,25.803871 12.6597849,24.4073118 L12.6597849,24.4073118 Z" id="Fill-39" fill="url(#linearGradient-11)"></path>
            </g>
        </g>
    </g>
</svg>