<svg width="318" height="40" viewBox="0 0 318 40" fill="none" xmlns="http://www.w3.org/2000/svg">
<g clip-path="url(#clip0_664_452)">
<path fill-rule="evenodd" clip-rule="evenodd" d="M113.128 27.75V20.9366H96.8664C96.3194 20.9366 95.7948 20.6944 95.408 20.2633C95.0213 19.8322 94.804 19.2475 94.804 18.6379V12.25H96.4847V19.0634H113.128V12.25H114.804V27.75H113.128ZM127.255 27.6784C125.412 27.6784 123.644 26.8656 122.34 25.4189C121.036 23.9723 120.304 22.0101 120.304 19.9642C120.304 17.9183 121.036 15.9561 122.34 14.5094C123.644 13.0628 125.412 12.25 127.255 12.25L140.299 12.3161V14.1841L127.26 14.1179C125.862 14.1179 124.521 14.7345 123.532 15.8319C122.543 16.9293 121.987 18.4177 121.987 19.9697C121.987 21.5217 122.543 23.0101 123.532 24.1075C124.521 25.2049 125.862 25.8215 127.26 25.8215L140.304 25.8821V27.75L127.255 27.6784ZM125.471 20.967V19.0991L140.299 19.1597V21.0221L125.471 20.967ZM154.492 27.5694C154.748 27.6889 155.023 27.7503 155.301 27.75C155.581 27.7505 155.858 27.6892 156.115 27.5698C156.373 27.4505 156.606 27.2753 156.802 27.0549L156.856 26.9837L164.804 13.2516L163.383 12.25L155.301 26.212L147.225 12.25L145.804 13.2461L153.752 26.9837L153.811 27.0549C154.005 27.275 154.236 27.45 154.492 27.5694ZM177.252 27.6839C175.409 27.6839 173.642 26.8708 172.339 25.4236C171.036 23.9764 170.304 22.0136 170.304 19.9669C170.304 17.9203 171.036 15.9574 172.339 14.5102C173.642 13.063 175.409 12.25 177.252 12.25L190.294 12.3106V14.1792L177.262 14.1186C176.556 14.0945 175.854 14.2281 175.196 14.5113C174.538 14.7945 173.938 15.2217 173.431 15.7674C172.924 16.3131 172.521 16.9662 172.246 17.6881C171.971 18.41 171.83 19.1858 171.83 19.9697C171.83 20.7535 171.971 21.5294 172.246 22.2513C172.521 22.9731 172.924 23.6263 173.431 24.172C173.938 24.7177 174.538 25.1448 175.196 25.4281C175.854 25.7113 176.556 25.8448 177.262 25.8208L190.304 25.8869V27.75L177.252 27.6839ZM175.467 20.9701V19.1015L190.289 19.1622V21.0308L175.467 20.9701ZM200.958 27.0774C201.344 27.5066 201.867 27.7485 202.414 27.75H215.229V25.9171H202.037V20.9633H211.881C212.924 20.9589 213.922 20.4957 214.658 19.6754C215.393 18.8551 215.805 17.7446 215.804 16.5874V16.5048C215.804 15.3764 215.4 14.2941 214.681 13.4962C213.962 12.6983 212.987 12.25 211.971 12.25H197.867C197.32 12.2515 196.796 12.4932 196.41 12.9223C196.023 13.3514 195.805 13.9329 195.804 14.5398V27.75H197.485V14.0994H211.971C212.541 14.0994 213.089 14.3511 213.492 14.7991C213.896 15.2471 214.123 15.8547 214.123 16.4883V16.5708C214.124 16.899 214.067 17.2243 213.955 17.528C213.843 17.8317 213.679 18.108 213.47 18.3411C213.262 18.5742 213.015 18.7594 212.742 18.8864C212.469 19.0133 212.177 19.0793 211.881 19.0808H202.414C201.868 19.0808 201.344 19.3215 200.958 19.7498C200.573 20.1782 200.356 20.7592 200.356 21.3651V25.4602C200.356 26.0666 200.572 26.6481 200.958 27.0774ZM223.375 27.75C222.826 27.75 222.299 27.5076 221.911 27.0762C221.522 26.6448 221.304 26.0597 221.304 25.4496V12.25H222.992V25.8754H241.304V27.75H223.375ZM265.117 21.7059V27.75H266.804V14.5449C266.803 13.9357 266.585 13.352 266.198 12.9218C265.811 12.4916 265.287 12.25 264.74 12.25H248.867C248.321 12.25 247.797 12.4916 247.41 12.9218C247.023 13.352 246.805 13.9357 246.804 14.5449V27.75H248.486V14.1191H265.117V19.8313H250.122V21.7059H265.117ZM290.236 27.75C289.905 27.7493 289.578 27.661 289.284 27.4925L289.204 27.4487L273.98 13.6649V27.6788H272.304V14.5305C272.302 14.1382 272.392 13.7521 272.566 13.4098C272.739 13.0676 272.99 12.7809 273.294 12.5777C273.598 12.3746 273.944 12.262 274.299 12.2509C274.654 12.2398 275.005 12.3306 275.319 12.5145L275.393 12.5583L290.623 26.342V12.3118H292.304V25.46C292.305 25.8514 292.215 26.2364 292.041 26.5774C291.867 26.9183 291.616 27.2035 291.312 27.4049C290.989 27.6269 290.617 27.7463 290.236 27.75ZM297.804 16.9748V27.75L310.87 27.7445C312.709 27.7445 314.473 26.9282 315.773 25.4754C317.073 24.0225 317.804 22.0519 317.804 19.9972C317.804 17.9425 317.073 15.972 315.773 14.5191C314.473 13.0662 312.709 12.25 310.87 12.25H297.804V14.1259H310.875C312.27 14.1259 313.608 14.7451 314.594 15.8472C315.581 16.9493 316.135 18.4441 316.135 20.0028C316.135 21.5614 315.581 23.0562 314.594 24.1583C313.608 25.2604 312.27 25.8796 310.875 25.8796H299.483V16.9748H297.804Z" fill="#494B68"/>
<path d="M113.128 20.9366H113.253V20.8116H113.128V20.9366ZM113.128 27.75H113.003V27.875H113.128V27.75ZM95.408 20.2633L95.315 20.3468L95.315 20.3468L95.408 20.2633ZM94.804 12.25V12.125H94.679V12.25H94.804ZM96.4847 12.25H96.6097V12.125H96.4847V12.25ZM96.4847 19.0634H96.3597V19.1884H96.4847V19.0634ZM113.128 19.0634V19.1884H113.253V19.0634H113.128ZM113.128 12.25V12.125H113.003V12.25H113.128ZM114.804 12.25H114.929V12.125H114.804V12.25ZM114.804 27.75V27.875H114.929V27.75H114.804ZM122.34 25.4189L122.247 25.5026L122.247 25.5026L122.34 25.4189ZM127.255 27.6784L127.256 27.5534H127.255V27.6784ZM122.34 14.5094L122.433 14.5931L122.433 14.5931L122.34 14.5094ZM127.255 12.25L127.256 12.125H127.255V12.25ZM140.299 12.3161H140.424V12.1918L140.3 12.1911L140.299 12.3161ZM140.299 14.1841L140.298 14.3091L140.424 14.3097V14.1841H140.299ZM127.26 14.1179L127.261 13.9929H127.26V14.1179ZM123.532 15.8319L123.624 15.9156L123.624 15.9156L123.532 15.8319ZM123.532 24.1075L123.624 24.0239L123.624 24.0239L123.532 24.1075ZM127.26 25.8215L127.261 25.6965H127.26V25.8215ZM140.304 25.8821H140.429V25.7576L140.305 25.7571L140.304 25.8821ZM140.304 27.75L140.303 27.875L140.429 27.8757V27.75H140.304ZM125.471 19.0991L125.471 18.9741L125.346 18.9736V19.0991H125.471ZM125.471 20.967H125.346V21.0916L125.47 21.092L125.471 20.967ZM140.299 19.1597H140.424V19.0352L140.3 19.0347L140.299 19.1597ZM140.299 21.0221L140.299 21.1471L140.424 21.1476V21.0221H140.299ZM155.301 27.75L155.302 27.625L155.301 27.625L155.301 27.75ZM154.492 27.5694L154.545 27.4562L154.545 27.4562L154.492 27.5694ZM156.115 27.5698L156.168 27.6833L156.168 27.6833L156.115 27.5698ZM156.802 27.0549L156.895 27.138L156.901 27.131L156.802 27.0549ZM156.856 26.9837L156.955 27.0599L156.96 27.0534L156.964 27.0464L156.856 26.9837ZM164.804 13.2516L164.912 13.3142L164.969 13.2153L164.876 13.1494L164.804 13.2516ZM163.383 12.25L163.455 12.1478L163.344 12.0691L163.275 12.1874L163.383 12.25ZM155.301 26.212L155.193 26.2746L155.301 26.4616L155.41 26.2747L155.301 26.212ZM147.225 12.25L147.333 12.1874L147.265 12.0694L147.153 12.1477L147.225 12.25ZM145.804 13.2461L145.732 13.1438L145.638 13.2095L145.696 13.3087L145.804 13.2461ZM153.752 26.9837L153.643 27.0463L153.649 27.0557L153.656 27.064L153.752 26.9837ZM153.811 27.0549L153.715 27.1352L153.717 27.1374L153.811 27.0549ZM172.339 25.4236L172.432 25.34L172.432 25.34L172.339 25.4236ZM177.252 27.6839L177.252 27.5589H177.252V27.6839ZM172.339 14.5102L172.432 14.5939L172.432 14.5939L172.339 14.5102ZM177.252 12.25L177.252 12.125H177.252V12.25ZM190.294 12.3106H190.419V12.1862L190.295 12.1856L190.294 12.3106ZM190.294 14.1792L190.293 14.3042L190.419 14.3048V14.1792H190.294ZM177.262 14.1186L177.258 14.2436L177.261 14.2436L177.262 14.1186ZM175.196 14.5113L175.146 14.3965L175.146 14.3965L175.196 14.5113ZM172.246 17.6881L172.363 17.7326L172.363 17.7326L172.246 17.6881ZM172.246 22.2513L172.363 22.2068L172.363 22.2068L172.246 22.2513ZM175.196 25.4281L175.146 25.5429L175.146 25.5429L175.196 25.4281ZM177.262 25.8208L177.262 25.6957L177.258 25.6958L177.262 25.8208ZM190.304 25.8869H190.429V25.7625L190.305 25.7619L190.304 25.8869ZM190.304 27.75L190.303 27.875L190.429 27.8756V27.75H190.304ZM175.467 19.1015L175.467 18.9765L175.342 18.976V19.1015H175.467ZM175.467 20.9701H175.342V21.0946L175.466 21.0951L175.467 20.9701ZM190.289 19.1622H190.414V19.0377L190.29 19.0372L190.289 19.1622ZM190.289 21.0308L190.289 21.1558L190.414 21.1563V21.0308H190.289ZM202.414 27.75L202.413 27.875H202.414V27.75ZM215.229 27.75V27.875H215.354V27.75H215.229ZM215.229 25.9171H215.354V25.7921H215.229V25.9171ZM202.037 25.9171H201.912V26.0421H202.037V25.9171ZM202.037 20.9633V20.8383H201.912V20.9633H202.037ZM211.881 20.9633V21.0883L211.882 21.0883L211.881 20.9633ZM214.658 19.6754L214.565 19.592L214.565 19.592L214.658 19.6754ZM215.804 16.5874L215.679 16.5874L215.679 16.5875L215.804 16.5874ZM214.681 13.4962L214.774 13.4125L214.774 13.4125L214.681 13.4962ZM197.867 12.25V12.125L197.867 12.125L197.867 12.25ZM196.41 12.9223L196.502 13.0059L196.502 13.0059L196.41 12.9223ZM195.804 14.5398L195.679 14.5395V14.5398H195.804ZM195.804 27.75H195.679V27.875H195.804V27.75ZM197.485 27.75V27.875H197.61V27.75H197.485ZM197.485 14.0994V13.9744H197.36V14.0994H197.485ZM213.492 14.7991L213.4 14.8828L213.4 14.8828L213.492 14.7991ZM214.123 16.5708L213.998 16.5708L213.998 16.5713L214.123 16.5708ZM212.742 18.8864L212.795 18.9997L212.795 18.9997L212.742 18.8864ZM211.881 19.0808V19.2058L211.882 19.2058L211.881 19.0808ZM221.911 27.0762L222.003 26.9926L222.003 26.9926L221.911 27.0762ZM221.304 12.25V12.125H221.179V12.25H221.304ZM222.992 12.25H223.117V12.125H222.992V12.25ZM222.992 25.8754H222.867V26.0004H222.992V25.8754ZM241.304 25.8754H241.429V25.7504H241.304V25.8754ZM241.304 27.75V27.875H241.429V27.75H241.304ZM265.117 27.75H264.992V27.875H265.117V27.75ZM265.117 21.7059H265.242V21.5809H265.117V21.7059ZM266.804 27.75V27.875H266.929V27.75H266.804ZM266.804 14.5449L266.929 14.5449L266.929 14.5446L266.804 14.5449ZM266.198 12.9218L266.105 13.0054L266.105 13.0054L266.198 12.9218ZM247.41 12.9218L247.503 13.0054L247.503 13.0054L247.41 12.9218ZM246.804 14.5449L246.679 14.5446V14.5449H246.804ZM246.804 27.75H246.679V27.875H246.804V27.75ZM248.486 27.75V27.875H248.611V27.75H248.486ZM248.486 14.1191V13.9941H248.361V14.1191H248.486ZM265.117 14.1191H265.242V13.9941H265.117V14.1191ZM265.117 19.8313V19.9563H265.242V19.8313H265.117ZM250.122 19.8313V19.7063H249.997V19.8313H250.122ZM250.122 21.7059H249.997V21.8309H250.122V21.7059ZM289.284 27.4925L289.346 27.384L289.344 27.3831L289.284 27.4925ZM290.236 27.75L290.236 27.875L290.237 27.875L290.236 27.75ZM289.204 27.4487L289.121 27.5414L289.131 27.5511L289.144 27.5581L289.204 27.4487ZM273.98 13.6649L274.064 13.5723L273.855 13.3831V13.6649H273.98ZM273.98 27.6788V27.8038H274.105V27.6788H273.98ZM272.304 27.6788H272.179V27.8038H272.304V27.6788ZM272.304 14.5305H272.429L272.429 14.5299L272.304 14.5305ZM272.566 13.4098L272.454 13.3533L272.454 13.3533L272.566 13.4098ZM273.294 12.5777L273.224 12.4738L273.224 12.4738L273.294 12.5777ZM274.299 12.2509L274.303 12.3758L274.299 12.2509ZM275.319 12.5145L275.383 12.4068L275.382 12.4066L275.319 12.5145ZM275.393 12.5583L275.477 12.4656L275.468 12.4571L275.457 12.4506L275.393 12.5583ZM290.623 26.342L290.539 26.4347L290.748 26.6238V26.342H290.623ZM290.623 12.3118V12.1868H290.498V12.3118H290.623ZM292.304 12.3118H292.429V12.1868H292.304V12.3118ZM292.304 25.46H292.179L292.179 25.4605L292.304 25.46ZM292.041 26.5774L291.93 26.5206L291.93 26.5206L292.041 26.5774ZM291.312 27.4049L291.243 27.3007L291.241 27.3018L291.312 27.4049ZM297.804 27.75H297.679V27.8751L297.804 27.875L297.804 27.75ZM297.804 16.9748V16.8498H297.679V16.9748H297.804ZM310.87 27.7445V27.6195L310.87 27.6195L310.87 27.7445ZM315.773 25.4754L315.866 25.5587L315.866 25.5587L315.773 25.4754ZM315.773 14.5191L315.866 14.4358L315.866 14.4358L315.773 14.5191ZM297.804 12.25V12.125H297.679V12.25H297.804ZM297.804 14.1259H297.679V14.2509H297.804V14.1259ZM314.594 15.8472L314.501 15.9306L314.501 15.9306L314.594 15.8472ZM314.594 24.1583L314.501 24.0749L314.501 24.0749L314.594 24.1583ZM299.483 25.8796H299.358V26.0046H299.483V25.8796ZM299.483 16.9748H299.608V16.8498H299.483V16.9748ZM113.003 20.9366V27.75H113.253V20.9366H113.003ZM96.8664 21.0616H113.128V20.8116H96.8664V21.0616ZM95.315 20.3468C95.7239 20.8026 96.2816 21.0616 96.8664 21.0616V20.8116C96.3572 20.8116 95.8657 20.5863 95.5011 20.1799L95.315 20.3468ZM94.679 18.6379C94.679 19.2766 94.9065 19.8915 95.315 20.3468L95.5011 20.1799C95.136 19.773 94.929 19.2185 94.929 18.6379H94.679ZM94.679 12.25V18.6379H94.929V12.25H94.679ZM96.4847 12.125H94.804V12.375H96.4847V12.125ZM96.6097 19.0634V12.25H96.3597V19.0634H96.6097ZM113.128 18.9384H96.4847V19.1884H113.128V18.9384ZM113.003 12.25V19.0634H113.253V12.25H113.003ZM114.804 12.125H113.128V12.375H114.804V12.125ZM114.929 27.75V12.25H114.679V27.75H114.929ZM113.128 27.875H114.804V27.625H113.128V27.875ZM122.247 25.5026C123.573 26.9739 125.374 27.8034 127.255 27.8034V27.5534C125.449 27.5534 123.714 26.7573 122.433 25.3353L122.247 25.5026ZM120.179 19.9642C120.179 22.0393 120.922 24.0317 122.247 25.5026L122.433 25.3353C121.151 23.9128 120.429 21.9809 120.429 19.9642H120.179ZM122.247 14.4258C120.922 15.8967 120.179 17.8891 120.179 19.9642H120.429C120.429 17.9474 121.151 16.0156 122.433 14.5931L122.247 14.4258ZM127.255 12.125C125.374 12.125 123.573 12.9544 122.247 14.4258L122.433 14.5931C123.714 13.1711 125.449 12.375 127.255 12.375V12.125ZM140.3 12.1911L127.256 12.125L127.255 12.375L140.298 12.4411L140.3 12.1911ZM140.424 14.1841V12.3161H140.174V14.1841H140.424ZM127.26 14.2429L140.298 14.3091L140.3 14.0591L127.261 13.9929L127.26 14.2429ZM123.624 15.9156C124.591 14.8428 125.899 14.2429 127.26 14.2429V13.9929C125.824 13.9929 124.45 14.6262 123.439 15.7482L123.624 15.9156ZM122.112 19.9697C122.112 18.4469 122.657 16.9888 123.624 15.9156L123.439 15.7482C122.428 16.8698 121.862 18.3885 121.862 19.9697H122.112ZM123.624 24.0239C122.657 22.9506 122.112 21.4925 122.112 19.9697H121.862C121.862 21.5509 122.428 23.0696 123.439 24.1912L123.624 24.0239ZM127.26 25.6965C125.899 25.6965 124.591 25.0966 123.624 24.0239L123.439 24.1912C124.45 25.3133 125.824 25.9465 127.26 25.9465V25.6965ZM140.305 25.7571L127.261 25.6965L127.26 25.9465L140.303 26.0071L140.305 25.7571ZM140.429 27.75V25.8821H140.179V27.75H140.429ZM127.255 27.8034L140.303 27.875L140.305 27.625L127.256 27.5534L127.255 27.8034ZM125.346 19.0991V20.967H125.596V19.0991H125.346ZM140.3 19.0347L125.471 18.9741L125.47 19.2241L140.298 19.2847L140.3 19.0347ZM140.424 21.0221V19.1597H140.174V21.0221H140.424ZM125.47 21.092L140.299 21.1471L140.299 20.8971L125.471 20.842L125.47 21.092ZM155.301 27.625C155.042 27.6252 154.785 27.568 154.545 27.4562L154.439 27.6827C154.712 27.8098 155.005 27.8753 155.302 27.875L155.301 27.625ZM156.063 27.4564C155.821 27.5683 155.563 27.6255 155.302 27.625L155.301 27.875C155.599 27.8755 155.894 27.8102 156.168 27.6833L156.063 27.4564ZM156.708 26.972C156.524 27.1801 156.304 27.3446 156.063 27.4564L156.168 27.6833C156.442 27.5564 156.689 27.3706 156.895 27.1378L156.708 26.972ZM156.757 26.9076L156.702 26.9788L156.901 27.131L156.955 27.0599L156.757 26.9076ZM164.696 13.189L156.748 26.9211L156.964 27.0464L164.912 13.3142L164.696 13.189ZM163.311 12.3522L164.732 13.3538L164.876 13.1494L163.455 12.1478L163.311 12.3522ZM155.41 26.2747L163.491 12.3126L163.275 12.1874L155.193 26.1494L155.41 26.2747ZM147.116 12.3126L155.193 26.2746L155.41 26.1494L147.333 12.1874L147.116 12.3126ZM145.876 13.3485L147.296 12.3523L147.153 12.1477L145.732 13.1438L145.876 13.3485ZM153.86 26.9211L145.912 13.1835L145.696 13.3087L153.643 27.0463L153.86 26.9211ZM153.907 26.9746L153.847 26.9035L153.656 27.064L153.715 27.1352L153.907 26.9746ZM154.545 27.4562C154.305 27.3443 154.088 27.18 153.905 26.9724L153.717 27.1374C153.922 27.37 154.167 27.5557 154.439 27.6827L154.545 27.4562ZM172.246 25.5072C173.571 26.9791 175.372 27.8089 177.252 27.8089V27.5589C175.447 27.5589 173.713 26.7625 172.432 25.34L172.246 25.5072ZM170.179 19.9669C170.179 22.0428 170.921 24.0358 172.246 25.5073L172.432 25.34C171.151 23.917 170.429 21.9844 170.429 19.9669H170.179ZM172.246 14.4266C170.921 15.898 170.179 17.8911 170.179 19.9669H170.429C170.429 17.9494 171.151 16.0169 172.432 14.5939L172.246 14.4266ZM177.252 12.125C175.372 12.125 173.571 12.9547 172.246 14.4266L172.432 14.5939C173.713 13.1713 175.447 12.375 177.252 12.375V12.125ZM190.295 12.1856L177.252 12.125L177.251 12.375L190.293 12.4356L190.295 12.1856ZM190.419 14.1792V12.3106H190.169V14.1792H190.419ZM177.261 14.2436L190.293 14.3042L190.295 14.0542L177.262 13.9936L177.261 14.2436ZM175.245 14.6261C175.887 14.3501 176.571 14.2201 177.258 14.2435L177.266 13.9937C176.542 13.969 175.821 14.1061 175.146 14.3965L175.245 14.6261ZM173.522 15.8524C174.018 15.319 174.604 14.9022 175.245 14.6261L175.146 14.3965C174.472 14.6869 173.857 15.1244 173.339 15.6823L173.522 15.8524ZM172.363 17.7326C172.633 17.0252 173.027 16.3859 173.522 15.8524L173.339 15.6823C172.821 16.2402 172.41 16.9073 172.13 17.6436L172.363 17.7326ZM171.955 19.9697C171.955 19.2008 172.094 18.44 172.363 17.7326L172.13 17.6436C171.849 18.3799 171.705 19.1709 171.705 19.9697H171.955ZM172.363 22.2068C172.094 21.4993 171.955 20.7386 171.955 19.9697H171.705C171.705 20.7685 171.849 21.5595 172.13 22.2958L172.363 22.2068ZM173.522 24.087C173.027 23.5535 172.633 22.9142 172.363 22.2068L172.13 22.2958C172.41 23.0321 172.821 23.6991 173.339 24.257L173.522 24.087ZM175.245 25.3132C174.604 25.0372 174.018 24.6204 173.522 24.087L173.339 24.257C173.857 24.815 174.472 25.2525 175.146 25.5429L175.245 25.3132ZM177.258 25.6958C176.571 25.7193 175.887 25.5893 175.245 25.3132L175.146 25.5429C175.821 25.8333 176.542 25.9704 177.266 25.9457L177.258 25.6958ZM190.305 25.7619L177.262 25.6958L177.261 25.9458L190.303 26.0119L190.305 25.7619ZM190.429 27.75V25.8869H190.179V27.75H190.429ZM177.251 27.8089L190.303 27.875L190.305 27.625L177.252 27.5589L177.251 27.8089ZM175.342 19.1015V20.9701H175.592V19.1015H175.342ZM190.29 19.0372L175.467 18.9765L175.466 19.2265L190.289 19.2872L190.29 19.0372ZM190.414 21.0308V19.1622H190.164V21.0308H190.414ZM175.466 21.0951L190.289 21.1558L190.29 20.9058L175.467 20.8451L175.466 21.0951ZM202.414 27.625C201.905 27.6236 201.415 27.3985 201.051 26.9938L200.865 27.1609C201.273 27.6148 201.83 27.8734 202.413 27.875L202.414 27.625ZM215.229 27.625H202.414V27.875H215.229V27.625ZM215.104 25.9171V27.75H215.354V25.9171H215.104ZM202.037 26.0421H215.229V25.7921H202.037V26.0421ZM201.912 20.9633V25.9171H202.162V20.9633H201.912ZM211.881 20.8383H202.037V21.0883H211.881V20.8383ZM214.565 19.592C213.851 20.3877 212.886 20.834 211.881 20.8383L211.882 21.0883C212.962 21.0837 213.993 20.6038 214.751 19.7588L214.565 19.592ZM215.679 16.5875C215.68 17.7156 215.278 18.7959 214.565 19.592L214.751 19.7588C215.508 18.9143 215.93 17.7736 215.929 16.5872L215.679 16.5875ZM215.679 16.5048V16.5874H215.929V16.5048H215.679ZM214.588 13.5799C215.285 14.3536 215.679 15.4055 215.679 16.5048H215.929C215.929 15.3472 215.515 14.2347 214.774 13.4125L214.588 13.5799ZM211.971 12.375C212.95 12.375 213.892 12.8066 214.588 13.5799L214.774 13.4125C214.033 12.59 213.025 12.125 211.971 12.125V12.375ZM197.867 12.375H211.971V12.125H197.867V12.375ZM196.502 13.0059C196.867 12.6014 197.358 12.3764 197.867 12.375L197.867 12.125C197.282 12.1266 196.725 12.3849 196.317 12.8386L196.502 13.0059ZM195.929 14.54C195.93 13.9623 196.138 13.4109 196.502 13.0059L196.317 12.8386C195.908 13.2918 195.68 13.9036 195.679 14.5395L195.929 14.54ZM195.929 27.75V14.5398H195.679V27.75H195.929ZM197.485 27.625H195.804V27.875H197.485V27.625ZM197.36 14.0994V27.75H197.61V14.0994H197.36ZM211.971 13.9744H197.485V14.2244H211.971V13.9744ZM213.585 14.7154C213.159 14.2428 212.579 13.9744 211.971 13.9744V14.2244C212.504 14.2244 213.018 14.4594 213.4 14.8828L213.585 14.7154ZM214.248 16.4883C214.248 15.8255 214.011 15.1876 213.585 14.7154L213.4 14.8828C213.781 15.3066 213.998 15.8839 213.998 16.4883H214.248ZM214.248 16.5708V16.4883H213.998V16.5708H214.248ZM214.072 17.5712C214.19 17.2533 214.249 16.9132 214.248 16.5704L213.998 16.5713C213.999 16.8848 213.945 17.1952 213.838 17.4848L214.072 17.5712ZM213.564 18.4244C213.783 18.1791 213.955 17.8892 214.072 17.5712L213.838 17.4848C213.731 17.7743 213.574 18.0369 213.377 18.2578L213.564 18.4244ZM212.795 18.9997C213.084 18.8653 213.345 18.6696 213.564 18.4244L213.377 18.2578C213.18 18.4787 212.946 18.6536 212.689 18.773L212.795 18.9997ZM211.882 19.2058C212.196 19.2043 212.506 19.1341 212.795 18.9997L212.689 18.773C212.433 18.8925 212.158 18.9544 211.881 18.9558L211.882 19.2058ZM202.414 19.2058H211.881V18.9558H202.414V19.2058ZM201.051 19.8335C201.415 19.4298 201.905 19.2058 202.414 19.2058V18.9558C201.83 18.9558 201.274 19.2132 200.866 19.6662L201.051 19.8335ZM200.481 21.3651C200.481 20.7884 200.687 20.2377 201.051 19.8335L200.866 19.6662C200.458 20.1188 200.231 20.73 200.231 21.3651H200.481ZM200.481 25.4602V21.3651H200.231V25.4602H200.481ZM201.051 26.9938C200.687 26.5888 200.481 26.0374 200.481 25.4602H200.231C200.231 26.0957 200.458 26.7075 200.865 27.1609L201.051 26.9938ZM221.818 27.1599C222.228 27.6159 222.788 27.875 223.375 27.875V27.625C222.863 27.625 222.37 27.3994 222.003 26.9926L221.818 27.1599ZM221.179 25.4496C221.179 26.0889 221.407 26.7043 221.818 27.1599L222.003 26.9926C221.637 26.5854 221.429 26.0305 221.429 25.4496H221.179ZM221.179 12.25V25.4496H221.429V12.25H221.179ZM222.992 12.125H221.304V12.375H222.992V12.125ZM223.117 25.8754V12.25H222.867V25.8754H223.117ZM241.304 25.7504H222.992V26.0004H241.304V25.7504ZM241.429 27.75V25.8754H241.179V27.75H241.429ZM223.375 27.875H241.304V27.625H223.375V27.875ZM265.242 27.75V21.7059H264.992V27.75H265.242ZM266.804 27.625H265.117V27.875H266.804V27.625ZM266.679 14.5449V27.75H266.929V14.5449H266.679ZM266.105 13.0054C266.47 13.4114 266.678 13.965 266.679 14.5451L266.929 14.5446C266.928 13.9065 266.699 13.2926 266.291 12.8382L266.105 13.0054ZM264.74 12.375C265.249 12.375 265.74 12.5998 266.105 13.0054L266.291 12.8382C265.882 12.3834 265.325 12.125 264.74 12.125V12.375ZM248.867 12.375H264.74V12.125H248.867V12.375ZM247.503 13.0054C247.868 12.5998 248.359 12.375 248.867 12.375V12.125C248.283 12.125 247.726 12.3834 247.317 12.8382L247.503 13.0054ZM246.929 14.5451C246.93 13.965 247.138 13.4114 247.503 13.0054L247.317 12.8382C246.909 13.2926 246.68 13.9065 246.679 14.5446L246.929 14.5451ZM246.929 27.75V14.5449H246.679V27.75H246.929ZM248.486 27.625H246.804V27.875H248.486V27.625ZM248.361 14.1191V27.75H248.611V14.1191H248.361ZM265.117 13.9941H248.486V14.2441H265.117V13.9941ZM265.242 19.8313V14.1191H264.992V19.8313H265.242ZM250.122 19.9563H265.117V19.7063H250.122V19.9563ZM250.247 21.7059V19.8313H249.997V21.7059H250.247ZM265.117 21.5809H250.122V21.8309H265.117V21.5809ZM289.222 27.601C289.534 27.78 289.882 27.8742 290.236 27.875L290.236 27.625C289.927 27.6243 289.622 27.542 289.346 27.384L289.222 27.601ZM289.144 27.5581L289.223 27.6019L289.344 27.3831L289.265 27.3393L289.144 27.5581ZM273.896 13.7576L289.121 27.5414L289.288 27.356L274.064 13.5723L273.896 13.7576ZM274.105 27.6788V13.6649H273.855V27.6788H274.105ZM272.304 27.8038H273.98V27.5538H272.304V27.8038ZM272.179 14.5305V27.6788H272.429V14.5305H272.179ZM272.454 13.3533C272.272 13.7137 272.177 14.1195 272.179 14.5311L272.429 14.5299C272.427 14.157 272.513 13.7905 272.677 13.4664L272.454 13.3533ZM273.224 12.4738C272.902 12.6895 272.637 12.9929 272.454 13.3533L272.677 13.4664C272.842 13.1422 273.078 12.8722 273.363 12.6817L273.224 12.4738ZM274.295 12.126C273.916 12.1378 273.547 12.2581 273.224 12.4738L273.363 12.6817C273.648 12.4911 273.972 12.3862 274.303 12.3758L274.295 12.126ZM275.382 12.4066C275.049 12.2112 274.674 12.1141 274.295 12.126L274.303 12.3758C274.634 12.3655 274.962 12.4501 275.256 12.6223L275.382 12.4066ZM275.457 12.4506L275.383 12.4068L275.256 12.6222L275.33 12.666L275.457 12.4506ZM290.707 26.2494L275.477 12.4656L275.31 12.651L290.539 26.4347L290.707 26.2494ZM290.498 12.3118V26.342H290.748V12.3118H290.498ZM292.304 12.1868H290.623V12.4368H292.304V12.1868ZM292.429 25.46V12.3118H292.179V25.46H292.429ZM292.152 26.6342C292.335 26.2751 292.43 25.8703 292.429 25.4595L292.179 25.4605C292.18 25.8324 292.094 26.1978 291.93 26.5206L292.152 26.6342ZM291.381 27.509C291.704 27.2952 291.969 26.9933 292.152 26.6342L291.93 26.5206C291.765 26.8434 291.528 27.1118 291.243 27.3007L291.381 27.509ZM290.237 27.875C290.643 27.871 291.04 27.7435 291.383 27.5079L291.241 27.3018C290.938 27.5102 290.59 27.6215 290.235 27.625L290.237 27.875ZM297.929 27.75V16.9748H297.679V27.75H297.929ZM310.87 27.6195L297.804 27.625L297.804 27.875L310.87 27.8695L310.87 27.6195ZM315.68 25.392C314.402 26.8202 312.671 27.6195 310.87 27.6195V27.8695C312.747 27.8695 314.544 27.0363 315.866 25.5587L315.68 25.392ZM317.679 19.9972C317.679 22.023 316.959 23.9633 315.68 25.392L315.866 25.5587C317.188 24.0816 317.929 22.0809 317.929 19.9972H317.679ZM315.68 14.6025C316.959 16.0311 317.679 17.9715 317.679 19.9972H317.929C317.929 17.9136 317.188 15.9129 315.866 14.4358L315.68 14.6025ZM310.87 12.375C312.671 12.375 314.402 13.1743 315.68 14.6025L315.866 14.4358C314.544 12.9582 312.747 12.125 310.87 12.125V12.375ZM297.804 12.375H310.87V12.125H297.804V12.375ZM297.929 14.1259V12.25H297.679V14.1259H297.929ZM310.875 14.0009H297.804V14.2509H310.875V14.0009ZM314.687 15.7639C313.679 14.637 312.308 14.0009 310.875 14.0009V14.2509C312.232 14.2509 313.537 14.8532 314.501 15.9306L314.687 15.7639ZM316.26 20.0028C316.26 18.4152 315.695 16.8902 314.687 15.7639L314.501 15.9306C315.466 17.0085 316.01 18.4731 316.01 20.0028H316.26ZM314.687 24.2417C315.695 23.1153 316.26 21.5904 316.26 20.0028H316.01C316.01 21.5324 315.466 22.9971 314.501 24.0749L314.687 24.2417ZM310.875 26.0046C312.308 26.0046 313.679 25.3685 314.687 24.2417L314.501 24.0749C313.537 25.1524 312.232 25.7546 310.875 25.7546V26.0046ZM299.483 26.0046H310.875V25.7546H299.483V26.0046ZM299.358 16.9748V25.8796H299.608V16.9748H299.358ZM297.804 17.0998H299.483V16.8498H297.804V17.0998Z" fill="#494B68"/>
<path fill-rule="evenodd" clip-rule="evenodd" d="M42.3366 40C38.3813 39.9983 34.5153 38.8238 31.2275 36.6252C30.5751 36.189 29.9514 35.7163 29.3588 35.2103C28.6028 34.7514 27.8822 34.2535 27.2013 33.7202C26.4235 33.2825 25.6836 32.8119 24.9859 32.3114C24.1574 31.8816 23.3726 31.4218 22.6362 30.9347C21.8005 30.5339 21.0106 30.108 20.2711 29.6594C19.3531 29.2573 18.4919 28.8303 17.6931 28.3809C16.6584 27.9631 15.6996 27.5189 14.8251 27.0515C13.9157 26.7092 13.0763 26.3527 12.3096 25.9837C11.2065 25.6136 10.2112 25.2265 9.32831 24.8251C8.43017 24.5471 7.60514 24.2578 6.85978 23.9585C2.48248 22.8061 -0.0875244 21.4407 -0.0875244 19.9954C-0.0875244 18.5858 2.35084 17.2523 6.52168 16.1182C7.41028 15.7469 8.42148 15.3905 9.54297 15.0515C10.3594 14.6902 11.2682 14.3409 12.266 14.0054C13.0535 13.6257 13.9193 13.2589 14.8607 12.9069C15.7296 12.4449 16.6811 12.0058 17.7071 11.5926C18.5061 11.144 19.3675 10.7178 20.2856 10.3165C21.0311 9.86507 21.8278 9.43675 22.6708 9.03395C23.3978 8.55505 24.1716 8.10268 24.9878 7.67954C25.6963 7.17165 26.4482 6.69459 27.2391 6.25148C27.9069 5.73101 28.6126 5.24452 29.3521 4.79532C31.9492 2.576 35.0789 1.05296 38.4466 0.383671C42.326 -0.387333 46.3469 0.00923872 50.001 1.52324C51.9764 2.34176 53.7967 3.46702 55.3995 4.84779C56.1013 5.27822 56.7724 5.74232 57.4091 6.23725C58.209 6.68401 58.9691 7.16541 59.685 7.67826C60.5202 8.11089 61.3112 8.57409 62.053 9.06496C62.8892 9.46613 63.6796 9.89238 64.4196 10.3413C65.3518 10.7498 66.2257 11.1837 67.035 11.6405C68.0516 12.053 68.9943 12.4908 69.8554 12.9511C70.7539 13.2905 71.5835 13.6438 72.3416 14.0092C73.3436 14.3445 74.2566 14.6938 75.0775 15.0552C76.1388 15.3751 77.1026 15.7105 77.9584 16.0591C82.2736 17.2059 84.8039 18.5613 84.8039 19.9954C84.8039 21.424 82.2969 22.7745 78.0205 23.9185C77.2123 24.2491 76.3066 24.5677 75.3121 24.8724C74.3917 25.2879 73.3494 25.6881 72.1902 26.0701C71.4844 26.4032 70.7179 26.7263 69.8923 27.038C69.0131 27.5099 68.0482 27.9581 67.0058 28.3796C66.2111 28.8267 65.3544 29.2516 64.4416 29.6519C63.687 30.1106 62.8797 30.5455 62.0247 30.9541C61.2996 31.4323 60.5278 31.884 59.7137 32.3067C58.9932 32.8243 58.2275 33.3099 57.4214 33.7602C56.7597 34.2749 56.061 34.7562 55.329 35.201C51.7203 38.2843 47.117 39.9969 42.3366 40ZM72.6689 24.4103C72.4894 24.4424 72.3074 24.4743 72.1229 24.5061C72.0121 24.5251 71.9009 24.5439 71.7892 24.5627C72.9478 23.1349 73.5787 21.5986 73.5787 19.9989C73.5787 18.3855 72.9349 16.8362 71.7542 15.3975C71.866 15.4163 71.9774 15.4353 72.0884 15.4544C72.267 15.4852 72.4433 15.5161 72.6173 15.5472C74.249 16.9287 75.1558 18.4349 75.1558 20.0002C75.1558 21.5498 74.2681 23.0409 72.6689 24.4103ZM74.4391 24.0754C74.2428 24.1148 74.043 24.1541 73.8398 24.1933C75.1109 22.8832 75.8039 21.4713 75.8039 20.0002C75.8039 18.5135 75.0932 17.0869 73.7915 15.7646C73.9787 15.8006 74.1629 15.8367 74.3443 15.873C76.2988 17.1564 77.3985 18.5583 77.3985 20.0046C77.3985 21.4291 76.3344 22.8095 74.4391 24.0754ZM76.1626 23.7069C76.0821 23.7253 76.0009 23.7436 75.9191 23.7619C77.3066 22.5713 78.0293 21.305 78.0293 20.0046C78.0293 18.6857 77.2783 17.3985 75.8457 16.1898C75.9047 16.2029 75.9632 16.2161 76.0214 16.2293C78.3678 17.4446 79.6452 18.7466 79.6452 20.0054C79.6452 21.2396 78.4189 22.514 76.1626 23.7069ZM81.0824 22.271C83.2594 21.4237 84.1559 20.617 84.1559 19.9867C84.1559 19.3478 83.2319 18.525 80.9825 17.6618C81.998 18.4098 82.5442 19.1963 82.5442 20.0048C82.5442 20.7868 82.0338 21.547 81.0824 22.271ZM70.6954 15.2244C72.1202 16.7126 72.9091 18.3274 72.9091 20.0032C72.9091 21.6614 72.1373 23.259 70.7417 24.733C70.4058 24.786 70.0661 24.8379 69.7229 24.8888C70.7544 23.3566 71.315 21.7116 71.315 20C71.315 18.2735 70.7427 16.6144 69.6911 15.0702C70.0293 15.1206 70.3642 15.172 70.6954 15.2244ZM69.8945 14.4592C69.8856 14.4513 69.8766 14.4435 69.8677 14.4357C69.6163 14.3843 69.3624 14.3336 69.1063 14.2837C69.1245 14.3063 69.1427 14.3289 69.1607 14.3515C69.4075 14.3869 69.6522 14.4228 69.8945 14.4592ZM68.1886 14.216C68.1507 14.1736 68.1123 14.1313 68.0735 14.089C67.7601 14.0318 67.4435 13.9758 67.1238 13.9208C67.1616 13.9773 67.1989 14.0339 67.2357 14.0906C67.5567 14.1317 67.8744 14.1735 68.1886 14.216ZM66.396 13.9858C66.3459 13.9148 66.295 13.844 66.2432 13.7736C65.8751 13.7137 65.503 13.6552 65.1273 13.5982C65.1741 13.6827 65.22 13.7676 65.265 13.8527C65.6461 13.896 66.0231 13.9404 66.396 13.9858ZM65.6007 14.5297C66.0223 14.5789 66.4399 14.6295 66.8533 14.6814C67.8671 16.3403 68.4202 18.1301 68.4202 19.9956C68.4202 21.8491 67.8739 23.6281 66.8723 25.278C66.4597 25.3297 66.043 25.3801 65.6222 25.4291C66.4062 23.7197 66.8302 21.8948 66.8302 20.0002C66.8302 18.0904 66.3984 16.2512 65.6007 14.5297ZM64.4794 13.7654C64.4247 13.669 64.3688 13.5731 64.3117 13.4777C63.9169 13.4208 63.5183 13.3655 63.1161 13.3118C63.1654 13.42 63.2135 13.5287 63.2605 13.6379C63.671 13.6792 64.0773 13.7217 64.4794 13.7654ZM63.5301 14.3029C63.9707 14.3482 64.4075 14.3949 64.8403 14.4431C65.7065 16.1837 66.1778 18.0541 66.1778 20.0002C66.1778 21.9312 65.714 23.7872 64.8609 25.5157C64.4277 25.5639 63.9904 25.6106 63.5492 25.6559C64.2211 23.872 64.5837 21.9731 64.5837 20.004C64.5837 18.0171 64.2142 16.1014 63.5301 14.3029ZM62.5307 13.5659C62.4769 13.448 62.4216 13.3307 62.3649 13.214C61.9478 13.161 61.527 13.1097 61.1027 13.06C61.1502 13.1885 61.1964 13.3174 61.2412 13.4467C61.6752 13.4852 62.105 13.525 62.5307 13.5659ZM61.4563 14.1033C61.9135 14.1444 62.367 14.1871 62.8167 14.2312C63.5478 16.0435 63.9443 17.9835 63.9443 19.9997C63.9443 22.0009 63.5536 23.9272 62.8329 25.7279C62.3801 25.7724 61.9234 25.8153 61.463 25.8568C62.0408 23.9759 62.3432 22.0036 62.3454 20C62.3454 17.9901 62.0425 16.0032 61.4563 14.1033ZM60.7423 14.0405C55.0282 13.55 48.7743 13.2942 42.3625 13.2942H42.2545C35.8574 13.2942 29.6209 13.554 23.9236 14.0449C22.91 17.1787 22.7105 20.5283 23.3564 23.7754C23.5007 24.5008 23.6859 25.2148 23.9104 25.9143C29.6433 26.4085 35.9233 26.6664 42.3625 26.6664H42.4705C48.8499 26.6664 55.0737 26.4075 60.7614 25.9185C61.3725 24.016 61.6886 22.02 61.6886 20C61.6864 17.9572 61.3615 15.948 60.7423 14.0405ZM60.5161 13.3838C54.978 12.9152 48.8103 12.6504 42.3625 12.6504H42.2545C35.8245 12.6504 29.6739 12.9149 24.1509 13.3831C24.2014 13.2444 24.2535 13.1061 24.3073 12.9683C29.8484 12.3544 35.9652 12.029 42.2588 12.029H42.3452C48.6617 12.029 54.8022 12.3575 60.3619 12.9756C60.4148 13.1111 60.4662 13.2472 60.5161 13.3838ZM23.4502 13.4439C23.496 13.3119 23.5431 13.1805 23.5916 13.0496C23.1631 13.0995 22.7383 13.1511 22.3172 13.2044C22.2591 13.3238 22.2025 13.4439 22.1474 13.5645C22.5774 13.5231 23.0117 13.4828 23.4502 13.4439ZM21.4108 13.6372C21.4589 13.5253 21.5083 13.4138 21.5589 13.3029C21.1587 13.3561 20.7621 13.411 20.3693 13.4674C20.3103 13.566 20.2525 13.665 20.196 13.7646C20.5967 13.721 21.0017 13.6785 21.4108 13.6372ZM19.8328 14.4476C20.2644 14.3995 20.7 14.3529 21.1395 14.3077C20.458 16.1034 20.09 18.016 20.09 19.9997C20.09 21.9682 20.4524 23.8669 21.124 25.651C20.6843 25.6056 20.2484 25.5588 19.8166 25.5105C18.9636 23.7821 18.4998 21.9263 18.4998 19.9959C18.4998 18.0529 18.9694 16.1856 19.8328 14.4476ZM19.4144 13.8516C19.4611 13.7631 19.5089 13.6749 19.5576 13.5871C19.1843 13.6435 18.8147 13.7014 18.4488 13.7607C18.3941 13.835 18.3404 13.9096 18.2876 13.9844C18.6591 13.9392 19.0347 13.8949 19.4144 13.8516ZM17.827 14.6849C18.2394 14.6332 18.656 14.5828 19.0767 14.5338C18.2819 16.2527 17.8517 18.089 17.8517 19.9959C17.8517 21.8901 18.2764 23.7148 19.0613 25.4242C18.6389 25.3747 18.2206 25.3239 17.8065 25.2716C16.8069 23.6235 16.2618 21.8468 16.2618 19.9956C16.2618 18.1314 16.8143 16.3428 17.827 14.6849ZM17.4471 14.0895C17.4864 14.0288 17.5264 13.9682 17.5669 13.9078C17.2473 13.9626 16.9307 14.0185 16.6173 14.0756C16.5744 14.1222 16.532 14.1689 16.4902 14.2157C16.8058 14.1729 17.1247 14.1308 17.4471 14.0895ZM15.8882 14.9427C16.2632 14.8899 16.6422 14.8384 17.025 14.788C16.1073 16.423 15.6093 18.1746 15.6093 19.9956C15.6093 21.8033 16.1003 23.543 17.0057 25.1681C16.6227 25.1174 16.2435 25.0655 15.8683 25.0124C14.66 23.4198 14.028 21.7238 14.028 19.9913C14.028 18.248 14.6661 16.5425 15.8882 14.9427ZM15.5176 14.3516C15.5392 14.3244 15.5609 14.2973 15.5828 14.2702C15.3205 14.3211 15.0606 14.3729 14.8033 14.4255C14.789 14.438 14.7747 14.4505 14.7605 14.463C15.0104 14.4254 15.2628 14.3883 15.5176 14.3516ZM13.9603 15.2299C14.2991 15.1765 14.6416 15.1241 14.9877 15.0728C13.9435 16.6134 13.3756 18.2687 13.3756 19.9913C13.3756 21.703 13.9362 23.3484 14.968 24.8813C14.6189 24.8291 14.2735 24.7758 13.932 24.7214C12.5358 23.2464 11.7637 21.6482 11.7637 19.9903C11.7637 18.3206 12.5462 16.7124 13.9603 15.2299ZM12.0186 15.5554C12.2075 15.5216 12.3991 15.488 12.5935 15.4544C12.7032 15.4357 12.8134 15.417 12.9241 15.3984C11.7534 16.8339 11.1156 18.3798 11.1156 19.9903C11.1156 21.589 11.7446 23.1246 12.8998 24.5518C12.8104 24.5367 12.7212 24.5214 12.6324 24.5061C12.4125 24.4682 12.1962 24.4301 11.9833 24.3919C10.3861 23.0231 9.49974 21.5337 9.49974 19.9872C9.49974 18.4295 10.3992 16.9308 12.0186 15.5554ZM10.3101 15.8785C10.4887 15.8428 10.6701 15.8071 10.8543 15.7716C9.56966 17.0876 8.86893 18.5071 8.86893 19.9872C8.86893 21.4567 9.56029 22.8673 10.8286 24.1767C10.6388 24.1399 10.452 24.103 10.2681 24.066C8.36531 22.7973 7.29652 21.4141 7.29652 19.9873C7.29652 18.5481 8.38098 17.1545 10.3101 15.8785ZM8.58191 16.2473C8.63396 16.2355 8.68631 16.2236 8.73895 16.2118C7.33895 17.4081 6.60954 18.6809 6.60954 19.9873C6.60954 21.2819 7.33658 22.5468 8.72188 23.7367C8.64746 23.7199 8.57363 23.7031 8.50037 23.6863C6.25063 22.4938 5.02813 21.2206 5.02813 19.9881C5.02813 18.7397 6.28019 17.4511 8.58191 16.2473ZM3.63164 17.6912C1.45895 18.5379 0.564886 19.3439 0.564886 19.9738C0.564886 20.6069 1.4706 21.4204 3.67452 22.2748C2.68867 21.5371 2.15914 20.7622 2.15914 19.966C2.15914 19.1809 2.67338 18.4178 3.63164 17.6912ZM14.7653 25.5229C14.7764 25.5327 14.7875 25.5424 14.7987 25.5522C15.0562 25.605 15.3162 25.657 15.5787 25.7082C15.5587 25.6834 15.5389 25.6586 15.5192 25.6338C15.2655 25.5973 15.0142 25.5603 14.7653 25.5229ZM16.4935 25.7699C16.5334 25.8146 16.5738 25.8592 16.6147 25.9037C16.9263 25.9606 17.2411 26.0163 17.5589 26.071C17.5198 26.0126 17.4812 25.9539 17.4432 25.8951C17.1233 25.8541 16.8067 25.8124 16.4935 25.7699ZM18.2837 26.0003C18.3351 26.0733 18.3875 26.1461 18.4408 26.2185C18.8072 26.2782 19.1775 26.3364 19.5514 26.3931C19.5037 26.3068 19.4569 26.2202 19.411 26.1332C19.0312 26.0899 18.6553 26.0456 18.2837 26.0003ZM20.1927 26.2203C20.2483 26.3184 20.3051 26.416 20.3632 26.5131C20.7551 26.5696 21.1508 26.6245 21.5502 26.6778C21.5003 26.5682 21.4517 26.458 21.4043 26.3475C20.9963 26.3062 20.5924 26.2638 20.1927 26.2203ZM22.1394 26.4201C22.1937 26.5395 22.2495 26.6582 22.3067 26.7763C22.729 26.83 23.1551 26.8819 23.5849 26.9321C23.5369 26.8022 23.4902 26.6719 23.445 26.5411C23.0056 26.5021 22.5703 26.4617 22.1394 26.4201ZM23.2208 25.8535C22.2556 22.7 22.0823 19.3465 22.7304 16.0929C22.8644 15.4202 23.0325 14.7571 23.2334 14.1058C22.7716 14.1474 22.3135 14.1906 21.8593 14.2353C21.1295 16.0464 20.7338 17.985 20.7338 19.9997C20.7338 21.9991 21.1232 23.9238 21.8419 25.7234C22.2977 25.7683 22.7574 25.8117 23.2208 25.8535ZM24.1455 26.602C24.1955 26.7398 24.2471 26.877 24.3002 27.0136C29.8627 27.6319 36.0078 27.9591 42.3322 27.9591H42.41C48.7058 27.9591 54.8261 27.6332 60.3711 27.0184C60.4238 26.883 60.4749 26.7472 60.5245 26.6108C55.0127 27.0771 48.8791 27.3404 42.4705 27.3404H42.3625C35.8898 27.3404 29.6998 27.0738 24.1455 26.602ZM61.2365 26.5491C61.1915 26.6785 61.1453 26.8074 61.0977 26.9358C61.5244 26.886 61.9475 26.8346 62.3669 26.7814C62.4236 26.6646 62.4788 26.5473 62.5327 26.4293C62.1048 26.4705 61.6727 26.5104 61.2365 26.5491ZM63.2668 26.357C63.2199 26.4662 63.1718 26.5749 63.1226 26.6832C63.5235 26.6298 63.9207 26.5748 64.3142 26.5182C64.3715 26.4225 64.4275 26.3264 64.4823 26.2298C64.0813 26.2733 63.6761 26.3157 63.2668 26.357ZM65.2708 26.1421C65.2257 26.2276 65.1798 26.3126 65.1329 26.3974C65.5049 26.3411 65.8733 26.2833 66.2379 26.2241C66.2902 26.1531 66.3416 26.0817 66.3921 26.0101C66.0224 26.0551 65.6486 26.0991 65.2708 26.1421ZM67.2397 25.9043C67.2026 25.9616 67.1649 26.0188 67.1267 26.0758C67.4469 26.0208 67.764 25.9647 68.0778 25.9075C68.1172 25.8646 68.1562 25.8216 68.1947 25.7786C67.8798 25.8212 67.5614 25.8632 67.2397 25.9043ZM68.822 25.0189C70.0285 23.4286 70.6583 21.7339 70.6583 20C70.6583 18.2516 70.0161 16.5421 68.7887 14.9394C68.415 14.8866 68.0374 14.8351 67.6559 14.7848C68.577 16.4221 69.077 18.1763 69.077 19.9999C69.077 21.8085 68.5855 23.5488 67.6793 25.1743C68.0642 25.1237 68.4451 25.0719 68.822 25.0189ZM69.1706 25.6424C69.1522 25.6657 69.1336 25.689 69.1149 25.7122C69.372 25.6621 69.6269 25.6113 69.8794 25.5597C69.8892 25.5511 69.8989 25.5426 69.9086 25.534C69.665 25.5706 69.4189 25.6067 69.1706 25.6424ZM17.4571 26.7468L17.3917 26.6861C17.6208 26.7258 17.8518 26.765 18.0847 26.8036C18.1113 26.8382 18.138 26.8727 18.1649 26.9072C17.9262 26.8544 17.6902 26.801 17.4571 26.7468ZM19.1625 27.1203C19.1146 27.0652 19.0673 27.0098 19.0206 26.9543C19.3328 27.0032 19.6483 27.0511 19.9669 27.098C20.0109 27.1682 20.0555 27.2382 20.1007 27.3079C19.7837 27.2465 19.4709 27.184 19.1625 27.1203ZM20.9903 27.4751C20.9303 27.3903 20.8713 27.3051 20.8133 27.2194C21.1655 27.2686 21.5213 27.3166 21.8805 27.3635C21.9309 27.4624 21.9822 27.5608 22.0345 27.6588C21.6818 27.599 21.3337 27.5377 20.9903 27.4751ZM22.8429 27.7922C22.7804 27.6829 22.7191 27.573 22.659 27.4625C23.0512 27.5112 23.4473 27.5584 23.8471 27.6043L23.865 27.6477C23.9098 27.7559 23.9555 27.8636 24.0021 27.9708C23.6107 27.913 23.2243 27.8534 22.8429 27.7922ZM42.3409 28.6071C36.0095 28.6071 29.9655 28.2738 24.5763 27.6858C24.6332 27.8175 24.6916 27.9484 24.7515 28.0787C29.8759 28.7963 35.8131 29.2255 42.3367 29.2255H42.3971C48.8951 29.2255 54.8102 28.7995 59.9181 28.0866C59.977 27.9584 60.0346 27.8296 60.0907 27.7003C54.7246 28.2796 48.7126 28.6071 42.4186 28.6071H42.3409ZM60.678 27.9775C60.73 27.8583 60.7808 27.7386 60.8304 27.6184C61.2265 27.5734 61.6189 27.5271 62.0074 27.4794C61.9487 27.5871 61.8887 27.6943 61.8275 27.8009C61.4493 27.8614 61.0661 27.9203 60.678 27.9775ZM62.6359 27.6679C62.6868 27.5728 62.7367 27.4773 62.7857 27.3813C63.1455 27.3348 63.5019 27.2872 63.8546 27.2384C63.7988 27.3206 63.7421 27.4025 63.6845 27.4839C63.3396 27.5466 62.9901 27.608 62.6359 27.6679ZM64.5821 27.3156C64.6249 27.2496 64.6671 27.1834 64.7087 27.117C65.0235 27.071 65.3353 27.0241 65.6439 26.9763C65.6005 27.0277 65.5566 27.0789 65.5122 27.1299C65.2064 27.1929 64.8963 27.2548 64.5821 27.3156ZM66.5178 26.9155C66.5411 26.8856 66.5643 26.8557 66.5874 26.8257C66.82 26.7875 67.0507 26.7487 67.2794 26.7094L67.2312 26.7541C66.9962 26.8086 66.7584 26.8624 66.5178 26.9155ZM81.8918 20.0048C81.8918 21.0109 80.6711 22.059 78.4418 23.0492C79.6605 22.0819 80.2933 21.0625 80.2933 20.0183C80.2933 18.9503 79.6276 17.9051 78.3486 16.9147C80.6373 17.9202 81.8918 18.986 81.8918 20.0048ZM67.2381 13.2527L67.264 13.2768C67.0366 13.2375 66.8072 13.1987 66.5759 13.1604L66.5214 13.0901C66.7632 13.1436 67.0021 13.1979 67.2381 13.2527ZM65.5268 12.8774C65.5651 12.9215 65.603 12.9658 65.6405 13.0102C65.3285 12.9615 65.0132 12.9138 64.6948 12.867C64.6571 12.8071 64.619 12.7474 64.5803 12.6879C64.9002 12.7499 65.2157 12.8131 65.5268 12.8774ZM63.6873 12.5199C63.7401 12.5947 63.7922 12.6698 63.8435 12.7452C63.4899 12.6959 63.1326 12.6478 62.7718 12.6009C62.726 12.5117 62.6795 12.4228 62.6321 12.3342C62.9885 12.3947 63.3403 12.4566 63.6873 12.5199ZM61.8292 12.2017C61.8865 12.3016 61.9428 12.4019 61.9979 12.5028C61.6124 12.4551 61.2231 12.4088 60.8302 12.3638C60.7834 12.2506 60.7356 12.1379 60.6868 12.0255C61.0725 12.0826 61.4533 12.1414 61.8292 12.2017ZM59.9105 11.9137C59.9664 12.0351 60.021 12.157 60.0744 12.2794C54.6981 11.6949 48.6727 11.3637 42.3625 11.3637H42.2804C35.9802 11.3637 29.9635 11.6918 24.5946 12.2719C24.6481 12.1492 24.7027 12.0272 24.7586 11.9058C29.8667 11.1935 35.7821 10.768 42.2805 10.768H42.3367C48.8558 10.768 54.789 11.1968 59.9105 11.9137ZM24.009 12.0133C23.9599 12.126 23.9119 12.2391 23.8648 12.3528C23.4679 12.3978 23.0746 12.4443 22.6852 12.4921C22.7405 12.3911 22.797 12.2905 22.8545 12.1904C23.2343 12.1297 23.6192 12.0706 24.009 12.0133ZM22.0439 12.3236C21.9965 12.4123 21.9498 12.5013 21.9039 12.5906C21.5456 12.6369 21.1906 12.6844 20.8393 12.733C20.8908 12.6575 20.943 12.5822 20.9961 12.5073C21.3407 12.4447 21.69 12.3835 22.0439 12.3236ZM20.1068 12.6739C20.0681 12.7336 20.0297 12.7935 19.9919 12.8535C19.6767 12.8996 19.3646 12.9465 19.0556 12.9944C19.0936 12.9496 19.132 12.905 19.1706 12.8605C19.4784 12.7971 19.7905 12.7349 20.1068 12.6739ZM18.1733 13.0729L18.1179 13.144C17.8876 13.1819 17.6591 13.2203 17.4325 13.2592L17.4597 13.234C17.6947 13.1796 17.9326 13.1259 18.1733 13.0729ZM4.38004 19.9881C4.38004 18.9283 5.03486 17.8918 6.29434 16.9091C4.02227 17.908 2.77699 18.9671 2.77699 19.9832C2.77699 20.998 4.0215 22.0595 6.29289 23.0614C5.03517 22.0796 4.38004 21.0447 4.38004 19.9881ZM64.789 12.0834L64.7851 12.0795C64.5353 12.0152 64.2826 11.9519 64.0273 11.8895L64.0695 11.9469C64.311 11.9917 64.5508 12.0372 64.789 12.0834ZM63.13 11.7783C63.0969 11.7369 63.0637 11.6956 63.0302 11.6545C62.733 11.5868 62.4325 11.5205 62.1286 11.4556C62.1635 11.5125 62.198 11.5696 62.2321 11.6269C62.5336 11.6762 62.833 11.7267 63.13 11.7783ZM61.4005 11.4947C61.3534 11.4212 61.3058 11.348 61.2576 11.2751C60.9238 11.208 60.5864 11.1425 60.2454 11.0788C60.2889 11.1661 60.3318 11.2537 60.374 11.3416C60.7188 11.3912 61.0609 11.4422 61.4005 11.4947ZM59.5793 11.2306C54.2732 10.5101 48.396 10.1285 42.3367 10.1285H42.2805C36.2448 10.1285 30.3853 10.5018 25.0942 11.2136C25.144 11.1159 25.1946 11.0187 25.246 10.9219C30.356 10.0237 36.2013 9.50121 42.2935 9.50121H42.3367C48.441 9.50121 54.3002 10.0268 59.4226 10.9294C59.4757 11.0293 59.528 11.1297 59.5793 11.2306ZM24.3269 11.3198C24.3679 11.2348 24.4094 11.1501 24.4516 11.0657C24.1064 11.13 23.7648 11.196 23.4269 11.2637C23.381 11.3331 23.3355 11.4028 23.2906 11.4728C23.6334 11.4203 23.9789 11.3693 24.3269 11.3198ZM22.4507 11.6052C22.4826 11.5519 22.5148 11.4986 22.5473 11.4455C22.2463 11.5097 21.9484 11.5753 21.6539 11.6421C21.6237 11.6792 21.5937 11.7164 21.5638 11.7537C21.8572 11.7031 22.1529 11.6536 22.4507 11.6052ZM20.6275 11.9205L20.6604 11.8758C20.4489 11.9273 20.2393 11.9795 20.0316 12.0323C20.2291 11.9945 20.4277 11.9573 20.6275 11.9205ZM20.0598 27.9521C20.2543 28.0016 20.4504 28.0506 20.6481 28.0989L20.6176 28.0573C20.4307 28.0227 20.2447 27.9876 20.0598 27.9521ZM21.5547 28.2254C21.5835 28.2615 21.6125 28.2975 21.6417 28.3334C21.9353 28.4003 22.2323 28.4659 22.5324 28.5302C22.5008 28.4784 22.4696 28.4265 22.4386 28.3745C22.1418 28.3259 21.8471 28.2762 21.5547 28.2254ZM23.2762 28.5077C23.3199 28.5761 23.3642 28.6443 23.4089 28.7122C23.7491 28.7806 24.0931 28.8474 24.4407 28.9124C24.3995 28.8296 24.3588 28.7465 24.3187 28.6631C23.9685 28.6128 23.621 28.561 23.2762 28.5077ZM25.086 28.7703C25.1348 28.8662 25.1843 28.9617 25.2347 29.0567C30.366 29.9629 36.239 30.4906 42.3583 30.4906H42.4015C48.4863 30.4906 54.3248 29.969 59.4303 29.0723C59.4803 28.9781 59.5295 28.8835 59.5779 28.7886C54.2885 29.5004 48.4325 29.8736 42.3971 29.8736H42.3367C36.274 29.8736 30.3935 29.4916 25.086 28.7703ZM60.3551 28.681C60.3154 28.7632 60.2752 28.8452 60.2344 28.9269C60.5779 28.8629 60.9178 28.7972 61.2541 28.7299C61.2983 28.6631 61.342 28.5961 61.3852 28.5288C61.0445 28.581 60.7011 28.6317 60.3551 28.681ZM62.2236 28.3965C62.1933 28.4473 62.1626 28.498 62.1317 28.5485C62.4325 28.4845 62.7301 28.419 63.0243 28.3523C63.0525 28.3177 63.0804 28.2831 63.1082 28.2484C62.8156 28.2989 62.5207 28.3483 62.2236 28.3965ZM64.0546 28.0798L64.0276 28.1164C64.202 28.074 64.3751 28.031 64.5469 27.9876C64.3836 28.0187 64.2194 28.0494 64.0546 28.0798ZM22.4721 29.2812L22.4044 29.2089C22.6217 29.2553 22.8403 29.3009 23.0603 29.3456C23.0871 29.3847 23.114 29.4236 23.1411 29.4624C22.916 29.403 22.693 29.3426 22.4721 29.2812ZM24.1182 29.7108C24.0715 29.6497 24.0253 29.5883 23.9794 29.5266C24.2667 29.5813 24.556 29.6346 24.8474 29.6867C24.8895 29.7627 24.9321 29.8384 24.9752 29.9139C24.6866 29.8477 24.4009 29.7801 24.1182 29.7108ZM42.3367 31.1387C36.4582 31.1387 30.7673 30.6843 25.6662 29.8284C25.7205 29.9206 25.7757 30.0124 25.8316 30.1037C30.7141 31.1499 36.3695 31.7565 42.3364 31.7565H42.371C48.3226 31.7565 53.965 31.1526 58.8377 30.11C58.8936 30.0189 58.9486 29.9273 59.0029 29.8354C53.9156 30.6895 48.2525 31.1387 42.3799 31.1387H42.3367ZM59.7038 29.9183C59.7468 29.843 59.7893 29.7676 59.8314 29.6918C60.1194 29.6403 60.4055 29.5875 60.6896 29.5333C60.6436 29.5951 60.5972 29.6566 60.5503 29.7179C60.2711 29.7862 59.9888 29.853 59.7038 29.9183ZM61.5295 29.4691C61.5568 29.4301 61.5839 29.3909 61.6109 29.3517C61.833 29.3064 62.0539 29.2602 62.2733 29.2133L62.2049 29.2863C61.9819 29.3483 61.7568 29.4092 61.5295 29.4691ZM62.2045 10.7124L62.273 10.7855C62.051 10.7381 61.8276 10.6914 61.6028 10.6456C61.5756 10.606 61.5482 10.5666 61.5206 10.5272C61.7508 10.5879 61.9788 10.6497 62.2045 10.7124ZM60.5491 10.2802C60.5962 10.3417 60.6428 10.4035 60.689 10.4655C60.4082 10.412 60.1253 10.3597 59.8405 10.3088C59.7985 10.2329 59.7559 10.1572 59.7129 10.0819C59.9944 10.1465 60.2732 10.2126 60.5491 10.2802ZM58.8253 9.88505C58.8816 9.97683 58.9372 10.069 58.992 10.1617C53.8916 9.30587 48.2009 8.85313 42.3194 8.85313H42.2762C36.4188 8.85313 30.763 9.29837 25.6807 10.1469C25.7332 10.0582 25.7864 9.96985 25.8403 9.88198C30.7213 8.83923 36.3738 8.2352 42.3364 8.2352C48.296 8.2352 53.9462 8.84045 58.8253 9.88505ZM24.9836 10.0713C24.9424 10.1433 24.9017 10.2156 24.8614 10.2881C24.5731 10.3394 24.2868 10.3919 24.0025 10.4458C24.046 10.3876 24.0898 10.3297 24.1339 10.272C24.4143 10.2036 24.6975 10.1367 24.9836 10.0713ZM23.1532 10.5205C23.1285 10.5559 23.1039 10.5913 23.0795 10.6268C22.8587 10.6715 22.6393 10.7171 22.4213 10.7635L22.4782 10.7028C22.7011 10.6411 22.9261 10.5803 23.1532 10.5205ZM59.8624 9.43578L59.821 9.38794C59.6082 9.32326 59.3935 9.25969 59.1769 9.19726L59.21 9.24903L59.2402 9.29658C59.4491 9.34217 59.6565 9.38857 59.8624 9.43578ZM58.3186 9.1026C58.2783 9.0435 58.2376 8.98461 58.1966 8.92593C53.5398 7.68898 48.0934 6.96801 42.3364 6.96801C36.5746 6.96801 31.1258 7.68785 26.4681 8.92344C26.4296 8.97858 26.3914 9.03393 26.3534 9.08947C31.0975 8.13145 36.5335 7.58711 42.3062 7.58711C48.0974 7.58711 53.5556 8.13664 58.3186 9.1026ZM58.3273 30.8994C53.5827 31.859 48.1456 32.4046 42.371 32.4046H42.3364C36.547 32.4046 31.0961 31.8564 26.3412 30.8925C26.38 30.9495 26.4191 31.0063 26.4585 31.0629C31.1193 32.3027 36.5721 33.0255 42.3364 33.0255L42.358 33.3495V33.0255C48.1117 33.0255 53.5552 32.3058 58.2094 31.0704C58.249 31.0136 58.2883 30.9566 58.3273 30.8994ZM59.2258 30.7109C59.2056 30.7428 59.1853 30.7746 59.1649 30.8063C59.3852 30.743 59.6037 30.6785 59.8201 30.6128L59.857 30.5702C59.6481 30.618 59.4377 30.6649 59.2258 30.7109ZM24.8091 30.5622C25.0217 30.6108 25.2359 30.6587 25.4516 30.7056C25.4718 30.7375 25.4921 30.7693 25.5125 30.801C25.2879 30.7364 25.0653 30.6705 24.8448 30.6034L24.8091 30.5622ZM24.8308 9.41652C25.0401 9.36878 25.251 9.32187 25.4634 9.27581L25.5216 9.18471C25.3003 9.24827 25.0808 9.313 24.8634 9.37891L24.8308 9.41652ZM42.3364 33.6692C36.8056 33.6692 31.6065 33.0361 27.0967 31.9267C27.1237 31.9612 27.1509 31.9957 27.1782 32.0301C31.685 33.5008 36.9013 34.2882 42.3496 34.2882C47.7844 34.2882 52.9876 33.502 57.4923 32.0335C57.5188 32 57.5453 31.9665 57.5717 31.9328C53.0667 33.0385 47.8763 33.6692 42.358 33.6692H42.3364ZM42.3148 6.31992C36.7986 6.31992 31.6125 6.94971 27.1118 8.05407C27.1368 8.02213 27.162 7.99028 27.1873 7.9585C31.689 6.49218 36.9014 5.70831 42.3453 5.70748C47.7701 5.70831 52.973 6.49156 57.4713 7.95402C57.5001 7.99023 57.5288 8.02654 57.5574 8.06294C53.0421 6.95327 47.8407 6.31992 42.3148 6.31992ZM56.6956 32.9737L56.6911 32.9787C52.5734 34.6031 47.6413 35.5497 42.3453 35.5497C37.0391 35.5497 32.0981 34.6 27.9749 32.9708L27.9666 32.9616C32.2076 34.2175 37.1203 34.9362 42.3539 34.9362C47.5681 34.9362 52.4649 34.2223 56.6956 32.9737ZM56.6816 7.02402C52.4433 5.77161 47.5395 5.05508 42.3237 5.05508C37.1106 5.05508 32.214 5.76992 27.9834 7.01984L27.9884 7.01424C32.1073 5.38918 37.0415 4.44196 42.341 4.44145C47.627 4.44196 52.5486 5.38378 56.6602 7.00034L56.6816 7.02402ZM42.3453 36.2021C37.8482 36.2021 33.6068 35.5254 29.8836 34.3312C33.5113 35.9065 37.7788 36.8159 42.341 36.8159C46.8957 36.8159 51.1563 35.91 54.7795 34.3401C51.0629 35.5288 46.8312 36.2021 42.3453 36.2021ZM42.3367 3.79336C37.8356 3.79336 33.5908 4.47123 29.8657 5.66746C33.4963 4.08817 37.7693 3.17611 42.3388 3.17582C46.9053 3.17611 51.1766 4.08809 54.8064 5.66709C51.0806 4.47114 46.8361 3.79336 42.3367 3.79336ZM52.946 35.7476C49.8107 37.233 46.1912 38.0814 42.3412 38.0814V38.7338C45.5369 38.7338 48.5776 38.1633 51.3271 37.1368C50.8117 37.4071 50.283 37.6549 49.7423 37.8788C46.2062 39.3435 42.3151 39.7268 38.5612 38.9801C36.7386 38.6175 34.9881 37.9965 33.3595 37.1438C36.1067 38.1685 39.1444 38.7381 42.3369 38.7381V38.0857C38.449 38.0857 34.7985 37.222 31.6443 35.7118C34.878 36.8368 38.5082 37.4683 42.341 37.4683C46.14 37.4683 49.7371 36.8502 52.946 35.7476ZM52.9561 4.25723C49.7416 3.14919 46.1386 2.52773 42.3367 2.52773C38.5369 2.52773 34.9367 3.1481 31.7246 4.25441C34.8613 2.76742 38.4832 1.91804 42.3369 1.91804C46.1929 1.91804 49.8175 2.76849 52.9561 4.25723ZM42.3325 1.26562C39.1359 1.26562 36.0942 1.83677 33.3441 2.8643C36.109 1.41332 39.1938 0.648091 42.3366 0.648091C45.4853 0.6516 48.5543 1.42155 51.2941 2.85444C48.5505 1.83314 45.5182 1.26562 42.3325 1.26562Z" fill="url(#paint0_linear_664_452)"/>
</g>
<defs>
<linearGradient id="paint0_linear_664_452" x1="-0.109127" y1="19.9914" x2="84.7823" y2="19.9914" gradientUnits="userSpaceOnUse">
<stop stop-color="#FDA9FF"/>
<stop offset="1" stop-color="#039CFF"/>
</linearGradient>
<clipPath id="clip0_664_452">
<rect width="318" height="40" fill="white"/>
</clipPath>
</defs>
</svg>
