<svg xmlns="http://www.w3.org/2000/svg" width="24" height="24" viewBox="0 0 24 24" fill="none">
  <path d="M12 22C17.5229 22 22 17.5229 22 12C22 6.47715 17.5229 2 12 2C6.47715 2 2 6.47715 2 12C2 17.5229 6.47715 22 12 22Z" stroke="#0E0E2C" stroke-width="2" stroke-linejoin="round"/>
  <path d="M7 13.5C7.82843 13.5 8.5 12.8284 8.5 12C8.5 11.1716 7.82843 10.5 7 10.5C6.17157 10.5 5.5 11.1716 5.5 12C5.5 12.8284 6.17157 13.5 7 13.5Z" fill="#0E0E2C"/>
  <path d="M12 13.5C12.8284 13.5 13.5 12.8284 13.5 12C13.5 11.1716 12.8284 10.5 12 10.5C11.1716 10.5 10.5 11.1716 10.5 12C10.5 12.8284 11.1716 13.5 12 13.5Z" fill="#0E0E2C"/>
  <path d="M17 13.5C17.8284 13.5 18.5 12.8284 18.5 12C18.5 11.1716 17.8284 10.5 17 10.5C16.1716 10.5 15.5 11.1716 15.5 12C15.5 12.8284 16.1716 13.5 17 13.5Z" fill="#0E0E2C"/>
</svg>