<?xml version="1.0" encoding="UTF-8"?>
<svg width="208px" height="210px" viewBox="0 0 208 210" version="1.1" xmlns="http://www.w3.org/2000/svg" xmlns:xlink="http://www.w3.org/1999/xlink">
    <title>access</title>
    <g id="page-1" stroke="none" stroke-width="1" fill="none" fill-rule="evenodd">
        <g id="Member-disabled" transform="translate(-695.000000, -301.000000)" fill="#E6E8EB" fill-rule="nonzero">
            <g id="access" transform="translate(695.000000, 301.000000)">
                <path d="M161.500265,117 C167.884467,117 173.914406,118.223326 179.59003,120.670958 C185.264752,123.118537 190.195388,126.452603 194.380135,130.673422 C198.56581,134.894215 201.882415,139.824378 204.329476,145.463858 C206.776668,151.103391 208,157.11535 208,163.499868 C208,169.955216 206.776668,176.002842 204.329476,181.642455 C201.882415,187.2822 198.56581,192.212283 194.380135,196.433552 C190.195388,200.654027 185.264753,203.97075 179.59003,206.38245 C173.914406,208.79415 167.884467,210 161.500265,210 C155.045099,210 148.997418,208.79415 143.357674,206.38245 C137.717904,203.97075 132.788195,200.654027 128.567171,196.433552 C124.346545,192.212283 121.029939,187.2822 118.618228,181.642455 C116.206517,176.002869 115,169.955216 115,163.499868 C115,157.11535 116.206517,151.103391 118.618228,145.463858 C121.029939,139.824404 124.346545,134.894215 128.567171,130.673422 C132.788195,126.45263 137.717904,123.118537 143.357674,120.670958 C148.997418,118.223299 155.044543,117 161.500265,117 Z M175,0 C188.807119,0 200,11.1928813 200,25 L200,96.3291666 C200,99.3066837 198.412231,102.058218 195.833702,103.547108 C193.255172,105.035998 190.078161,105.035998 187.499632,103.547108 C184.921102,102.058218 183.332878,99.3066837 183.333333,96.3291666 L183.333333,66.6666666 L16.6666666,66.6666666 L16.6666666,175 C16.6652866,179.360937 20.0263457,182.98543 24.375,183.3125 L25,183.333333 L90.425,183.333333 C93.4025171,183.332878 96.1540514,184.921102 97.6429416,187.499632 C99.1318317,190.078161 99.1318317,193.255172 97.6429416,195.833702 C96.1540514,198.412231 93.4025171,200 90.425,200 L25,200 C11.1928813,200 0,188.807119 0,175 L0,25 C0,11.1928813 11.1928813,0 25,0 L175,0 Z M189.166942,144.985463 L143.091957,191.059338 C145.787523,192.761932 148.624885,194.073963 151.604942,194.996992 C154.58394,195.91822 157.77612,196.379747 161.181325,196.379747 C165.721288,196.379747 170.013249,195.510709 174.056599,193.773162 C178.10008,192.035086 181.62971,189.658471 184.644216,186.643978 C187.658855,183.628559 190.035454,180.09974 191.773539,176.056409 C193.511623,172.012946 194.381062,167.685655 194.381062,163.074351 C194.381062,156.477287 192.642581,150.447588 189.166942,144.985463 Z M161.181325,129.768955 C156.570026,129.768955 152.242689,130.637729 148.199737,132.37599 C144.156282,134.113537 140.627023,136.490285 137.61159,139.505492 C134.597084,142.519985 132.220352,146.049413 130.482797,150.092796 C128.744316,154.13626 127.875803,158.463153 127.875803,163.074378 C127.875803,166.621758 128.371888,169.937952 129.364852,173.023275 C130.358346,176.109129 131.77749,179.00007 133.621358,181.695624 L179.802682,135.62122 C177.106984,133.776911 174.19842,132.340297 171.077071,131.311856 C167.956225,130.282964 164.657334,129.768955 161.181325,129.768955 Z M69.0458334,133.333333 C72.0233505,133.332878 74.7748848,134.921102 76.263775,137.499632 C77.7526651,140.078161 77.7526651,143.255172 76.263775,145.833702 C74.7748848,148.412231 72.0233505,150.000456 69.0458334,150 L41.6666666,150 C38.6891495,150.000456 35.9376152,148.412231 34.448725,145.833702 C32.9598349,143.255172 32.9598349,140.078161 34.448725,137.499632 C35.9376152,134.921102 38.6891495,133.332878 41.6666666,133.333333 L69.0458334,133.333333 Z M104.166667,91.6666666 C108.76904,91.6666666 112.5,95.397627 112.5,100 C112.5,104.602373 108.76904,108.333333 104.166667,108.333333 L41.6666666,108.333333 C37.0642937,108.333333 33.3333332,104.602373 33.3333332,100 C33.3333332,95.397627 37.0642937,91.6666666 41.6666666,91.6666666 L104.166667,91.6666666 Z M175,16.6666666 L25,16.6666666 C20.397627,16.6666666 16.6666666,20.397627 16.6666666,25 L16.6666666,50 L183.333334,50 L183.333334,25 C183.333334,20.6390635 179.973654,17.01457 175.625,16.6875 L175,16.6666666 Z" id="size"></path>
            </g>
        </g>
    </g>
</svg>