<?xml version="1.0" encoding="UTF-8"?>
<svg width="17px" height="17px" viewBox="0 0 17 17" version="1.1" xmlns="http://www.w3.org/2000/svg" xmlns:xlink="http://www.w3.org/1999/xlink">
    <title>形状</title>
    <g id="Bucket-List" stroke="none" stroke-width="1" fill="none" fill-rule="evenodd">
        <g id="Files" transform="translate(-492.000000, -252.000000)" fill="#617083" fill-rule="nonzero">
            <path d="M506.572733,269 L501.10149,269 L501.108795,268.362454 C501.109603,267.879508 500.91802,267.416022 500.576191,267.073957 C500.234362,266.731893 499.770289,266.539272 499.286062,266.538467 C498.278189,266.540477 497.462592,267.356637 497.463938,268.361847 L497.463938,268.38492 L497.471243,269 L492,269 L492,263.519537 L492.607578,263.519537 C493.615451,263.517527 494.431048,262.701368 494.429702,261.696157 C494.431385,260.690709 493.615689,259.87418 492.607578,259.872169 L492,259.872169 L492,254.417208 L496.306009,254.417208 C496.598623,253.010672 497.840283,252.00167 499.280583,252 C500.720697,252.00161 501.962292,253.010306 502.255157,254.416601 L506.572733,254.416601 L506.572733,258.672977 C507.986276,258.967759 508.99917,260.210322 509,261.650618 C508.999458,263.091142 507.9865,264.334037 506.572733,264.628866 L506.572733,269 Z M502.26855,267.784413 L505.358187,267.784413 L505.358187,263.477034 L505.965155,263.477034 C506.449382,263.47623 506.913455,263.283608 507.255284,262.941544 C507.597113,262.59948 507.788697,262.135993 507.787891,261.653047 C507.788697,261.1701 507.597113,260.706614 507.255284,260.36455 C506.913455,260.022485 506.449382,259.829864 505.965155,259.829059 L505.358187,259.829059 L505.358187,255.633402 L501.107578,255.633402 L501.103925,255.028645 C501.105608,254.023197 500.289912,253.206668 499.281801,253.204657 C498.797574,253.205462 498.333501,253.398084 497.991672,253.740148 C497.649843,254.082212 497.458259,254.545698 497.459067,255.028645 L497.455415,255.632795 L493.215155,255.632795 L493.215155,258.716694 C494.630268,259.010255 495.644593,260.253971 495.644593,261.69555 C495.644593,263.137128 494.630268,264.380844 493.215155,264.674405 L493.215155,267.784413 L496.302356,267.784413 C496.57327,266.383027 497.807907,265.322273 499.285453,265.322273 C500.762391,265.322273 501.997636,266.383027 502.26855,267.784413 L502.26855,267.784413 Z" id="形状"></path>
        </g>
    </g>
</svg>