<?xml version="1.0" encoding="UTF-8"?>
<svg width="17px" height="17px" viewBox="0 0 17 17" version="1.1" xmlns="http://www.w3.org/2000/svg" xmlns:xlink="http://www.w3.org/1999/xlink">
    <title>碎片化</title>
    <g id="Bucket-List" stroke="none" stroke-width="1" fill="none" fill-rule="evenodd">
        <g id="Files" transform="translate(-492.000000, -252.000000)" fill="#FFFFFF" fill-rule="nonzero">
            <g id="碎片化" transform="translate(492.000000, 252.000000)">
                <path d="M14.5727331,17 L9.10148976,17 L9.1087953,16.3624545 C9.10960329,15.8795079 8.91801964,15.4160215 8.57619073,15.0739574 C8.23436181,14.7318932 7.77028857,14.5392715 7.28606217,14.538467 C6.27818873,14.5404772 5.46259153,15.3566366 5.46393783,16.3618473 L5.46393783,16.3849204 L5.47124338,17 L0,17 L0,11.5195371 L0.607577716,11.5195371 C1.61545115,11.5175269 2.43104834,10.7013676 2.42970204,9.69615687 C2.43138481,8.69070923 1.61568923,7.87417961 0.607577716,7.87216943 L0,7.87216943 L0,2.41720837 L4.30600916,2.41720837 C4.59862334,1.01067224 5.84028323,0.0016703291 7.28058301,0 C8.72069686,0.00161041792 9.96229215,1.0103064 10.2551569,2.41660119 L14.5727331,2.41660119 L14.5727331,6.67297664 C15.9862765,6.96775875 16.9991697,8.21032197 17,9.65061791 C16.9994577,11.0911418 15.9865,12.3340375 14.5727331,12.6288664 L14.5727331,17 Z M10.2685504,15.7844132 L13.3581865,15.7844132 L13.3581865,11.4770341 L13.9651554,11.4770341 C14.4493818,11.4762296 14.9134551,11.2836079 15.255284,10.9415437 C15.5971129,10.5994796 15.7886965,10.1359932 15.7878911,9.65304664 C15.7886965,9.17010007 15.5971129,8.70661369 15.255284,8.36454955 C14.9134551,8.02248541 14.4493818,7.82986373 13.9651554,7.82905922 L13.3581865,7.82905922 L13.3581865,3.63340238 L9.10757771,3.63340238 L9.10392495,3.02864491 C9.10560772,2.02319726 8.28991213,1.20666763 7.2818006,1.20465747 C6.7975742,1.20546198 6.33350096,1.39808366 5.99167204,1.74014781 C5.64984312,2.08221195 5.45825948,2.54569834 5.45906747,3.02864491 L5.45541469,3.6327952 L1.21515542,3.6327952 L1.21515542,6.71669405 C2.63026761,7.01025534 3.64459338,8.25397099 3.64459338,9.69554968 C3.64459338,11.1371284 2.63026761,12.380844 1.21515542,12.6744053 L1.21515542,15.7844132 L4.3023564,15.7844132 C4.57327032,14.3830274 5.80790719,13.322273 7.28545338,13.322273 C8.76239079,13.322273 9.99763645,14.3830274 10.2685504,15.7844132 L10.2685504,15.7844132 Z" id="形状"></path>
            </g>
        </g>
    </g>
</svg>