<?xml version="1.0" encoding="UTF-8"?>
<svg width="16px" height="16px" viewBox="0 0 16 16" version="1.1" xmlns="http://www.w3.org/2000/svg" xmlns:xlink="http://www.w3.org/1999/xlink">
    <title>icon/Sync to AR</title>
    <defs>
        <path d="M10.0937819,2.46871395 C10.9567321,2.46871395 11.6562838,3.16834371 11.6562838,4.03121586 L11.6562838,4.51561098 C11.6562838,4.86084578 11.3764397,5.14061174 11.031283,5.14061174 C10.6860482,5.14061174 10.4062822,4.86084578 10.4062822,4.51561098 L10.4062822,4.03121586 C10.4062822,3.85863752 10.2663602,3.71871548 10.0937819,3.71871548 L1.56250191,3.71871548 C1.38992357,3.71871548 1.25000153,3.85863752 1.25000153,4.03121586 L1.25000153,14.4374981 C1.25000153,14.6100764 1.38992357,14.7499985 1.56250191,14.7499985 L10.0937819,14.7499985 C10.2663602,14.7499985 10.4062822,14.6100764 10.4062822,14.4374981 L10.4062822,11.1405995 C10.4062822,10.7954624 10.6860482,10.5155988 11.031283,10.5155988 C11.3764397,10.5155988 11.6562838,10.7954624 11.6562838,11.1405995 L11.6562838,14.4374981 C11.6562838,15.3004679 10.9567321,16 10.0937819,16 L1.56250191,16 C0.699532104,16 0,15.3004679 0,14.4374981 L0,4.03121586 C0,3.16834371 0.699532104,2.46871395 1.56250191,2.46871395 L10.0937819,2.46871395 Z M13.955935,3.40844166 C14.2200564,3.5404926 14.3557206,3.8392625 14.2812479,4.1249855 L13.8749779,5.82809305 C13.2269497,8.65379963 10.8395445,10.7451694 7.95311518,11.0156384 L7.95311518,13.2344302 C7.95311518,13.5795674 7.67334921,13.8594857 7.32811441,13.8594857 C7.17301657,13.8614818 7.02264529,13.8057786 6.90629749,13.7031808 L2.37504196,9.65622272 C2.24242461,9.53538273 2.16820577,9.36333174 2.17108875,9.18397605 C2.17414328,9.00460084 2.25410431,8.8351475 2.39058886,8.71872158 L6.92184439,4.84375591 C7.10641492,4.68590416 7.36573165,4.64920489 7.58674754,4.7496933 C7.80786109,4.85016217 7.95075189,5.06965463 7.95311518,5.31250648 L7.95311518,7.31246986 C9.41872243,7.15461811 10.7672983,6.43838677 11.7187643,5.31250648 L13.1874966,3.57810984 C13.3714421,3.34717205 13.6918722,3.27637119 13.955935,3.40844166 Z M14.4374981,0 C15.3004679,0 16,0.699532104 16,1.56250191 L16,11.9687841 C16,12.8317344 15.3004679,13.531286 14.4374981,13.531286 L12.5937849,13.531286 C12.2485501,13.531286 11.9687841,13.251442 11.9687841,12.9062853 C11.9687841,12.5610505 12.2485501,12.2812845 12.5937849,12.2812845 L14.4374981,12.2812845 C14.6100764,12.2812845 14.7499985,12.1413625 14.7499985,11.9687841 L14.7499985,1.56250191 C14.7499985,1.38992357 14.6100764,1.25000153 14.4374981,1.25000153 L5.90621815,1.25000153 C5.73363981,1.25000153 5.59371777,1.38992357 5.59371777,1.56250191 L5.59371777,1.687463 C5.59371777,2.03269779 5.3139518,2.31246376 4.968717,2.31246376 C4.62357986,2.31246376 4.34371624,2.03269779 4.34371624,1.687463 L4.34371624,1.56250191 C4.34371624,0.699532104 5.043346,0 5.90621815,0 L14.4374981,0 Z M12.3750542,6.45309381 C11.0547791,7.82463846 9.23188627,8.59788159 7.32811441,8.59376049 C6.98295774,8.59376049 6.70311365,8.3139164 6.70311365,7.96875973 L6.70311365,6.67192221 L3.75000458,9.2031167 L6.70311365,11.8437254 L6.70311365,10.4219268 C6.70311365,10.076692 6.98295774,9.79692602 7.32811441,9.79692602 C9.57809763,9.79692602 11.531225,8.4687994 12.3750542,6.45309381 Z" id="path-1"></path>
    </defs>
    <g id="page-1" stroke="none" stroke-width="1" fill="none" fill-rule="evenodd">
        <g id="view（Failure）-" transform="translate(-515.000000, -193.000000)">
            <g id="group" transform="translate(515.000000, 193.000000)">
                <g id="Colors/Background" transform="translate(0.000000, 0.000000)">
                    <mask id="mask-2" fill="white">
                        <use xlink:href="#path-1"></use>
                    </mask>
                    <use id="mask" fill="#7E8EA8" xlink:href="#path-1"></use>
                    <g id="group" mask="url(#mask-2)" fill="#617083">
                        <g id="Colors/Background">
                            <rect id="Color" x="0" y="0" width="16" height="16"></rect>
                        </g>
                    </g>
                </g>
            </g>
        </g>
    </g>
</svg>