<?xml version="1.0" encoding="UTF-8"?>
<svg width="16px" height="14px" viewBox="0 0 16 14" version="1.1" xmlns="http://www.w3.org/2000/svg" xmlns:xlink="http://www.w3.org/1999/xlink">
    <title>icon/Upload</title>
    <defs>
        <path d="M8.00011257,6.99978198 C8.01511257,6.99978198 8.02911257,7.00778198 8.04411257,7.00878198 C8.07811257,7.01078198 8.11011257,7.01578198 8.14411257,7.02178198 C8.17811257,7.02878198 8.20811257,7.03778198 8.24111257,7.04878198 C8.27111257,7.05978198 8.29911257,7.06978198 8.32711257,7.08378198 L8.32711257,7.08378198 L8.37511257,7.09978198 C8.39011257,7.10778198 8.39811257,7.12278198 8.41211257,7.13178198 C8.43911257,7.14978198 8.46311257,7.16978198 8.48711257,7.19178198 C8.51211257,7.21278198 8.53511257,7.23478198 8.55611257,7.25978198 C8.57911257,7.28678198 8.60111257,7.31178198 8.62011257,7.34178198 C8.62811257,7.35378198 8.64111257,7.36078198 8.64911257,7.37478198 L8.64911257,7.37478198 L10.2851126,10.207782 C10.4911126,10.564782 10.3681126,11.025782 10.0111126,11.231782 C9.65311257,11.438782 9.19211257,11.314782 8.98611257,10.957782 L8.98611257,10.957782 L8.75011257,10.549782 L8.75011257,14.249782 C8.75011257,14.661782 8.41211257,14.999782 8.00011257,14.999782 C7.58711257,14.999782 7.25011257,14.661782 7.25011257,14.249782 L7.25011257,14.249782 L7.25011257,10.549782 L7.01411257,10.957782 C6.80711257,11.314782 6.34711257,11.438782 5.98911257,11.231782 C5.63211257,11.025782 5.50911257,10.564782 5.71511257,10.207782 L5.71511257,10.207782 L7.35111257,7.37478198 C7.35811257,7.36078198 7.37111257,7.35378198 7.38011257,7.34178198 C7.39911257,7.31178198 7.42011257,7.28678198 7.44311257,7.25978198 C7.46511257,7.23478198 7.48811257,7.21278198 7.51311257,7.19178198 C7.53711257,7.16978198 7.56011257,7.14978198 7.58811257,7.13178198 C7.60111257,7.12278198 7.61011257,7.10778198 7.62411257,7.09978198 L7.62411257,7.09978198 L7.67211257,7.08378198 C7.70111257,7.06978198 7.72911257,7.05978198 7.75911257,7.04878198 C7.79111257,7.03778198 7.82211257,7.02878198 7.85611257,7.02178198 C7.88911257,7.01578198 7.92211257,7.01078198 7.95511257,7.00878198 C7.97111257,7.00778198 7.98411257,6.99978198 8.00011257,6.99978198 Z M3.25011257,5.74948198 C3.25011257,2.81048198 5.93411257,0.486481977 8.97911257,1.09848198 C11.2431126,1.55348198 12.8801126,3.67948198 12.7431126,5.98548198 C12.7421126,6.00048198 12.7411126,6.01548198 12.7401126,6.03148198 C14.7021126,6.28948198 16.1911126,8.06848198 15.9791126,10.142482 C15.7811126,12.086482 14.0161126,13.499482 12.0611126,13.499482 L12.0611126,13.499482 L11.7501126,13.499482 C11.3361126,13.499482 11.0001126,13.163482 11.0001126,12.749482 C11.0001126,12.335482 11.3361126,11.999482 11.7501126,11.999482 L11.7501126,11.999482 L12.1171126,11.999482 C13.2941126,11.999482 14.3691126,11.155482 14.4881126,9.98448198 C14.6251126,8.63848198 13.5671126,7.49948198 12.2501126,7.49948198 C12.1691126,7.49948198 12.0911126,7.51348198 12.0121126,7.52448198 L12.0121126,7.52448198 L10.8831126,7.68648198 L11.1221126,6.59348198 C11.2091126,6.27248198 11.2501126,6.00448198 11.2501126,5.74948198 C11.2501126,3.77248198 9.47511257,2.20248198 7.43511257,2.54748198 C6.14311257,2.76648198 5.14811257,3.82948198 4.83411257,5.10148198 C4.71511257,5.58648198 4.71611257,5.99848198 4.87811257,6.59348198 L4.87811257,6.59348198 L5.17611257,7.68948198 L4.05111257,7.53348198 C3.90811257,7.51348198 3.83111257,7.49948198 3.75011257,7.49948198 C2.43111257,7.49948198 1.37511257,8.63848198 1.51211257,9.98448198 C1.63111257,11.155482 2.70611257,11.999482 3.88311257,11.999482 L3.88311257,11.999482 L4.25011257,11.999482 C4.66411257,11.999482 5.00011257,12.335482 5.00011257,12.749482 C5.00011257,13.163482 4.66411257,13.499482 4.25011257,13.499482 L4.25011257,13.499482 L3.93811257,13.499482 C1.98411257,13.499482 0.21911257,12.086482 0.0201125702,10.142482 C-0.19188743,8.06848198 1.29811257,6.28948198 3.26011257,6.03148198 C3.25311257,5.93748198 3.25011257,5.84348198 3.25011257,5.74948198 Z" id="path-1"></path>
    </defs>
    <g id="page-1" stroke="none" stroke-width="1" fill="none" fill-rule="evenodd">
        <g id="FilesDetail（ARDesynced）" transform="translate(-342.000000, -194.000000)">
            <g id="icon/Upload" transform="translate(342.000000, 193.000000)">
                <mask id="mask-2" fill="white">
                    <use xlink:href="#path-1"></use>
                </mask>
                <use id="mask" fill="#231916" xlink:href="#path-1"></use>
                <g id="group" mask="url(#mask-2)">
                    <g transform="translate(-0.000000, 0.000000)" id="Colors/Background">
                        <rect id="Color" fill="#FFFFFF" x="0" y="0" width="16" height="16"></rect>
                    </g>
                </g>
            </g>
        </g>
    </g>
</svg>