<svg width="25" height="24" viewBox="0 0 25 24" fill="none" xmlns="http://www.w3.org/2000/svg">
<path d="M17.5 13.4V16.4C17.5 20.4 15.9 22 11.9 22H8.1C4.1 22 2.5 20.4 2.5 16.4V12.6C2.5 8.6 4.1 7 8.1 7H11.1" stroke="white" stroke-width="1.5" stroke-linecap="round" stroke-linejoin="round"/>
<path d="M17.5 13.4H14.3C11.9 13.4 11.1 12.6 11.1 10.2V7L17.5 13.4Z" stroke="white" stroke-width="1.5" stroke-linecap="round" stroke-linejoin="round"/>
<path d="M12.1 2H16.1" stroke="white" stroke-width="1.5" stroke-linecap="round" stroke-linejoin="round"/>
<path d="M7.5 5C7.5 3.34 8.84 2 10.5 2H13.12" stroke="white" stroke-width="1.5" stroke-linecap="round" stroke-linejoin="round"/>
<path d="M22.5 8V14.19C22.5 15.74 21.24 17 19.69 17" stroke="white" stroke-width="1.5" stroke-linecap="round" stroke-linejoin="round"/>
<path d="M22.5 8H19.5C17.25 8 16.5 7.25 16.5 5V2L22.5 8Z" stroke="white" stroke-width="1.5" stroke-linecap="round" stroke-linejoin="round"/>
</svg>
