<svg xmlns="http://www.w3.org/2000/svg" width="164" height="48" viewBox="0 0 164 48" fill="none">
  <path d="M13.9487 4.92308C15.1909 1.9419 18.1037 0 21.3333 0H156C161.709 0 165.58 5.80742 163.385 11.0769L150.051 43.0769C148.809 46.0581 145.896 48 142.667 48H8C2.29137 48 -1.58024 42.1926 0.615385 36.9231L13.9487 4.92308Z" fill="#121536" fill-opacity="0.5"/>
  <path d="M14.4103 5.11538C15.5748 2.32053 18.3056 0.5 21.3333 0.5H156C161.352 0.5 164.981 5.94446 162.923 10.8846L149.59 42.8846C148.425 45.6795 145.694 47.5 142.667 47.5H8C2.64816 47.5 -0.981476 42.0555 1.07692 37.1154L14.4103 5.11538Z" stroke="white" stroke-opacity="0.25"/>
</svg>