<svg xmlns="http://www.w3.org/2000/svg" width="255" height="48" viewBox="0 0 255 48" fill="none">
  <path d="M13.9487 4.92308C15.1909 1.9419 18.1037 0 21.3333 0H247C252.709 0 256.58 5.80742 254.385 11.0769L241.051 43.0769C239.809 46.0581 236.896 48 233.667 48H7.99999C2.29137 48 -1.58024 42.1926 0.615385 36.9231L13.9487 4.92308Z" fill="#121536" fill-opacity="0.5"/>
  <path d="M14.4103 5.11538C15.5748 2.32053 18.3056 0.5 21.3333 0.5H247C252.352 0.5 255.981 5.94446 253.923 10.8846L240.59 42.8846C239.425 45.6795 236.694 47.5 233.667 47.5H7.99999C2.64816 47.5 -0.981476 42.0555 1.07692 37.1154L14.4103 5.11538Z" stroke="white" stroke-opacity="0.25"/>
</svg>