<svg xmlns="http://www.w3.org/2000/svg" width="21" height="23" viewBox="0 0 21 23" fill="none">
  <path d="M19.5 4.5C19.5 6.15685 15.4706 7.5 10.5 7.5C5.52944 7.5 1.5 6.15685 1.5 4.5M19.5 4.5C19.5 2.84315 15.4706 1.5 10.5 1.5C5.52944 1.5 1.5 2.84315 1.5 4.5M19.5 4.5V18.5C19.5 20.16 15.5 21.5 10.5 21.5C5.5 21.5 1.5 20.16 1.5 18.5V4.5M19.5 9.22021C19.5 10.8802 15.5 12.2202 10.5 12.2202C5.5 12.2202 1.5 10.8802 1.5 9.22021M19.5 13.94C19.5 15.6 15.5 16.94 10.5 16.94C5.5 16.94 1.5 15.6 1.5 13.94" stroke="#0F172A" stroke-width="2" stroke-linecap="round" stroke-linejoin="round"/>
</svg>