<svg xmlns="http://www.w3.org/2000/svg" width="242" height="187" viewBox="0 0 242 187" fill="none">
  <path fill-rule="evenodd" clip-rule="evenodd" d="M15.8841 178.939H73.1295C74.7367 178.939 76.3283 178.623 77.8132 178.008C79.2981 177.393 80.6474 176.491 81.7839 175.355C82.9204 174.218 83.8219 172.869 84.4369 171.384C85.0519 169.899 85.3684 168.308 85.3683 166.7V103.769H97.2771V73.1329H85.3683V73.1329H35.8473C33.2254 73.133 30.6292 73.6495 28.2069 74.6531C25.7846 75.6566 23.5838 77.1274 21.73 78.9816C19.8762 80.8357 18.4058 83.0369 17.4028 85.4593C16.3997 87.8818 15.8837 90.4781 15.8841 93.1V178.939Z" fill="#F1F5F9"/>
  <path d="M73.1295 178.939L73.1295 177.939H73.1295V178.939ZM15.8841 178.939H14.8841V179.939H15.8841V178.939ZM77.8132 178.008L77.4305 177.084H77.4305L77.8132 178.008ZM81.7839 175.355L81.0768 174.648L81.7839 175.355ZM84.4369 171.384L83.513 171.002V171.002L84.4369 171.384ZM85.3683 166.7H84.3683V166.701L85.3683 166.7ZM85.3683 103.769V102.769H84.3683V103.769H85.3683ZM97.2771 103.769V104.769H98.2771V103.769H97.2771ZM97.2771 73.1329H98.2771V72.1329H97.2771V73.1329ZM85.3683 73.1329H84.3683V74.1329H85.3683V73.1329ZM85.3683 73.1329H86.3683V72.1329H85.3683V73.1329ZM35.8473 73.1329V72.1329H35.8472L35.8473 73.1329ZM28.2069 74.6531L28.5897 75.5769L28.2069 74.6531ZM21.73 78.9816L22.4372 79.6886L21.73 78.9816ZM17.4028 85.4593L18.3267 85.8419L17.4028 85.4593ZM15.8841 93.1H16.8841V93.0998L15.8841 93.1ZM73.1295 177.939H15.8841V179.939H73.1295V177.939ZM77.4305 177.084C76.0669 177.649 74.6055 177.939 73.1295 177.939L73.1294 179.939C74.868 179.939 76.5896 179.597 78.1958 178.932L77.4305 177.084ZM81.0768 174.648C80.0331 175.691 78.7941 176.519 77.4305 177.084L78.1958 178.932C79.8021 178.267 81.2616 177.291 82.491 176.062L81.0768 174.648ZM83.513 171.002C82.9482 172.365 82.1204 173.604 81.0768 174.648L82.491 176.062C83.7203 174.833 84.6955 173.373 85.3608 171.767L83.513 171.002ZM84.3683 166.701C84.3684 168.176 84.0778 169.638 83.513 171.002L85.3608 171.767C86.0261 170.161 86.3684 168.439 86.3683 166.7L84.3683 166.701ZM84.3683 103.769V166.7H86.3683V103.769H84.3683ZM85.3683 104.769H97.2771V102.769H85.3683V104.769ZM98.2771 103.769V73.1329H96.2771V103.769H98.2771ZM97.2771 72.1329H85.3683V74.1329H97.2771V72.1329ZM84.3683 73.1329V73.1329H86.3683V73.1329H84.3683ZM35.8473 74.1329H85.3683V72.1329H35.8473V74.1329ZM28.5897 75.5769C30.8906 74.6237 33.3567 74.133 35.8473 74.1329L35.8472 72.1329C33.094 72.133 30.3677 72.6754 27.8242 73.7292L28.5897 75.5769ZM22.4372 79.6886C24.1981 77.9273 26.2887 76.5302 28.5897 75.5769L27.8242 73.7292C25.2806 74.783 22.9695 76.3275 21.0228 78.2745L22.4372 79.6886ZM18.3267 85.8419C19.2795 83.5408 20.6763 81.4499 22.4372 79.6886L21.0228 78.2745C19.0762 80.2215 17.5322 82.533 16.4789 85.0767L18.3267 85.8419ZM16.8841 93.0998C16.8837 90.6092 17.3739 88.143 18.3267 85.8419L16.4789 85.0767C15.4256 87.6205 14.8837 90.3469 14.8841 93.1001L16.8841 93.0998ZM16.8841 178.939V93.1H14.8841V178.939H16.8841Z" fill="#CBD5E1"/>
  <path fill-rule="evenodd" clip-rule="evenodd" d="M72.3405 178.938V178.909V178.907C69.2371 178.709 66.3254 177.337 64.1982 175.069C62.071 172.801 60.8881 169.807 60.8903 166.698V154.861C60.8903 153.184 60.2241 151.575 59.0382 150.389C57.8523 149.203 56.2438 148.537 54.5667 148.537H13.2397V148.54H7.32446C6.49399 148.54 5.67161 148.704 4.9043 149.021C4.13699 149.339 3.4398 149.805 2.8525 150.392C2.26519 150.979 1.7993 151.676 1.48145 152.443C1.1636 153.211 1 154.033 1 154.863V166.701C1 169.947 2.28944 173.06 4.58467 175.355C6.8799 177.65 9.9929 178.94 13.2389 178.94C13.3074 178.94 13.3759 178.939 13.4444 178.938H72.3405Z" fill="#F8FAFC"/>
  <path d="M72.3405 178.938V179.938H73.3405V178.938H72.3405ZM72.3405 178.907H73.3405V177.968L72.4039 177.909L72.3405 178.907ZM64.1982 175.069L64.9276 174.385V174.385L64.1982 175.069ZM60.8903 166.698L61.8903 166.698V166.698H60.8903ZM59.0382 150.389L58.3311 151.096V151.096L59.0382 150.389ZM13.2397 148.537V147.537H12.2397V148.537H13.2397ZM13.2397 148.54V149.54H14.2397V148.54H13.2397ZM7.32446 148.54L7.32421 149.54H7.32446V148.54ZM4.9043 149.021L5.28681 149.945L4.9043 149.021ZM2.8525 150.392L2.14548 149.685L2.8525 150.392ZM1.48145 152.443L2.40531 152.826H2.40531L1.48145 152.443ZM4.58467 175.355L3.87756 176.062L4.58467 175.355ZM13.2389 178.94L13.2389 177.94H13.2389V178.94ZM13.4444 178.938V177.938H13.436L13.4277 177.938L13.4444 178.938ZM71.3405 178.909V178.938H73.3405V178.909H71.3405ZM71.3405 178.907V178.909H73.3405V178.907H71.3405ZM63.4688 175.753C65.7701 178.207 68.9199 179.691 72.2772 179.905L72.4039 177.909C69.5543 177.728 66.8808 176.468 64.9276 174.385L63.4688 175.753ZM59.8903 166.697C59.8879 170.061 61.1676 173.299 63.4688 175.753L64.9276 174.385C62.9744 172.302 61.8883 169.554 61.8903 166.698L59.8903 166.697ZM59.8903 154.861V166.698H61.8903V154.861H59.8903ZM58.3311 151.096C59.3295 152.095 59.8903 153.449 59.8903 154.861H61.8903C61.8903 152.919 61.1187 151.056 59.7453 149.682L58.3311 151.096ZM54.5667 149.537C55.9786 149.537 57.3327 150.098 58.3311 151.096L59.7453 149.682C58.3718 148.309 56.509 147.537 54.5667 147.537V149.537ZM13.2397 149.537H54.5667V147.537H13.2397V149.537ZM14.2397 148.54V148.537H12.2397V148.54H14.2397ZM7.32446 149.54H13.2397V147.54H7.32446V149.54ZM5.28681 149.945C5.93277 149.678 6.62508 149.54 7.32421 149.54L7.3247 147.54C6.3629 147.54 5.41045 147.729 4.52179 148.097L5.28681 149.945ZM3.55951 151.099C4.05394 150.605 4.64088 150.213 5.28681 149.945L4.52179 148.097C3.63311 148.465 2.82565 149.005 2.14548 149.685L3.55951 151.099ZM2.40531 152.826C2.67289 152.18 3.06509 151.593 3.55951 151.099L2.14548 149.685C1.4653 150.365 0.925723 151.172 0.557595 152.061L2.40531 152.826ZM2 154.863C2 154.164 2.13772 153.472 2.40531 152.826L0.557595 152.061C0.189472 152.949 0 153.902 0 154.863H2ZM2 166.701V154.863H0V166.701H2ZM5.29178 174.648C3.18408 172.54 2 169.682 2 166.701H0C0 170.212 1.39479 173.579 3.87756 176.062L5.29178 174.648ZM13.2389 177.94C10.2581 177.94 7.39947 176.756 5.29178 174.648L3.87756 176.062C6.36033 178.545 9.72769 179.94 13.2389 179.94V177.94ZM13.4277 177.938C13.3648 177.939 13.3019 177.94 13.2389 177.94L13.2388 179.94C13.3129 179.94 13.387 179.939 13.4611 179.938L13.4277 177.938ZM72.3405 177.938H13.4444V179.938H72.3405V177.938Z" fill="#CBD5E1"/>
  <path d="M97.6069 73.1329C99.2141 73.1329 100.806 73.4494 102.291 74.0645C103.775 74.6796 105.125 75.5811 106.261 76.7175C107.398 77.854 108.299 79.2032 108.914 80.6881C109.529 82.173 109.846 83.7645 109.846 85.3717V97.2092C109.846 98.8861 109.18 100.494 107.994 101.68C106.808 102.866 105.2 103.532 103.523 103.532H85.368V85.3717C85.368 83.7645 85.6846 82.173 86.2997 80.6881C86.9147 79.2032 87.8163 77.854 88.9527 76.7175C90.0892 75.5811 91.4384 74.6796 92.9233 74.0645C94.4082 73.4494 95.9997 73.1329 97.6069 73.1329Z" fill="#CDCFD0" stroke="#B2B4B6" stroke-width="4"/>
  <path fill-rule="evenodd" clip-rule="evenodd" d="M214 72.9999H228V103H217V166.739C217 168.349 216.686 169.943 216.075 171.431C215.464 172.919 214.569 174.27 213.441 175.409C212.312 176.548 210.972 177.451 209.498 178.067C208.023 178.683 206.442 179 204.846 179H148V93.0036C148 90.3769 148.512 87.7759 149.508 85.349C150.504 82.9221 151.964 80.7169 153.805 78.8594C155.646 77.0018 157.832 75.5283 160.237 74.523C162.642 73.5176 165.22 73.0001 167.824 73H214V72.9999Z" fill="#F1F5F9"/>
  <path d="M228 72.9999H229V71.9999H228V72.9999ZM214 72.9999V71.9999H213V72.9999H214ZM228 103V104H229V103H228ZM217 103V102H216V103H217ZM217 166.739H216V166.739L217 166.739ZM216.075 171.431L217 171.811V171.811L216.075 171.431ZM213.441 175.409L212.73 174.705L213.441 175.409ZM209.498 178.067L209.883 178.99L209.498 178.067ZM204.846 179L204.847 178H204.846V179ZM148 179H147V180H148V179ZM148 93.0036H149V93.0035L148 93.0036ZM149.508 85.349L150.433 85.7287L149.508 85.349ZM160.237 74.523L159.851 73.6003L160.237 74.523ZM167.824 73V72H167.824L167.824 73ZM214 73V74H215V73H214ZM228 71.9999H214V73.9999H228V71.9999ZM229 103V72.9999H227V103H229ZM217 104H228V102H217V104ZM216 103V166.739H218V103H216ZM216 166.739C216 168.219 215.711 169.684 215.15 171.051L217 171.811C217.66 170.203 218 168.479 218 166.739L216 166.739ZM215.15 171.051C214.589 172.418 213.766 173.66 212.73 174.705L214.151 176.113C215.372 174.881 216.34 173.419 217 171.811L215.15 171.051ZM212.73 174.705C211.694 175.75 210.465 176.579 209.112 177.144L209.883 178.99C211.48 178.322 212.93 177.345 214.151 176.113L212.73 174.705ZM209.112 177.144C207.759 177.709 206.31 178 204.847 178L204.846 180C206.575 180 208.286 179.657 209.883 178.99L209.112 177.144ZM204.846 178H148V180H204.846V178ZM149 179V93.0036H147V179H149ZM149 93.0035C149 90.5069 149.487 88.0349 150.433 85.7287L148.583 84.9693C147.537 87.5169 147 90.247 147 93.0038L149 93.0035ZM150.433 85.7287C151.38 83.4225 152.767 81.3276 154.515 79.5633L153.095 78.1555C151.162 80.1063 149.629 82.4217 148.583 84.9693L150.433 85.7287ZM154.515 79.5633C156.264 77.799 158.339 76.4 160.623 75.4456L159.851 73.6003C157.324 74.6567 155.028 76.2046 153.095 78.1555L154.515 79.5633ZM160.623 75.4456C162.906 74.4912 165.353 74.0001 167.824 74L167.824 72C165.088 72.0001 162.379 72.544 159.851 73.6003L160.623 75.4456ZM167.824 74H214V72H167.824V74ZM213 72.9999V73H215V72.9999H213Z" fill="#CBD5E1"/>
  <path fill-rule="evenodd" clip-rule="evenodd" d="M204.313 178.938V178.909V178.907C201.209 178.709 198.298 177.337 196.171 175.069C194.043 172.801 192.86 169.807 192.863 166.698V154.861C192.863 153.184 192.196 151.575 191.011 150.389C189.825 149.203 188.216 148.537 186.539 148.537H145.212V148.54H139.297C138.466 148.54 137.644 148.704 136.877 149.021C136.109 149.339 135.412 149.805 134.825 150.392C134.238 150.979 133.772 151.676 133.454 152.443C133.136 153.211 132.972 154.033 132.972 154.863V166.701C132.972 169.947 134.262 173.06 136.557 175.355C138.852 177.65 141.965 178.94 145.211 178.94C145.28 178.94 145.348 178.939 145.417 178.938H204.313Z" fill="#F8FAFC"/>
  <path d="M204.313 178.938V179.938H205.313V178.938H204.313ZM204.313 178.907H205.313V177.968L204.376 177.909L204.313 178.907ZM196.171 175.069L196.9 174.385V174.385L196.171 175.069ZM192.863 166.698L193.863 166.698V166.698H192.863ZM191.011 150.389L190.303 151.096V151.096L191.011 150.389ZM145.212 148.537V147.537H144.212V148.537H145.212ZM145.212 148.54V149.54H146.212V148.54H145.212ZM139.297 148.54L139.297 149.54H139.297V148.54ZM136.877 149.021L137.259 149.945L136.877 149.021ZM134.825 150.392L134.118 149.685L134.825 150.392ZM133.454 152.443L134.378 152.826H134.378L133.454 152.443ZM132.972 154.863H133.972H132.972ZM136.557 175.355L135.85 176.062L136.557 175.355ZM145.211 178.94L145.211 177.94H145.211V178.94ZM145.417 178.938V177.938H145.408L145.4 177.938L145.417 178.938ZM203.313 178.909V178.938H205.313V178.909H203.313ZM203.313 178.907V178.909H205.313V178.907H203.313ZM195.441 175.753C197.742 178.207 200.892 179.691 204.25 179.905L204.376 177.909C201.527 177.728 198.853 176.468 196.9 174.385L195.441 175.753ZM191.863 166.697C191.86 170.061 193.14 173.299 195.441 175.753L196.9 174.385C194.947 172.302 193.861 169.554 193.863 166.698L191.863 166.697ZM191.863 154.861V166.698H193.863V154.861H191.863ZM190.303 151.096C191.302 152.095 191.863 153.449 191.863 154.861H193.863C193.863 152.919 193.091 151.056 191.718 149.682L190.303 151.096ZM186.539 149.537C187.951 149.537 189.305 150.098 190.303 151.096L191.718 149.682C190.344 148.309 188.481 147.537 186.539 147.537V149.537ZM145.212 149.537H186.539V147.537H145.212V149.537ZM146.212 148.54V148.537H144.212V148.54H146.212ZM139.297 149.54H145.212V147.54H139.297V149.54ZM137.259 149.945C137.905 149.678 138.597 149.54 139.297 149.54L139.297 147.54C138.335 147.54 137.383 147.729 136.494 148.097L137.259 149.945ZM135.532 151.099C136.026 150.605 136.613 150.213 137.259 149.945L136.494 148.097C135.605 148.465 134.798 149.005 134.118 149.685L135.532 151.099ZM134.378 152.826C134.645 152.18 135.037 151.593 135.532 151.099L134.118 149.685C133.438 150.365 132.898 151.172 132.53 152.061L134.378 152.826ZM133.972 154.863C133.972 154.164 134.11 153.472 134.378 152.826L132.53 152.061C132.162 152.949 131.972 153.902 131.972 154.863H133.972ZM133.972 166.701V154.863H131.972V166.701H133.972ZM137.264 174.648C135.156 172.54 133.972 169.682 133.972 166.701H131.972C131.972 170.212 133.367 173.579 135.85 176.062L137.264 174.648ZM145.211 177.94C142.23 177.94 139.372 176.756 137.264 174.648L135.85 176.062C138.333 178.545 141.7 179.94 145.211 179.94V177.94ZM145.4 177.938C145.337 177.939 145.274 177.94 145.211 177.94L145.211 179.94C145.285 179.94 145.359 179.939 145.433 179.938L145.4 177.938ZM204.313 177.938H145.417V179.938H204.313V177.938Z" fill="#CBD5E1"/>
  <path d="M229 72.9999C230.576 72.9999 232.136 73.3228 233.592 73.95C235.048 74.5772 236.371 75.4965 237.485 76.6555C238.6 77.8144 239.484 79.1903 240.087 80.7045C240.69 82.2187 241 83.8417 241 85.4807V97.5521C241 99.2622 240.347 100.902 239.184 102.111C238.022 103.321 236.445 104 234.801 104H217V85.4807C217 83.8417 217.31 82.2187 217.913 80.7045C218.517 79.1903 219.4 77.8144 220.515 76.6555C221.629 75.4965 222.952 74.5772 224.408 73.95C225.864 73.3228 227.424 72.9999 229 72.9999Z" fill="#E2E8F0" stroke="#CBD5E1" stroke-width="2"/>
  <path d="M184.033 26.2522V72.3474H165.887V167.522C165.887 169.948 165.409 172.351 164.48 174.593C163.552 176.835 162.191 178.872 160.475 180.588C158.759 182.304 156.722 183.665 154.48 184.593C152.238 185.522 149.835 186 147.408 186H60.9799V56.3937C60.9799 48.3997 64.1555 40.7331 69.8081 35.0805C75.4607 29.4278 83.1274 26.2522 91.1214 26.2522H184.033Z" fill="#D8C8EC" stroke="#A48EC7" stroke-width="2"/>
  <path fill-rule="evenodd" clip-rule="evenodd" d="M146.219 185.998V185.954V185.95C141.534 185.652 137.138 183.58 133.926 180.156C130.714 176.731 128.928 172.212 128.931 167.517V149.646C128.93 147.114 127.923 144.686 126.133 142.896C124.342 141.107 121.914 140.101 119.382 140.102H56.9877V140.102H48.0536C46.7999 140.102 45.5584 140.349 44.4002 140.829C43.2419 141.308 42.1895 142.012 41.303 142.898C40.4165 143.785 39.7133 144.837 39.2335 145.995C38.7537 147.154 38.5068 148.395 38.5068 149.649L38.5068 167.522C38.5068 169.948 38.9848 172.352 39.9137 174.594C40.8425 176.836 42.2039 178.873 43.9201 180.589C45.6363 182.305 47.6738 183.666 49.916 184.594C52.1583 185.523 54.5615 186 56.9884 186C57.0877 186 57.187 185.999 57.2862 185.998H146.219Z" fill="#F3E8FF"/>
  <path d="M146.219 185.998V186.998H147.219V185.998H146.219ZM146.219 185.95H147.219V185.012L146.283 184.952L146.219 185.95ZM128.931 167.517L129.931 167.517V167.517H128.931ZM128.931 149.646H129.931V149.645L128.931 149.646ZM126.133 142.896L126.84 142.189L126.133 142.896ZM119.382 140.102V141.102H119.383L119.382 140.102ZM56.9877 140.102V139.102H55.9877V140.102H56.9877ZM56.9877 140.102V141.102H57.9877V140.102H56.9877ZM44.4002 140.829L44.7829 141.752L44.4002 140.829ZM41.303 142.898L42.0101 143.605H42.0101L41.303 142.898ZM39.2335 145.995L40.1574 146.378L40.1574 146.378L39.2335 145.995ZM38.5068 149.649H37.5068H38.5068ZM38.5068 167.522H39.5068H38.5068ZM39.9137 174.594L40.8375 174.211L40.8375 174.211L39.9137 174.594ZM43.9201 180.589L44.6272 179.882L43.9201 180.589ZM49.916 184.594L49.5335 185.518L49.916 184.594ZM56.9884 186V185H56.9882L56.9884 186ZM57.2862 185.998V184.998H57.2781L57.2701 184.998L57.2862 185.998ZM145.219 185.954V185.998H147.219V185.954H145.219ZM145.219 185.95V185.954H147.219V185.95H145.219ZM133.197 180.84C136.582 184.45 141.216 186.634 146.156 186.948L146.283 184.952C141.851 184.671 137.693 182.711 134.655 179.472L133.197 180.84ZM127.931 167.516C127.928 172.465 129.811 177.23 133.197 180.84L134.655 179.472C131.618 176.233 129.928 171.958 129.931 167.517L127.931 167.516ZM127.931 149.646V167.517H129.931V149.646H127.931ZM125.426 143.604C127.029 145.206 127.93 147.379 127.931 149.646L129.931 149.645C129.93 146.848 128.818 144.166 126.84 142.189L125.426 143.604ZM119.383 141.102C121.649 141.101 123.823 142.001 125.426 143.604L126.84 142.189C124.862 140.212 122.179 139.101 119.382 139.102L119.383 141.102ZM56.9877 141.102H119.382V139.102H56.9877V141.102ZM57.9877 140.102V140.102H55.9877V140.102H57.9877ZM48.0536 141.102H56.9877V139.102H48.0536V141.102ZM44.7829 141.752C45.8198 141.323 46.9312 141.102 48.0536 141.102V139.102C46.6685 139.102 45.2971 139.375 44.0175 139.905L44.7829 141.752ZM42.0101 143.605C42.8037 142.812 43.7459 142.182 44.7829 141.752L44.0175 139.905C42.7379 140.435 41.5752 141.212 40.5959 142.191L42.0101 143.605ZM40.1574 146.378C40.5869 145.341 41.2164 144.399 42.0101 143.605L40.5959 142.191C39.6165 143.17 38.8396 144.333 38.3096 145.613L40.1574 146.378ZM39.5068 149.649C39.5068 148.526 39.7278 147.415 40.1574 146.378L38.3096 145.613C37.7796 146.892 37.5068 148.264 37.5068 149.649H39.5068ZM39.5068 167.522V149.649H37.5068V167.522H39.5068ZM40.8375 174.211C39.959 172.09 39.5068 169.817 39.5068 167.522H37.5068C37.5068 170.08 38.0107 172.613 38.9898 174.976L40.8375 174.211ZM44.6272 179.882C43.0038 178.259 41.7161 176.332 40.8375 174.211L38.9898 174.976C39.9689 177.34 41.404 179.487 43.2131 181.296L44.6272 179.882ZM50.2986 183.67C48.1777 182.792 46.2505 181.505 44.6272 179.882L43.2131 181.296C45.0222 183.105 47.1698 184.54 49.5335 185.518L50.2986 183.67ZM56.9882 185C54.6927 185 52.4195 184.549 50.2986 183.67L49.5335 185.518C51.8971 186.497 54.4303 187 56.9886 187L56.9882 185ZM57.2701 184.998C57.1762 184.999 57.0823 185 56.9884 185V187C57.0931 187 57.1977 186.999 57.3023 186.997L57.2701 184.998ZM146.219 184.998H57.2862V186.998H146.219V184.998Z" fill="#A48EC7"/>
  <path d="M184.427 26.0001C189.322 26.0001 194.018 27.9658 197.48 31.4649C200.941 34.964 202.886 39.7097 202.886 44.6582V62.7079C202.886 65.2645 201.881 67.7163 200.093 69.5241C198.304 71.3319 195.879 72.3475 193.349 72.3475H165.965V44.6653C165.965 39.7169 167.91 34.9711 171.372 31.472C174.834 27.973 179.529 26.0072 184.425 26.0072L184.427 26.0001Z" fill="#BDA9D9" stroke="#A48EC7" stroke-width="2"/>
  <path fill-rule="evenodd" clip-rule="evenodd" d="M76.2123 16.4574C76.0731 16.457 75.9342 16.4457 75.7968 16.4236C75.1278 16.314 74.5297 15.9431 74.134 15.3926C73.7383 14.8422 73.5775 14.1571 73.6868 13.488L75.5415 2.14388C75.6508 1.4748 76.0215 0.876561 76.572 0.480788C77.1225 0.0850149 77.8076 -0.0758808 78.4767 0.0334981C79.1458 0.142877 79.744 0.513571 80.1398 1.06403C80.5355 1.61449 80.6964 2.29963 80.5871 2.96871L78.7316 14.3136C78.6335 14.9114 78.3265 15.455 77.8652 15.8476C77.4038 16.2402 76.8181 16.4562 76.2123 16.4574ZM57.8344 20.7584C57.4285 20.759 57.0283 20.6628 56.6671 20.4776C56.3058 20.2925 55.994 20.0238 55.7574 19.6939L49.0433 10.3545C48.6475 9.8041 48.4865 9.11896 48.5958 8.44984C48.7051 7.78072 49.0758 7.18241 49.6262 6.78656C50.1767 6.39072 50.8618 6.22975 51.5309 6.33906C52.2001 6.44837 52.7983 6.81901 53.1942 7.36945L59.9083 16.7089C60.1826 17.0906 60.3464 17.5407 60.3816 18.0095C60.4167 18.4783 60.3219 18.9477 60.1075 19.3661C59.8932 19.7846 59.5676 20.1357 59.1665 20.3811C58.7655 20.6264 58.3046 20.7564 57.8344 20.7568V20.7584ZM47.488 36.7732C47.6254 36.7957 47.7643 36.807 47.9036 36.807C48.5459 36.807 49.1648 36.5651 49.6369 36.1295C50.109 35.6939 50.3998 35.0965 50.4514 34.4561C50.503 33.8158 50.3116 33.1796 49.9153 32.674C49.519 32.1684 48.9469 31.8305 48.3128 31.7276L36.9687 29.8722C36.2996 29.7628 35.6145 29.9237 35.064 30.3195C34.5136 30.7152 34.1429 31.3135 34.0335 31.9826C33.9241 32.6517 34.085 33.3368 34.4808 33.8872C34.8766 34.4377 35.4748 34.8084 36.1439 34.9178L47.488 36.7732Z" fill="#735EA1"/>
</svg>