<svg xmlns="http://www.w3.org/2000/svg" width="16" height="16" viewBox="0 0 16 16" fill="none">
  <g clip-path="url(#clip0_12274_1368)">
    <path d="M11.4667 9.33311C11.6514 9.33311 11.7437 9.33311 11.8185 9.37412C11.8803 9.40794 11.9377 9.47146 11.9652 9.53626C11.9986 9.61482 11.9902 9.6984 11.9734 9.86558C11.8864 10.7323 11.5881 11.5674 11.1012 12.2962C10.5152 13.1732 9.68223 13.8568 8.70769 14.2605C7.73315 14.6641 6.66079 14.7698 5.62623 14.564C4.59166 14.3582 3.64135 13.8502 2.89547 13.1044C2.14959 12.3585 1.64164 11.4082 1.43585 10.3736C1.23007 9.33903 1.33568 8.26667 1.73935 7.29214C2.14302 6.3176 2.82661 5.48464 3.70367 4.89861C4.43242 4.41167 5.26754 4.11338 6.13425 4.02642C6.30142 4.00965 6.38501 4.00126 6.46356 4.03459C6.52836 4.06208 6.59188 4.11955 6.62571 4.18128C6.66671 4.25612 6.66671 4.34845 6.66671 4.53311V8.79978C6.66671 8.98646 6.66671 9.07981 6.70304 9.15111C6.735 9.21383 6.78599 9.26482 6.84871 9.29678C6.92002 9.33311 7.01336 9.33311 7.20004 9.33311H11.4667Z" stroke="#64748B" stroke-width="1.5" stroke-linecap="round" stroke-linejoin="round"/>
    <path d="M9.33325 1.86711C9.33325 1.68244 9.33325 1.5901 9.37425 1.51527C9.40808 1.45353 9.47159 1.39607 9.53639 1.36858C9.61495 1.33525 9.69854 1.34363 9.86572 1.3604C11.0847 1.48267 12.2306 2.02197 13.1045 2.89587C13.9784 3.76976 14.5177 4.91571 14.64 6.13464C14.6567 6.30182 14.6651 6.38541 14.6318 6.46396C14.6043 6.52877 14.5468 6.59228 14.4851 6.6261C14.4103 6.6671 14.3179 6.6671 14.1333 6.6671L9.86659 6.66711C9.6799 6.66711 9.58656 6.66711 9.51525 6.63077C9.45253 6.59882 9.40154 6.54782 9.36958 6.4851C9.33325 6.4138 9.33325 6.32046 9.33325 6.13377V1.86711Z" fill="#E2E8F0" stroke="#E2E8F0" stroke-width="1.5" stroke-linecap="round" stroke-linejoin="round"/>
  </g>
  <defs>
    <clipPath id="clip0_12274_1368">
      <rect width="16" height="16" fill="white"/>
    </clipPath>
  </defs>
</svg>