<?xml version="1.0" encoding="UTF-8"?>
<svg width="20px" height="19px" viewBox="0 0 20 19" version="1.1" xmlns="http://www.w3.org/2000/svg" xmlns:xlink="http://www.w3.org/1999/xlink">
    <title>add-picture</title>
    <g id="page-1" stroke="none" stroke-width="1" fill="none" fill-rule="evenodd">
        <g id="Owner-setting-1" transform="translate(-1327.000000, -480.000000)" fill="#FFFFFF" fill-rule="nonzero">
            <g id="add-picture" transform="translate(1327.000000, 480.000000)">
                <path d="M10.0534521,14.4340685 C7.81737194,14.4340685 6,12.647114 6,10.4484593 C6,8.24980447 7.81737194,6.46284999 10.0534521,6.46284999 C12.2895323,6.46284999 14.1069042,8.24980447 14.1069042,10.4484593 C14.1069042,12.6449241 12.2895323,14.4340685 10.0534521,14.4340685 Z M10.0534521,7.86438292 C8.60356347,7.86438292 7.42538976,9.02283748 7.42538976,10.4484593 C7.42538976,11.874081 8.60356347,13.0325356 10.0534521,13.0325356 C11.5033408,13.0325356 12.6815145,11.874081 12.6815145,10.4484593 C12.6815145,9.02283748 11.5033408,7.86438292 10.0534521,7.86438292 Z M16.1469933,6.40153293 L14.454343,6.40153293 C14.0623608,6.40153293 13.7416481,6.08618802 13.7416481,5.70076646 C13.7416481,5.31534491 14.0623608,5 14.454343,5 L16.1469933,5 C16.5389755,5 16.8596882,5.31534491 16.8596882,5.70076646 C16.8596882,6.08618802 16.5389755,6.40153293 16.1469933,6.40153293 Z M19.2873051,15.2333803 L17.5946548,15.2333803 L17.5946548,13.5690599 C17.5946548,13.1836384 17.2739421,12.8682934 16.8819599,12.8682934 C16.4899777,12.8682934 16.169265,13.1836384 16.169265,13.5690599 L16.169265,15.2333803 L14.4766147,15.2333803 C14.0846325,15.2333803 13.7639198,15.5487252 13.7639198,15.9341467 C13.7639198,16.3195683 14.0846325,16.6349132 14.4766147,16.6349132 L16.169265,16.6349132 L16.169265,18.2992335 C16.169265,18.6846551 16.4899777,19 16.8819599,19 C17.2739421,19 17.5946548,18.6846551 17.5946548,18.2992335 L17.5946548,16.6349132 L19.2873051,16.6349132 C19.6792873,16.6349132 20,16.3195683 20,15.9341467 C20,15.5487252 19.6792873,15.2333803 19.2873051,15.2333803 Z" id="shape"></path>
                <path d="M12.2237136,17.303675 C12.2237136,16.9185203 11.9038031,16.6073501 11.50783,16.6073501 L3.57941834,16.6073501 C3.00894855,16.6073501 2.46979866,16.3897485 2.06263982,15.9937137 C1.65548098,15.5976789 1.43176734,15.0732592 1.43176734,14.5183752 L1.43176734,5.94487427 C1.43176734,5.38999033 1.65548098,4.8655706 2.06263982,4.46953578 C2.46979866,4.07350097 3.00894855,3.85589942 3.57941834,3.85589942 L5.12527964,3.85589942 L5.94630872,1.62330754 C5.99776286,1.48404255 6.13199105,1.3926499 6.28411633,1.3926499 L13.7181208,1.3926499 C13.8680089,1.3926499 14.0044743,1.48621857 14.0559284,1.62330754 L14.8747204,3.8537234 L16.4205817,3.8537234 C16.9910515,3.8537234 17.5302013,4.07132495 17.9373602,4.46735977 C18.344519,4.8655706 18.5682327,5.38999033 18.5682327,5.94487427 L18.5682327,10.2425048 C18.5682327,10.6276596 18.8881432,10.9388298 19.2841163,10.9388298 C19.6800895,10.9388298 20,10.6276596 20,10.2425048 L20,5.94487427 C20,4.0212766 18.3982103,2.46324952 16.4205817,2.46324952 L15.8836689,2.46324952 L15.4049217,1.15546422 C15.1521253,0.463491296 14.4742729,0 13.7203579,0 L6.28187919,0 C5.52572707,0 4.85011186,0.463491296 4.59731544,1.15546422 L4.1163311,2.46324952 L3.57941834,2.46324952 C1.60178971,2.46324952 0,4.0212766 0,5.94487427 L0,14.5183752 C0,16.4419729 1.60178971,18 3.57941834,18 L11.50783,18 C11.901566,18 12.2237136,17.6866538 12.2237136,17.303675 Z" id="path"></path>
            </g>
        </g>
    </g>
</svg>