<svg width="16" height="16" viewBox="0 0 16 16" fill="none" xmlns="http://www.w3.org/2000/svg">
<g clip-path="url(#clip0_2909_1957)">
<path d="M1.86669 14.6667C1.68 14.6667 1.58666 14.6667 1.51536 14.6303C1.45264 14.5984 1.40164 14.5474 1.36968 14.4847C1.33335 14.4134 1.33335 14.32 1.33335 14.1333V7.2C1.33335 7.01332 1.33335 6.91998 1.36968 6.84867C1.40164 6.78595 1.45264 6.73496 1.51536 6.703C1.58666 6.66667 1.68 6.66667 1.86669 6.66667L3.46669 6.66667C3.65337 6.66667 3.74671 6.66667 3.81802 6.703C3.88074 6.73496 3.93173 6.78595 3.96369 6.84867C4.00002 6.91998 4.00002 7.01332 4.00002 7.2V8.8C4.00002 8.98669 4.00002 9.08003 4.03635 9.15133C4.06831 9.21405 4.1193 9.26505 4.18202 9.297C4.25333 9.33334 4.34667 9.33334 4.53335 9.33334H6.13335C6.32004 9.33334 6.41338 9.33334 6.48468 9.36967C6.5474 9.40163 6.5984 9.45262 6.63036 9.51534C6.66669 9.58664 6.66669 9.67999 6.66669 9.86667V11.4667C6.66669 11.6534 6.66669 11.7467 6.70302 11.818C6.73498 11.8807 6.78597 11.9317 6.84869 11.9637C6.91999 12 7.01334 12 7.20002 12H8.80002C8.9867 12 9.08005 12 9.15135 12.0363C9.21407 12.0683 9.26506 12.1193 9.29702 12.182C9.33335 12.2533 9.33335 12.3467 9.33335 12.5333V14.1333C9.33335 14.32 9.33335 14.4134 9.29702 14.4847C9.26506 14.5474 9.21407 14.5984 9.15135 14.6303C9.08005 14.6667 8.9867 14.6667 8.80002 14.6667L1.86669 14.6667Z" stroke="white" stroke-width="1.33333" stroke-linecap="round" stroke-linejoin="round"/>
<path d="M9.33335 4.53334C9.33335 4.34665 9.33335 4.25331 9.29702 4.18201C9.26506 4.11928 9.21407 4.06829 9.15135 4.03633C9.08005 4 8.9867 4 8.80002 4H7.20002C7.01334 4 6.91999 4 6.84869 4.03633C6.78597 4.06829 6.73498 4.11928 6.70302 4.18201C6.66669 4.25331 6.66669 4.34665 6.66669 4.53334V6.13334C6.66669 6.32002 6.66669 6.41336 6.70302 6.48467C6.73498 6.54739 6.78597 6.59838 6.84869 6.63034C6.91999 6.66667 7.01334 6.66667 7.20002 6.66667H8.80002C8.9867 6.66667 9.08005 6.66667 9.15135 6.63034C9.21407 6.59838 9.26506 6.54739 9.29702 6.48467C9.33335 6.41336 9.33335 6.32002 9.33335 6.13334V4.53334Z" stroke="white" stroke-width="1.33333" stroke-linecap="round" stroke-linejoin="round"/>
<path d="M14 8.53334C14 8.34665 14 8.25331 13.9637 8.18201C13.9317 8.11929 13.8807 8.06829 13.818 8.03633C13.7467 8 13.6534 8 13.4667 8H11.8667C11.68 8 11.5867 8 11.5154 8.03633C11.4526 8.06829 11.4016 8.11929 11.3697 8.18201C11.3334 8.25331 11.3334 8.34665 11.3334 8.53334V10.1333C11.3334 10.32 11.3334 10.4134 11.3697 10.4847C11.4016 10.5474 11.4526 10.5984 11.5154 10.6303C11.5867 10.6667 11.68 10.6667 11.8667 10.6667H13.4667C13.6534 10.6667 13.7467 10.6667 13.818 10.6303C13.8807 10.5984 13.9317 10.5474 13.9637 10.4847C14 10.4134 14 10.32 14 10.1333V8.53334Z" stroke="white" stroke-width="1.33333" stroke-linecap="round" stroke-linejoin="round"/>
<path d="M14.6667 1.86667C14.6667 1.67999 14.6667 1.58664 14.6304 1.51534C14.5984 1.45262 14.5474 1.40162 14.4847 1.36967C14.4134 1.33334 14.32 1.33334 14.1334 1.33334H12.5334C12.3467 1.33334 12.2533 1.33334 12.182 1.36967C12.1193 1.40162 12.0683 1.45262 12.0364 1.51534C12 1.58664 12 1.67999 12 1.86667V3.46667C12 3.65335 12 3.7467 12.0364 3.818C12.0683 3.88072 12.1193 3.93171 12.182 3.96367C12.2533 4 12.3467 4 12.5334 4H14.1334C14.32 4 14.4134 4 14.4847 3.96367C14.5474 3.93171 14.5984 3.88072 14.6304 3.818C14.6667 3.7467 14.6667 3.65335 14.6667 3.46667V1.86667Z" stroke="white" stroke-width="1.33333" stroke-linecap="round" stroke-linejoin="round"/>
</g>
<defs>
<clipPath id="clip0_2909_1957">
<rect width="16" height="16" fill="white" transform="matrix(-1 0 0 1 16 0)"/>
</clipPath>
</defs>
</svg>
