<?xml version="1.0" encoding="UTF-8"?>
<svg width="24" height="24" viewBox="0 0 24 24" xmlns="http://www.w3.org/2000/svg">
  <title>Icon-Architecture/16/Arch_Amazon-Bedrock_16</title>
  <defs>
    <linearGradient id="a" x1="0%" x2="100%" y1="100%" y2="0%">
      <stop offset="0%" stop-color="#055F4E"/>
      <stop offset="100%" stop-color="#56C0A7"/>
    </linearGradient>
  </defs>
  <g fill="none" fill-rule="evenodd">
    <path fill="url(#a)" d="M0 0h24v24H0z"/>
    <path fill="#FFF" d="m12 18.1-2.4.8-1-.6 1-.3-.3-1-1.7.6-.6-.4v-2.7c0-.2-.1-.4-.3-.4L5 13v-2.3l1.5-.7 1.5.7v1.7c0 .2.1.4.3.4l2 1 .4-.8L9 12v-1.3l1.7-.9c.2 0 .3-.2.3-.4V8h-1v1.2l-1.5.7L7 9.2V6.8L8 6V8h1V5.4l.6-.3 2.4.8V18Zm5.5-1.1a.5.5 0 1 1 0 1 .5.5 0 0 1 0-1Zm-1-11a.5.5 0 1 1 0 1 .5.5 0 0 1 0-1Zm2 6a.5.5 0 1 1 0 1 .5.5 0 0 1 0-1Zm-1.4 1a1.5 1.5 0 1 0 0-1H13v-2h3.5c.3 0 .5-.2.5-.5V7.9a1.5 1.5 0 1 0-1 0V9h-3V5.5c0-.2-.1-.4-.3-.5l-3-1h-.5l-3 2-.2.5v2.7l-1.7.9c-.2 0-.3.2-.3.4v3c0 .2.1.4.3.4L6 15v2.6c0 .2 0 .3.2.4l3 2a.5.5 0 0 0 .5 0l3-1c.2 0 .3-.2.3-.4V16h2.3l.8.9a1.5 1.5 0 0 0 1.4 2.1 1.5 1.5 0 0 0 0-3c-.2 0-.5 0-.7.2l-1-1-.3-.2H13v-2h4Z"/>
  </g>
</svg>
