<?xml version="1.0" encoding="UTF-8"?>
<svg width="12px" height="16px" viewBox="0 0 12 16" version="1.1" xmlns="http://www.w3.org/2000/svg" xmlns:xlink="http://www.w3.org/1999/xlink">
    <!-- Generator: Sketch 59.1 (86144) - https://sketch.com -->
    <title>Fill 1</title>
    <desc>Created with Sketch.</desc>
    <g id="page-1" stroke="none" stroke-width="1" fill="none" fill-rule="evenodd">
        <g id="upload-success" transform="translate(-442.000000, -42.000000)" fill="#8090AA">
            <path d="M453,56 C453,56.552 452.552,57 452,57 L444,57 C443.449,57 443,56.552 443,56 L443,44 C443,43.449 443.449,43 444,43 L449,43 L449,47 L453,47 L453,56 Z M452,46 L451.586,46 L450,46 L450,44.414 L450,44 L452,46 Z M453,45.586 L453,45.58 L452,44.586 L451.415,44 L450.417,43 L450.415,43 L449.417,42 L449,42 L448,42 L444,42 C442.9,42 442,42.9 442,44 L442,56 C442,57.1 442.9,58 444,58 L452,58 C453.101,58 454,57.1 454,56 L454,48 L454,47 L454,46.58 L453,45.586 Z M451,49.8179 L448.5,49.8179 L448.5,47.3179 L447.5,47.3179 L447.5,49.8179 L445,49.8179 L445,50.8179 L447.5,50.8179 L447.5,53.3179 L448.5,53.3179 L448.5,50.8179 L451,50.8179 L451,49.8179 Z" id="Fill-1"></path>
        </g>
    </g>
</svg>