<?xml version="1.0" encoding="UTF-8"?>
<svg width="12px" height="16px" viewBox="0 0 12 16" version="1.1" xmlns="http://www.w3.org/2000/svg" xmlns:xlink="http://www.w3.org/1999/xlink">
    <!-- Generator: Sketch 59.1 (86144) - https://sketch.com -->
    <title>Fill 1</title>
    <desc>Created with Sketch.</desc>
    <g id="page-1" stroke="none" stroke-width="1" fill="none" fill-rule="evenodd">
        <g id="domain" transform="translate(-323.000000, -43.000000)" fill="#FFFFFF">
            <path d="M333.9996,57 C333.9996,57.552 333.5516,58 332.9996,58 L324.9996,58 C324.4486,58 323.9996,57.552 323.9996,57 L323.9996,45 C323.9996,44.449 324.4486,44 324.9996,44 L329.9996,44 L329.9996,48 L333.9996,48 L333.9996,57 Z M332.9996,47 L332.5856,47 L330.9996,47 L330.9996,45.414 L330.9996,45 L332.9996,47 Z M333.9996,46.586 L333.9996,46.58 L332.9996,45.586 L332.4146,45 L331.4166,44 L331.4146,44 L330.4166,43 L329.9996,43 L328.9996,43 L324.9996,43 C323.8996,43 322.9996,43.9 322.9996,45 L322.9996,57 C322.9996,58.1 323.8996,59 324.9996,59 L332.9996,59 C334.1006,59 334.9996,58.1 334.9996,57 L334.9996,49 L334.9996,48 L334.9996,47.58 L333.9996,46.586 Z M331.9996,50.8179 L329.4996,50.8179 L329.4996,48.3179 L328.4996,48.3179 L328.4996,50.8179 L325.9996,50.8179 L325.9996,51.8179 L328.4996,51.8179 L328.4996,54.3179 L329.4996,54.3179 L329.4996,51.8179 L331.9996,51.8179 L331.9996,50.8179 Z" id="Fill-1"></path>
        </g>
    </g>
</svg>