<?xml version="1.0" encoding="UTF-8"?>
<svg width="80px" height="80px" viewBox="0 0 80 80" version="1.1" xmlns="http://www.w3.org/2000/svg" xmlns:xlink="http://www.w3.org/1999/xlink">
    <title>upload</title>
    <g id="Upload" stroke="none" stroke-width="1" fill="none" fill-rule="evenodd">
        <g id="Upload-2" transform="translate(-639.000000, -526.000000)" fill="#495667" fill-rule="nonzero">
            <g id="g-2" transform="translate(290.000000, 421.000000)">
                <g id="g-3" transform="translate(30.000000, 30.000000)">
                    <g id="upload" transform="translate(319.000000, 75.000000)">
                        <path d="M8.57142857,14.2857143 L15.7142857,5.71428571 L64.2857143,5.71428571 L71.4285714,14.2857143 L8.57142857,14.2857143 Z M51.4285714,54.2857143 L51.4285714,65.7142857 L28.5714286,65.7142857 L28.5714286,54.2857143 L11.4285714,54.2857143 L38.0371429,26.5542857 C39.12,25.4228571 40.8857143,25.4257143 41.9628571,26.5485714 L68.5714286,54.2857143 L51.4285714,54.2857143 Z M78.4114286,14.76 L70.16,2.38285714 C69.2857143,1.07142857 67.3028571,0 65.7371429,0 L14.2628571,0 C12.7285714,0 10.7171429,1.06857143 9.84,2.38285714 L1.58857143,14.76 C0.714285714,16.0714286 0,18.4257143 0,20.0057143 L0,74.3114286 C0,77.4571429 2.54857143,80 5.68857143,80 L74.3114286,80 C77.4285714,80 80,77.4542857 80,74.3114286 L80,20.0057143 C80,18.3971429 79.2885714,16.0742857 78.4114286,14.76" id="shape"></path>
                    </g>
                </g>
            </g>
        </g>
    </g>
</svg>