<?xml version="1.0" encoding="UTF-8"?>
<svg width="14px" height="16px" viewBox="0 0 14 16" version="1.1" xmlns="http://www.w3.org/2000/svg" xmlns:xlink="http://www.w3.org/1999/xlink">
    <!-- Generator: Sketch 59.1 (86144) - https://sketch.com -->
    <title>copy</title>
    <desc>Created with Sketch.</desc>
    <g id="page-1" stroke="none" stroke-width="1" fill="none" fill-rule="evenodd">
        <g id="file-imformation-" transform="translate(-459.000000, -42.000000)" fill="#8090AA" stroke="#7F8FA9" stroke-width="0.3">
            <path d="M471.419867,54.7887419 L470.315272,54.7887419 L470.315272,55.8943217 C470.315272,56.5052068 469.820558,57 469.209673,57 L461.104595,57 C460.494714,57 460,56.5052068 460,55.8943217 L460,46.3157744 C460,45.7059922 460.494714,45.2101946 461.104595,45.2101946 L462.210175,45.2101946 L462.210175,44.1055995 C462.210175,43.4947145 462.704909,43 463.31477,43 L471.419867,43 C472.030733,43 472.525447,43.4947145 472.525447,44.1055995 L472.525447,53.6841468 C472.525447,54.2940078 472.030733,54.7887419 471.419867,54.7887419 Z M471.787639,44.4745331 C471.788269,44.0676703 471.45886,43.7373552 471.051997,43.7367447 L463.683645,43.7367447 C463.276782,43.7367447 462.94692,44.0666068 462.94692,44.4734697 L462.94692,45.2101946 L469.209673,45.2101946 C469.820558,45.2101946 470.315272,45.7049879 470.315272,46.3158532 L470.315272,54.0519972 L471.051997,54.0519972 C471.45886,54.0519972 471.788722,53.7221351 471.788722,53.3152723 L471.788722,44.4745331 L471.787639,44.4745331 Z M461.47345,45.9480028 C461.066587,45.9480028 460.736725,46.2778649 460.736725,46.6847277 L460.736725,55.5254669 C460.736725,55.9330978 461.066902,56.2621919 461.47345,56.2621919 L468.840739,56.2621919 C469.247602,56.2621919 469.577464,55.9323297 469.577464,55.5254669 L469.577464,46.6847277 C469.577464,46.2778649 469.247602,45.9480028 468.840739,45.9480028 L461.47345,45.9480028 Z M467.736223,54.7887419 L462.578045,54.7887419 C462.374574,54.7887419 462.209643,54.6238108 462.209643,54.42034 C462.209643,54.2169283 462.374574,54.0519972 462.578045,54.0519972 L467.736223,54.0519972 C467.939615,54.0519972 468.104546,54.2169283 468.104546,54.42034 C468.104546,54.6238108 467.939615,54.7887419 467.736223,54.7887419 Z M467.736223,52.5785473 L462.578045,52.5785473 C462.374574,52.5785473 462.209643,52.4136162 462.209643,52.2101454 C462.209643,52.0067534 462.374574,51.8418223 462.578045,51.8418223 L467.736223,51.8418223 C467.939615,51.8418223 468.104546,52.0067534 468.104546,52.2101454 C468.104546,52.4136162 467.939615,52.5785473 467.736223,52.5785473 Z M467.736223,50.3683723 L462.578045,50.3683723 C462.374574,50.3683723 462.209643,50.2034413 462.209643,49.9999705 C462.209643,49.7965587 462.374574,49.6316277 462.578045,49.6316277 L467.736223,49.6316277 C467.939615,49.6316277 468.104546,49.7965587 468.104546,49.9999705 C468.104546,50.2034413 467.939615,50.3683723 467.736223,50.3683723 Z M467.736223,48.1581777 L462.578045,48.1581777 C462.374574,48.1581777 462.209643,47.9932466 462.209643,47.7897758 C462.209643,47.5863838 462.374574,47.4214527 462.578045,47.4214527 L467.736223,47.4214527 C467.939615,47.4214527 468.104546,47.5863838 468.104546,47.7897758 C468.104546,47.9932466 467.939615,48.1581777 467.736223,48.1581777 Z" id="copy"></path>
        </g>
    </g>
</svg>