<?xml version="1.0" encoding="UTF-8"?>
<svg width="13px" height="14px" viewBox="0 0 13 14" version="1.1" xmlns="http://www.w3.org/2000/svg" xmlns:xlink="http://www.w3.org/1999/xlink">
    <!-- Generator: Sketch 59.1 (86144) - https://sketch.com -->
    <title>copy</title>
    <desc>Created with Sketch.</desc>
    <g id="page-1" stroke="none" stroke-width="1" fill="none" fill-rule="evenodd">
        <g id="upload-success" transform="translate(-1042.000000, -366.000000)" fill="#0F8DFF">
            <path d="M1053.41987,377.788742 L1052.31527,377.788742 L1052.31527,378.894322 C1052.31527,379.505207 1051.82056,380 1051.20967,380 L1043.1046,380 C1042.49471,380 1042,379.505207 1042,378.894322 L1042,369.315774 C1042,368.705992 1042.49471,368.210195 1043.1046,368.210195 L1044.21017,368.210195 L1044.21017,367.105599 C1044.21017,366.494714 1044.70491,366 1045.31477,366 L1053.41987,366 C1054.03073,366 1054.52545,366.494714 1054.52545,367.105599 L1054.52545,376.684147 C1054.52545,377.294008 1054.03073,377.788742 1053.41987,377.788742 Z M1053.78764,367.474533 C1053.78827,367.06767 1053.45886,366.737355 1053.052,366.736745 L1045.68364,366.736745 C1045.27678,366.736745 1044.94692,367.066607 1044.94692,367.47347 L1044.94692,368.210195 L1051.20967,368.210195 C1051.82056,368.210195 1052.31527,368.704988 1052.31527,369.315853 L1052.31527,377.051997 L1053.052,377.051997 C1053.45886,377.051997 1053.78872,376.722135 1053.78872,376.315272 L1053.78872,367.474533 L1053.78764,367.474533 Z M1043.47345,368.948003 C1043.06659,368.948003 1042.73672,369.277865 1042.73672,369.684728 L1042.73672,378.525467 C1042.73672,378.933098 1043.0669,379.262192 1043.47345,379.262192 L1050.84074,379.262192 C1051.2476,379.262192 1051.57746,378.93233 1051.57746,378.525467 L1051.57746,369.684728 C1051.57746,369.277865 1051.2476,368.948003 1050.84074,368.948003 L1043.47345,368.948003 Z M1049.73622,377.788742 L1044.57805,377.788742 C1044.37457,377.788742 1044.20964,377.623811 1044.20964,377.42034 C1044.20964,377.216928 1044.37457,377.051997 1044.57805,377.051997 L1049.73622,377.051997 C1049.93961,377.051997 1050.10455,377.216928 1050.10455,377.42034 C1050.10455,377.623811 1049.93961,377.788742 1049.73622,377.788742 Z M1049.73622,375.578547 L1044.57805,375.578547 C1044.37457,375.578547 1044.20964,375.413616 1044.20964,375.210145 C1044.20964,375.006753 1044.37457,374.841822 1044.57805,374.841822 L1049.73622,374.841822 C1049.93961,374.841822 1050.10455,375.006753 1050.10455,375.210145 C1050.10455,375.413616 1049.93961,375.578547 1049.73622,375.578547 Z M1049.73622,373.368372 L1044.57805,373.368372 C1044.37457,373.368372 1044.20964,373.203441 1044.20964,372.99997 C1044.20964,372.796559 1044.37457,372.631628 1044.57805,372.631628 L1049.73622,372.631628 C1049.93961,372.631628 1050.10455,372.796559 1050.10455,372.99997 C1050.10455,373.203441 1049.93961,373.368372 1049.73622,373.368372 Z M1049.73622,371.158178 L1044.57805,371.158178 C1044.37457,371.158178 1044.20964,370.993247 1044.20964,370.789776 C1044.20964,370.586384 1044.37457,370.421453 1044.57805,370.421453 L1049.73622,370.421453 C1049.93961,370.421453 1050.10455,370.586384 1050.10455,370.789776 C1050.10455,370.993247 1049.93961,371.158178 1049.73622,371.158178 Z" id="copy"></path>
        </g>
    </g>
</svg>