<?xml version="1.0" encoding="UTF-8"?>
<svg width="14px" height="12px" viewBox="0 0 14 12" version="1.1" xmlns="http://www.w3.org/2000/svg" xmlns:xlink="http://www.w3.org/1999/xlink">
    <!-- Generator: Sketch 59.1 (86144) - https://sketch.com -->
    <title>Fill 2</title>
    <desc>Created with Sketch.</desc>
    <g id="page-1" stroke="none" stroke-width="1" fill="none" fill-rule="evenodd">
        <g id="file-imformation-" transform="translate(-308.000000, -44.000000)" fill="#FFFFFF">
            <path d="M314.96626,49.6081045 C315.208815,49.5914706 315.422792,49.7654993 315.456045,50.0062946 L315.460373,50.0693535 L315.460373,54.0442428 L316.463314,53.0972051 C316.639305,52.9299569 316.91471,52.9272447 317.093975,53.0910161 C317.273183,53.2548308 317.29527,53.5293411 317.144468,53.7196431 L317.098361,53.7700787 L315.315385,55.4521977 L315.283084,55.4797526 L315.231465,55.5152566 L315.165305,55.54675 L315.105016,55.5656345 L315.043183,55.5758918 L315.004592,55.5782578 L314.927712,55.5727324 L314.865894,55.5589838 L314.817824,55.5416285 L314.765412,55.5156461 L314.707143,55.4754679 L314.680713,55.4517938 L312.897738,53.7696892 C312.722641,53.603321 312.704997,53.3302389 312.857271,53.1427501 C313.009587,52.9552613 313.280491,52.9165402 313.479189,53.0538675 L313.532395,53.0972051 L314.535379,54.0434494 L314.535379,50.0693535 C314.535437,49.8262499 314.723719,49.6246663 314.96626,49.6081045 Z M315.000361,44 C317.171009,44 318.949657,45.6337031 319.026075,47.6892705 L319.028441,47.8271749 L319.028441,47.9291713 L319.133265,47.9358797 C320.690103,48.0623438 321.929439,49.272538 321.99723,50.780585 L322,50.9105403 C322,52.5221995 320.663327,53.8257343 318.99891,53.8935251 L318.863386,53.8962806 L318.120413,53.8962806 C317.877295,53.8961796 317.675726,53.7078974 317.65915,53.465342 C317.64253,53.2228011 317.816544,53.008825 318.057412,52.9756293 L318.120413,52.9716908 L318.863386,52.9716908 C320.09095,52.9716908 321.075396,52.0427441 321.075396,50.9105403 C321.075396,49.8165816 320.155134,48.9121025 318.985103,48.8529821 L318.862982,48.8498371 L318.103895,48.8498371 L318.103895,47.8267853 C318.103895,46.2304905 316.71996,44.9249938 315.000361,44.9249938 C313.326927,44.9249938 311.972119,46.1607809 311.900044,47.6983449 L311.896884,47.8267853 L311.896884,48.8498371 L311.13735,48.8498371 C309.909844,48.8498371 308.925398,49.7787693 308.925398,50.9105403 C308.925398,52.0049319 309.845256,52.9090214 311.015228,52.9681418 L311.13735,52.9712868 L311.880323,52.9712868 C312.123369,52.9715754 312.324721,53.1599009 312.34124,53.4023985 C312.357744,53.6448385 312.18373,53.8587569 311.942978,53.8919526 L311.879976,53.8962806 L311.13774,53.8962806 C309.410321,53.8962806 308,52.5659411 308,50.9105403 C308,49.3426516 309.265708,48.0662822 310.867124,47.9362692 L310.971501,47.9291713 L310.971501,47.8267853 C310.971501,45.7534588 312.70332,44.0744415 314.85582,44.002366 L314.999971,44 L315.000361,44 Z" id="Fill-2"></path>
        </g>
    </g>
</svg>