<?xml version="1.0" encoding="UTF-8"?>
<svg width="16px" height="12px" viewBox="0 0 16 12" version="1.1" xmlns="http://www.w3.org/2000/svg" xmlns:xlink="http://www.w3.org/1999/xlink">
    <!-- Generator: Sketch 59.1 (86144) - https://sketch.com -->
    <title>Fill 3</title>
    <desc>Created with Sketch.</desc>
    <g id="page-1" stroke="none" stroke-width="1" fill="none" fill-rule="evenodd">
        <g id="upload-success" transform="translate(-581.000000, -367.000000)" fill="#0F8DFF">
            <path d="M589.012475,370.331639 C587.546606,370.331639 586.347185,371.530989 586.347185,372.99691 C586.347185,374.462779 587.546606,375.6622 589.012475,375.6622 C590.478414,375.6622 591.677746,374.462779 591.677746,372.99691 C591.677746,371.530989 590.478414,370.331639 589.012475,370.331639 Z M589.012475,367 C594.109837,367 596.741843,372.164001 596.875066,372.397182 C597.041645,372.763658 597.041645,373.230109 596.875066,373.596585 C596.741843,373.829766 594.109837,378.993749 589.012475,378.993749 C583.915166,378.993749 581.28316,373.829766 581.149937,373.596585 C580.950021,373.230109 580.950021,372.763658 581.149937,372.397182 C581.28316,372.164001 583.915166,367 589.012475,367 Z M589.012475,368.332645 C584.681401,368.332645 582.349269,372.99691 582.349269,372.99691 C582.349269,372.99691 584.681401,377.661122 589.012475,377.661122 C593.142154,377.661122 595.454467,373.4207 595.660632,373.026243 L595.675734,372.99691 C595.675734,372.99691 593.343601,368.332645 589.012475,368.332645 Z M589.012475,371.664284 C589.745444,371.664284 590.345101,372.263941 590.345101,372.99691 C590.345101,373.729809 589.745444,374.329555 589.012475,374.329555 C588.279576,374.329555 587.67983,373.729809 587.67983,372.99691 C587.67983,372.263941 588.279576,371.664284 589.012475,371.664284 Z" id="Fill-3"></path>
        </g>
    </g>
</svg>