<?xml version="1.0" encoding="UTF-8"?>
<svg width="16px" height="16px" viewBox="0 0 16 16" version="1.1" xmlns="http://www.w3.org/2000/svg" xmlns:xlink="http://www.w3.org/1999/xlink">
    <!-- Generator: Sketch 59.1 (86144) - https://sketch.com -->
    <title>Fill 6</title>
    <desc>Created with Sketch.</desc>
    <g id="page-1" stroke="none" stroke-width="1" fill="none" fill-rule="evenodd">
        <g id="actions" transform="translate(-613.000000, -246.000000)" fill="#7E8EA8">
            <path d="M623.093782,248.468714 C623.956732,248.468714 624.656284,249.168344 624.656284,250.031216 L624.656284,250.515611 C624.656284,250.860846 624.37644,251.140612 624.031283,251.140612 C623.686048,251.140612 623.406282,250.860846 623.406282,250.515611 L623.406282,250.031216 C623.406282,249.858638 623.26636,249.718715 623.093782,249.718715 L614.562502,249.718715 C614.389924,249.718715 614.250002,249.858638 614.250002,250.031216 L614.250002,260.437498 C614.250002,260.610076 614.389924,260.749998 614.562502,260.749998 L623.093782,260.749998 C623.26636,260.749998 623.406282,260.610076 623.406282,260.437498 L623.406282,257.1406 C623.406282,256.795462 623.686048,256.515599 624.031283,256.515599 C624.37644,256.515599 624.656284,256.795462 624.656284,257.1406 L624.656284,260.437498 C624.656284,261.300468 623.956732,262 623.093782,262 L614.562502,262 C613.699532,262 613,261.300468 613,260.437498 L613,250.031216 C613,249.168344 613.699532,248.468714 614.562502,248.468714 L623.093782,248.468714 Z M626.955935,249.408442 C627.220056,249.540493 627.355721,249.839262 627.281248,250.124986 L626.874978,251.828093 C626.22695,254.6538 623.839544,256.745169 620.953115,257.015638 L620.953115,259.23443 C620.953115,259.579567 620.673349,259.859486 620.328114,259.859486 C620.173017,259.861482 620.022645,259.805779 619.906297,259.703181 L615.375042,255.656223 C615.242425,255.535383 615.168206,255.363332 615.171089,255.183976 C615.174143,255.004601 615.254104,254.835148 615.390589,254.718722 L619.921844,250.843756 C620.106415,250.685904 620.365732,250.649205 620.586748,250.749693 C620.807861,250.850162 620.950752,251.069655 620.953115,251.312506 L620.953115,253.31247 C622.418722,253.154618 623.767298,252.438387 624.718764,251.312506 L626.187497,249.57811 C626.371442,249.347172 626.691872,249.276371 626.955935,249.408442 Z M627.437498,246 C628.300468,246 629,246.699532 629,247.562502 L629,257.968784 C629,258.831734 628.300468,259.531286 627.437498,259.531286 L625.593785,259.531286 C625.24855,259.531286 624.968784,259.251442 624.968784,258.906285 C624.968784,258.56105 625.24855,258.281285 625.593785,258.281285 L627.437498,258.281285 C627.610076,258.281285 627.749998,258.141362 627.749998,257.968784 L627.749998,247.562502 C627.749998,247.389924 627.610076,247.250002 627.437498,247.250002 L618.906218,247.250002 C618.73364,247.250002 618.593718,247.389924 618.593718,247.562502 L618.593718,247.687463 C618.593718,248.032698 618.313952,248.312464 617.968717,248.312464 C617.62358,248.312464 617.343716,248.032698 617.343716,247.687463 L617.343716,247.562502 C617.343716,246.699532 618.043346,246 618.906218,246 L627.437498,246 Z M625.375054,252.453094 C624.054779,253.824638 622.231886,254.597882 620.328114,254.59376 C619.982958,254.59376 619.703114,254.313916 619.703114,253.96876 L619.703114,252.671922 L616.750005,255.203117 L619.703114,257.843725 L619.703114,256.421927 C619.703114,256.076692 619.982958,255.796926 620.328114,255.796926 C622.578098,255.796926 624.531225,254.468799 625.375054,252.453094 Z" id="Fill-6"></path>
        </g>
    </g>
</svg>