<?xml version="1.0" encoding="UTF-8"?>
<svg width="16px" height="13px" viewBox="0 0 16 13" version="1.1" xmlns="http://www.w3.org/2000/svg" xmlns:xlink="http://www.w3.org/1999/xlink">
    <!-- Generator: Sketch 59.1 (86144) - https://sketch.com -->
    <title>Fill 3</title>
    <desc>Created with Sketch.</desc>
    <g id="page-1" stroke="none" stroke-width="1" fill="none" fill-rule="evenodd">
        <g id="view（Desynced）" transform="translate(-464.000000, -44.000000)" fill="#7F8FA9">
            <path d="M475.110514,53.5218109 L468.825687,53.5218109 C468.679242,53.5218109 468.532685,53.5718989 468.413014,53.6719409 C468.3987,53.6844238 468.384386,53.6968844 468.370183,53.7111985 C468.273692,53.8076676 468.214739,53.9273607 468.193279,54.0524355 C468.186133,54.0935242 468.182538,54.1346129 468.184369,54.1757016 C468.186133,54.3239781 468.239771,54.472277 468.346892,54.5901167 L470.022663,56.4552749 C470.14948,56.5963163 470.324553,56.6678418 470.501368,56.6678418 C470.654982,56.6678418 470.808685,56.6142032 470.930098,56.5035094 C471.071251,56.3765811 471.142776,56.2015076 471.142776,56.0246923 C471.142776,55.871101 471.089138,55.7173981 470.978354,55.5959631 L470.267342,54.8027953 L475.108683,54.8027953 C475.464211,54.8027953 475.75181,54.5151075 475.75181,54.1596457 C475.75181,53.8040946 475.465976,53.5218109 475.110514,53.5218109 Z M472.34864,44 C473.825956,44 475.214039,44.5752862 476.259143,45.6203009 C477.20061,46.5617677 477.759751,47.7819229 477.861647,49.0949966 C478.415473,49.3254506 478.908493,49.7023722 479.278246,50.1793582 C479.749895,50.7903068 479.998236,51.5210377 480,52.2910039 C480,52.9822986 479.707064,53.7701741 479.217551,54.4008408 C478.67087,55.1028543 477.968857,55.5066399 477.28636,55.5066399 C476.930899,55.5066399 476.643211,55.2189522 476.643211,54.8634904 C476.643211,54.5079616 476.930899,54.2203632 477.28636,54.2203632 C477.559734,54.2203632 477.909881,53.9881451 478.201053,53.6129653 C478.515426,53.2074378 478.711959,52.7001266 478.711959,52.2927457 C478.711959,51.3156166 478.054585,50.452732 477.11486,50.19365 C477.005908,50.1650442 476.913012,50.1097531 476.838003,50.0364634 C476.687873,49.9203656 476.591493,49.7363151 476.591493,49.530894 C476.591493,48.3964667 476.150191,47.3317339 475.348024,46.529656 C474.545946,45.7274888 473.481236,45.2862991 472.346809,45.2862991 C471.412488,45.2862991 470.526401,45.5846163 469.78321,46.1473303 C469.065051,46.6940107 468.529112,47.4675499 468.275456,48.3286034 C468.273692,48.3393222 468.270119,48.3482322 468.266546,48.358951 C468.264715,48.3607821 468.264715,48.3607821 468.264715,48.3625239 C468.262973,48.3715232 468.2594,48.3785797 468.255827,48.3875567 C468.253996,48.3893209 468.253996,48.3928938 468.252232,48.3947249 C468.248659,48.4018708 468.246828,48.4071855 468.243255,48.4143537 C468.241513,48.4197577 468.239771,48.4232413 468.23794,48.4268143 C468.236199,48.4322183 468.232626,48.4358136 468.230794,48.4411283 C468.227199,48.4465324 468.225457,48.4518471 468.221884,48.4572735 C468.220053,48.4608464 468.218312,48.4625882 468.21648,48.4661612 C468.212907,48.473307 468.209335,48.4786441 468.205739,48.4857899 L468.205739,48.4857899 C468.196852,48.4983398 468.193279,48.505508 468.187964,48.5125646 L468.187964,48.5125646 C468.180796,48.5215416 468.175392,48.5304515 468.170077,48.5375974 L468.170077,48.5375974 C468.162909,48.5483385 468.155763,48.5554844 468.150448,48.5626302 L468.150448,48.5626302 C468.143302,48.5697984 468.136134,48.5769443 468.13073,48.5840901 L468.13073,48.5840901 L468.125415,48.5894272 L468.100383,48.61446 C468.095045,48.618033 468.091473,48.6216059 468.0879,48.6251788 L468.0879,48.6251788 L468.071754,48.6394929 C468.068182,48.6412347 468.06644,48.6430658 468.064609,48.6448076 C468.057552,48.6519535 468.050384,48.6572905 468.043238,48.6626946 L468.043238,48.6626946 C467.993172,48.6983569 467.939601,48.7288161 467.880647,48.7501867 C467.880647,48.7520178 467.878906,48.7520178 467.878906,48.7520178 C467.871737,48.7555907 467.86276,48.7591637 467.855615,48.7609055 L467.846705,48.7627366 L467.82884,48.7680736 C467.823503,48.7699048 467.81993,48.7699048 467.814526,48.7716466 L467.814526,48.7716466 L467.800212,48.7752195 C467.794897,48.7752195 467.787751,48.7770506 467.780583,48.7787924 L467.780583,48.7787924 C467.762718,48.7823654 467.75555,48.7823654 467.746663,48.7841072 L467.746663,48.7841072 C467.067828,48.8770033 466.446161,49.2110945 465.992377,49.7255739 C465.535042,50.2454798 465.283128,50.9136621 465.283128,51.606788 C465.283128,52.1927037 465.46001,52.7572488 465.795843,53.2360659 C466.124531,53.7040526 466.578315,54.0613455 467.110659,54.2650248 C467.442919,54.3918414 467.607363,54.7634484 467.480524,55.0957084 C467.382224,55.3511952 467.139287,55.5083817 466.880205,55.5083817 C466.803454,55.5083817 466.72476,55.49409 466.649751,55.4655512 C465.878021,55.1689758 465.218838,54.6526653 464.743594,53.9720223 C464.255911,53.2753012 463.99866,52.4571004 463.99866,51.6049569 C463.99866,50.5991997 464.364841,49.6291049 465.02945,48.8752615 C465.595759,48.2321343 466.344266,47.7819229 467.169635,47.5854118 C467.330394,47.1584915 467.542983,46.7547059 467.803785,46.3777842 C468.136134,45.8989894 468.541662,45.4774061 469.006075,45.1236861 C469.974428,44.3876405 471.130204,44 472.34864,44 Z M473.020306,49.5344669 C473.284702,49.2986759 473.691972,49.3218776 473.927852,49.5862744 L473.927852,49.5862744 L475.594623,51.4513433 C475.700002,51.5710141 475.753552,51.7193129 475.755383,51.8675895 C475.757147,51.9086782 475.753552,51.948025 475.746406,51.9891137 C475.723204,52.1159304 475.664228,52.2356235 475.567759,52.3320926 C475.553535,52.3464066 475.539243,52.360609 475.523098,52.3731813 C475.403427,52.4732233 475.256959,52.5214801 475.112256,52.5214801 L475.112256,52.5214801 L468.827429,52.5214801 C468.471967,52.5214801 468.184369,52.2337924 468.184369,51.8783306 C468.184369,51.5227795 468.471967,51.2351811 468.827429,51.2369229 L468.827429,51.2369229 L473.679511,51.2369229 L472.970329,50.443755 C472.859546,50.3204889 472.805885,50.1668753 472.805885,50.0150035 C472.805885,49.8381882 472.877433,49.6613059 473.020306,49.5344669 Z" id="Fill-3"></path>
        </g>
    </g>
</svg>