<?xml version="1.0" encoding="UTF-8"?>
<svg width="14px" height="16px" viewBox="0 0 14 16" version="1.1" xmlns="http://www.w3.org/2000/svg" xmlns:xlink="http://www.w3.org/1999/xlink">
    <!-- Generator: Sketch 59.1 (86144) - https://sketch.com -->
    <title>Fill 1</title>
    <desc>Created with Sketch.</desc>
    <g id="page-1" stroke="none" stroke-width="1" fill="none" fill-rule="evenodd">
        <g id="actions" transform="translate(-614.000000, -195.000000)" fill="#7E8EA8">
            <path d="M623.71425,208.714222 L615.714306,208.714222 C614.769128,208.714222 614,207.945094 614,207.000028 L614,196.714306 C614,195.769128 614.769128,195 615.714306,195 L623.71425,195 C624.659427,195 625.428555,195.769128 625.428555,196.714306 L625.428555,207.000028 C625.428555,207.945094 624.659427,208.714222 623.71425,208.714222 Z M615.714306,196.142833 C615.39944,196.142833 615.142833,196.39944 615.142833,196.714306 L615.142833,207.000028 C615.142833,207.315385 615.39944,207.571389 615.714306,207.571389 L623.71425,207.571389 C624.029718,207.571389 624.285722,207.315385 624.285722,207.000028 L624.285722,196.714306 C624.285722,196.39944 624.029718,196.142833 623.71425,196.142833 L615.714306,196.142833 Z M626.000028,211 L617.428611,211 C617.113143,211 616.857139,210.744509 616.857139,210.428528 C616.857139,210.112546 617.113143,209.857167 617.428611,209.857167 L626.000028,209.857167 C626.315385,209.857167 626.571389,209.601163 626.571389,209.285694 L626.571389,198.428611 C626.571389,198.113143 626.826879,197.857139 627.142861,197.857139 C627.458843,197.857139 627.714222,198.113143 627.714222,198.428611 L627.714222,209.285694 C627.714222,210.230872 626.945094,211 626.000028,211 Z M621.428583,199.571445 L616.857139,199.571445 C616.541671,199.571445 616.285666,199.31544 616.285666,198.999972 C616.285666,198.684593 616.541671,198.428611 616.857139,198.428611 L621.428583,198.428611 C621.744565,198.428611 621.999944,198.684593 621.999944,198.999972 C621.999944,199.31544 621.744565,199.571445 621.428583,199.571445 Z M622.571417,202.428583 L616.857742,202.428583 C616.542296,202.428583 616.286291,202.172579 616.286291,201.857111 C616.286291,201.541732 616.542296,201.28575 616.857742,201.28575 L622.571417,201.28575 C622.887398,201.28575 623.142889,201.541732 623.142889,201.857111 C623.142889,202.172579 622.887398,202.428583 622.571417,202.428583 Z M622.571417,205.285722 L616.857139,205.285722 C616.541671,205.285722 616.285666,205.030232 616.285666,204.71425 C616.285666,204.398268 616.541671,204.142889 616.857139,204.142889 L622.571417,204.142889 C622.887398,204.142889 623.142889,204.398268 623.142889,204.71425 C623.142889,205.030232 622.887398,205.285722 622.571417,205.285722 Z" id="Fill-1"></path>
        </g>
    </g>
</svg>