<?xml version="1.0" encoding="UTF-8"?>
<svg width="16px" height="13px" viewBox="0 0 16 13" version="1.1" xmlns="http://www.w3.org/2000/svg" xmlns:xlink="http://www.w3.org/1999/xlink">
    <!-- Generator: Sketch 59.1 (86144) - https://sketch.com -->
    <title>Fill 5</title>
    <desc>Created with Sketch.</desc>
    <g id="page-1" stroke="none" stroke-width="1" fill="none" fill-rule="evenodd">
        <g id="actions" transform="translate(-613.000000, -150.000000)" fill="#7E8EA8">
            <path d="M621.534631,155.286172 C621.613209,155.286172 621.677478,155.35044 621.677478,155.428996 L621.677478,155.428996 L621.677478,159.756138 L623.000823,159.756138 C623.120454,159.756138 623.186553,159.893649 623.11331,159.986514 L623.11331,159.986514 L621.11319,162.517079 C621.055998,162.590322 620.945341,162.590322 620.888127,162.517079 L620.888127,162.517079 L618.888029,159.986514 C618.814764,159.893649 618.880864,159.756138 619.000516,159.756138 L619.000516,159.756138 L620.32029,159.756138 L620.32029,155.428996 C620.32029,155.35044 620.384559,155.286172 620.463114,155.286172 L620.463114,155.286172 Z M621.004208,150 C623.445547,150 625.529625,151.534033 626.347572,153.691353 C627.874439,154.095002 629.001339,155.487952 629.001339,157.143445 C629.001339,159.116777 627.402949,160.715168 625.431358,160.715168 L625.431358,160.715168 L624.715272,160.715168 C624.636694,160.715168 624.572336,160.650899 624.572336,160.572343 L624.572336,160.572343 L624.572336,159.500827 C624.572336,159.422159 624.636694,159.357891 624.715272,159.357891 L624.715272,159.357891 L625.431358,159.357891 C626.022478,159.357891 626.577859,159.127515 626.995817,158.709645 C627.413686,158.291776 627.644062,157.734565 627.644062,157.143445 C627.644062,156.139769 626.967221,155.259406 625.999284,154.99867 L625.999284,154.99867 L625.324184,154.820084 L625.077758,154.168178 C624.924196,153.762787 624.70987,153.380658 624.440227,153.035964 C624.174112,152.694842 623.859822,152.394862 623.504414,152.144775 C622.770447,151.628728 621.906113,151.355446 621.004208,151.355446 C620.10237,151.355446 619.238036,151.628728 618.504002,152.144775 C618.150402,152.394862 617.834304,152.693101 617.568255,153.035964 C617.298546,153.380658 617.084287,153.761024 616.930636,154.168178 L616.930636,154.168178 L616.682468,154.821825 L616.005627,154.99867 C615.541281,155.121872 615.123411,155.398659 614.825195,155.779025 C614.534033,156.152337 614.373327,156.595208 614.357277,157.066631 C614.337655,157.670319 614.560887,158.252465 614.980498,158.684621 C615.402028,159.118608 615.968124,159.357891 616.569981,159.357891 L616.569981,159.357891 L617.286067,159.357891 C617.364645,159.357891 617.428891,159.422159 617.428891,159.500827 L617.428891,159.500827 L617.428891,160.572343 C617.428891,160.650899 617.364645,160.715168 617.286067,160.715168 L617.286067,160.715168 L616.569981,160.715168 C614.59839,160.715168 613,159.116777 613,157.143445 C613,155.486211 614.130473,154.091431 615.660911,153.689612 C616.478858,151.532291 618.562936,150 621.004208,150 Z" id="Fill-5"></path>
        </g>
    </g>
</svg>