<?xml version="1.0" encoding="UTF-8"?>
<svg width="16px" height="16px" viewBox="0 0 16 16" version="1.1" xmlns="http://www.w3.org/2000/svg" xmlns:xlink="http://www.w3.org/1999/xlink">
    <!-- Generator: Sketch 59.1 (86144) - https://sketch.com -->
    <title>Fill 4</title>
    <desc>Created with Sketch.</desc>
    <g id="page-1" stroke="none" stroke-width="2" fill="none" fill-rule="evenodd">
        <g id="settings" transform="translate(-487.000000, -102.000000)" fill="#7E8EA8">
            <path d="M497,102 C498.104,102 499,102.896 499,104 L499,104 L499,105.5 C499,105.776 498.776,106 498.5,106 C498.224,106 498,105.776 498,105.5 L498,105.5 L498,104 C498,103.449 497.552,103 497,103 L497,103 L489,103 C488.449,103 488,103.449 488,104 L488,104 L488,116 C488,116.552 488.449,117 489,117 L489,117 L492,117 C492.276,117 492.5,117.224 492.5,117.5 C492.5,117.776 492.276,118 492,118 L492,118 L489,118 C487.896,118 487,117.104 487,116 L487,116 L487,104 C487,102.896 487.896,102 489,102 L489,102 Z M497.5001,106.9995 C500.5371,106.9995 503.0001,109.4625 503.0001,112.4995 C503.0001,115.5375 500.5371,117.9995 497.5001,117.9995 C494.4621,117.9995 492.0001,115.5375 492.0001,112.4995 C492.0001,109.4625 494.4621,106.9995 497.5001,106.9995 Z M498.7051,114.9375 C498.3171,114.9775 497.9151,114.9995 497.5001,114.9995 C497.0851,114.9995 496.6821,114.9775 496.2951,114.9375 C496.6411,116.2795 497.2091,116.9995 497.5001,116.9995 C497.7911,116.9995 498.3581,116.2795 498.7051,114.9375 Z M501.6861,114.1195 C501.1661,114.3965 500.5141,114.6215 499.7741,114.7745 C499.6211,115.5135 499.3961,116.1655 499.1191,116.6865 C500.2961,116.2295 501.2291,115.2955 501.6861,114.1195 Z M493.3131,114.1195 C493.7701,115.2955 494.7031,116.2295 495.8811,116.6865 C495.6031,116.1655 495.3791,115.5135 495.2251,114.7745 C494.4861,114.6215 493.8341,114.3965 493.3131,114.1195 Z M497.5001,110.9995 C496.9851,110.9995 496.5281,111.0405 496.0981,111.0985 C496.0411,111.5285 496.0001,111.9855 496.0001,112.4995 C496.0001,113.0145 496.0411,113.4715 496.0981,113.9015 C496.5281,113.9585 496.9851,113.9995 497.5001,113.9995 C498.0151,113.9995 498.4721,113.9585 498.9011,113.9015 C498.9591,113.4715 499.0001,113.0145 499.0001,112.4995 C499.0001,111.9855 498.9591,111.5285 498.9011,111.0985 C498.4721,111.0405 498.0151,110.9995 497.5001,110.9995 Z M495.0621,111.2945 C493.7211,111.6415 493.0001,112.2085 493.0001,112.4995 C493.0001,112.7905 493.7211,113.3585 495.0621,113.7055 C495.0221,113.3175 495.0001,112.9155 495.0001,112.4995 C495.0001,112.0845 495.0221,111.6825 495.0621,111.2945 Z M499.9371,111.2945 C499.9771,111.6825 500.0001,112.0845 500.0001,112.4995 C500.0001,112.9155 499.9771,113.3175 499.9371,113.7055 C501.2791,113.3585 502.0001,112.7905 502.0001,112.4995 C502.0001,112.2085 501.2791,111.6415 499.9371,111.2945 Z M495.8811,108.3135 C494.7031,108.7705 493.7701,109.7035 493.3131,110.8805 C493.8341,110.6035 494.4861,110.3785 495.2251,110.2255 C495.3791,109.4855 495.6031,108.8335 495.8811,108.3135 Z M499.1191,108.3135 C499.3961,108.8335 499.6211,109.4855 499.7741,110.2255 C500.5141,110.3785 501.1661,110.6035 501.6861,110.8805 C501.2291,109.7035 500.2961,108.7705 499.1191,108.3135 Z M497.5001,107.9995 C497.2091,107.9995 496.6411,108.7205 496.2951,110.0615 C496.6821,110.0225 497.0851,109.9995 497.5001,109.9995 C497.9151,109.9995 498.3171,110.0225 498.7051,110.0615 C498.3581,108.7205 497.7911,107.9995 497.5001,107.9995 Z M492.5,107 C492.775,107 493,107.225 493,107.5 C493,107.775 492.775,108 492.5,108 L490.5,108 C490.225,108 490,107.775 490,107.5 C490,107.225 490.225,107 490.5,107 L492.5,107 Z M495.5,105 C495.775,105 496,105.225 496,105.5 C496,105.775 495.775,106 495.5,106 L490.5,106 C490.225,106 490,105.775 490,105.5 C490,105.225 490.225,105 490.5,105 L495.5,105 Z" id="Fill-4"></path>
        </g>
    </g>
</svg>