<?xml version="1.0" encoding="UTF-8"?>
<svg width="18px" height="18px" viewBox="0 0 18 18" version="1.1" xmlns="http://www.w3.org/2000/svg" xmlns:xlink="http://www.w3.org/1999/xlink">
    <!-- Generator: Sketch 59.1 (86144) - https://sketch.com -->
    <title>Fill 1</title>
    <desc>Created with Sketch.</desc>
    <g id="page-1" stroke="none" stroke-width="1" fill="none" fill-rule="evenodd">
        <g id="settings" transform="translate(-486.000000, -162.000000)" fill="#D66767">
            <path d="M500.048466,177.140872 C500.048466,177.745336 499.556235,178.237422 498.951562,178.237422 L491.048438,178.237422 C490.443794,178.237422 489.951562,177.745336 489.951562,177.140872 L489.951562,165.500531 L500.048466,165.500531 L500.048466,177.140872 Z M492.145342,163.532332 C492.145342,163.40582 492.243788,163.307403 492.370337,163.307403 L497.643799,163.307403 C497.770349,163.307403 497.868795,163.40582 497.868795,163.532332 L497.868795,164.193128 L492.145342,164.193128 L492.145342,163.532332 Z M503.339121,164.193128 L499.176558,164.193128 L499.176558,163.532332 C499.176558,162.688919 498.487462,162 497.643799,162 L492.370337,162 C491.526561,162 490.83755,162.688919 490.83755,163.532332 L490.83755,164.193128 L486.660879,164.193128 C486.295339,164.193128 486,164.488379 486,164.853839 C486,165.219384 486.295339,165.514635 486.660879,165.514635 L488.629663,165.514635 L488.629663,177.140872 C488.629663,178.476341 489.712458,179.558929 491.048438,179.558929 L498.951562,179.558929 C500.28757,179.558929 501.370337,178.476341 501.370337,177.140872 L501.370337,165.500531 L503.339121,165.500531 C503.70469,165.500531 504,165.20528 504,164.839848 C504,164.474275 503.70469,164.193128 503.339121,164.193128 Z M495,176.255118 C495.365682,176.255118 495.660907,175.959981 495.660907,175.594436 L495.660907,168.56528 C495.660907,168.199735 495.365682,167.904483 495,167.904483 C494.634346,167.904483 494.339121,168.199735 494.339121,168.56528 L494.339121,175.594436 C494.339121,175.959981 494.634346,176.255118 495,176.255118 L495,176.255118 Z M491.920346,176.255118 C492.285886,176.255118 492.581225,175.959981 492.581225,175.594436 L492.581225,168.56528 C492.581225,168.199735 492.285886,167.904483 491.920346,167.904483 C491.554664,167.904483 491.259325,168.199735 491.259325,168.56528 L491.259325,175.594436 C491.273462,175.959981 491.568772,176.255118 491.920346,176.255118 L491.920346,176.255118 Z M498.079682,176.255118 C498.445336,176.255118 498.740675,175.959981 498.740675,175.594436 L498.740675,168.56528 C498.740675,168.199735 498.445336,167.904483 498.079682,167.904483 C497.714114,167.904483 497.418775,168.199735 497.418775,168.56528 L497.418775,175.594436 C497.418775,175.959981 497.714114,176.255118 498.079682,176.255118 L498.079682,176.255118 Z" id="Fill-1"></path>
        </g>
    </g>
</svg>