<?xml version="1.0" encoding="UTF-8"?>
<svg width="16px" height="16px" viewBox="0 0 16 16" version="1.1" xmlns="http://www.w3.org/2000/svg" xmlns:xlink="http://www.w3.org/1999/xlink">
    <!-- Generator: Sketch 59.1 (86144) - https://sketch.com -->
    <title>Fill 1</title>
    <desc>Created with Sketch.</desc>
    <g id="page-1" stroke="none" stroke-width="1" fill="none" fill-rule="evenodd">
        <g id="actions" transform="translate(-613.000000, -99.000000)" fill="#7E8EA8">
            <path d="M628.199979,113.382439 L613.800021,113.382439 C613.357813,113.382439 613,113.741854 613,114.187108 C613,114.630918 613.357813,114.991855 613.800021,114.991855 L628.199979,114.991855 C628.642187,114.991855 629,114.630918 629,114.187108 C629,113.741854 628.642187,113.382439 628.199979,113.382439 Z M626.996912,103.604283 C627.506248,103.094946 627.787538,102.41684 627.787538,101.696488 C627.787538,100.976194 627.506248,100.298088 626.996912,99.7886728 C625.945348,98.7371091 624.232846,98.7371091 623.181282,99.7886728 L615.125022,107.844933 L614.81717,111.968395 L618.939031,111.662164 L626.996912,103.604283 Z M624.348432,100.955901 C624.756303,100.548107 625.420367,100.548107 625.829684,100.955901 C626.028121,101.154339 626.135934,101.41678 626.135934,101.696488 C626.135934,101.976176 626.026598,102.238695 625.829684,102.437133 L624.576557,103.690279 L623.095305,102.209027 L624.348432,100.955901 Z M616.606274,110.179311 L616.724985,108.579348 L621.964093,103.34024 L623.445345,104.821491 L618.206237,110.060599 L616.606274,110.179311 Z" id="Fill-1"></path>
        </g>
    </g>
</svg>