<?xml version="1.0" encoding="UTF-8"?>
<svg width="16px" height="13px" viewBox="0 0 16 13" version="1.1" xmlns="http://www.w3.org/2000/svg" xmlns:xlink="http://www.w3.org/1999/xlink">
    <!-- Generator: Sketch 59.1 (86144) - https://sketch.com -->
    <title>group 2</title>
    <desc>Created with Sketch.</desc>
    <g id="page-1" stroke="none" stroke-width="1" fill="none" fill-rule="evenodd">
        <g id="AR-History" transform="translate(-1070.000000, -105.000000)">
            <g id="group-2" transform="translate(1070.000000, 105.000000)">
                <path d="M12.2352941,3.47620846 C11.6705423,1.50321226 9.78823529,0 7.52941176,0 C4.89411765,0 2.72943474,1.9729962 2.63529412,4.50972853 C1.12941176,5.07341879 0,6.57663105 0,8.26781653 C0,10.5226923 1.8823989,12.3076923 4.14115349,12.3076923 L11.7647059,12.3076923 C14.1176011,12.1198108 16,10.2408127 16,7.89196185 C16,5.63717787 14.4,3.85208607 12.2352941,3.47620846 Z" id="path" fill="#83BD5A"></path>
                <path d="M4.1025641,7.00556317 C4.19557735,5.11016328 5.68340337,3.59386187 7.54325967,3.4990699 C8.65916891,3.40434733 9.77496464,3.87821466 10.5189344,4.82583363 L10.9838871,4.44678141 C11.0769231,4.44678141 11.0769231,4.44678141 11.0769231,4.54157339 L11.0769231,6.05787479 C11.0769231,6.15257422 10.9838871,6.15257422 10.9838871,6.15257422 L9.49606111,5.773522 C9.40302516,5.773522 9.40302516,5.67882258 9.49606111,5.58400747 L10.053959,5.20495525 C9.49606111,4.54157339 8.56613296,4.16245176 7.63620481,4.16245176 C6.14837879,4.25724374 4.93954711,5.48919235 4.84651116,7.00556317 C4.84651116,7.19510085 4.66055278,7.38461538 4.47457169,7.38461538 C4.28852249,7.38461538 4.1025641,7.19510085 4.1025641,7.00556317 Z" id="path" fill="#BCDAAC"></path>
                <path d="M7.89742437,10.6550424 C6.76382477,10.7475843 5.63031742,10.2849877 4.87453823,9.35977188 L4.40220507,9.72982659 C4.30769231,9.72982659 4.30769231,9.72982659 4.30769231,9.63735244 L4.30769231,8.15706583 C4.30769231,8.06450132 4.40220507,8.06450132 4.49669476,8.06450132 L6.00816089,8.43455604 C6.10255834,8.43455604 6.10255834,8.52712054 6.00816089,8.6195721 L5.53580466,8.98971717 C6.10255834,9.54478794 6.95282722,10.0074072 7.89742437,9.91484266 C9.40898275,9.82236851 10.6370029,8.6195721 10.7314925,7.13928548 C10.7314925,6.95426942 10.9204258,6.76923077 11.109336,6.76923077 C11.2982693,6.76923077 11.4871795,6.95426942 11.4871795,7.13928548 C11.392759,8.98971717 9.88122366,10.5625683 7.89742437,10.6550424 Z" id="path" fill="#BCDAAC"></path>
            </g>
        </g>
    </g>
</svg>