<?xml version="1.0" encoding="UTF-8"?>
<svg width="16px" height="13px" viewBox="0 0 16 13" version="1.1" xmlns="http://www.w3.org/2000/svg" xmlns:xlink="http://www.w3.org/1999/xlink">
    <!-- Generator: Sketch 59.1 (86144) - https://sketch.com -->
    <title>group 2</title>
    <desc>Created with Sketch.</desc>
    <g id="page-1" stroke="none" stroke-width="1" fill="none" fill-rule="evenodd">
        <g id="AR-History" transform="translate(-1184.000000, -106.000000)">
            <g id="group-2" transform="translate(1184.000000, 106.000000)">
                <path d="M12.2352941,3.47620846 C11.6705423,1.50321226 9.78823529,0 7.52941176,0 C4.89411765,0 2.72943474,1.9729962 2.63529412,4.50972853 C1.12941176,5.07341879 0,6.57663105 0,8.26781653 C0,10.5226923 1.8823989,12.3076923 4.14115349,12.3076923 L11.7647059,12.3076923 C14.1176011,12.1198108 16,10.2408127 16,7.89196185 C16,5.63717787 14.4,3.85208607 12.2352941,3.47620846 Z" id="path" fill="#83BD5A"></path>
                <path d="M6.5,9 C6.22385763,9 6,8.77614237 6,8.5 C6,8.22385763 6.22385763,8 6.5,8 L9,8 L9,3.5 C9,3.22385763 9.22385763,3 9.5,3 C9.77614237,3 10,3.22385763 10,3.5 L10,8.5 L10,8.5 C10,8.74545989 9.82312484,8.94960837 9.58987563,8.99194433 L9.5,9 L9.5,9 L6.5,9 Z" id="shap" fill="#BCDAAC" transform="translate(8.000000, 6.000000) rotate(-315.000000) translate(-8.000000, -6.000000) "></path>
            </g>
        </g>
    </g>
</svg>