<?xml version="1.0" encoding="UTF-8"?>
<svg width="14px" height="12px" viewBox="0 0 14 12" version="1.1" xmlns="http://www.w3.org/2000/svg" xmlns:xlink="http://www.w3.org/1999/xlink">
    <!-- Generator: Sketch 59.1 (86144) - https://sketch.com -->
    <title>Fill 2</title>
    <desc>Created with Sketch.</desc>
    <g id="page-1" stroke="none" stroke-width="1" fill="none" fill-rule="evenodd">
        <g id="upload-success" transform="translate(-308.000000, -44.000000)" fill="#FFFFFF">
            <path d="M314.993652,49.6070056 L315.070532,49.612531 L315.13235,49.6262796 L315.18042,49.6436349 L315.232832,49.6696173 L315.291101,49.7097955 L315.317531,49.7334696 L317.100506,51.4155742 C317.275603,51.5819424 317.293246,51.8550245 317.140973,52.0425133 C316.988657,52.2300021 316.717753,52.2687232 316.519055,52.1313959 L316.465849,52.0880582 L315.462865,51.141814 L315.462865,55.1159099 C315.462807,55.3590135 315.274525,55.5605971 315.031984,55.5771589 C314.789429,55.5937928 314.575452,55.4197641 314.542199,55.1789688 L314.537871,55.1159099 L314.537871,51.1410205 L313.53493,52.0880582 C313.358939,52.2553064 313.083534,52.2580186 312.904269,52.0942473 C312.725061,51.9304326 312.702974,51.6559222 312.853776,51.4656203 L312.899883,51.4151847 L314.682859,49.7330657 L314.71516,49.7055108 L314.766779,49.6700068 L314.832939,49.6385134 L314.893228,49.6196289 L314.955061,49.6093716 L314.993652,49.6070056 Z M315.000361,44 C317.171009,44 318.949657,45.6337031 319.026075,47.6892705 L319.028441,47.8271749 L319.028441,47.9291713 L319.133265,47.9358797 C320.690103,48.0623438 321.929439,49.272538 321.99723,50.780585 L322,50.9105403 C322,52.5221995 320.663327,53.8257343 318.99891,53.8935251 L318.863386,53.8962806 L318.120413,53.8962806 C317.877295,53.8961796 317.675726,53.7078974 317.65915,53.465342 C317.64253,53.2228011 317.816544,53.008825 318.057412,52.9756293 L318.120413,52.9716908 L318.863386,52.9716908 C320.09095,52.9716908 321.075396,52.0427441 321.075396,50.9105403 C321.075396,49.8165816 320.155134,48.9121025 318.985103,48.8529821 L318.862982,48.8498371 L318.103895,48.8498371 L318.103895,47.8267853 C318.103895,46.2304905 316.71996,44.9249938 315.000361,44.9249938 C313.326927,44.9249938 311.972119,46.1607809 311.900044,47.6983449 L311.896884,47.8267853 L311.896884,48.8498371 L311.13735,48.8498371 C309.909844,48.8498371 308.925398,49.7787693 308.925398,50.9105403 C308.925398,52.0049319 309.845256,52.9090214 311.015228,52.9681418 L311.13735,52.9712868 L311.880323,52.9712868 C312.123369,52.9715754 312.324721,53.1599009 312.34124,53.4023985 C312.357744,53.6448385 312.18373,53.8587569 311.942978,53.8919526 L311.879976,53.8962806 L311.13774,53.8962806 C309.410321,53.8962806 308,52.5659411 308,50.9105403 C308,49.3426516 309.265708,48.0662822 310.867124,47.9362692 L310.971501,47.9291713 L310.971501,47.8267853 C310.971501,45.7534588 312.70332,44.0744415 314.85582,44.002366 L314.999971,44 L315.000361,44 Z" id="Fill-2"></path>
        </g>
    </g>
</svg>