<svg width="16" height="17" viewBox="0 0 16 17" fill="none" xmlns="http://www.w3.org/2000/svg">
<path d="M8.00016 15.1667C11.6821 15.1667 14.6668 12.1819 14.6668 8.50004C14.6668 4.81814 11.6821 1.83337 8.00016 1.83337C4.31826 1.83337 1.3335 4.81814 1.3335 8.50004C1.3335 12.1819 4.31826 15.1667 8.00016 15.1667Z" fill="#4CD263"/>
<path d="M5.00016 8.50004L7.00016 10.5L11.0002 6.50004M14.6668 8.50004C14.6668 12.1819 11.6821 15.1667 8.00016 15.1667C4.31826 15.1667 1.3335 12.1819 1.3335 8.50004C1.3335 4.81814 4.31826 1.83337 8.00016 1.83337C11.6821 1.83337 14.6668 4.81814 14.6668 8.50004Z" stroke="#4CD263" stroke-width="1.33333" stroke-linecap="round" stroke-linejoin="round"/>
<path d="M5 8.5L7 10.5L11 6.5" stroke="white" stroke-width="1.33333" stroke-linecap="round" stroke-linejoin="round"/>
</svg>
