<svg width="32" height="32" viewBox="0 0 32 32" fill="none" xmlns="http://www.w3.org/2000/svg">
<path d="M26 14H6M15 18H10M6 12.2L6 19.8C6 20.9201 6 21.4802 6.21799 21.908C6.40973 22.2843 6.71569 22.5903 7.09202 22.782C7.51984 23 8.07989 23 9.2 23L22.8 23C23.9201 23 24.4802 23 24.908 22.782C25.2843 22.5903 25.5903 22.2843 25.782 21.908C26 21.4802 26 20.9201 26 19.8V12.2C26 11.0799 26 10.5198 25.782 10.092C25.5903 9.7157 25.2843 9.40974 24.908 9.21799C24.4802 9 23.9201 9 22.8 9L9.2 9C8.0799 9 7.51984 9 7.09202 9.21799C6.7157 9.40973 6.40973 9.71569 6.21799 10.092C6 10.5198 6 11.0799 6 12.2Z" stroke="white" stroke-width="2" stroke-linecap="round" stroke-linejoin="round"/>
</svg>
