<svg width="32" height="32" viewBox="0 0 32 32" fill="none" xmlns="http://www.w3.org/2000/svg">
<path fill-rule="evenodd" clip-rule="evenodd" d="M11.9194 22.9263C11.0547 23.7555 9.71429 24.9167 9.71429 24.9167C5.55151 24.7949 5 21.6462 5 21.6462C5 16.0445 7.71231 9.32679 7.71231 9.32679C10.4246 7.44794 13.0051 7.50014 13.0051 7.50014L13.244 8.98428C13.244 8.98428 14.9593 8.81533 16 8.80625C17.0407 8.79717 18.5737 8.93777 18.5737 8.93777L18.9948 7.50026C18.9948 7.50026 21.5753 7.44794 24.2876 9.32691C24.2876 9.32691 27 16.0445 27 21.6462C27 21.6462 26.4484 24.7949 22.2857 24.9167C22.2857 24.9167 21.0341 23.7765 20.2066 22.9549C21.4703 22.5966 22.8768 22.1832 24 21.5L22.5 19.5C21.1119 20.3443 19.9588 20.9091 18.3604 21.1731C16.6662 21.4664 15.1092 21.3861 13.7732 21.156C12.1902 20.8734 10.8616 20.3802 9.5 19.5L8 21.5C9.11378 22.22 10.646 22.5736 11.9194 22.9263Z" stroke="white" stroke-width="2" stroke-linecap="round" stroke-linejoin="round"/>
<circle cx="12.3333" cy="15.7501" r="1.83333" fill="white"/>
<circle cx="19.6667" cy="15.7501" r="1.83333" fill="white"/>
</svg>
