<svg width="32" height="32" viewBox="0 0 32 32" fill="none" xmlns="http://www.w3.org/2000/svg">
<path d="M24.7914 17.1075C25.0355 16.8982 25.1575 16.7936 25.2023 16.6691C25.2415 16.5598 25.2415 16.4403 25.2023 16.331C25.1575 16.2065 25.0355 16.1019 24.7914 15.8926L16.3206 8.63202C15.9004 8.27182 15.6903 8.09172 15.5124 8.08731C15.3578 8.08348 15.2101 8.1514 15.1124 8.27128C15 8.40921 15 8.68595 15 9.23942V13.5347C12.8653 13.9081 10.9116 14.9898 9.45971 16.6139C7.87682 18.3846 7.00123 20.676 7 23.051V23.663C8.04934 22.3989 9.35951 21.3766 10.8408 20.666C12.1467 20.0395 13.5584 19.6684 15 19.5706V23.7607C15 24.3141 15 24.5909 15.1124 24.7288C15.2101 24.8487 15.3578 24.9166 15.5124 24.9128C15.6903 24.9084 15.9004 24.7283 16.3206 24.3681L24.7914 17.1075Z" stroke="white" stroke-width="2" stroke-linecap="round" stroke-linejoin="round"/>
</svg>
