<svg width="32" height="32" viewBox="0 0 32 32" fill="none" xmlns="http://www.w3.org/2000/svg">
<g clip-path="url(#clip0_14481_2477)">
<path d="M26.4 12.6697V20.3304C26.4 21.5848 25.7131 22.7497 24.6027 23.3881L17.8029 27.2296C16.6925 27.8568 15.3189 27.8568 14.197 27.2296L7.39722 23.3881C6.28682 22.7609 5.59998 21.596 5.59998 20.3304V12.6697C5.59998 11.4153 6.28682 10.2504 7.39722 9.61203L14.197 5.77045C15.3074 5.14325 16.6811 5.14325 17.8029 5.77045L24.6027 9.61203C25.7131 10.2504 26.4 11.4041 26.4 12.6697Z" stroke="white" stroke-width="2"/>
<path d="M16.0001 15.7C17.7674 15.7 19.2001 14.2673 19.2001 12.5C19.2001 10.7327 17.7674 9.30005 16.0001 9.30005C14.2327 9.30005 12.8 10.7327 12.8 12.5C12.8 14.2673 14.2327 15.7 16.0001 15.7Z" fill="white"/>
<path d="M20.073 22.9C21.3041 22.9 22.0184 21.3541 21.3345 20.2032C20.301 18.4682 18.2949 17.3 16 17.3C13.7051 17.3 11.699 18.4682 10.6656 20.2032C9.98168 21.3541 10.696 22.9 11.927 22.9H20.073Z" fill="white"/>
</g>
<defs>
<clipPath id="clip0_14481_2477">
<rect width="32" height="32" fill="white"/>
</clipPath>
</defs>
</svg>
