<svg width="24" height="25" viewBox="0 0 24 25" fill="none" xmlns="http://www.w3.org/2000/svg">
<path d="M12 9.50019L4.06386 14.6587C3.37601 15.1058 3.03209 15.3293 2.91297 15.6128C2.80888 15.8606 2.80888 16.1398 2.91297 16.3875M12 9.50019L19.9361 14.6587C20.624 15.1058 20.9679 15.3293 21.087 15.6128C21.1911 15.8606 21.1911 16.1398 21.087 16.3875M12 9.50019V3.00019M12 15.5002L4.06386 10.3417C3.37601 9.89459 3.03209 9.67104 2.91297 9.38755C2.80888 9.1398 2.80888 8.86057 2.91297 8.61282M12 15.5002L19.9361 10.3417C20.624 9.89459 20.9679 9.67104 21.087 9.38755C21.1911 9.1398 21.1911 8.86057 21.087 8.61282M12 15.5002V22.0002M21.272 16.4734L12.872 21.9334C12.5564 22.1386 12.3985 22.2411 12.2285 22.281C12.0782 22.3163 11.9218 22.3163 11.7715 22.281C11.6015 22.2411 11.4436 22.1386 11.128 21.9334L2.72802 16.4734C2.46201 16.3005 2.32901 16.214 2.23265 16.0987C2.14735 15.9966 2.08327 15.8786 2.04417 15.7514C2 15.6078 2 15.4491 2 15.1319V9.86848C2 9.55122 2 9.39259 2.04417 9.24895C2.08327 9.1218 2.14735 9.00372 2.23265 8.90165C2.32901 8.78633 2.46201 8.69988 2.72802 8.52697L11.128 3.06697C11.4436 2.86182 11.6015 2.75924 11.7715 2.71933C11.9218 2.68405 12.0782 2.68405 12.2285 2.71933C12.3985 2.75924 12.5564 2.86182 12.872 3.06697L21.272 8.52697C21.538 8.69988 21.671 8.78633 21.7674 8.90165C21.8527 9.00372 21.9167 9.1218 21.9558 9.24895C22 9.39259 22 9.55122 22 9.86848V15.1319C22 15.4491 22 15.6078 21.9558 15.7514C21.9167 15.8786 21.8527 15.9966 21.7674 16.0987C21.671 16.214 21.538 16.3005 21.272 16.4734Z" stroke="#0F172A" stroke-width="2" stroke-linecap="round" stroke-linejoin="round"/>
</svg>
