<svg width="40" height="40" viewBox="0 0 40 40" fill="none" xmlns="http://www.w3.org/2000/svg">
<rect x="0.5" y="0.5" width="39" height="39" rx="19.5" fill="#F3F4F8"/>
<rect x="0.5" y="0.5" width="39" height="39" rx="19.5" stroke="#CBD5E1"/>
<path d="M8.33337 16.2667C8.33337 14.3066 8.33337 13.3265 8.71485 12.5778C9.05041 11.9192 9.58584 11.3838 10.2444 11.0482C10.9931 10.6667 11.9732 10.6667 13.9334 10.6667H26.0667C28.0269 10.6667 29.007 10.6667 29.7557 11.0482C30.4142 11.3838 30.9497 11.9192 31.2852 12.5778C31.6667 13.3265 31.6667 14.3066 31.6667 16.2667V23.7334C31.6667 25.6936 31.6667 26.6737 31.2852 27.4224C30.9497 28.0809 30.4142 28.6164 29.7557 28.9519C29.007 29.3334 28.0269 29.3334 26.0667 29.3334H13.9334C11.9732 29.3334 10.9931 29.3334 10.2444 28.9519C9.58584 28.6164 9.05041 28.0809 8.71485 27.4224C8.33337 26.6737 8.33337 25.6936 8.33337 23.7334V16.2667Z" fill="#9E77EC"/>
<path fill-rule="evenodd" clip-rule="evenodd" d="M21.5767 22.0548C20.6846 22.8725 19.3154 22.8725 18.4233 22.0548L8.54614 13.0007C8.59185 12.8497 8.64737 12.7101 8.71481 12.5778C9.05037 11.9192 9.5858 11.3838 10.2444 11.0482C10.9931 10.6667 11.9731 10.6667 13.9333 10.6667H26.0667C28.0269 10.6667 29.0069 10.6667 29.7556 11.0482C30.4142 11.3838 30.9496 11.9192 31.2852 12.5778C31.3526 12.7101 31.4082 12.8497 31.4539 13.0007L21.5767 22.0548Z" fill="#6941C6"/>
</svg>
