<svg width="162" height="161" viewBox="0 0 162 161" fill="none" xmlns="http://www.w3.org/2000/svg">
<path opacity="0.2" d="M1.53356 159.82L1.27098 160.5H2H154H154.729L154.466 159.82C151.507 152.154 147.316 146.671 142.175 143.142C136.732 139.406 131.039 138.257 126.102 138.605L126.094 138.588L126.094 138.586C123.14 131.395 118.807 126.188 113.436 122.756L113.433 122.755L113.155 122.579L113.152 122.577C109.762 120.465 106.144 119.16 102.478 118.507C100.667 118.185 99.0084 118.046 97.5651 118.035L97.5635 118.035L97.4996 118.035C82.0817 106.226 65.1763 113.06 58.5036 118.035L58.4365 118.035L58.4348 118.035C56.9916 118.046 55.3331 118.185 53.5223 118.507C49.8562 119.16 46.2381 120.465 42.8478 122.577L42.8454 122.579L42.5668 122.755L42.5644 122.756C37.1926 126.188 32.8602 131.395 29.9062 138.586L29.9056 138.588L29.8984 138.605C24.961 138.257 19.2683 139.406 13.8253 143.142C8.68445 146.671 4.49315 152.154 1.53356 159.82Z" fill="#E2E8F0" stroke="#E2E8F0"/>
<path opacity="0.5" d="M23.5337 159.819L23.2702 160.5H24H132H132.73L132.466 159.819C130.355 154.368 127.361 150.458 123.679 147.938C119.821 145.298 115.785 144.467 112.271 144.693C110.163 139.617 107.079 135.931 103.255 133.496L103.253 133.494L103.055 133.37L103.053 133.368C100.627 131.861 98.0386 130.931 95.4171 130.466C94.1232 130.236 92.9372 130.137 91.9038 130.129C80.9158 121.772 68.887 126.593 64.0996 130.129L64.099 130.129L64.0974 130.129C63.0637 130.137 61.8773 130.236 60.5829 130.466C57.9614 130.931 55.3731 131.861 52.9475 133.368L52.9451 133.37L52.7471 133.494L52.7448 133.496C48.9209 135.931 45.837 139.617 43.7288 144.693C40.2146 144.467 36.1788 145.298 32.3209 147.938C28.6394 150.458 25.6451 154.368 23.5337 159.819Z" fill="#E2E8F0" stroke="#E2E8F0"/>
<path d="M41.5347 159.817L41.2659 160.5H42H113H113.734L113.465 159.817C112.067 156.262 110.078 153.701 107.623 152.048C105.098 150.346 102.455 149.79 100.139 149.912C98.7417 146.656 96.7095 144.278 94.192 142.699L94.1896 142.698L94.0595 142.617L94.0571 142.616C92.4428 141.629 90.721 141.02 88.9787 140.716C88.142 140.569 87.3722 140.504 86.6967 140.496C79.4347 135.096 71.5079 138.193 68.307 140.496C67.6305 140.504 66.8595 140.569 66.0213 140.716C64.279 141.02 62.5572 141.629 60.9429 142.616L60.9405 142.617L60.8104 142.698L60.808 142.699C58.2905 144.278 56.2583 146.656 54.8607 149.912C52.545 149.79 49.9024 150.346 47.3765 152.048C44.9221 153.701 42.9335 156.262 41.5347 159.817Z" fill="#E2E8F0" stroke="#E2E8F0"/>
<path d="M63.7496 108.076C63.2759 109.921 63.2595 111.673 63.3604 112.963C63.4116 113.617 63.4931 114.156 63.5624 114.533C63.5971 114.722 63.6288 114.871 63.6521 114.974C63.6637 115.025 63.6733 115.065 63.6802 115.093L63.6883 115.125L63.6907 115.135L63.6908 115.135L63.6914 115.137L63.6917 115.138L63.6918 115.139L66.3947 125.678L66.3947 125.678L66.3967 125.685C66.6812 126.728 68.1154 126.679 68.3933 125.699L70.2324 121.774C70.2881 121.943 70.3497 122.126 70.4168 122.321C70.786 123.392 71.3268 124.828 72.0115 126.276C72.6942 127.719 73.5306 129.199 74.4974 130.344C75.4534 131.477 76.6065 132.364 77.9329 132.452C79.2802 132.549 80.5318 131.714 81.5994 130.602C82.6842 129.473 83.6791 127.954 84.5186 126.452C85.3608 124.945 86.0598 123.431 86.5477 122.296C86.6529 122.052 86.7484 121.824 86.8334 121.618L88.4109 125.869C88.7494 126.858 90.203 126.777 90.4117 125.739L93.1608 115.362L93.1686 115.333L93.1727 115.303L92.6775 115.234C93.1727 115.303 93.1728 115.303 93.1728 115.303L93.1728 115.302L93.1729 115.301L93.1733 115.299L93.1745 115.29L93.1787 115.257C93.1822 115.229 93.1871 115.188 93.1929 115.135C93.2044 115.03 93.2196 114.877 93.2345 114.683C93.2645 114.295 93.2938 113.741 93.2922 113.069C93.289 111.726 93.1626 109.902 92.6653 107.989L92.568 107.615H92.1814H64.2496H63.7496V108.076Z" fill="#E2E8F0" stroke="#E2E8F0"/>
<path fill-rule="evenodd" clip-rule="evenodd" d="M66.3334 101.367C58.9659 88.1209 57.0062 76.6604 57.4527 67.2341L56.8326 67.2589C56.8326 67.2589 43.5365 85.2682 45.2481 101.367H66.3334Z" fill="#E2E8F0"/>
<path fill-rule="evenodd" clip-rule="evenodd" d="M98.7055 67.3333C99.0775 76.7349 97.0434 88.1705 89.7008 101.367H110.24C111.878 85.8884 99.6729 68.6728 98.7055 67.3333Z" fill="#E2E8F0"/>
<path fill-rule="evenodd" clip-rule="evenodd" d="M78.1163 30C74.3656 30 70.4547 32.8634 66.8215 37.8205C63.59 42.2296 60.7646 48.089 59.0468 53.8237C57.088 60.3629 56.2543 67.0806 56.8443 74.2932L56.8672 74.565C57.6056 83.0836 60.327 91.9245 65.3585 101.14L65.4988 101.396L62.5082 107.826C62.2787 108.319 62.6389 108.884 63.1829 108.884H92.876L92.9185 108.883C93.4386 108.854 93.7742 108.306 93.5507 107.826L90.5598 101.396L90.7039 101.135C95.7929 91.8251 98.5518 82.8885 99.3011 74.2972C99.9333 67.0482 99.1277 60.2918 97.1856 53.8232C95.4666 48.0975 92.6406 42.2393 89.4112 37.83L89.1928 37.5348C85.6199 32.7535 81.7911 30 78.1163 30Z" fill="#F1F5F9"/>
<path d="M78.4636 77.0364C79.5617 77.0364 80.452 76.1462 80.452 75.048C80.452 73.9499 79.5617 73.0596 78.4636 73.0596C77.3654 73.0596 76.4752 73.9499 76.4752 75.048C76.4752 76.1462 77.3654 77.0364 78.4636 77.0364Z" fill="#E2E8F0" stroke="#E2E8F0"/>
<path d="M83.8465 77.0364C84.9447 77.0364 85.8349 76.1462 85.8349 75.048C85.8349 73.9499 84.9447 73.0596 83.8465 73.0596C82.7484 73.0596 81.8582 73.9499 81.8582 75.048C81.8582 76.1462 82.7484 77.0364 83.8465 77.0364Z" fill="#E2E8F0" stroke="#E2E8F0"/>
<path d="M72.6589 77.0364C73.7571 77.0364 74.6473 76.1462 74.6473 75.048C74.6473 73.9499 73.7571 73.0596 72.6589 73.0596C71.5608 73.0596 70.6705 73.9499 70.6705 75.048C70.6705 76.1462 71.5608 77.0364 72.6589 77.0364Z" fill="#E2E8F0" stroke="#E2E8F0"/>
<path d="M78.1163 52.6442C73.9013 52.6442 70.5465 56.058 70.5465 60.2139C70.5465 64.3698 73.9013 67.7837 78.1163 67.7837C82.3312 67.7837 85.686 64.3698 85.686 60.2139C85.686 56.058 82.3312 52.6442 78.1163 52.6442Z" fill="#E2E8F0" stroke="#E2E8F0"/>
<path d="M92.226 43.5575L92.1327 43.3821L91.9445 43.3185C88.2393 42.0668 83.9743 40.9879 78.2351 40.7624L78.2348 40.7624C72.3633 40.5356 67.8766 41.8478 64.2403 43.2773L64.0706 43.344L63.9837 43.5042C62.3814 46.4584 61.1293 49.3884 60.1032 52.517L59.7354 53.6381L60.7967 53.1226C65.1047 51.0301 70.306 48.8337 78.3303 48.9805C85.9935 49.1279 91.2359 50.7962 95.2266 52.5834L96.2761 53.0534L95.9041 51.9654C94.9022 49.035 93.7004 46.3315 92.226 43.5575Z" fill="#E2E8F0" stroke="#E2E8F0"/>
<path d="M89.1843 101.784L89.1843 101.784L89.5377 101.852L89.7146 101.539C90.265 100.563 90.765 99.6129 91.2395 98.6639L91.4809 98.1811L90.9811 97.9773C88.3494 96.9042 84.6345 96.055 78.0915 96.1046C71.4734 96.055 67.7322 96.9292 65.0989 98.0285L64.6049 98.2347L64.8443 98.7135C65.3187 99.6623 65.8197 100.614 66.372 101.568L66.5502 101.876L66.8995 101.809L66.8995 101.809L66.8996 101.809L66.9002 101.809L66.903 101.808L66.9148 101.806L66.9628 101.797C67.0055 101.789 67.0692 101.777 67.1525 101.762C67.3191 101.732 67.564 101.689 67.8754 101.637C68.4984 101.534 69.3868 101.397 70.4464 101.262C72.5682 100.99 75.3651 100.727 78.087 100.751L78.087 100.751L78.0984 100.751C80.7695 100.714 83.5407 100.972 85.6501 101.24C86.7034 101.374 87.5887 101.51 88.21 101.613C88.5206 101.664 88.7651 101.707 88.9315 101.737C89.0147 101.752 89.0784 101.764 89.121 101.772L89.169 101.781L89.1808 101.783L89.1836 101.784L89.1842 101.784L89.1843 101.784Z" fill="#E2E8F0" stroke="#E2E8F0"/>
<path d="M104 153C104 151.895 104.895 151 106 151H132C133.105 151 134 151.895 134 153V158H104V153Z" fill="#FDA9FF"/>
<path d="M150.999 157.335C150.976 157.156 150.652 157.013 150.256 157.013L87.7444 157L87.7007 157.001C87.3101 157.011 87.0002 157.16 87.0002 157.342L87 160.987L151 161L151 157.355L150.999 157.335Z" fill="#FDA9FF"/>
<path d="M134.4 110C134.4 110 116.206 136.513 114.825 139.123C111.095 146.181 111.661 150.106 116.5 149.998C119.251 149.943 122.71 147.355 127.951 140.33" stroke="#735EA1" stroke-width="1.5" stroke-miterlimit="10"/>
<path d="M131.051 129.161C131.051 129.161 122.982 137.187 129.963 143.582C130.86 144.44 132.012 144.982 133.245 145.125C134.478 145.268 135.723 145.005 136.793 144.376" stroke="#735EA1" stroke-width="1.5" stroke-miterlimit="10"/>
<path d="M142.828 144.756C141.208 146.627 136.945 146.257 134.868 141.831C132.399 136.589 137.586 130.575 137.586 130.575" stroke="#735EA1" stroke-width="1.5" stroke-miterlimit="10"/>
<path d="M144.492 135.306C144.492 135.306 139.707 138.384 142.405 143.44C145.101 148.497 148.712 147.497 151.485 146.583C154.133 145.371 156.425 143.498 158.14 141.145C160.522 137.079 157.716 133.24 155.139 133.457" stroke="#735EA1" stroke-width="1.5" stroke-miterlimit="10"/>
<path d="M161 124.398C161 124.398 152.3 138.601 150.038 139.623C150.038 139.623 147.559 140.841 151.419 141.798" stroke="#735EA1" stroke-width="1.5" stroke-miterlimit="10"/>
</svg>
