<svg width="40" height="40" viewBox="0 0 40 40" fill="none" xmlns="http://www.w3.org/2000/svg">
<rect x="0.5" y="0.5" width="39" height="39" rx="19.5" fill="#F3F4F8"/>
<rect x="0.5" y="0.5" width="39" height="39" rx="19.5" stroke="#CBD5E1"/>
<g clip-path="url(#clip0_13867_39813)">
<path d="M22 19.0002C21.5705 18.4261 21.0226 17.951 20.3934 17.6073C19.7642 17.2635 19.0684 17.0591 18.3533 17.0079C17.6382 16.9567 16.9204 17.0599 16.2486 17.3104C15.5769 17.561 14.9668 17.9532 14.46 18.4602L11.46 21.4602C10.5492 22.4032 10.0452 23.6662 10.0566 24.9772C10.068 26.2882 10.5938 27.5423 11.5209 28.4693C12.4479 29.3964 13.702 29.9222 15.0129 29.9336C16.3239 29.945 17.5869 29.441 18.53 28.5302L20.24 26.8202" stroke="#5865F2" stroke-width="3" stroke-linecap="round" stroke-linejoin="round"/>
<path d="M18 21C18.4295 21.5741 18.9774 22.0491 19.6065 22.3929C20.2357 22.7367 20.9315 22.9411 21.6466 22.9923C22.3618 23.0435 23.0796 22.9403 23.7513 22.6897C24.4231 22.4392 25.0331 22.047 25.54 21.54L28.54 18.54C29.4508 17.597 29.9548 16.3339 29.9434 15.023C29.932 13.712 29.4061 12.4579 28.4791 11.5309C27.5521 10.6038 26.298 10.078 24.987 10.0666C23.676 10.0552 22.413 10.5592 21.47 11.47L19.75 13.18" stroke="#039CFF" stroke-width="3" stroke-linecap="round" stroke-linejoin="round"/>
</g>
<defs>
<clipPath id="clip0_13867_39813">
<rect width="24" height="24" fill="white" transform="translate(8 8)"/>
</clipPath>
</defs>
</svg>
