<svg width="24" height="25" viewBox="0 0 24 25" fill="none" xmlns="http://www.w3.org/2000/svg">
<g clip-path="url(#clip0_13798_21846)">
<path d="M7 10.0001L2 12.5001L11 17M17 10.0001L22 12.5001L21.3974 12.8014M7 15.0001L2 17.5001L11.6422 22.3212C11.7734 22.3868 11.839 22.4196 11.9078 22.4325M2 7.50006L11.6422 2.67895C11.7734 2.61336 11.839 2.58056 11.9078 2.56766C11.9687 2.55622 12.0313 2.55622 12.0922 2.56766C12.161 2.58056 12.2266 2.61336 12.3578 2.67895L22 7.50006L12.3578 12.3212C12.2266 12.3868 12.161 12.4196 12.0922 12.4325C12.0313 12.4439 11.9687 12.4439 11.9078 12.4325C11.839 12.4196 11.7734 12.3868 11.6422 12.3212L2 7.50006Z" stroke="#0F172A" stroke-width="2" stroke-linecap="round" stroke-linejoin="round"/>
<path d="M14.1007 18.7506L14.1007 18.7505L15.6733 16.0307C15.8389 15.7855 15.9364 15.6428 16.0154 15.5431C16.0257 15.5301 16.0347 15.5192 16.0424 15.5101C16.1417 15.501 16.2835 15.5 16.56 15.5L19.445 15.5C19.7187 15.5 19.8593 15.501 19.9576 15.5099C19.9653 15.519 19.9742 15.5299 19.9845 15.5428C20.0636 15.6427 20.1612 15.7855 20.3267 16.0307L21.8993 18.7505L21.8993 18.7506C21.9105 18.77 21.945 18.8589 21.945 19.0019C21.945 19.066 21.9378 19.1246 21.9266 19.1718C21.9212 19.1949 21.9154 19.2129 21.9104 19.2259C21.9054 19.239 21.902 19.2448 21.902 19.2448L21.902 19.2448L21.8993 19.2495L20.3267 21.9693C20.1612 22.2145 20.0636 22.3573 19.9845 22.4572C19.9742 22.4701 19.9653 22.481 19.9576 22.4901C19.8593 22.499 19.7187 22.5 19.445 22.5L16.555 22.5C16.2813 22.5 16.1407 22.499 16.0425 22.4901C16.0348 22.481 16.0258 22.4701 16.0156 22.4572C15.9364 22.3573 15.8388 22.2145 15.6733 21.9693L14.1007 19.2495L14.1007 19.2495L14.098 19.2448C14.098 19.2448 14.0946 19.239 14.0896 19.2259C14.0846 19.2129 14.0788 19.1949 14.0734 19.1718C14.0623 19.1246 14.055 19.066 14.055 19.0019C14.055 18.8589 14.0895 18.77 14.1007 18.7506Z" stroke="#0F172A" stroke-width="2" stroke-linecap="round" stroke-linejoin="round"/>
<path d="M16.5 19C16.5 19.8284 17.1716 20.5 18 20.5C18.8284 20.5 19.5 19.8284 19.5 19C19.5 18.1716 18.8284 17.5 18 17.5C17.1716 17.5 16.5 18.1716 16.5 19Z" fill="#0F172A"/>
</g>
<defs>
<clipPath id="clip0_13798_21846">
<rect width="24" height="24" fill="white" transform="translate(0 0.5)"/>
</clipPath>
</defs>
</svg>
