<svg width="160" height="160" viewBox="0 0 160 160" fill="none" xmlns="http://www.w3.org/2000/svg">
<g clip-path="url(#clip0_13307_27)">
<path d="M23 154H132.78C134.997 154 136.791 152.2 136.782 149.983C136.626 114.811 136.608 40.2897 136.607 15.3383C136.607 10.7028 140.364 7 145 7H27C22.5817 7 19 10.5817 19 15V150C19 152.209 20.7909 154 23 154Z" fill="#E2E8F0"/>
<path d="M38.1416 48.5026H122.494V50.4807H38.1416V48.5026ZM38.1416 61.966H122.494V63.9441H38.1416V61.966ZM38.1416 75.449H122.494V77.4279H38.1416V75.449ZM38.1416 122.642H122.494V124.62H38.1416V122.642ZM38.1416 136.125H122.494V138.104H38.1416V136.125ZM38.1416 89.1547H122.494V91.1328H38.1416V89.1547ZM91.8336 104.641H122.494V106.638H91.8336V104.641Z" fill="white"/>
<path d="M47.5688 39.4196C52.6186 39.4196 56.713 35.3253 56.713 30.2755C56.713 25.2257 52.6186 21.1321 47.5688 21.1321C42.519 21.1321 38.4254 25.2257 38.4254 30.2755C38.4254 35.3253 42.519 39.4196 47.5688 39.4196Z" fill="#039CFF"/>
<path d="M130 32C130 32 130.121 14.4613 130.121 9.99599C130.121 5.52986 132.148 1 138.003 1C143.859 1 147 4.64582 147 10.3404V23.2847" stroke="black" stroke-miterlimit="10"/>
<path d="M42.4918 62.6415L2.20276 91.5268L82.0345 91.486L42.4918 62.6415Z" fill="#FDA9FF"/>
<path d="M81.408 83.8989H2.1416V137.854H81.408V83.8989Z" fill="#F1F5F9"/>
<path d="M2.20276 91.526V140.936C2.20276 143.145 3.99362 144.936 6.20276 144.936H77.9741C80.1832 144.936 81.9741 143.145 81.9741 140.936V91.1833L41.402 118.392L2.20276 91.526Z" fill="#FDA9FF"/>
<path d="M10.6594 138.8L42.2896 107.371L76.7651 139.405L10.6594 138.8Z" fill="#FDA9FF"/>
<path d="M16.6555 132.684L42.1295 106.423L68.2887 132.926" stroke="#735EA1" stroke-width="2" stroke-miterlimit="10"/>
<path d="M30.845 102.689C31.8568 102.689 32.8272 102.287 33.5427 101.572C34.2581 100.856 34.6601 99.8858 34.6601 98.8739C34.6601 97.8621 34.2581 96.8917 33.5427 96.1763C32.8272 95.4608 31.8568 95.0588 30.845 95.0588C29.8332 95.0588 28.8628 95.4608 28.1473 96.1763C27.4319 96.8917 27.0299 97.8621 27.0299 98.8739C27.0299 99.8858 27.4319 100.856 28.1473 101.572C28.8628 102.287 29.8332 102.689 30.845 102.689ZM44.1469 102.689C45.1587 102.689 46.1291 102.287 46.8446 101.572C47.56 100.856 47.962 99.8858 47.962 98.8739C47.962 97.8621 47.56 96.8917 46.8446 96.1763C46.1291 95.4608 45.1587 95.0588 44.1469 95.0588C43.1351 95.0588 42.1647 95.4608 41.4492 96.1763C40.7337 96.8917 40.3318 97.8621 40.3318 98.8739C40.3318 99.8858 40.7337 100.856 41.4492 101.572C42.1647 102.287 43.1351 102.689 44.1469 102.689ZM57.1469 102.689C58.1587 102.689 59.1291 102.287 59.8446 101.572C60.56 100.856 60.962 99.8858 60.962 98.8739C60.962 97.8621 60.56 96.8917 59.8446 96.1763C59.1291 95.4608 58.1587 95.0588 57.1469 95.0588C56.1351 95.0588 55.1647 95.4608 54.4492 96.1763C53.7337 96.8917 53.3318 97.8621 53.3318 98.8739C53.3318 99.8858 53.7337 100.856 54.4492 101.572C55.1647 102.287 56.1351 102.689 57.1469 102.689Z" fill="#E2E8F0"/>
<path d="M123.979 159.731L123.979 137.091C114.367 139.681 108.619 134.329 107.101 129.428C105.727 124.955 109.642 123.028 112.427 124.886C114.28 126.122 122.127 130.927 122.525 124.886C123.292 113.244 111.687 125.284 108.2 119.984C101.525 109.838 133.114 99.6365 131.655 121.223C131.523 123.167 128.832 123.619 128.706 120.581C128.157 107.25 120.67 91.5944 128.157 90.2473C135.259 88.9695 137.227 118.677 137.227 118.677C137.227 118.677 135.501 100.056 136.095 95.9063C136.689 91.7568 141.063 90.8145 142.675 96.5459C144.346 102.535 145.272 117.596 145.272 117.596C145.272 117.596 145.319 103.401 145.823 99.6365C146.327 95.8722 149.489 95.0168 152.09 99.028C155.236 107.287 153.981 159.731 153.981 159.731" stroke="#735EA1" stroke-width="2" stroke-miterlimit="10" stroke-linejoin="round"/>
</g>
<defs>
<clipPath id="clip0_13307_27">
<rect width="160" height="160" fill="white"/>
</clipPath>
</defs>
</svg>
