<?xml version="1.0" encoding="UTF-8"?>
<svg width="24px" height="24px" viewBox="0 0 24 24" version="1.1" xmlns="http://www.w3.org/2000/svg" xmlns:xlink="http://www.w3.org/1999/xlink">
    <title>phantom</title>
    <g id="页面-1" stroke="none" stroke-width="1" fill="none" fill-rule="evenodd">
        <g id="落地登陆页-3" transform="translate(-883.000000, -475.000000)">
            <g id="phantom" transform="translate(883.000000, 475.000000)">
                <g id="编组-5" transform="translate(1.000000, 1.000000)">
                    <circle id="椭圆形" fill="#FC814A" cx="11" cy="11" r="11"></circle>
                    <path d="M11.1596521,18.5137264 C15.0256453,18.5137264 18.1596521,15.3797197 18.1596521,11.5137264 C18.1596521,9.67990978 17.4555938,8.73768896 16.829505,7.41792753 C16.6003603,6.93490273 16.903758,6.18726012 16.6880445,5.62618208 C16.5177849,5.18333102 15.8613663,4.87392309 15.4896575,4.78355638 C15.4276898,4.76849132 15.3637223,4.77288088 15.2978826,4.79276141 C14.743992,4.96001056 14.0575958,6.22361293 13.3146405,6.22361293 C12.6143329,6.22361293 10.790485,6.25226527 9.82369766,6.08630757 C9.33306219,6.0020856 8.17643492,4.6390572 7.3817441,4.12009967 C7.15481095,3.97190535 6.8414673,3.97374933 6.72396234,3.99411095 C6.28159441,4.07076584 5.72120996,4.49800849 5.60236115,4.92737627 C5.4332172,5.53844646 5.87219118,6.40270024 5.48826574,6.87611665 C4.5125811,8.07922816 4.15965206,9.84401859 4.15965206,11.5137264 C4.15965206,15.3797197 7.29365881,18.5137264 11.1596521,18.5137264 Z" id="椭圆形" stroke="#000000" stroke-width="0.3" fill="#FFFFFF"></path>
                    <path d="M4.56003378,8.80284256 L18.0600338,8.80284256 L18.0600338,9.80284256 C17.3688907,10.5678119 16.865427,10.9545616 16.5496426,10.9630916 C15.4878396,10.9917731 14.6257464,9.91513257 14.1116195,10.025915 C13.5653322,10.1436271 13.3010585,10.7195051 12.8552291,10.9630916 C12.2857098,11.2742581 11.5625358,11.2489874 11.1118225,11.2489874 C10.4937581,11.2489874 9.54512898,11.0639663 8.72475834,10.6359126 C8.4500061,10.4925521 8.18179499,10.2237037 7.95173426,10.025915 C7.81893039,9.91174027 7.75272641,9.80284256 7.56647577,9.80284256 C6.96453742,9.80284256 5.89519441,9.80284256 4.35844676,9.80284256 L4.56003378,8.80284256 Z" id="矩形" fill="#000000"></path>
                    <path d="M14.4283482,12.457355 C14.7044906,12.457355 14.9283482,12.3573744 14.9283482,12.081232 C14.9283482,11.8050896 14.7044906,11.7438047 14.4283482,11.7438047 C14.1522059,11.7438047 13.9283482,11.8050896 13.9283482,12.081232 C13.9283482,12.3573744 14.1522059,12.457355 14.4283482,12.457355 Z" id="椭圆形" stroke="#000000" stroke-width="0.3"></path>
                    <path d="M7.65131298,12.4045379 C8.51763893,13.6476447 9.26969686,14.4232888 9.90748675,14.7314703 C12.1829129,15.830961 14.8059999,15.5017731 15.9478169,14.5208815 C16.3244597,14.1973219 16.5815366,13.7557544 16.8358331,13.22238 C16.9196158,13.0466501 16.9025099,12.7638709 17.0224326,12.6005799" id="路径-3" stroke="#000000" stroke-width="0.3"></path>
                    <line x1="14.5289316" y1="13.309976" x2="14.5289316" y2="15.1172875" id="直线" stroke="#000000" stroke-width="0.3" stroke-linecap="square"></line>
                </g>
            </g>
        </g>
    </g>
</svg>