<?xml version="1.0" encoding="UTF-8"?>
<svg width="24px" height="24px" viewBox="0 0 24 24" version="1.1" xmlns="http://www.w3.org/2000/svg" xmlns:xlink="http://www.w3.org/1999/xlink">
    <title>fox(2)</title>
    <g id="Overview" stroke="none" stroke-width="1" fill="none" fill-rule="evenodd">
        <g id="Login" transform="translate(-878.000000, -338.000000)" fill-rule="nonzero">
            <g id="fox(2)" transform="translate(878.000000, 338.000000)">
                <polygon id="path" fill="#E17726" points="21.4402116 2 13.0380953 8.21375662 14.6 4.55238096"></polygon>
                <polygon id="path" fill="#E27625" points="2.06243387 2 10.3883598 8.2941799 8.90264551 4.55238096"></polygon>
                <polygon id="path" fill="#E27625" points="18.4179894 16.4126984 16.1830688 19.8285714 20.9661376 21.1449736 22.3375662 16.4888889"></polygon>
                <polygon id="path" fill="#E27625" points="1.17354498 16.4888889 2.53650795 21.1449736 7.31534393 19.8285714 5.08465609 16.4126984"></polygon>
                <polygon id="path" fill="#E27625" points="7.05714287 10.6433863 5.72804234 12.6497355 10.4645503 12.8656085 10.3037037 7.7862434"></polygon>
                <polygon id="path" fill="#E27625" points="16.4455027 10.6433862 13.1481482 7.71005291 13.0380953 12.8656085 17.7746032 12.6497355"></polygon>
                <polygon id="path" fill="#E27625" points="7.31534393 19.8285714 10.1809524 18.4529101 7.71746033 16.5185185"></polygon>
                <polygon id="path" fill="#E27625" points="13.3216931 18.4529101 16.1830688 19.8285714 15.7936508 16.5185185"></polygon>
                <polygon id="path" fill="#D5BFB2" points="16.1830688 19.8285714 13.3216931 18.4529101 13.5544974 20.3068783 13.5291005 21.0941799"></polygon>
                <polygon id="path" fill="#D5BFB2" points="7.31534393 19.8285714 9.97354498 21.0984127 9.97354498 20.3111111 10.1809524 18.4529101"></polygon>
                <polygon id="path" fill="#233447" points="10.0243386 15.2952381 7.64550266 14.5968254 9.33862436 13.826455"></polygon>
                <polygon id="path" fill="#233447" points="13.4783069 15.2952381 14.1767196 13.826455 15.8698413 14.5968254"></polygon>
                <polygon id="path" fill="#CC6228" points="7.31534393 19.8285714 7.73862436 16.4126984 5.09735451 16.4846561"></polygon>
                <polygon id="path" fill="#CC6228" points="15.7597884 16.4126984 16.1830688 19.8285714 18.4179894 16.4846561"></polygon>
                <polygon id="path" fill="#CC6228" points="17.7746032 12.6497355 13.0380953 12.8656085 13.4613757 15.2952381 14.1597884 13.826455 15.8529101 14.5968254"></polygon>
                <polygon id="path" fill="#CC6228" points="7.64550266 14.5968254 9.33862436 13.826455 10.0370371 15.2952381 10.4603175 12.8656085 5.72804234 12.6497355"></polygon>
                <polygon id="path" fill="#E27525" points="5.72804234 12.6497355 7.71746033 16.5227513 7.64973547 14.5968254"></polygon>
                <polygon id="path" fill="#E27525" points="15.8656085 14.5968254 15.789418 16.5227513 17.7746032 12.6497355"></polygon>
                <polygon id="path" fill="#E27525" points="10.4645503 12.8656085 10.0412698 15.2910053 10.5957672 18.1608466 10.7227513 14.3809524"></polygon>
                <polygon id="path" fill="#E27525" points="13.0380953 12.8656085 12.7968254 14.3724868 12.9153439 18.1820106 13.4698413 15.3164021"></polygon>
                <polygon id="path" fill="#F5841F" points="13.4783069 15.2952381 12.9238095 18.1608466 13.3216931 18.4444445 15.789418 16.5185185 15.8656085 14.5968254"></polygon>
                <polygon id="path" fill="#F5841F" points="7.64550266 14.6010582 7.71746033 16.5227513 10.1809524 18.4529101 10.578836 18.1693122 10.0243386 15.3037037"></polygon>
                <polygon id="path" fill="#C0AC9D" points="13.5291005 21.0857143 13.5544974 20.2984127 13.3386244 20.1164021 10.1640212 20.1164021 9.95661377 20.2984127 9.95661377 21.0857143 7.29841271 19.815873 8.22962965 20.5777778 10.1132275 21.8772487 13.34709 21.8772487 15.2433863 20.5777778 16.1830688 19.8285714"></polygon>
                <polygon id="path" fill="#161616" points="13.3216931 18.4529101 12.9238095 18.1693122 10.578836 18.1693122 10.1809524 18.4529101 9.95238096 20.3068783 10.1640212 20.1248677 13.3386244 20.1248677 13.5587302 20.3068783"></polygon>
                <polygon id="path" fill="#763E1A" points="21.8 8.62010582 22.5026455 5.1873016 21.4402116 2 13.3216931 8.00634922 16.4455027 10.6433863 20.8603175 11.9132275 21.8338624 10.778836 21.410582 10.4740741 22.0835979 9.86031746 21.5671958 9.46243387 22.2402116 8.94603176"></polygon>
                <polygon id="path" fill="#763E1A" points="1 5.1873016 1.71111111 8.62010582 1.25396826 8.95873018 1.93544975 9.47089947 1.42328043 9.87301588 2.09629631 10.4825397 1.67301588 10.7915344 2.63809525 11.9259259 7.04867727 10.6560847 10.1724868 8.01904764 2.06243387 2"></polygon>
                <polygon id="path" fill="#F5841F" points="20.8603175 11.9259259 16.4455027 10.6560847 17.7746032 12.6624339 15.789418 16.5312169 18.4137566 16.5015873 22.3417989 16.5015873"></polygon>
                <polygon id="path" fill="#F5841F" points="7.05714287 10.6433862 2.63809525 11.9259259 1.17354498 16.4888889 5.08465609 16.4888889 7.70899473 16.5185185 5.72380953 12.6497355"></polygon>
                <polygon id="path" fill="#F5841F" points="13.0380953 12.8656085 13.3216931 8.00634922 14.5915344 4.55238096 8.90264551 4.55238096 10.1724868 8.00634922 10.4560847 12.8656085 10.5619048 14.389418 10.5619048 18.1608466 12.9238095 18.1608466 12.9238095 14.389418"></polygon>
            </g>
        </g>
    </g>
</svg>