<?xml version="1.0" encoding="UTF-8"?>
<svg width="24px" height="24px" viewBox="0 0 24 24" version="1.1" xmlns="http://www.w3.org/2000/svg" xmlns:xlink="http://www.w3.org/1999/xlink">
    <title>编组 5</title>
    <g id="页面-1" stroke="none" stroke-width="1" fill="none" fill-rule="evenodd">
        <g id="登陆" transform="translate(-945.000000, -368.000000)" fill="#FF6261">
            <g id="编组-5" transform="translate(945.000000, 368.000000)">
                <path d="M19,2 C20.6568542,2 22,3.34314575 22,5 L22,19 C22,20.6568542 20.6568542,22 19,22 L5,22 C3.34314575,22 2,20.6568542 2,19 L2,5 C2,3.34314575 3.34314575,2 5,2 L19,2 Z M11.5034347,6.12698413 L7.7540174,7.7512168 L7.7540174,14.9459704 C8.27121781,16.8675727 9.52102356,17.8856325 11.5034347,18.0001496 L11.5034347,18.0001496 L11.5034347,6.12698413 Z M12.2391139,6.12698413 L12.2391139,13.2728049 C14.3867856,13.1295293 15.6571579,12.027518 16.050231,9.96677131 L16.050231,9.96677131 L16.050231,7.63906993 L12.2391139,6.12698413 Z" id="形状结合"></path>
            </g>
        </g>
    </g>
</svg>