<?xml version="1.0" encoding="UTF-8"?>
<svg width="24px" height="24px" viewBox="0 0 24 24" version="1.1" xmlns="http://www.w3.org/2000/svg" xmlns:xlink="http://www.w3.org/1999/xlink">
    <title>phantom</title>
    <g id="Overview" stroke="none" stroke-width="1" fill="none" fill-rule="evenodd">
        <g id="Login" transform="translate(-878.000000, -480.000000)" fill-rule="nonzero">
            <g id="phantom" transform="translate(878.000000, 480.000000)">
                <path d="M8.43578183,2 L15.5642182,2 C19.8547394,2 22,4.14525522 22,8.43576567 L22,15.5642105 C22,19.8547368 19.8547394,22 15.5642182,22 L8.43578183,22 C4.14526061,22 2,19.8547368 2,15.5642105 L2,8.43576567 C2,4.14525522 4.14526061,2 8.43578183,2 Z" id="path" fill="#543EC5"></path>
                <path d="M20.0587947,12.4103044 L18.2673013,12.4103044 C18.2673013,8.86986791 15.2974106,6 11.6334145,6 C8.01499802,6 5.07303171,8.79969643 5.00117183,12.2795271 C4.92664342,15.8763641 8.41878097,19 12.1417708,19 L12.6101466,19 C15.8920892,19 20.2915054,16.517011 20.9786774,13.4921743 C21.1055044,12.9344763 20.6497088,12.4105585 20.0587947,12.4105585 L20.0587947,12.4103044 Z M8.97135866,12.5681151 C8.97135866,13.0413162 8.57053016,13.4287266 8.08042482,13.4287266 C7.59058157,13.4287266 7.18975307,13.0413162 7.18975307,12.5681151 L7.18975307,11.1755451 C7.18975307,10.702344 7.59058157,10.3149567 8.08042482,10.3149567 C8.57053016,10.3149567 8.97135866,10.7023671 8.97135866,11.1755682 L8.97135866,12.5681382 L8.97135866,12.5681151 Z M12.064002,12.5681151 C12.064002,13.0413162 11.6634594,13.4287266 11.1733541,13.4287266 C10.6835108,13.4287266 10.2826823,13.0413162 10.2826823,12.5681151 L10.2826823,11.1755451 C10.2826823,10.702344 10.6835108,10.3149567 11.1733541,10.3149567 C11.6634594,10.3149567 12.064002,10.7023671 12.064002,11.1755682 L12.064002,12.5681382 L12.064002,12.5681151 Z" id="shape" fill="#FFFFFF"></path>
            </g>
        </g>
    </g>
</svg>