<svg width="36" height="36" viewBox="0 0 36 36" fill="none" xmlns="http://www.w3.org/2000/svg">
<rect width="36" height="36" rx="12" fill="#2CA5E0"/>
<rect x="8" y="8" width="20" height="20" rx="10" fill="white"/>
<path d="M24.9927 12.621C25.0238 12.4345 24.9538 12.2455 24.8088 12.1242C24.6638 12.0029 24.4653 11.9675 24.2873 12.0311L9.35396 17.3644C9.15276 17.4363 9.01385 17.6213 9.00097 17.8345C8.9881 18.0478 9.10373 18.2481 9.29482 18.3437L13.5615 20.477C13.7327 20.5626 13.9366 20.5499 14.0958 20.4438L17.6376 18.0826L15.5169 20.7335C15.4235 20.8502 15.3834 21.0008 15.4063 21.1485C15.4292 21.2962 15.5131 21.4275 15.6375 21.5104L19.3708 25.7771C19.5214 25.8775 19.7126 25.8947 19.8787 25.8227C20.0447 25.7508 20.163 25.5995 20.1927 25.421L24.9927 12.621Z" fill="#2CA5E0"/>
</svg>
