<?xml version="1.0" encoding="UTF-8"?>
<svg width="100px" height="100px" viewBox="0 0 100 100" version="1.1" xmlns="http://www.w3.org/2000/svg" xmlns:xlink="http://www.w3.org/1999/xlink">
    <title>group</title>
    <desc>Created with Sketch.</desc>
    <defs>
        <polygon id="path-1" points="0 0 100 0 100 100.000052 0 100.000052"></polygon>
    </defs>
    <g id="page-1" stroke="none" stroke-width="1" fill="none" fill-rule="evenodd">
        <g id="Pricing" transform="translate(-462.000000, -1241.000000)">
            <g id="group" transform="translate(462.000000, 1241.000000)">
                <path d="M34.7189525,46.6168278 L34.7189525,52.8476379 L68.687824,52.8476379 C68.8434511,51.8102973 68.9251683,50.7099772 68.9178815,49.541993 C68.9116355,48.5395254 68.8262749,47.5646438 68.6654428,46.6168278 L34.7189525,46.6168278 Z" id="Fill-1" fill="#EFB345"></path>
                <path d="M34.7189525,68.3117685 L52.3719603,68.3117685 C54.6938752,68.3117685 56.9762328,67.7095592 58.9868935,66.547821 C61.6872061,64.9873859 65.0678019,62.3146593 67.1070897,58.05235 L34.7189525,58.05235 L34.7189525,68.3117685 Z" id="Fill-3" fill="#EFB345"></path>
                <path d="M61.9949731,35.7182452 C60.6963455,34.6574824 59.3857465,33.8189697 58.242746,33.1808465 C56.4642248,32.1877477 54.4540845,31.6880754 52.4168787,31.6880754 L34.7191087,31.6880754 L34.7191087,41.4119075 L66.8464793,41.4119075 C65.7003559,39.3283779 64.0852691,37.4249385 61.9949731,35.7182452" id="Fill-5" fill="#EFB345"></path>
                <g>
                    <mask id="mask-2" fill="white">
                        <use xlink:href="#path-1"></use>
                    </mask>
                    <g id="Clip-8"></g>
                    <path d="M78.2918388,46.6168278 L73.9290746,46.6168278 C74.0472263,47.5433036 74.1169723,48.5056934 74.1226977,49.5097225 C74.1299846,50.6698993 74.0571157,51.7785473 73.9280336,52.8476379 L78.2918388,52.8476379 L78.2918388,58.0525582 L72.7111233,58.0525582 C69.4221341,67.2179024 61.1520362,72.014757 56.2755464,73.415401 L55.9231733,73.516897 L29.5139281,73.516897 L29.5139281,58.0525582 L23.1196835,58.0525582 L23.1196835,52.8476379 L29.5139281,52.8476379 L29.5139281,46.6168278 L23.1196835,46.6168278 L23.1196835,41.4119075 L29.5139281,41.4119075 L29.5139281,26.4831551 L55.9720995,26.4831551 L56.367153,26.6127576 C56.9579115,26.8058601 68.4285148,30.701743 72.6101478,41.4119075 L78.2918388,41.4119075 L78.2918388,46.6168278 Z M49.999974,0 C22.3857897,0 -5.20492032e-05,22.3858418 -5.20492032e-05,50.000026 C-5.20492032e-05,77.6147308 22.3857897,100.000052 49.999974,100.000052 C77.6141582,100.000052 100,77.6147308 100,50.000026 C100,22.3858418 77.6141582,0 49.999974,0 L49.999974,0 Z" id="Fill-7" fill="#EFB345" mask="url(#mask-2)"></path>
                </g>
            </g>
        </g>
    </g>
</svg>