<?xml version="1.0" encoding="UTF-8"?>
<svg width="100px" height="100px" viewBox="0 0 100 100" version="1.1" xmlns="http://www.w3.org/2000/svg" xmlns:xlink="http://www.w3.org/1999/xlink">
    <!-- Generator: Sketch 59.1 (86144) - https://sketch.com -->
    <title>USDC</title>
    <desc>Created with Sketch.</desc>
    <defs>
        <polygon id="path-1" points="0 0 99.9926758 0 99.9926758 100 0 100"></polygon>
    </defs>
    <g id="page-1" stroke="none" stroke-width="1" fill="none" fill-rule="evenodd">
        <g id="Pricing" transform="translate(-671.000000, -1239.000000)">
            <g id="USDC" transform="translate(671.000000, 1239.000000)">
                <g id="group">
                    <mask id="mask-2" fill="white">
                        <use xlink:href="#path-1"></use>
                    </mask>
                    <g id="Clip-2"></g>
                    <path d="M-0.00732422769,50.0003052 C-0.00732422769,77.5938447 22.3988311,100 49.9929809,100 C77.5865205,100 99.9926758,77.5938447 99.9926758,50.0003052 C99.9926758,22.4061553 77.5865205,0 49.9929809,0 C22.3988311,0 -0.00732422769,22.4061553 -0.00732422769,50.0003052 Z" id="Fill-1" fill="#2775C9" mask="url(#mask-2)"></path>
                </g>
                <path d="M46.9926111,31.4374163 L46.9926111,28.2970316 C46.9926111,26.6251546 48.3206156,25.2966617 49.9929809,25.2966617 C51.6647359,25.2966617 52.9927405,26.6251546 52.9927405,28.2970316 L52.9927405,31.4064104 C58.430125,32.2032864 62.1332546,35.3126652 63.1331337,39.7029293 C63.336259,40.6719246 62.7741245,41.6093037 61.8051292,41.8439231 C61.664504,41.874929 61.5395038,41.874929 61.3988787,41.874929 L59.7586179,41.874929 C58.4616192,41.874929 57.2584927,41.1096693 56.69587,39.9375488 C55.6643746,37.7345431 53.1958657,36.4690387 49.9304809,36.4690387 C45.8363597,36.4690387 43.1021034,38.468919 43.1021034,41.4686786 C43.1021034,43.8752977 44.9303527,45.2656803 49.367736,46.3281816 L53.5396161,47.2970548 C60.8677501,48.9688098 63.9771289,52.0000635 63.9771289,57.3908171 C63.9771289,63.3593303 59.8052488,67.3904631 52.9769934,68.3594584 L52.9769934,71.9533349 C52.9769934,73.6252119 51.6489888,74.9532165 49.9772339,74.9532165 C48.3053568,74.9532165 46.9769861,73.6252119 46.9769861,71.9533349 L46.9769861,68.3909526 C40.9143566,67.6560884 36.8049766,64.4532037 35.8833446,59.5626948 C35.7115914,58.7654526 36.2428421,57.9686987 37.0553431,57.8280735 C37.1488491,57.7970676 37.2584683,57.7970676 37.3519743,57.7970676 L39.8209715,57.7970676 C40.9143566,57.7970676 41.9615991,58.4374493 42.4146026,59.4373284 C43.5551069,61.8439476 46.4457354,63.2968302 50.0863649,63.2968302 C54.4456231,63.2968302 57.4926239,61.1248305 57.4926239,58.125071 C57.4926239,55.5310736 55.6334908,54.031438 51.0863661,52.9218175 L46.3832353,51.8279441 C39.7113522,50.2968143 36.5552204,47.0939296 36.5552204,41.9221703 C36.5552204,36.4060503 40.7584726,32.4064116 46.9926111,31.4374163 Z M12.4924469,50.0003052 C12.4924469,33.4687909 23.2895792,19.4372796 38.2584696,14.5001398 C39.1958486,14.2031423 40.227344,14.703265 40.5238532,15.6407662 C40.5863533,15.8123972 40.6178474,15.9997754 40.6178474,16.2029006 L40.6178474,17.2657681 C40.6178474,18.859398 39.6488521,20.3280277 38.1487282,20.9375256 C26.6488362,25.6095283 18.5083234,36.843795 18.5083234,50.0003052 C18.5083234,63.1404579 26.6020833,74.4062188 38.1019752,79.0315906 C39.6020991,79.6252193 40.6021003,81.093849 40.6021003,82.7347201 L40.6021003,83.5939741 C40.6021003,84.6563533 39.7428464,85.4998602 38.6957259,85.4998602 C38.4926007,85.4998602 38.2894755,85.4688543 38.1019752,85.4063543 C23.2270791,80.5002203 12.4924469,66.5003253 12.4924469,50.0003052 Z M87.4929047,50.0003052 C87.4929047,66.4688311 76.8207725,80.4377203 61.9925073,85.4063543 C60.9616223,85.7659738 59.8209959,85.203229 59.4614984,84.1718557 C59.3989983,83.9687304 59.3675041,83.7345993 59.3675041,83.531474 L59.3675041,82.828104 C59.3675041,81.1563491 60.3679936,79.6562252 61.8991234,79.0315906 C73.3680095,74.3594658 81.4614032,63.1251991 81.4614032,50.0003052 C81.4614032,36.9062951 73.3990154,25.6720284 61.9301293,20.9999036 C60.3679936,20.3595219 59.3675041,18.8279038 59.3675041,17.171896 L59.3675041,16.5315143 C59.3675041,15.4376409 60.2739994,14.5311457 61.3678728,14.5311457 C61.6020039,14.5311457 61.8051292,14.5626398 62.0082544,14.6251399 C76.8207725,19.5937739 87.4929047,33.562663 87.4929047,50.0003052 Z" id="Fill-3" fill="#FFFFFF"></path>
            </g>
        </g>
    </g>
</svg>