<?xml version="1.0" encoding="UTF-8"?>
<svg width="100px" height="100px" viewBox="0 0 100 100" version="1.1" xmlns="http://www.w3.org/2000/svg" xmlns:xlink="http://www.w3.org/1999/xlink">
    <title>USDT</title>
    <desc>Created with Sketch.</desc>
    <g id="page-1" stroke="none" stroke-width="1" fill="none" fill-rule="evenodd">
        <g id="Pricing" transform="translate(-879.000000, -1241.000000)">
            <g id="USDT" transform="translate(879.000000, 1241.000000)">
                <path d="M100,49.9999387 C100,77.6150897 77.6150897,100 49.9999387,100 C22.3858917,100 0,77.6150897 0,49.9999387 C0,22.3852783 22.3858917,0 49.9999387,0 C77.6150897,0 100,22.3852783 100,49.9999387" id="Fill-1" fill="#1BA27A"></path>
                <polygon id="Fill-2" fill="#FFFFFF" points="73.4665235 25.2126974 26.1213924 25.2126974 26.1213924 36.6430916 44.0787609 36.6430916 44.0787609 53.4427235 55.509155 53.4427235 55.509155 36.6430916 73.4665235 36.6430916"></polygon>
                <path d="M49.9022849,55.2325104 C35.0473854,55.2325104 23.0040791,52.8814599 23.0040791,49.9808005 C23.0040791,47.0809998 35.0468946,44.7294587 49.9022849,44.7294587 C64.7575525,44.7294587 76.8004907,47.0809998 76.8004907,49.9808005 C76.8004907,52.8814599 64.7575525,55.2325104 49.9022849,55.2325104 M80.1051372,50.8563717 C80.1051372,47.1164545 66.5829167,44.084895 49.9022849,44.084895 C33.2225119,44.084895 19.6993099,47.1164545 19.6993099,50.8563717 C19.6993099,54.149977 30.1851863,56.8939733 44.0797424,57.5017329 L44.0797424,81.6188928 L55.5086643,81.6188928 L55.5086643,57.5113019 C69.5100751,56.9223125 80.1051372,54.1667842 80.1051372,50.8563717" id="Fill-3" fill="#FFFFFF"></path>
            </g>
        </g>
    </g>
</svg>