<?xml version="1.0" encoding="UTF-8"?>
<svg width="60px" height="60px" viewBox="0 0 60 60" version="1.1" xmlns="http://www.w3.org/2000/svg" xmlns:xlink="http://www.w3.org/1999/xlink">
    <title>形状结合</title>
    <g id="页面-1" stroke="none" stroke-width="1" fill="none" fill-rule="evenodd">
        <g id="Account-Trial" transform="translate(-330.000000, -908.000000)" fill="#D88A8A">
            <path d="M344,908 L376,908 C383.731986,908 390,914.268014 390,922 L390,954 C390,961.731986 383.731986,968 376,968 L344,968 C336.268014,968 330,961.731986 330,954 L330,922 C330,914.268014 336.268014,908 344,908 Z M362.20005,945 C362.587547,945 362.899599,945.305087 362.899599,945.683631 L362.899599,955.949353 C362.899599,956.327896 363.215912,956.632739 363.599649,956.632739 L373.400602,956.632739 C373.788098,956.632739 374.100401,956.327896 374.100401,955.949353 L374.100401,945.70934 C374.100401,945.330797 374.412704,945.025954 374.800201,945.025954 C375.187697,945.025954 375.5,945.330797 375.5,945.70934 L375.5,955.949353 C375.49624,957.077392 374.555571,958 373.396842,958 L363.599649,958 C362.440669,958 361.5,957.08131 361.5,955.949353 L361.5,945.683631 C361.5,945.305087 361.812303,945 362.20005,945 Z M373.104189,918 C375.250515,918 377,919.764187 377,921.92855 L377,935.982191 C377,936.575035 376.52541,937.053614 375.937506,937.053614 C375.349603,937.053614 374.875012,936.575035 374.875012,935.982191 L374.875012,921.92855 C374.875012,920.942208 374.082066,920.142845 373.104189,920.142845 L346.895762,920.142845 C345.917885,920.142845 345.125184,920.942208 345.125184,921.92855 L345.125184,954.071475 C345.125184,955.057817 345.917885,955.85718 346.895762,955.85718 L357.604091,955.85718 C358.191995,955.85718 358.666585,956.335758 358.666585,956.928602 C358.666585,957.521199 358.184882,958.000025 357.604091,958.000025 L346.895762,958.000025 C344.746002,957.996067 343.003875,956.239548 342.999951,954.071475 L342.999951,921.92855 C342.999951,919.764187 344.749436,918 346.895762,918 L373.104189,918 Z M370.5,945 C370.777042,945 371,945.309071 371,945.69225 L371,953.30428 C371,953.687459 370.777042,954 370.5,954 C370.223138,954 370,953.691176 370,953.307997 L370,945.69225 C370,945.309071 370.223138,945 370.5,945 Z M366.5,945 C366.777042,945 367,945.309071 367,945.69225 L367,953.30428 C367,953.687459 366.777042,954 366.5,954 C366.223138,954 366,953.691176 366,953.307997 L366,945.69225 C366,945.309071 366.223138,945 366.5,945 Z M371.908851,938 C373.024926,938 373.929595,938.959935 373.929595,940.142711 L373.929595,940.142711 L373.929595,941.571355 L377.321559,941.571355 C377.697229,941.571355 378,941.89014 378,942.285934 C378,942.681472 377.697229,943 377.321559,943 L377.321559,943 L359.678441,943 C359.302771,943 359,942.681472 359,942.285934 C359,941.89014 359.302771,941.571355 359.678441,941.571355 L359.678441,941.571355 L363.070648,941.571355 L363.070648,940.142711 C363.070648,938.959935 363.982607,938 365.105971,938 L365.105971,938 Z M371.908851,939.428389 L365.105971,939.428389 C364.733946,939.428389 364.42753,939.751011 364.42753,940.142711 L364.42753,940.142711 L364.42753,941.571355 L372.572713,941.571355 L372.572713,940.142711 C372.572713,939.743335 372.280633,939.428389 371.908851,939.428389 L371.908851,939.428389 Z M358.030212,930.000688 C359.437518,930.005849 360.222017,930.049717 360.934633,930.422594 C361.650182,930.795071 362.224781,931.384386 362.587958,932.118511 C363,932.946825 363,933.869581 363,935.709804 L363,935.709804 L363,936.165893 C362.994352,936.627271 362.631421,937 362.181564,937 L362.181564,937 L348.81328,937 C348.363422,937 348,936.627271 348,936.165893 L348,936.165893 L348.000671,935.097069 C348.005703,933.653769 348.048476,932.849376 348.412042,932.118511 C348.773009,931.386904 349.352274,930.792804 350.065612,930.422594 C350.778229,930.049717 351.562727,930.005849 352.970034,930.000688 Z M357.432767,931.667962 L353.567479,931.667962 C352.082114,931.667962 351.263432,931.667962 350.80277,931.907214 C350.39613,932.118511 350.065612,932.457492 349.859591,932.874546 C349.64252,933.308221 349.626314,934.047634 349.626314,935.332038 L349.626314,935.332038 L361.373932,935.332038 C361.373932,934.047634 361.352077,933.308221 361.140654,932.874546 C360.934633,932.457492 360.60387,932.118511 360.197476,931.907214 C359.736568,931.667962 358.917886,931.667962 357.432767,931.667962 L357.432767,931.667962 Z M355.5,922 C357.433456,922 359,923.572332 359,925.5 C359,927.427919 357.427919,929 355.5,929 C353.572332,929 352,927.427919 352,925.5 C352,923.572332 353.566796,922 355.5,922 Z M355.5,923.666703 C354.488855,923.666703 353.666703,924.488855 353.666703,925.5 C353.666703,926.511145 354.488855,927.333549 355.5,927.333549 C356.511145,927.333549 357.333297,926.511145 357.333297,925.5 C357.333297,924.488855 356.511145,923.666703 355.5,923.666703 Z" id="形状结合"></path>
        </g>
    </g>
</svg>