<svg width="32" height="32" viewBox="0 0 32 32" fill="none" xmlns="http://www.w3.org/2000/svg">
<path d="M7.57952 4.90146L16 0L24.4205 4.90146L21.3247 6.71217L16 3.62146L10.6753 6.71217L7.57952 4.90146ZM24.4205 11.0829L21.3247 9.27217L16 12.3629L10.6753 9.27217L7.57952 11.0829V14.7044L12.9042 17.7951V23.9766L16 25.7873L19.0958 23.9766V17.7951L24.4205 14.7044V11.0829ZM24.4205 20.8858V17.2644L21.3247 19.0751V22.6966L24.4205 20.8858ZM26.6185 22.1658L21.2938 25.2566V28.8781L29.7143 23.9766V14.1737L26.6185 15.9844V22.1658ZM23.5228 7.99217L26.6185 9.80291V13.4244L29.7143 11.6137V7.99217L26.6185 6.18149L23.5228 7.99217ZM12.9042 26.5678V30.1893L16 32L19.0958 30.1893V26.5678L16 28.3785L12.9042 26.5678ZM7.57952 20.8858L10.6753 22.6966V19.0751L7.57952 17.2644V20.8858ZM12.9042 7.99217L16 9.80291L19.0958 7.99217L16 6.18149L12.9042 7.99217ZM5.38149 9.80291L8.47725 7.99217L5.38149 6.18149L2.28572 7.99217V11.6137L5.38149 13.4244V9.80291ZM5.38149 15.9844L2.28572 14.1737V23.9766L10.7062 28.8781V25.2566L5.38149 22.1658V15.9844Z" fill="#F0B90B"/>
</svg>
