<svg width="36" height="36" viewBox="0 0 36 36" fill="none" xmlns="http://www.w3.org/2000/svg">
<rect width="36" height="36" rx="12" fill="#5865F2"/>
<rect x="8" y="8" width="20" height="20" rx="10" fill="white"/>
<path fill-rule="evenodd" clip-rule="evenodd" d="M14.3819 21.9975C14.6533 22.0953 14.9527 22.1936 15.2799 22.2842C14.7035 22.837 13.8098 23.6111 13.8098 23.6111C11.0347 23.5299 10.667 21.4308 10.667 21.4308C10.667 17.6963 12.4752 13.2179 12.4752 13.2179C14.2834 11.9653 16.0037 12.0001 16.0037 12.0001L16.163 12.9895C16.163 12.9895 17.3065 12.8769 18.0003 12.8708C18.6941 12.8648 19.7162 12.9585 19.7162 12.9585L19.9969 12.0002C19.9969 12.0002 21.7172 11.9653 23.5254 13.2179C23.5254 13.2179 25.3337 17.6963 25.3337 21.4308C25.3337 21.4308 24.9659 23.5299 22.1908 23.6111C22.1908 23.6111 21.3564 22.851 20.8047 22.3032C21.0943 22.2212 21.387 22.1231 21.6839 22.0083C22.1578 21.845 22.6793 21.609 23.2233 21.2781L22.6472 20.4701C22.1654 20.763 21.7113 20.9668 21.3089 21.1047L21.3023 21.107L21.2971 21.1089L21.2883 21.1123C20.6948 21.3426 20.1305 21.4939 19.5825 21.5801L19.5739 21.5815C18.4445 21.7771 17.4065 21.7236 16.5158 21.5702C15.8391 21.4494 15.2556 21.2737 14.7632 21.0963C14.2705 20.9182 13.849 20.7299 13.4411 20.4662L12.8404 21.2589C13.339 21.5812 13.8428 21.8026 14.3819 21.9975ZM16.7781 17.5C16.7781 18.175 16.2309 18.7222 15.5559 18.7222C14.8809 18.7222 14.3337 18.175 14.3337 17.5C14.3337 16.825 14.8809 16.2778 15.5559 16.2778C16.2309 16.2778 16.7781 16.825 16.7781 17.5ZM20.4448 18.7222C21.1198 18.7222 21.667 18.175 21.667 17.5C21.667 16.825 21.1198 16.2778 20.4448 16.2778C19.7698 16.2778 19.2225 16.825 19.2225 17.5C19.2225 18.175 19.7698 18.7222 20.4448 18.7222Z" fill="#5865F2"/>
</svg>
