<?xml version="1.0" encoding="UTF-8"?>
<svg width="36px" height="36px" viewBox="0 0 36 36" version="1.1" xmlns="http://www.w3.org/2000/svg" xmlns:xlink="http://www.w3.org/1999/xlink">
    <title>logo/discord</title>
    <defs>
        <path d="M16.1325107,16.4133126 C16.7158116,16.4133126 17.1875123,16.9133126 17.1875123,17.5258143 C17.1875123,18.1425152 16.7125116,18.642516 16.1291107,18.642516 C15.5458098,18.642516 15.0708091,18.1425152 15.0708091,17.5308143 C15.0708091,16.9141134 15.5458098,16.4158126 16.1291107,16.4158126 L16.1325107,16.4133126 Z M19.9183164,16.4133126 C20.5042173,16.4133126 20.976618,16.9133126 20.976618,17.5258143 C20.976618,18.1425152 20.5016173,18.642516 19.9183164,18.642516 C19.3349155,18.642516 18.8599148,18.1425152 18.8599148,17.5308143 C18.8616148,16.9141134 19.3375155,16.4158126 19.9183164,16.4158126 L19.9183164,16.4133126 Z M19.7783162,12.7358071 L19.7533161,12.7358071 L19.5849159,12.9025074 C21.3125185,13.4025081 22.1483197,14.1833093 22.1483197,14.1833093 C21.0349181,13.6266084 20.0316165,13.348308 19.028315,13.2358079 C18.303314,13.1233077 17.5783129,13.1825078 16.9658119,13.2358079 L16.7992117,13.2358079 C16.4075111,13.2358079 15.5742099,13.4025081 14.4575082,13.8483088 C14.0683076,14.017509 13.8450073,14.1283092 13.8450073,14.1283092 C13.8450073,14.1283092 14.6800085,13.2933079 16.5200113,12.8475073 L16.4075111,12.7350071 C16.4075111,12.7350071 15.014109,12.681707 13.5100068,13.7933087 C13.5100068,13.7933087 12.0058045,16.4133126 12.0058045,19.6433175 C12.0058045,19.6433175 12.8391058,21.0933196 15.1250092,21.1483197 C15.1250092,21.1483197 15.4583097,20.7042191 15.7958102,20.3133185 C14.5125083,19.9233179 14.0125075,19.1433167 14.0125075,19.1433167 C14.0125075,19.1433167 14.1242077,19.1983168 14.2916079,19.309917 L14.341608,19.309917 C14.366608,19.309917 14.3783081,19.322417 14.3916081,19.334917 L14.3916081,19.340017 C14.4050081,19.353317 14.4166081,19.365017 14.4416082,19.365017 C14.7166086,19.4783172 14.991609,19.5900174 15.2166093,19.6983175 C15.69781,19.9043179 16.2012108,20.0542181 16.7166116,20.1450182 C17.4916127,20.2575184 18.3800141,20.3116185 19.3917156,20.1450182 C19.8917163,20.032518 20.3917171,19.9224179 20.8917178,19.6991175 C21.2167183,19.5325173 21.6167189,19.365817 22.0558196,19.0849166 C22.0558196,19.0849166 21.5558188,19.8650178 20.2183168,20.2550184 C20.4933172,20.643319 20.8808178,21.0883196 20.8808178,21.0883196 C23.1675213,21.0383196 24.0558226,19.5883174 24.1058227,19.6500175 C24.1058227,16.4250126 22.5933204,13.8000087 22.5933204,13.8000087 C21.2308183,12.7883072 19.9558164,12.7500071 19.7308161,12.7500071 L19.7775162,12.7333071 L19.7783162,12.7358071 Z M24.8766238,8 C26.0483256,8 26.993327,8.94750142 27.0491271,10.0625031 L27.0491271,28.00003 L24.8183237,26.1058272 L23.5933219,24.9908255 L22.2566199,23.8258237 L22.8150207,25.6633265 L11.1166032,25.6633265 C9.94830142,25.6633265 9,24.7758252 9,23.6000234 L9,10.0666031 C9,8.95160143 9.95000143,8.0025 11.1208032,8.0025 L24.8708238,8.0025 L24.8766238,8 Z" id="path-1"></path>
    </defs>
    <g id="页面-1" stroke="none" stroke-width="1" fill="none" fill-rule="evenodd">
        <g id="Account-Binding" transform="translate(-1070.000000, -292.000000)">
            <g id="编组" transform="translate(1070.000000, 292.000000)">
                <rect id="矩形" fill="#703BE2" x="0" y="0" width="36" height="36" rx="12"></rect>
                <mask id="mask-2" fill="white">
                    <use xlink:href="#path-1"></use>
                </mask>
                <use id="蒙版" fill="#000000" xlink:href="#path-1"></use>
                <g mask="url(#mask-2)" id="Colors/Background">
                    <g transform="translate(-0.000000, 0.000000)">
                        <rect id="Color" fill="#FFFFFF" x="0" y="0" width="36" height="36"></rect>
                    </g>
                </g>
            </g>
        </g>
    </g>
</svg>