<?xml version="1.0" encoding="UTF-8"?>
<svg width="36px" height="36px" viewBox="0 0 36 36" version="1.1" xmlns="http://www.w3.org/2000/svg" xmlns:xlink="http://www.w3.org/1999/xlink">
    <title>logo/email</title>
    <defs>
        <path d="M22.698,13.0098 L13.316,13.0098 C13.045,13.0098 12.793,13.0858 12.572,13.2108 L18.007,18.0558 L23.443,13.2108 C23.219,13.0858 22.969,13.0098 22.698,13.0098 L22.698,13.0098 Z M11.996,13.7568 C11.844,14.0018 11.752,14.2908 11.752,14.6028 L11.752,20.9748 C11.752,21.2548 11.829,21.5128 11.953,21.7408 L15.902,17.2388 L11.996,13.7568 Z M24.018,13.7568 L20.111,17.2388 L24.06,21.7418 C24.183,21.5128 24.261,21.2548 24.261,20.9748 L24.261,14.6028 C24.261,14.2908 24.17,14.0028 24.018,13.7568 L24.018,13.7568 Z M16.491,17.7628 L12.491,22.3228 C12.731,22.4768 13.012,22.5678 13.316,22.5678 L22.698,22.5678 C23.002,22.5678 23.282,22.4768 23.522,22.3228 L19.521,17.7638 L18.264,18.8858 C18.19,18.9498 18.099,18.9838 18.007,18.9838 C17.915,18.9838 17.823,18.9498 17.749,18.8858 L16.491,17.7628 Z M18,7.9998 C23.522,7.9998 28,12.4768 28,17.9998 C28,23.5228 23.522,27.9998 18,27.9998 C12.477,27.9998 8,23.5228 8,17.9998 C8,12.4768 12.477,7.9998 18,7.9998 L18,7.9998 Z" id="path-1"></path>
    </defs>
    <g id="page-1" stroke="none" stroke-width="1" fill="none" fill-rule="evenodd">
        <g id="Account-Binding" transform="translate(-710.000000, -512.000000)">
            <g id="g" transform="translate(710.000000, 512.000000)">
                <rect id="rect" fill="#79675A" x="0" y="0" width="36" height="36" rx="12"></rect>
                <mask id="mask-2" fill="white">
                    <use xlink:href="#path-1"></use>
                </mask>
                <use id="mask" fill="#BBC2C9" xlink:href="#path-1"></use>
                <g mask="url(#mask-2)" fill="#FFFFFF" id="Colors/Background">
                    <g>
                        <rect id="Color" x="0" y="0" width="36" height="36"></rect>
                    </g>
                </g>
            </g>
        </g>
    </g>
</svg>