<?xml version="1.0" encoding="UTF-8"?>
<svg width="24px" height="24px" viewBox="0 0 24 24" version="1.1" xmlns="http://www.w3.org/2000/svg" xmlns:xlink="http://www.w3.org/1999/xlink">
    <title>phantom</title>
    <g id="页面-1" stroke="none" stroke-width="1" fill="none" fill-rule="evenodd">
        <g id="落地登陆页-2" transform="translate(-883.000000, -469.000000)">
            <g id="phantom" transform="translate(883.000000, 469.000000)">
                <g id="编组-4" transform="translate(2.000000, 2.000000)">
                    <circle id="椭圆形" fill="#0EEA8D" cx="10" cy="10" r="10"></circle>
                    <path d="M8.24090709,10.0958191 C8.58744555,10.0958191 8.90087052,10.2454867 9.12996497,10.4745886 C9.35909591,10.7037269 9.50876776,11.0172135 9.50876776,11.3637935 C9.50876776,11.7001258 9.36527307,12.0020802 9.1430745,12.2220153 C8.91091602,12.4518089 8.59138013,12.5958191 8.24090709,12.5958191 C7.9006528,12.5958191 7.59260704,12.4579139 7.36962703,12.2349412 C7.14667362,12.011995 7.00876776,11.7039996 7.00876776,11.3637935 C7.00876776,11.0133039 7.15281745,10.6937448 7.38263553,10.4615617 C7.60258528,10.2393484 7.90455148,10.0958191 8.24090709,10.0958191 Z" id="椭圆形" stroke="#FFFFFF" stroke-width="4.5"></path>
                    <path d="M9.13472789,8.77690916 L9.15904169,7.07192289 C9.220169,5.66447098 10.1007507,4.96074502 11.8007867,4.96074502 C13.5008228,4.96074502 14.4788032,4.96074502 14.7347279,4.96074502 L14.7347279,7.2532998 L12.1347279,7.2532998 C11.7991247,7.4202583 11.6313231,7.72131055 11.6313231,8.15645656 C11.6313231,8.59160256 11.517649,8.85969872 11.2903007,8.96074502 L9.13472789,8.77690916 Z" id="路径-2" fill="#FFFFFF"></path>
                    <rect id="矩形" fill="#FFFFFF" x="11.6313231" y="7.95797494" width="2.5" height="2.5"></rect>
                    <rect id="矩形" fill="#0EEA8D" x="9.13472789" y="7.96074502" width="2.5" height="2.5"></rect>
                </g>
            </g>
        </g>
    </g>
</svg>