<?xml version="1.0" encoding="UTF-8"?>
<svg width="36px" height="36px" viewBox="0 0 36 36" version="1.1" xmlns="http://www.w3.org/2000/svg" xmlns:xlink="http://www.w3.org/1999/xlink">
    <title>logo/github</title>
    <defs>
        <path d="M27.9997818,17.9997 C28.0187818,20.1157 27.3467818,22.1787 26.0847818,23.8777 C24.8707818,25.5757 23.1457818,26.8407 21.1637818,27.4927 C20.9867818,27.5417 20.7977818,27.5067 20.6497818,27.3997 C20.5427818,27.2967 20.4847818,27.1537 20.4927818,27.0057 L20.4927818,24.2637 C20.5507818,23.5777 20.3027818,22.9007 19.8137818,22.4137 C20.2617818,22.3697 20.7057818,22.2927 21.1427818,22.1847 C21.5707818,22.0707 21.9817818,21.8977 22.3637818,21.6707 C22.7647818,21.4527 23.1197818,21.1627 23.4137818,20.8137 C23.7367818,20.4067 23.9787818,19.9407 24.1277818,19.4427 C24.3177818,18.8057 24.4087818,18.1437 24.3987818,17.4787 C24.4217818,16.4837 24.0497818,15.5207 23.3637818,14.7997 C23.6867818,13.9367 23.6497818,12.9797 23.2637818,12.1427 C22.9077818,12.0777 22.5397818,12.1277 22.2137818,12.2857 C21.7957818,12.4367 21.3947818,12.6277 21.0147818,12.8567 L20.5207818,13.1647 C18.8857818,12.7077 17.1567818,12.7077 15.5207818,13.1647 C15.3787818,13.0637 15.1997818,12.9577 14.9717818,12.8137 C14.6157818,12.6067 14.2427818,12.4307 13.8567818,12.2857 C13.5117818,12.1097 13.1197818,12.0477 12.7357818,12.1067 C12.3507818,12.9527 12.3177818,13.9157 12.6437818,14.7857 C11.9667818,15.5177 11.5987818,16.4817 11.6147818,17.4787 C11.6037818,18.1387 11.6957818,18.7957 11.8857818,19.4277 C12.0417818,19.9237 12.2827818,20.3877 12.6007818,20.7997 C12.8877818,21.1587 13.2447818,21.4547 13.6497818,21.6707 C14.0367818,21.8867 14.4467818,22.0597 14.8717818,22.1847 C15.3107818,22.2937 15.7567818,22.3707 16.2077818,22.4137 C15.8327818,22.7657 15.6037818,23.2447 15.5637818,23.7557 C15.3767818,23.8457 15.1767818,23.9087 14.9717818,23.9427 C14.7357818,23.9867 14.4967818,24.0077 14.2577818,24.0057 C13.9287818,24.0087 13.6087818,23.9067 13.3427818,23.7137 C13.0467818,23.4997 12.8027818,23.2207 12.6287818,22.8997 C12.4717818,22.6297 12.2567818,22.3987 11.9997818,22.2207 C11.8097818,22.0747 11.5907818,21.9667 11.3577818,21.9067 L11.1007818,21.9067 C10.9717818,21.8997 10.8427818,21.9177 10.7217818,21.9637 C10.6497818,22.0067 10.6287818,22.0567 10.6577818,22.1137 C10.6907818,22.1777 10.7317818,22.2377 10.7787818,22.2917 C10.8307818,22.3527 10.8877818,22.4077 10.9507818,22.4567 L11.0427818,22.5137 C11.2677818,22.6337 11.4627818,22.8027 11.6147818,23.0067 C11.7737818,23.2097 11.9107818,23.4297 12.0217818,23.6637 L12.1497818,23.9637 C12.2517818,24.2867 12.4517818,24.5687 12.7217818,24.7707 C12.9787818,24.9577 13.2737818,25.0837 13.5857818,25.1417 C13.8817818,25.2047 14.1837818,25.2357 14.4857818,25.2347 C14.7247818,25.2397 14.9637818,25.2227 15.1997818,25.1847 L15.4997818,25.1347 L15.4997818,27.0057 C15.5027818,27.1567 15.4397818,27.2987 15.3287818,27.3997 C15.1777818,27.5057 14.9857818,27.5407 14.8077818,27.4927 C12.8307818,26.8327 11.1167818,25.5587 9.91478183,23.8567 C8.64678183,22.1687 7.97378183,20.1097 8.00078183,17.9997 C7.98978183,16.2427 8.45378183,14.5157 9.34378183,12.9997 C10.2167818,11.4787 11.4787818,10.2167 12.9997818,9.3427 C14.5157818,8.4537 16.2427818,7.9897 17.9997818,7.99954171 C19.7567818,7.9897 21.4837818,8.4537 22.9997818,9.3427 C24.5207818,10.2167 25.7827818,11.4787 26.6567818,12.9997 C27.5467818,14.5157 28.0107818,16.2427 27.9997818,17.9997" id="path-1"></path>
    </defs>
    <g id="页面-1" stroke="none" stroke-width="1" fill="none" fill-rule="evenodd">
        <g id="Account-Binding" transform="translate(-350.000000, -292.000000)">
            <g id="编组" transform="translate(350.000000, 292.000000)">
                <rect id="矩形" fill="#4B4B4B" x="0" y="0" width="36" height="36" rx="12"></rect>
                <mask id="mask-2" fill="white">
                    <use xlink:href="#path-1"></use>
                </mask>
                <use id="蒙版" fill="#BBC2C9" xlink:href="#path-1"></use>
                <g mask="url(#mask-2)" fill="#FFFFFF" id="Colors/Background">
                    <g>
                        <rect id="Color" x="0" y="0" width="36" height="36"></rect>
                    </g>
                </g>
            </g>
        </g>
    </g>
</svg>