<?xml version="1.0" encoding="UTF-8"?>
<svg width="36px" height="36px" viewBox="0 0 36 36" version="1.1" xmlns="http://www.w3.org/2000/svg" xmlns:xlink="http://www.w3.org/1999/xlink">
    <title>logo/github</title>
    <defs>
        <polygon id="path-1" points="0 0 12 0 12 10.2128835 0 10.2128835"></polygon>
    </defs>
    <g id="页面-1" stroke="none" stroke-width="1" fill="none" fill-rule="evenodd">
        <g id="Account-Binding" transform="translate(-710.000000, -292.000000)">
            <g id="编组" transform="translate(710.000000, 292.000000)">
                <rect id="矩形" fill="#F5841F" x="0" y="0" width="36" height="36" rx="12"></rect>
                <circle id="椭圆形" fill="#FFFFFF" cx="18" cy="18" r="10"></circle>
                <g id="metamask" transform="translate(12.000000, 12.000000)">
                    <polygon id="Fill-1" fill="#E17726" points="11.4052369 0.000747079432 6.71767966 3.46880699 7.58922838 1.42503204 11.4052369 0"></polygon>
                    <path d="M0.594616634,0.000747079432 L5.24092335,3.50182497 L4.41069837,1.42428496 L0.594616634,0.00149415886 L0.594616634,0.000747079432 Z M9.71698385,8.04386284 L8.46974206,9.94887145 L11.1404778,10.6846275 L11.9055311,8.08586042 L9.71698385,8.04386284 Z M0.0973693527,8.08438091 L0.857149135,10.6831333 L3.52343168,9.94812437 L2.28064307,8.04311576 L0.0973693527,8.08438091 Z" id="Fill-2" fill="#E27625"></path>
                    <path d="M3.38163308,4.82408233 L2.63913866,5.94304618 L5.28217385,6.06309159 L5.19445794,3.21903344 L3.38163308,4.82408233 Z M8.61896752,4.82408233 L6.77770969,3.18601545 L6.71767966,6.06230057 L9.3607295,5.9422991 L8.61823509,4.82254422 L8.61896752,4.82408233 Z M3.52417876,9.94812437 L5.12316312,9.17558564 L3.74619319,8.1030872 L3.52417876,9.94812437 Z M6.87670504,9.17558564 L8.47122157,9.94812437 L8.25373357,8.1030872 L6.87670504,9.17558564 Z" id="Fill-3" fill="#E27625"></path>
                    <path d="M8.47122157,9.94887145 L6.87670504,9.17639131 L7.00647713,10.212151 L6.99223867,10.6516095 L8.47122157,9.94887145 Z M3.52417876,9.94887145 L5.00768808,10.6516095 L4.99870848,10.212151 L5.12316312,9.17639131 L3.52417876,9.94887145 Z" id="Fill-4" fill="#D5BFB2"></path>
                    <path d="M5.03544721,7.59857176 L3.70939587,7.12377681 L4.64616023,6.59857176 L5.03617964,7.59766041 L5.03544721,7.59857176 Z M6.96447955,7.59857176 L7.35444036,6.59948311 L8.29498407,7.12467029 L6.96447955,7.59857176 Z" id="Fill-5" fill="#233447"></path>
                    <path d="M3.52491119,9.94961853 L3.75666695,8.04460992 L2.28213723,8.08586042 L3.52491119,9.94961853 Z M8.24394829,8.04238333 L8.47122157,9.94737729 L9.71847801,8.08438091 L8.24394829,8.04238333 Z M9.3607295,5.94304618 L6.71767966,6.06309159 L6.96367387,7.41907006 L7.35296085,6.60006592 L8.29423699,7.02984167 L9.3607295,5.94304618 Z M3.71094862,7.02984167 L4.64690731,6.60006592 L5.03692672,7.41832298 L5.28217385,6.06383867 L2.63987109,5.94385185 L3.71094862,7.02910924 L3.71094862,7.02984167 Z" id="Fill-6" fill="#CC6228"></path>
                    <path d="M2.63987109,5.94304618 L3.7476727,8.1030872 L3.71014295,7.03058875 L2.63987109,5.94304618 Z M8.29498407,7.02984167 L8.25373357,8.1030872 L9.36147658,5.94304618 L8.29498407,7.03058875 L8.29498407,7.02984167 Z M5.28144142,6.06383867 L5.03544721,7.41832298 L5.34592463,9.01886009 L5.41568134,6.90985486 L5.28069434,6.06309159 L5.28144142,6.06383867 Z M6.71842674,6.06383867 L6.58871324,6.90532843 L6.65394353,9.01886009 L6.96447955,7.41832298 L6.71842674,6.06383867 Z" id="Fill-7" fill="#E27525"></path>
                    <path d="M6.96447955,7.41907006 L6.65394353,9.01886009 L6.87670504,9.17639131 L8.25373357,8.10383428 L8.29498407,7.03058875 L6.96447955,7.41907006 Z M3.70939587,7.03058875 L3.74694027,8.1030872 L5.1239102,9.17558564 L5.34592463,9.01886009 L5.03544721,7.41907006 L3.70939587,7.03058875 Z" id="Fill-8" fill="#F5841F"></path>
                    <polygon id="Fill-9" fill="#C0AC9D" points="6.99223867 10.6516095 7.0056861 10.212151 6.88568464 10.1101234 5.11418352 10.1101234 4.99870848 10.212151 5.00768808 10.6516095 3.52417876 9.94812437 4.04316459 10.3733883 5.095404 11.1001648 6.89919066 11.1001648 7.95668892 10.3733883 8.47122157 9.94812437"></polygon>
                    <g id="编组">
                        <mask id="mask-2" fill="white">
                            <use xlink:href="#path-1"></use>
                        </mask>
                        <g id="Clip-11"></g>
                        <polygon id="Fill-10" fill="#1D1D1D" mask="url(#mask-2)" points="6.87670504 9.17639131 6.65394353 9.01886009 5.34592463 9.01886009 5.1239102 9.17639131 4.99870848 10.2128835 5.11418352 10.1108705 6.88643172 10.1108705 7.00647713 10.2128835 6.87745212 9.17639131"></polygon>
                        <path d="M11.6062598,3.69602168 L12,1.78130104 L11.4067896,0.000747079432 L6.87670504,3.35327336 L8.61896752,4.82408233 L11.0812534,5.5410735 L11.6234866,4.90728647 L11.3872777,4.73630782 L11.762253,4.39429192 L11.4749936,4.17227749 L11.8507599,3.88503278 L11.6055128,3.69602168 L11.6062598,3.69602168 Z M-0.000131837547,1.78130104 L0.398867174,3.69602168 L0.143893358,3.88503278 L0.524127492,4.17227749 L0.236135695,4.39429192 L0.611902001,4.73630782 L0.375634468,4.90728647 L0.91786765,5.5410735 L3.38015357,4.82408233 L5.1239102,3.35402043 L0.593884203,0 L-0.000878916979,1.78130104 L-0.000131837547,1.78130104 Z" id="Fill-12" fill="#763E1A" mask="url(#mask-2)"></path>
                    </g>
                    <path d="M11.0820005,5.5410735 L8.61896752,4.82408233 L9.36147658,5.94304618 L8.25298649,8.1030872 L9.71773093,8.08511334 L11.9062782,8.08511334 L11.0812534,5.5410735 L11.0820005,5.5410735 Z M3.38015357,4.82408233 L0.91786765,5.5410735 L0.0973693527,8.08511334 L2.28064307,8.08511334 L3.74619319,8.1030872 L2.63839158,5.94304618 L3.38015357,4.82408233 Z M6.71842674,6.06309159 L6.87595796,3.35252628 L7.59070789,1.42428496 L4.4098927,1.42428496 L5.1239102,3.35252628 L5.28144142,6.06309159 L5.3414568,6.91432268 L5.34592463,9.01811301 L6.65394353,9.01811301 L6.6584553,6.91432268 L6.71842674,6.06309159 Z" id="Fill-13" fill="#F5841F"></path>
                </g>
            </g>
        </g>
    </g>
</svg>