<?xml version="1.0" encoding="UTF-8"?>
<svg width="36px" height="36px" viewBox="0 0 36 36" version="1.1" xmlns="http://www.w3.org/2000/svg" xmlns:xlink="http://www.w3.org/1999/xlink">
    <title>g 2</title>
    <g id="页面-1" stroke="none" stroke-width="1" fill="none" fill-rule="evenodd">
        <g id="Account-Binding" transform="translate(-1070.000000, -292.000000)" fill-rule="nonzero">
            <g id="g-3" transform="translate(1040.000000, 262.000000)">
                <g id="g-2" transform="translate(30.000000, 30.000000)">
                    <path d="M11.5844073,0 L24.4155927,0 C32.1385309,0 36,3.8614594 36,11.5843782 L36,24.4155789 C36,32.1385263 32.1385309,36 24.4155927,36 L11.5844073,36 C3.8614691,36 0,32.1385263 0,24.4155789 L0,11.5843782 C0,3.8614594 3.8614691,0 11.5844073,0 Z" id="路径" fill="#543EC5"></path>
                    <path d="M32.5058305,18.7385478 L29.2811423,18.7385478 C29.2811423,12.3657622 23.9353391,7.2 17.3401462,7.2 C10.8269964,7.2 5.53145708,12.2394536 5.4021093,18.5031487 C5.26795815,24.9774554 11.5538057,30.6 18.2551874,30.6 L19.0982639,30.6 C25.0057606,30.6 32.9247097,26.1306198 34.1616193,20.6859138 C34.3899079,19.6820573 33.5694758,18.7390053 32.5058305,18.7390053 L32.5058305,18.7385478 Z M12.5484456,19.0226072 C12.5484456,19.8743692 11.8269543,20.5717078 10.9447647,20.5717078 C10.0630468,20.5717078 9.34155553,19.8743692 9.34155553,19.0226072 L9.34155553,16.5159812 C9.34155553,15.6642191 10.0630468,14.9669221 10.9447647,14.9669221 C11.8269543,14.9669221 12.5484456,15.6642607 12.5484456,16.5160228 L12.5484456,19.0226487 L12.5484456,19.0226072 Z M18.1152036,19.0226072 C18.1152036,19.8743692 17.3942269,20.5717078 16.5120373,20.5717078 C15.6303195,20.5717078 14.9088282,19.8743692 14.9088282,19.0226072 L14.9088282,16.5159812 C14.9088282,15.6642191 15.6303195,14.9669221 16.5120373,14.9669221 C17.3942269,14.9669221 18.1152036,15.6642607 18.1152036,16.5160228 L18.1152036,19.0226487 L18.1152036,19.0226072 Z" id="形状" fill="#FFFFFF"></path>
                </g>
            </g>
        </g>
    </g>
</svg>