<svg width="16" height="16" viewBox="0 0 16 16" fill="none" xmlns="http://www.w3.org/2000/svg">
<g clip-path="url(#clip0_1069_2780)">
<path d="M12.6667 10C13.288 10 13.5986 10 13.8437 9.8985C14.1704 9.76318 14.4299 9.50361 14.5653 9.17691C14.6667 8.93188 14.6667 8.62125 14.6667 8V3.46666C14.6667 2.71992 14.6667 2.34656 14.5214 2.06134C14.3936 1.81046 14.1896 1.60648 13.9387 1.47865C13.6535 1.33333 13.2802 1.33333 12.5334 1.33333H8.00008C7.37883 1.33333 7.0682 1.33333 6.82317 1.43482C6.49647 1.57015 6.2369 1.82971 6.10157 2.15642C6.00008 2.40145 6.00008 2.71207 6.00008 3.33333M7.86675 14.6667H3.46675C2.72001 14.6667 2.34664 14.6667 2.06143 14.5213C1.81054 14.3935 1.60657 14.1895 1.47874 13.9386C1.33341 13.6534 1.33341 13.2801 1.33341 12.5333V8.13333C1.33341 7.38659 1.33341 7.01322 1.47874 6.72801C1.60657 6.47713 1.81054 6.27315 2.06143 6.14532C2.34664 6 2.72001 6 3.46675 6H7.86675C8.61348 6 8.98685 6 9.27207 6.14532C9.52295 6.27315 9.72693 6.47713 9.85476 6.72801C10.0001 7.01322 10.0001 7.38659 10.0001 8.13333V12.5333C10.0001 13.2801 10.0001 13.6534 9.85476 13.9386C9.72693 14.1895 9.52295 14.3935 9.27207 14.5213C8.98685 14.6667 8.61348 14.6667 7.86675 14.6667Z" stroke="white" stroke-width="1.33333" stroke-linecap="round" stroke-linejoin="round"/>
</g>
<defs>
<clipPath id="clip0_1069_2780">
<rect width="16" height="16" fill="white" transform="matrix(-1 0 0 1 16 0)"/>
</clipPath>
</defs>
</svg>
