<svg width="16" height="16" viewBox="0 0 16 16" fill="none" xmlns="http://www.w3.org/2000/svg">
<g clip-path="url(#clip0_1069_2803)">
<path d="M12.6667 10C13.288 10 13.5986 10 13.8437 9.89852C14.1704 9.76319 14.4299 9.50363 14.5653 9.17692C14.6667 8.93189 14.6667 8.62127 14.6667 8.00001V3.46668C14.6667 2.71994 14.6667 2.34657 14.5214 2.06136C14.3936 1.81047 14.1896 1.6065 13.9387 1.47867C13.6535 1.33334 13.2802 1.33334 12.5334 1.33334H8.00008C7.37883 1.33334 7.0682 1.33334 6.82317 1.43484C6.49647 1.57016 6.2369 1.82973 6.10157 2.15643C6.00008 2.40146 6.00008 2.71209 6.00008 3.33334M7.86675 14.6667H3.46675C2.72001 14.6667 2.34664 14.6667 2.06143 14.5214C1.81054 14.3935 1.60657 14.1895 1.47874 13.9387C1.33341 13.6534 1.33341 13.2801 1.33341 12.5333V8.13334C1.33341 7.38661 1.33341 7.01324 1.47874 6.72802C1.60657 6.47714 1.81054 6.27317 2.06143 6.14534C2.34664 6.00001 2.72001 6.00001 3.46675 6.00001H7.86675C8.61348 6.00001 8.98685 6.00001 9.27207 6.14534C9.52295 6.27317 9.72693 6.47714 9.85476 6.72802C10.0001 7.01324 10.0001 7.38661 10.0001 8.13334V12.5333C10.0001 13.2801 10.0001 13.6534 9.85476 13.9387C9.72693 14.1895 9.52295 14.3935 9.27207 14.5214C8.98685 14.6667 8.61348 14.6667 7.86675 14.6667Z" stroke="#101828" stroke-width="1.33333" stroke-linecap="round" stroke-linejoin="round"/>
</g>
<defs>
<clipPath id="clip0_1069_2803">
<rect width="16" height="16" fill="white" transform="matrix(-1 0 0 1 16 0)"/>
</clipPath>
</defs>
</svg>
