<svg width="24" height="24" viewBox="0 0 24 24" fill="none" xmlns="http://www.w3.org/2000/svg">
<g clip-path="url(#clip0_12022_467)">
<path d="M6.22983 7.85213L0.917236 9.27563L2.72897 16.0371L8.04156 14.6136L6.22983 7.85213Z" fill="#6172f3" stroke="#6172f3" stroke-width="2" stroke-linecap="round" stroke-linejoin="round"/>
<path d="M6.72205 15.4849L3.82427 16.2613L5.24777 21.5739C5.46219 22.3741 6.28467 22.849 7.08489 22.6346C7.88511 22.4202 8.35997 21.5977 8.14555 20.7975L6.72205 15.4849Z" stroke="#6172f3" stroke-width="2"/>
<path d="M6.22984 7.85218L14.0173 2.14206L17.6408 15.665L8.04157 14.6137" fill="#6172f3"/>
<path d="M6.22984 7.85218L14.0173 2.14206L17.6408 15.665L8.04157 14.6137" stroke="#6172f3" stroke-width="2" stroke-linecap="round" stroke-linejoin="round"/>
<path d="M18.304 4.61694L19.2699 4.35812" stroke="#6172f3" stroke-width="2" stroke-linecap="round" stroke-linejoin="round"/>
<path d="M18.8562 8.60986L21.271 7.96282" stroke="#6172f3" stroke-width="2" stroke-linecap="round" stroke-linejoin="round"/>
<path d="M20.3745 12.3442L21.3404 12.0854" stroke="#6172f3" stroke-width="2" stroke-linecap="round" stroke-linejoin="round"/>
</g>
<defs>
<clipPath id="clip0_12022_467">
<rect width="24" height="24" fill="white"/>
</clipPath>
</defs>
</svg>
