<?xml version="1.0" encoding="UTF-8"?>
<svg width="16px" height="16px" viewBox="0 0 16 16" version="1.1" xmlns="http://www.w3.org/2000/svg" xmlns:xlink="http://www.w3.org/1999/xlink">
    <title>gantanhao</title>
    <g id="Usage--" stroke="none" stroke-width="1" fill="none" fill-rule="evenodd">
        <g id="gantanhao" transform="translate(-1216.000000, -211.000000)" fill="#FF8843">
            <g id="g-2" transform="translate(355.000000, 207.000000)">
                <path d="M869.000032,4 C873.418378,4 877,7.58168517 877,12.0000315 C877,16.4183778 873.418378,20 869.000032,20 C864.581685,20 861,16.4183778 861,12.0000315 C861,7.58168517 864.581685,4 869.000032,4 Z M869.000032,14.7403089 C868.330908,14.7403089 867.788452,15.2825971 867.788452,15.9518882 C867.788452,16.6209483 868.330908,17.1634045 869.000032,17.1634045 C869.669092,17.1634045 870.211548,16.6209483 870.211548,15.9518882 C870.211548,15.2825971 869.669092,14.7403089 869.000032,14.7403089 Z M868.965167,13.7932159 C869.541522,13.7932159 870.008662,13.3259071 870.008662,12.7497417 L870.008662,7.88006968 C870.008662,7.30373624 869.541522,6.83659552 868.965167,6.83659552 C868.388834,6.83659552 867.921672,7.30390426 867.921672,7.88006968 L867.921672,12.7497417 C867.921672,13.3260752 868.388834,13.7932159 868.965167,13.7932159 Z" id="gantanhao"></path>
            </g>
        </g>
    </g>
</svg>