<?xml version="1.0" encoding="UTF-8"?>
<svg width="26px" height="23px" viewBox="0 0 26 23" version="1.1" xmlns="http://www.w3.org/2000/svg" xmlns:xlink="http://www.w3.org/1999/xlink">
    <title>Primary Logo</title>
    <g id="Usage--" stroke="none" stroke-width="1" fill="none" fill-rule="evenodd">
        <g id="net" transform="translate(-1020.000000, -88.000000)" fill="#7B3FE4" fill-rule="nonzero">
            <g id="g-7" transform="translate(1004.000000, 68.000000)">
                <g id="Primary-Logo" transform="translate(16.450895, 20.984250)">
                    <path d="M25.2317095,11.4401468 L25.2317095,17.1290563 C25.2296651,17.4838367 25.1355707,17.8320121 24.9586523,18.1395094 C24.7817339,18.4470067 24.5280723,18.7033418 24.2224097,18.8834578 L19.2943803,21.7220153 C18.9891371,21.9039661 18.6404375,22 18.2850805,22 C17.9297759,22 17.5810239,21.9039661 17.2758331,21.7220153 L12.3477513,18.8834578 C12.0420887,18.7033418 11.7884271,18.4470067 11.6115087,18.1395094 C11.4346427,17.8320121 11.3405483,17.4838367 11.3385039,17.1290563 L11.3385039,15.5323874 L13.8616486,14.0677651 L13.8616486,16.843261 L18.2772175,19.4058258 L22.6927339,16.843261 L22.6927339,11.7298736 L18.2772175,9.16730881 L7.93223491,15.1598365 C7.624161,15.3334001 7.27656221,15.4246113 6.92293508,15.4246113 C6.56936038,15.4246113 6.22176158,15.3334001 5.91368767,15.1598365 L0.985605894,12.3094321 C0.684661138,12.1265902 0.435874548,11.8693115 0.263202186,11.5623384 C0.0905822451,11.2554178 1.13686838e-13,10.9091819 1.13686838e-13,10.5570225 L1.13686838e-13,4.86806057 C0.00204441316,4.5132802 0.0961387935,4.1651572 0.273057197,3.85760749 C0.449923179,3.5501102 0.703637274,3.29377509 1.00924743,3.11365905 L5.93732921,0.275101564 C6.24320147,0.0949855249 6.59163899,0 6.94657662,0 C7.30156667,0 7.65000419,0.0949855249 7.95587645,0.275101564 L12.8839582,3.11365905 C13.1895684,3.29377509 13.4432825,3.5501102 13.6201485,3.85760749 C13.7970669,4.1651572 13.8911613,4.5132802 13.8932056,4.86806057 L13.8932056,6.4647295 L11.3542824,7.91949677 L11.3542824,5.15977936 L6.93871358,2.59721458 L2.52314476,5.15977936 L2.52314476,10.2672433 L6.93871358,12.8298605 L17.2836961,6.83733276 C17.59177,6.66371684 17.9393688,6.57255799 18.292996,6.57255799 C18.6465707,6.57255799 18.9941695,6.66371684 19.3022434,6.83733276 L24.2303251,9.68768481 C24.5342054,9.86863957 24.7861372,10.1250795 24.9615879,10.4321575 C25.1370909,10.7392354 25.2301369,11.0864672 25.2317095,11.4401468 L25.2317095,11.4401468 Z" id="path"></path>
                </g>
            </g>
        </g>
    </g>
</svg>