<svg xmlns="http://www.w3.org/2000/svg" width="24" height="24" viewBox="0 0 24 24" fill="none">
  <path d="M21.6015 17.5404L18.1553 12.8584C17.781 12.3496 17.2266 12.0448 16.6363 11.9776C16.5019 11.9621 16.3819 11.8841 16.3147 11.7665C16.2463 11.6489 16.2391 11.5061 16.2931 11.3813C16.5295 10.8366 16.5439 10.2042 16.2895 9.62584L13.9581 4.30069C13.6125 3.50996 12.8314 3 11.9687 3C11.106 3 10.3249 3.51116 9.97925 4.30069L7.64785 9.62584C7.39467 10.2042 7.40787 10.8366 7.64425 11.3813C7.69824 11.5061 7.68984 11.6489 7.62265 11.7665C7.55426 11.8841 7.43547 11.9621 7.30107 11.9776C6.71072 12.0448 6.15638 12.3496 5.78201 12.8584L2.3359 17.5404C1.82474 18.2351 1.77315 19.1662 2.20391 19.9138C2.63587 20.6601 3.4686 21.0813 4.32533 20.9865L10.1028 20.3434C10.7304 20.2738 11.2716 19.9462 11.6243 19.4686C11.7047 19.3594 11.8331 19.2946 11.9687 19.2946C12.1043 19.2946 12.2315 19.3594 12.3131 19.4686C12.6658 19.9462 13.207 20.2738 13.8345 20.3434L19.612 20.9865C20.4688 21.0825 21.3015 20.6613 21.7335 19.9138C22.1642 19.1662 22.1126 18.2351 21.6015 17.5404ZM9.15493 10.2942L11.4899 4.96303C11.5739 4.77225 11.7623 4.64866 11.9699 4.64866C12.1775 4.64866 12.3658 4.77225 12.4498 4.96303L14.7848 10.2942C14.858 10.4622 14.8425 10.6566 14.7416 10.8102C14.6409 10.9638 14.4705 11.0561 14.2857 11.0561H9.65285C9.46933 11.0561 9.29773 10.9638 9.19693 10.8102C9.09613 10.6566 9.08053 10.4622 9.15373 10.2942H9.15493ZM10.3537 18.4103C10.2709 18.5747 10.1101 18.685 9.92765 18.7054L4.14415 19.3486C3.93776 19.3714 3.73618 19.2706 3.63179 19.0906C3.52739 18.9106 3.54059 18.6862 3.66419 18.5183L7.11389 13.8315C7.22308 13.6839 7.39827 13.5999 7.58186 13.6107C7.76544 13.6203 7.93103 13.7223 8.02341 13.8818L8.02701 13.8878L10.3369 17.8883L10.3405 17.8943C10.4328 18.0539 10.4376 18.2483 10.3548 18.4115L10.3537 18.4103ZM12.4438 16.6009C12.3455 16.77 12.1655 16.8756 11.9687 16.8756C11.7731 16.8756 11.5919 16.7712 11.4935 16.6021L9.71885 13.5291C9.62045 13.3599 9.62045 13.1499 9.71885 12.9807C9.81725 12.8116 9.99725 12.706 10.194 12.706H13.7421C13.9377 12.706 14.1189 12.8092 14.2173 12.9795C14.3156 13.1499 14.3156 13.3587 14.2173 13.5279L12.4438 16.6009ZM20.3068 19.0906C20.2024 19.2706 20.002 19.3726 19.7944 19.3498L14.0109 18.7066C13.8285 18.6862 13.6677 18.5759 13.5849 18.4115C13.5021 18.2471 13.5069 18.0527 13.5993 17.8943L13.6029 17.8883L15.9128 13.8878L15.9164 13.8818C16.0088 13.7223 16.1743 13.6203 16.3579 13.6107C16.5415 13.6011 16.7167 13.6839 16.8259 13.8315L20.2756 18.5183C20.3992 18.6862 20.4112 18.9106 20.308 19.0906H20.3068Z" fill="#E81899"/>
</svg>