<?xml version="1.0" encoding="UTF-8"?>
<svg width="19px" height="20px" viewBox="0 0 19 20" version="1.1" xmlns="http://www.w3.org/2000/svg" xmlns:xlink="http://www.w3.org/1999/xlink">
    <title>icon/Documents</title>
    <defs>
        <path d="M15.625,0 L4.375,0 C2.65625,0 1.25,1.40625 1.25,3.125 L1.25,16.875 C1.25,18.59375 2.65625,20 4.375,20 L15.625,20 C17.34375,20 18.75,18.59375 18.75,16.875 L18.75,3.125 C18.75,1.40625 17.34375,0 15.625,0 M15.625,1.875 C16.3025,1.875 16.875,2.4475 16.875,3.125 L16.875,16.875 C16.875,17.5525 16.3025,18.125 15.625,18.125 L4.375,18.125 C3.6975,18.125 3.125,17.5525 3.125,16.875 L3.125,3.125 C3.125,2.4475 3.6975,1.875 4.375,1.875 L15.625,1.875 M14.0625,6.875 L5.9375,6.875 C5.42125,6.875 5,6.45375 5,5.9375 L5,5.9375 C5,5.42125 5.42125,5 5.9375,5 L14.0625,5 C14.57875,5 15,5.42125 15,5.9375 L15,5.9375 C15,6.45375 14.57875,6.875 14.0625,6.875 M14.0625,10.9375 L5.9375,10.9375 C5.42125,10.9375 5,10.51625 5,10 L5,10 C5,9.48375 5.42125,9.0625 5.9375,9.0625 L14.0625,9.0625 C14.57875,9.0625 15,9.48375 15,10 L15,10 C15,10.51625 14.57875,10.9375 14.0625,10.9375 M14.0625,15 L5.9375,15 C5.42125,15 5,14.57875 5,14.0625 C5,13.54625 5.42125,13.125 5.9375,13.125 L14.0625,13.125 C14.57875,13.125 15,13.54625 15,14.0625 C15,14.57875 14.57875,15 14.0625,15" id="path-1"></path>
    </defs>
    <g id="Usage--" stroke="none" stroke-width="1" fill="none" fill-rule="evenodd">
        <g id="net" transform="translate(-1371.000000, -119.000000)">
            <g id="icon/Documents" transform="translate(1370.500000, 119.000000)">
                <mask id="mask-2" fill="white">
                    <use xlink:href="#path-1"></use>
                </mask>
                <use id="mask" fill="#231916" xlink:href="#path-1"></use>
                <g id="g" mask="url(#mask-2)" fill="#775DA6">
                    <g id="Colors/Background">
                        <rect id="Color" x="0" y="0" width="20" height="20"></rect>
                    </g>
                </g>
            </g>
        </g>
    </g>
</svg>