<?xml version="1.0" encoding="UTF-8"?>
<svg width="16px" height="18px" viewBox="0 0 16 18" version="1.1" xmlns="http://www.w3.org/2000/svg" xmlns:xlink="http://www.w3.org/1999/xlink">
    <title>Fill 1</title>
    <g id="Billing-" stroke="none" stroke-width="1" fill="none" fill-rule="evenodd">
        <g id="biling" transform="translate(-1232.000000, -202.000000)" fill="#34A9FF">
            <path d="M1245.49852,202 C1246.56361,202 1247.42699,202.863411 1247.42699,203.928594 L1247.42699,218.071406 C1247.42699,219.136488 1246.56361,220 1245.49852,220 L1233.92709,220 C1232.8619,220 1231.99849,219.136488 1231.99849,218.071406 L1231.99849,203.928594 C1231.99849,202.863411 1232.8619,202 1233.92709,202 L1245.49852,202 Z M1243.56993,214.857125 L1235.85568,214.857125 C1235.50058,214.857125 1235.21277,215.144929 1235.21277,215.500031 C1235.21277,215.855009 1235.50058,216.142812 1235.85568,216.142812 L1243.56993,216.142812 C1243.92493,216.142812 1244.21271,215.855009 1244.21271,215.500031 C1244.21271,215.144929 1243.92493,214.857125 1243.56993,214.857125 Z M1243.56993,210.357156 L1235.85568,210.357156 C1235.50058,210.357156 1235.21277,210.64496 1235.21277,210.999937 C1235.21277,211.35504 1235.50058,211.642844 1235.85568,211.642844 L1243.56993,211.642844 C1243.92493,211.642844 1244.21271,211.35504 1244.21271,210.999937 C1244.21271,210.64496 1243.92493,210.357156 1243.56993,210.357156 Z M1240.99843,205.857188 L1235.85568,205.857188 C1235.50058,205.857188 1235.21277,206.144991 1235.21277,206.499969 C1235.21277,206.855071 1235.50058,207.142875 1235.85568,207.142875 L1240.99843,207.142875 C1241.35353,207.142875 1241.64134,206.855071 1241.64134,206.499969 C1241.64134,206.144991 1241.35353,205.857188 1240.99843,205.857188 Z" id="Fill-1"></path>
        </g>
    </g>
</svg>