<?xml version="1.0" encoding="UTF-8"?>
<svg width="10px" height="12px" viewBox="0 0 10 12" version="1.1" xmlns="http://www.w3.org/2000/svg" xmlns:xlink="http://www.w3.org/1999/xlink">
    <title>authentication</title>
    <g id="Gateways" stroke="none" stroke-width="1" fill="none" fill-rule="evenodd">
        <g id="IPNS-Manger" transform="translate(-1062.000000, -123.000000)" fill="#FFFFFF" fill-rule="nonzero">
            <g id="authentication" transform="translate(1062.000000, 123.000000)">
                <path d="M4.63409091,0.0792650484 L0.543181827,1.9270386 C0.213231727,2.07615265 0.000151394491,2.41154371 0,2.78201346 L0,5.67794879 C0,7.45167123 0.771818181,9.03664512 2.13181819,10.1289573 L4.4759091,11.8290958 C4.79013422,12.0569681 5.20986578,12.0569681 5.5240909,11.8290958 L7.85045454,10.1425061 C9.22818182,9.03641153 10,7.45143764 10,5.67794879 L10,2.78224705 C10,2.41160778 9.78691921,2.0759873 9.45681817,1.92680499 L5.36590909,0.0790314578 C5.13274143,-0.0263438193 4.86725857,-0.0263438193 4.63409091,0.0790314578 L4.63409091,0.0792650484 Z M0.909090913,2.78224705 L5,0.934473514 L9.09090909,2.78224705 L9.09090909,5.67794879 C9.09090909,7.16037242 8.45068182,8.47530506 7.30840908,9.39265106 L5,11.0654584 L2.67363637,9.37886867 C1.54931818,8.47460428 0.909090913,7.15990523 0.909090913,5.6774816 L0.909090913,2.78224705 Z" id="shape"></path>
                <path d="M7.30867298,3.45293261 L8.02077638,4.14211832 L4.74731658,7.31022805 C4.55065726,7.50050079 4.23187249,7.50050079 4.03521318,7.31022805 L2.02077638,5.36062207 L2.73287979,4.67143634 L4.39126489,6.27620577 L7.30867298,3.45293261 Z" id="path"></path>
            </g>
        </g>
    </g>
</svg>