<?xml version="1.0" encoding="UTF-8"?>
<svg width="249px" height="294px" viewBox="0 0 249 294" version="1.1" xmlns="http://www.w3.org/2000/svg" xmlns:xlink="http://www.w3.org/1999/xlink">
    <title>Illustration</title>
    <g id="Gateways" stroke="none" stroke-width="1" fill="none" fill-rule="evenodd">
        <g id="Gateway未开通" transform="translate(-720.000000, -245.000000)">
            <g id="Illustration" transform="translate(720.000000, 245.000000)">
                <g id="网关" fill-rule="nonzero">
                    <path d="M38.5238095,189 L204.47619,189 C215.258893,189 224,196.57672 224,205.923077 L224,227.076923 C224,236.42328 215.258893,244 204.47619,244 L38.5238095,244 C27.7411073,244 19,236.42328 19,227.076923 L19,205.923077 C19,196.57672 27.7411073,189 38.5238095,189 Z" id="路径" fill="#F2F4F4"></path>
                    <path d="M219.551188,171.317054 L202.63223,171.317054 L202.63223,156.443886 C202.623401,144.860495 194.383731,134.916653 182.999992,132.751207 L182.999992,68.8780479 C182.999992,66.1839764 180.815142,64 178.119993,64 C175.424844,64 173.239993,66.1839764 173.239993,68.8780479 L173.239993,132.878037 C162.372235,135.248768 154.207996,144.887791 154.207996,156.443886 L154.207996,171.317054 L24.4488125,171.317054 C17.965935,171.313172 11.7472499,173.884734 7.16178973,178.465615 C2.57632958,183.046497 7.80355737e-06,189.261154 7.80355737e-06,195.74144 L7.80355737e-06,239.570701 C-0.00517282125,246.053024 2.56932108,252.271196 7.15576629,256.853977 C11.7422115,261.436758 17.9638987,264.00774 24.4488125,263.999982 L219.551188,263.999982 C226.034065,264.003848 232.25275,261.432286 236.83821,256.851404 C241.42367,252.270522 243.999992,246.055865 243.999992,239.575579 L243.999992,195.746318 C244.005173,189.263995 241.430679,183.045823 236.844234,178.463042 C232.257788,173.880261 226.036101,171.30928 219.551188,171.317054 Z M163.967995,156.443886 C163.992204,148.484681 170.455247,142.046041 178.417673,142.048714 C182.244681,142.038402 185.918639,143.550138 188.629326,146.25059 C191.340012,148.951042 192.864773,152.618396 192.867351,156.443886 L192.867351,171.317054 L163.967995,171.317054 L163.967995,156.443886 Z M234.239993,239.575579 C234.239993,243.467991 232.690244,247.200394 229.935419,249.951373 C227.180595,252.702351 223.445156,254.246457 219.551188,254.243898 L24.4488125,254.243898 C20.5532578,254.251649 16.8148018,252.709211 14.0588501,249.957107 C11.3028984,247.205003 9.75611623,243.469582 9.76000703,239.575579 L9.76000703,195.746318 C9.76000703,191.853061 11.3078903,188.119404 14.0628552,185.367371 C16.8178201,182.615337 20.5539988,181.070562 24.4488125,181.073121 L219.551188,181.073121 C223.446742,181.065371 227.185198,182.607809 229.94115,185.359912 C232.697102,188.112016 234.243884,191.847438 234.239993,195.74144 L234.239993,239.575579 L234.239993,239.575579 Z" id="形状" fill="#E5EAED"></path>
                    <path d="M83.125,134.324674 C85.8173882,134.324674 88,132.129572 88,129.421777 L88,93.2727157 C88,90.5649204 85.8173882,88.3698185 83.125,88.3698185 C80.4326118,88.3698185 78.25,90.5649204 78.25,93.2727157 L78.25,129.421777 C78.25,132.129572 80.4326118,134.324674 83.125,134.324674 Z M53.875,154 C56.5673882,154 58.75,151.804898 58.75,149.097103 L58.75,112.948042 C58.75,110.240247 56.5673882,108.045145 53.875,108.045145 C51.1826118,108.045145 49,110.240247 49,112.948042 L49,149.097103 C49,151.804898 51.1826118,154 53.875,154 Z M53.875,75.5536453 C56.5673882,75.5536453 58.75,73.3585435 58.75,70.6507482 L58.75,34.5016874 C58.75,31.793892 56.5673882,29.5987902 53.875,29.5987902 C51.1826118,29.5987902 49,31.793892 49,34.5016874 L49,70.6507482 C49,73.3585435 51.1826118,75.5536453 53.875,75.5536453 Z M83.125,45.9548551 C85.8173882,45.9548551 88,43.7597533 88,41.051958 L88,4.90289717 C88,2.19510183 85.8173882,0 83.125,0 C80.4326118,0 78.25,2.19510183 78.25,4.90289717 L78.25,41.051958 C78.25,43.7597533 80.4326118,45.9548551 83.125,45.9548551 Z" id="形状" fill="#E5EAED"></path>
                    <path d="M54,232 C62.2842712,232 69,225.284271 69,217 C69,208.715729 62.2842712,202 54,202 C45.7157288,202 39,208.715729 39,217 C39,225.284271 45.7157288,232 54,232 Z" id="路径" fill="#FFFFFF"></path>
                    <path d="M162.584798,60.7400728 C165.580909,55.2009482 171.397005,51.7471591 177.723335,51.7503121 C184.574172,51.7503121 190.6698,55.7430529 193.406212,61.8223542 C194.097056,63.4503822 195.619942,64.5793601 197.386621,64.7731965 C199.1533,64.9670329 200.887192,64.1953818 201.918543,62.7563095 C202.949894,61.3172373 203.117243,59.4360377 202.355946,57.8393637 C198.003097,48.1923605 188.354009,41.98901 177.718431,42.0000146 C167.783923,41.9980394 158.651352,47.4214057 153.944013,56.1184388 C153.113557,57.6528943 153.169645,59.511229 154.091151,60.9934262 C155.012657,62.4756233 156.659581,63.3565018 158.411544,63.3042433 C160.163506,63.2519847 161.754341,62.2745285 162.584798,60.7400728 L162.584798,60.7400728 Z" id="形状" fill="#F2F4F4"></path>
                    <path d="M201.096036,213.249717 L90.903964,213.249717 C88.1955795,213.249717 86,215.432392 86,218.124859 C86,220.817325 88.1955795,223 90.903964,223 L201.096036,223 C203.804421,223 206,220.817325 206,218.124859 C206,215.432392 203.804421,213.249717 201.096036,213.249717 Z" id="路径" fill="#FFFFFF"></path>
                    <path d="M219.557044,45.0638885 C212.190582,28.5758581 195.850282,17.974762 177.841423,18 C161.018612,17.9951206 145.553727,27.2650414 137.585312,42.130258 C136.306122,44.5118699 137.193408,47.482987 139.567121,48.7664337 C141.940834,50.0498804 144.902097,49.1596417 146.181287,46.7780299 C152.447994,35.0867804 164.61071,27.7960991 177.841423,27.8000362 C192.001539,27.7762583 204.852138,36.1077364 210.648665,49.0700817 C211.353025,50.6808396 212.864215,51.788909 214.607719,51.9730294 C216.351223,52.1571497 218.059232,51.3890396 219.082405,49.9607154 C220.105577,48.5323912 220.286749,46.6632483 219.557044,45.0638885 L219.557044,45.0638885 Z" id="路径" fill="#F2F4F4"></path>
                    <path d="M78,152 C78,154.761424 80.2385763,157 83,157 C85.7614237,157 88,154.761424 88,152 C88,149.238576 85.7614237,147 83,147 C80.2385763,147 78,149.238576 78,152 Z" id="路径" fill="#F2F4F4"></path>
                    <path d="M49,93 C49,95.7614237 51.2385763,98 54,98 C56.7614237,98 59,95.7614237 59,93 C59,90.2385763 56.7614237,88 54,88 C51.2385763,88 49,90.2385763 49,93 Z" id="路径" fill="#F2F4F4"></path>
                    <path d="M78,63 C78,65.7614237 80.2385763,68 83,68 C85.7614237,68 88,65.7614237 88,63 C88,60.2385763 85.7614237,58 83,58 C80.2385763,58 78,60.2385763 78,63 Z" id="路径" fill="#F2F4F4"></path>
                </g>
                <g id="Secure" transform="translate(161.000000, 206.000000)">
                    <circle id="椭圆形" stroke="#FFFFFF" stroke-width="9" fill="#E5EAED" cx="41.5" cy="41.5" r="41.5"></circle>
                    <g id="Group-6" transform="translate(25.000000, 22.000000)">
                        <rect id="Rectangle" fill="#FFFFFF" x="0" y="15" width="34" height="23" rx="3"></rect>
                        <rect id="Rectangle-3" stroke="#FFFFFF" stroke-width="5" x="9.5" y="2.5" width="15" height="23" rx="7.5"></rect>
                    </g>
                </g>
            </g>
        </g>
    </g>
</svg>