<svg width="24" height="24" viewBox="0 0 24 24" fill="none" xmlns="http://www.w3.org/2000/svg">
<g id="gift-01">
<path id="Icon" d="M19 17.8V11H5V17.8C5 18.9201 5 19.4802 5.21799 19.908C5.40973 20.2843 5.71569 20.5903 6.09202 20.782C6.51984 21 7.07989 21 8.2 21L15.8 21C16.9201 21 17.4802 21 17.908 20.782C18.2843 20.5903 18.5903 20.2843 18.782 19.908C19 19.4802 19 18.9201 19 17.8Z" fill="#FDA9FF" fill-opacity="0.5" stroke="#FDA9FF" stroke-linecap="round" stroke-linejoin="round"/>
<g id="Icon_2">
<path d="M19.4 11C19.9601 11 20.2401 11 20.454 10.891C20.6422 10.7951 20.7951 10.6422 20.891 10.454C21 10.2401 21 9.96005 21 9.4V7.6C21 7.03995 21 6.75992 20.891 6.54601C20.7951 6.35785 20.6422 6.20487 20.454 6.10899C20.2401 6 19.9601 6 19.4 6L4.6 6C4.03995 6 3.75992 6 3.54601 6.10899C3.35785 6.20487 3.20487 6.35785 3.10899 6.54601C3 6.75992 3 7.03995 3 7.6L3 9.4C3 9.96005 3 10.2401 3.10899 10.454C3.20487 10.6422 3.35785 10.7951 3.54601 10.891C3.75992 11 4.03995 11 4.6 11L19.4 11Z" fill="#FDA9FF" fill-opacity="0.5"/>
<path d="M8.46429 6H12H14.5357M3 7.6L3 9.4C3 9.96005 3 10.2401 3.10899 10.454C3.20487 10.6422 3.35785 10.7951 3.54601 10.891C3.75992 11 4.03995 11 4.6 11L19.4 11C19.9601 11 20.2401 11 20.454 10.891C20.6422 10.7951 20.7951 10.6422 20.891 10.454C21 10.2401 21 9.96005 21 9.4V7.6C21 7.03995 21 6.75992 20.891 6.54601C20.7951 6.35785 20.6422 6.20487 20.454 6.10899C20.2401 6 19.9601 6 19.4 6L4.6 6C4.03995 6 3.75992 6 3.54601 6.10899C3.35785 6.20487 3.20487 6.35785 3.10899 6.54601C3 6.75992 3 7.03995 3 7.6Z" stroke="#FDA9FF" stroke-linecap="round" stroke-linejoin="round"/>
</g>
<g id="Icon_3">
<path d="M12 6H8.46429C7.94332 6 7.4437 5.78929 7.07533 5.41421C6.70695 5.03914 6.5 4.53043 6.5 4C6.5 3.46957 6.70695 2.96086 7.07533 2.58579C7.4437 2.21071 7.94332 2 8.46429 2C11.2143 2 12 6 12 6Z" fill="#FDA9FF" fill-opacity="0.5"/>
<path d="M12 6H15.5357C16.0567 6 16.5563 5.78929 16.9247 5.41421C17.293 5.03914 17.5 4.53043 17.5 4C17.5 3.46957 17.293 2.96086 16.9247 2.58579C16.5563 2.21071 16.0567 2 15.5357 2C12.7857 2 12 6 12 6Z" fill="#FDA9FF" fill-opacity="0.5"/>
<path d="M12 6H8.46429C7.94332 6 7.4437 5.78929 7.07533 5.41421C6.70695 5.03914 6.5 4.53043 6.5 4C6.5 3.46957 6.70695 2.96086 7.07533 2.58579C7.4437 2.21071 7.94332 2 8.46429 2C11.2143 2 12 6 12 6ZM12 6H15.5357C16.0567 6 16.5563 5.78929 16.9247 5.41421C17.293 5.03914 17.5 4.53043 17.5 4C17.5 3.46957 17.293 2.96086 16.9247 2.58579C16.5563 2.21071 16.0567 2 15.5357 2C12.7857 2 12 6 12 6Z" stroke="#FDA9FF" stroke-linecap="round" stroke-linejoin="round"/>
</g>
<line id="Line 1" x1="12" y1="6" x2="12" y2="22" stroke="white"/>
<line id="Line 2" x1="4" y1="12" x2="20" y2="12" stroke="white"/>
</g>
</svg>
