<svg width="24" height="24" viewBox="0 0 24 24" fill="none" xmlns="http://www.w3.org/2000/svg">
<g id="nav-ic-sync 1">
<path id="path" d="M17.8732 8.2248L17.9613 8.52476L18.2695 8.57694C21.2972 9.08952 23.5 11.5092 23.5 14.542C23.5 17.6769 20.9216 20.2345 17.6273 20.5H6.21173C3.07161 20.5 0.5 18.086 0.5 15.0917C0.5 12.8465 2.04523 10.824 4.12436 10.0652L4.43981 9.95005L4.45258 9.6145C4.58232 6.20581 7.5759 3.5 11.2941 3.5C14.4668 3.5 17.0903 5.5582 17.8732 8.2248Z" fill="#459AF8" fill-opacity="0.5" stroke="#459AF8"/>
<path id="path_2" fill-rule="evenodd" clip-rule="evenodd" d="M6.15385 12.5083C6.29337 9.66525 8.52511 7.3908 11.3149 7.24861C12.9888 7.10653 14.6624 7.81733 15.7784 9.23876L16.4758 8.67018C16.6154 8.67018 16.6154 8.67018 16.6154 8.81236V11.0868C16.6154 11.2289 16.4758 11.2289 16.4758 11.2289L14.2441 10.6603C14.1045 10.6603 14.1045 10.5182 14.2441 10.376L15.0809 9.80744C14.2441 8.81236 12.8492 8.24368 11.4543 8.24368C9.22257 8.38587 7.40932 10.2338 7.26977 12.5083C7.26977 12.7927 6.99083 13.0769 6.71186 13.0769C6.43278 13.0769 6.15385 12.7927 6.15385 12.5083Z" fill="white"/>
<path id="path_3" fill-rule="evenodd" clip-rule="evenodd" d="M11.8461 17.9826C10.1457 18.1214 8.44548 17.4275 7.31181 16.0397L6.60331 16.5947C6.46154 16.5947 6.46154 16.5947 6.46154 16.456V14.2356C6.46154 14.0967 6.60331 14.0967 6.74504 14.0967L9.01224 14.6518C9.15384 14.6518 9.15384 14.7907 9.01224 14.9294L8.30371 15.4846C9.15384 16.3172 10.4292 17.0111 11.8461 16.8723C14.1135 16.7335 15.9555 14.9294 16.0972 12.7089C16.0972 12.4314 16.3806 12.1538 16.664 12.1538C16.9474 12.1538 17.2308 12.4314 17.2308 12.7089C17.0891 15.4846 14.8218 17.8438 11.8461 17.9826Z" fill="white"/>
</g>
</svg>
