<svg width="24" height="24" viewBox="0 0 24 24" fill="none" xmlns="http://www.w3.org/2000/svg">
<g id="nav-ic-synced 1">
<path id="path" d="M17.6333 8.29522L17.7654 8.74516L18.2277 8.82343C21.1458 9.31745 23.25 11.6415 23.25 14.542C23.25 17.527 20.7939 19.9893 17.6171 20.25H6.21173C3.19561 20.25 0.75 17.9342 0.75 15.0917C0.75 12.9606 2.22078 11.026 4.21008 10.3L4.68324 10.1273L4.7024 9.624C4.82641 6.36597 7.69326 3.75 11.2941 3.75C14.359 3.75 16.8826 5.73808 17.6333 8.29522Z" fill="#00EF8B" fill-opacity="0.5" stroke="#00EF8B" stroke-width="1.5"/>
<path id="shap" fill-rule="evenodd" clip-rule="evenodd" d="M7.22702 13.0351C6.93413 12.6746 6.93413 12.0901 7.22702 11.7296C7.51992 11.3691 7.99479 11.3691 8.28768 11.7296L10.9393 14.9932L15.7123 9.11877C16.0052 8.75829 16.4801 8.75829 16.773 9.11877C17.0659 9.47926 17.0659 10.0637 16.773 10.4242L11.4697 16.9513C11.2093 17.2718 10.8052 17.3074 10.5129 17.0581L10.409 16.9513L7.22702 13.0351Z" fill="white"/>
</g>
</svg>
