<svg xmlns="http://www.w3.org/2000/svg" width="20" height="20" viewBox="0 0 20 20" fill="none">
  <g clip-path="url(#clip0_14341_478)">
    <path fill-rule="evenodd" clip-rule="evenodd" d="M8.25 1.66666C8.25 1.25244 7.91422 0.916656 7.5 0.916656C7.08579 0.916656 6.75 1.25244 6.75 1.66666V3.43511C6.65015 3.43983 6.55474 3.44576 6.4636 3.45321C6.00034 3.49106 5.58194 3.57179 5.1912 3.77089C4.57968 4.08247 4.08249 4.57966 3.7709 5.19119C3.57181 5.58193 3.49107 6.00033 3.45322 6.46359C3.44578 6.55472 3.43985 6.65014 3.43513 6.74999H1.66667C1.25246 6.74999 0.916672 7.08578 0.916672 7.49999C0.916672 7.9142 1.25246 8.24999 1.66667 8.24999H3.41667V10.9167H1.66667C1.25246 10.9167 0.916672 11.2524 0.916672 11.6667C0.916672 12.0809 1.25246 12.4167 1.66667 12.4167H3.41754C3.41969 12.8469 3.42719 13.2178 3.45322 13.5364C3.49107 13.9997 3.57181 14.4181 3.7709 14.8088C4.08249 15.4203 4.57968 15.9175 5.1912 16.2291C5.58194 16.4282 6.00034 16.5089 6.4636 16.5468C6.55474 16.5542 6.65015 16.5601 6.75 16.5649V18.3333C6.75 18.7475 7.08579 19.0833 7.5 19.0833C7.91422 19.0833 8.25 18.7475 8.25 18.3333V16.5833H11.75V18.3333C11.75 18.7475 12.0858 19.0833 12.5 19.0833C12.9142 19.0833 13.25 18.7475 13.25 18.3333V16.5649C13.3499 16.5601 13.4453 16.5542 13.5364 16.5468C13.9997 16.5089 14.4181 16.4282 14.8088 16.2291C15.4203 15.9175 15.9175 15.4203 16.2291 14.8088C16.4282 14.4181 16.5089 13.9997 16.5468 13.5364C16.5728 13.2178 16.5803 12.8469 16.5825 12.4167H18.3333C18.7476 12.4167 19.0833 12.0809 19.0833 11.6667C19.0833 11.2524 18.7476 10.9167 18.3333 10.9167H16.5833V8.24999H18.3333C18.7476 8.24999 19.0833 7.9142 19.0833 7.49999C19.0833 7.08578 18.7476 6.74999 18.3333 6.74999H16.5649C16.5602 6.65014 16.5542 6.55472 16.5468 6.46359C16.5089 6.00033 16.4282 5.58193 16.2291 5.19119C15.9175 4.57966 15.4203 4.08247 14.8088 3.77089C14.4181 3.57179 13.9997 3.49106 13.5364 3.45321C13.4453 3.44576 13.3499 3.43983 13.25 3.43511V1.66666C13.25 1.25244 12.9142 0.916656 12.5 0.916656C12.0858 0.916656 11.75 1.25244 11.75 1.66666V3.41666H8.25V1.66666ZM6.56743 12.5H7.72084L8.09849 11.3391H9.93661L10.3135 12.5H11.4669L9.71196 7.40909H8.32488L6.56743 12.5ZM9.66381 10.4989L9.03831 8.57244H8.99854L8.37182 10.4989H9.66381ZM13.156 12.5V7.40909H12.0797V12.5H13.156Z" fill="#775DA6"/>
  </g>
  <defs>
    <clipPath id="clip0_14341_478">
      <rect width="20" height="20" fill="white"/>
    </clipPath>
  </defs>
</svg>