<?xml version="1.0" encoding="UTF-8"?>
<svg width="18px" height="20px" viewBox="0 0 18 20" version="1.1" xmlns="http://www.w3.org/2000/svg" xmlns:xlink="http://www.w3.org/1999/xlink">
    <title>gateway</title>
    <g id="Gateways" stroke="none" stroke-width="1" fill="none" fill-rule="evenodd">
        <g id="Gateway" transform="translate(-45.000000, -262.000000)" fill="#775DA6" fill-rule="nonzero">
            <g id="gateway" transform="translate(45.000000, 262.000000)">
                <path d="M12.876665,9.97387366 C12.5737739,9.97387366 12.2885451,9.88727301 12.0747175,9.71407171 C11.8608898,9.5408704 11.7361257,9.29824241 11.7361257,9.05561442 C11.7361257,7.82493514 10.5061471,6.83724924 9.02664034,6.83724924 C7.52947115,6.83724924 6.31715493,7.82530056 6.31715493,9.05561442 C6.31715493,9.40238244 6.10332731,9.69689772 5.72903501,9.87009902 C5.35474272,10.0433003 4.94474986,10.0433003 4.58811994,9.87009902 C4.23149002,9.69689772 4,9.40201703 4,9.05561442 C4,6.80253589 6.24575378,5 8.99093975,5 C11.7361257,5 13.9995419,6.83724924 13.9995419,9.0731538 C14.0175801,9.55767896 13.5004855,9.97387364 12.876665,9.97387366 L12.876665,9.97387366 Z" id="path"></path>
                <path d="M16.495414,8.08823529 C16.1873885,8.08823529 15.8973248,7.99886877 15.6798726,7.82013574 C15.4624204,7.62330316 15.3355414,7.39102563 15.3355414,7.14064857 C15.3355414,5.26282052 14.1389809,3.54562595 12.1815287,2.61576169 C10.2240764,1.68589744 7.81299362,1.68589744 5.85515924,2.61576169 C3.89732485,3.54562595 2.7011465,5.26282052 2.7011465,7.14064857 C2.7011465,7.65950226 2.17528663,8.08861237 1.54089172,8.08861237 C0.906496808,8.08861237 0.380636943,7.65950226 0.380636943,7.14064857 C0.380636943,4.58295626 2.03006369,2.22209653 4.71286623,0.952488683 C7.37770701,-0.317496228 10.6949044,-0.317496228 13.359363,0.952488683 C16.0238216,2.22247359 17.6552868,4.56523377 17.6552868,7.12292608 C17.6556688,7.65912518 17.1298089,8.08823529 16.495414,8.08823529 Z M16.8760509,11.4864253 L1.12394903,11.4864253 C0.507515916,11.4864253 0,12.076546 0,12.8099547 L0,18.6764706 C0,19.3917798 0.507515916,20 1.12394903,20 L16.8760509,20 C17.4924841,20 18,19.4098793 18,18.6764706 L18,12.8099547 C18,12.076546 17.4924841,11.4864253 16.8760509,11.4864253 Z M3.89732483,16.3691554 C3.69783438,16.5478884 3.44407641,16.6553545 3.20866241,16.6553545 C2.66484075,16.6553545 2.21159236,16.2081448 2.21159236,15.6715686 C2.21159236,15.1349924 2.66484077,14.6877828 3.20866241,14.6877828 C3.75248405,14.6877828 4.20573247,15.1349925 4.20573247,15.6715686 C4.18738852,15.9219457 4.07847132,16.1723228 3.89732483,16.3691554 L3.89732483,16.3691554 Z M6.90649682,16.3691554 C6.70700637,16.5478884 6.4532484,16.6553545 6.21783438,16.6553545 C5.65605094,16.6553545 5.22076432,16.2081448 5.22076432,15.6715686 C5.22076432,15.1349924 5.67401274,14.6877828 6.21783438,14.6877828 C6.77961782,14.6877828 7.21490446,15.1349925 7.21490446,15.6715686 C7.19656051,15.9219457 7.08764331,16.1723228 6.90649682,16.3691554 L6.90649682,16.3691554 Z M9.96993631,16.3691554 C9.77044586,16.5478884 9.51668789,16.6553545 9.28127387,16.6553545 C8.71949043,16.6553545 8.28420381,16.2081448 8.28420381,15.6715686 C8.28420381,15.1349924 8.73745223,14.6877828 9.28127387,14.6877828 C9.84305731,14.6877828 10.2783439,15.1349925 10.2783439,15.6715686 C10.2779618,15.9219457 10.1690446,16.1723228 9.96993631,16.3691554 L9.96993631,16.3691554 Z M7.68573248,9.50113122 C7.68573248,10.1987179 8.26585987,10.7530166 8.99082803,10.7530166 C9.71579619,10.7530166 10.2959236,10.1987179 10.2959236,9.50113122 C10.2959236,8.8035445 9.71579616,8.24924586 8.99082803,8.24924586 C8.26585987,8.26696832 7.68573248,8.82164405 7.68573248,9.50113122 Z" id="shape"></path>
            </g>
        </g>
    </g>
</svg>