<?xml version="1.0" encoding="UTF-8"?>
<svg width="21px" height="24px" viewBox="0 0 21 24" version="1.1" xmlns="http://www.w3.org/2000/svg" xmlns:xlink="http://www.w3.org/1999/xlink">
    <title>icon/overview</title>
    <defs>
        <path d="M10.3936,19.3112 L11.4536,19.9242 L11.4546,19.9222 L14.4556,21.6552 L14.4546,21.6562 L14.4556,21.6562 L11.4546,23.3882 L11.4536,23.3872 L10.3936,24.0002 L9.3316,23.3872 L9.3306,23.3882 L6.3306,21.6562 L6.3316,21.6562 L6.3306,21.6552 L9.3306,19.9222 L9.3316,19.9242 L10.3936,19.3112 Z M10.3936,0 L14.7236,2.5 L14.7236,7.501 L11.8866,9.138 L11.8866,11.131 L13.6246,12.134 L16.4546,10.5 L20.7846,13.001 L20.7846,18 L16.4546,20.5 L12.1256,18 L12.1256,14.732 L10.3866,13.729 L8.6616,14.725 L8.6616,18 L4.3316,20.5 L0.0016,18 L0.0016,13.001 L4.3316,10.5 L7.1546,12.131 L8.8866,11.131 L8.8866,9.131 L6.0636,7.501 L6.0636,2.5 L10.3936,0 Z M16.7233,3.6548 L19.7243,5.3868 L19.7243,5.3878 L20.7853,5.9998 L20.7853,7.2258 L20.7863,7.2258 L20.7863,10.6898 L20.7853,10.6898 L20.7853,10.6908 L17.7853,8.9588 L17.7853,8.9578 L16.7233,8.3448 L16.7233,7.1198 L16.7223,7.1198 L16.7223,3.6548 L16.7233,3.6558 L16.7233,3.6548 Z M4.063,3.6549 L4.063,7.1199 L4.062,7.1199 L4.062,8.3449 L3.002,8.9579 L3.002,8.9589 L0.002,10.6909 L0.002,10.6899 L0.001,10.6909 L0.001,5.9999 L1.062,5.3869 L4.062,3.6549 L4.063,3.6549 Z" id="path-1"></path>
    </defs>
    <g id="page-1" stroke="none" stroke-width="1" fill="none" fill-rule="evenodd">
        <g id="Bucket" transform="translate(-43.000000, -249.000000)">
            <g id="List/Item/2" transform="translate(0.000000, 221.000000)">
                <g id="icon/overview" transform="translate(43.000000, 28.000000)">
                    <mask id="mask-2" fill="white">
                        <use xlink:href="#path-1"></use>
                    </mask>
                    <use id="mask" fill="#231916" xlink:href="#path-1"></use>
                    <g id="group" mask="url(#mask-2)">
                        <g transform="translate(-3.000000, -1.000000)" id="Colors/Background">
                            <rect id="Color" fill="#34A9FF" x="0" y="0" width="26" height="26"></rect>
                        </g>
                    </g>
                </g>
            </g>
        </g>
    </g>
</svg>