<?xml version="1.0" encoding="UTF-8"?>
<svg width="22px" height="22px" viewBox="0 0 22 22" version="1.1" xmlns="http://www.w3.org/2000/svg" xmlns:xlink="http://www.w3.org/1999/xlink">
    <title>icon/overview</title>
    <defs>
        <path d="M17.4996,10.9997 C21.0896,10.9997 23.9996,13.9107 23.9996,17.4997 C23.9996,21.0897 21.0896,23.9997 17.4996,23.9997 C13.9106,23.9997 10.9996,21.0897 10.9996,17.4997 C10.9996,13.9107 13.9106,10.9997 17.4996,10.9997 Z M1.9996,17.0128 C1.9996,18.3688 5.4566,19.4708 9.7656,19.5098 C10.0936,20.7708 10.7196,21.9078 11.5676,22.8478 C11.0576,22.8798 10.5396,22.9058 9.9996,22.9058 C5.68200909,22.9058 2.16285,21.8370856 2.00511838,20.499543 L1.9996,20.4058 L1.9996,17.0128 Z M18.0496,12.5867 L16.9556,12.5867 L16.9556,13.1407 C16.4506,13.2637 16.0696,13.5507 15.8136,14.0017 C15.6046,14.3677 15.4986,14.7717 15.4986,15.2127 C15.4986,15.6737 15.6116,16.0997 15.8336,16.4927 C16.0116,16.8067 16.2996,17.1527 16.6966,17.5317 C17.2056,18.0137 17.5916,18.3767 17.8516,18.6187 C18.1706,18.9747 18.3296,19.3277 18.3296,19.6777 C18.3296,19.9237 18.2866,20.1137 18.2006,20.2457 C18.0326,20.5157 17.8056,20.6547 17.5236,20.6637 C17.3236,20.6717 17.1446,20.5917 16.9906,20.4237 C16.7856,20.2087 16.6556,19.8497 16.6006,19.3437 L16.6006,19.3437 L15.3626,19.4317 C15.3946,19.9787 15.5296,20.4567 15.7656,20.8687 C16.0436,21.3477 16.4406,21.6527 16.9556,21.7847 L16.9556,21.7847 L16.9556,22.4137 L18.0496,22.4137 L18.0496,21.8127 C18.4326,21.7437 18.7546,21.5877 19.0146,21.3477 C19.4476,20.9377 19.6546,20.3617 19.6366,19.6227 C19.6266,19.2537 19.4966,18.8457 19.2466,18.4007 C19.0776,18.0997 18.8336,17.7837 18.5146,17.4547 C18.4146,17.3517 18.2136,17.1757 17.9126,16.9297 C17.6586,16.7147 17.4686,16.5357 17.3456,16.3887 C17.0076,15.9787 16.8396,15.5777 16.8396,15.1857 C16.8396,14.9357 16.8896,14.7247 16.9906,14.5567 C17.1136,14.3457 17.2926,14.2427 17.5306,14.2427 C17.7576,14.2427 17.9266,14.3107 18.0356,14.4477 C18.2006,14.6527 18.3006,14.9277 18.3366,15.2737 L18.3366,15.2737 L19.5816,15.0487 C19.5356,14.4437 19.3126,13.9527 18.9116,13.5777 C18.6836,13.3637 18.3966,13.2177 18.0496,13.1407 L18.0496,13.1407 L18.0496,12.5867 Z M2,12.341 C2,13.718 5.562,14.835 9.964,14.841 C9.669,15.674 9.5,16.566 9.5,17.5 C9.5,17.745 9.515,17.987 9.537,18.227 C5.43504762,18.1528095 2.15930102,17.1170947 2.00563846,15.8287125 L2,15.734 L2,12.341 Z M18.0003,7.7377 L18.0003,9.5257 C17.8343,9.5147 17.6693,9.4997 17.5003,9.4997 C14.4973,9.4997 11.8783,11.1647 10.5103,13.6187 C10.3403,13.6217 10.1733,13.6307 10.0003,13.6307 C5.68173182,13.6307 2.16350558,12.5619856 2.00581687,11.224443 L2.0003,11.1307 L2.0003,7.7377 C2.0003,9.1187 5.5813,10.2377 10.0003,10.2377 C14.4183,10.2377 18.0003,9.1187 18.0003,7.7377 Z M10,2 C14.418,2 18,3.119 18,4.5 L18,4.5 L18,6.499 C18,7.879 14.418,8.999 10,8.999 C5.582,8.999 2,7.879 2,6.499 L2,6.499 L2,4.5 C2,3.119 5.582,2 10,2 Z" id="path-1"></path>
    </defs>
    <g id="page-1" stroke="none" stroke-width="1" fill="none" fill-rule="evenodd">
        <g id="Bucket" transform="translate(-42.000000, -560.000000)">
            <g id="List/Item/1" transform="translate(0.000000, 531.000000)">
                <g id="icon/overview" transform="translate(40.000000, 27.000000)">
                    <mask id="mask-2" fill="white">
                        <use xlink:href="#path-1"></use>
                    </mask>
                    <use id="mask" fill="#231916" xlink:href="#path-1"></use>
                    <g id="group" mask="url(#mask-2)">
                        <g transform="translate(0.000000, -0.000000)" id="Colors/Background">
                            <rect id="Color" fill="#775DA6" x="0" y="0" width="26" height="26"></rect>
                        </g>
                    </g>
                </g>
            </g>
        </g>
    </g>
</svg>