<svg width="18" height="18" viewBox="0 0 18 18" fill="none" xmlns="http://www.w3.org/2000/svg">
<path d="M9.8 5H8.2C7.0799 5 6.51984 5 6.09202 5.21799C5.71569 5.40973 5.40973 5.71569 5.21799 6.09202C5 6.51984 5 7.0799 5 8.2V9.8C5 10.9201 5 11.4802 5.21799 11.908C5.40973 12.2843 5.71569 12.5903 6.09202 12.782C6.51984 13 7.0799 13 8.2 13H9.8C10.9201 13 11.4802 13 11.908 12.782C12.2843 12.5903 12.5903 12.2843 12.782 11.908C13 11.4802 13 10.9201 13 9.8V8.2C13 7.0799 13 6.51984 12.782 6.09202C12.5903 5.71569 12.2843 5.40973 11.908 5.21799C11.4802 5 10.9201 5 9.8 5Z" fill="#775DA6" stroke="#775DA6" stroke-linecap="round" stroke-linejoin="round"/>
<path d="M3.5 16.5C4.6 16.5 5.5 15.6 5.5 14.5V12.5H3.5C2.4 12.5 1.5 13.4 1.5 14.5C1.5 15.6 2.4 16.5 3.5 16.5Z" stroke="#775DA6" stroke-width="2" stroke-linecap="round" stroke-linejoin="round"/>
<path d="M3.5 5.5H5.5V3.5C5.5 2.4 4.6 1.5 3.5 1.5C2.4 1.5 1.5 2.4 1.5 3.5C1.5 4.6 2.4 5.5 3.5 5.5Z" stroke="#775DA6" stroke-width="2" stroke-linecap="round" stroke-linejoin="round"/>
<path d="M12.5 5.5H14.5C15.6 5.5 16.5 4.6 16.5 3.5C16.5 2.4 15.6 1.5 14.5 1.5C13.4 1.5 12.5 2.4 12.5 3.5V5.5Z" stroke="#775DA6" stroke-width="2" stroke-linecap="round" stroke-linejoin="round"/>
<path d="M14.5 16.5C15.6 16.5 16.5 15.6 16.5 14.5C16.5 13.4 15.6 12.5 14.5 12.5H12.5V14.5C12.5 15.6 13.4 16.5 14.5 16.5Z" stroke="#775DA6" stroke-width="2" stroke-linecap="round" stroke-linejoin="round"/>
</svg>
