<svg xmlns="http://www.w3.org/2000/svg" width="18" height="18" viewBox="0 0 18 18" fill="none">
  <g clip-path="url(#clip0_13775_2294)">
    <path d="M1.5 6L8.37904 1.87057C8.60348 1.73584 8.71571 1.66847 8.83552 1.64213C8.94149 1.61884 9.05126 1.61881 9.15725 1.64206C9.27707 1.66835 9.38932 1.73567 9.61383 1.87031L16.5 6L9.62098 10.1294C9.39654 10.2642 9.28432 10.3315 9.1645 10.3579C9.05853 10.3812 8.94876 10.3812 8.84277 10.3579C8.72295 10.3317 8.6107 10.2643 8.38619 10.1297L1.5 6Z" fill="#898989" stroke="#898989" stroke-width="1.5" stroke-linecap="round" stroke-linejoin="round"/>
    <path d="M8.05934 5.8125L8.37907 5.62057C8.60352 5.48584 8.71574 5.41847 8.83555 5.39213C8.94153 5.36884 9.0513 5.36881 9.15728 5.39206C9.2771 5.41835 9.38936 5.48567 9.61386 5.6203L9.93434 5.8125L10.4033 6.09375L9.93434 6.375L9.61386 6.5672C9.38936 6.70183 9.2771 6.76915 9.15728 6.79544C9.0513 6.81869 8.94153 6.81866 8.83555 6.79537C8.71574 6.76903 8.60352 6.70166 8.37907 6.56693L8.05934 6.375L7.59082 6.09375L8.05934 5.8125Z" stroke="white" stroke-width="1.5" stroke-linecap="round" stroke-linejoin="round"/>
    <path d="M3.37598 13.125L5.25189 14.25L8.38625 16.1297C8.61076 16.2643 8.72301 16.3317 8.84283 16.3579C8.94882 16.3812 9.05859 16.3812 9.16456 16.3579C9.28437 16.3315 9.3966 16.2642 9.62104 16.1294L12.7519 14.25L14.626 13.125" stroke="#898989" stroke-width="1.5" stroke-linecap="round" stroke-linejoin="round"/>
    <path d="M5.01439 8.34375L4.21793 8.8125L2.625 9.75L8.3948 13.1422C8.61627 13.2725 8.727 13.3376 8.84495 13.363C8.9493 13.3855 9.05725 13.3855 9.16159 13.3629C9.27953 13.3374 9.39023 13.2723 9.61165 13.142L15.375 9.75L13.7804 8.8125L12.9831 8.34375" stroke="#898989" stroke-width="1.5" stroke-linecap="round" stroke-linejoin="round"/>
  </g>
  <defs>
    <clipPath id="clip0_13775_2294">
      <rect width="18" height="18" fill="white"/>
    </clipPath>
  </defs>
</svg>