<?xml version="1.0" encoding="UTF-8"?>
<svg width="23px" height="19px" viewBox="0 0 23 19" version="1.1" xmlns="http://www.w3.org/2000/svg" xmlns:xlink="http://www.w3.org/1999/xlink">
    <title>团队</title>
    <g id="页面-1" stroke="none" stroke-width="1" fill="none" fill-rule="evenodd">
        <g id="Member-移除" transform="translate(-43.000000, -509.000000)" fill="#898989" fill-rule="nonzero">
            <g id="编组-4" transform="translate(0.000000, 0.000000)">
                <g id="团队" transform="translate(43.000000, 509.000000)">
                    <path d="M13.5832806,8.96847715 C16.5493984,9.5895756 20,11.61206 20,17.4446442 C20,19 17.9947752,19 11.5,19 C4.92447752,19 3,19 3,17.4446442 C3,11.6903498 6.44791007,9.59218526 9.41671944,8.96847715 C7.09119696,7.7236706 6.28910703,4.8478282 7.41149462,2.51479453 C8.5338822,0.181760865 11.341197,-0.674206745 13.5052248,0.57059981 C15.6692527,1.81540636 16.5520899,4.69124876 15.348955,6.94599271 C14.9452185,7.88025004 14.3046232,8.50134849 13.5832806,8.96847715 Z" id="路径"></path>
                    <path d="M7.20305701,8.85199799 C7.44427089,8.78016096 7.50585741,8.46715675 7.30570122,8.31322026 C5.52995649,6.95344788 4.98594221,4.42375813 5.95849604,2.33791862 C6.10219792,2.03004562 6.27412697,1.74782872 6.47171706,1.4938335 C6.63594779,1.28345362 6.46658485,0.978146237 6.19970992,1.00123671 C5.05009483,1.09872983 3.96463238,1.80683771 3.41035368,2.99471433 C2.63538994,4.65466288 3.04596675,6.65840293 4.42139909,7.77700813 C4.61129086,7.93351023 4.55483655,8.23625201 4.31875488,8.31065465 C2.19658596,8.97258158 0,10.7351545 0,14.8991367 C0,15.5379731 0.39261408,15.8458461 1.46781212,15.997217 C1.63974116,16.0203075 1.79883967,15.8971583 1.81680241,15.7226969 C2.24020975,11.4329999 4.7806538,9.5678027 7.20305701,8.85199799 L7.20305701,8.85199799 Z M15.796943,8.85199799 C15.5557291,8.78016096 15.4941426,8.46715675 15.6942988,8.31322026 C17.4700435,6.95344788 18.0140578,4.42375813 17.041504,2.33791862 C16.8978021,2.03004562 16.725873,1.74782872 16.5282829,1.4938335 C16.3640522,1.28345362 16.5334152,0.978146237 16.8002901,1.00123671 C17.9499052,1.09872983 19.0353676,1.80683771 19.5896463,2.99471433 C20.3646101,4.65466288 19.9540332,6.65840293 18.5786009,7.77700813 C18.3887091,7.93351023 18.4451634,8.23625201 18.6812451,8.31065465 C20.803414,8.97258158 23,10.7351545 23,14.8991367 C23,15.5379731 22.6073859,15.8458461 21.5321879,15.997217 C21.3602588,16.0203075 21.2011603,15.8971583 21.1831976,15.7226969 C20.7597902,11.4329999 18.2193462,9.5678027 15.796943,8.85199799 L15.796943,8.85199799 Z" id="形状"></path>
                </g>
            </g>
        </g>
    </g>
</svg>