<?xml version="1.0" encoding="UTF-8"?>
<svg width="19px" height="19px" viewBox="0 0 19 19" version="1.1" xmlns="http://www.w3.org/2000/svg" xmlns:xlink="http://www.w3.org/1999/xlink">
    <title>设置---账户管理</title>
    <g id="页面-1" stroke="none" stroke-width="1" fill="none" fill-rule="evenodd">
        <g id="Owner-账户设置-1" transform="translate(-44.000000, -509.000000)" fill="#898989" fill-rule="nonzero">
            <g id="设置---账户管理" transform="translate(44.000000, 509.000000)">
                <path d="M12.472916,8.7136111 C13.5607633,8.7136111 14.4476179,8.97644443 15.2909586,9.54538888 L15.5665466,9.74383332 L15.6193849,9.78394445 C15.6817021,9.832142 15.7085608,9.91438981 15.6870063,9.99101763 C15.6654518,10.0676454 15.5999113,10.1229143 15.5219967,10.1301667 L15.4691584,10.127 C15.1759576,10.0678889 15.1604169,10.0721111 14.8506395,10.0721111 C12.7008796,10.0701043 10.8345428,11.5807871 10.3504072,13.7147675 C9.86627155,15.8487478 10.892606,18.04064 12.8251713,19 L3.80950702,19 C2.57855402,19 1.42346935,18.3939729 0.708498277,17.3730742 C-0.00647279868,16.3521755 -0.193207858,15.0422155 0.20717827,13.8562778 L0.679614815,12.4545 C1.43478877,10.2162685 3.50158101,8.7136111 5.82461469,8.7136111 L12.472916,8.7136111 L12.472916,8.7136111 Z M16.1798853,10.9725 C16.5456092,11.0675 16.8895762,11.2142222 17.2055699,11.4052778 C17.0305034,11.805044 17.1155166,12.2733972 17.4193323,12.5829343 C17.7231481,12.8924714 18.1828445,12.9790855 18.5752215,12.8007222 C18.7617096,13.1226667 18.906756,13.4731111 19,13.8457222 C18.5989609,14.0020163 18.3341059,14.3941471 18.3341059,14.8316111 C18.3341059,15.2690751 18.5989609,15.6612059 19,15.8175 C18.906756,16.1890555 18.7617096,16.5395 18.5741855,16.8625 C18.1819594,16.6842636 17.7224642,16.7710526 17.4190118,17.0806879 C17.1155594,17.3903233 17.0310704,17.8586024 17.206606,18.2579444 C16.8895762,18.4479444 16.5456092,18.5946667 16.1809213,18.6896667 C16.028147,18.2797705 15.6425693,18.0087747 15.2122192,18.0088333 C14.770864,18.0088333 14.3947796,18.2917222 14.2445531,18.6896667 C13.8841547,18.5959676 13.5387626,18.4502327 13.2188685,18.2568889 C13.3935444,17.8573622 13.3085634,17.3894865 13.0051268,17.0801017 C12.7016902,16.7707168 12.2425269,16.6837815 11.8502529,16.8614444 C11.6602782,16.5356305 11.5172245,16.1837033 11.4254744,15.8164445 C11.8270867,15.6610678 12.0929215,15.2692933 12.0937235,14.8316111 C12.0937235,14.3808889 11.8150274,13.9977222 11.4254744,13.8446667 C11.5187185,13.4731111 11.6627287,13.1226667 11.8502529,12.7996667 C12.242479,12.9779031 12.7019742,12.8911141 13.0054266,12.5814787 C13.308879,12.2718434 13.393368,11.8035643 13.2178324,11.4042222 C13.5358983,11.2142222 13.8798652,11.0675 14.2445531,10.9735556 C14.3975298,11.3826757 14.7825091,11.6531206 15.2122192,11.6533333 C15.6546104,11.6533333 16.0306948,11.3704445 16.1798853,10.9735556 L16.1798853,10.9725 Z M15.2754179,13.2398333 C14.6946632,13.2400219 14.1581223,13.5558597 13.8679052,14.0683737 C13.5776881,14.5808878 13.5778856,15.2122149 13.8684232,15.7245404 C14.1589609,16.2368659 14.6956992,16.5523552 15.276454,16.5521668 C16.1741505,16.5520621 16.9018229,15.8106017 16.9018229,14.896 C16.9018229,13.9813983 16.1741505,13.2399379 15.276454,13.2398333 L15.2754179,13.2398333 Z M9.03946259,0 C10.3924038,-0.000103251729 11.6426163,0.7352154 12.3191161,1.92894435 C12.995616,3.12267329 12.995616,4.59343781 12.3191161,5.78716675 C11.6426163,6.9808957 10.3924038,7.71621435 9.03946259,7.7161111 C6.94821198,7.7159515 5.25300146,5.98868794 5.25300146,3.85805555 C5.25300146,1.72742316 6.94821198,0.000159596919 9.03946259,0 L9.03946259,0 Z" id="形状"></path>
            </g>
        </g>
    </g>
</svg>