<svg xmlns="http://www.w3.org/2000/svg" width="24" height="24" viewBox="0 0 24 24" fill="none">
  <path d="M18.5 6H21V5.5C21 5.03534 21 4.80302 20.9616 4.60982C20.8038 3.81644 20.1836 3.19624 19.3902 3.03843C19.197 3 18.9647 3 18.5 3V6Z" fill="#898989" stroke="#898989" stroke-width="2" stroke-linecap="round" stroke-linejoin="round"/>
  <path d="M18.1579 3H6.22298C5.54755 3 5 3.54755 5 4.22298V16.5V17.8C5 18.9201 5 19.4802 5.21799 19.908C5.40973 20.2843 5.71569 20.5903 6.09202 20.782C6.51984 21 7.0799 21 8.2 21H15.5C15.9647 21 16.197 21 16.3902 20.9616C17.1836 20.8038 17.8038 20.1836 17.9616 19.3902C18 19.197 18 18.9647 18 18.5V6V3.69926C18 3.58428 18.0831 3.48614 18.1966 3.46724C18.4814 3.41977 18.4466 3 18.1579 3Z" fill="#898989" stroke="#898989" stroke-width="2" stroke-linecap="round" stroke-linejoin="round"/>
  <path d="M3 18H14.5V18C14.5 18.9604 14.8815 19.8815 15.5607 20.5607L16 21H6C5.06812 21 4.60218 21 4.23463 20.8478C3.74458 20.6448 3.35523 20.2554 3.15224 19.7654C3 19.3978 3 18.9319 3 18V18Z" stroke="#898989" stroke-width="2" stroke-linecap="round" stroke-linejoin="round"/>
  <line x1="8" y1="9" x2="10" y2="9" stroke="white" stroke-width="2" stroke-linecap="round" stroke-linejoin="round"/>
  <line x1="8" y1="13" x2="11" y2="13" stroke="white" stroke-width="2" stroke-linecap="round" stroke-linejoin="round"/>
</svg>