<?xml version="1.0" encoding="UTF-8"?>
<svg width="24px" height="20px" viewBox="0 0 24 20" version="1.1" xmlns="http://www.w3.org/2000/svg" xmlns:xlink="http://www.w3.org/1999/xlink">
    <title>Colors/Background</title>
    <defs>
        <path d="M17.5767077,0 C18.1858903,0 18.6517357,0.095959596 18.9742441,0.287878788 C19.2967525,0.47979798 19.5744681,0.848484848 19.8073908,1.39393939 C19.8969765,1.61616162 20.0403135,1.95959596 20.237402,2.42424242 C20.4344905,2.88888889 20.6584546,3.41414141 20.9092945,4 C21.1601344,4.58585859 21.4199328,5.20707071 21.6886898,5.86363636 C21.9574468,6.52020202 22.212766,7.14141414 22.4546473,7.72727273 C22.6965286,8.31313131 22.9115342,8.83333333 23.0996641,9.28787879 C23.287794,9.74242424 23.4176932,10.0707071 23.4893617,10.2727273 C23.5789474,10.4949495 23.6550952,10.6616162 23.7178052,10.7727273 C23.7805151,10.8838384 23.8342665,11.0050505 23.8790594,11.1363636 C23.9238522,11.2676768 23.9552072,11.4242424 23.9731243,11.6060606 C23.9910414,11.7878788 24,12.040404 24,12.3636364 C24,12.6060606 23.9955207,12.979798 23.9865622,13.4848485 C23.9776036,13.989899 23.9731243,14.5252525 23.9731243,15.0909091 L23.9731243,16.7878788 L23.9731243,17.969697 C23.9731243,18.5353535 23.825308,19.0151515 23.5296753,19.4090909 C23.2340426,19.8030303 22.8085106,20 22.2530795,20 L1.61254199,20 C1.09294513,20 0.698768197,19.8131313 0.430011198,19.4393939 C0.161254199,19.0656566 0.0179171333,18.5858586 0,18 L0,16.9393939 C0,16.4747475 0.00447928331,15.979798 0.0134378499,15.4545455 C0.0223964166,14.9292929 0.0268756999,14.4040404 0.0268756999,13.8787879 L0.0268756999,12.6060606 C0.0268756999,12.2626263 0.0313549832,11.989899 0.0403135498,11.7878788 C0.0492721165,11.5858586 0.071668533,11.4090909 0.1075028,11.2575758 C0.143337066,11.1060606 0.183650616,10.9494949 0.228443449,10.7878788 C0.273236282,10.6262626 0.340425532,10.4242424 0.430011198,10.1818182 C0.483762598,10.020202 0.600223964,9.71212121 0.779395297,9.25757576 C0.958566629,8.8030303 1.17357223,8.28282828 1.42441209,7.6969697 C1.67525196,7.11111111 1.94848824,6.48484848 2.24412094,5.81818182 C2.53975364,5.15151515 2.8174692,4.52020202 3.07726764,3.92424242 C3.33706607,3.32828283 3.57446809,2.7979798 3.78947368,2.33333333 L4.21948488,1.33333333 C4.45240761,0.808080808 4.73908175,0.454545455 5.07950728,0.272727273 C5.41993281,0.0909090909 5.82306831,0 6.28891377,0 L17.5767077,0 Z M22.2262038,13.6181818 C22.2262038,13.0727273 21.9753639,12.8 21.4736842,12.8 L2.44568869,12.8272727 C2.14109742,12.8272727 1.90817469,12.9136364 1.74692049,13.0863636 C1.58566629,13.2590909 1.50503919,13.4818182 1.50503919,13.7545455 L1.50503919,17.6272727 C1.50503919,17.8454545 1.56326988,18.0272727 1.67973124,18.1727273 C1.79619261,18.3181818 1.97984323,18.3909091 2.23068309,18.3909091 L21.3661814,18.4181818 C21.7245241,18.4181818 21.9574468,18.3318182 22.0649496,18.1590909 C22.1724524,17.9863636 22.2262038,17.7727273 22.2262038,17.5181818 L22.2262038,13.6181818 Z M6.39641657,2.41818182 C6.14557671,2.41818182 5.93505039,2.50454545 5.76483763,2.67727273 C5.59462486,2.85 5.50951848,3.06363636 5.50951848,3.31818182 C5.50951848,3.57272727 5.59462486,3.78636364 5.76483763,3.95909091 C5.93505039,4.13181818 6.14557671,4.21818182 6.39641657,4.21818182 C6.64725644,4.21818182 6.85330347,4.13181818 7.01455767,3.95909091 C7.17581187,3.78636364 7.25643897,3.57272727 7.25643897,3.31818182 C7.25643897,3.06363636 7.17581187,2.85 7.01455767,2.67727273 C6.85330347,2.50454545 6.64725644,2.41818182 6.39641657,2.41818182 Z M4.32698768,8.32727273 C4.07614782,8.32727273 3.8656215,8.41363636 3.69540873,8.58636364 C3.52519597,8.75909091 3.44008959,8.97272727 3.44008959,9.22727273 C3.44008959,9.48181818 3.52519597,9.69545455 3.69540873,9.86818182 C3.8656215,10.0409091 4.07614782,10.1272727 4.32698768,10.1272727 C4.57782755,10.1272727 4.78835386,10.0409091 4.95856663,9.86818182 C5.1287794,9.69545455 5.21388578,9.48181818 5.21388578,9.22727273 C5.21388578,8.97272727 5.1287794,8.75909091 4.95856663,8.58636364 C4.78835386,8.41363636 4.57782755,8.32727273 4.32698768,8.32727273 Z M16.6898096,3.31818182 C16.6898096,3.57272727 16.7704367,3.78636364 16.9316909,3.95909091 C17.0929451,4.13181818 17.2989922,4.21818182 17.549832,4.21818182 C17.8006719,4.21818182 18.0111982,4.13181818 18.181411,3.95909091 C18.3516237,3.78636364 18.4367301,3.57272727 18.4367301,3.31818182 C18.4367301,3.06363636 18.3516237,2.85 18.181411,2.67727273 C18.0111982,2.50454545 17.8006719,2.41818182 17.549832,2.41818182 C17.2989922,2.41818182 17.0929451,2.50454545 16.9316909,2.67727273 C16.7704367,2.85 16.6898096,3.06363636 16.6898096,3.31818182 L16.6898096,3.31818182 Z M18.7323628,9.22727273 C18.7323628,9.48181818 18.8174692,9.69545455 18.987682,9.86818182 C19.1578947,10.0409091 19.3684211,10.1272727 19.6192609,10.1272727 C19.8701008,10.1272727 20.0761478,10.0409091 20.237402,9.86818182 C20.3986562,9.69545455 20.4792833,9.48181818 20.4792833,9.22727273 C20.4792833,8.97272727 20.3986562,8.75909091 20.237402,8.58636364 C20.0761478,8.41363636 19.8701008,8.32727273 19.6192609,8.32727273 C19.3684211,8.32727273 19.1578947,8.41363636 18.987682,8.58636364 C18.8174692,8.75909091 18.7323628,8.97272727 18.7323628,9.22727273 Z M4.81075028,17.6272727 L4.00447928,17.6272727 L4.00447928,13.7545455 L4.81075028,13.7545455 L4.81075028,17.6272727 Z M7.25643897,17.6272727 L6.45016797,17.6272727 L6.45016797,13.7545455 L7.25643897,13.7545455 L7.25643897,17.6272727 L7.25643897,17.6272727 Z M9.72900336,17.6272727 L8.92273236,17.6272727 L8.92273236,13.7545455 L9.72900336,13.7545455 L9.72900336,17.6272727 L9.72900336,17.6272727 Z M12.174692,17.6272727 L11.3684211,17.6272727 L11.3684211,13.7545455 L12.174692,13.7545455 L12.174692,17.6272727 Z M14.7010078,17.6272727 L13.8947368,17.6272727 L13.8947368,13.7545455 L14.7010078,13.7545455 L14.7010078,17.6272727 Z M17.2004479,17.6272727 L16.3941769,17.6272727 L16.3941769,13.7545455 L17.2004479,13.7545455 L17.2004479,17.6272727 Z M19.5655095,17.6272727 L18.7592385,17.6272727 L18.7592385,13.7545455 L19.5655095,13.7545455 L19.5655095,17.6272727 Z" id="path-1"></path>
    </defs>
    <g id="cc" stroke="none" stroke-width="1" fill="none" fill-rule="evenodd">
        <g id="icon/Usage--" transform="translate(-1.000000, -3.000000)">
            <g id="Colors/Background" transform="translate(1.000000, 3.000000)">
                <mask id="mask-2" fill="white">
                    <use xlink:href="#path-1"></use>
                </mask>
                <use id="mask" fill="#000000" fill-rule="nonzero" xlink:href="#path-1"></use>
                <g id="g" mask="url(#mask-2)">
                    <g transform="translate(-1.000000, -2.000000)" id="Colors/Background">
                        <rect id="Color" fill="#775DA6" x="0" y="0" width="26" height="26"></rect>
                    </g>
                </g>
            </g>
        </g>
    </g>
</svg>