<?xml version="1.0" encoding="UTF-8"?>
<svg width="20px" height="20px" viewBox="0 0 20 20" version="1.1" xmlns="http://www.w3.org/2000/svg" xmlns:xlink="http://www.w3.org/1999/xlink">
    <title>dol</title>
    <g id="Overview" stroke="none" stroke-width="1" fill="none" fill-rule="evenodd">
        <g transform="translate(-44.000000, -403.000000)" fill="#898989" fill-rule="nonzero" id="g-4">
            <g transform="translate(0.000000, -1.000000)">
                <g id="dol" transform="translate(44.000000, 404.000000)">
                    <path d="M18.3003141,5.81486437 C16.8060192,2.29164291 13.3508685,0.00244288297 9.52385911,2.46745176e-05 C6.99712177,-0.00573798037 4.5727699,0.998098936 2.78973213,2.78840935 C0.999061055,4.57131266 -0.00524075076,6.99563722 2.46873353e-05,9.52253633 C-0.0057409407,12.0499227 0.998610419,14.4748431 2.78973213,16.2579861 C4.57410077,18.0463078 6.99758631,19.049786 9.52385911,19.0463739 C12.0510546,19.0524865 14.475948,18.0486225 16.2593088,16.2579861 C18.0499453,14.4746252 19.0538093,12.0497318 19.0476966,9.52253633 C19.0476966,8.23682205 18.7963459,6.98946755 18.3003141,5.81486437 L18.3003141,5.81486437 Z M9.72094906,8.79899135 L10.0013723,8.94317126 C10.939203,9.42994376 11.4630126,9.7738591 11.8135416,10.1283564 C12.189203,10.5106316 12.3783564,10.9246527 12.4431713,11.5106316 C12.5066633,12.0939649 12.3347057,12.6561342 11.944494,13.1362929 C11.5362624,13.6202012 10.983646,13.9604868 10.3677745,14.1071924 L10.2579861,14.1349702 L10.2579861,15.236822 C10.2579861,15.6415386 9.92989846,15.9696263 9.52518186,15.9696263 C9.12046526,15.9696263 8.79237763,15.6415386 8.79237763,15.236822 L8.79237763,14.1415839 L8.68126651,14.1138062 C8.27094223,14.0174616 7.87970291,13.8529175 7.5238591,13.6270337 C7.24633017,13.4607833 6.99455738,13.2549089 6.77650461,13.0159226 C6.51058974,12.7105588 6.5425694,12.2474459 6.84793319,11.9815311 C7.15329697,11.7156162 7.61640982,11.7475958 7.8823247,12.0529596 C7.94317127,12.1230654 8.09131941,12.2526951 8.30163687,12.3849702 C8.68523474,12.6243882 9.09528766,12.7447585 9.52253636,12.7447585 C10.0317956,12.7447585 10.4974041,12.5635416 10.7685681,12.2619543 C10.9226548,12.1052259 11.0021232,11.8899386 10.9868221,11.6706845 C10.9365575,11.2116898 10.5489914,10.8796792 9.32941467,10.2460813 L9.04766864,10.1019014 C8.10983797,9.6151289 7.58470569,9.27253631 7.23549933,8.91803897 C6.8585152,8.53576382 6.67068453,8.12174267 6.60719243,7.53444111 C6.54105485,6.95110777 6.71301254,6.38893845 7.10322418,5.91010247 C7.48153106,5.44449401 8.04237761,5.09925591 8.68126651,4.93788026 L8.78973213,4.91010245 L8.78973213,3.80957337 C8.81305559,3.42121873 9.13480473,3.11821318 9.52385911,3.11821318 C9.91291349,3.11821318 10.2346626,3.42121873 10.2579861,3.80957337 L10.2579861,4.90481147 L10.3690972,4.93126649 C10.7817956,5.02915007 11.1693618,5.19317126 11.5265046,5.41803899 C11.9352348,5.67332999 12.1693617,5.91010247 12.2738591,6.02915009 C12.5303685,6.33505529 12.4948212,6.78999876 12.1939106,7.05234951 C11.8930001,7.31470026 11.4374566,7.28791743 11.1693617,6.99211306 C11.0443305,6.86346004 10.9029033,6.75183041 10.7487268,6.66010247 C10.3846997,6.42538371 9.9609642,6.30005349 9.52782737,6.29899136 C9.01989087,6.29899136 8.55295965,6.48020829 8.28179562,6.78311835 C8.12781169,6.93999011 8.04795198,7.155034 8.06221888,7.37438818 C8.11248345,7.83338287 8.50004958,8.16539346 9.72094906,8.79899135 L9.72094906,8.79899135 Z" id="shape"></path>
                </g>
            </g>
        </g>
    </g>
</svg>