<?xml version="1.0" encoding="UTF-8"?>
<svg width="108px" height="106px" viewBox="0 0 108 106" version="1.1" xmlns="http://www.w3.org/2000/svg" xmlns:xlink="http://www.w3.org/1999/xlink">
    <title>Fill 38</title>
    <defs>
        <linearGradient x1="22.5258361%" y1="18.0904492%" x2="100%" y2="97.8184522%" id="linearGradient-1">
            <stop stop-color="#CDE2F3" offset="0%"></stop>
            <stop stop-color="#C2DDED" offset="100%"></stop>
        </linearGradient>
    </defs>
    <g id="page-1" stroke="none" stroke-width="1" fill="none" fill-rule="evenodd">
        <g id="bucket-1" transform="translate(-796.000000, -365.000000)" fill="url(#linearGradient-1)">
            <path d="M828.905243,382.155178 C842.314869,363.629087 868.23775,359.456903 886.805948,372.835887 C905.373913,386.215104 909.555814,412.079433 896.146187,430.605058 C896.279243,430.421066 896.419534,430.244295 896.543019,430.057974 L896.543019,430.057974 L896.650396,465.675487 L896.646351,465.888384 C896.54215,468.429375 894.448381,470.46088 891.874416,470.468585 L891.874416,470.468585 L839.396992,470.617647 C836.749195,470.621601 834.601638,468.484969 834.597669,465.845505 L834.597669,465.845505 L834.555652,451.303181 C834.550983,449.796313 835.792831,448.969516 836.738223,448.659758 C837.683615,448.35 839.063187,448.312736 840.045928,449.174468 C841.960055,450.856012 844.296691,451.815563 846.666006,451.815563 C849.863999,451.806247 852.637148,449.957015 854.343756,446.96424 C854.506924,446.996846 854.677328,447.017807 854.843063,447.048084 L854.843063,447.048084 L854.644881,447.013149 C854.541938,446.992188 854.439229,446.980543 854.33652,446.961911 C845.312112,445.147381 837.150694,440.385492 831.140569,433.428048 L831.140569,433.428048 L833.264783,440.389452 L805.164466,468.428374 L796,459.284691 L824.100317,431.257413 L831.091549,433.369823 C818.575493,418.858708 817.671185,397.675685 828.905243,382.155178 Z M893.975287,433.35352 C886.111727,442.515836 874.624631,447.787544 862.534819,447.781489 C860.697023,447.777995 858.861096,447.653626 857.039874,447.409081 L857.039874,447.409081 L857.039874,447.420726 C856.927594,447.406752 856.820216,447.383229 856.710504,447.367159 L856.710504,447.367159 L856.656815,447.367159 C856.782867,447.385791 856.906585,447.413506 857.032638,447.430042 C855.032141,451.543069 851.390632,454.403091 846.687015,454.417065 C843.598734,454.426381 840.666852,453.171046 838.344223,451.133164 C838.274194,451.089844 838.193427,451.066321 838.110793,451.065623 C837.92078,451.049785 837.729134,451.07261 837.548459,451.133164 C837.4056,451.173689 837.274646,451.247052 837.165401,451.347433 L837.165401,451.347433 L837.151395,451.347433 L837.193412,465.843176 C837.19738,467.05426 838.183156,468.033841 839.396992,468.032445 L839.396992,468.032445 L891.874416,467.883387 C893.092688,467.878263 894.074028,466.890764 894.068659,465.677816 L894.068659,465.677816 L893.975287,433.372152 L893.977,433.369 L893.975,433.371 Z M862.531551,367.61169 C841.058548,367.608429 823.64863,384.973277 823.645128,406.397586 L823.645128,406.397586 C823.650497,419.646844 830.427674,431.980337 841.624149,439.104072 C859.725721,450.621248 883.757818,445.3167 895.301404,427.256178 L895.301404,427.256178 L893.956613,427.256178 L893.937938,420.269155 L896.529013,420.269155 L896.543019,425.188019 C899.731207,419.440261 901.404434,412.979128 901.405368,406.409929 C901.408869,384.985621 884.00432,367.615184 862.531551,367.61169 Z M858.386494,435.676471 C858.617022,436.854822 858.733456,438.050463 858.734755,439.248782 C858.743851,440.446858 858.637814,441.64323 858.417682,442.823529 L858.417682,442.823529 L855.577016,442.348682 C855.770379,441.327883 855.865501,440.292716 855.860303,439.255844 C855.857964,438.219703 855.757124,437.185511 855.558824,436.165928 L855.558824,436.165928 Z M894.260305,433.027459 L894.141023,433.162541 C894.085233,433.230082 894.033645,433.304611 893.975287,433.372152 L893.993,433.349 L894.118672,433.200649 L894.118672,433.200649 L894.260305,433.027459 Z M853.146926,426.941176 C854.937121,428.378279 856.315954,430.249833 857.147059,432.371046 L857.147059,432.371046 L854.813893,433.294118 C854.145657,431.573028 853.034118,430.053003 851.588235,428.882724 L851.588235,428.882724 Z M895.539269,431.448391 C895.326848,431.706911 895.114426,431.972418 894.909008,432.237925 L894.909008,432.24957 C895.121429,431.98383 895.333851,431.718556 895.539269,431.448391 Z M840.865009,426.147059 L842.058824,428.582651 C841.383648,429.015478 840.751783,429.53125 840.174663,430.12092 C839.592926,430.678668 838.845857,430.959427 838.088235,430.905135 C838.112419,430.166163 838.461989,428.082462 838.461989,428.082462 C838.494088,428.073665 838.524648,428.058333 838.55213,428.037219 C839.260504,427.312574 840.036154,426.678918 840.865009,426.147059 L840.865009,426.147059 Z M837.281309,422.970588 L837.294118,427.82232 C837.294118,427.82232 836.344165,429.731561 836.120019,430.117647 C835.398482,429.647282 834.946774,428.800718 834.924573,427.876702 L834.924573,427.876702 L834.911765,422.977415 L837.281309,422.970588 Z M846.568696,424.558941 C847.737128,424.553095 848.897736,424.765501 850,425.187391 L850,425.187391 L849.175146,427.735294 C848.33755,427.416684 847.455918,427.256892 846.568696,427.262739 C845.803974,427.266636 845.043275,427.382339 844.306495,427.606194 L844.306495,427.606194 L843.647059,424.997395 C844.598659,424.710451 845.58133,424.563082 846.568696,424.558941 Z M834.814678,411.058824 L837.294118,412.331304 C837.081925,412.660814 836.97107,413.034734 836.972614,413.415098 L836.972614,413.415098 L836.988046,418.205882 L834.133089,418.205882 L834.117647,413.417399 C834.115857,412.590172 834.356085,411.777211 834.814678,411.058824 L834.814678,411.058824 Z M896.130935,411.058824 C896.600584,411.74461 896.849614,412.525131 896.852941,413.320599 L896.852941,413.320599 L896.852941,416.617647 L894.012008,416.617647 L894.012008,413.320599 C894.007657,412.956824 893.892228,412.600523 893.676471,412.287524 L893.676471,412.287524 Z M891.314054,408.676516 C892.143315,408.672658 892.958544,408.914941 893.676471,409.378673 L893.676471,409.378673 L892.4044,411.852941 C892.073616,411.64178 891.699355,411.530926 891.318654,411.531441 L891.318654,411.531441 L886.529412,411.546873 L886.529412,408.691948 Z M844.441176,408.676471 L844.441176,411.515617 L839.653453,411.515617 C839.275499,411.522517 838.905831,411.638791 838.580818,411.852941 L838.580818,411.852941 L837.294118,409.402229 C838.011125,408.938408 838.825959,408.693337 839.655754,408.691804 L839.655754,408.691804 L844.441176,408.676471 Z M881.764706,408.676471 L881.764706,411.046015 L876.864128,411.058824 C875.940104,411.041105 875.091433,410.593454 874.617647,409.874051 C874.971574,409.666556 876.548137,408.872887 876.85991,408.716228 L876.913579,408.689279 L881.764706,408.676471 Z M854.054419,408.676471 C854.054419,408.676471 855.966518,409.625573 856.352941,409.849518 C855.881981,410.570836 855.035665,411.022566 854.110934,411.046027 L854.110934,411.046027 L849.205882,411.058824 L849.205882,408.689267 Z M876.136586,403.911765 L878.588235,405.089129 C878.059567,405.918107 877.429503,406.695123 876.709142,407.406584 C876.686694,407.433332 876.671056,407.464027 876.663741,407.496476 C876.635996,407.589437 876.624898,407.685687 876.630952,407.781499 L876.630952,407.781499 L873.830977,407.882353 C873.773469,407.127481 874.050666,406.382255 874.605567,405.799493 C875.192752,405.22002 875.706034,404.587269 876.136586,403.911765 L876.136586,403.911765 Z M854.818171,403.911765 C855.251038,404.586941 855.767109,405.218585 856.356582,405.795925 C856.912622,406.378542 857.193156,407.124951 857.14087,407.882353 L857.14087,407.882353 L854.350614,407.792212 C854.356647,407.696795 854.345587,407.601158 854.317936,407.508599 C854.308886,407.47606 854.292798,407.4455 854.270175,407.418458 C853.547473,406.708545 852.914513,405.932236 852.382353,405.103381 L852.382353,405.103381 Z M851.417807,395.970588 L853.970588,396.788736 C853.653926,397.626779 853.495108,398.508188 853.500467,399.395186 C853.504365,400.16192 853.619094,400.924854 853.841488,401.664093 L853.841488,401.664093 L851.235117,402.323529 C850.947929,401.371706 850.799829,400.389258 850.794226,399.401892 C850.788624,398.233907 850.999569,397.073523 851.417807,395.970588 L851.417807,395.970588 Z M879.536321,395.970588 C879.960415,397.071899 880.17719,398.232244 880.176471,399.400863 C880.177675,400.387906 880.036553,401.3707 879.756976,402.323529 L879.756976,402.323529 L877.157611,401.679514 C877.375114,400.938897 877.485199,400.175023 877.484956,399.407572 C877.483259,398.520262 877.319344,397.639437 877,396.802441 L877,396.802441 Z M858.601351,388.029412 L859.529412,390.361627 C857.809186,391.030497 856.290237,392.142488 855.122296,393.588235 L855.122296,393.588235 L853.176471,392.03267 C854.612186,390.243431 856.481473,388.863801 858.601351,388.029412 L858.601351,388.029412 Z M872.354788,388.029412 C874.476372,388.853918 876.351057,390.227715 877.794118,392.015584 L877.794118,392.015584 L875.859936,393.588235 L875.620429,393.303906 C874.481489,391.998279 873.048003,390.992209 871.441176,390.374753 L871.441176,390.374753 Z M861.911765,387.582493 C864.274318,387.126752 866.694079,387.119497 869.058824,387.561766 L869.058824,387.561766 L868.57195,390.393628 C867.553654,390.202419 866.521726,390.107851 865.487607,390.111219 C864.45154,390.114588 863.417908,390.215374 862.398638,390.411765 L862.398638,390.411765 Z" id="Fill-38"></path>
        </g>
    </g>
</svg>