<?xml version="1.0" encoding="UTF-8"?>
<svg width="367px" height="211px" viewBox="0 0 367 211" version="1.1" xmlns="http://www.w3.org/2000/svg" xmlns:xlink="http://www.w3.org/1999/xlink">
    <title>empty</title>
    <defs>
        <rect id="path-1" x="0" y="0" width="367" height="211"></rect>
        <linearGradient x1="50%" y1="0%" x2="50%" y2="71.6914677%" id="linearGradient-3">
            <stop stop-color="#E2E9F3" offset="0%"></stop>
            <stop stop-color="#FFFFFF" offset="100%"></stop>
        </linearGradient>
        <linearGradient x1="50%" y1="0%" x2="50%" y2="71.4066528%" id="linearGradient-4">
            <stop stop-color="#DCE5F0" offset="0%"></stop>
            <stop stop-color="#FFFFFF" offset="76.3647973%"></stop>
        </linearGradient>
        <linearGradient x1="50%" y1="0%" x2="50%" y2="97.206818%" id="linearGradient-5">
            <stop stop-color="#CAD6E7" offset="0%"></stop>
            <stop stop-color="#FCFDFF" offset="100%"></stop>
        </linearGradient>
        <linearGradient x1="50%" y1="0%" x2="50%" y2="71.6914677%" id="linearGradient-6">
            <stop stop-color="#D6E0ED" offset="0%"></stop>
            <stop stop-color="#FFFFFF" offset="100%"></stop>
        </linearGradient>
        <linearGradient x1="50%" y1="0%" x2="50%" y2="71.6914677%" id="linearGradient-7">
            <stop stop-color="#D6E0ED" offset="0%"></stop>
            <stop stop-color="#FFFFFF" offset="100%"></stop>
        </linearGradient>
        <filter x="-4.7%" y="-6.4%" width="109.5%" height="112.8%" filterUnits="objectBoundingBox" id="filter-8">
            <feGaussianBlur stdDeviation="1" in="SourceGraphic"></feGaussianBlur>
        </filter>
        <linearGradient x1="58.2871201%" y1="34.8414501%" x2="40.7405473%" y2="63.7427712%" id="linearGradient-9">
            <stop stop-color="#EAF0F7" offset="0.0484866696%"></stop>
            <stop stop-color="#9FB2C4" offset="100%"></stop>
        </linearGradient>
        <filter x="-4.3%" y="-5.6%" width="108.7%" height="111.3%" filterUnits="objectBoundingBox" id="filter-10">
            <feGaussianBlur stdDeviation="1" in="SourceGraphic"></feGaussianBlur>
        </filter>
        <linearGradient x1="54.3205783%" y1="36.3145337%" x2="40.7405473%" y2="62.1085191%" id="linearGradient-11">
            <stop stop-color="#EAF0F7" offset="0.0484866696%"></stop>
            <stop stop-color="#9CAFC1" offset="100%"></stop>
        </linearGradient>
        <linearGradient x1="100%" y1="36.2811791%" x2="0%" y2="63.7188209%" id="linearGradient-12">
            <stop stop-color="#F0F5F7" offset="0%"></stop>
            <stop stop-color="#C0D1E2" offset="100%"></stop>
        </linearGradient>
        <path d="M209.259028,60.9131867 C203.759607,62.1307689 201.461647,66.4340722 202.36515,73.8230965 C214.740515,75.4113461 222.474038,73.3941147 225.565717,67.7714024 C228.657397,62.14869 229.956637,59.8626181 229.463437,60.9131867 C221.493252,59.6956044 214.758449,59.6956044 209.259028,60.9131867 Z" id="path-13"></path>
        <filter x="-23.7%" y="-38.3%" width="147.5%" height="190.6%" filterUnits="objectBoundingBox" id="filter-14">
            <feOffset dx="0" dy="1" in="SourceAlpha" result="shadowOffsetOuter1"></feOffset>
            <feGaussianBlur stdDeviation="2" in="shadowOffsetOuter1" result="shadowBlurOuter1"></feGaussianBlur>
            <feColorMatrix values="0 0 0 0 0.752941176   0 0 0 0 0.811764706   0 0 0 0 0.890196078  0 0 0 1 0" type="matrix" in="shadowBlurOuter1"></feColorMatrix>
        </filter>
        <filter x="-34.7%" y="-59.2%" width="169.4%" height="232.4%" filterUnits="objectBoundingBox" id="filter-15">
            <feGaussianBlur stdDeviation="5.5" in="SourceAlpha" result="shadowBlurInner1"></feGaussianBlur>
            <feOffset dx="0" dy="0" in="shadowBlurInner1" result="shadowOffsetInner1"></feOffset>
            <feComposite in="shadowOffsetInner1" in2="SourceAlpha" operator="arithmetic" k2="-1" k3="1" result="shadowInnerInner1"></feComposite>
            <feColorMatrix values="0 0 0 0 0.392048527   0 0 0 0 0.507795643   0 0 0 0 0.631693964  0 0 0 1 0" type="matrix" in="shadowInnerInner1"></feColorMatrix>
        </filter>
        <linearGradient x1="100%" y1="41.3194444%" x2="0%" y2="58.6805556%" id="linearGradient-16">
            <stop stop-color="#F0F5F7" offset="0%"></stop>
            <stop stop-color="#C0D1E2" offset="100%"></stop>
        </linearGradient>
        <path d="M0.708725921,7.48790064 C-1.22839027,2.49596688 0.805442347,0 6.81022377,0 C12.8150052,0 17.3077972,1.21101889 20.2885998,3.63305666 C22.6306656,4.91850338 25.7784712,4.91850338 29.7320165,3.63305666 C35.6623345,1.70488658 23.252356,13.0367963 18.4102958,13.0367963 C16.289279,13.0367963 11.2388131,13.2232591 6.81022377,11.6261827 C5.26927997,11.0704742 3.23544736,9.69104681 0.708725921,7.48790064 Z" id="path-17"></path>
        <filter x="-20.8%" y="-42.2%" width="141.5%" height="199.7%" filterUnits="objectBoundingBox" id="filter-19">
            <feOffset dx="0" dy="1" in="SourceAlpha" result="shadowOffsetOuter1"></feOffset>
            <feGaussianBlur stdDeviation="2" in="shadowOffsetOuter1" result="shadowBlurOuter1"></feGaussianBlur>
            <feColorMatrix values="0 0 0 0 0.752941176   0 0 0 0 0.811764706   0 0 0 0 0.890196078  0 0 0 1 0" type="matrix" in="shadowBlurOuter1"></feColorMatrix>
        </filter>
        <filter x="-31.7%" y="-38.2%" width="163.4%" height="176.4%" filterUnits="objectBoundingBox" id="filter-20">
            <feGaussianBlur stdDeviation="2" in="SourceGraphic"></feGaussianBlur>
        </filter>
        <linearGradient x1="100%" y1="40.8163265%" x2="0%" y2="59.1836735%" id="linearGradient-21">
            <stop stop-color="#F0F5F7" offset="0%"></stop>
            <stop stop-color="#C0D1E2" offset="100%"></stop>
        </linearGradient>
        <path d="M0.484442932,5.26452068 C-0.839654604,1.75484023 0.550552534,-7.79342014e-15 4.65506435,-7.79342014e-15 C8.75957616,-7.79342014e-15 11.8305818,0.851431433 13.8680814,2.5542943 C15.4689784,3.45805373 17.6206313,3.45805373 20.32304,2.5542943 C24.3766531,1.19865515 15.893929,9.16578452 12.5841844,9.16578452 C11.1343833,9.16578452 7.68218489,9.29688094 4.65506435,8.17402396 C3.60176672,7.78332179 2.21155958,6.81348736 0.484442932,5.26452068 Z" id="path-22"></path>
        <filter x="-30.4%" y="-60.0%" width="160.8%" height="241.8%" filterUnits="objectBoundingBox" id="filter-24">
            <feOffset dx="0" dy="1" in="SourceAlpha" result="shadowOffsetOuter1"></feOffset>
            <feGaussianBlur stdDeviation="2" in="shadowOffsetOuter1" result="shadowBlurOuter1"></feGaussianBlur>
            <feColorMatrix values="0 0 0 0 0.752941176   0 0 0 0 0.811764706   0 0 0 0 0.890196078  0 0 0 1 0" type="matrix" in="shadowBlurOuter1"></feColorMatrix>
        </filter>
        <filter x="-46.2%" y="-56.1%" width="192.4%" height="212.2%" filterUnits="objectBoundingBox" id="filter-25">
            <feGaussianBlur stdDeviation="2" in="SourceGraphic"></feGaussianBlur>
        </filter>
        <filter x="-36.5%" y="-47.9%" width="173.0%" height="195.8%" filterUnits="objectBoundingBox" id="filter-26">
            <feOffset dx="0" dy="2" in="SourceAlpha" result="shadowOffsetOuter1"></feOffset>
            <feGaussianBlur stdDeviation="4" in="shadowOffsetOuter1" result="shadowBlurOuter1"></feGaussianBlur>
            <feColorMatrix values="0 0 0 0 0   0 0 0 0 0   0 0 0 0 0  0 0 0 0.109192321 0" type="matrix" in="shadowBlurOuter1" result="shadowMatrixOuter1"></feColorMatrix>
            <feMerge>
                <feMergeNode in="shadowMatrixOuter1"></feMergeNode>
                <feMergeNode in="SourceGraphic"></feMergeNode>
            </feMerge>
        </filter>
    </defs>
    <g id="page-1" stroke="none" stroke-width="1" fill="none" fill-rule="evenodd">
        <g id="empty">
            <mask id="mask-2" fill="white">
                <use xlink:href="#path-1"></use>
            </mask>
            <use id="mask" fill="#FFFFFF" xlink:href="#path-1"></use>
            <g mask="url(#mask-2)">
                <path d="M99.9769652,3.91304348 C110.439801,3.91304348 119.359769,10.5110012 122.793755,19.7684835 C125.842206,16.5502328 130.158285,14.5425049 134.943853,14.5425049 C139.470602,14.5425049 143.577273,16.3389373 146.588242,19.2569802 C150.692014,12.3439177 158.239195,7.70927969 166.870141,7.70927969 C179.884533,7.70927969 190.434783,18.2470033 190.434783,31.2459442 C190.434783,44.2448851 179.884533,54.7826087 166.870141,54.7826087 C158.239479,54.7826087 150.692509,50.148275 146.587539,43.2351141 C143.578188,46.1525509 139.471106,47.9493835 134.943853,47.9493835 C129.115279,47.9493835 123.983143,44.971124 120.989667,40.4551161 C116.770857,47.6628691 108.940038,52.504867 99.9769652,52.504867 C86.5427539,52.504867 75.6521739,41.6272168 75.6521739,28.2089552 C75.6521739,14.7906937 86.5427539,3.91304348 99.9769652,3.91304348 Z" id="shape结合" fill="url(#linearGradient-3)"></path>
                <ellipse id="orect" fill="url(#linearGradient-4)" cx="183.26087" cy="210.652174" rx="183.26087" ry="89.3478261"></ellipse>
                <ellipse id="orect" fill="url(#linearGradient-5)" cx="183.913043" cy="153.913043" rx="100.434783" ry="32.6086957"></ellipse>
                <path d="M59.3729097,78.2608696 C64.7161286,78.2608696 69.2710509,81.6291496 71.0220608,86.3541655 C72.6046534,84.6118037 74.8908626,83.5177866 77.4331104,83.5177866 C82.2124976,83.5177866 86.0869565,87.3844183 86.0869565,92.1541502 C86.0869565,96.9238821 82.2124976,100.790514 77.4331104,100.790514 C74.3743025,100.790514 71.6861533,99.2067415 70.1471074,96.8160688 C68.0050489,100.536856 63.9822984,103.043478 59.3729097,103.043478 C52.515528,103.043478 46.9565217,97.4957023 46.9565217,90.6521739 C46.9565217,83.8086455 52.515528,78.2608696 59.3729097,78.2608696 Z" id="shape结合备份" fill="url(#linearGradient-6)"></path>
                <path d="M287.622873,80.8695652 C292.681902,80.8695652 296.950532,84.2493392 298.288556,88.8714118 C299.692053,87.2486161 301.767559,86.2218891 304.083176,86.2218891 C308.311443,86.2218891 311.73913,89.6451991 311.73913,93.868066 C311.73913,98.0909329 308.311443,101.514243 304.083176,101.514243 C301.132084,101.514243 298.570975,99.8466622 297.293028,97.40354 C295.38885,100.77052 291.77164,103.043478 287.622873,103.043478 C281.491886,103.043478 276.521739,98.0796787 276.521739,91.9565217 C276.521739,85.8333647 281.491886,80.8695652 287.622873,80.8695652 Z" id="shape结合备份-2" fill="url(#linearGradient-7)" transform="translate(294.130435, 91.956522) scale(-1, 1) translate(-294.130435, -91.956522) "></path>
                <g id="group" transform="translate(121.304348, 60.000000)">
                    <polygon id="rect" fill="#A6BDD1" points="12.9514086 13.6396421 69.3185348 0 69.3185348 87.1091618 12.9514086 87.1091618"></polygon>
                    <polygon id="rect" fill="#B3CAE2" transform="translate(100.929828, 40.092271) scale(-1, 1) translate(-100.929828, -40.092271) " points="69.3285776 14.4033044 132.541122 0 132.541122 80.1845424 69.3185348 80.1845424"></polygon>
                    <polygon id="rect" fill="#D6DFEB" points="11.4279727 16.0885671 63.2247914 36.068071 63.2247914 112.173913 9.9547714 88.2634365"></polygon>
                    <polygon id="rect" fill="#C2D1E1" transform="translate(97.903053, 64.131240) scale(-1, 1) translate(-97.903053, -64.131240) " points="63.2750259 16.0885671 132.531079 34.7960219 132.531079 112.173913 63.2750259 84.6127108"></polygon>
                    <polygon id="path-2" fill="#C6D2E5" filter="url(#filter-8)" points="11.4120803 16.2037988 0 41.5699914 50.240626 62.9532949 63.2750259 34.7960219"></polygon>
                    <polygon id="path" fill="url(#linearGradient-9)" points="12.1896907 14.4033044 0 38.9624278 49.5951139 60.8213099 63.2750259 34.7960219"></polygon>
                    <polygon id="path-2" fill="#C6D2E5" filter="url(#filter-10)" transform="translate(97.903053, 42.787015) scale(-1, 1) translate(-97.903053, -42.787015) " points="64.4428126 16.2037988 63.2750259 46.9455944 126.48757 69.3702306 132.531079 34.7960219"></polygon>
                    <polygon id="path" fill="url(#linearGradient-11)" transform="translate(101.420122, 40.669744) scale(-1, 1) translate(-101.420122, -40.669744) " points="70.3091639 14.4033044 63.2750259 41.5699914 131.998273 66.9364645 139.565217 34.7960219"></polygon>
                </g>
                <g id="path-3">
                    <use fill="black" fill-opacity="1" filter="url(#filter-14)" xlink:href="#path-13"></use>
                    <use fill="url(#linearGradient-12)" fill-rule="evenodd" xlink:href="#path-13"></use>
                    <use fill="black" fill-opacity="1" filter="url(#filter-15)" xlink:href="#path-13"></use>
                </g>
                <g id="path-5" transform="translate(133.043478, 155.217391)">
                    <mask id="mask-18" fill="white">
                        <use xlink:href="#path-17"></use>
                    </mask>
                    <g id="mask">
                        <use fill="black" fill-opacity="1" filter="url(#filter-19)" xlink:href="#path-17"></use>
                        <use fill="url(#linearGradient-16)" fill-rule="evenodd" xlink:href="#path-17"></use>
                    </g>
                    <path d="M0.0441806481,11.9465717 C-1.07175203,4.39336344 2.66578181,0.61675932 11.2567822,0.61675932 C19.8477825,0.61675932 14.9016224,-0.843729991 -3.58169817,-3.76470861 L0.0441806481,11.9465717 Z" fill="#6C8BC5" filter="url(#filter-20)" mask="url(#mask-18)"></path>
                </g>
                <g id="path-5" transform="translate(133.165553, 146.886303) rotate(-17.000000) translate(-133.165553, -146.886303) translate(122.466657, 142.301062)">
                    <mask id="mask-23" fill="white">
                        <use xlink:href="#path-22"></use>
                    </mask>
                    <g id="mask">
                        <use fill="black" fill-opacity="1" filter="url(#filter-24)" xlink:href="#path-22"></use>
                        <use fill="url(#linearGradient-21)" fill-rule="evenodd" xlink:href="#path-22"></use>
                    </g>
                    <path d="M0.479952778,8.03551332 C-0.286003841,2.89201203 2.27937384,0.320261385 8.17608582,0.320261385 C14.0727978,0.320261385 10.6778402,-0.674286681 -2.00878685,-2.66338281 L0.479952778,8.03551332 Z" fill="#6C8BC5" filter="url(#filter-25)" mask="url(#mask-23)"></path>
                </g>
                <path d="M224.347826,80.8695652 C233.352479,65.1271778 241.477848,56.0674835 248.723935,53.6904824 C255.970022,51.3134812 263.753569,51.3134812 272.074576,53.6904824 C276.980315,59.0522364 280.687074,57.6189797 283.194853,49.3907123 C285.702632,41.1624449 286.956522,33.8293089 286.956522,27.3913043" id="path-4" stroke="#ACBCD1" stroke-width="2" stroke-dasharray="7,5"></path>
                <g id="group-2" filter="url(#filter-26)" transform="translate(259.565217, 0.000000)">
                    <polygon id="path-6" fill="#EBF0F8" points="2.18575158e-14 30.782782 54.7826087 0 17.8489368 28.2629836"></polygon>
                    <polygon id="path-7" fill="#A4BBD0" points="54.7826087 0 17.8489368 28.2629836 27.3913043 41.7391304"></polygon>
                    <polygon id="path-8" fill="#BBCDE0" points="54.7826087 0 21.7368367 28.2629836 27.3913043 41.7391304"></polygon>
                    <polygon id="path-9" fill="#EBF0F8" points="54.7826087 0 21.7368367 28.2629836 43.2336728 24.9324952"></polygon>
                </g>
            </g>
        </g>
    </g>
</svg>