<?xml version="1.0" encoding="UTF-8"?>
<svg width="18px" height="18px" viewBox="0 0 18 18" version="1.1" xmlns="http://www.w3.org/2000/svg" xmlns:xlink="http://www.w3.org/1999/xlink">
    <title>checked</title>
    <g id="Create" stroke="none" stroke-width="1" fill="none" fill-rule="evenodd">
        <g id="Deploy" transform="translate(-1345.000000, -696.000000)" fill="#00BD9A" fill-rule="nonzero">
            <g id="g-3" transform="translate(290.000000, 293.000000)">
                <g id="g-5" transform="translate(28.000000, 388.000000)">
                    <g id="checked" transform="translate(1027.000000, 15.000000)">
                        <path d="M7.9185836,10.7461606 L12.1679968,5.78090001 C12.3288274,5.59297078 12.5777001,5.50511913 12.8208668,5.55043791 C13.0640336,5.5957567 13.2645517,5.76736092 13.3468879,6.00060893 C13.4292241,6.23385694 13.3808695,6.49331281 13.2200389,6.68124204 L8.00489571,12.7747971 L4.36027094,9.18449467 C4.0980971,8.91441306 4.09974466,8.4843494 4.36398011,8.21628444 C4.62821557,7.94821949 5.05821101,7.94038446 5.33203675,8.1986453 L7.9185836,10.7461606 Z M9,16.6153846 C13.2049494,16.6153846 16.6153846,13.2049494 16.6153846,9 C16.6153846,4.79505063 13.2049494,1.38461538 9,1.38461538 C4.79505063,1.38461538 1.38461538,4.79505063 1.38461538,9 C1.38461538,13.2049494 4.79505063,16.6153846 9,16.6153846 Z M9,18 C4.02930722,18 8.57740543e-16,13.9706928 8.57740543e-16,9 C8.57740543e-16,4.02930722 4.02930722,8.57740543e-16 9,8.57740543e-16 C13.9706928,8.57740543e-16 18,4.02930722 18,9 C18,13.9706928 13.9706928,18 9,18 Z" id="shape"></path>
                    </g>
                </g>
            </g>
        </g>
    </g>
</svg>