<?xml version="1.0" encoding="UTF-8"?>
<svg width="20px" height="18px" viewBox="0 0 20 18" version="1.1" xmlns="http://www.w3.org/2000/svg" xmlns:xlink="http://www.w3.org/1999/xlink">
    <title>err</title>
    <g id="Create" stroke="none" stroke-width="1" fill="none" fill-rule="evenodd">
        <g id="Deploy-failure" transform="translate(-318.000000, -386.000000)" fill="#FF6960" fill-rule="nonzero">
            <g id="g-3" transform="translate(290.000000, 293.000000)">
                <g id="err" transform="translate(28.000000, 93.000000)">
                    <path d="M11.1547815,5.64677429 C11.1590912,5.6068403 11.1613024,5.56627733 11.1613024,5.52519792 C11.1613024,4.90651563 10.6597613,4.40497455 10.0410791,4.40497455 C9.42239682,4.40497455 8.92085571,4.90651563 8.92085571,5.52519792 C8.92085571,5.52647198 8.92085784,5.52774556 8.92086212,5.52901864 L8.91738355,5.52901864 L9.16983593,10.8687631 C9.16980814,10.8716308 9.16979426,10.8745019 9.16979426,10.8773762 C9.16979426,11.3585735 9.55988177,11.748661 10.0410791,11.748661 C10.5222764,11.748661 10.9123639,11.3585735 10.9123639,10.8773762 C10.9123639,10.8694443 10.9122579,10.861537 10.9120473,10.853656 L11.1547815,5.64677429 Z M7.30124426,1.90577799 C8.7911635,-0.637986577 11.2099955,-0.632530618 12.6967191,1.90577799 L19.3556441,13.2746743 C20.8455634,15.8184389 19.6646878,17.8805676 16.7103375,17.8805676 L3.28762584,17.8805676 C0.336744083,17.8805676 -0.844404374,15.812983 0.642319233,13.2746743 L7.30124426,1.90577799 Z M10.0410791,15.3582696 C10.6597613,15.3582696 11.1613024,14.8567285 11.1613024,14.2380462 C11.1613024,13.6193639 10.6597613,13.1178229 10.0410791,13.1178229 C9.42239682,13.1178229 8.92085571,13.6193639 8.92085571,14.2380462 C8.92085571,14.8567285 9.42239682,15.3582696 10.0410791,15.3582696 Z" id="shape"></path>
                </g>
            </g>
        </g>
    </g>
</svg>