<?xml version="1.0" encoding="UTF-8"?>
<svg width="54px" height="54px" viewBox="0 0 54 54" version="1.1" xmlns="http://www.w3.org/2000/svg" xmlns:xlink="http://www.w3.org/1999/xlink">
    <title>discord(1)</title>
    <defs>
        <circle id="path-1" cx="27" cy="27" r="23"></circle>
        <filter x="-13.0%" y="-13.0%" width="126.1%" height="126.1%" filterUnits="objectBoundingBox" id="filter-2">
            <feOffset dx="0" dy="0" in="SourceAlpha" result="shadowOffsetOuter1"></feOffset>
            <feGaussianBlur stdDeviation="2" in="shadowOffsetOuter1" result="shadowBlurOuter1"></feGaussianBlur>
            <feColorMatrix values="0 0 0 0 0.203921569   0 0 0 0 0.662745098   0 0 0 0 1  0 0 0 0.5 0" type="matrix" in="shadowBlurOuter1"></feColorMatrix>
        </filter>
    </defs>
    <g id="Upload" stroke="none" stroke-width="1" fill="none" fill-rule="evenodd">
        <g id="Upload-1" transform="translate(-1350.000000, -1610.000000)">
            <g id="g-5" transform="translate(1350.000000, 1552.000000)">
                <g id="discord(1)" transform="translate(0.000000, 58.000000)">
                    <g id="orect">
                        <use fill="black" fill-opacity="1" filter="url(#filter-2)" xlink:href="#path-1"></use>
                        <use fill="#775DA6" fill-rule="evenodd" xlink:href="#path-1"></use>
                    </g>
                    <path d="M30.8866061,17.5240741 L30.8312018,17.5240741 L30.4581467,17.8944444 C34.2865783,19.0055556 36.1389261,20.7407408 36.1389261,20.7407408 C33.6715915,19.5037037 31.4480355,18.8851852 29.2244795,18.6351852 C27.6177571,18.3851852 26.0110347,18.5166667 24.6536313,18.6351852 L24.2842698,18.6351852 C23.4162704,18.6351852 21.569463,19.0055556 19.0947412,19.9962963 C18.2322822,20.3722222 17.7373378,20.6185185 17.7373378,20.6185185 C17.7373378,20.6185185 19.5878388,18.762963 23.6655894,17.7722222 L23.4162704,17.5222222 C23.4162704,17.5222222 20.3284085,17.4037037 16.9949213,19.8740741 C16.9949213,19.8740741 13.6614341,25.6962963 13.6614341,32.8740741 C13.6614341,32.8740741 15.5082414,36.0962963 20.5740339,36.2185185 C20.5740339,36.2185185 21.3127568,35.2314815 22.0607138,34.362963 C19.2166305,33.4962963 18.1085461,31.762963 18.1085461,31.762963 C18.1085461,31.762963 18.3560183,31.8851852 18.7272265,32.1333333 L18.838035,32.1333333 C18.8934392,32.1333333 18.9192945,32.1611111 18.9488434,32.1888889 L18.9488434,32.2 C18.9783924,32.2296296 19.0042476,32.2555556 19.0596519,32.2555556 C19.6690983,32.5074074 20.2785447,32.7555556 20.7771827,32.9962963 C21.843587,33.4540405 22.9590215,33.7870994 24.1014359,33.9888889 C25.8189667,34.2388889 27.7876633,34.3592592 30.0296874,33.9888889 C31.1377718,33.7388889 32.2458562,33.4944444 33.3539406,32.9981481 C34.0741955,32.6277778 34.960663,32.2574074 35.9339305,31.6333333 C35.9339305,31.6333333 34.8258461,33.3666667 31.8617203,34.2333333 C32.4711667,35.0962963 33.3299322,36.0851852 33.3299322,36.0851852 C38.3975715,35.9740741 40.3662681,32.7518519 40.4770765,32.8888889 C40.4770765,25.7222222 37.1251212,19.8888889 37.1251212,19.8888889 C34.1055912,17.6407408 31.279976,17.5555556 30.781338,17.5555556 L30.8847592,17.5185185 L30.8866061,17.5240741 Z M31.1968697,25.6962963 C32.4951753,25.6962963 33.542315,26.8074074 33.542315,28.1685185 C33.542315,29.5388889 32.4896348,30.65 31.1968697,30.65 C29.9041045,30.65 28.8514244,29.5388889 28.8514244,28.1796296 C28.855118,26.8092593 29.909645,25.7018519 31.1968697,25.7018519 L31.1968697,25.6962963 Z M22.806824,25.6962963 C24.0995891,25.6962963 25.144882,26.8074074 25.144882,28.1685185 C25.144882,29.5388889 24.0922019,30.65 22.7994367,30.65 C21.5066716,30.65 20.4539914,29.5388889 20.4539914,28.1796296 C20.4539914,26.8092593 21.5066716,25.7018519 22.7994367,25.7018519 L22.806824,25.6962963 Z" id="形状" fill="#FFFFFF" fill-rule="nonzero"></path>
                </g>
            </g>
        </g>
    </g>
</svg>