<?xml version="1.0" encoding="UTF-8"?>
<svg width="46px" height="46px" viewBox="0 0 46 46" version="1.1" xmlns="http://www.w3.org/2000/svg" xmlns:xlink="http://www.w3.org/1999/xlink">
    <title>discord(1)</title>
    <g id="Create" stroke="none" stroke-width="1" fill="none" fill-rule="evenodd">
        <g transform="translate(-1354.000000, -978.000000)" id="discord(1)">
            <g transform="translate(1354.000000, 978.000000)">
                <rect id="rect" fill="#FFFFFF" x="7" y="6" width="33" height="27" rx="8"></rect>
                <path d="M38.1853733,0 C40.7819844,0 42.8762639,2.10555556 43,4.58333333 L43,44.4444444 L38.0560968,40.2351852 L35.34129,37.7574074 L32.379011,35.1685185 L33.616372,39.2518519 L7.69089061,39.2518519 C5.10166672,39.2518519 3,37.2796296 3,34.6666667 L3,4.59259258 C3,2.1148148 5.10536036,0.00555555556 7.70012468,0.00555555556 L38.1724457,0.00555555556 L38.1853733,0 Z M26.8866061,10.5240741 L26.8312018,10.5240741 L26.4581467,10.8944444 C30.2865783,12.0055556 32.1389261,13.7407408 32.1389261,13.7407408 C29.6715915,12.5037037 27.4480355,11.8851852 25.2244795,11.6351852 C23.6177571,11.3851852 22.0110347,11.5166667 20.6536313,11.6351852 L20.2842698,11.6351852 C19.4162704,11.6351852 17.569463,12.0055556 15.0947412,12.9962963 C14.2322822,13.3722222 13.7373378,13.6185185 13.7373378,13.6185185 C13.7373378,13.6185185 15.5878388,11.762963 19.6655894,10.7722222 L19.4162704,10.5222222 C19.4162704,10.5222222 16.3284085,10.4037037 12.9949213,12.8740741 C12.9949213,12.8740741 9.66143406,18.6962963 9.66143406,25.8740741 C9.66143406,25.8740741 11.5082414,29.0962963 16.5740339,29.2185185 C16.5740339,29.2185185 17.3127568,28.2314815 18.0607138,27.362963 C15.2166305,26.4962963 14.1085461,24.762963 14.1085461,24.762963 C14.1085461,24.762963 14.3560183,24.8851852 14.7272265,25.1333333 L14.838035,25.1333333 C14.8934392,25.1333333 14.9192945,25.1611111 14.9488434,25.1888889 L14.9488434,25.2 C14.9783924,25.2296296 15.0042476,25.2555556 15.0596519,25.2555556 C15.6690983,25.5074074 16.2785447,25.7555556 16.7771827,25.9962963 C17.843587,26.4540405 18.9590215,26.7870994 20.1014359,26.9888889 C21.8189667,27.2388889 23.7876633,27.3592592 26.0296874,26.9888889 C27.1377718,26.7388889 28.2458562,26.4944444 29.3539406,25.9981481 C30.0741955,25.6277778 30.960663,25.2574074 31.9339305,24.6333333 C31.9339305,24.6333333 30.8258461,26.3666667 27.8617203,27.2333333 C28.4711667,28.0962963 29.3299322,29.0851852 29.3299322,29.0851852 C34.3975715,28.9740741 36.3662681,25.7518519 36.4770765,25.8888889 C36.4770765,18.7222222 33.1251212,12.8888889 33.1251212,12.8888889 C30.1055912,10.6407408 27.279976,10.5555556 26.781338,10.5555556 L26.8847592,10.5185185 L26.8866061,10.5240741 Z M27.1968697,18.6962963 C28.4951753,18.6962963 29.542315,19.8074074 29.542315,21.1685185 C29.542315,22.5388889 28.4896348,23.65 27.1968697,23.65 C25.9041045,23.65 24.8514244,22.5388889 24.8514244,21.1796296 C24.855118,19.8092593 25.909645,18.7018519 27.1968697,18.7018519 L27.1968697,18.6962963 Z M18.806824,18.6962963 C20.0995891,18.6962963 21.144882,19.8074074 21.144882,21.1685185 C21.144882,22.5388889 20.0922019,23.65 18.7994367,23.65 C17.5066716,23.65 16.4539914,22.5388889 16.4539914,21.1796296 C16.4539914,19.8092593 17.5066716,18.7018519 18.7994367,18.7018519 L18.806824,18.6962963 Z" id="shape" fill="#34A9FF" fill-rule="nonzero"></path>
            </g>
        </g>
    </g>
</svg>