<?xml version="1.0" encoding="UTF-8"?>
<svg width="54px" height="54px" viewBox="0 0 54 54" version="1.1" xmlns="http://www.w3.org/2000/svg" xmlns:xlink="http://www.w3.org/1999/xlink">
    <title>Task List</title>
    <defs>
        <circle id="path-1" cx="27" cy="27" r="23"></circle>
        <filter x="-13.0%" y="-13.0%" width="126.1%" height="126.1%" filterUnits="objectBoundingBox" id="filter-2">
            <feOffset dx="0" dy="0" in="SourceAlpha" result="shadowOffsetOuter1"></feOffset>
            <feGaussianBlur stdDeviation="2" in="shadowOffsetOuter1" result="shadowBlurOuter1"></feGaussianBlur>
            <feColorMatrix values="0 0 0 0 1   0 0 0 0 0.733333333   0 0 0 0 0.364705882  0 0 0 1 0" type="matrix" in="shadowBlurOuter1"></feColorMatrix>
        </filter>
    </defs>
    <g id="Upload" stroke="none" stroke-width="1" fill="none" fill-rule="evenodd">
        <g id="Upload-1" transform="translate(-1350.000000, -1552.000000)">
            <g id="Task-List" transform="translate(1350.000000, 1552.000000)">
                <g id="orect">
                    <use fill="black" fill-opacity="1" filter="url(#filter-2)" xlink:href="#path-1"></use>
                    <use fill="#FFBB5D" fill-rule="evenodd" xlink:href="#path-1"></use>
                </g>
                <path d="M24.7647059,17 C27.5703535,17 30.0310619,18.4768599 31.411838,20.6955864 C32.1364092,20.4726306 32.9071683,20.3529412 33.7058824,20.3529412 C38.0266983,20.3529412 41.5294118,23.8556546 41.5294118,28.1764706 C41.5294118,32.4972866 38.0266983,36 33.7058824,36 C33.5097293,36 33.3152623,35.9927812 33.1227325,35.9785949 C33.0253919,35.9923913 32.9253492,36 32.8235294,36 L18.9411765,36 L18.8285882,35.995 L18.6176471,36 C15.298163,36 12.5932226,33.3688259 12.4746423,30.0782942 L12.4705882,29.8529412 C12.4705882,27.0205711 14.386204,24.6356171 16.992524,23.9229906 C17.4390279,20.0263292 20.7484484,17 24.7647059,17 Z" id="shape结合" fill="#FFFFFF"></path>
                <path d="M31.3529412,25.9411765 L35.3529412,25.9411765 C35.9052259,25.9411765 36.3529412,26.3888917 36.3529412,26.9411765 C36.3529412,27.4934612 35.9052259,27.9411765 35.3529412,27.9411765 L31.3529412,27.9411765 C30.8006564,27.9411765 30.3529412,27.4934612 30.3529412,26.9411765 C30.3529412,26.3888917 30.8006564,25.9411765 31.3529412,25.9411765 Z M31.3529412,29.2941176 L36.3529412,29.2941176 C36.9052259,29.2941176 37.3529412,29.7418329 37.3529412,30.2941176 C37.3529412,30.8464024 36.9052259,31.2941176 36.3529412,31.2941176 L31.3529412,31.2941176 C30.8006564,31.2941176 30.3529412,30.8464024 30.3529412,30.2941176 C30.3529412,29.7418329 30.8006564,29.2941176 31.3529412,29.2941176 Z" id="shape结合" fill="#FFBB5D"></path>
                <path d="M23.9749838,25.1366424 C23.9613218,33.0377601 27.4696605,36.9883189 34.5,36.9883189 M23.9749838,23.0804721 L21.1832709,26.1 M23.9749838,23.0804721 L27.0205117,26.126" id="shape结合" stroke="#FFBB5D" stroke-width="2" stroke-linecap="round" stroke-linejoin="round"></path>
            </g>
        </g>
    </g>
</svg>