<?xml version="1.0" encoding="UTF-8"?>
<svg width="60px" height="60px" viewBox="0 0 60 60" version="1.1" xmlns="http://www.w3.org/2000/svg" xmlns:xlink="http://www.w3.org/1999/xlink">
    <title>g 8</title>
    <g id="page-1" stroke="none" stroke-width="1" fill="none" fill-rule="evenodd">
        <g id="Project-configuration" transform="translate(-1076.000000, -694.000000)" fill="#000000" fill-rule="nonzero">
            <g id="g-3" transform="translate(290.000000, 583.000000)">
                <g id="g-8" transform="translate(786.000000, 111.000000)">
                    <path d="M30,5 C43.7142857,5 55,16.2857143 55,30 C55,43.8571429 43.7142857,55 30,55 C16.1428571,55 5,43.7142857 5,30 C5,16.2857143 16.2857143,5 30,5 Z M30,8.57142857 C18.1428571,8.57142857 8.57142857,18.2857143 8.57142857,30 C8.57142857,41.8571429 18.2857143,51.4285714 30,51.4285714 C41.7142857,51.4285714 51.4285714,41.7142857 51.4285714,30 C51.4285714,18.1428571 41.7142857,8.57142857 30,8.57142857 Z M30.5714286,19.7142857 C31.7142857,19.7142857 32.7142857,19.8571429 33.7142857,20.1428571 C34.5714286,20.2857143 35.4285714,20.7142857 36.1428571,21.2857143 C36.8571429,21.8571429 37.4285714,22.4285714 37.8571429,23.2857143 C38.2857143,24.1428571 38.4285714,25.1428571 38.4285714,26.1428571 L38.4285714,26.1428571 L38.4287674,34.3231432 C38.4303351,35.1587302 38.4444444,35.7936508 38.5714286,36.4285714 C38.7142857,37 38.8571429,37.5714286 39.2857143,37.8571429 L39.2857143,37.8571429 L39.2857143,38.1428571 L34.5714286,38.1428571 C34.4285714,38 34.2857143,37.7142857 34.2857143,37.4285714 C34.1428571,37.1428571 34,36.8571429 34,36.5714286 L34,36.5714286 L33.1428571,37.4285714 C32.7142857,37.7142857 32.4285714,38 32,38.1428571 C31.5714286,38.2857143 31,38.4285714 30.5714286,38.5714286 C30.1428571,38.7142857 29.5714286,38.7142857 29,38.7142857 C28.1428571,38.7142857 27.1428571,38.5714286 26.4285714,38.2857143 C25.7142857,38 25,37.5714286 24.4285714,37.1428571 C23.8571429,36.7142857 23.4285714,36.1428571 23.1428571,35.4285714 C22.8571429,34.8571429 22.7142857,34 22.7142857,33.2857143 C22.7142857,31.4285714 23.4285714,29.8571429 24.8571429,28.8571429 C26.2857143,27.8571429 28.4285714,27.2857143 31.2857143,27.2857143 L31.2857143,27.2857143 L33.8571429,27.2857143 L33.8571429,26.1428571 C33.8571429,25.1428571 33.5714286,24.4285714 33,24 C32.4285714,23.5714286 31.7142857,23.2857143 30.5714286,23.2857143 C29.5714286,23.2857143 28.8571429,23.4285714 28.4285714,23.8571429 C28,24.1428571 27.7142857,24.7142857 27.7142857,25.4285714 L27.7142857,25.4285714 L23,25.4285714 C23,24.7142857 23.1428571,24 23.4285714,23.2857143 C23.7142857,22.5714286 24.1428571,22 24.8571429,21.4285714 C25.5714286,20.8571429 26.2857143,20.4285714 27.2857143,20.1428571 C28.2857143,19.8571429 29.4285714,19.7142857 30.5714286,19.7142857 Z M33.7142857,30 L31.2857143,30 C30.5714286,30 30,30.1428571 29.4285714,30.2857143 C28.8571429,30.4285714 28.4285714,30.5714286 28.1428571,30.8571429 C27.8571429,31 27.7142857,31.4285714 27.4285714,31.7142857 C27.1428571,32 27.1428571,32.4285714 27.1428571,32.8571429 C27.1428571,33.5714286 27.4285714,34 27.8571429,34.4285714 C28.2857143,34.8571429 29,35 29.8571429,35 C30.2857143,35 30.7142857,35 31.1428571,34.8571429 C31.5714286,34.7142857 32,34.5714286 32.2857143,34.4285714 C32.5714286,34.2857143 32.8571429,34.1428571 33.1428571,33.8571429 C33.4285714,33.5714286 33.5714286,33.4285714 33.7142857,33.1428571 L33.7142857,33.1428571 L33.7142857,30 Z" id="shape"></path>
                </g>
            </g>
        </g>
    </g>
</svg>