<?xml version="1.0" encoding="UTF-8"?>
<svg width="50px" height="23px" viewBox="0 0 50 23" version="1.1" xmlns="http://www.w3.org/2000/svg" xmlns:xlink="http://www.w3.org/1999/xlink">
    <title>beta</title>
    <g id="Hosting-Create" stroke="none" stroke-width="1" fill="none" fill-rule="evenodd">
        <g id="Project-configuration" transform="translate(-936.000000, -593.000000)" fill="#FF723B" fill-rule="nonzero">
            <g id="编组-3" transform="translate(290.000000, 473.000000)">
                <g id="报告-beta" transform="translate(646.000000, 120.000000)">
                    <path d="M24.0259713,11 C22.7792437,11.0746393 22.1038853,11.7412875 22,13 L26,13 C25.9307259,11.741343 25.272699,11.0746948 24.0259713,11 Z" id="路径"></path>
                    <path d="M39.0020262,16.0943119 C38.9655367,16.6980663 39.421901,17 40.3711735,17 C41.9776938,16.8868031 42.8539328,16.0943119 43,14.6226394 L43,14 C42.5253637,14.3024991 41.7951372,14.5660409 40.8093204,14.7924347 C39.6045123,15.018885 39.0020262,15.4528441 39.0020262,16.0943119 Z" id="路径"></path>
                    <path d="M15,12 C13.7058789,12.0730021 13.0391926,12.7793587 13,14.1191238 L13,14.8798113 C13.0391926,16.2201193 13.6862532,16.9264758 14.9411817,16.9989351 C16.3137468,17.0351377 17,16.148257 17,14.3364476 C16.9608073,12.8512752 16.2941211,12.0730021 15,12 Z" id="路径"></path>
                    <path d="M46.432124,0 L8.944501,0 C6.97407988,0 5.37662502,1.58563552 5.37662502,3.54166122 L5.37662502,16.1374249 L0.681389442,20.3807108 L0.693337625,20.4196963 C0.286241916,20.6656962 0,21.0903936 0,21.5981125 C0,22.3723739 0.632281841,23 1.4122866,23 C1.43709766,23 1.45779261,22.9872318 1.48231781,22.9859266 L1.48654828,23 L8.94450094,23 L14.7298796,23 L46.432124,23 C48.4025451,23 50,21.4143645 50,19.4583955 L50,3.54160449 C50,1.58563552 48.4025451,0 46.432124,0 Z M15.4002355,18.1032679 C14.2174798,18.1032679 13.3398886,17.6487781 12.7676336,16.7398552 L12.7676336,17.8760514 L10.3067081,17.8760514 L10.3067081,5.37789319 L12.7676336,5.37789319 L12.7676336,10.7179926 C13.3399458,9.73331196 14.2937995,9.24091487 15.6291948,9.24091487 C17.8802552,9.35452314 19.0439739,10.7747968 19.1202937,13.5016222 C19.1202937,16.5693861 17.880198,18.1032679 15.4002355,18.1032679 Z M25.0150353,18.1032679 C21.9627034,17.9896597 20.3793119,16.569386 20.2648609,13.8425606 C20.3793119,10.8884618 21.8863837,9.35457992 24.7861332,9.24097165 C27.8765964,9.24097165 29.4218566,10.7748536 29.4218566,13.8425606 L29.4218566,14.4106587 L22.7257864,14.4106587 C22.8021061,15.6983704 23.5651891,16.3800768 25.0150353,16.4557778 C26.0452087,16.4557778 26.7128777,16.0776132 27.0180995,15.3195816 L29.593476,15.6036023 C28.9067698,17.270046 27.3806039,18.1032679 25.0150353,18.1032679 Z M34.286482,18.1032679 C32.531414,18.140551 31.6729171,17.2884322 31.7111055,15.5468549 L31.7111055,11.2293434 L30.2803536,11.2293434 L30.2803536,9.41144082 L31.7111055,9.41144082 L31.7111055,6.5709503 L34.05758,6.05965633 L34.05758,9.41144082 L36.1179268,9.41144082 L36.1179268,11.2293434 L34.05758,11.2293434 L34.05758,15.0356177 C34.05758,15.9073143 34.4200272,16.3422263 35.1449789,16.3422263 C35.4120694,16.3422263 35.6600656,16.2664685 35.8889677,16.1150097 L36.4040544,17.6488917 C35.9461931,17.9517525 35.2403357,18.1032679 34.286482,18.1032679 Z M43.9585072,17.8759947 C43.7296052,17.5351131 43.59606,17.1185306 43.5578715,16.6261902 C42.7566573,17.5723962 41.5166188,18.0653607 39.8378706,18.1032679 C38.1209339,17.9896597 37.2052114,17.1942883 37.0907604,15.7172673 C37.0907604,14.1644885 38.1590651,13.2555089 40.2956746,12.9903851 C41.97448,12.6495035 43.0236905,12.3654828 43.4433633,12.1382663 C43.519683,11.2671939 42.9282765,10.8511788 41.6692011,10.8884618 C40.6008963,10.8884618 39.9331702,11.2861475 39.6661368,12.0814621 L37.3768879,11.7405806 C37.8347491,10.0741368 39.2464641,9.24097165 41.6119755,9.24097165 C44.5498564,9.16521388 45.9615141,10.3582142 45.8470631,12.8199727 C45.8470631,13.6531946 45.8470631,14.7710046 45.8470631,16.1717572 C45.8470631,16.8534635 45.9997026,17.4215617 46.3049243,17.8760515 L43.9585072,17.8760514 L43.9585072,17.8759947 Z" id="形状"></path>
                </g>
            </g>
        </g>
    </g>
</svg>