<?xml version="1.0" encoding="UTF-8"?>
<svg width="50px" height="23px" viewBox="0 0 50 23" version="1.1" xmlns="http://www.w3.org/2000/svg" xmlns:xlink="http://www.w3.org/1999/xlink">
    <title>group</title>
    <g id="Hosting-Create" stroke="none" stroke-width="1" fill="none" fill-rule="evenodd">
        <g id="Project-configuration" transform="translate(-588.000000, -599.000000)" fill="#FFFFFF">
            <g id="group-2" transform="translate(588.000000, 599.000000)">
                <path d="M48,0 C49.1045695,-2.02906125e-16 50,0.8954305 50,2 L50,21 C50,22.1045695 49.1045695,23 48,23 L2,23 C0.8954305,23 1.3527075e-16,22.1045695 0,21 L0,2 C-1.3527075e-16,0.8954305 0.8954305,2.02906125e-16 2,0 L48,0 Z M21.8125,8.0625 C17.3125,8.3125 17.3125,8.3125 17.125,13.1875 C17.3125,17.875 17.3125,17.875 21.875,18.0625 C25.3102679,18.1227679 25.3102679,18.1227679 26.2465721,15.3934949 L26.3125,15.1875 L24.1875,14.625 C23.75,16.4375 23.75,16.4375 21.8125,16.375 C19.7201087,16.2554348 19.7201087,16.2554348 19.3432183,14.0200851 L19.3125,13.8125 L26.375,13.8125 L26.375,13.25 C26.25,8.1875 26.25,8.1875 21.8125,8.0625 Z M9.1875,4.875 L7.125,4.875 L7.125,17.875 L9.1875,17.8125 L9.1875,16.8125 C9.9375,18 9.9375,18 11.875,18.0625 C15.8125,18 15.8125,18 15.8125,13.1875 C15.8125,8 15.8125,8 11.6875,8.0625 C10.1205357,8.17857143 10.1205357,8.17857143 9.30803571,9.15688776 L9.1875,9.3125 L9.1875,4.875 Z M30.5625,4.875 L28.5625,5.875 L28.5625,8.25 L27.25,8.25 L27.25,9.9375 L28.5625,9.9375 L28.5625,15.6875 C28.505,17.8725 28.505,17.8725 30.4577,17.9944 L30.6313,18.0011 L30.8125,18 C31.5125,17.95 31.5125,17.95 32.2125,17.74 L32.5625,17.625 L32.1875,16.3125 C31.6875,16.4375 31.6875,16.4375 31.1875,16.4375 C30.6105769,16.5528846 30.6105769,16.5528846 30.6194527,15.7629438 L30.625,15.625 L30.625,9.9375 L32.25,9.9375 L32.3125,8.25 L30.625,8.25 L30.5625,4.875 Z M33.6136296,10.6718193 L33.5625,10.875 L35.5625,11.4375 C35.8125,9.6875 35.8125,9.6875 38,9.8125 C40.0625,9.6875 40.0625,9.6875 39.875,11.5 C39.5625,11.875 39.5625,11.875 37,12.125 C33.375,12.5 33.375,12.5 33.3125,15.3125 C33.4375,17.9375 33.4375,17.9375 36.75,18 C39.0625,18 39.0625,18 40.125,16.625 C40.1805556,17.3472222 40.1805556,17.3472222 40.5817901,17.7237654 L40.6875,17.8125 L42.75,17.8125 C42,17.0625 42,17.0625 41.9423077,15.6201923 L41.9375,15.375 L41.9375,11.5155029 C41.8769531,7.93945312 41.8769531,7.93945312 38.0625,8 C34.3814655,7.87931034 34.3814655,7.87931034 33.6136296,10.6718193 Z M13.75,13.1875 C13.75,16.4375 13.75,16.4375 11.5,16.4375 C9.27644231,16.4375 9.27644231,16.4375 9.19092086,13.8371857 L9.1875,13.625 L9.1875,12.375 C9.1875,9.875 9.1875,9.875 11.5,9.875 C13.8125,9.75 13.8125,9.75 13.75,13.1875 Z M39.875,13.125 L39.875,14 C39.6875,16.0625 39.6875,16.0625 37.0625,16.25 C35.375,16.25 35.375,16.25 35.4375,15.25 C35.3125,14.0625 35.3125,14.0625 37.4375,13.875 C39.1785714,13.7008929 39.1785714,13.7008929 39.7879464,13.2034439 L39.875,13.125 Z M21.8125,9.9375 C23.875,10 23.875,10 24.125,12.0625 L19.4375,12.0625 C19.75,10.125 19.75,10.125 21.8125,9.9375 Z" id="group"></path>
            </g>
        </g>
    </g>
</svg>