<svg width="254" height="298" viewBox="0 0 254 298" fill="none" xmlns="http://www.w3.org/2000/svg">
<path d="M155.477 247.484V280.876L126.437 298L98.2512 280.876V247.484L126.437 264.608L155.477 247.484ZM0 131.869L28.1859 148.993V206.372L76.8845 235.483V268.875L0 223.497V131.869ZM252.861 131.869V223.497L175.122 268.875V235.483L223.821 206.372V148.993L252.861 131.869ZM175.122 86.4903L204.162 103.614V137.006L155.463 166.117V224.353L127.278 241.477L99.0916 224.353V166.117L48.6848 137.006V103.614L77.7248 86.4903L126.423 115.601L175.122 86.4903ZM48.6986 160.994L76.8845 178.118V211.51L48.6986 194.386V160.994ZM204.176 160.994V194.386L175.99 211.51V178.118L204.176 160.994ZM28.1859 57.3794L57.226 74.5035L28.1859 91.6275V125.019L0 107.895V74.5035L28.1859 57.3794ZM224.661 57.3794L253.701 74.5035V107.895L224.661 125.019V91.6275L196.475 74.5035L224.661 57.3794ZM126.423 57.3794L155.463 74.5035L126.423 91.6275L98.2375 74.5035L126.423 57.3794ZM126.423 0L204.162 45.3787L175.976 62.5028L127.278 33.3919L77.7248 62.5028L49.5389 45.3787L126.423 0Z" fill="#F3BA2F"/>
</svg>
