<svg width="298" height="298" viewBox="0 0 298 298" fill="none" xmlns="http://www.w3.org/2000/svg">
<path d="M173.824 234.609V263.565L148.641 278.414L124.2 263.565V234.609L148.641 249.458L173.824 234.609ZM39 134.352L63.4418 149.201V198.958L105.671 224.202V253.158L39 213.808V134.352ZM258.272 134.352V213.808L190.859 253.158V224.202L233.089 198.958V149.201L258.272 134.352ZM190.859 95.0011L216.042 109.85V138.806L173.812 164.05V214.551L149.371 229.4L124.929 214.551V164.05L81.2176 138.806V109.85L106.4 95.0011L148.629 120.245L190.859 95.0011ZM81.2296 159.608L105.671 174.457V203.414L81.2296 188.564V159.608ZM216.054 159.608V188.564L191.612 203.414V174.457L216.054 159.608ZM63.4418 69.7573L88.6242 84.6066L63.4418 99.4559V128.412L39 113.562V84.6066L63.4418 69.7573ZM233.818 69.7573L259 84.6066V113.562L233.818 128.412V99.4559L209.376 84.6066L233.818 69.7573ZM148.629 69.7573L173.812 84.6066L148.629 99.4559L124.188 84.6066L148.629 69.7573ZM148.629 20L216.042 59.3507L191.6 74.2001L149.371 48.9562L106.4 74.2001L81.9583 59.3507L148.629 20Z" fill="#F3BA2F"/>
</svg>
