<?xml version="1.0" encoding="UTF-8"?>
<svg width="60px" height="60px" viewBox="0 0 60 60" version="1.1" xmlns="http://www.w3.org/2000/svg" xmlns:xlink="http://www.w3.org/1999/xlink">
    <title>g 7</title>
    <defs>
        <linearGradient x1="0.962820471%" y1="47.1539678%" x2="98.8780414%" y2="52.1217496%" id="linearGradient-1">
            <stop stop-color="#522685" offset="0%"></stop>
            <stop stop-color="#EE1E78" offset="40.5598756%"></stop>
            <stop stop-color="#F25B25" offset="57.8991793%"></stop>
            <stop stop-color="#FBB03A" offset="100%"></stop>
        </linearGradient>
        <linearGradient x1="0.220238746%" y1="46.8434125%" x2="100%" y2="52.6434687%" id="linearGradient-2">
            <stop stop-color="#37BEF6" offset="0%"></stop>
            <stop stop-color="#2AACE2" offset="100%"></stop>
        </linearGradient>
    </defs>
    <g id="page-1" stroke="none" stroke-width="1" fill="none" fill-rule="evenodd">
        <g id="Project-configuration" transform="translate(-708.000000, -695.000000)">
            <g id="g-7" transform="translate(708.000000, 695.000000)">
                <path d="M55.8141713,22.6141264 C57.5494197,25.2279566 57.9741955,28.2937488 57.9970377,30.168509 C58.0077265,31.0457895 58.0077265,32.3539632 57.6633602,33.3939095 C56.4252072,37.1329883 52.3824233,41.8566242 41.5005244,38.3081691 C39.9931605,37.816636 42.7033205,37.816636 42.5940104,37.6664674 C49.1012758,38.192615 52.4751177,35.6932955 52.715536,30.168509 C53.0252688,23.0508831 44.9491769,18.3039444 36.8355478,27.0561213 C36.2838639,27.651223 35.5168476,28.3868125 34.9701596,29.1108632 C34.6419296,29.5455813 34.2460243,30.0986583 33.7902789,30.4913162 C33.3127744,30.9027211 32.7745618,31.155461 32.4038072,31.6959075 C31.8880144,32.4477752 31.4781033,32.9475629 31.1517876,33.2521776 C30.9560961,33.5680625 30.7824,33.8244373 30.6314125,34.0207651 C28.4788314,36.8197479 26.5113539,38.6122277 25.1992994,39.6008706 C22.3339133,41.7599604 19.4659409,42.7581233 16.3937436,42.9723182 C11.6644978,43.3020433 7.34702473,40.6413151 5.18582868,37.3858736 C3.45058032,34.7720434 3.02580452,31.7062512 3.00296233,29.831491 C2.99227349,28.9542105 2.99227349,27.6460368 3.33663975,26.6060905 C4.57479283,22.8670117 8.61757672,18.1433758 19.4994756,21.6918309 C21.0068395,22.183364 18.2966795,22.183364 18.4059896,22.3335326 C11.8987242,21.807385 8.52488229,24.3067045 8.28446397,29.831491 C7.97473116,36.9491169 16.0508231,41.6960556 24.1644522,32.9438787 C24.7161361,32.348777 25.4831524,31.6131875 26.0298404,30.8891368 C26.3580704,30.4544187 26.7539757,29.9013417 27.2097211,29.5086838 C27.6872256,29.0972789 28.2254382,28.844539 28.5961928,28.3040925 C29.1119856,27.5522248 29.5218967,27.0524371 29.8482124,26.7478224 C30.0439039,26.4319375 30.2176,26.1755627 30.3685875,25.9792349 C32.5211686,23.1802521 34.4886461,21.3877723 35.8007006,20.3991294 C38.6660867,18.2400396 41.5340591,17.2418767 44.6062564,17.0276818 C49.3355022,16.6979567 53.6529753,19.3586849 55.8141713,22.6141264 Z" id="s2" fill="url(#linearGradient-1)"></path>
                <path d="M15.3033945,17 C20.3871381,17 26.0837606,20.7828561 32.393262,28.3485683 C32.3910575,28.3529946 32.3888553,28.357417 32.3866555,28.3618355 C43.3782714,40.1334487 51.9158329,41.6008098 58,32.76444 C57.9263735,33.097476 57.8667707,33.3369537 57.8211917,33.4828731 C57.6268476,34.1050575 57.4124928,34.57337 57.2377402,34.9026717 C54.4561015,40.1443577 50.6173436,42.8365765 46.110754,42.9937344 C41.0300852,43.1709121 35.2047071,39.5888981 28.6346198,32.2476924 L28.669,32.286 L28.6439834,32.2584728 C18.1137917,20.0920748 9.63060038,18.1879009 3.19440952,26.545951 L3,26.8023664 C3.20719817,26.182316 3.38653491,25.7308769 3.53801024,25.4480492 C6.56646947,19.7934505 10.5744448,17 15.3033945,17 Z" id="shape" fill="url(#linearGradient-2)"></path>
            </g>
        </g>
    </g>
</svg>