<?xml version="1.0" encoding="UTF-8"?>
<svg width="65px" height="62px" viewBox="0 0 65 62" version="1.1" xmlns="http://www.w3.org/2000/svg" xmlns:xlink="http://www.w3.org/1999/xlink">
    <title>g 6</title>
    <g id="page-1" stroke="none" stroke-width="1" fill="none" fill-rule="evenodd">
        <g id="Project-configuration" transform="translate(-342.000000, -692.000000)">
            <g id="g-3" transform="translate(290.000000, 583.000000)">
                <g id="g-6" transform="translate(52.669287, 109.890081)">
                    <path d="M45.667179,7.10021354 L39.6073851,28.114016 L18.5935826,34.1738099 L24.1035764,12.6102073 L45.667179,7.10021354 Z" id="rect" stroke="#469EA2" stroke-width="1.5" fill="#6ACAD1" transform="translate(32.146704, 20.653335) rotate(-315.000000) translate(-32.146704, -20.653335) "></path>
                    <path d="M31.8916191,12.109919 C32.9353126,12.109919 33.7801719,11.6230542 34.274612,10.8794013 C34.5820831,10.4169555 33.5254576,10.8904808 33.52547,10.2847598 C33.52547,9.23157778 32.9354342,8.88648686 31.7553626,9.24948701 C31.4672482,9.16903369 31.2566912,9.16903369 31.1236915,9.24948701 C30.9725651,9.3409054 30.53514,9.02801439 30.53514,9.48195566 C30.53514,10.0942671 29.0328236,10.4291742 29.3838804,10.8944606 C29.9385556,11.6296202 30.8549872,12.109919 31.8916191,12.109919 Z" id="orect" fill="#469EA2"></path>
                    <path d="M31.8916191,31.109919 C32.9353126,31.109919 33.7801719,30.6230542 34.274612,29.8794013 C34.5820831,29.4169555 33.5254576,29.8904808 33.52547,29.2847598 C33.52547,28.2315778 32.9354342,27.8864869 31.7553626,28.249487 C31.4672482,28.1690337 31.2566912,28.1690337 31.1236915,28.249487 C30.9725651,28.3409054 30.53514,28.0280144 30.53514,28.4819557 C30.53514,29.0942671 29.0328236,29.4291742 29.3838804,29.8944606 C29.9385556,30.6296202 30.8549872,31.109919 31.8916191,31.109919 Z" id="orect" fill="#469EA2" transform="translate(31.830713, 29.609919) scale(1, -1) translate(-31.830713, -29.609919) "></path>
                    <path d="M37.8258509,19.732329 L52.8301007,34.7365819 L47.2433671,56.2367532 L31.7630792,40.7564621 L37.8258509,19.732329 Z" id="rect" stroke="#42999E" stroke-width="1.5" fill="#64C3CA" transform="translate(42.291884, 37.998476) rotate(-315.000000) translate(-42.291884, -37.998476) "></path>
                    <path d="M33.9609901,34.5084888 C34.9107627,34.5084888 35.679594,34.0337596 36.1295399,33.3086431 C36.409342,32.8577242 35.4478011,33.3194464 35.4478124,32.7288236 C35.4478124,31.7018934 34.9108734,31.3654043 33.8369952,31.7193562 C33.574808,31.6409083 33.3831988,31.6409083 33.2621676,31.7193562 C33.1246409,31.8084959 32.7265792,31.503404 32.7265792,31.9460303 C32.7265792,32.5430793 31.3594548,32.8696384 31.6789204,33.323327 C32.1836808,34.0401619 33.0176437,34.5084888 33.9609901,34.5084888 Z" id="orect" fill="#42999E" transform="translate(33.905565, 33.045878) scale(-1, -1) rotate(122.000000) translate(-33.905565, -33.045878) "></path>
                    <path d="M50.9974382,44.0152641 C51.9472108,44.0152641 52.7160421,43.5405349 53.1659881,42.8154184 C53.4457901,42.3644995 52.4842492,42.8262217 52.4842606,42.2355989 C52.4842606,41.2086687 51.9473215,40.8721795 50.8734433,41.2261315 C50.6112561,41.1476836 50.4196469,41.1476836 50.2986157,41.2261315 C50.161089,41.3152712 49.7630273,41.0101793 49.7630273,41.4528056 C49.7630273,42.0498545 48.3959029,42.3764137 48.7153685,42.8301023 C49.2201289,43.5469372 50.0540918,44.0152641 50.9974382,44.0152641 Z" id="orect" fill="#42999E" transform="translate(50.942013, 42.552653) scale(-1, -1) rotate(294.000000) translate(-50.942013, -42.552653) "></path>
                    <path d="M17.4949149,19.7491365 L32.5458489,34.8000705 L26.915032,56.2561597 L11.4321419,40.7732697 L17.4949149,19.7491365 Z" id="rect" stroke="#3D9096" stroke-width="1.5" fill="#5CB5BE" transform="translate(21.984716, 38.015284) scale(-1, 1) rotate(-315.000000) translate(-21.984716, -38.015284) "></path>
                    <path d="M30.4871666,34.6043759 C31.4369391,34.6043759 32.2057704,34.1296468 32.6557164,33.4045302 C32.9355185,32.9536114 31.9739776,33.4153336 31.9739889,32.8247108 C31.9739889,31.7977806 31.4370498,31.4612914 30.3631717,31.8152434 C30.1009844,31.7367954 29.9093752,31.7367954 29.788344,31.8152434 C29.6508173,31.9043831 29.2527557,31.5992912 29.2527557,32.0419175 C29.2527557,32.6389664 27.8856313,32.9655256 28.2050968,33.4192142 C28.7098573,34.1360491 29.5438201,34.6043759 30.4871666,34.6043759 Z" id="orect" fill="#3D9096" transform="translate(30.431741, 33.141765) scale(1, -1) rotate(122.000000) translate(-30.431741, -33.141765) "></path>
                    <path d="M13.2769064,43.8585394 C14.226679,43.8585394 14.9955103,43.3838102 15.4454563,42.6586937 C15.7252583,42.2077748 14.7637174,42.669497 14.7637288,42.0788742 C14.7637288,41.051944 14.2267897,40.7154549 13.1529115,41.0694068 C12.8907243,40.9909589 12.6991151,40.9909589 12.5780839,41.0694068 C12.4405572,41.1585465 12.0424955,40.8534546 12.0424955,41.2960809 C12.0424955,41.8931299 10.6753711,42.219689 10.9948367,42.6733776 C11.4995971,43.3902125 12.33356,43.8585394 13.2769064,43.8585394 Z" id="orect" fill="#3D9096" transform="translate(13.221481, 42.395929) scale(-1, -1) rotate(65.000000) translate(-13.221481, -42.395929) "></path>
                </g>
            </g>
        </g>
    </g>
</svg>