<svg width="56" height="56" viewBox="0 0 56 56" fill="none" xmlns="http://www.w3.org/2000/svg">
<rect width="56" height="56" rx="28" fill="#F7F0FF"/>
<path d="M42 24.1667H14M19.6 35.7361L23.1 32.3333L19.6 28.9306M26.6 35.7361L32.2 35.7361M14 22.5333L14 33.9667C14 36.2535 14 37.397 14.4578 38.2705C14.8604 39.0388 15.503 39.6635 16.2932 40.0549C17.1917 40.5 18.3678 40.5 20.72 40.5H35.28C37.6322 40.5 38.8083 40.5 39.7068 40.0549C40.497 39.6635 41.1396 39.0388 41.5422 38.2705C42 37.397 42 36.2535 42 33.9667V22.5333C42 20.2465 42 19.103 41.5422 18.2295C41.1396 17.4612 40.497 16.8365 39.7068 16.4451C38.8083 16 37.6322 16 35.28 16L20.72 16C18.3678 16 17.1917 16 16.2932 16.4451C15.503 16.8365 14.8604 17.4612 14.4578 18.2295C14 19.103 14 20.2465 14 22.5333Z" stroke="black" stroke-width="2" stroke-linecap="round" stroke-linejoin="round"/>
<path d="M42 24.1667H14M19.6 35.7361L23.1 32.3333L19.6 28.9306M26.6 35.7361L32.2 35.7361M14 22.5333L14 33.9667C14 36.2535 14 37.397 14.4578 38.2705C14.8604 39.0388 15.503 39.6635 16.2932 40.0549C17.1917 40.5 18.3678 40.5 20.72 40.5H35.28C37.6322 40.5 38.8083 40.5 39.7068 40.0549C40.497 39.6635 41.1396 39.0388 41.5422 38.2705C42 37.397 42 36.2535 42 33.9667V22.5333C42 20.2465 42 19.103 41.5422 18.2295C41.1396 17.4612 40.497 16.8365 39.7068 16.4451C38.8083 16 37.6322 16 35.28 16L20.72 16C18.3678 16 17.1917 16 16.2932 16.4451C15.503 16.8365 14.8604 17.4612 14.4578 18.2295C14 19.103 14 20.2465 14 22.5333Z" stroke="url(#paint0_linear_11674_4974)" stroke-width="2" stroke-linecap="round" stroke-linejoin="round"/>
<defs>
<linearGradient id="paint0_linear_11674_4974" x1="14.7778" y1="21.0256" x2="40.1868" y2="27.8693" gradientUnits="userSpaceOnUse">
<stop stop-color="#9747FF"/>
<stop offset="1" stop-color="#7C5BFF"/>
</linearGradient>
</defs>
</svg>
