<?xml version="1.0" encoding="UTF-8"?>
<svg width="16px" height="16px" viewBox="0 0 16 16" version="1.1" xmlns="http://www.w3.org/2000/svg" xmlns:xlink="http://www.w3.org/1999/xlink">
    <title>icon/delete</title>
    <defs>
        <path d="M6,3 L6,1.943 C6,1.699 6.199,1.5 6.443,1.5 L9.557,1.5 C9.801,1.5 10,1.699 10,1.943 L10,3 L6,3 Z M15.25,3 L11.5,3 L11.5,1.943 C11.5,0.87 10.63,0 9.557,0 L6.443,0 C5.37,0 4.5,0.87 4.5,1.943 L4.5,3 L0.75,3 C0.336,3 0,3.336 0,3.75 C0,4.164 0.336,4.5 0.75,4.5 L4.5,4.5 L11.5,4.5 L15.25,4.5 C15.664,4.5 16,4.164 16,3.75 C16,3.336 15.664,3 15.25,3 L15.25,3 Z M13.25,6 C13.664,6 14,6.336 14,6.75 L14,6.75 L14,12.771 C14,14.555 12.555,16 10.771,16 L10.771,16 L5.228,16 C3.445,16 2,14.555 2,12.771 L2,12.771 L2,6.75 C2,6.336 2.336,6 2.75,6 C3.164,6 3.5,6.336 3.5,6.75 L3.5,6.75 L3.5,12.771 C3.5,13.727 4.274,14.5 5.228,14.5 L5.228,14.5 L10.771,14.5 C11.727,14.5 12.5,13.727 12.5,12.771 L12.5,12.771 L12.5,6.75 C12.5,6.336 12.836,6 13.25,6 Z M6.25,6 C6.663,6 7,6.337 7,6.75 L7,12.25 C7,12.6276667 6.71682639,12.9431528 6.35151562,12.9931111 L6.25,13 C5.837,13 5.5,12.662 5.5,12.25 L5.5,6.75 C5.5,6.337 5.837,6 6.25,6 Z M9.75,6 C10.162,6 10.5,6.337 10.5,6.75 L10.5,12.25 C10.5,12.6276667 10.2159861,12.9431528 9.85130556,12.9931111 L9.75,13 C9.338,13 9,12.662 9,12.25 L9,6.75 C9,6.337 9.338,6 9.75,6 Z" id="path-1"></path>
    </defs>
    <g id="page-1" stroke="none" stroke-width="1" fill="none" fill-rule="evenodd">
        <g id="Projects" transform="translate(-1159.000000, -937.000000)">
            <g id="icon/delete" transform="translate(1159.000000, 937.000000)">
                <mask id="mask-2" fill="white">
                    <use xlink:href="#path-1"></use>
                </mask>
                <use id="mask" fill="#231916" xlink:href="#path-1"></use>
                <g id="g" mask="url(#mask-2)" fill="#617083">
                    <g id="Colors/Background">
                        <rect id="Color" x="0" y="0" width="16" height="16"></rect>
                    </g>
                </g>
            </g>
        </g>
    </g>
</svg>