<?xml version="1.0" encoding="UTF-8"?>
<svg width="16px" height="16px" viewBox="0 0 16 16" version="1.1" xmlns="http://www.w3.org/2000/svg" xmlns:xlink="http://www.w3.org/1999/xlink">
    <title>icon/Setting</title>
    <defs>
        <path d="M5.2,12.524 C5.491,12.524 5.782,12.581 6.056,12.694 C6.639,12.936 7.095,13.416 7.306,14.01 C7.468,14.464 7.878,14.5 8,14.5 C8.122,14.5 8.532,14.464 8.694,14.01 C8.905,13.415 9.361,12.935 9.944,12.694 C10.527,12.453 11.189,12.469 11.76,12.74 C12.194,12.95 12.51,12.682 12.596,12.596 C12.682,12.51 12.947,12.195 12.74,11.759 C12.47,11.189 12.453,10.528 12.694,9.944 C12.935,9.361 13.415,8.905 14.011,8.693 C14.465,8.532 14.5,8.122 14.5,8 C14.5,7.878 14.465,7.468 14.011,7.306 C13.416,7.095 12.936,6.639 12.694,6.056 C12.453,5.472 12.47,4.81 12.74,4.24 C12.947,3.805 12.682,3.49 12.596,3.404 C12.512,3.316 12.198,3.052 11.759,3.259 C11.19,3.53 10.526,3.546 9.944,3.305 C9.361,3.064 8.905,2.584 8.694,1.989 L9.4,1.738 L8.694,1.989 C8.532,1.535 8.122,1.5 8,1.5 C7.878,1.5 7.468,1.535 7.306,1.989 C7.095,2.584 6.639,3.064 6.056,3.305 C5.473,3.546 4.811,3.531 4.24,3.259 C3.804,3.051 3.489,3.316 3.404,3.403 C3.318,3.489 3.053,3.804 3.259,4.24 C3.531,4.811 3.547,5.472 3.305,6.056 C3.064,6.639 2.584,7.095 1.99,7.306 C1.535,7.468 1.5,7.878 1.5,8 C1.5,8.122 1.535,8.532 1.989,8.693 C2.584,8.905 3.064,9.361 3.305,9.944 C3.547,10.527 3.531,11.189 3.259,11.759 C3.052,12.195 3.318,12.51 3.404,12.596 C3.49,12.682 3.805,12.952 4.24,12.74 C4.543,12.596 4.871,12.524 5.2,12.524 M8,16 L7.999,16 C7.041,16 6.214,15.416 5.893,14.512 C5.823,14.314 5.677,14.161 5.482,14.08 C5.287,13.999 5.074,14.004 4.884,14.095 C4.019,14.507 3.022,14.335 2.344,13.658 C1.665,12.979 1.493,11.982 1.904,11.116 C1.995,10.924 2,10.712 1.92,10.518 C1.839,10.323 1.685,10.177 1.487,10.107 C0.583,9.785 0,8.958 0,7.999 C0,7.041 0.583,6.214 1.486,5.893 C1.685,5.822 1.839,5.676 1.92,5.482 C2,5.287 1.995,5.074 1.905,4.883 C1.493,4.018 1.665,3.021 2.343,2.343 C3.019,1.665 4.018,1.491 4.884,1.904 C5.074,1.995 5.287,2.001 5.482,1.92 C5.677,1.839 5.823,1.685 5.893,1.486 C6.214,0.584 7.041,0 7.999,0 L8,0 C8.959,0 9.785,0.583 10.107,1.486 L10.107,1.486 C10.178,1.685 10.324,1.839 10.518,1.92 C10.712,2 10.925,1.993 11.115,1.904 C11.984,1.491 12.98,1.666 13.658,2.343 C14.335,3.021 14.507,4.018 14.096,4.884 C14.005,5.074 13.999,5.287 14.08,5.482 C14.161,5.676 14.314,5.822 14.513,5.893 C15.416,6.214 16,7.041 16,7.999 C16,8.958 15.416,9.785 14.513,10.107 C14.314,10.177 14.161,10.324 14.08,10.518 C13.999,10.712 14.005,10.924 14.096,11.115 C14.507,11.981 14.335,12.979 13.657,13.657 C12.98,14.335 11.983,14.506 11.115,14.095 C10.924,14.005 10.713,14.001 10.518,14.08 C10.324,14.161 10.178,14.314 10.107,14.512 C9.786,15.416 8.958,16 8,16 M7.9998,6.2496 C7.0348,6.2496 6.2498,7.0346 6.2498,7.9996 C6.2498,8.9646 7.0348,9.7496 7.9998,9.7496 C8.9648,9.7496 9.7498,8.9646 9.7498,7.9996 C9.7498,7.0346 8.9648,6.2496 7.9998,6.2496 M7.9998,11.2496 C6.2078,11.2496 4.7498,9.7916 4.7498,7.9996 C4.7498,6.2076 6.2078,4.7496 7.9998,4.7496 C9.7918,4.7496 11.2498,6.2076 11.2498,7.9996 C11.2498,9.7916 9.7918,11.2496 7.9998,11.2496" id="path-1"></path>
    </defs>
    <g id="p-1" stroke="none" stroke-width="1" fill="none" fill-rule="evenodd">
        <g id="Projects" transform="translate(-1122.000000, -937.000000)">
            <g id="icon/Setting" transform="translate(1122.000000, 937.000000)">
                <mask id="mask-2" fill="white">
                    <use xlink:href="#path-1"></use>
                </mask>
                <use id="mask" fill="#231916" xlink:href="#path-1"></use>
                <g id="g" mask="url(#mask-2)" fill="#617083">
                    <g id="Colors/Background">
                        <rect id="Color" x="0" y="0" width="16" height="16"></rect>
                    </g>
                </g>
            </g>
        </g>
    </g>
</svg>