<?xml version="1.0" encoding="UTF-8"?>
<svg width="14px" height="16px" viewBox="0 0 14 16" version="1.1" xmlns="http://www.w3.org/2000/svg" xmlns:xlink="http://www.w3.org/1999/xlink">
    <title>icon/screen</title>
    <defs>
        <path d="M9.757,0 L4,0 C2.349,0 1,1.35 1,3 L1,13 C1,14.65 2.349,16 4,16 L11.999,16 C13.65,16 14.999,14.65 14.999,13 L14.999,5.243 C14.999,4.447 14.684,3.684 14.121,3.122 L11.878,0.879 C11.316,0.316 10.553,0 9.757,0 M9.757,1.5 C10.157,1.5 10.534,1.656 10.818,1.939 L13.06,4.182 C13.344,4.465 13.499,4.842 13.499,5.243 L13.499,13 C13.499,13.828 12.826,14.5 11.999,14.5 L4,14.5 C3.173,14.5 2.5,13.828 2.5,13 L2.5,3 C2.5,2.173 3.173,1.5 4,1.5 L9.757,1.5" id="path-1"></path>
    </defs>
    <g id="Projects" stroke="none" stroke-width="1" fill="none" fill-rule="evenodd">
        <g transform="translate(-508.000000, -265.000000)" id="group">
            <g transform="translate(507.000000, 265.000000)" id="icon/screen">
                <path d="M5,5.5 L8,5.5 C8.27614237,5.5 8.5,5.72385763 8.5,6 C8.5,6.27614237 8.27614237,6.5 8,6.5 L5,6.5 C4.72385763,6.5 4.5,6.27614237 4.5,6 C4.5,5.72385763 4.72385763,5.5 5,5.5 Z M5,7.5 L8,7.5 C8.27614237,7.5 8.5,7.72385763 8.5,8 C8.5,8.27614237 8.27614237,8.5 8,8.5 L5,8.5 C4.72385763,8.5 4.5,8.27614237 4.5,8 C4.5,7.72385763 4.72385763,7.5 5,7.5 Z M5,9.5 L8,9.5 C8.27614237,9.5 8.5,9.72385763 8.5,10 C8.5,10.2761424 8.27614237,10.5 8,10.5 L5,10.5 C4.72385763,10.5 4.5,10.2761424 4.5,10 C4.5,9.72385763 4.72385763,9.5 5,9.5 Z M10,5.5 C10.2761424,5.5 10.5,5.72385763 10.5,6 L10.5,8.85355339 C10.6952621,8.65829124 11.0118446,8.65829124 11.2071068,8.85355339 C11.4023689,9.04881554 11.4023689,9.36539803 11.2071068,9.56066017 L10.5,10.267767 C10.4488408,10.3189262 10.3893535,10.3566815 10.325902,10.381033 C10.2379405,10.4546688 10.1242641,10.5 10,10.5 C9.87573593,10.5 9.76205952,10.4546688 9.67460536,10.3796411 C9.61064652,10.3566815 9.55115922,10.3189262 9.5,10.267767 L9.5,10.267767 L8.79289322,9.56066017 C8.59763107,9.36539803 8.59763107,9.04881554 8.79289322,8.85355339 C8.98815536,8.65829124 9.30473785,8.65829124 9.5,8.85355339 L9.5,8.85355339 L9.5,6 C9.5,5.72385763 9.72385763,5.5 10,5.5 Z" id="形状结合" fill="#617083"></path>
                <mask id="mask-2" fill="white">
                    <use xlink:href="#path-1"></use>
                </mask>
                <use id="mask" fill="#231916" xlink:href="#path-1"></use>
                <g id="group" mask="url(#mask-2)" fill="#617083">
                    <g id="Colors/Background">
                        <rect id="Color" x="0" y="0" width="16" height="16"></rect>
                    </g>
                </g>
            </g>
        </g>
    </g>
</svg>