<?xml version="1.0" encoding="UTF-8"?>
<svg width="14px" height="16px" viewBox="0 0 14 16" version="1.1" xmlns="http://www.w3.org/2000/svg" xmlns:xlink="http://www.w3.org/1999/xlink">
    <title>icon/screen</title>
    <defs>
        <path d="M9.757,0 L4,0 C2.349,0 1,1.35 1,3 L1,13 C1,14.65 2.349,16 4,16 L11.999,16 C13.65,16 14.999,14.65 14.999,13 L14.999,5.243 C14.999,4.447 14.684,3.684 14.121,3.122 L11.878,0.879 C11.316,0.316 10.553,0 9.757,0 M9.757,1.5 C10.157,1.5 10.534,1.656 10.818,1.939 L13.06,4.182 C13.344,4.465 13.499,4.842 13.499,5.243 L13.499,13 C13.499,13.828 12.826,14.5 11.999,14.5 L4,14.5 C3.173,14.5 2.5,13.828 2.5,13 L2.5,3 C2.5,2.173 3.173,1.5 4,1.5 L9.757,1.5" id="path-1"></path>
    </defs>
    <g id="Projects" stroke="none" stroke-width="1" fill="none" fill-rule="evenodd">
        <g transform="translate(-502.000000, -265.000000)" id="gr">
            <g transform="translate(501.000000, 265.000000)" id="icon/screen">
                <path d="M9,5 C9.17050696,5 9.32107998,5.08534734 9.41132888,5.21565184 C9.43853895,5.23496677 9.46532571,5.2580909 9.4899272,5.28447277 L10.8539239,6.74718017 C11.0422526,6.94913792 11.031204,7.26552755 10.8292463,7.4538562 C10.6272885,7.64218485 10.3108989,7.63113628 10.1225702,7.42917853 L9.5,6.762 L9.5,11.5 C9.5,11.7761424 9.27614237,12 9,12 C8.72385763,12 8.5,11.7761424 8.5,11.5 L8.5,5.5 C8.5,5.22385763 8.72385763,5 9,5 Z" id="形状结合" fill="#617083"></path>
                <path d="M6,5 C6.17050696,5 6.32107998,5.08534734 6.41132888,5.21565184 C6.43853895,5.23496677 6.46532571,5.2580909 6.4899272,5.28447277 L7.85392392,6.74718017 C8.04225257,6.94913792 8.031204,7.26552755 7.82924625,7.4538562 C7.62728851,7.64218485 7.31089887,7.63113628 7.12257022,7.42917853 L6.5,6.762 L6.5,11.5 C6.5,11.7761424 6.27614237,12 6,12 C5.72385763,12 5.5,11.7761424 5.5,11.5 L5.5,5.5 C5.5,5.22385763 5.72385763,5 6,5 Z" id="形状结合" fill="#617083" transform="translate(6.744124, 8.500000) scale(-1, -1) translate(-6.744124, -8.500000) "></path>
                <mask id="mask-2" fill="white">
                    <use xlink:href="#path-1"></use>
                </mask>
                <use id="mask" fill="#231916" xlink:href="#path-1"></use>
                <g id="g" mask="url(#mask-2)" fill="#617083">
                    <g id="Colors/Background">
                        <rect id="Color" x="0" y="0" width="16" height="16"></rect>
                    </g>
                </g>
            </g>
        </g>
    </g>
</svg>