<?xml version="1.0" encoding="UTF-8"?>
<svg width="88px" height="82px" viewBox="0 0 88 82" version="1.1" xmlns="http://www.w3.org/2000/svg" xmlns:xlink="http://www.w3.org/1999/xlink">
    <title>group 6</title>
    <g id="page-1" stroke="none" stroke-width="1" fill="none" fill-rule="evenodd">
        <g id="projects---no-project" transform="translate(-576.000000, -547.000000)">
            <g id="group-3" transform="translate(494.000000, 437.000000)">
                <g id="group-2" transform="translate(0.000000, 76.000000)">
                    <g id="group-6" transform="translate(82.709966, 34.137218)">
                        <path d="M61.6687523,9.56777175 L53.4800674,37.9640191 L25.08382,46.152704 L32.5295523,17.013504 L61.6687523,9.56777175 Z" id="rect" stroke="#775DA6" stroke-width="2" fill="#BAA1E9" transform="translate(43.398051, 27.882002) rotate(-315.000000) translate(-43.398051, -27.882002) "></path>
                        <path d="M43.3874849,16.8627818 C45.0573945,16.8627818 46.4091694,16.2136287 47.2002736,15.2220915 C47.6922274,14.605497 46.0016265,15.2368642 46.0016464,14.4292361 C46.0016464,13.0249934 45.0575891,12.5648722 43.1694745,13.0488724 C42.7084915,12.9416013 42.3716003,12.9416013 42.1588007,13.0488724 C41.9169985,13.1707636 41.2171183,12.7535756 41.2171183,13.3588306 C41.2171183,14.1752459 38.8134122,14.6217887 39.3751031,15.2421705 C40.2625833,16.2223833 41.7288738,16.8627818 43.3874849,16.8627818 Z" id="oval" fill="#775DA6"></path>
                        <path d="M43.3874849,41.8627818 C45.0573945,41.8627818 46.4091694,41.2136287 47.2002736,40.2220915 C47.6922274,39.605497 46.0016265,40.2368642 46.0016464,39.4292361 C46.0016464,38.0249934 45.0575891,37.5648722 43.1694745,38.0488724 C42.7084915,37.9416013 42.3716003,37.9416013 42.1588007,38.0488724 C41.9169985,38.1707636 41.2171183,37.7535756 41.2171183,38.3588306 C41.2171183,39.1752459 38.8134122,39.6217887 39.3751031,40.2421705 C40.2625833,41.2223833 41.7288738,41.8627818 43.3874849,41.8627818 Z" id="oval" fill="#775DA6" transform="translate(43.290034, 39.862782) scale(1, -1) translate(-43.290034, -39.862782) "></path>
                        <path d="M51.0587579,26.6148257 L71.3345333,46.8906053 L63.7851509,75.9438998 L42.8661027,55.0248472 L51.0587579,26.6148257 Z" id="rect" stroke="#775DA6" stroke-width="2" fill="#BAA1E9" transform="translate(57.094044, 51.297942) rotate(-315.000000) translate(-57.094044, -51.297942) "></path>
                        <path d="M45.8473366,46.5864598 C47.1295296,46.5864598 48.1674519,45.9455755 48.7748789,44.9666681 C49.1526117,44.3579277 47.8545315,44.9812527 47.8545468,44.1839119 C47.8545468,42.7975561 47.129679,42.3432957 45.6799435,42.8211309 C45.3259908,42.7152262 45.0673183,42.7152262 44.9039262,42.8211309 C44.7182652,42.9414695 44.1808819,42.5295955 44.1808819,43.1271409 C44.1808819,43.933157 42.335264,44.3740118 42.7665425,44.9864914 C43.4479691,45.9542186 44.573819,46.5864598 45.8473366,46.5864598 Z" id="oval" fill="#775DA6" transform="translate(45.772512, 44.611935) scale(-1, -1) rotate(122.000000) translate(-45.772512, -44.611935) "></path>
                        <path d="M68.8465416,59.4206065 C70.1287346,59.4206065 71.1666568,58.7797221 71.7740839,57.8008148 C72.1518167,57.1920743 70.8537365,57.8153993 70.8537517,57.0180586 C70.8537517,55.6317027 70.128884,55.1774424 68.6791485,55.6552775 C68.3251957,55.5493728 68.0665233,55.5493728 67.9031312,55.6552775 C67.7174701,55.7756161 67.1800869,55.3637421 67.1800869,55.9612876 C67.1800869,56.7673036 65.334469,57.2081585 65.7657475,57.8206381 C66.4471741,58.7883652 67.5730239,59.4206065 68.8465416,59.4206065 Z" id="oval" fill="#775DA6" transform="translate(68.771717, 57.446082) scale(-1, -1) rotate(294.000000) translate(-68.771717, -57.446082) "></path>
                        <path d="M23.6119943,26.6375158 L43.9508076,46.9763291 L36.3418551,75.9700553 L15.4193373,55.0475375 L23.6119943,26.6375158 Z" id="rect" stroke="#775DA6" stroke-width="2" fill="#BAA1E9" transform="translate(29.679367, 51.320633) scale(-1, 1) rotate(-315.000000) translate(-29.679367, -51.320633) "></path>
                        <path d="M41.1576749,46.7159075 C42.4398678,46.7159075 43.4777901,46.0750232 44.0852171,45.0961158 C44.4629499,44.4873754 43.1648697,45.1107003 43.164885,44.3133596 C43.164885,42.9270038 42.4400173,42.4727434 40.9902817,42.9505786 C40.636329,42.8446739 40.3776565,42.8446739 40.2142644,42.9505786 C40.0286034,43.0709171 39.4912201,42.6590431 39.4912201,43.2565886 C39.4912201,44.0626047 37.6456022,44.5034595 38.0768807,45.1159391 C38.7583073,46.0836662 39.8841572,46.7159075 41.1576749,46.7159075 Z" id="oval" fill="#775DA6" transform="translate(41.082850, 44.741383) scale(1, -1) rotate(122.000000) translate(-41.082850, -44.741383) "></path>
                        <path d="M17.9238237,59.2090281 C19.2060167,59.2090281 20.2439389,58.5681438 20.8513659,57.5892364 C21.2290987,56.980496 19.9310185,57.603821 19.9310338,56.8064802 C19.9310338,55.4201244 19.2061661,54.9658641 17.7564305,55.4436992 C17.4024778,55.3377945 17.1438053,55.3377945 16.9804132,55.4436992 C16.7947522,55.5640378 16.257369,55.1521638 16.257369,55.7497092 C16.257369,56.5557253 14.411751,56.9965801 14.8430295,57.6090598 C15.5244561,58.5767869 16.650306,59.2090281 17.9238237,59.2090281 Z" id="oval" fill="#775DA6" transform="translate(17.848999, 57.234504) scale(-1, -1) rotate(65.000000) translate(-17.848999, -57.234504) "></path>
                    </g>
                </g>
            </g>
        </g>
    </g>
</svg>