<?xml version="1.0" encoding="UTF-8"?>
<svg width="28px" height="29px" viewBox="0 0 28 29" version="1.1" xmlns="http://www.w3.org/2000/svg" xmlns:xlink="http://www.w3.org/1999/xlink">
    <title>代码,分支,分流,分叉</title>
    <g id="Create" stroke="none" stroke-width="1" fill="none" fill-rule="evenodd">
        <g id="Clone-Template" transform="translate(-635.000000, -484.000000)" fill="#34A9FF" fill-rule="nonzero">
            <g id="编组-3" transform="translate(290.000000, 293.000000)">
                <g id="代码,分支,分流,分叉" transform="translate(359.000000, 205.500000) rotate(40.000000) translate(-359.000000, -205.500000) translate(352.000000, 193.000000)">
                    <path d="M13.2858267,8.50920121 C13.1297491,8.68255351 13.0588048,8.91938693 13.0895473,9.15377874 C13.1250195,9.41991115 13.1463028,9.68604355 13.1533973,9.94240963 C13.1865046,11.1998242 12.8909031,12.2887696 12.276052,13.1823884 C11.2095217,14.725468 9.49976254,15.2211091 8.25350653,15.5824632 C7.40690378,15.8266214 6.79678226,15.8901025 6.30490133,15.9389341 C5.76572416,15.9950905 5.49377077,16.0219479 5.1083064,16.2514565 C5.03263241,16.2978466 4.95695842,16.3466782 4.88364925,16.400393 C4.18602966,16.9180084 3.78637642,17.760354 3.78637642,18.6466481 L3.78637642,19.3449405 C3.78637642,19.6061897 3.91644108,19.8479063 4.12690936,19.9944012 C4.84344743,20.4924838 5.31404505,21.3421542 5.29985618,22.3041374 C5.28093767,23.7764111 4.11745012,24.9801109 2.6891036,24.9996435 C1.20636638,25.0240594 0.000312215625,23.7910606 0.000312215625,22.2675137 C0.000312215625,21.3177384 0.46854502,20.4802759 1.18035345,19.9919596 C1.38845692,19.8479063 1.51379197,19.6037481 1.51379197,19.3449405 L1.51379197,5.65499228 C1.51379197,5.39374305 1.38372731,5.15202646 1.17325903,5.00553157 C0.456720964,4.50744892 -0.0138766558,3.65777852 0.000312215625,2.69579533 C0.0192306951,1.22352161 1.18271827,0.0222634433 2.61106479,0.000289222865 C4.09143719,-0.0216850219 5.29749136,1.21131371 5.29749136,2.73486065 C5.29749136,3.68463591 4.82925856,4.52209841 4.11745012,5.01041472 C3.90934666,5.15446804 3.78401161,5.3986262 3.78401161,5.65743387 L3.78401161,14.1077479 C3.78401161,14.2078527 3.88806334,14.2688923 3.97319659,14.2200606 L3.97556138,14.2200606 C4.78669194,13.7390691 5.44410971,13.6731463 6.08024417,13.6072237 C6.52482884,13.5632752 6.98596722,13.5144436 7.63865538,13.3264418 C8.66261903,13.0310104 9.82374179,12.6940721 10.4267689,11.8224275 C10.8287869,11.241331 10.9139202,10.5186229 10.878448,9.87892851 C10.8618943,9.57128922 10.6727093,9.30515682 10.3960263,9.19284406 C9.40044042,8.79486627 8.69572641,7.79381779 8.70282083,6.62185862 C8.71228007,5.11540275 9.91596944,3.89461194 11.3750585,3.90681982 C12.8270532,3.91902772 14,5.13981856 14,6.64139125 C14,7.3640994 13.7280466,8.02088487 13.2858267,8.50920121 Z" id="路径"></path>
                </g>
            </g>
        </g>
    </g>
</svg>