<?xml version="1.0" encoding="UTF-8"?>
<svg width="23px" height="18px" viewBox="0 0 23 18" version="1.1" xmlns="http://www.w3.org/2000/svg" xmlns:xlink="http://www.w3.org/1999/xlink">
    <title>folder(1)</title>
    <g id="Create" stroke="none" stroke-width="1" fill="none" fill-rule="evenodd">
        <g id="Clone-Template" transform="translate(-761.000000, -487.000000)" fill="#775DA6" fill-rule="nonzero">
            <g id="g-3" transform="translate(290.000000, 293.000000)">
                <g id="folder(1)" transform="translate(471.000000, 194.000000)">
                    <path d="M20.4542575,4.88046647 C20.7898627,4.9154519 21.125468,5.00291545 21.4610732,5.14285714 C21.7966785,5.28279883 22.0881252,5.47959184 22.3354133,5.73323615 C22.5827014,5.98688047 22.7681674,6.30612245 22.8918115,6.6909621 C23.0154555,7.07580175 23.0331189,7.5393586 22.9448018,8.08163265 C22.9094749,8.22157434 22.8388212,8.56705539 22.7328405,9.1180758 C22.6268599,9.66909621 22.5032159,10.303207 22.3619084,11.0204082 C22.2206009,11.7376093 22.06163,12.4766764 21.8849957,13.2376093 C21.7083613,13.9985423 21.5405587,14.6501458 21.3815878,15.1924198 C21.2932706,15.5072886 21.1652107,15.8309038 20.9974081,16.1632653 C20.8296055,16.4956268 20.6132284,16.7973761 20.3482769,17.0685131 C20.0833253,17.3396501 19.7653835,17.5626822 19.3944514,17.7376093 C19.0235192,17.9125364 18.5819334,18 18.0696938,18 L3.39137948,18 C3.02044735,18 2.63626764,17.9212828 2.23884036,17.7638484 C1.84141307,17.606414 1.4748968,17.3833819 1.13929154,17.0947522 C0.803686282,16.8061224 0.529903043,16.4562682 0.317941826,16.0451895 C0.105980609,15.6341108 0,15.1749271 0,14.6676385 L0,3.41107872 C0,2.34402332 0.291446674,1.50874636 0.874340021,0.905247813 C1.45723337,0.301749271 2.27858309,0 3.33838917,0 L16.374004,0 C16.7625996,0 17.1644427,0.0743440233 17.5795335,0.22303207 C17.9946242,0.371720117 18.3699722,0.577259475 18.7055774,0.839650146 C19.0411827,1.10204082 19.3149659,1.40816327 19.5269271,1.75801749 C19.7388884,2.10787172 19.844869,2.48396501 19.844869,2.88629738 L19.844869,3.17492711 L18.4671211,3.17492711 C17.7605837,3.17492711 16.9348181,3.17055394 15.9898243,3.16180758 C15.0448306,3.15306122 14.0380148,3.14868805 12.969377,3.14868805 C11.9007392,3.14868805 10.9027551,3.14431487 9.97542479,3.13556851 C9.04809446,3.12682216 8.24882404,3.12244898 7.57761352,3.12244898 L6.35883652,3.12244898 C5.89958721,3.12244898 5.54190266,3.26676385 5.28578285,3.55539359 C5.02966305,3.84402332 4.83094941,4.2244898 4.68964193,4.696793 C4.54833445,5.20408163 4.38936354,5.74198251 4.21272919,6.31049563 C4.03609484,6.87900875 3.87712393,7.40816327 3.73581645,7.89795918 C3.55918211,8.47521866 3.38254776,9.03498542 3.20591341,9.57725948 C3.17058654,9.71720117 3.15292311,9.83090379 3.15292311,9.91836735 C3.15292311,10.2157434 3.25448786,10.4650146 3.45761736,10.6661808 C3.66074686,10.8673469 3.9124508,10.96793 4.21272919,10.96793 C4.76029567,10.96793 5.1312278,10.6268222 5.32552558,9.94460641 L6.72976865,4.85422741 C9.02601517,4.87172012 11.1279639,4.88046647 13.0356149,4.88046647 L20.4542575,4.88046647 L20.4542575,4.88046647 Z" id="path"></path>
                </g>
            </g>
        </g>
    </g>
</svg>