<?xml version="1.0" encoding="UTF-8"?>
<svg width="22px" height="22px" viewBox="0 0 22 22" version="1.1" xmlns="http://www.w3.org/2000/svg" xmlns:xlink="http://www.w3.org/1999/xlink">
    <title>icon/github</title>
    <defs>
        <path d="M21.9995687,11.0000785 C22.0204685,13.3276582 21.281275,15.5969385 19.893087,17.4658222 C18.5576986,19.333606 16.6602151,20.7250939 14.4800341,21.4422877 C14.2853358,21.4961872 14.0774376,21.4576875 13.914639,21.3399885 C13.79694,21.2266895 13.7331406,21.0693909 13.7419405,20.9065923 L13.7419405,17.8904185 C13.80574,17.1358251 13.5329423,16.3911316 12.995047,15.8554362 C13.4878427,15.8070367 13.9762385,15.7223374 14.4569343,15.6035384 C14.9277302,15.4781395 15.3798263,15.2878412 15.8000226,15.0381433 C16.2411188,14.7983454 16.6316154,14.4793482 16.9550126,14.0954515 C17.3103095,13.6477554 17.5765072,13.1351599 17.7404057,12.5873647 C17.9494039,11.8866708 18.0495031,11.1584771 18.0385032,10.4269834 C18.0638029,9.33249296 17.6546065,8.27320217 16.9000131,7.48010907 C17.25531,6.53081732 17.2146103,5.47812648 16.790014,4.55743448 C16.3984174,4.48593511 15.9936209,4.54093463 15.6350241,4.71473312 C15.1752281,4.88083167 14.7341319,5.09092985 14.3161355,5.34282765 L13.7727402,5.68162471 C11.9742559,5.17892908 10.0723724,5.17892908 8.27278807,5.68162471 C8.11658943,5.57052567 7.91969114,5.45392669 7.66889332,5.29552807 C7.27729673,5.06783005 6.8670003,4.87423173 6.44240399,4.71473312 C6.06290729,4.5211348 5.63171104,4.45293539 5.20931471,4.51783483 C4.78581839,5.44842674 4.74951871,6.50771753 5.10811559,7.4647092 C4.36342207,8.2699022 3.95862559,9.33029298 3.97622543,10.4269834 C3.96412554,11.1529771 4.06532466,11.8756708 4.27432284,12.5708648 C4.44592135,13.1164601 4.71101904,13.6268556 5.060816,14.0800517 C5.37651326,14.4749482 5.76920984,14.8005454 6.21470597,15.0381433 C6.64040227,15.2757413 7.09139834,15.4660396 7.55889428,15.6035384 C8.04179008,15.7234374 8.53238581,15.8081367 9.0284815,15.8554362 C8.61598509,16.2426329 8.36408728,16.7695283 8.32008766,17.3316234 C8.11438945,17.4306225 7.89439136,17.4999219 7.66889332,17.5373216 C7.40929558,17.5857212 7.14639787,17.608821 6.88350015,17.606621 C6.5216033,17.609921 6.16960636,17.497722 5.8770089,17.2854238 C5.55141174,17.0500259 5.28301407,16.7431285 5.09161573,16.3900316 C4.91891724,16.0930342 4.68241929,15.8389364 4.39972175,15.6431381 C4.19072357,15.4825395 3.94982566,15.3637405 3.69352789,15.2977411 L3.41083035,15.2977411 C3.26893158,15.2900412 3.12703282,15.309841 2.99393397,15.3604405 C2.91473466,15.4077401 2.89163486,15.4627397 2.92353459,15.5254391 C2.95983427,15.5958385 3.00493388,15.6618379 3.05663343,15.7212374 C3.11383293,15.7883368 3.17653239,15.8488363 3.24583178,15.9027358 L3.3470309,15.9654353 C3.59452875,16.0974341 3.80902689,16.2833325 3.97622543,16.5077306 C4.15112391,16.7310286 4.3018226,16.9730265 4.42392154,17.2304243 L4.56472032,17.5604214 C4.67691934,17.9157183 4.89691743,18.2259156 5.19391484,18.4481137 C5.47661239,18.6538119 5.80110956,18.7924107 6.14430658,18.8562101 C6.46990375,18.9255095 6.80210086,18.9596092 7.13429797,18.9585093 C7.39719569,18.9640092 7.6600934,18.9453094 7.91969114,18.9035097 L8.24968827,18.8485102 L8.24968827,20.9065923 C8.25298824,21.0726909 8.18368885,21.2288895 8.06158991,21.3399885 C7.89549135,21.4565875 7.68429319,21.4950872 7.48849489,21.4422877 C5.3138138,20.716294 3.4284302,19.3149062 2.10624169,17.4427224 C0.711453822,15.5859386 -0.0288397404,13.3210583 0.00086000139,11.0000785 C-0.0112398934,9.06739527 0.499155668,7.16771179 1.47814716,5.50012629 C2.43843881,3.82704084 3.82662673,2.43885291 5.49971219,1.47746127 C7.16729768,0.49956977 9.06698117,-0.0108257919 10.9996644,0 C12.9323476,-0.0108257919 14.832031,0.49956977 16.4996165,1.47746127 C18.172702,2.43885291 19.5608899,3.82704084 20.5222816,5.50012629 C21.501273,7.16771179 22.0116686,9.06739527 21.9995687,11.0000785" id="path-1"></path>
    </defs>
    <g id="page-1" stroke="none" stroke-width="1" fill="none" fill-rule="evenodd">
        <g id="Overview-hosting" transform="translate(-430.000000, -472.000000)">
            <g id="icon/github" transform="translate(430.000000, 472.000000)">
                <mask id="mask-2" fill="white">
                    <use xlink:href="#path-1"></use>
                </mask>
                <use id="mask" fill="#BBC2C9" xlink:href="#path-1"></use>
                <g id="g" mask="url(#mask-2)" fill="#617083">
                    <g id="Colors/Background">
                        <rect id="Color" x="0" y="0" width="22" height="22"></rect>
                    </g>
                </g>
            </g>
        </g>
    </g>
</svg>