<?xml version="1.0" encoding="UTF-8"?>
<svg width="23px" height="23px" viewBox="0 0 23 23" version="1.1" xmlns="http://www.w3.org/2000/svg" xmlns:xlink="http://www.w3.org/1999/xlink">
    <title>github</title>
    <g id="Create" stroke="none" stroke-width="1" fill="none" fill-rule="evenodd">
        <g id="Clone-Template" transform="translate(-318.000000, -485.000000)" fill="#775DA6">
            <g id="g-3" transform="translate(290.000000, 293.000000)">
                <path d="M50.9995452,203.499487 C51.0214915,205.932441 50.2485601,208.305972 48.7982147,210.259413 C47.401259,212.210961 45.4189738,213.666696 43.1389384,214.415564 C42.9357751,214.472226 42.717949,214.432858 42.5474806,214.308785 C42.4242736,214.191738 42.3583706,214.026788 42.366777,213.85709 L42.366777,210.702958 C42.4331932,209.913503 42.1476674,209.134925 41.5865622,208.575584 C42.1014327,208.52505 42.6120359,208.437329 43.1142328,208.312742 C43.6071891,208.180519 44.0798035,207.981624 44.5188568,207.721317 C44.978958,207.470379 45.3882683,207.136244 45.7263175,206.735693 C46.0974145,206.266832 46.3761382,205.731652 46.5476013,205.158611 C46.7655558,204.425946 46.8708272,203.664277 46.859822,202.89988 C46.8853938,201.756108 46.4572495,200.648657 45.6687888,199.819705 C46.0392441,198.826573 45.9978863,197.726662 45.5537315,196.764107 C45.144004,196.689413 44.72125,196.746941 44.3463991,196.928415 C43.8657313,197.101226 43.4035126,197.32133 42.9664806,197.585519 L42.3997284,197.938713 C40.5191211,197.413061 38.5304509,197.413061 36.6499719,197.938713 C36.4857922,197.823784 36.2803509,197.700577 36.0175414,197.536268 C35.6084557,197.297747 35.1797017,197.094488 34.7361244,196.928415 C34.3384609,196.726503 33.8873757,196.654697 33.4465898,196.723102 C33.0037826,197.69493 32.9653125,198.803023 33.3398104,199.803277 C32.562355,200.64516 32.138863,201.754087 32.1570232,202.89988 C32.1453763,203.658887 32.2506477,204.415294 32.4692438,205.142215 C32.6474769,205.712465 32.925591,206.246394 33.2905597,206.719265 C33.6210368,207.131624 34.0317589,207.472528 34.4979884,207.721317 C34.942817,207.969977 35.4139233,208.168231 35.9026124,208.312742 C36.4074402,208.437842 36.9208028,208.525692 37.4385609,208.575584 C37.0086519,208.980531 36.7451044,209.530984 36.699351,210.119778 C36.4832575,210.222708 36.2536561,210.294514 36.0175414,210.333369 C35.7468068,210.384256 35.4717087,210.409058 35.1962255,210.407294 C34.8188399,210.4097 34.4505023,210.291755 34.144827,210.070528 C33.8044035,209.823761 33.5236584,209.503775 33.3233828,209.134187 C33.1421659,208.824469 32.8954952,208.558162 32.6006005,208.353843 C32.3808813,208.185172 32.129462,208.062221 31.8613905,207.992404 L31.5657258,207.992404 C31.4175886,207.98387 31.2693231,208.006169 31.1302981,208.058082 C31.0482243,208.107462 31.0235187,208.164862 31.0563739,208.230669 C31.0953574,208.303983 31.1421055,208.372774 31.1959765,208.435949 C31.2555265,208.505125 31.3215578,208.568429 31.3931398,208.624835 L31.4999192,208.690641 C31.7577234,208.829249 31.9820628,209.022755 32.1570232,209.257394 C32.3403899,209.491262 32.4974467,209.744671 32.625274,210.012999 L32.7730582,210.358043 C32.8896236,210.72853 33.1194816,211.053136 33.4301622,211.286138 C33.725827,211.500339 34.0652237,211.64623 34.4240641,211.713288 C34.7644556,211.784453 35.1112641,211.820292 35.4590672,211.820067 C35.7339086,211.825072 36.0087501,211.805886 36.2803509,211.762538 L36.6253947,211.70501 L36.6253947,213.85709 C36.6285391,214.029162 36.5566041,214.194112 36.4282635,214.308785 C36.2542978,214.43212 36.0344503,214.471232 35.8286561,214.415564 C33.5556152,213.657071 31.584271,212.192287 30.202235,210.23474 C28.7443496,208.294582 27.9702952,205.926152 28.0008723,203.499487 C27.9888404,201.478861 28.5223845,199.492468 29.5450989,197.749827 C30.5495247,196.000063 32.0008647,194.548723 33.7505325,193.544297 C35.4932699,192.521583 37.479662,191.988167 39.5001607,192 C41.5207555,191.988167 43.5071476,192.521583 45.2499171,193.544297 C46.9995528,194.548723 48.4509249,196.000063 49.4553187,197.749827 C50.4788031,199.492212 51.0123472,201.478732 50.9995452,203.499487 Z" id="github"></path>
            </g>
        </g>
    </g>
</svg>