<?xml version="1.0" encoding="UTF-8"?>
<svg width="163px" height="162px" viewBox="0 0 163 162" version="1.1" xmlns="http://www.w3.org/2000/svg" xmlns:xlink="http://www.w3.org/1999/xlink">
    <title>project</title>
    <g id="page-1" stroke="none" stroke-width="1" fill="none" fill-rule="evenodd" opacity="0.652762277">
        <g id="projects-no-project" transform="translate(-713.000000, -250.000000)" fill-rule="nonzero">
            <g id="project" transform="translate(713.000000, 250.000000)">
                <path d="M59.453125,94.7070313 L62.578125,94.7070313 L62.578125,97.8320313 L59.453125,97.8320313 L59.453125,94.7070313 Z M56.328125,97.8320313 L53.203125,97.8320313 L53.203125,94.7070313 L56.328125,94.7070313 L56.328125,97.8320313 Z M50.0976562,97.8320313 L46.9726562,97.8320313 L46.9726562,94.7070313 L50.0976562,94.7070313 L50.0976562,97.8320313 Z M43.8476562,97.8320313 L40.7226562,97.8320313 L40.7226562,94.7070313 L43.8476562,94.7070313 L43.8476562,97.8320313 Z M37.5976562,97.8320313 L34.4726562,97.8320313 L34.4726562,94.7070313 L37.5976562,94.7070313 L37.5976562,97.8320313 Z M31.3476562,97.8320313 L28.2226562,97.8320313 L28.2226562,94.7070313 L31.3476562,94.7070313 L31.3476562,97.8320313 Z M25.0976562,97.8320313 L21.9726562,97.8320313 L21.9726562,94.7070313 L25.0976562,94.7070313 L25.0976562,97.8320313 Z M18.8671875,97.8320313 L15.7421875,97.8320313 L15.7421875,94.7070313 L18.8671875,94.7070313 L18.8671875,97.8320313 Z M9.4921875,94.7070313 L12.6171875,94.7070313 L12.6171875,97.8320313 L9.4921875,97.8320313 L9.4921875,94.7070313 Z M12.6171875,91.640625 L9.4921875,91.640625 L9.4921875,88.5742188 L12.6171875,88.5742188 L12.6171875,91.640625 Z M12.6171875,85.4882813 L9.4921875,85.4882813 L9.4921875,82.421875 L12.6171875,82.421875 L12.6171875,85.4882813 Z M12.6171875,79.3359375 L9.4921875,79.3359375 L9.4921875,76.2695313 L12.6171875,76.2695313 L12.6171875,79.3359375 Z M12.6171875,73.1835938 L9.4921875,73.1835938 L9.4921875,70.1171875 L12.6171875,70.1171875 L12.6171875,73.1835938 Z M12.6171875,67.03125 L9.4921875,67.03125 L9.4921875,63.9648438 L12.6171875,63.9648438 L12.6171875,67.03125 Z M12.6171875,60.8789063 L9.4921875,60.8789063 L9.4921875,57.8125 L12.6171875,57.8125 L12.6171875,60.8789063 Z M12.6171875,54.7265625 L9.4921875,54.7265625 L9.4921875,51.6601563 L12.6171875,51.6601563 L12.6171875,54.7265625 Z M12.6171875,48.5742188 L9.4921875,48.5742188 L9.4921875,45.5078125 L12.6171875,45.5078125 L12.6171875,48.5742188 Z M12.6171875,42.421875 L9.4921875,42.421875 L9.4921875,39.3554688 L12.6171875,39.3554688 L12.6171875,42.421875 Z M12.6171875,36.2890625 L9.4921875,36.2890625 L9.4921875,33.2226563 L12.6171875,33.2226563 L12.6171875,36.2890625 Z M9.4921875,27.0117188 L12.6171875,27.0117188 L12.6171875,30.1367188 L9.4921875,30.1367188 L9.4921875,27.0117188 Z M56.328125,30.1367188 L53.203125,30.1367188 L53.203125,27.0117188 L56.328125,27.0117188 L56.328125,30.1367188 Z M50.0976562,30.1367188 L46.9726562,30.1367188 L46.9726562,27.0117188 L50.0976562,27.0117188 L50.0976562,30.1367188 Z M43.8476562,30.1367188 L40.7226562,30.1367188 L40.7226562,27.0117188 L43.8476562,27.0117188 L43.8476562,30.1367188 Z M37.5976562,30.1367188 L34.4726562,30.1367188 L34.4726562,27.0117188 L37.5976562,27.0117188 L37.5976562,30.1367188 Z M31.3476562,30.1367188 L28.2226562,30.1367188 L28.2226562,27.0117188 L31.3476562,27.0117188 L31.3476562,30.1367188 Z M25.0976562,30.1367188 L21.9726562,30.1367188 L21.9726562,27.0117188 L25.0976562,27.0117188 L25.0976562,30.1367188 Z M18.8671875,30.1367188 L15.7421875,30.1367188 L15.7421875,27.0117188 L18.8671875,27.0117188 L18.8671875,30.1367188 Z M59.453125,27.0117188 L62.578125,27.0117188 L62.578125,30.1367188 L59.453125,30.1367188 L59.453125,27.0117188 Z M62.578125,91.640625 L59.453125,91.640625 L59.453125,88.5742188 L62.578125,88.5742188 L62.578125,91.640625 Z M62.578125,85.4882813 L59.453125,85.4882813 L59.453125,82.421875 L62.578125,82.421875 L62.578125,85.4882813 Z M62.578125,79.3359375 L59.453125,79.3359375 L59.453125,76.2695313 L62.578125,76.2695313 L62.578125,79.3359375 Z M62.578125,73.1835938 L59.453125,73.1835938 L59.453125,70.1171875 L62.578125,70.1171875 L62.578125,73.1835938 Z M62.578125,67.03125 L59.453125,67.03125 L59.453125,63.9648438 L62.578125,63.9648438 L62.578125,67.03125 Z M62.578125,60.8789063 L59.453125,60.8789063 L59.453125,57.8125 L62.578125,57.8125 L62.578125,60.8789063 Z M62.578125,54.7265625 L59.453125,54.7265625 L59.453125,51.6601563 L62.578125,51.6601563 L62.578125,54.7265625 Z M62.578125,48.5742188 L59.453125,48.5742188 L59.453125,45.5078125 L62.578125,45.5078125 L62.578125,48.5742188 Z M62.578125,42.421875 L59.453125,42.421875 L59.453125,39.3554688 L62.578125,39.3554688 L62.578125,42.421875 Z M62.578125,36.2890625 L59.453125,36.2890625 L59.453125,33.2226563 L62.578125,33.2226563 L62.578125,36.2890625 Z M148.945312,113.886719 L152.070312,113.886719 L152.070312,117.011719 L148.945312,117.011719 L148.945312,113.886719 Z M145.839844,117.011719 L142.714844,117.011719 L142.714844,113.886719 L145.839844,113.886719 L145.839844,117.011719 Z M139.589844,117.011719 L136.464844,117.011719 L136.464844,113.886719 L139.589844,113.886719 L139.589844,117.011719 Z M133.339844,117.011719 L130.214844,117.011719 L130.214844,113.886719 L133.339844,113.886719 L133.339844,117.011719 Z M127.089844,117.011719 L123.964844,117.011719 L123.964844,113.886719 L127.089844,113.886719 L127.089844,117.011719 Z M120.839844,117.011719 L117.714844,117.011719 L117.714844,113.886719 L120.839844,113.886719 L120.839844,117.011719 Z M114.609375,117.011719 L111.484375,117.011719 L111.484375,113.886719 L114.609375,113.886719 L114.609375,117.011719 Z M108.359375,117.011719 L105.234375,117.011719 L105.234375,113.886719 L108.359375,113.886719 L108.359375,117.011719 Z M98.984375,113.886719 L102.109375,113.886719 L102.109375,117.011719 L98.984375,117.011719 L98.984375,113.886719 Z M102.109375,110.800781 L98.984375,110.800781 L98.984375,107.734375 L102.109375,107.734375 L102.109375,110.800781 Z M102.109375,104.667969 L98.984375,104.667969 L98.984375,101.601563 L102.109375,101.601563 L102.109375,104.667969 Z M102.109375,98.515625 L98.984375,98.515625 L98.984375,95.4492188 L102.109375,95.4492188 L102.109375,98.515625 Z M102.109375,92.3632813 L98.984375,92.3632813 L98.984375,89.296875 L102.109375,89.296875 L102.109375,92.3632813 Z M102.109375,86.2109375 L98.984375,86.2109375 L98.984375,83.1445312 L102.109375,83.1445312 L102.109375,86.2109375 Z M102.109375,80.0585938 L98.984375,80.0585938 L98.984375,76.9921875 L102.109375,76.9921875 L102.109375,80.0585938 Z M102.109375,73.90625 L98.984375,73.90625 L98.984375,70.8398438 L102.109375,70.8398438 L102.109375,73.90625 Z M102.109375,67.7539063 L98.984375,67.7539063 L98.984375,64.6875 L102.109375,64.6875 L102.109375,67.7539063 L102.109375,67.7539063 Z M102.109375,61.6015625 L98.984375,61.6015625 L98.984375,58.5351563 L102.109375,58.5351563 L102.109375,61.6015625 Z M102.109375,55.4492188 L98.984375,55.4492188 L98.984375,52.3828125 L102.109375,52.3828125 L102.109375,55.4492188 L102.109375,55.4492188 Z M98.984375,46.171875 L102.109375,46.171875 L102.109375,49.296875 L98.984375,49.296875 L98.984375,46.171875 Z M145.839844,49.296875 L142.714844,49.296875 L142.714844,46.171875 L145.839844,46.171875 L145.839844,49.296875 Z M139.589844,49.296875 L136.464844,49.296875 L136.464844,46.171875 L139.589844,46.171875 L139.589844,49.296875 Z M133.339844,49.296875 L130.214844,49.296875 L130.214844,46.171875 L133.339844,46.171875 L133.339844,49.296875 Z M127.089844,49.296875 L123.964844,49.296875 L123.964844,46.171875 L127.089844,46.171875 L127.089844,49.296875 Z M120.839844,49.296875 L117.714844,49.296875 L117.714844,46.171875 L120.839844,46.171875 L120.839844,49.296875 Z M114.609375,49.296875 L111.484375,49.296875 L111.484375,46.171875 L114.609375,46.171875 L114.609375,49.296875 Z M108.359375,49.296875 L105.234375,49.296875 L105.234375,46.171875 L108.359375,46.171875 L108.359375,49.296875 Z M148.945312,46.171875 L152.070312,46.171875 L152.070312,49.296875 L148.945312,49.296875 L148.945312,46.171875 Z M152.070312,110.800781 L148.945312,110.800781 L148.945312,107.734375 L152.070312,107.734375 L152.070312,110.800781 Z M152.070312,104.667969 L148.945312,104.667969 L148.945312,101.601563 L152.070312,101.601563 L152.070312,104.667969 Z M152.070312,98.515625 L148.945312,98.515625 L148.945312,95.4492188 L152.070312,95.4492188 L152.070312,98.515625 Z M152.070312,92.3632813 L148.945312,92.3632813 L148.945312,89.296875 L152.070312,89.296875 L152.070312,92.3632813 Z M152.070312,86.2109375 L148.945312,86.2109375 L148.945312,83.1445312 L152.070312,83.1445312 L152.070312,86.2109375 Z M152.070312,80.0585938 L148.945312,80.0585938 L148.945312,76.9921875 L152.070312,76.9921875 L152.070312,80.0585938 Z M152.070312,73.90625 L148.945312,73.90625 L148.945312,70.8398438 L152.070312,70.8398438 L152.070312,73.90625 Z M152.070312,67.7539063 L148.945312,67.7539063 L148.945312,64.6875 L152.070312,64.6875 L152.070312,67.7539063 L152.070312,67.7539063 Z M152.070312,61.6015625 L148.945312,61.6015625 L148.945312,58.5351563 L152.070312,58.5351563 L152.070312,61.6015625 Z M152.070312,55.4492188 L148.945312,55.4492188 L148.945312,52.3828125 L152.070312,52.3828125 L152.070312,55.4492188 L152.070312,55.4492188 Z" id="shape" fill="#D0DAE9"></path>
                <polygon id="path" fill="#F9F9F9" points="29.1796875 1.5625 133.007812 1.5625 133.007812 105.390625 29.1796875 105.390625"></polygon>
                <path d="M134.570312,106.953125 L27.6171875,106.953125 L27.6171875,0 L134.570312,0 L134.570312,106.953125 Z M30.7421875,103.828125 L131.445312,103.828125 L131.445312,3.125 L30.7421875,3.125 L30.7421875,103.828125 Z" id="shape" fill="#D0DAE9"></path>
                <polygon id="path" fill="#EBF0F7" points="40.546875 12.9296875 121.621094 12.9296875 121.621094 94.0039062 40.546875 94.0039062"></polygon>
                <path d="M57.109375,27.03125 L95.2539062,27.03125 L95.2539062,30.15625 L57.109375,30.15625 L57.109375,27.03125 Z M56.0742188,46.6796875 L106.113281,46.6796875 L106.113281,49.8046875 L56.0742188,49.8046875 L56.0742188,46.6796875 Z M56.0742188,66.6796875 L106.113281,66.6796875 L106.113281,69.8046875 L56.0742188,69.8046875 L56.0742188,66.6796875 Z" id="shape" fill="#D0DAE9"></path>
                <polygon id="path" fill="#F9F9F9" points="150.644531 159.804688 11.5234375 159.804688 1.7578125 78.671875 160.410156 78.671875"></polygon>
                <path d="M152.03125,161.367188 L10.1367188,161.367188 L0,77.109375 L162.1875,77.109375 L152.03125,161.367188 Z M12.9101563,158.242188 L149.257812,158.242188 L158.652344,80.234375 L3.515625,80.234375 L12.9101563,158.242188 Z" id="shape" fill="#D0DAE9"></path>
                <polygon id="path" fill="#EBF0F7" points="139.082031 149.746094 23.1054688 149.746094 14.9609375 88.7109375 147.226562 88.7109375"></polygon>
                <path d="M11.0546875,105.449219 L41.1914062,105.449219 L41.1914062,108.574219 L11.0546875,108.574219 L11.0546875,105.449219 Z M11.0546875,120.722656 L61.5039062,120.722656 L61.5039062,123.847656 L11.0546875,123.847656 L11.0546875,120.722656 Z" id="shape" stroke="#F9F9F9" fill="#F9F9F9"></path>
                <polygon id="path" fill="#EBF0F7" points="145.546875 42.7734375 155.488281 42.7734375 155.488281 52.7148438 145.546875 52.7148438"></polygon>
                <path d="M157.050781,54.2773438 L143.984375,54.2773438 L143.984375,41.2109375 L157.050781,41.2109375 L157.050781,54.2773438 L157.050781,54.2773438 Z M147.109375,51.1523438 L153.925781,51.1523438 L153.925781,44.3359375 L147.109375,44.3359375 L147.109375,51.1523438 Z" id="shape" fill="#D0DAE9"></path>
                <polygon id="path" fill="#EBF0F7" points="6.07421875 23.6328125 16.015625 23.6328125 16.015625 33.5742188 6.07421875 33.5742188"></polygon>
                <path d="M17.578125,35.1367188 L4.51171875,35.1367188 L4.51171875,22.0703125 L17.578125,22.0703125 L17.578125,35.1367188 Z M7.63671875,32.0117188 L14.453125,32.0117188 L14.453125,25.1953125 L7.63671875,25.1953125 L7.63671875,32.0117188 Z" id="shape" fill="#D0DAE9"></path>
                <g id="no-order" transform="translate(75.000000, 97.000000)" fill="#F9F9F9">
                    <path d="M25.5440632,30.1217519 C35.130358,30.1217519 44.1702628,34.2667318 50.345859,41.4941444 C51.3218157,42.6339008 51.1916199,44.320627 50.0495041,45.3349253 C49.5826656,45.7497061 48.9674219,45.9782796 48.3175239,45.9782796 C47.5040275,45.9782796 46.7274616,45.634373 46.1868188,45.0347423 C40.967832,38.9905834 33.4178957,35.5210859 25.4781117,35.5210859 C17.4814239,35.5210859 9.93114622,38.9913187 4.76337279,45.0416997 C4.24184967,45.6504936 3.49487379,46 2.71404016,46 C2.07381576,46 1.45532861,45.763847 0.972443153,45.3348687 C0.396406216,44.8484219 0.0556663979,44.1890601 0.00616011175,43.471551 C-0.0420373876,42.7710675 0.193828769,42.0942276 0.670284096,41.5657539 C6.95257491,34.290941 16.0169483,30.1217519 25.5440632,30.1217519 L25.5440632,30.1217519 Z M41.0914839,16.1752069 C38.6010332,16.1752069 36.4974144,14.0345579 36.4974144,11.500905 L36.4974144,4.67475444 C36.4974144,2.14081875 38.6010901,0 41.0914839,0 C43.5817639,0 45.6855535,2.14081875 45.6855535,4.67475444 L45.6855535,11.5010181 C45.6855535,14.0783947 43.6247263,16.1752069 41.0914839,16.1752069 L41.0914839,16.1752069 Z M9.91356296,16.1752069 C7.42339676,16.1752069 5.31966412,14.0345579 5.31966412,11.500905 L5.31966412,4.67475444 C5.31966412,2.14081875 7.42339676,0 9.91356296,0 C12.4042982,0 14.5083154,2.14081875 14.5083154,4.67475444 L14.5083154,11.5010181 C14.5083154,14.0345579 12.4042982,16.1752069 9.91356296,16.1752069 L9.91356296,16.1752069 Z" id="shape"></path>
                </g>
            </g>
        </g>
    </g>
</svg>