<?xml version="1.0" standalone="no"?><!DOCTYPE svg PUBLIC "-//W3C//DTD SVG 1.1//EN" "http://www.w3.org/Graphics/SVG/1.1/DTD/svg11.dtd"><svg t="1682219198183" class="icon" viewBox="0 0 1024 1024" version="1.1" xmlns="http://www.w3.org/2000/svg" p-id="3878" xmlns:xlink="http://www.w3.org/1999/xlink" width="200" height="200"><path d="M364.8 968.96a26.88 26.88 0 0 0-7.04-21.12 32.64 32.64 0 0 0-27.52-11.52H128a46.72 46.72 0 0 1-31.36-12.16 46.72 46.72 0 0 1-16-28.16V136.32a46.72 46.72 0 0 1 13.44-31.36 46.72 46.72 0 0 1 33.92-12.16h768a48 48 0 0 1 31.36 12.16 46.72 46.72 0 0 1 13.44 31.36v200.96a33.28 33.28 0 0 0 34.56 31.36 32 32 0 0 0 24.32-9.6 31.36 31.36 0 0 0 10.24-24.32V133.76a108.8 108.8 0 0 0-32-76.8 104.96 104.96 0 0 0-76.8-30.72H124.16a106.24 106.24 0 0 0-76.8 29.44 108.16 108.16 0 0 0-33.28 75.52V896a104.96 104.96 0 0 0 32.64 76.8 106.24 106.24 0 0 0 76.16 30.08h207.36a32 32 0 0 0 24.32-9.6 31.36 31.36 0 0 0 10.24-24.32z m5.12 0" fill="#6172f3" p-id="3879"></path><path d="M609.28 926.72a282.88 282.88 0 1 1 282.24-282.24 282.88 282.88 0 0 1-282.24 282.24z m0-502.4A220.16 220.16 0 1 0 832 644.48a220.16 220.16 0 0 0-222.72-220.16z" fill="#6172f3" p-id="3880"></path><path d="M466.56 704a30.72 30.72 0 0 1-31.36-30.72 200.32 200.32 0 0 1 199.68-203.52 31.36 31.36 0 0 1 0 64 137.6 137.6 0 0 0-137.6 137.6 30.08 30.08 0 0 1-30.72 32.64zM911.36 970.88a29.44 29.44 0 0 1-21.76-10.88l-70.4-69.76a31.36 31.36 0 0 1 44.16-44.16l70.4 70.4a30.72 30.72 0 0 1 0 43.52 31.36 31.36 0 0 1-22.4 10.88z" fill="#6172f3" p-id="3881"></path></svg>