<?xml version="1.0" encoding="UTF-8"?>
<svg width="20px" height="20px" viewBox="0 0 20 20" version="1.1" xmlns="http://www.w3.org/2000/svg" xmlns:xlink="http://www.w3.org/1999/xlink">
    <title>share</title>
    <g id="Create" stroke="none" stroke-width="1" fill="none" fill-rule="evenodd">
        <g id="Congratulations" transform="translate(-735.000000, -590.000000)" fill="#FFFFFF" fill-rule="nonzero">
            <g id="g-7" transform="translate(320.000000, 327.000000)">
                <g id="share" transform="translate(415.000000, 263.000000)">
                    <path d="M17.703125,12.3320313 L17.703125,16.4179688 C17.703125,17.1210938 17.109375,17.7109375 16.4101562,17.7109375 L2.74609375,17.734375 C2.046875,17.734375 1.4765625,17.1640625 1.4765625,16.4609375 L1.5,2.796875 C1.5,2.09765625 2.09375,1.50390625 2.79296875,1.50390625 L10.3515625,1.50390625 L10.3515625,0 L2.79296875,0 C1.1953125,0 0,1.6171875 0,3.0625 L0,16.4609375 C0,17.9765625 1.23046875,19.2109375 2.75,19.2109375 L16.1484375,19.2109375 C17.75,19.2109375 19.2070312,17.8789062 19.2070312,16.4179688 L19.2070312,12.3320313 L17.703125,12.3320313 L17.703125,12.3320313 Z M14.1601562,0.79296875 L19.796875,6.44140625 L14.1601562,12.0859375 L14.1601562,8.859375 C14.1601562,8.859375 8.56640625,8.23828125 5.30078125,12.8945312 C5.30078125,12.8945312 6.328125,4.01953125 14.1601562,4.01953125 L14.1601562,0.79296875 L14.1601562,0.79296875 Z" id="形状"></path>
                </g>
            </g>
        </g>
    </g>
</svg>