<?xml version="1.0" encoding="UTF-8"?>
<svg width="48px" height="59px" viewBox="0 0 48 59" version="1.1" xmlns="http://www.w3.org/2000/svg" xmlns:xlink="http://www.w3.org/1999/xlink">
    <title>模版审核_sel</title>
    <g id="页面-1" stroke="none" stroke-width="1" fill="none" fill-rule="evenodd">
        <g id="projects---无项目" transform="translate(-947.000000, -558.000000)" fill-rule="nonzero">
            <g id="编组-3" transform="translate(494.000000, 437.000000)">
                <g id="编组-2" transform="translate(0.000000, 76.000000)">
                    <g id="模版审核_sel" transform="translate(453.000000, 45.000000)">
                        <path d="M6,0 L42,0 C45.3,0 48,2.655 48,5.9 L48,53.1 C48,56.345 45.3,59 42,59 L6,59 C2.7,59 0,56.345 0,53.1 L0,5.9 C0,2.655 2.7,0 6,0 Z" id="路径" fill="#3296FA"></path>
                        <path d="M30.5,10 L12.5,10 C11.6,10 11,9.4 11,8.5 C11,7.6 11.6,7 12.5,7 L30.5,7 C31.4,7 32,7.6 32,8.5 C32,9.4 31.4,10 30.5,10 Z M26,17.5 L12.5,17.5 C11.6,17.5 11,16.9 11,16 C11,15.1 11.6,14.5 12.5,14.5 L26,14.5 C26.9,14.5 27.5,15.1 27.5,16 C27.5,16.9 26.9,17.5 26,17.5 Z M20,25 L12.5,25 C11.6,25 11,24.4 11,23.5 C11,22.6 11.6,22 12.5,22 L20,22 C20.9,22 21.5,22.6 21.5,23.5 C21.5,24.4 20.9,25 20,25 Z" id="形状" fill="#FFFFFF"></path>
                        <polygon id="路径" fill="#FFFFFF" points="32 47.5777778 27.625 51 29.375 45.7111111 25 42.2888889 30.25 42.2888889 32 37 33.75 42.2888889 39 42.2888889 34.625 45.7111111 36.375 51"></polygon>
                        <path d="M32,56 C25.9210526,56 21,51.0133333 21,45.1466667 C21,39.28 25.9210526,34 32,34 C38.0789474,34 43,38.9866667 43,45.1466667 C43,51.3066667 38.0789474,56 32,56 L32,56 Z M32,35.4666667 C26.7894737,35.4666667 22.7368421,39.8666667 22.7368421,44.8533333 C22.7368421,49.84 27.0789474,54.24 32,54.24 C36.9210526,54.24 41.2631579,49.84 41.2631579,44.8533333 C41.2631579,39.8666667 37.2105263,35.4666667 32,35.4666667 Z" id="形状" fill="#FFFFFF"></path>
                    </g>
                </g>
            </g>
        </g>
    </g>
</svg>