<svg width="56" height="56" viewBox="0 0 56 56" fill="none" xmlns="http://www.w3.org/2000/svg">
<rect width="56" height="56" rx="28" fill="#F7F0FF"/>
<path fill-rule="evenodd" clip-rule="evenodd" d="M24.6685 40.8035C28.6509 41.8356 33.0612 41.0012 36.4686 38.1657C38.7582 36.2604 40.242 33.7458 40.8803 31.0547C42.2767 30.1005 43.4301 29.0705 44.1987 28.0033C44.9992 26.8917 45.4914 25.575 45.1308 24.2295C44.7868 22.9457 43.7817 22.0715 42.61 21.508C41.5934 21.019 40.3378 20.7033 38.9408 20.5328C38.7045 20.187 38.4498 19.8492 38.1764 19.5207C33.4993 13.9004 25.1517 13.1358 19.5314 17.8129C16.717 20.155 15.1202 23.4175 14.8146 26.7971C13.4953 27.7335 12.4073 28.7437 11.6915 29.7925C10.9585 30.8665 10.5251 32.126 10.8691 33.4098L12.0765 33.0863L10.8691 33.4098C11.24 34.7941 12.535 35.6604 13.7725 36.1888C15.0858 36.7496 16.7227 37.0996 18.3914 37.2452C18.8949 37.2892 19.3547 37.0282 19.5885 36.6154C20.0424 36.2341 20.1574 35.5979 19.8984 35.0906C18.5647 29.1141 24.3252 24.9491 31.7665 23.2092C33.8693 22.9117 35.8059 22.8178 37.4653 22.9115C39.8338 27.3153 38.8621 32.9215 34.8694 36.2441C32.1068 38.5431 28.5325 39.2223 25.2957 38.3834C24.6275 38.2102 23.9453 38.6115 23.7721 39.2798C23.5989 39.9481 24.0003 40.6303 24.6685 40.8035ZM35.5823 20.3831C32.7542 20.443 29.4945 20.919 26.125 21.8219C22.9571 22.6707 20.0619 23.7977 17.6665 25.0616C18.2356 23.046 19.399 21.1755 21.1306 19.7345C25.4313 16.1555 31.7008 16.5048 35.5823 20.3831ZM40.4042 23.3516C40.9169 24.7227 41.1916 26.156 41.2338 27.5908C41.6169 27.2281 41.9293 26.8766 42.17 26.5423C42.7447 25.7443 42.8044 25.2064 42.716 24.8765C42.6316 24.5613 42.3374 24.151 41.5263 23.7609C41.2081 23.6078 40.8333 23.4702 40.4042 23.3516Z" fill="url(#paint0_linear_11674_4961)"/>
<defs>
<linearGradient id="paint0_linear_11674_4961" x1="43.6336" y1="25.7284" x2="22.6926" y2="18.7697" gradientUnits="userSpaceOnUse">
<stop stop-color="#9747FF"/>
<stop offset="1" stop-color="#7C5BFF"/>
</linearGradient>
</defs>
</svg>
