<svg xmlns="http://www.w3.org/2000/svg" width="40" height="40" viewBox="0 0 40 40" fill="none">
  <path d="M6.65011 24.4333L4.1168 21.9C3.08346 20.8667 3.08346 19.1667 4.1168 18.1334L6.65011 15.6C7.08345 15.1667 7.43345 14.3167 7.43345 13.7167V10.1334C7.43345 8.66671 8.63346 7.46665 10.1001 7.46665H13.6834C14.2834 7.46665 15.1335 7.1167 15.5668 6.68337L18.1001 4.15C19.1334 3.11667 20.8335 3.11667 21.8668 4.15L24.4002 6.68337C24.8335 7.1167 25.6834 7.46665 26.2834 7.46665H29.8668C31.3335 7.46665 32.5334 8.66671 32.5334 10.1334V13.7167C32.5334 14.3167 32.8834 15.1667 33.3168 15.6L35.8501 18.1334C36.8835 19.1667 36.8835 20.8667 35.8501 21.9L33.3168 24.4333C32.8834 24.8666 32.5334 25.7166 32.5334 26.3166V29.9C32.5334 31.3667 31.3335 32.5666 29.8668 32.5666H26.2834C25.6834 32.5666 24.8335 32.9167 24.4002 33.35L21.8668 35.8834C20.8335 36.9167 19.1334 36.9167 18.1001 35.8834L15.5668 33.35C15.1335 32.9167 14.2834 32.5666 13.6834 32.5666H10.1001C8.63346 32.5666 7.43345 31.3667 7.43345 29.9V26.3166C7.43345 25.7 7.08345 24.85 6.65011 24.4333Z" fill="#D8C8EC"/>
  <path d="M20.0001 25.3498C20.9003 25.3498 21.6301 24.6201 21.6301 23.7198C21.6301 22.8196 20.9003 22.0898 20.0001 22.0898C19.0999 22.0898 18.3701 22.8196 18.3701 23.7198C18.3701 24.6201 19.0999 25.3498 20.0001 25.3498Z" fill="#8B75B4"/>
  <path d="M15.12 17.45V16.28C15.12 13.35 15.95 11.4 20 11.4C24.33 11.4 24.88 13.51 24.88 15.35C24.88 15.74 25.19 16.05 25.58 16.05C25.97 16.05 26.28 15.74 26.28 15.35C26.28 11.8 24.17 10 20 10C14.37 10 13.72 13.58 13.72 16.28V17.53C14.14 17.48 14.61 17.45 15.12 17.45Z" fill="#8B75B4" stroke="#8B75B4"/>
  <path d="M23.65 17H16.35C12.25 17 11 18.25 11 22.35V24.65C11 28.75 12.25 30 16.35 30H23.65C27.75 30 29 28.75 29 24.65V22.35C29 18.25 27.75 17 23.65 17ZM20 26.74C18.33 26.74 16.98 25.38 16.98 23.72C16.98 22.06 18.33 20.7 20 20.7C21.67 20.7 23.02 22.06 23.02 23.72C23.02 25.38 21.67 26.74 20 26.74Z" fill="#543D8C"/>
</svg>