<svg xmlns="http://www.w3.org/2000/svg" width="40" height="41" viewBox="0 0 40 41" fill="none">
  <path d="M6.64999 24.9332L4.11667 22.4C3.08334 21.3666 3.08334 19.6666 4.11667 18.6333L6.64999 16.0999C7.08332 15.6666 7.43332 14.8166 7.43332 14.2166V10.6333C7.43332 9.16665 8.63334 7.96659 10.1 7.96659H13.6833C14.2833 7.96659 15.1333 7.61664 15.5667 7.1833L18.1 4.64994C19.1333 3.61661 20.8333 3.61661 21.8667 4.64994L24.4 7.1833C24.8334 7.61664 25.6833 7.96659 26.2833 7.96659H29.8667C31.3334 7.96659 32.5333 9.16665 32.5333 10.6333V14.2166C32.5333 14.8166 32.8833 15.6666 33.3167 16.0999L35.85 18.6333C36.8834 19.6666 36.8834 21.3666 35.85 22.4L33.3167 24.9332C32.8833 25.3666 32.5333 26.2166 32.5333 26.8166V30.4C32.5333 31.8666 31.3334 33.0666 29.8667 33.0666H26.2833C25.6833 33.0666 24.8334 33.4166 24.4 33.85L21.8667 36.3833C20.8333 37.4167 19.1333 37.4167 18.1 36.3833L15.5667 33.85C15.1333 33.4166 14.2833 33.0666 13.6833 33.0666H10.1C8.63334 33.0666 7.43332 31.8666 7.43332 30.4V26.8166C7.43332 26.1999 7.08332 25.3499 6.64999 24.9332Z" fill="#C7D7FE"/>
  <path d="M20 25.85C20.9002 25.85 21.63 25.1202 21.63 24.22C21.63 23.3198 20.9002 22.59 20 22.59C19.0998 22.59 18.37 23.3198 18.37 24.22C18.37 25.1202 19.0998 25.85 20 25.85Z" fill="#8098F9"/>
  <path d="M15.12 17.95V16.78C15.12 13.85 15.95 11.9 20 11.9C24.33 11.9 24.88 14.01 24.88 15.85C24.88 16.24 25.19 16.55 25.58 16.55C25.97 16.55 26.28 16.24 26.28 15.85C26.28 12.3 24.17 10.5 20 10.5C14.37 10.5 13.72 14.08 13.72 16.78V18.03C14.14 17.98 14.61 17.95 15.12 17.95Z" fill="#8098F9" stroke="#8098F9"/>
  <path d="M23.65 17.5H16.35C12.25 17.5 11 18.75 11 22.85V25.15C11 29.25 12.25 30.5 16.35 30.5H23.65C27.75 30.5 29 29.25 29 25.15V22.85C29 18.75 27.75 17.5 23.65 17.5ZM20 27.24C18.33 27.24 16.98 25.88 16.98 24.22C16.98 22.56 18.33 21.2 20 21.2C21.67 21.2 23.02 22.56 23.02 24.22C23.02 25.88 21.67 27.24 20 27.24Z" fill="#444CE7"/>
</svg>