<svg width="260" height="74" viewBox="0 0 260 74" fill="none" xmlns="http://www.w3.org/2000/svg">
<g filter="url(#filter0_b_241_15296)">
<path fill-rule="evenodd" clip-rule="evenodd" d="M248 0C254.627 0 260 5.37258 260 12V52C260 58.6274 254.627 64 248 64H79.5264C77.2111 64 75.0326 65.0317 73.2837 66.5489C70.1981 69.2257 65.7818 72.1429 61.4034 73.802C59.4015 74.5606 57.6789 72.6645 58.2981 70.6151C59.3531 67.1231 56.8095 64 53.1616 64H12C5.37259 64 0 58.6274 0 52V12C0 5.37258 5.37259 0 12 0H248Z" fill="url(#paint0_linear_241_15296)" fill-opacity="0.9"/>
<path fill-rule="evenodd" clip-rule="evenodd" d="M248 0C254.627 0 260 5.37258 260 12V52C260 58.6274 254.627 64 248 64H79.5264C77.2111 64 75.0326 65.0317 73.2837 66.5489C70.1981 69.2257 65.7818 72.1429 61.4034 73.802C59.4015 74.5606 57.6789 72.6645 58.2981 70.6151C59.3531 67.1231 56.8095 64 53.1616 64H12C5.37259 64 0 58.6274 0 52V12C0 5.37258 5.37259 0 12 0H248Z" fill="url(#paint1_linear_241_15296)" fill-opacity="0.5"/>
</g>
<path d="M13.8864 27H12.4091L16.6818 15.3636H18.1364L22.4091 27H20.9318L17.4545 17.2045H17.3636L13.8864 27ZM14.4318 22.4545H20.3864V23.7045H14.4318V22.4545ZM27.5852 27.1818C26.767 27.1818 26.0625 26.9886 25.4716 26.6023C24.8807 26.2159 24.4261 25.6837 24.108 25.0057C23.7898 24.3277 23.6307 23.553 23.6307 22.6818C23.6307 21.7955 23.7936 21.0133 24.1193 20.3352C24.4489 19.6534 24.9072 19.1212 25.4943 18.7386C26.0852 18.3523 26.7746 18.1591 27.5625 18.1591C28.1761 18.1591 28.7292 18.2727 29.2216 18.5C29.714 18.7273 30.1174 19.0455 30.4318 19.4545C30.7462 19.8636 30.9413 20.3409 31.017 20.8864H29.6761C29.5739 20.4886 29.3466 20.1364 28.9943 19.8295C28.6458 19.5189 28.1761 19.3636 27.5852 19.3636C27.0625 19.3636 26.6042 19.5 26.2102 19.7727C25.8201 20.0417 25.5152 20.4223 25.2955 20.9148C25.0795 21.4034 24.9716 21.9773 24.9716 22.6364C24.9716 23.3106 25.0777 23.8977 25.2898 24.3977C25.5057 24.8977 25.8087 25.286 26.1989 25.5625C26.5928 25.839 27.0549 25.9773 27.5852 25.9773C27.9337 25.9773 28.25 25.9167 28.5341 25.7955C28.8182 25.6742 29.0587 25.5 29.2557 25.2727C29.4527 25.0455 29.5928 24.7727 29.6761 24.4545H31.017C30.9413 24.9697 30.7538 25.4337 30.4545 25.8466C30.1591 26.2557 29.767 26.5814 29.2784 26.8239C28.7936 27.0625 28.2292 27.1818 27.5852 27.1818ZM36.7727 18.2727V19.4091H32.25V18.2727H36.7727ZM33.5682 16.1818H34.9091V24.5C34.9091 24.8788 34.964 25.1629 35.0739 25.3523C35.1875 25.5379 35.3314 25.6629 35.5057 25.7273C35.6837 25.7879 35.8712 25.8182 36.0682 25.8182C36.2159 25.8182 36.3371 25.8106 36.4318 25.7955C36.5265 25.7765 36.6023 25.7614 36.6591 25.75L36.9318 26.9545C36.8409 26.9886 36.714 27.0227 36.5511 27.0568C36.3883 27.0947 36.1818 27.1136 35.9318 27.1136C35.553 27.1136 35.1818 27.0322 34.8182 26.8693C34.4583 26.7064 34.1591 26.4583 33.9205 26.125C33.6856 25.7917 33.5682 25.3712 33.5682 24.8636V16.1818ZM38.7898 27V18.2727H40.1307V27H38.7898ZM39.4716 16.8182C39.2102 16.8182 38.9848 16.7292 38.7955 16.5511C38.6098 16.3731 38.517 16.1591 38.517 15.9091C38.517 15.6591 38.6098 15.4451 38.7955 15.267C38.9848 15.089 39.2102 15 39.4716 15C39.733 15 39.9564 15.089 40.142 15.267C40.3314 15.4451 40.4261 15.6591 40.4261 15.9091C40.4261 16.1591 40.3314 16.3731 40.142 16.5511C39.9564 16.7292 39.733 16.8182 39.4716 16.8182ZM49.723 18.2727L46.4957 27H45.1321L41.9048 18.2727H43.3594L45.7685 25.2273H45.8594L48.2685 18.2727H49.723ZM53.7955 27.2045C53.2424 27.2045 52.7405 27.1004 52.2898 26.892C51.839 26.6799 51.4811 26.375 51.2159 25.9773C50.9508 25.5758 50.8182 25.0909 50.8182 24.5227C50.8182 24.0227 50.9167 23.6174 51.1136 23.3068C51.3106 22.9924 51.5739 22.7462 51.9034 22.5682C52.233 22.3902 52.5966 22.2576 52.9943 22.1705C53.3958 22.0795 53.7992 22.0076 54.2045 21.9545C54.7348 21.8864 55.1648 21.8352 55.4943 21.8011C55.8277 21.7633 56.0701 21.7008 56.2216 21.6136C56.3769 21.5265 56.4545 21.375 56.4545 21.1591V21.1136C56.4545 20.553 56.3011 20.1174 55.9943 19.8068C55.6913 19.4962 55.2311 19.3409 54.6136 19.3409C53.9735 19.3409 53.4716 19.4811 53.108 19.7614C52.7443 20.0417 52.4886 20.3409 52.3409 20.6591L51.0682 20.2045C51.2955 19.6742 51.5985 19.2614 51.9773 18.9659C52.3598 18.6667 52.7765 18.4583 53.2273 18.3409C53.6818 18.2197 54.1288 18.1591 54.5682 18.1591C54.8485 18.1591 55.1705 18.1932 55.5341 18.2614C55.9015 18.3258 56.2557 18.4602 56.5966 18.6648C56.9413 18.8693 57.2273 19.178 57.4545 19.5909C57.6818 20.0038 57.7955 20.5568 57.7955 21.25V27H56.4545V25.8182H56.3864C56.2955 26.0076 56.1439 26.2102 55.9318 26.4261C55.7197 26.642 55.4375 26.8258 55.0852 26.9773C54.733 27.1288 54.303 27.2045 53.7955 27.2045ZM54 26C54.5303 26 54.9773 25.8958 55.3409 25.6875C55.7083 25.4792 55.9848 25.2102 56.1705 24.8807C56.3598 24.5511 56.4545 24.2045 56.4545 23.8409V22.6136C56.3977 22.6818 56.2727 22.7443 56.0795 22.8011C55.8902 22.8542 55.6705 22.9015 55.4205 22.9432C55.1742 22.9811 54.9337 23.0152 54.6989 23.0455C54.4678 23.072 54.2803 23.0947 54.1364 23.1136C53.7879 23.1591 53.4621 23.233 53.1591 23.3352C52.8598 23.4337 52.6174 23.5833 52.4318 23.7841C52.25 23.9811 52.1591 24.25 52.1591 24.5909C52.1591 25.0568 52.3314 25.4091 52.6761 25.6477C53.0246 25.8826 53.4659 26 54 26ZM64.0384 18.2727V19.4091H59.5156V18.2727H64.0384ZM60.8338 16.1818H62.1747V24.5C62.1747 24.8788 62.2296 25.1629 62.3395 25.3523C62.4531 25.5379 62.5971 25.6629 62.7713 25.7273C62.9493 25.7879 63.1368 25.8182 63.3338 25.8182C63.4815 25.8182 63.6027 25.8106 63.6974 25.7955C63.7921 25.7765 63.8679 25.7614 63.9247 25.75L64.1974 26.9545C64.1065 26.9886 63.9796 27.0227 63.8168 27.0568C63.6539 27.0947 63.4474 27.1136 63.1974 27.1136C62.8187 27.1136 62.4474 27.0322 62.0838 26.8693C61.724 26.7064 61.4247 26.4583 61.1861 26.125C60.9512 25.7917 60.8338 25.3712 60.8338 24.8636V16.1818ZM69.6207 27.1818C68.7798 27.1818 68.0545 26.9962 67.4446 26.625C66.8385 26.25 66.3707 25.7273 66.0412 25.0568C65.7154 24.3826 65.5526 23.5985 65.5526 22.7045C65.5526 21.8106 65.7154 21.0227 66.0412 20.3409C66.3707 19.6553 66.8291 19.1212 67.4162 18.7386C68.0071 18.3523 68.6965 18.1591 69.4844 18.1591C69.9389 18.1591 70.3878 18.2348 70.831 18.3864C71.2741 18.5379 71.6776 18.7841 72.0412 19.125C72.4048 19.4621 72.6946 19.9091 72.9105 20.4659C73.1264 21.0227 73.2344 21.7083 73.2344 22.5227V23.0909H66.5071V21.9318H71.8707C71.8707 21.4394 71.7723 21 71.5753 20.6136C71.3821 20.2273 71.1056 19.9223 70.7457 19.6989C70.3897 19.4754 69.9692 19.3636 69.4844 19.3636C68.9503 19.3636 68.4882 19.4962 68.098 19.7614C67.7116 20.0227 67.4143 20.3636 67.206 20.7841C66.9976 21.2045 66.8935 21.6553 66.8935 22.1364V22.9091C66.8935 23.5682 67.0071 24.1269 67.2344 24.5852C67.4654 25.0398 67.7855 25.3864 68.1946 25.625C68.6037 25.8598 69.0791 25.9773 69.6207 25.9773C69.973 25.9773 70.2912 25.928 70.5753 25.8295C70.8632 25.7273 71.1113 25.5758 71.3196 25.375C71.5279 25.1705 71.6889 24.9167 71.8026 24.6136L73.098 24.9773C72.9616 25.4167 72.7325 25.803 72.4105 26.1364C72.0885 26.4659 71.6908 26.7235 71.2173 26.9091C70.7438 27.0909 70.2116 27.1818 69.6207 27.1818ZM89.1832 15.3636V27H87.8196L81.4787 17.8636H81.3651V27H79.956V15.3636H81.3196L87.6832 24.5227H87.7969V15.3636H89.1832ZM95.3665 27.1818C94.5786 27.1818 93.8873 26.9943 93.2926 26.6193C92.7017 26.2443 92.2396 25.7197 91.9062 25.0455C91.5767 24.3712 91.4119 23.5833 91.4119 22.6818C91.4119 21.7727 91.5767 20.9792 91.9062 20.3011C92.2396 19.6231 92.7017 19.0966 93.2926 18.7216C93.8873 18.3466 94.5786 18.1591 95.3665 18.1591C96.1544 18.1591 96.8438 18.3466 97.4347 18.7216C98.0294 19.0966 98.4915 19.6231 98.821 20.3011C99.1544 20.9792 99.321 21.7727 99.321 22.6818C99.321 23.5833 99.1544 24.3712 98.821 25.0455C98.4915 25.7197 98.0294 26.2443 97.4347 26.6193C96.8438 26.9943 96.1544 27.1818 95.3665 27.1818ZM95.3665 25.9773C95.965 25.9773 96.4574 25.8239 96.8438 25.517C97.2301 25.2102 97.5161 24.8068 97.7017 24.3068C97.8873 23.8068 97.9801 23.2652 97.9801 22.6818C97.9801 22.0985 97.8873 21.5549 97.7017 21.0511C97.5161 20.5473 97.2301 20.1402 96.8438 19.8295C96.4574 19.5189 95.965 19.3636 95.3665 19.3636C94.768 19.3636 94.2756 19.5189 93.8892 19.8295C93.5028 20.1402 93.2169 20.5473 93.0312 21.0511C92.8456 21.5549 92.7528 22.0985 92.7528 22.6818C92.7528 23.2652 92.8456 23.8068 93.0312 24.3068C93.2169 24.8068 93.5028 25.2102 93.8892 25.517C94.2756 25.8239 94.768 25.9773 95.3665 25.9773ZM103.048 27L100.389 18.2727H101.798L103.685 24.9545H103.776L105.639 18.2727H107.071L108.912 24.9318H109.003L110.889 18.2727H112.298L109.639 27H108.321L106.412 20.2955H106.276L104.366 27H103.048ZM119.23 27H117.753L122.026 15.3636H123.48L127.753 27H126.276L122.798 17.2045H122.707L119.23 27ZM119.776 22.4545H125.73V23.7045H119.776V22.4545ZM130.724 21.75V27H129.384V18.2727H130.679V19.6364H130.793C130.997 19.1932 131.308 18.8371 131.724 18.5682C132.141 18.2955 132.679 18.1591 133.338 18.1591C133.929 18.1591 134.446 18.2803 134.889 18.5227C135.332 18.7614 135.677 19.125 135.923 19.6136C136.17 20.0985 136.293 20.7121 136.293 21.4545V27H134.952V21.5455C134.952 20.8598 134.774 20.3258 134.418 19.9432C134.062 19.5568 133.573 19.3636 132.952 19.3636C132.524 19.3636 132.141 19.4564 131.804 19.642C131.471 19.8277 131.207 20.0985 131.014 20.4545C130.821 20.8106 130.724 21.2424 130.724 21.75ZM142.038 27.1818C141.311 27.1818 140.669 26.9981 140.112 26.6307C139.555 26.2595 139.12 25.7367 138.805 25.0625C138.491 24.3845 138.334 23.5833 138.334 22.6591C138.334 21.7424 138.491 20.947 138.805 20.2727C139.12 19.5985 139.557 19.0777 140.118 18.7102C140.679 18.3428 141.326 18.1591 142.061 18.1591C142.629 18.1591 143.078 18.2538 143.408 18.4432C143.741 18.6288 143.995 18.8409 144.169 19.0795C144.347 19.3144 144.485 19.5076 144.584 19.6591H144.697V15.3636H146.038V27H144.743V25.6591H144.584C144.485 25.8182 144.345 26.0189 144.163 26.2614C143.982 26.5 143.722 26.714 143.385 26.9034C143.048 27.089 142.599 27.1818 142.038 27.1818ZM142.22 25.9773C142.758 25.9773 143.213 25.8371 143.584 25.5568C143.955 25.2727 144.237 24.8807 144.43 24.3807C144.624 23.8769 144.72 23.2955 144.72 22.6364C144.72 21.9848 144.625 21.4148 144.436 20.9261C144.247 20.4337 143.966 20.0511 143.595 19.7784C143.224 19.5019 142.766 19.3636 142.22 19.3636C141.652 19.3636 141.179 19.5095 140.8 19.8011C140.425 20.089 140.143 20.4811 139.953 20.9773C139.768 21.4697 139.675 22.0227 139.675 22.6364C139.675 23.2576 139.769 23.822 139.959 24.3295C140.152 24.8333 140.436 25.2348 140.811 25.5341C141.19 25.8295 141.66 25.9773 142.22 25.9773ZM153.362 27V15.3636H157.294C158.203 15.3636 158.949 15.5189 159.533 15.8295C160.116 16.1364 160.548 16.5587 160.828 17.0966C161.108 17.6345 161.249 18.2462 161.249 18.9318C161.249 19.6174 161.108 20.2254 160.828 20.7557C160.548 21.286 160.118 21.7027 159.538 22.0057C158.959 22.3049 158.218 22.4545 157.317 22.4545H154.135V21.1818H157.271C157.893 21.1818 158.393 21.0909 158.771 20.9091C159.154 20.7273 159.43 20.4697 159.601 20.1364C159.775 19.7992 159.862 19.3977 159.862 18.9318C159.862 18.4659 159.775 18.0587 159.601 17.7102C159.427 17.3617 159.148 17.0928 158.766 16.9034C158.383 16.7102 157.877 16.6136 157.249 16.6136H154.771V27H153.362ZM158.839 21.7727L161.703 27H160.067L157.249 21.7727H158.839ZM166.98 27.1818C166.139 27.1818 165.414 26.9962 164.804 26.625C164.198 26.25 163.73 25.7273 163.401 25.0568C163.075 24.3826 162.912 23.5985 162.912 22.7045C162.912 21.8106 163.075 21.0227 163.401 20.3409C163.73 19.6553 164.188 19.1212 164.776 18.7386C165.366 18.3523 166.056 18.1591 166.844 18.1591C167.298 18.1591 167.747 18.2348 168.19 18.3864C168.634 18.5379 169.037 18.7841 169.401 19.125C169.764 19.4621 170.054 19.9091 170.27 20.4659C170.486 21.0227 170.594 21.7083 170.594 22.5227V23.0909H163.866V21.9318H169.23C169.23 21.4394 169.132 21 168.935 20.6136C168.741 20.2273 168.465 19.9223 168.105 19.6989C167.749 19.4754 167.329 19.3636 166.844 19.3636C166.31 19.3636 165.848 19.4962 165.457 19.7614C165.071 20.0227 164.774 20.3636 164.565 20.7841C164.357 21.2045 164.253 21.6553 164.253 22.1364V22.9091C164.253 23.5682 164.366 24.1269 164.594 24.5852C164.825 25.0398 165.145 25.3864 165.554 25.625C165.963 25.8598 166.438 25.9773 166.98 25.9773C167.332 25.9773 167.651 25.928 167.935 25.8295C168.223 25.7273 168.471 25.5758 168.679 25.375C168.887 25.1705 169.048 24.9167 169.162 24.6136L170.457 24.9773C170.321 25.4167 170.092 25.803 169.77 26.1364C169.448 26.4659 169.05 26.7235 168.577 26.9091C168.103 27.0909 167.571 27.1818 166.98 27.1818ZM176.179 27.1818C175.361 27.1818 174.656 26.9886 174.065 26.6023C173.474 26.2159 173.02 25.6837 172.702 25.0057C172.384 24.3277 172.224 23.553 172.224 22.6818C172.224 21.7955 172.387 21.0133 172.713 20.3352C173.043 19.6534 173.501 19.1212 174.088 18.7386C174.679 18.3523 175.368 18.1591 176.156 18.1591C176.77 18.1591 177.323 18.2727 177.815 18.5C178.308 18.7273 178.711 19.0455 179.026 19.4545C179.34 19.8636 179.535 20.3409 179.611 20.8864H178.27C178.168 20.4886 177.94 20.1364 177.588 19.8295C177.24 19.5189 176.77 19.3636 176.179 19.3636C175.656 19.3636 175.198 19.5 174.804 19.7727C174.414 20.0417 174.109 20.4223 173.889 20.9148C173.673 21.4034 173.565 21.9773 173.565 22.6364C173.565 23.3106 173.671 23.8977 173.884 24.3977C174.099 24.8977 174.402 25.286 174.793 25.5625C175.187 25.839 175.649 25.9773 176.179 25.9773C176.527 25.9773 176.844 25.9167 177.128 25.7955C177.412 25.6742 177.652 25.5 177.849 25.2727C178.046 25.0455 178.187 24.7727 178.27 24.4545H179.611C179.535 24.9697 179.348 25.4337 179.048 25.8466C178.753 26.2557 178.361 26.5814 177.872 26.8239C177.387 27.0625 176.823 27.1818 176.179 27.1818ZM185.23 27.1818C184.389 27.1818 183.664 26.9962 183.054 26.625C182.448 26.25 181.98 25.7273 181.651 25.0568C181.325 24.3826 181.162 23.5985 181.162 22.7045C181.162 21.8106 181.325 21.0227 181.651 20.3409C181.98 19.6553 182.438 19.1212 183.026 18.7386C183.616 18.3523 184.306 18.1591 185.094 18.1591C185.548 18.1591 185.997 18.2348 186.44 18.3864C186.884 18.5379 187.287 18.7841 187.651 19.125C188.014 19.4621 188.304 19.9091 188.52 20.4659C188.736 21.0227 188.844 21.7083 188.844 22.5227V23.0909H182.116V21.9318H187.48C187.48 21.4394 187.382 21 187.185 20.6136C186.991 20.2273 186.715 19.9223 186.355 19.6989C185.999 19.4754 185.579 19.3636 185.094 19.3636C184.56 19.3636 184.098 19.4962 183.707 19.7614C183.321 20.0227 183.024 20.3636 182.815 20.7841C182.607 21.2045 182.503 21.6553 182.503 22.1364V22.9091C182.503 23.5682 182.616 24.1269 182.844 24.5852C183.075 25.0398 183.395 25.3864 183.804 25.625C184.213 25.8598 184.688 25.9773 185.23 25.9773C185.582 25.9773 185.901 25.928 186.185 25.8295C186.473 25.7273 186.721 25.5758 186.929 25.375C187.137 25.1705 187.298 24.9167 187.412 24.6136L188.707 24.9773C188.571 25.4167 188.342 25.803 188.02 26.1364C187.698 26.4659 187.3 26.7235 186.827 26.9091C186.353 27.0909 185.821 27.1818 185.23 27.1818ZM190.884 27V18.2727H192.224V27H190.884ZM191.565 16.8182C191.304 16.8182 191.079 16.7292 190.889 16.5511C190.704 16.3731 190.611 16.1591 190.611 15.9091C190.611 15.6591 190.704 15.4451 190.889 15.267C191.079 15.089 191.304 15 191.565 15C191.827 15 192.05 15.089 192.236 15.267C192.425 15.4451 192.52 15.6591 192.52 15.9091C192.52 16.1591 192.425 16.3731 192.236 16.5511C192.05 16.7292 191.827 16.8182 191.565 16.8182ZM201.817 18.2727L198.589 27H197.226L193.999 18.2727H195.453L197.862 25.2273H197.953L200.362 18.2727H201.817ZM206.933 27.1818C206.092 27.1818 205.367 26.9962 204.757 26.625C204.151 26.25 203.683 25.7273 203.354 25.0568C203.028 24.3826 202.865 23.5985 202.865 22.7045C202.865 21.8106 203.028 21.0227 203.354 20.3409C203.683 19.6553 204.142 19.1212 204.729 18.7386C205.32 18.3523 206.009 18.1591 206.797 18.1591C207.251 18.1591 207.7 18.2348 208.143 18.3864C208.587 18.5379 208.99 18.7841 209.354 19.125C209.717 19.4621 210.007 19.9091 210.223 20.4659C210.439 21.0227 210.547 21.7083 210.547 22.5227V23.0909H203.82V21.9318H209.183C209.183 21.4394 209.085 21 208.888 20.6136C208.695 20.2273 208.418 19.9223 208.058 19.6989C207.702 19.4754 207.282 19.3636 206.797 19.3636C206.263 19.3636 205.801 19.4962 205.411 19.7614C205.024 20.0227 204.727 20.3636 204.518 20.7841C204.31 21.2045 204.206 21.6553 204.206 22.1364V22.9091C204.206 23.5682 204.32 24.1269 204.547 24.5852C204.778 25.0398 205.098 25.3864 205.507 25.625C205.916 25.8598 206.392 25.9773 206.933 25.9773C207.286 25.9773 207.604 25.928 207.888 25.8295C208.176 25.7273 208.424 25.5758 208.632 25.375C208.84 25.1705 209.001 24.9167 209.115 24.6136L210.411 24.9773C210.274 25.4167 210.045 25.803 209.723 26.1364C209.401 26.4659 209.003 26.7235 208.53 26.9091C208.056 27.0909 207.524 27.1818 206.933 27.1818Z" fill="white"/>
<path d="M18.4773 36.3636V48H15.3182V39.2727H15.25L12.7045 40.7955V38.1136L15.5682 36.3636H18.4773ZM23.3565 46.4091L23.3111 47.0455C23.2732 47.5909 23.1823 48.1136 23.0384 48.6136C22.8982 49.1136 22.7486 49.5568 22.5895 49.9432C22.4342 50.3295 22.3111 50.6288 22.2202 50.8409H20.2884C20.349 50.6288 20.4342 50.322 20.544 49.9205C20.6577 49.5227 20.7599 49.072 20.8509 48.5682C20.9455 48.0682 20.9929 47.5606 20.9929 47.0455V46.4091H23.3565ZM29.9347 48.3182C28.8778 48.3144 27.965 48.0701 27.196 47.5852C26.4271 47.1004 25.8343 46.4015 25.4176 45.4886C25.0009 44.5758 24.7945 43.4811 24.7983 42.2045C24.8021 40.9242 25.0104 39.8371 25.4233 38.9432C25.84 38.0492 26.4309 37.3693 27.196 36.9034C27.965 36.4375 28.8778 36.2045 29.9347 36.2045C30.9915 36.2045 31.9044 36.4394 32.6733 36.9091C33.4422 37.375 34.035 38.0549 34.4517 38.9489C34.8684 39.8428 35.0748 40.928 35.071 42.2045C35.071 43.4886 34.8627 44.5871 34.446 45.5C34.0294 46.4129 33.4366 47.1117 32.6676 47.5966C31.9025 48.0777 30.9915 48.3182 29.9347 48.3182ZM29.9347 45.75C30.4801 45.75 30.9271 45.4659 31.2756 44.8977C31.6278 44.3258 31.8021 43.428 31.7983 42.2045C31.7983 41.4053 31.7188 40.7519 31.5597 40.2443C31.4006 39.7367 31.1809 39.3617 30.9006 39.1193C30.6203 38.8731 30.2983 38.75 29.9347 38.75C29.3892 38.75 28.9441 39.0265 28.5994 39.5795C28.2547 40.1326 28.0786 41.0076 28.071 42.2045C28.0672 43.0189 28.1449 43.6894 28.304 44.2159C28.4631 44.7386 28.6828 45.125 28.9631 45.375C29.2472 45.625 29.571 45.75 29.9347 45.75ZM41.6222 48.3182C40.5653 48.3144 39.6525 48.0701 38.8835 47.5852C38.1146 47.1004 37.5218 46.4015 37.1051 45.4886C36.6884 44.5758 36.482 43.4811 36.4858 42.2045C36.4896 40.9242 36.6979 39.8371 37.1108 38.9432C37.5275 38.0492 38.1184 37.3693 38.8835 36.9034C39.6525 36.4375 40.5653 36.2045 41.6222 36.2045C42.679 36.2045 43.5919 36.4394 44.3608 36.9091C45.1297 37.375 45.7225 38.0549 46.1392 38.9489C46.5559 39.8428 46.7623 40.928 46.7585 42.2045C46.7585 43.4886 46.5502 44.5871 46.1335 45.5C45.7169 46.4129 45.1241 47.1117 44.3551 47.5966C43.59 48.0777 42.679 48.3182 41.6222 48.3182ZM41.6222 45.75C42.1676 45.75 42.6146 45.4659 42.9631 44.8977C43.3153 44.3258 43.4896 43.428 43.4858 42.2045C43.4858 41.4053 43.4063 40.7519 43.2472 40.2443C43.0881 39.7367 42.8684 39.3617 42.5881 39.1193C42.3078 38.8731 41.9858 38.75 41.6222 38.75C41.0767 38.75 40.6316 39.0265 40.2869 39.5795C39.9422 40.1326 39.7661 41.0076 39.7585 42.2045C39.7547 43.0189 39.8324 43.6894 39.9915 44.2159C40.1506 44.7386 40.3703 45.125 40.6506 45.375C40.9347 45.625 41.2585 45.75 41.6222 45.75ZM53.3097 48.3182C52.2528 48.3144 51.34 48.0701 50.571 47.5852C49.8021 47.1004 49.2093 46.4015 48.7926 45.4886C48.3759 44.5758 48.1695 43.4811 48.1733 42.2045C48.1771 40.9242 48.3854 39.8371 48.7983 38.9432C49.215 38.0492 49.8059 37.3693 50.571 36.9034C51.34 36.4375 52.2528 36.2045 53.3097 36.2045C54.3665 36.2045 55.2794 36.4394 56.0483 36.9091C56.8172 37.375 57.41 38.0549 57.8267 38.9489C58.2434 39.8428 58.4498 40.928 58.446 42.2045C58.446 43.4886 58.2377 44.5871 57.821 45.5C57.4044 46.4129 56.8116 47.1117 56.0426 47.5966C55.2775 48.0777 54.3665 48.3182 53.3097 48.3182ZM53.3097 45.75C53.8551 45.75 54.3021 45.4659 54.6506 44.8977C55.0028 44.3258 55.1771 43.428 55.1733 42.2045C55.1733 41.4053 55.0938 40.7519 54.9347 40.2443C54.7756 39.7367 54.5559 39.3617 54.2756 39.1193C53.9953 38.8731 53.6733 38.75 53.3097 38.75C52.7642 38.75 52.3191 39.0265 51.9744 39.5795C51.6297 40.1326 51.4536 41.0076 51.446 42.2045C51.4422 43.0189 51.5199 43.6894 51.679 44.2159C51.8381 44.7386 52.0578 45.125 52.3381 45.375C52.6222 45.625 52.946 45.75 53.3097 45.75ZM62.4815 46.4091L62.4361 47.0455C62.3982 47.5909 62.3073 48.1136 62.1634 48.6136C62.0232 49.1136 61.8736 49.5568 61.7145 49.9432C61.5592 50.3295 61.4361 50.6288 61.3452 50.8409H59.4134C59.474 50.6288 59.5592 50.322 59.669 49.9205C59.7827 49.5227 59.8849 49.072 59.9759 48.5682C60.0705 48.0682 60.1179 47.5606 60.1179 47.0455V46.4091H62.4815ZM69.0597 48.3182C68.0028 48.3144 67.09 48.0701 66.321 47.5852C65.5521 47.1004 64.9593 46.4015 64.5426 45.4886C64.1259 44.5758 63.9195 43.4811 63.9233 42.2045C63.9271 40.9242 64.1354 39.8371 64.5483 38.9432C64.965 38.0492 65.5559 37.3693 66.321 36.9034C67.09 36.4375 68.0028 36.2045 69.0597 36.2045C70.1165 36.2045 71.0294 36.4394 71.7983 36.9091C72.5672 37.375 73.16 38.0549 73.5767 38.9489C73.9934 39.8428 74.1998 40.928 74.196 42.2045C74.196 43.4886 73.9877 44.5871 73.571 45.5C73.1544 46.4129 72.5616 47.1117 71.7926 47.5966C71.0275 48.0777 70.1165 48.3182 69.0597 48.3182ZM69.0597 45.75C69.6051 45.75 70.0521 45.4659 70.4006 44.8977C70.7528 44.3258 70.9271 43.428 70.9233 42.2045C70.9233 41.4053 70.8438 40.7519 70.6847 40.2443C70.5256 39.7367 70.3059 39.3617 70.0256 39.1193C69.7453 38.8731 69.4233 38.75 69.0597 38.75C68.5142 38.75 68.0691 39.0265 67.7244 39.5795C67.3797 40.1326 67.2036 41.0076 67.196 42.2045C67.1922 43.0189 67.2699 43.6894 67.429 44.2159C67.5881 44.7386 67.8078 45.125 68.0881 45.375C68.3722 45.625 68.696 45.75 69.0597 45.75ZM80.7472 48.3182C79.6903 48.3144 78.7775 48.0701 78.0085 47.5852C77.2396 47.1004 76.6468 46.4015 76.2301 45.4886C75.8134 44.5758 75.607 43.4811 75.6108 42.2045C75.6146 40.9242 75.8229 39.8371 76.2358 38.9432C76.6525 38.0492 77.2434 37.3693 78.0085 36.9034C78.7775 36.4375 79.6903 36.2045 80.7472 36.2045C81.804 36.2045 82.7169 36.4394 83.4858 36.9091C84.2547 37.375 84.8475 38.0549 85.2642 38.9489C85.6809 39.8428 85.8873 40.928 85.8835 42.2045C85.8835 43.4886 85.6752 44.5871 85.2585 45.5C84.8419 46.4129 84.2491 47.1117 83.4801 47.5966C82.715 48.0777 81.804 48.3182 80.7472 48.3182ZM80.7472 45.75C81.2926 45.75 81.7396 45.4659 82.0881 44.8977C82.4403 44.3258 82.6146 43.428 82.6108 42.2045C82.6108 41.4053 82.5313 40.7519 82.3722 40.2443C82.2131 39.7367 81.9934 39.3617 81.7131 39.1193C81.4328 38.8731 81.1108 38.75 80.7472 38.75C80.2017 38.75 79.7566 39.0265 79.4119 39.5795C79.0672 40.1326 78.8911 41.0076 78.8835 42.2045C78.8797 43.0189 78.9574 43.6894 79.1165 44.2159C79.2756 44.7386 79.4953 45.125 79.7756 45.375C80.0597 45.625 80.3835 45.75 80.7472 45.75ZM92.4347 48.3182C91.3778 48.3144 90.465 48.0701 89.696 47.5852C88.9271 47.1004 88.3343 46.4015 87.9176 45.4886C87.5009 44.5758 87.2945 43.4811 87.2983 42.2045C87.3021 40.9242 87.5104 39.8371 87.9233 38.9432C88.34 38.0492 88.9309 37.3693 89.696 36.9034C90.465 36.4375 91.3778 36.2045 92.4347 36.2045C93.4915 36.2045 94.4044 36.4394 95.1733 36.9091C95.9422 37.375 96.535 38.0549 96.9517 38.9489C97.3684 39.8428 97.5748 40.928 97.571 42.2045C97.571 43.4886 97.3627 44.5871 96.946 45.5C96.5294 46.4129 95.9366 47.1117 95.1676 47.5966C94.4025 48.0777 93.4915 48.3182 92.4347 48.3182ZM92.4347 45.75C92.9801 45.75 93.4271 45.4659 93.7756 44.8977C94.1278 44.3258 94.3021 43.428 94.2983 42.2045C94.2983 41.4053 94.2188 40.7519 94.0597 40.2443C93.9006 39.7367 93.6809 39.3617 93.4006 39.1193C93.1203 38.8731 92.7983 38.75 92.4347 38.75C91.8892 38.75 91.4441 39.0265 91.0994 39.5795C90.7547 40.1326 90.5786 41.0076 90.571 42.2045C90.5672 43.0189 90.6449 43.6894 90.804 44.2159C90.9631 44.7386 91.1828 45.125 91.4631 45.375C91.7472 45.625 92.071 45.75 92.4347 45.75ZM102.219 48V36.3636H105.378V45.4545H110.082V48H102.219ZM114.382 48H110.973L114.814 36.3636H119.132L122.973 48H119.564L117.018 39.5682H116.928L114.382 48ZM113.746 43.4091H120.155V45.7727H113.746V43.4091ZM134.162 36.3636V48H131.526L127.321 41.8864H127.253V48H124.094V36.3636H126.776L130.912 42.4545H131.003V36.3636H134.162ZM140.134 48H135.656V36.3636H140.088C141.285 36.3636 142.319 36.5966 143.19 37.0625C144.065 37.5246 144.74 38.1913 145.213 39.0625C145.69 39.9299 145.929 40.9697 145.929 42.1818C145.929 43.3939 145.692 44.4356 145.219 45.3068C144.745 46.1742 144.075 46.8409 143.207 47.3068C142.34 47.7689 141.315 48 140.134 48ZM138.815 45.3182H140.02C140.596 45.3182 141.086 45.2254 141.491 45.0398C141.901 44.8542 142.211 44.5341 142.423 44.0795C142.639 43.625 142.747 42.9924 142.747 42.1818C142.747 41.3712 142.637 40.7386 142.418 40.2841C142.202 39.8295 141.884 39.5095 141.463 39.3239C141.046 39.1383 140.535 39.0455 139.929 39.0455H138.815V45.3182ZM153.027 48H151.55L155.822 36.3636H157.277L161.55 48H160.072L156.595 38.2045H156.504L153.027 48ZM153.572 43.4545H159.527V44.7045H153.572V43.4545ZM169.362 41.2273L168.158 41.5682C168.082 41.3674 167.97 41.1723 167.822 40.983C167.679 40.7898 167.482 40.6307 167.232 40.5057C166.982 40.3807 166.661 40.3182 166.271 40.3182C165.737 40.3182 165.292 40.4413 164.936 40.6875C164.584 40.9299 164.408 41.2386 164.408 41.6136C164.408 41.947 164.529 42.2102 164.771 42.4034C165.014 42.5966 165.393 42.7576 165.908 42.8864L167.203 43.2045C167.983 43.3939 168.565 43.6837 168.947 44.0739C169.33 44.4602 169.521 44.9583 169.521 45.5682C169.521 46.0682 169.377 46.5152 169.089 46.9091C168.805 47.303 168.408 47.6136 167.896 47.8409C167.385 48.0682 166.79 48.1818 166.112 48.1818C165.222 48.1818 164.485 47.9886 163.902 47.6023C163.319 47.2159 162.949 46.6515 162.794 45.9091L164.067 45.5909C164.188 46.0606 164.417 46.4129 164.754 46.6477C165.095 46.8826 165.54 47 166.089 47C166.714 47 167.211 46.8674 167.578 46.6023C167.949 46.3333 168.135 46.0114 168.135 45.6364C168.135 45.3333 168.029 45.0795 167.817 44.875C167.605 44.6667 167.279 44.5114 166.839 44.4091L165.385 44.0682C164.586 43.8788 163.999 43.5852 163.624 43.1875C163.252 42.786 163.067 42.2841 163.067 41.6818C163.067 41.1894 163.205 40.7538 163.482 40.375C163.762 39.9962 164.143 39.6989 164.624 39.483C165.108 39.267 165.658 39.1591 166.271 39.1591C167.135 39.1591 167.813 39.3485 168.305 39.7273C168.802 40.1061 169.154 40.6061 169.362 41.2273ZM176.699 48H175.222L179.494 36.3636H180.949L185.222 48H183.744L180.267 38.2045H180.176L176.699 48ZM177.244 43.4545H183.199V44.7045H177.244V43.4545ZM191.534 48V36.3636H195.602C196.413 36.3636 197.081 36.5038 197.608 36.7841C198.134 37.0606 198.527 37.4337 198.784 37.9034C199.042 38.3693 199.17 38.8864 199.17 39.4545C199.17 39.9545 199.081 40.3674 198.903 40.6932C198.729 41.0189 198.498 41.2765 198.21 41.4659C197.926 41.6553 197.617 41.7955 197.284 41.8864V42C197.64 42.0227 197.998 42.1477 198.358 42.375C198.718 42.6023 199.019 42.928 199.261 43.3523C199.504 43.7765 199.625 44.2955 199.625 44.9091C199.625 45.4924 199.492 46.017 199.227 46.483C198.962 46.9489 198.544 47.3182 197.972 47.5909C197.4 47.8636 196.655 48 195.739 48H191.534ZM192.943 46.75H195.739C196.659 46.75 197.313 46.572 197.699 46.2159C198.089 45.8561 198.284 45.4205 198.284 44.9091C198.284 44.5152 198.184 44.1515 197.983 43.8182C197.782 43.4811 197.496 43.2121 197.125 43.0114C196.754 42.8068 196.314 42.7045 195.807 42.7045H192.943V46.75ZM192.943 41.4773H195.557C195.981 41.4773 196.364 41.3939 196.705 41.2273C197.049 41.0606 197.322 40.8258 197.523 40.5227C197.727 40.2197 197.83 39.8636 197.83 39.4545C197.83 38.9432 197.652 38.5095 197.295 38.1534C196.939 37.7936 196.375 37.6136 195.602 37.6136H192.943V41.4773ZM205.304 48.1818C204.516 48.1818 203.825 47.9943 203.23 47.6193C202.639 47.2443 202.177 46.7197 201.844 46.0455C201.514 45.3712 201.349 44.5833 201.349 43.6818C201.349 42.7727 201.514 41.9792 201.844 41.3011C202.177 40.6231 202.639 40.0966 203.23 39.7216C203.825 39.3466 204.516 39.1591 205.304 39.1591C206.092 39.1591 206.781 39.3466 207.372 39.7216C207.967 40.0966 208.429 40.6231 208.759 41.3011C209.092 41.9792 209.259 42.7727 209.259 43.6818C209.259 44.5833 209.092 45.3712 208.759 46.0455C208.429 46.7197 207.967 47.2443 207.372 47.6193C206.781 47.9943 206.092 48.1818 205.304 48.1818ZM205.304 46.9773C205.902 46.9773 206.395 46.8239 206.781 46.517C207.168 46.2102 207.454 45.8068 207.639 45.3068C207.825 44.8068 207.918 44.2652 207.918 43.6818C207.918 43.0985 207.825 42.5549 207.639 42.0511C207.454 41.5473 207.168 41.1402 206.781 40.8295C206.395 40.5189 205.902 40.3636 205.304 40.3636C204.705 40.3636 204.213 40.5189 203.827 40.8295C203.44 41.1402 203.154 41.5473 202.969 42.0511C202.783 42.5549 202.69 43.0985 202.69 43.6818C202.69 44.2652 202.783 44.8068 202.969 45.3068C203.154 45.8068 203.44 46.2102 203.827 46.517C204.213 46.8239 204.705 46.9773 205.304 46.9773ZM212.646 42.75V48H211.305V39.2727H212.601V40.6364H212.714C212.919 40.1932 213.23 39.8371 213.646 39.5682C214.063 39.2955 214.601 39.1591 215.26 39.1591C215.851 39.1591 216.368 39.2803 216.811 39.5227C217.254 39.7614 217.599 40.125 217.845 40.6136C218.091 41.0985 218.214 41.7121 218.214 42.4545V48H216.874V42.5455C216.874 41.8598 216.696 41.3258 216.339 40.9432C215.983 40.5568 215.495 40.3636 214.874 40.3636C214.446 40.3636 214.063 40.4564 213.726 40.642C213.393 40.8277 213.129 41.0985 212.936 41.4545C212.743 41.8106 212.646 42.2424 212.646 42.75ZM226.165 44.4318V39.2727H227.506V48H226.165V46.5227H226.074C225.869 46.9659 225.551 47.3428 225.119 47.6534C224.688 47.9602 224.142 48.1136 223.483 48.1136C222.938 48.1136 222.453 47.9943 222.028 47.7557C221.604 47.5133 221.271 47.1496 221.028 46.6648C220.786 46.1761 220.665 45.5606 220.665 44.8182V39.2727H222.006V44.7273C222.006 45.3636 222.184 45.8712 222.54 46.25C222.9 46.6288 223.358 46.8182 223.915 46.8182C224.248 46.8182 224.587 46.733 224.932 46.5625C225.28 46.392 225.572 46.1307 225.807 45.7784C226.045 45.4261 226.165 44.9773 226.165 44.4318ZM236.143 41.2273L234.939 41.5682C234.863 41.3674 234.751 41.1723 234.604 40.983C234.46 40.7898 234.263 40.6307 234.013 40.5057C233.763 40.3807 233.443 40.3182 233.053 40.3182C232.518 40.3182 232.073 40.4413 231.717 40.6875C231.365 40.9299 231.189 41.2386 231.189 41.6136C231.189 41.947 231.31 42.2102 231.553 42.4034C231.795 42.5966 232.174 42.7576 232.689 42.8864L233.984 43.2045C234.765 43.3939 235.346 43.6837 235.729 44.0739C236.111 44.4602 236.303 44.9583 236.303 45.5682C236.303 46.0682 236.159 46.5152 235.871 46.9091C235.587 47.303 235.189 47.6136 234.678 47.8409C234.166 48.0682 233.571 48.1818 232.893 48.1818C232.003 48.1818 231.267 47.9886 230.683 47.6023C230.1 47.2159 229.731 46.6515 229.575 45.9091L230.848 45.5909C230.969 46.0606 231.198 46.4129 231.536 46.6477C231.876 46.8826 232.321 47 232.871 47C233.496 47 233.992 46.8674 234.359 46.6023C234.731 46.3333 234.916 46.0114 234.916 45.6364C234.916 45.3333 234.81 45.0795 234.598 44.875C234.386 44.6667 234.06 44.5114 233.621 44.4091L232.166 44.0682C231.367 43.8788 230.78 43.5852 230.405 43.1875C230.034 42.786 229.848 42.2841 229.848 41.6818C229.848 41.1894 229.986 40.7538 230.263 40.375C230.543 39.9962 230.924 39.6989 231.405 39.483C231.89 39.267 232.439 39.1591 233.053 39.1591C233.916 39.1591 234.594 39.3485 235.087 39.7273C235.583 40.1061 235.935 40.6061 236.143 41.2273ZM239.298 48.0909C239.018 48.0909 238.777 47.9905 238.577 47.7898C238.376 47.589 238.276 47.3485 238.276 47.0682C238.276 46.7879 238.376 46.5473 238.577 46.3466C238.777 46.1458 239.018 46.0455 239.298 46.0455C239.579 46.0455 239.819 46.1458 240.02 46.3466C240.221 46.5473 240.321 46.7879 240.321 47.0682C240.321 47.2538 240.274 47.4242 240.179 47.5795C240.088 47.7348 239.965 47.8598 239.81 47.9545C239.658 48.0455 239.488 48.0909 239.298 48.0909Z" fill="white"/>
<defs>
<filter id="filter0_b_241_15296" x="-8" y="-8" width="276" height="89.9727" filterUnits="userSpaceOnUse" color-interpolation-filters="sRGB">
<feFlood flood-opacity="0" result="BackgroundImageFix"/>
<feGaussianBlur in="BackgroundImageFix" stdDeviation="4"/>
<feComposite in2="SourceAlpha" operator="in" result="effect1_backgroundBlur_241_15296"/>
<feBlend mode="normal" in="SourceGraphic" in2="effect1_backgroundBlur_241_15296" result="shape"/>
</filter>
<linearGradient id="paint0_linear_241_15296" x1="219.154" y1="85.2975" x2="249.539" y2="-3.92473" gradientUnits="userSpaceOnUse">
<stop stop-color="#6172F3"/>
</linearGradient>
<linearGradient id="paint1_linear_241_15296" x1="138.5" y1="107" x2="155" y2="54" gradientUnits="userSpaceOnUse">
<stop stop-color="#81CDFF"/>
<stop offset="1" stop-color="#81CDFF" stop-opacity="0"/>
</linearGradient>
</defs>
</svg>
