<svg width="260" height="74" viewBox="0 0 260 74" fill="none" xmlns="http://www.w3.org/2000/svg">
<g filter="url(#filter0_b_13106_2903)">
<path fill-rule="evenodd" clip-rule="evenodd" d="M248 0C254.627 0 260 5.37258 260 12V52C260 58.6274 254.627 64 248 64H79.5264C77.2111 64 75.0326 65.0317 73.2837 66.5489C70.1981 69.2257 65.7818 72.1429 61.4034 73.802C59.4015 74.5606 57.6789 72.6645 58.2981 70.6151C59.3531 67.1231 56.8095 64 53.1616 64H12C5.37259 64 0 58.6274 0 52V12C0 5.37258 5.37259 0 12 0H248Z" fill="url(#paint0_linear_13106_2903)" fill-opacity="0.9"/>
<path fill-rule="evenodd" clip-rule="evenodd" d="M248 0C254.627 0 260 5.37258 260 12V52C260 58.6274 254.627 64 248 64H79.5264C77.2111 64 75.0326 65.0317 73.2837 66.5489C70.1981 69.2257 65.7818 72.1429 61.4034 73.802C59.4015 74.5606 57.6789 72.6645 58.2981 70.6151C59.3531 67.1231 56.8095 64 53.1616 64H12C5.37259 64 0 58.6274 0 52V12C0 5.37258 5.37259 0 12 0H248Z" fill="url(#paint1_linear_13106_2903)" fill-opacity="0.5"/>
</g>
<path d="M12.5391 27L16.6953 15.7266H18.0859L22.2422 27H20.7656L19.6328 23.7734H15.1484L14.0156 27H12.5391ZM17.3281 17.5469L15.5625 22.5781H19.2188L17.4531 17.5469H17.3281ZM27.0234 27.1484C24.6641 27.1484 23.1562 25.4375 23.1562 22.7656V22.75C23.1562 20.1328 24.6562 18.4297 27.0156 18.4297C29.0625 18.4297 30.2891 19.6094 30.5391 21.1094L30.5469 21.1562H29.1953L29.1875 21.1328C28.9766 20.3047 28.2266 19.6328 27.0156 19.6328C25.5 19.6328 24.5469 20.8516 24.5469 22.75V22.7656C24.5469 24.7031 25.5156 25.9453 27.0156 25.9453C28.1484 25.9453 28.8672 25.4453 29.1797 24.5078L29.1953 24.4609L30.5391 24.4531L30.5234 24.5391C30.1797 26.0625 29.0469 27.1484 27.0234 27.1484ZM35.6797 27.0625C33.9453 27.0625 33.2188 26.4219 33.2188 24.8125V19.7031H31.8906V18.5781H33.2188V16.3984H34.625V18.5781H36.4688V19.7031H34.625V24.4688C34.625 25.4609 34.9688 25.8594 35.8438 25.8594C36.0859 25.8594 36.2188 25.8516 36.4688 25.8281V26.9844C36.2031 27.0312 35.9453 27.0625 35.6797 27.0625ZM39.2188 16.9531C38.7031 16.9531 38.2812 16.5312 38.2812 16.0156C38.2812 15.5 38.7031 15.0781 39.2188 15.0781C39.7344 15.0781 40.1562 15.5 40.1562 16.0156C40.1562 16.5312 39.7344 16.9531 39.2188 16.9531ZM38.5312 27V18.5781H39.8906V27H38.5312ZM44.8359 27L41.7188 18.5781H43.1562L45.4609 25.5156H45.5859L47.8906 18.5781H49.3281L46.2109 27H44.8359ZM53.125 27.1484C51.5234 27.1484 50.3125 26.1797 50.3125 24.6484V24.6328C50.3125 23.1328 51.4219 22.2656 53.3828 22.1484L55.7969 22V21.2344C55.7969 20.1953 55.1641 19.6328 53.9062 19.6328C52.8984 19.6328 52.2344 20.0078 52.0156 20.6641L52.0078 20.6875H50.6484L50.6562 20.6406C50.875 19.3203 52.1562 18.4297 53.9531 18.4297C56.0078 18.4297 57.1562 19.4844 57.1562 21.2344V27H55.7969V25.7578H55.6719C55.1406 26.6562 54.2578 27.1484 53.125 27.1484ZM51.7031 24.6172C51.7031 25.4688 52.4297 25.9688 53.4062 25.9688C54.7891 25.9688 55.7969 25.0625 55.7969 23.8594V23.0938L53.5469 23.2344C52.2656 23.3125 51.7031 23.7656 51.7031 24.6016V24.6172ZM62.6328 27.0625C60.8984 27.0625 60.1719 26.4219 60.1719 24.8125V19.7031H58.8438V18.5781H60.1719V16.3984H61.5781V18.5781H63.4219V19.7031H61.5781V24.4688C61.5781 25.4609 61.9219 25.8594 62.7969 25.8594C63.0391 25.8594 63.1719 25.8516 63.4219 25.8281V26.9844C63.1562 27.0312 62.8984 27.0625 62.6328 27.0625ZM68.7656 27.1484C66.3594 27.1484 64.9062 25.4609 64.9062 22.8203V22.8125C64.9062 20.2109 66.3906 18.4297 68.6797 18.4297C70.9688 18.4297 72.3594 20.1328 72.3594 22.6484V23.1797H66.2969C66.3359 24.9219 67.2969 25.9375 68.7969 25.9375C69.9375 25.9375 70.6406 25.3984 70.8672 24.8906L70.8984 24.8203H72.2578L72.2422 24.8828C71.9531 26.0234 70.75 27.1484 68.7656 27.1484ZM68.6719 19.6406C67.4219 19.6406 66.4688 20.4922 66.3203 22.0938H70.9766C70.8359 20.4297 69.9141 19.6406 68.6719 19.6406ZM79.1406 27V15.7266H80.5078L86.625 24.5H86.75V15.7266H88.1406V27H86.7734L80.6562 18.2578H80.5312V27H79.1406ZM94.3047 27.1484C91.9062 27.1484 90.4219 25.4922 90.4219 22.7969V22.7812C90.4219 20.0781 91.9062 18.4297 94.3047 18.4297C96.7031 18.4297 98.1875 20.0781 98.1875 22.7812V22.7969C98.1875 25.4922 96.7031 27.1484 94.3047 27.1484ZM94.3047 25.9453C95.8984 25.9453 96.7969 24.7812 96.7969 22.7969V22.7812C96.7969 20.7891 95.8984 19.6328 94.3047 19.6328C92.7109 19.6328 91.8125 20.7891 91.8125 22.7812V22.7969C91.8125 24.7812 92.7109 25.9453 94.3047 25.9453ZM101.609 27L99.25 18.5781H100.609L102.266 25.3125H102.391L104.273 18.5781H105.562L107.445 25.3125H107.57L109.227 18.5781H110.578L108.219 27H106.852L104.969 20.4844H104.844L102.969 27H101.609ZM116.148 27L120.305 15.7266H121.695L125.852 27H124.375L123.242 23.7734H118.758L117.625 27H116.148ZM120.938 17.5469L119.172 22.5781H122.828L121.062 17.5469H120.938ZM127.656 27V18.5781H129.016V19.8438H129.141C129.562 18.9531 130.352 18.4297 131.594 18.4297C133.484 18.4297 134.539 19.5469 134.539 21.5469V27H133.18V21.875C133.18 20.3594 132.555 19.6328 131.211 19.6328C129.867 19.6328 129.016 20.5391 129.016 22.0156V27H127.656ZM140.109 27.1484C137.977 27.1484 136.578 25.4219 136.578 22.7969V22.7812C136.578 20.1406 137.969 18.4297 140.109 18.4297C141.266 18.4297 142.273 19.0078 142.734 19.9062H142.859V15.2344H144.219V27H142.859V25.6562H142.734C142.219 26.5938 141.281 27.1484 140.109 27.1484ZM140.422 25.9453C141.953 25.9453 142.891 24.7422 142.891 22.7969V22.7812C142.891 20.8359 141.953 19.6328 140.422 19.6328C138.883 19.6328 137.969 20.8203 137.969 22.7812V22.7969C137.969 24.7578 138.883 25.9453 140.422 25.9453ZM151.5 27V15.7266H155.805C157.977 15.7266 159.398 17.0547 159.398 19.0781V19.0938C159.398 20.6562 158.547 21.875 157.133 22.3203L159.742 27H158.094L155.68 22.5391H152.906V27H151.5ZM152.906 21.2891H155.68C157.125 21.2891 157.945 20.5156 157.945 19.1406V19.125C157.945 17.7812 157.07 16.9766 155.617 16.9766H152.906V21.2891ZM164.984 27.1484C162.578 27.1484 161.125 25.4609 161.125 22.8203V22.8125C161.125 20.2109 162.609 18.4297 164.898 18.4297C167.188 18.4297 168.578 20.1328 168.578 22.6484V23.1797H162.516C162.555 24.9219 163.516 25.9375 165.016 25.9375C166.156 25.9375 166.859 25.3984 167.086 24.8906L167.117 24.8203H168.477L168.461 24.8828C168.172 26.0234 166.969 27.1484 164.984 27.1484ZM164.891 19.6406C163.641 19.6406 162.688 20.4922 162.539 22.0938H167.195C167.055 20.4297 166.133 19.6406 164.891 19.6406ZM174.133 27.1484C171.773 27.1484 170.266 25.4375 170.266 22.7656V22.75C170.266 20.1328 171.766 18.4297 174.125 18.4297C176.172 18.4297 177.398 19.6094 177.648 21.1094L177.656 21.1562H176.305L176.297 21.1328C176.086 20.3047 175.336 19.6328 174.125 19.6328C172.609 19.6328 171.656 20.8516 171.656 22.75V22.7656C171.656 24.7031 172.625 25.9453 174.125 25.9453C175.258 25.9453 175.977 25.4453 176.289 24.5078L176.305 24.4609L177.648 24.4531L177.633 24.5391C177.289 26.0625 176.156 27.1484 174.133 27.1484ZM183.078 27.1484C180.672 27.1484 179.219 25.4609 179.219 22.8203V22.8125C179.219 20.2109 180.703 18.4297 182.992 18.4297C185.281 18.4297 186.672 20.1328 186.672 22.6484V23.1797H180.609C180.648 24.9219 181.609 25.9375 183.109 25.9375C184.25 25.9375 184.953 25.3984 185.18 24.8906L185.211 24.8203H186.57L186.555 24.8828C186.266 26.0234 185.062 27.1484 183.078 27.1484ZM182.984 19.6406C181.734 19.6406 180.781 20.4922 180.633 22.0938H185.289C185.148 20.4297 184.227 19.6406 182.984 19.6406ZM189.5 16.9531C188.984 16.9531 188.562 16.5312 188.562 16.0156C188.562 15.5 188.984 15.0781 189.5 15.0781C190.016 15.0781 190.438 15.5 190.438 16.0156C190.438 16.5312 190.016 16.9531 189.5 16.9531ZM188.812 27V18.5781H190.172V27H188.812ZM195.117 27L192 18.5781H193.438L195.742 25.5156H195.867L198.172 18.5781H199.609L196.492 27H195.117ZM204.531 27.1484C202.125 27.1484 200.672 25.4609 200.672 22.8203V22.8125C200.672 20.2109 202.156 18.4297 204.445 18.4297C206.734 18.4297 208.125 20.1328 208.125 22.6484V23.1797H202.062C202.102 24.9219 203.062 25.9375 204.562 25.9375C205.703 25.9375 206.406 25.3984 206.633 24.8906L206.664 24.8203H208.023L208.008 24.8828C207.719 26.0234 206.516 27.1484 204.531 27.1484ZM204.438 19.6406C203.188 19.6406 202.234 20.4922 202.086 22.0938H206.742C206.602 20.4297 205.68 19.6406 204.438 19.6406Z" fill="white"/>
<path d="M15.7812 48V39.625H15.625L12.9531 41.3906V38.6172L15.7812 36.7266H19.0938V48H15.7812ZM21.4219 51.2031L22.1094 45.9688H25.0781L23.4531 51.2031H21.4219ZM31.9219 48.3125C28.8438 48.3125 26.9453 46.0312 26.9453 42.3672V42.3516C26.9453 38.6875 28.8438 36.4141 31.9219 36.4141C35 36.4141 36.8828 38.6875 36.8828 42.3516V42.3672C36.8828 46.0312 35 48.3125 31.9219 48.3125ZM31.9219 45.8125C32.9688 45.8125 33.5312 44.5938 33.5312 42.3672V42.3516C33.5312 40.125 32.9688 38.9141 31.9219 38.9141C30.875 38.9141 30.3047 40.125 30.3047 42.3516V42.3672C30.3047 44.5938 30.875 45.8125 31.9219 45.8125ZM43.75 48.3125C40.6719 48.3125 38.7734 46.0312 38.7734 42.3672V42.3516C38.7734 38.6875 40.6719 36.4141 43.75 36.4141C46.8281 36.4141 48.7109 38.6875 48.7109 42.3516V42.3672C48.7109 46.0312 46.8281 48.3125 43.75 48.3125ZM43.75 45.8125C44.7969 45.8125 45.3594 44.5938 45.3594 42.3672V42.3516C45.3594 40.125 44.7969 38.9141 43.75 38.9141C42.7031 38.9141 42.1328 40.125 42.1328 42.3516V42.3672C42.1328 44.5938 42.7031 45.8125 43.75 45.8125ZM55.5781 48.3125C52.5 48.3125 50.6016 46.0312 50.6016 42.3672V42.3516C50.6016 38.6875 52.5 36.4141 55.5781 36.4141C58.6562 36.4141 60.5391 38.6875 60.5391 42.3516V42.3672C60.5391 46.0312 58.6562 48.3125 55.5781 48.3125ZM55.5781 45.8125C56.625 45.8125 57.1875 44.5938 57.1875 42.3672V42.3516C57.1875 40.125 56.625 38.9141 55.5781 38.9141C54.5312 38.9141 53.9609 40.125 53.9609 42.3516V42.3672C53.9609 44.5938 54.5312 45.8125 55.5781 45.8125ZM61.4062 51.2031L62.0938 45.9688H65.0625L63.4375 51.2031H61.4062ZM71.9062 48.3125C68.8281 48.3125 66.9297 46.0312 66.9297 42.3672V42.3516C66.9297 38.6875 68.8281 36.4141 71.9062 36.4141C74.9844 36.4141 76.8672 38.6875 76.8672 42.3516V42.3672C76.8672 46.0312 74.9844 48.3125 71.9062 48.3125ZM71.9062 45.8125C72.9531 45.8125 73.5156 44.5938 73.5156 42.3672V42.3516C73.5156 40.125 72.9531 38.9141 71.9062 38.9141C70.8594 38.9141 70.2891 40.125 70.2891 42.3516V42.3672C70.2891 44.5938 70.8594 45.8125 71.9062 45.8125ZM83.7344 48.3125C80.6562 48.3125 78.7578 46.0312 78.7578 42.3672V42.3516C78.7578 38.6875 80.6562 36.4141 83.7344 36.4141C86.8125 36.4141 88.6953 38.6875 88.6953 42.3516V42.3672C88.6953 46.0312 86.8125 48.3125 83.7344 48.3125ZM83.7344 45.8125C84.7812 45.8125 85.3438 44.5938 85.3438 42.3672V42.3516C85.3438 40.125 84.7812 38.9141 83.7344 38.9141C82.6875 38.9141 82.1172 40.125 82.1172 42.3516V42.3672C82.1172 44.5938 82.6875 45.8125 83.7344 45.8125ZM95.5625 48.3125C92.4844 48.3125 90.5859 46.0312 90.5859 42.3672V42.3516C90.5859 38.6875 92.4844 36.4141 95.5625 36.4141C98.6406 36.4141 100.523 38.6875 100.523 42.3516V42.3672C100.523 46.0312 98.6406 48.3125 95.5625 48.3125ZM95.5625 45.8125C96.6094 45.8125 97.1719 44.5938 97.1719 42.3672V42.3516C97.1719 40.125 96.6094 38.9141 95.5625 38.9141C94.5156 38.9141 93.9453 40.125 93.9453 42.3516V42.3672C93.9453 44.5938 94.5156 45.8125 95.5625 45.8125ZM106.516 48V36.7266H109.828V45.375H114.422V48H106.516ZM115.75 48L119.43 36.7266H123.586L127.266 48H123.781L123.211 45.7578H119.805L119.234 48H115.75ZM121.43 39.4141L120.406 43.4219H122.609L121.586 39.4141H121.43ZM129.125 48V36.7266H131.695L135.953 42.3203H136.109V36.7266H139.234V48H136.688L132.406 42.3203H132.25V48H129.125ZM141.828 48V36.7266H146.828C150.195 36.7266 152.086 38.6953 152.086 42.2109V42.2266C152.086 45.9688 150.234 48 146.828 48H141.828ZM145.141 45.375H146.18C147.836 45.375 148.711 44.3594 148.711 42.2891V42.2734C148.711 40.3828 147.773 39.3516 146.18 39.3516H145.141V45.375ZM157.867 48L162.023 36.7266H163.414L167.57 48H166.094L164.961 44.7734H160.477L159.344 48H157.867ZM162.656 38.5469L160.891 43.5781H164.547L162.781 38.5469H162.656ZM172.109 48.1484C170.234 48.1484 168.945 47.2422 168.789 45.8516H170.18C170.406 46.5547 171.078 47.0156 172.156 47.0156C173.289 47.0156 174.094 46.4766 174.094 45.7109V45.6953C174.094 45.125 173.664 44.7266 172.625 44.4766L171.32 44.1641C169.742 43.7891 169.031 43.1016 169.031 41.8906V41.8828C169.031 40.4844 170.375 39.4297 172.164 39.4297C173.93 39.4297 175.156 40.3125 175.344 41.6875H174.008C173.828 41.0234 173.172 40.5625 172.156 40.5625C171.156 40.5625 170.422 41.0781 170.422 41.8203V41.8359C170.422 42.4062 170.844 42.7656 171.836 43.0078L173.133 43.3203C174.719 43.7031 175.484 44.3906 175.484 45.5938V45.6094C175.484 47.1094 174.023 48.1484 172.109 48.1484ZM181.367 48L185.523 36.7266H186.914L191.07 48H189.594L188.461 44.7734H183.977L182.844 48H181.367ZM186.156 38.5469L184.391 43.5781H188.047L186.281 38.5469H186.156ZM197.547 48V36.7266H201.859C203.93 36.7266 205.195 37.8125 205.195 39.5312V39.5469C205.195 40.7109 204.336 41.7734 203.25 41.9688V42.0938C204.789 42.2891 205.766 43.3438 205.766 44.8281V44.8438C205.766 46.8203 204.344 48 201.945 48H197.547ZM201.562 37.9688H198.953V41.5859H201.203C202.906 41.5859 203.773 40.9766 203.773 39.7891V39.7734C203.773 38.6328 202.961 37.9688 201.562 37.9688ZM201.602 42.7969H198.953V46.7578H201.734C203.43 46.7578 204.32 46.0703 204.32 44.7734V44.7578C204.32 43.4609 203.398 42.7969 201.602 42.7969ZM211.352 48.1484C208.953 48.1484 207.469 46.4922 207.469 43.7969V43.7812C207.469 41.0781 208.953 39.4297 211.352 39.4297C213.75 39.4297 215.234 41.0781 215.234 43.7812V43.7969C215.234 46.4922 213.75 48.1484 211.352 48.1484ZM211.352 46.9453C212.945 46.9453 213.844 45.7812 213.844 43.7969V43.7812C213.844 41.7891 212.945 40.6328 211.352 40.6328C209.758 40.6328 208.859 41.7891 208.859 43.7812V43.7969C208.859 45.7812 209.758 46.9453 211.352 46.9453ZM217.344 48V39.5781H218.703V40.8438H218.828C219.25 39.9531 220.039 39.4297 221.281 39.4297C223.172 39.4297 224.227 40.5469 224.227 42.5469V48H222.867V42.875C222.867 41.3594 222.242 40.6328 220.898 40.6328C219.555 40.6328 218.703 41.5391 218.703 43.0156V48H217.344ZM229.508 48.1484C227.594 48.1484 226.609 47.0234 226.609 45.0312V39.5781H227.969V44.7031C227.969 46.2188 228.516 46.9453 229.859 46.9453C231.344 46.9453 232.133 46.0391 232.133 44.5625V39.5781H233.492V48H232.133V46.7422H232.008C231.594 47.6406 230.742 48.1484 229.508 48.1484ZM238.922 48.1484C237.047 48.1484 235.758 47.2422 235.602 45.8516H236.992C237.219 46.5547 237.891 47.0156 238.969 47.0156C240.102 47.0156 240.906 46.4766 240.906 45.7109V45.6953C240.906 45.125 240.477 44.7266 239.438 44.4766L238.133 44.1641C236.555 43.7891 235.844 43.1016 235.844 41.8906V41.8828C235.844 40.4844 237.188 39.4297 238.977 39.4297C240.742 39.4297 241.969 40.3125 242.156 41.6875H240.82C240.641 41.0234 239.984 40.5625 238.969 40.5625C237.969 40.5625 237.234 41.0781 237.234 41.8203V41.8359C237.234 42.4062 237.656 42.7656 238.648 43.0078L239.945 43.3203C241.531 43.7031 242.297 44.3906 242.297 45.5938V45.6094C242.297 47.1094 240.836 48.1484 238.922 48.1484ZM245.516 48.0781C244.961 48.0781 244.5 47.6172 244.5 47.0625C244.5 46.5 244.961 46.0469 245.516 46.0469C246.078 46.0469 246.531 46.5 246.531 47.0625C246.531 47.6172 246.078 48.0781 245.516 48.0781Z" fill="white"/>
<defs>
<filter id="filter0_b_13106_2903" x="-8" y="-8" width="276" height="89.9727" filterUnits="userSpaceOnUse" color-interpolation-filters="sRGB">
<feFlood flood-opacity="0" result="BackgroundImageFix"/>
<feGaussianBlur in="BackgroundImageFix" stdDeviation="4"/>
<feComposite in2="SourceAlpha" operator="in" result="effect1_backgroundBlur_13106_2903"/>
<feBlend mode="normal" in="SourceGraphic" in2="effect1_backgroundBlur_13106_2903" result="shape"/>
</filter>
<linearGradient id="paint0_linear_13106_2903" x1="219.154" y1="85.2975" x2="249.539" y2="-3.92473" gradientUnits="userSpaceOnUse">
<stop stop-color="#9747FF"/>
</linearGradient>
<linearGradient id="paint1_linear_13106_2903" x1="138.5" y1="107" x2="155" y2="54" gradientUnits="userSpaceOnUse">
<stop stop-color="#81CDFF"/>
<stop offset="1" stop-color="#81CDFF" stop-opacity="0"/>
</linearGradient>
</defs>
</svg>
