<svg xmlns="http://www.w3.org/2000/svg" width="16" height="16" viewBox="0 0 16 16" fill="none">
  <path d="M13.8609 8.40513C14.0237 8.26563 14.105 8.19589 14.1348 8.11289C14.161 8.04004 14.161 7.96035 14.1348 7.8875C14.105 7.8045 14.0237 7.73476 13.8609 7.59526L8.21375 2.75484C7.9336 2.51471 7.79353 2.39465 7.67493 2.3917C7.57186 2.38915 7.47341 2.43443 7.40828 2.51435C7.33333 2.6063 7.33333 2.7908 7.33333 3.15978V6.02328C5.91021 6.27225 4.60773 6.99337 3.63981 8.07611C2.58455 9.25654 2.00082 10.7842 2 12.3675V12.7755C2.69956 11.9328 3.573 11.2512 4.56051 10.7775C5.43113 10.3598 6.37228 10.1124 7.33333 10.0472V12.8406C7.33333 13.2096 7.33333 13.3941 7.40828 13.486C7.47341 13.566 7.57186 13.6112 7.67493 13.6087C7.79353 13.6057 7.9336 13.4857 8.21375 13.2455L13.8609 8.40513Z" stroke="#735EA1" stroke-width="1.5" stroke-linecap="round" stroke-linejoin="round"/>
</svg>