<svg xmlns="http://www.w3.org/2000/svg" width="40" height="41" viewBox="0 0 40 41" fill="none">
  <path d="M32 13C32 13.8198 31.5704 14.5637 30.8889 14.9433L28.3111 16.3704L26.1185 17.5698L21.5704 20.0901C21.0815 20.3633 20.5481 20.5 20 20.5C19.4519 20.5 18.9185 20.3633 18.4296 20.0901L9.11111 14.9433C8.42963 14.5637 8 13.8198 8 13C8 12.1801 8.42963 11.4362 9.11111 11.0566L12.0296 9.44731L14.3556 8.15686L18.4296 5.90992C19.4074 5.36336 20.5926 5.36336 21.5704 5.90992L30.8889 11.0566C31.5704 11.4362 32 12.1801 32 13Z" fill="#8098F9"/>
  <path d="M16.9246 21.2716L8.12775 16.7402C7.45107 16.3845 6.66914 16.4309 6.02253 16.833C5.37592 17.2351 5 17.9465 5 18.7198V27.2723C5 28.757 5.79696 30.087 7.09017 30.752L15.887 35.2681C16.1878 35.4227 16.5186 35.5 16.8495 35.5C17.2404 35.5 17.6314 35.3918 17.9773 35.1598C18.6239 34.7577 18.9998 34.0462 18.9998 33.2729V24.7205C19.0148 23.2667 18.2178 21.9366 16.9246 21.2716Z" fill="#444CE7"/>
  <path d="M35 18.7245V27.2746C35 28.7434 34.2039 30.073 32.912 30.7379L24.1245 35.268C23.8241 35.4227 23.4936 35.5 23.1631 35.5C22.7725 35.5 22.382 35.3918 22.0215 35.1599C21.3906 34.7579 21 34.0466 21 33.2736V24.7389C21 23.2546 21.7962 21.9249 23.088 21.2601L26.3176 19.6057L28.5708 18.4461L31.8756 16.7454C32.5515 16.3898 33.3326 16.4207 33.9786 16.8381C34.6095 17.2401 35 17.9514 35 18.7245Z" fill="#C7D7FE"/>
  <path d="M26 31.5L30 27.5M30 27.5L34 31.5M30 27.5V35.5" stroke="#444CE7" stroke-width="2" stroke-linecap="round" stroke-linejoin="round"/>
</svg>