<svg xmlns="http://www.w3.org/2000/svg" width="40" height="40" viewBox="0 0 40 40" fill="none">
  <path d="M32 12.5C32 13.3198 31.5704 14.0637 30.8889 14.4433L28.3111 15.8704L26.1185 17.0698L21.5704 19.5901C21.0815 19.8633 20.5481 20 20 20C19.4519 20 18.9185 19.8633 18.4296 19.5901L9.11111 14.4433C8.42963 14.0637 8 13.3198 8 12.5C8 11.6801 8.42963 10.9362 9.11111 10.5566L12.0296 8.94731L14.3556 7.65686L18.4296 5.40992C19.4074 4.86336 20.5926 4.86336 21.5704 5.40992L30.8889 10.5566C31.5704 10.9362 32 11.6801 32 12.5Z" fill="#8B75B4"/>
  <path d="M16.9246 20.7716L8.12775 16.2402C7.45107 15.8845 6.66914 15.9309 6.02253 16.333C5.37592 16.7351 5 17.4465 5 18.2198V26.7723C5 28.257 5.79696 29.587 7.09017 30.252L15.887 34.7681C16.1878 34.9227 16.5186 35 16.8495 35C17.2404 35 17.6314 34.8918 17.9773 34.6598C18.6239 34.2577 18.9998 33.5462 18.9998 32.7729V24.2205C19.0148 22.7667 18.2178 21.4366 16.9246 20.7716Z" fill="#543D8C"/>
  <path d="M35 18.2245V26.7746C35 28.2434 34.2039 29.573 32.912 30.2379L24.1245 34.768C23.8241 34.9227 23.4936 35 23.1631 35C22.7725 35 22.382 34.8918 22.0215 34.6599C21.3906 34.2579 21 33.5466 21 32.7736V24.2389C21 22.7546 21.7962 21.4249 23.088 20.7601L26.3176 19.1057L28.5708 17.9461L31.8756 16.2454C32.5515 15.8898 33.3326 15.9207 33.9786 16.3381C34.6095 16.7401 35 17.4514 35 18.2245Z" fill="#D8C8EC"/>
  <path d="M26 31L30 27M30 27L34 31M30 27V35" stroke="#543D8C" stroke-width="2" stroke-linecap="round" stroke-linejoin="round"/>
</svg>