<svg xmlns="http://www.w3.org/2000/svg" width="48" height="48" viewBox="0 0 48 48" fill="none">
  <g clip-path="url(#clip0_69_311)">
    <path d="M8.82917 16.3208L16.1188 21.5276C16.4982 21.7985 16.6878 21.934 16.8863 21.9652C17.061 21.9927 17.2398 21.965 17.398 21.886C17.5778 21.7963 17.7176 21.6098 17.9973 21.2369L19.5377 19.1831C19.6168 19.0776 19.6563 19.0249 19.7028 18.9794C19.7441 18.939 19.7894 18.9029 19.8379 18.8717C19.8927 18.8366 19.9529 18.8098 20.0733 18.7563L26.65 15.8334C26.9226 15.7122 27.0589 15.6516 27.1617 15.557C27.2526 15.4733 27.3242 15.3708 27.3714 15.2566C27.4248 15.1275 27.4348 14.9787 27.4546 14.681L27.9361 7.45799M41 24C41 33.3888 33.3888 41 24 41C14.6112 41 7 33.3888 7 24C7 14.6112 14.6112 7 24 7C33.3888 7 41 14.6112 41 24Z" stroke="white" stroke-width="2" stroke-linecap="round" stroke-linejoin="round"/>
    <path d="M28.3721 34.2C28.6382 34.2 28.7713 34.2 28.892 34.1633C28.999 34.1308 29.0984 34.0776 29.1848 34.0066C29.2823 33.9265 29.3561 33.8158 29.5037 33.5944L31.593 30.4603C31.9044 29.9932 32.0601 29.7597 32.0743 29.5312C32.0867 29.3308 32.0277 29.1324 31.9078 28.9713C31.7711 28.7876 31.5132 28.677 30.9972 28.4559L26.55 26.5499L25.119 26.0729C24.7222 25.9407 24.5238 25.8746 24.3398 25.8943C24.1777 25.9117 24.024 25.9754 23.8971 26.0777C23.753 26.1938 23.6595 26.3809 23.4725 26.7549L22.5519 28.5961C22.4589 28.782 22.4124 28.875 22.3897 28.973C22.3695 29.0599 22.3632 29.1494 22.3708 29.2383C22.3795 29.3385 22.4124 29.4371 22.4781 29.6344L23.69 33.27C23.8014 33.6044 23.8572 33.7716 23.9606 33.8953C24.0518 34.0044 24.1691 34.0889 24.3015 34.141C24.4515 34.2 24.6277 34.2 24.9802 34.2H28.3721Z" fill="white" stroke="white" stroke-width="2" stroke-linecap="round" stroke-linejoin="round"/>
    <path d="M7.30712 27.0549C4.41356 30.5594 3.23222 33.7969 4.45618 35.9169C6.87263 40.1023 17.7494 38.3465 28.7501 31.9953C39.7509 25.644 46.7098 17.1023 44.2933 12.9169C43.0694 10.7969 39.6749 10.2012 35.1931 10.9549" stroke="white" stroke-width="2" stroke-linecap="round" stroke-linejoin="round"/>
  </g>
  <defs>
    <clipPath id="clip0_69_311">
      <rect width="48" height="48" fill="white"/>
    </clipPath>
  </defs>
</svg>