<?xml version="1.0" encoding="UTF-8"?>
<svg width="18px" height="18px" viewBox="0 0 18 18" version="1.1" xmlns="http://www.w3.org/2000/svg" xmlns:xlink="http://www.w3.org/1999/xlink">
    <title>形状</title>
    <g id="Files" stroke="none" stroke-width="1" fill="none" fill-rule="evenodd">
        <g id="删除详细" transform="translate(-1030.000000, -604.000000)" fill="#E6E8EB" fill-rule="nonzero">
            <g id="编组-3" transform="translate(1002.000000, 582.000000)">
                <path d="M40,25 L40,23.5 L34,23.5 L34,25 L40,25 L40,25 Z M41.5,25 L46,25 L46,26.5 L28,26.5 L28,25 L32.5,25 L32.5,23.5 C32.5,22.6715729 33.1715729,22 34,22 L40,22 C40.8284271,22 41.5,22.6715729 41.5,23.5 L41.5,25 L41.5,25 Z M32.5,28 L32.5,38.5 L41.5,38.5 L41.5,28 L43,28 L43,38.5 C43,38.8978247 42.8419647,39.2793556 42.5606602,39.5606602 C42.2793556,39.8419647 41.8978247,40 41.5,40 L32.5,40 C32.1021753,40 31.7206444,39.8419647 31.4393398,39.5606602 C31.1580353,39.2793556 31,38.8978247 31,38.5 L31,28 L32.5,28 Z M37.75,28 L39.25,28 L39.25,37 L37.75,37 L37.75,28 Z M34.75,28 L36.25,28 L36.25,37 L34.75,37 L34.75,28 Z" id="形状"></path>
            </g>
        </g>
    </g>
</svg>