<?xml version="1.0" encoding="UTF-8"?>
<svg width="20px" height="17px" viewBox="0 0 20 17" version="1.1" xmlns="http://www.w3.org/2000/svg" xmlns:xlink="http://www.w3.org/1999/xlink">
    <title>ipfs-sync</title>
    <g id="ipfs-1" stroke="none" stroke-width="1" fill="none" fill-rule="evenodd">
        <g id="pinning-service-sync" transform="translate(-480.000000, -207.000000)" fill="#775DA6" fill-rule="nonzero" stroke="#775DA6" stroke-width="0.25">
            <g id="ipfs-sync" transform="translate(481.000000, 208.000000)">
                <path d="M16.6300633,4.41860465 L15.6118962,4.41860465 L15.4987665,4.41860465 L15.4987665,3.48837209 C15.4987665,2.6744186 14.8199884,1.97674419 14.0280806,1.97674419 L7.80594808,1.97674419 C7.57968871,1.86046512 7.35342935,1.86046512 7.12716999,1.74418605 L5.0908357,0.465116279 C4.75144666,0.23255814 4.29892793,0 3.8464092,0 L1.58381555,0 C0.678778094,0 0,0.813953488 0,1.62790698 L0,10.9302326 C0,11.744186 0.678778094,12.4418605 1.47068587,12.4418605 L2.60198269,12.4418605 L2.60198269,13.4883721 C2.60198269,14.3023256 3.28076079,15 4.07266856,15 L16.5169336,15 C17.3088414,15 17.9876195,14.3023256 17.9876195,13.4883721 L17.9876195,6.04651163 C18.1007492,5.23255814 17.4219711,4.41860465 16.6300633,4.41860465 Z M1.13129682,10.9302326 L1.13129682,1.62790698 C1.13129682,1.39534884 1.35755619,1.27906977 1.47068587,1.27906977 L3.73327952,1.27906977 C3.95953888,1.27906977 4.18579825,1.39534884 4.41205761,1.51162791 L6.44839189,2.79069767 C6.90091062,2.90697674 7.35342935,3.02325581 7.80594808,3.02325581 L13.9149509,3.02325581 C14.1412103,3.02325581 14.25434,3.25581395 14.25434,3.37209302 L14.25434,10.8139535 C14.25434,11.0465116 14.0280806,11.1627907 13.9149509,11.1627907 L1.47068587,11.1627907 C1.35755619,11.2790698 1.13129682,11.1627907 1.13129682,10.9302326 Z M16.9694523,13.4883721 C16.9694523,13.7209302 16.743193,13.8372093 16.6300633,13.8372093 L4.18579825,13.8372093 C3.95953888,13.8372093 3.8464092,13.6046512 3.8464092,13.4883721 L3.8464092,12.4418605 L14.0280806,12.4418605 C14.8199884,12.4418605 15.4987665,11.744186 15.4987665,10.9302326 L15.4987665,5.58139535 L16.6300633,5.58139535 C16.8563227,5.58139535 16.9694523,5.81395349 16.9694523,5.93023256 L16.9694523,13.4883721 L16.9694523,13.4883721 Z" id="sync"></path>
                <path d="M13,6.97087379 C13,6.85436893 12.8831169,6.73786408 12.8831169,6.62135922 L10.3116883,4.17475728 C10.0779221,3.94174757 9.72727273,3.94174757 9.49350649,4.17475728 C9.25974026,4.40776699 9.25974026,4.75728155 9.49350649,4.99029126 L11.012987,6.50485437 L4.58441558,6.50485437 C4.23376623,6.50485437 4,6.73786408 4,7.08737864 C4,7.4368932 4.23376623,7.66990291 4.58441558,7.66990291 L11.012987,7.66990291 L9.49350649,9.06796117 C9.25974026,9.30097087 9.25974026,9.65048544 9.49350649,9.88349515 C9.61038961,10 9.72727273,10 9.96103896,10 C10.0779221,10 10.3116883,10 10.4285714,9.88349515 L12.8831169,7.4368932 C12.8831169,7.4368932 13,7.32038835 13,7.2038835 L13,6.97087379 Z" id="sync"></path>
            </g>
        </g>
    </g>
</svg>