<?xml version="1.0" encoding="UTF-8"?>
<svg width="18px" height="19px" viewBox="0 0 18 19" version="1.1" xmlns="http://www.w3.org/2000/svg" xmlns:xlink="http://www.w3.org/1999/xlink">
    <title>形状结合</title>
    <g id="Files" stroke="none" stroke-width="1" fill="none" fill-rule="evenodd">
        <g id="上传详细-暂停" transform="translate(-1030.000000, -603.000000)" fill="#E6E8EB" fill-rule="nonzero">
            <g id="编组-3" transform="translate(1002.000000, 582.000000)">
                <path d="M44.875,28 C45.4963203,28 46,28.5372583 46,29.2 L46,34.8472 C46,37.6912 43.8535,40 41.199625,40 L32.800375,40 C30.1465,40 28,37.6912 28,34.8472 L28,29.2 C28,28.5372583 28.5036797,28 29.125,28 C29.7463203,28 30.25,28.5372583 30.25,29.2 L30.25,34.8472 C30.25,36.37 31.394125,37.6 32.800375,37.6 L41.199625,37.6 C42.605875,37.6 43.75,36.37 43.75,34.8472 L43.75,29.2 C43.75,28.5372583 44.2536797,28 44.875,28 Z M37.7668626,21.3166343 L41.6634568,25.1406466 C41.9500042,25.4121715 42.0649244,25.8142588 41.9640479,26.192366 C41.8631713,26.5704732 41.5621967,26.865758 41.1768039,26.9647275 C40.791411,27.0636971 40.3815759,26.9509493 40.1048191,26.669819 L38,24.604 L38,33.9166667 C38,34.5907407 37.7096296,34.9502469 37.1288889,34.9951852 L37,35 C36.3333333,35 36,34.6388889 36,33.9166667 L36,24.578 L33.8680638,26.669819 C33.4355486,27.0796592 32.7480439,27.0737979 32.3228534,26.6566455 C31.897663,26.2394931 31.8916888,25.5649853 32.3094261,25.1406466 L36.2082249,21.3166343 C36.6386689,20.8944552 37.3364186,20.8944552 37.7668626,21.3166343 Z" id="形状结合"></path>
            </g>
        </g>
    </g>
</svg>