<?xml version="1.0" encoding="UTF-8"?>
<svg width="45px" height="53px" viewBox="0 0 45 53" version="1.1" xmlns="http://www.w3.org/2000/svg" xmlns:xlink="http://www.w3.org/1999/xlink">
    <title>文件类型-Excel</title>
    <g id="Bucket-Bucket-List" stroke="none" stroke-width="1" fill="none" fill-rule="evenodd">
        <g id="配图" transform="translate(-319.000000, -55.000000)" fill-rule="nonzero">
            <g id="文件类型-Excel" transform="translate(319.000000, 55.000000)">
                <path d="M31.0867018,0 L8.27943761,0 C3.70650264,0 0,3.74475497 0,8.36356226 L0,44.6364377 C0,49.2558368 3.70708846,53 8.27943761,53 L36.7205624,53 C41.2934974,53 45,49.255245 45,44.6364377 L45,14.0540749 C45,12.1704537 44.2595196,10.364355 42.9408319,9.03286029 L36.0574107,2.07949889 C34.7389953,0.747986649 32.9510133,0 31.0867018,0 Z" id="路径" fill="#53D39C"></path>
                <path d="M43.1459952,8.98940295 L36.3233968,1.96643189 C35.3445269,0.958885817 34.0962942,0.274303668 32.7379036,0 L32.7379036,7.88246317 C32.7379036,10.3850317 34.7086184,12.4136243 37.139786,12.4136243 L45,12.4136243 C44.7027247,11.1172092 44.0607663,9.93155551 43.1459952,8.98940295 L43.1459952,8.98940295 Z" id="形状" fill="#25BF79"></path>
                <path d="M24.0135774,26.9999258 L30.583137,20.4302039 C31.1389543,19.8743728 31.1389543,18.9727044 30.583137,18.4168733 C30.0273196,17.8610422 29.1256735,17.8610422 28.5698562,18.4168733 L22.0002966,24.9865953 L15.430737,18.4168733 C14.8749197,17.8610422 13.9732736,17.8610422 13.4174562,18.4168733 C12.8616388,18.9727044 12.8616388,19.8743728 13.4174562,20.4302039 L19.9870158,26.9999258 L13.416863,33.5696478 C12.8610457,34.1254789 12.8610457,35.0271473 13.416863,35.5829784 C13.6950683,35.8611905 14.0592859,36 14.4235034,36 C14.787721,36 15.1519386,35.8611905 15.4301438,35.5829784 L22.0002966,29.0132564 L28.569263,35.5829784 C28.8474682,35.8611905 29.2116858,36 29.5759034,36 C29.9401209,36 30.3043385,35.8611905 30.5825438,35.5829784 C31.1383612,35.0271473 31.1383612,34.1254789 30.5825438,33.5696478 L24.0135774,26.9999258 Z" id="路径" fill="#FFFFFF"></path>
            </g>
        </g>
    </g>
</svg>