<?xml version="1.0" encoding="UTF-8"?>
<svg width="225px" height="127px" viewBox="0 0 225 127" version="1.1" xmlns="http://www.w3.org/2000/svg" xmlns:xlink="http://www.w3.org/1999/xlink">
    <title>编组 3</title>
    <g id="Bucket-Bucket-List" stroke="none" stroke-width="1" fill="none" fill-rule="evenodd">
        <g id="选择非图片文件" transform="translate(-1170.000000, -349.000000)">
            <g id="编组-3" transform="translate(1170.000000, 349.000000)">
                <rect id="矩形" fill="#F7F9FB" x="0" y="0" width="225" height="127" rx="6"></rect>
                <g id="文件类型-Word" transform="translate(89.000000, 37.000000)" fill-rule="nonzero">
                    <path d="M31.0867018,0 L8.27943761,0 C3.70650264,0 0,3.74475497 0,8.36356226 L0,44.6364377 C0,49.2558368 3.70708846,53 8.27943761,53 L36.7205624,53 C41.2934974,53 45,49.255245 45,44.6364377 L45,14.0540749 C45,12.1704537 44.2595196,10.364355 42.9408319,9.03286029 L36.0574107,2.07949889 C34.7389953,0.747986649 32.9510133,0 31.0867018,0 Z" id="路径" fill="#53B7F4"></path>
                    <path d="M30.4827478,17.3845661 C29.6983035,17.3845661 29.0618675,18.020183 29.0618675,18.8036178 L29.0618675,32.1817279 L23.4760319,26.6657557 C22.9236647,26.1206033 22.0350225,26.1188295 21.4814712,26.6627993 L15.8417606,32.197101 L15.8417606,18.7645939 C15.8417606,17.9811591 15.2053246,17.3455422 14.4208803,17.3455422 C13.636436,17.3455422 13,17.9811591 13,18.7645939 L13,35.5809481 C13,36.1527077 13.3433794,36.6682965 13.8714732,36.889432 C14.3992748,37.1104779 15.008343,36.9937153 15.4166805,36.593205 L22.4743113,29.6682326 L29.4839873,36.5902486 C29.7500707,36.8529475 30.1091888,37 30.4833398,37 C30.6674622,37 30.8533607,36.9639322 31.0303787,36.8906146 C31.5593425,36.6699582 31.9036281,36.153462 31.9036281,35.5809481 L31.9036281,18.8036178 C31.9036281,18.020183 31.2677841,17.3845661 30.4827478,17.3845661 Z M43.1096372,8.89272412 L36.1532442,1.9452834 C35.1551781,0.948573235 33.8824669,0.271353599 32.4974376,0 L32.4974376,7.79768921 C32.4974376,10.2733432 34.5067991,12.2801188 36.9856432,12.2801188 L45,12.2801188 C44.697139,10.9975518 44.0425563,9.82458655 43.1096372,8.89272412 L43.1096372,8.89272412 Z" id="形状" fill="#29A3D3"></path>
                    <path d="M30.572471,37 C30.203539,37 29.8405575,36.855587 29.5680238,36.5830322 L22.522612,29.5393257 L15.4290009,36.5860405 C15.0186745,36.9937708 14.4063876,37.1126082 13.8759161,36.8874753 C13.34527,36.6626536 13,36.1377309 13,35.5559879 L13,18.4439989 C13,17.6467912 13.6396806,17 14.428124,17 C15.2165675,17 15.856248,17.6467912 15.856248,18.4439989 L15.856248,32.1132538 L21.5247103,26.481658 C22.0816787,25.9287267 22.9748512,25.9299301 23.5294394,26.4846663 L29.143752,32.0976105 L29.143752,18.4837089 C29.143752,17.6865012 29.7834325,17.03971 30.571876,17.03971 C31.3603194,17.03971 32,17.6865012 32,18.4837089 L32,35.5559879 C32,36.1384008 31.6536799,36.6642571 31.1222988,36.8886786 C30.9480469,36.9619845 30.7612034,37 30.572471,37 L30.572471,37 Z" id="路径" fill="#FFFFFF"></path>
                </g>
            </g>
        </g>
    </g>
</svg>