<?xml version="1.0" encoding="UTF-8"?>
<svg width="55px" height="53px" viewBox="0 0 55 53" version="1.1" xmlns="http://www.w3.org/2000/svg" xmlns:xlink="http://www.w3.org/1999/xlink">
    <title>图片</title>
    <g id="Bucket-Bucket-List" stroke="none" stroke-width="1" fill="none" fill-rule="evenodd">
        <g id="配图" transform="translate(-665.000000, -125.000000)" fill-rule="nonzero">
            <g id="图片" transform="translate(665.000000, 125.000000)">
                <path d="M48.1112591,53 L6.85209858,53 C3.07794804,53 0,50.032 0,46.3926666 L0,6.60733331 C0,2.968 3.07794804,0 6.85209858,0 L48.1479014,0 C51.922052,0 55,2.968 55,6.60733331 L55,46.428 C54.9633578,50.032 51.8854097,53 48.1112591,53 Z" id="路径" fill="#69DAA4"></path>
                <path d="M38.6538462,39 L16.3461538,39 C14.4995726,39 13,37.5386473 13,35.7391304 L13,17.2608696 C13,15.4613527 14.4995726,14 16.3461538,14 L38.6538462,14 C40.5004274,14 42,15.4613527 42,17.2608696 L42,35.7391304 C42,37.5386473 40.5004274,39 38.6538462,39 Z" id="路径" fill="#CAF6E1"></path>
                <path d="M33.6111625,29.4403253 L29.2192597,35.262909 C28.6779607,35.9831663 29.2008063,37 30.1111727,37 L38.8888273,37 C39.7991937,37 40.3220393,35.9831663 39.7807403,35.262909 L35.3888375,29.4403253 C34.9459565,28.8532249 34.0540435,28.8532249 33.6111625,29.4403253 Z" id="路径" fill="#F6FDFA"></path>
                <path d="M22.6248931,25.4384303 L15.2122234,35.3112314 C14.6853424,36.0139008 15.2001111,37 16.0903583,37 L30.9096417,37 C31.7998889,37 32.3146576,36.0139008 31.7877766,35.3112314 L24.381163,25.4384303 C23.9451236,24.8538566 23.0609325,24.8538566 22.6248931,25.4384303 Z" id="路径" fill="#F6FDFA"></path>
                <path d="M31,21.5 C31,22.8807119 32.1192881,24 33.5,24 C34.8807119,24 36,22.8807119 36,21.5 C36,20.1192881 34.8807119,19 33.5,19 C32.1192881,19 31,20.1192881 31,21.5 L31,21.5 Z" id="路径" fill="#F6FDFA"></path>
                <path d="M38.6538462,39 L16.3461538,39 C14.4995726,39 13,37.5386473 13,35.7391304 L13,17.2608696 C13,15.4613527 14.4995726,14 16.3461538,14 L38.6538462,14 C40.5004274,14 42,15.4613527 42,17.2608696 L42,35.7391304 C42,37.5386473 40.5004274,39 38.6538462,39 Z M16.3461538,16.173913 C15.7326923,16.173913 15.2307692,16.6630435 15.2307692,17.2608696 L15.2307692,35.7391304 C15.2307692,36.3369565 15.7326923,36.826087 16.3461538,36.826087 L38.6538462,36.826087 C39.2673077,36.826087 39.7692308,36.3369565 39.7692308,35.7391304 L39.7692308,17.2608696 C39.7692308,16.6630435 39.2673077,16.173913 38.6538462,16.173913 L16.3461538,16.173913 Z" id="形状" fill="#F6FDFA"></path>
            </g>
        </g>
    </g>
</svg>