<?xml version="1.0" encoding="UTF-8"?>
<svg width="55px" height="53px" viewBox="0 0 55 53" version="1.1" xmlns="http://www.w3.org/2000/svg" xmlns:xlink="http://www.w3.org/1999/xlink">
    <title>音频2</title>
    <g id="Bucket-Bucket-List" stroke="none" stroke-width="1" fill="none" fill-rule="evenodd">
        <g id="配图" transform="translate(-583.000000, -55.000000)">
            <g id="音频2" transform="translate(583.000000, 55.000000)">
                <rect id="矩形" fill="#8450EA" x="0" y="0" width="55" height="53" rx="6"></rect>
                <path d="M38.7290854,32.4026617 C38.7290854,32.3025356 38.6305331,32.3025356 38.6305331,32.3025356 L38.6305331,14.3799608 C38.6305331,14.1797086 38.5319808,13.8793302 38.4334284,13.7792041 L38.4334284,13.4788258 C38.1377715,12.3774385 37.0536959,11.7766818 35.9696204,12.0770601 L19.314278,16.7829876 C18.6244117,16.9832398 18.1316501,17.5839965 17.9345455,18.1847532 C17.7374408,18.3850055 17.6388885,18.5852577 17.6388885,18.885636 L17.6388885,35.1060669 C16.7519176,34.9058146 15.5692897,34.9058146 14.5837665,35.4064452 C12.5141678,36.4077064 11.5286446,38.5103548 12.2185108,40.2124987 C13.0069294,41.9146427 15.2736328,42.5153994 17.3432315,41.5141383 C19.4128303,40.5128771 20.3983535,38.4102287 19.7084872,36.7080847 C19.7084872,36.6079586 19.6099349,36.6079586 19.6099349,36.5078325 L19.6099349,27.5966081 L36.758039,23.0909329 L36.758039,30.7005178 C35.8710681,30.4001394 34.6884402,30.5002655 33.7029169,31.0008961 C31.6333182,32.0021572 30.647795,34.1048057 31.3376612,35.8069497 C32.1260798,37.5090936 34.3927832,38.1098504 36.462382,37.1085892 C38.5319807,36.2074541 39.5175039,34.1048057 38.7290854,32.4026617 Z M20,26 L20,20.7916667 L20.1954023,20.7916667 C20.3908046,20.7916667 20.5862069,20.7916667 20.683908,20.6875 L37,16 L37,21.1041667 L20,26 Z" id="形状" fill="#FFFFFF" fill-rule="nonzero"></path>
            </g>
        </g>
    </g>
</svg>