<?xml version="1.0" encoding="UTF-8"?>
<svg width="45px" height="53px" viewBox="0 0 45 53" version="1.1" xmlns="http://www.w3.org/2000/svg" xmlns:xlink="http://www.w3.org/1999/xlink">
    <title>文件类型-Pdf</title>
    <g id="Bucket-Bucket-List" stroke="none" stroke-width="1" fill="none" fill-rule="evenodd">
        <g id="配图" transform="translate(-405.000000, -55.000000)" fill-rule="nonzero">
            <g id="文件类型-Pdf" transform="translate(405.000000, 55.000000)">
                <path d="M31.0867018,0 L8.27943761,0 C3.70650264,0 0,3.74475497 0,8.36356226 L0,44.6364377 C0,49.2558368 3.70708846,53 8.27943761,53 L36.7205624,53 C41.2934974,53 45,49.255245 45,44.6364377 L45,14.0540749 C45,12.1704537 44.2595196,10.364355 42.9408319,9.03286029 L36.0574107,2.07949889 C34.7389953,0.747986649 32.9510133,0 31.0867018,0 Z" id="路径" fill="#FF7878"></path>
                <path d="M43.1131793,8.84625826 L36.1698212,1.93511899 C35.1736253,0.943616793 33.9032989,0.269935735 32.5208648,0 L32.5208648,7.75694507 C32.5208648,10.2196634 34.5264612,12.2159533 37.0006604,12.2159533 L45,12.2159533 C44.697463,10.9401819 44.0441419,9.77340826 43.1131793,8.84625826 L43.1131793,8.84625826 Z" id="形状" fill="#F25555"></path>
                <path d="M30.5921403,30.597953 C30.018631,30.597953 29.5137064,30.597953 28.9401971,30.7215212 C29.5828822,31.0360585 30.2137424,31.1590354 30.8558363,31.2152028 C31.30341,31.2826037 31.7509837,31.2152028 32.1293815,31.0916346 C32.1181479,30.9124903 31.8656855,30.597953 30.5921403,30.597953 L30.5921403,30.597953 Z M21.8807121,27.1942105 L21.8115363,27.1072989 L21.7429516,27.2521516 C21.1706249,28.7391087 20.5297135,30.2266571 19.8320425,31.6438485 L19.8131226,31.7585482 L19.957978,31.7017896 C21.3539113,31.1903709 22.8876052,30.7374846 24.2835385,30.4123051 L24.4496788,30.3762397 C23.488903,29.4113434 22.5902081,28.2862224 21.8807121,27.1942105 L21.8807121,27.1942105 Z M21.4360946,17.9325072 L21.2250196,17.8621501 C21.1522962,17.8621501 21.0251782,17.9325072 20.964871,18.0010905 C20.6988101,19.0783215 20.8921477,20.2241358 21.3639625,21.2440169 C21.7624628,20.1673772 21.7624628,19.0215629 21.4360946,17.9325072 L21.4360946,17.9325072 Z M12.9321941,37.1299223 L13.1249405,37.0607477 C14.0100367,36.7373419 14.7023865,36.1023551 15.2013987,35.2592533 C14.2483091,35.6518336 13.4997908,36.2986452 12.9321941,37.1299223 Z M30.8162227,33.1686447 C29.0891913,33.0421204 27.4313357,32.3964912 26.0838845,31.2435821 C23.4587494,31.8200367 20.9713748,32.64954 18.4727664,33.6753335 C16.4920901,37.202053 14.6385319,39 13.0380272,39 C12.7157978,39 12.3356262,38.9308255 12.0825726,38.74636 C11.3801716,38.4235454 11,37.7205665 11,37.0175875 C11,36.441133 11.1265268,34.8394761 17.2063161,32.2114345 C18.6111181,29.6525675 19.7049244,27.0245259 20.5912032,24.26996 C19.8196263,22.7368864 18.1499457,18.956527 19.3016942,17.0314643 C19.6818658,16.3284854 20.4528514,15.948321 21.2823705,16.0056708 C21.9274206,16.0056708 22.5606458,16.3284854 22.9402261,16.8357654 C23.7691539,17.9880833 23.711803,20.4204259 22.6179967,24.0050865 C23.6426271,25.9301491 24.9900782,27.6589216 26.578758,29.1228205 C27.9262091,28.8691805 29.2618353,28.6734816 30.6086952,28.6734816 C33.6140019,28.7426562 34.0627581,30.1486141 33.9935822,30.9787086 C34.0172321,33.1686447 31.910029,33.1686447 30.8162227,33.1686447 L30.8162227,33.1686447 Z" id="形状" fill="#FFFFFF"></path>
            </g>
        </g>
    </g>
</svg>