<?xml version="1.0" encoding="UTF-8"?>
<svg width="45px" height="53px" viewBox="0 0 45 53" version="1.1" xmlns="http://www.w3.org/2000/svg" xmlns:xlink="http://www.w3.org/1999/xlink">
    <title>文件类型-未知文件</title>
    <g id="Bucket-Bucket-List" stroke="none" stroke-width="1" fill="none" fill-rule="evenodd">
        <g id="配图" transform="translate(-764.000000, -55.000000)" fill-rule="nonzero">
            <g id="文件类型-未知文件" transform="translate(764.000000, 55.000000)">
                <path d="M31.0867018,0 L8.27943761,0 C3.70650264,0 0,3.74475497 0,8.36356226 L0,44.6364377 C0,49.2558368 3.70708846,53 8.27943761,53 L36.7205624,53 C41.2934974,53 45,49.255245 45,44.6364377 L45,14.0546667 C45,12.1710454 44.2595196,10.3649468 42.9408319,9.03345206 L36.0574107,2.08009066 C34.7390584,0.748411004 32.9510859,0 31.0867018,0 L31.0867018,0 Z" id="路径" fill="#C7DADD"></path>
                <path d="M43.1336991,8.94872841 L36.2658521,1.95753434 C35.2804902,0.954547127 34.023979,0.273062521 32.6565794,0 L32.6565794,7.84679723 C32.6565794,10.3380423 34.6403643,12.3574561 37.0876558,12.3574561 L45,12.3574561 C44.700994,11.0668118 44.0547433,9.8864595 43.1336991,8.94872841 L43.1336991,8.94872841 Z" id="形状" fill="#9DC0C9"></path>
                <path d="M28.5087979,15.5544654 C26.9024177,13.9072918 24.7685695,13 22.5,13 C17.8132975,13 14,16.9101349 14,21.7158546 C14,22.4492976 14.5794157,23.0434274 15.2946944,23.0434274 C16.0099731,23.0434274 16.5893889,22.4492976 16.5893889,21.7158546 C16.5893889,18.3740941 19.2410007,15.6551455 22.5,15.6551455 C24.0772666,15.6551455 25.5609134,16.2861523 26.6780725,17.4316813 C27.7952317,18.5772104 28.4106111,20.0991192 28.4106111,21.7158546 C28.4106111,22.9515275 28.050403,24.139787 27.3693754,25.1524417 C26.7026192,26.1428532 25.7772666,26.9020515 24.6920752,27.3463318 C22.57364,28.2144052 21.2053056,30.267226 21.2053056,32.5752592 L21.2053056,32.6724272 C21.2053056,33.4058702 21.7847213,34 22.5,34 C23.2152787,34 23.7946944,33.4058702 23.7946944,32.6724272 L23.7946944,32.5752592 C23.7946944,31.3589029 24.5242445,30.2742502 25.6533915,29.8118241 C27.2135326,29.1726224 28.5436199,28.0827015 29.5009402,26.6603022 C30.4816655,25.2027818 31,23.4929758 31,21.7158546 C31,19.3896755 30.115178,17.201639 28.5087979,15.5544654 L28.5087979,15.5544654 Z" id="路径" fill="#FFFFFF"></path>
                <path d="M20,38 C20,38.7145311 20.3811978,39.3747852 21,39.7320508 C21.6188021,40.0893164 22.3811979,40.0893164 23,39.7320508 C23.6188022,39.3747852 24,38.7145311 24,38 C24,36.8954305 23.1045695,36 22,36 C20.8954305,36 20,36.8954305 20,38 L20,38 Z" id="路径" fill="#FFFFFF"></path>
            </g>
        </g>
    </g>
</svg>