<?xml version="1.0" encoding="UTF-8"?>
<svg width="55px" height="53px" viewBox="0 0 55 53" version="1.1" xmlns="http://www.w3.org/2000/svg" xmlns:xlink="http://www.w3.org/1999/xlink">
    <title>mi-video</title>
    <g id="Bucket-Bucket-List" stroke="none" stroke-width="1" fill="none" fill-rule="evenodd">
        <g id="image" transform="translate(-665.000000, -55.000000)" fill-rule="nonzero">
            <g id="mi-video" transform="translate(665.000000, 55.000000)">
                <path d="M48.1112591,53 L6.85209858,53 C3.07794804,53 0,50.032 0,46.3926666 L0,6.60733331 C0,2.968 3.07794804,0 6.85209858,0 L48.1479014,0 C51.922052,0 55,2.968 55,6.60733331 L55,46.428 C54.9633578,50.032 51.8854097,53 48.1112591,53 Z" id="path" fill="#4AEAD5"></path>
                <path d="M20,26.4723222 L20,16.8137276 C20,16.2033331 20.7061124,15.808372 21.2635697,16.0956164 L29.9227384,20.9428666 L38.5819071,25.7901167 C39.1393643,26.1132667 39.1393643,26.9031889 38.5819071,27.1904334 L29.9227384,32.0376835 L21.2635697,36.8849336 C20.7061125,37.2080836 20,36.8131224 20,36.1668224 L20,26.4723222 L20,26.4723222 Z" id="path" fill="#FCFCFC"></path>
            </g>
        </g>
    </g>
</svg>