<?xml version="1.0" encoding="UTF-8"?>
<svg width="45px" height="53px" viewBox="0 0 45 53" version="1.1" xmlns="http://www.w3.org/2000/svg" xmlns:xlink="http://www.w3.org/1999/xlink">
    <title>编组</title>
    <g id="Bucket-Bucket-List" stroke="none" stroke-width="1" fill="none" fill-rule="evenodd">
        <g id="配图" transform="translate(-233.000000, -55.000000)" fill-rule="nonzero">
            <g id="编组" transform="translate(233.000000, 55.000000)">
                <path d="M31.0867018,0 L8.27943761,0 C3.70650264,0 0,3.74475497 0,8.36356226 L0,44.6364377 C0,49.2558368 3.70708846,53 8.27943761,53 L36.7205624,53 C41.2934974,53 45,49.255245 45,44.6364377 L45,14.0540749 C45,12.1704537 44.2595196,10.364355 42.9408319,9.03286029 L36.0574107,2.07949889 C34.7389953,0.747986649 32.9510133,0 31.0867018,0 Z" id="路径" fill="#53B7F4"></path>
                <path d="M29.5680238,36.5830322 L22.522612,29.5393257 L15.4290009,36.5860405 C15.0186745,36.9937708 14.4063876,37.1126082 13.8759161,36.8874753 C13.34527,36.6626536 13,36.1377309 13,35.5559879 L13,18.4439989 C13,17.6467912 13.6396806,17 14.428124,17 C15.2165675,17 15.856248,17.6467912 15.856248,18.4439989 L15.856248,32.1132538 L21.5247103,26.481658 C22.0816787,25.9287267 22.9748512,25.9299301 23.5294394,26.4846663 L29.143752,32.0976105 L29.143752,18.4837089 C29.143752,17.6865012 29.7834325,17.03971 30.571876,17.03971 C31.3603194,17.03971 32,17.6865012 32,18.4837089 L32,35.5559879 C32,36.1384008 31.6536799,36.6642571 31.1222988,36.8886786 C30.9480469,36.9619845 30.7612034,37 30.572471,37 C30.203539,37 29.8405575,36.855587 29.5680238,36.5830322 Z" id="路径" fill="#FFFFFF"></path>
            </g>
        </g>
    </g>
</svg>