<?xml version="1.0" encoding="UTF-8"?>
<svg width="55px" height="53px" viewBox="0 0 55 53" version="1.1" xmlns="http://www.w3.org/2000/svg" xmlns:xlink="http://www.w3.org/1999/xlink">
    <title>压缩包</title>
    <g id="Bucket-Bucket-List" stroke="none" stroke-width="1" fill="none" fill-rule="evenodd">
        <g id="配图" transform="translate(-491.000000, -55.000000)" fill-rule="nonzero">
            <g id="压缩包" transform="translate(491.000000, 55.000000)">
                <polygon id="路径" fill="#F95F5D" points="0 18 55 18 55 36 0 36"></polygon>
                <path d="M55,18 L55,3.41918429 C55,1.61102719 53.4200362,0 51.5413398,0 L3.45866023,0 C1.57996379,0 0,1.61102719 0,3.41918429 L0,18 L55,18 Z" id="路径" fill="#55C7F7"></path>
                <path d="M0,35 L0,49.5808157 C0,51.3889728 1.56687591,53 3.43252052,53 L51.5674795,53 C53.4331241,53 55,51.3889728 55,49.5808157 L55,35 L0,35 Z" id="路径" fill="#7ECF3B"></path>
                <polygon id="路径" fill="#FDAF42" points="22 0 34 0 34 53 22 53"></polygon>
                <path d="M34.0837209,22.9452122 L34.0837209,30.1574531 L20.9162791,30.1574531 L20.9162791,22.9452122 L34.0837209,22.9452122 M36.1978533,20 L18.8021467,20 C18.5030411,20 18,20.2823297 18,20.757157 L18,32.242843 C18,32.5251728 18.2991055,33 18.8021467,33 L36.1978533,33 C36.4969589,33 37,32.7176703 37,32.242843 L37,20.757157 C36.8028623,20.1924975 36.4969589,20 36.1978533,20 L36.1978533,20 Z" id="形状" fill="#FFFFFF"></path>
            </g>
        </g>
    </g>
</svg>