<svg width="16" height="17" viewBox="0 0 16 17" fill="none" xmlns="http://www.w3.org/2000/svg">
<path d="M7.33333 3.16667H5.2C4.0799 3.16667 3.51984 3.16667 3.09202 3.38465C2.71569 3.5764 2.40973 3.88236 2.21799 4.25869C2 4.68651 2 5.24656 2 6.36667V11.3C2 12.4201 2 12.9802 2.21799 13.408C2.40973 13.7843 2.71569 14.0903 3.09202 14.282C3.51984 14.5 4.07989 14.5 5.2 14.5H10.1333C11.2534 14.5 11.8135 14.5 12.2413 14.282C12.6176 14.0903 12.9236 13.7843 13.1153 13.408C13.3333 12.9802 13.3333 12.4201 13.3333 11.3V9.16667M8.66667 11.8333H4.66667M10 9.16667H4.66667M13.4142 3.08579C14.1953 3.86683 14.1953 5.13317 13.4142 5.91421C12.6332 6.69526 11.3668 6.69526 10.5858 5.91421C9.80474 5.13317 9.80474 3.86683 10.5858 3.08579C11.3668 2.30474 12.6332 2.30474 13.4142 3.08579Z" stroke="white" stroke-width="1.5" stroke-linecap="round" stroke-linejoin="round"/>
</svg>
