<svg width="64" height="64" viewBox="0 0 64 64" fill="none" xmlns="http://www.w3.org/2000/svg">
<rect y="9.15527e-05" width="64" height="64" rx="8" fill="#735EA1" fill-opacity="0.08"/>
<path d="M32 12C43.0467 12 52 20.9551 52 32C52 43.0467 43.0467 52 32 52C20.9551 52 12 43.0458 12 32C12 20.9551 20.9551 12 32 12Z" fill="#F5AC37"/>
<path d="M33.7373 33.4123H41.337C41.499 33.4123 41.5755 33.4123 41.5872 33.1999C41.6493 32.4268 41.6493 31.6492 41.5872 30.8752C41.5872 30.7249 41.5125 30.6628 41.3496 30.6628H26.2249C26.0377 30.6628 25.9873 30.7249 25.9873 30.9004V33.1252C25.9873 33.4123 25.9873 33.4123 26.287 33.4123H33.7373V33.4123ZM40.7385 28.0626C40.7601 28.0059 40.7601 27.9438 40.7385 27.888C40.6116 27.6117 40.4613 27.348 40.2867 27.1005C40.0239 26.6775 39.7143 26.2878 39.3615 25.9377C39.195 25.7262 39.0024 25.5363 38.7864 25.3752C37.7046 24.4545 36.4184 23.8029 35.036 23.4753C34.3385 23.3187 33.6257 23.244 32.9111 23.2503H26.1988C26.0116 23.2503 25.9864 23.325 25.9864 23.4879V27.9249C25.9864 28.1121 25.9864 28.1625 26.224 28.1625H40.6485C40.6485 28.1625 40.7736 28.1373 40.7988 28.0626H40.7376H40.7385ZM40.7385 36.0124C40.5261 35.989 40.3119 35.989 40.0995 36.0124H26.2375C26.0503 36.0124 25.9873 36.0124 25.9873 36.2626V40.6006C25.9873 40.8005 25.9873 40.8509 26.2375 40.8509H32.6375C32.9435 40.8743 33.2495 40.8527 33.5492 40.7888C34.478 40.7222 35.3915 40.5205 36.2627 40.1884C36.5795 40.0786 36.8856 39.9355 37.1745 39.7636H37.2618C38.7621 38.9833 39.9807 37.7575 40.7493 36.2527C40.7493 36.2527 40.8366 36.0637 40.7385 36.0142V36.0124ZM23.4754 43.1V43.0253V40.1128V39.1255V36.1879C23.4754 36.025 23.4754 36.0007 23.2756 36.0007H20.563C20.4127 36.0007 20.3506 36.0007 20.3506 35.8009V33.4258H23.2504C23.4124 33.4258 23.4754 33.4258 23.4754 33.2134V30.8635C23.4754 30.7132 23.4754 30.6763 23.2756 30.6763H20.563C20.4127 30.6763 20.3506 30.6763 20.3506 30.4764V28.2768C20.3506 28.1391 20.3506 28.1022 20.5504 28.1022H23.2378C23.425 28.1022 23.4754 28.1022 23.4754 27.8646V21.1272C23.4754 20.9274 23.4754 20.877 23.7256 20.877H33.1001C33.7805 20.904 34.4564 20.9787 35.1251 21.102C36.503 21.3567 37.827 21.849 39.0375 22.5519C39.8403 23.0244 40.5792 23.595 41.2371 24.252C41.7321 24.7659 42.1785 25.3221 42.5745 25.9143C42.9678 26.5146 43.2945 27.1563 43.551 27.8268C43.5825 28.0014 43.7499 28.1193 43.9245 28.0896H46.1619C46.449 28.0896 46.449 28.0896 46.4616 28.365V30.4152C46.4616 30.6151 46.3869 30.6655 46.1862 30.6655H44.4609C44.2863 30.6655 44.2359 30.6655 44.2485 30.8905C44.3169 31.6519 44.3169 32.416 44.2485 33.1774C44.2485 33.3898 44.2485 33.415 44.487 33.415H46.4607C46.548 33.5275 46.4607 33.64 46.4607 33.7534C46.4733 33.8983 46.4733 34.045 46.4607 34.1899V35.7028C46.4607 35.9152 46.3986 35.9782 46.2105 35.9782H43.848C43.6833 35.9467 43.5231 36.052 43.4853 36.2158C42.9228 37.6783 42.0228 38.9896 40.86 40.0408C40.4352 40.4233 39.9888 40.7834 39.5226 41.1155C39.0222 41.4035 38.5353 41.7032 38.0223 41.9408C37.0782 42.3656 36.0881 42.6788 35.072 42.8777C34.1072 43.0505 33.1289 43.1288 32.147 43.1153H23.4718V43.1027L23.4754 43.1Z" fill="#FEFEFD"/>
</svg>
