<svg width="32" height="32" viewBox="0 0 32 32" fill="none" xmlns="http://www.w3.org/2000/svg">
<rect width="32" height="32" rx="4" fill="#F8FAFC"/>
<path fill-rule="evenodd" clip-rule="evenodd" d="M15.9929 22.6399C14.6808 22.6394 13.3984 22.2498 12.3078 21.5204C12.0917 21.3759 11.8851 21.2194 11.6887 21.0518C11.4371 20.8991 11.1972 20.7333 10.9707 20.5558C10.7131 20.4108 10.4682 20.255 10.2371 20.0892C9.96256 19.9468 9.70247 19.7944 9.4584 19.633C9.18131 19.5001 8.9194 19.359 8.6742 19.2103C8.36925 19.0767 8.08317 18.9349 7.81788 18.7856C7.47462 18.647 7.15657 18.4996 6.86647 18.3446C6.56431 18.2309 6.28544 18.1124 6.03078 17.9897C5.66596 17.8673 5.33671 17.7392 5.04456 17.6065C4.74578 17.514 4.47138 17.4178 4.22354 17.3183C2.77207 16.936 1.91992 16.4832 1.91992 16.0039C1.91992 15.5363 2.72881 15.0939 4.1124 14.7177C4.40698 14.5946 4.74218 14.4765 5.11392 14.3641C5.38512 14.2441 5.68705 14.128 6.0186 14.0165C6.27971 13.8907 6.56671 13.7691 6.87878 13.6524C7.16732 13.499 7.4833 13.3532 7.82408 13.2161C8.08803 13.0679 8.3725 12.9272 8.6756 12.7946C8.92379 12.6442 9.18904 12.5015 9.46981 12.3674C9.71077 12.2087 9.96724 12.0588 10.2378 11.9185C10.4729 11.7499 10.7225 11.5916 10.9851 11.4445C11.2066 11.2719 11.4407 11.1105 11.686 10.9615C12.5475 10.2255 13.5855 9.72038 14.7025 9.4984C15.9893 9.24264 17.3232 9.37419 18.5353 9.87641C19.1909 10.1481 19.795 10.5216 20.3269 10.9799C20.5588 11.1222 20.7806 11.2756 20.9911 11.4392C21.2569 11.5876 21.5096 11.7475 21.7474 11.9179C22.0248 12.0616 22.2874 12.2154 22.5336 12.3784C22.8111 12.5115 23.0735 12.653 23.319 12.8021C23.6278 12.9374 23.9173 13.0811 24.1854 13.2325C24.5226 13.3693 24.8354 13.5145 25.121 13.6672C25.4185 13.7796 25.6933 13.8966 25.9444 14.0176C26.2779 14.1291 26.5817 14.2454 26.8548 14.3656C27.2059 14.4715 27.5249 14.5825 27.8082 14.6979C29.2402 15.0783 30.0799 15.528 30.0799 16.0039C30.0799 16.4778 29.2483 16.9257 27.8298 17.3052C27.5616 17.415 27.2609 17.5207 26.9307 17.6219C26.6257 17.7595 26.2805 17.8921 25.8965 18.0186C25.6623 18.1293 25.4078 18.2365 25.1337 18.34C24.8424 18.4964 24.5227 18.645 24.1773 18.7847C23.9126 18.9336 23.6272 19.0752 23.323 19.2085C23.0735 19.36 22.8067 19.5037 22.5242 19.6387C22.2835 19.7975 22.0272 19.9475 21.7569 20.0878C21.5181 20.2594 21.2643 20.4204 20.9971 20.5697C20.7776 20.7404 20.5458 20.9001 20.303 21.0477C19.1059 22.0707 17.5788 22.6389 15.9929 22.6399ZM26.0546 17.4684C25.995 17.479 25.9346 17.4896 25.8734 17.5002C25.8368 17.5064 25.8 17.5127 25.7631 17.5189C26.1472 17.0453 26.3564 16.5358 26.3564 16.0053C26.3564 15.47 26.1428 14.956 25.751 14.4786C25.7881 14.4849 25.8251 14.4912 25.8619 14.4975C25.9211 14.5077 25.9795 14.518 26.0371 14.5282C26.5785 14.9866 26.8794 15.4863 26.8794 16.0056C26.8794 16.5196 26.585 17.0141 26.0546 17.4684ZM26.6418 17.3573C26.5767 17.3704 26.5104 17.3834 26.443 17.3964C26.8646 16.9618 27.0944 16.4936 27.0944 16.0056C27.0944 15.5124 26.8585 15.0391 26.4266 14.6004C26.4887 14.6123 26.5498 14.6243 26.6099 14.6363C27.2584 15.0621 27.6233 15.5272 27.6233 16.007C27.6233 16.4795 27.2704 16.9374 26.6418 17.3573ZM27.2132 17.2351C27.1866 17.2412 27.1597 17.2472 27.1327 17.2533C27.5928 16.8584 27.8326 16.4383 27.8326 16.007C27.8326 15.5695 27.5833 15.1424 27.108 14.7414C27.1277 14.7458 27.1473 14.7502 27.1668 14.7546C27.945 15.1577 28.3687 15.5896 28.3687 16.0071C28.3687 16.4166 27.9618 16.8394 27.2132 17.2351ZM28.8453 16.7588C29.5675 16.4777 29.8649 16.2101 29.8649 16.001C29.8649 15.789 29.5583 15.516 28.8118 15.2296C29.1489 15.4778 29.3302 15.7388 29.3302 16.0071C29.3302 16.2664 29.1609 16.5186 28.8453 16.7588ZM25.3997 14.4212C25.8725 14.915 26.1343 15.4507 26.1343 16.0067C26.1343 16.5567 25.8784 17.0865 25.4157 17.5754C25.304 17.593 25.1912 17.6102 25.0771 17.6271C25.4193 17.1188 25.6053 16.5731 25.6053 16.0054C25.6053 15.4327 25.4154 14.8823 25.0666 14.3701C25.1788 14.3868 25.2898 14.4038 25.3997 14.4212ZM25.1339 14.1674C25.131 14.1648 25.1281 14.1622 25.1252 14.1597C25.0418 14.1426 24.9576 14.1258 24.8727 14.1093C24.8787 14.1167 24.8847 14.1242 24.8906 14.1317C24.9725 14.1434 25.0536 14.1553 25.1339 14.1674ZM24.5682 14.0867C24.5556 14.0727 24.5429 14.0587 24.5301 14.0447C24.4262 14.0257 24.3212 14.0072 24.2153 13.9889C24.2278 14.0076 24.2401 14.0264 24.2523 14.0451C24.3587 14.0588 24.464 14.0726 24.5682 14.0867ZM23.9738 14.0104C23.9572 13.9869 23.9403 13.9634 23.9232 13.9401C23.801 13.9202 23.6776 13.9008 23.5529 13.8819C23.5684 13.9099 23.5837 13.938 23.5986 13.9662C23.725 13.9806 23.8501 13.9953 23.9738 14.0104ZM23.7099 14.1908C23.8498 14.2071 23.9883 14.2239 24.1255 14.2411C24.4617 14.7914 24.6452 15.3851 24.6452 16.0039C24.6452 16.6188 24.464 17.2089 24.1317 17.7562C23.9949 17.7734 23.8566 17.7901 23.717 17.8063C23.9771 17.2393 24.1177 16.6339 24.1177 16.0054C24.1177 15.3719 23.9745 14.7619 23.7099 14.1908ZM23.338 13.9372C23.3198 13.9053 23.3013 13.8735 23.2824 13.8419C23.1513 13.823 23.019 13.8047 22.8855 13.7869C22.9018 13.8227 22.9178 13.8587 22.9334 13.8949C23.0696 13.9087 23.2045 13.9228 23.338 13.9372ZM23.0228 14.1155C23.169 14.1306 23.314 14.1461 23.4577 14.1621C23.745 14.7395 23.9013 15.3599 23.9013 16.0054C23.9013 16.646 23.7475 17.2617 23.4645 17.8351C23.3207 17.851 23.1757 17.8666 23.0293 17.8816C23.2521 17.2899 23.3724 16.66 23.3724 16.0069C23.3724 15.3477 23.2498 14.7122 23.0228 14.1155ZM22.6913 13.8711C22.6734 13.832 22.6551 13.7931 22.6363 13.7544C22.4981 13.7368 22.3586 13.7198 22.2179 13.7034C22.2336 13.7459 22.249 13.7887 22.2638 13.8315C22.4077 13.8443 22.5502 13.8575 22.6913 13.8711ZM22.3352 14.0493C22.4867 14.063 22.6371 14.0771 22.7861 14.0918C23.0287 14.693 23.1603 15.3366 23.1603 16.0055C23.1603 16.6693 23.0307 17.3082 22.7917 17.9055C22.6415 17.9202 22.4901 17.9344 22.3375 17.9482C22.5291 17.3243 22.6294 16.6701 22.6301 16.0055C22.6301 15.3388 22.5297 14.6796 22.3352 14.0493ZM22.0983 14.0285C20.2028 13.8658 18.1283 13.7809 16.0014 13.7809H15.9655C13.8436 13.7809 11.7749 13.8671 9.88499 14.03C9.54874 15.0695 9.48254 16.1807 9.69679 17.2579C9.74465 17.4985 9.80609 17.7353 9.88055 17.9673C11.7822 18.1312 13.8654 18.2168 16.0014 18.2168H16.0372C18.1534 18.2168 20.218 18.1309 22.1047 17.9687C22.3074 17.3376 22.4123 16.6755 22.4123 16.0055C22.4115 15.3279 22.3037 14.6613 22.0983 14.0285ZM22.0233 13.8107C20.1862 13.6552 18.1402 13.5674 16.0014 13.5674H15.9655C13.8326 13.5674 11.7924 13.6551 9.96041 13.8104C9.97715 13.7644 9.99443 13.7186 10.0122 13.6729C11.8503 13.4692 13.8792 13.3613 15.9668 13.3613H15.9955C18.0908 13.3613 20.1278 13.4703 21.9722 13.6754C21.9897 13.7203 22.0067 13.7654 22.0233 13.8107ZM9.72795 13.8306C9.74314 13.7868 9.75878 13.7433 9.77486 13.6998C9.63265 13.7164 9.49164 13.7335 9.35189 13.7512C9.33264 13.7908 9.31387 13.8306 9.2956 13.8706C9.43831 13.8569 9.58245 13.8435 9.72795 13.8306ZM9.05124 13.8947C9.06721 13.8576 9.08358 13.8207 9.10035 13.7839C8.96762 13.8015 8.83608 13.8197 8.70581 13.8385C8.68622 13.8711 8.66706 13.904 8.64834 13.937C8.78125 13.9225 8.91557 13.9084 9.05124 13.8947ZM8.52785 14.1636C8.671 14.1476 8.81549 14.1321 8.96124 14.1171C8.73514 14.7129 8.61304 15.3474 8.61304 16.0055C8.61304 16.6584 8.73323 17.2882 8.95595 17.8799C8.81017 17.8649 8.66567 17.8494 8.5225 17.8334C8.23954 17.26 8.0857 16.6444 8.0857 16.004C8.0857 15.3595 8.24146 14.7401 8.52785 14.1636ZM8.38907 13.9658C8.40456 13.9365 8.42039 13.9073 8.43653 13.8781C8.31273 13.8969 8.19013 13.9161 8.06878 13.9358C8.05065 13.9604 8.03284 13.9851 8.01534 14.0099C8.13855 13.9949 8.26314 13.9802 8.38907 13.9658ZM7.86256 14.2423C7.99935 14.2251 8.13753 14.2084 8.27705 14.1921C8.01341 14.7623 7.87071 15.3715 7.87071 16.004C7.87071 16.6324 8.01159 17.2377 8.27198 17.8047C8.13187 17.7883 7.99311 17.7714 7.85576 17.7541C7.52417 17.2074 7.34334 16.618 7.34334 16.0039C7.34334 15.3855 7.52664 14.7922 7.86256 14.2423ZM7.73652 14.0448C7.74957 14.0246 7.76281 14.0046 7.77624 13.9845C7.67013 14.0027 7.56503 14.0213 7.46099 14.0402C7.44679 14.0557 7.43275 14.0711 7.41889 14.0867C7.52364 14.0724 7.62953 14.0585 7.73652 14.0448ZM7.21919 14.3278C7.34367 14.3103 7.46946 14.2932 7.59653 14.2765C7.29211 14.8188 7.12692 15.3999 7.12692 16.0039C7.12692 16.6036 7.2898 17.1807 7.59014 17.7198C7.46301 17.703 7.33715 17.6857 7.21263 17.6681C6.8118 17.1398 6.60216 16.5772 6.60216 16.0025C6.60216 15.4242 6.81381 14.8585 7.21919 14.3278ZM7.09627 14.1317C7.10341 14.1227 7.1106 14.1137 7.11784 14.1048C7.03107 14.1216 6.9451 14.1388 6.85995 14.1562C6.85521 14.1603 6.85049 14.1645 6.84578 14.1686C6.92847 14.1561 7.01197 14.1439 7.09627 14.1317ZM6.58029 14.423C6.69246 14.4053 6.80587 14.388 6.92049 14.371C6.57412 14.882 6.38574 15.4311 6.38574 16.0025C6.38574 16.5703 6.57173 17.1161 6.91397 17.6246C6.79816 17.6073 6.68358 17.5896 6.57026 17.5716C6.1073 17.0824 5.85129 16.5523 5.85129 16.0024C5.85129 15.4485 6.11097 14.9149 6.58029 14.423ZM5.93588 14.531C5.9985 14.5198 6.06201 14.5087 6.12644 14.4975C6.16298 14.4913 6.19966 14.4851 6.23649 14.4789C5.84798 14.9552 5.63631 15.4681 5.63631 16.0024C5.63631 16.5327 5.84486 17.0419 6.22793 17.5153C6.1983 17.5103 6.16877 17.5052 6.13934 17.5002C6.0663 17.4876 5.99443 17.4749 5.92371 17.4622C5.39405 17.0082 5.10012 16.5142 5.10012 16.0013C5.10012 15.4845 5.39857 14.9873 5.93588 14.531ZM5.36909 14.6382C5.42833 14.6263 5.4885 14.6145 5.54963 14.6027C5.12337 15.0393 4.89087 15.5103 4.89087 16.0013C4.89087 16.4887 5.12014 16.9566 5.54075 17.3908C5.47773 17.3786 5.41572 17.3664 5.35471 17.3541C4.72367 16.9333 4.36924 16.4745 4.36924 16.0013C4.36924 15.5238 4.72904 15.0615 5.36909 14.6382ZM4.79554 14.7606C4.81288 14.7566 4.83032 14.7527 4.84785 14.7488C4.38336 15.1456 4.14136 15.5679 4.14136 16.0013C4.14136 16.4307 4.38246 16.8502 4.84185 17.2449C4.81734 17.2393 4.79302 17.2338 4.76889 17.2283C4.02249 16.8326 3.61688 16.4103 3.61688 16.0014C3.61688 15.5873 4.03214 15.1599 4.79554 14.7606ZM3.15354 15.2396C2.43289 15.5204 2.13634 15.7878 2.13634 15.9967C2.13634 16.2067 2.43664 16.4764 3.16737 16.7598C2.84057 16.5152 2.66504 16.2582 2.66504 15.9942C2.66504 15.7338 2.83564 15.4806 3.15354 15.2396ZM6.84664 17.8374C6.85036 17.8407 6.8541 17.844 6.85784 17.8473C6.94329 17.8648 7.02956 17.882 7.11664 17.899C7.11 17.8908 7.10339 17.8825 7.09683 17.8742C7.01263 17.8621 6.92923 17.8498 6.84664 17.8374ZM7.42002 17.9194C7.4333 17.9342 7.44674 17.9491 7.46033 17.9639C7.56376 17.9827 7.66824 18.0013 7.77373 18.0194C7.76072 18 7.74789 17.9805 7.73525 17.9609C7.62908 17.9473 7.52399 17.9335 7.42002 17.9194ZM8.01407 17.9958C8.03116 18.0201 8.04856 18.0443 8.06626 18.0683C8.1878 18.0881 8.3106 18.1074 8.43461 18.1262C8.41875 18.0976 8.4032 18.0688 8.38797 18.0399C8.26199 18.0256 8.13734 18.0108 8.01407 17.9958ZM8.64727 18.0688C8.66573 18.1014 8.68461 18.1338 8.7039 18.166C8.83382 18.1847 8.96498 18.2029 9.09735 18.2206C9.08081 18.1842 9.06466 18.1477 9.04892 18.111C8.91367 18.0973 8.77977 18.0832 8.64727 18.0688ZM9.29277 18.135C9.31079 18.1747 9.3293 18.2141 9.3483 18.2533C9.48847 18.2711 9.62992 18.2884 9.77258 18.305C9.75664 18.2619 9.74117 18.2186 9.72615 18.1752C9.58029 18.1623 9.43581 18.1489 9.29277 18.135ZM9.6518 17.9471C9.33165 16.9011 9.27418 15.7887 9.48916 14.7095C9.53362 14.4863 9.58938 14.2662 9.65603 14.0502C9.50277 14.064 9.35075 14.0783 9.20002 14.0931C8.95789 14.694 8.82659 15.3371 8.82659 16.0055C8.82659 16.6686 8.95574 17.307 9.1941 17.9039C9.34538 17.9188 9.49796 17.9332 9.6518 17.9471ZM9.95852 18.1954C9.97512 18.2412 9.99224 18.2867 10.0099 18.332C11.855 18.5371 13.8933 18.6456 15.9912 18.6456H16.017C18.1055 18.6456 20.1358 18.5375 21.9753 18.3336C21.9927 18.2887 22.0097 18.2436 22.0262 18.1983C20.1978 18.353 18.1631 18.4404 16.0372 18.4404H16.0014C13.8543 18.4404 11.8009 18.3519 9.95852 18.1954ZM22.2623 18.1778C22.2474 18.2208 22.2321 18.2636 22.2163 18.3062C22.3578 18.2897 22.498 18.2726 22.6371 18.255C22.6559 18.2162 22.6742 18.1773 22.6921 18.1381C22.5502 18.1518 22.407 18.165 22.2623 18.1778ZM22.9356 18.1141C22.9201 18.1504 22.9041 18.1865 22.8878 18.2224C23.0208 18.2047 23.1526 18.1864 23.2831 18.1677C23.3021 18.1359 23.3207 18.104 23.3389 18.0719C23.2058 18.0864 23.0714 18.1004 22.9356 18.1141ZM23.6004 18.0429C23.5855 18.0712 23.5702 18.0995 23.5547 18.1276C23.6781 18.1089 23.8003 18.0897 23.9213 18.0701C23.9386 18.0465 23.9557 18.0228 23.9724 17.9991C23.8498 18.014 23.7258 18.0286 23.6004 18.0429ZM24.2536 17.964C24.2413 17.983 24.2288 18.002 24.2161 18.0209C24.3222 18.0027 24.4273 17.9841 24.5314 17.9651C24.5445 17.9509 24.5574 17.9366 24.5702 17.9223C24.4658 17.9364 24.3602 17.9503 24.2536 17.964ZM24.7783 17.6703C25.1785 17.1428 25.3874 16.5806 25.3874 16.0054C25.3874 15.4254 25.1744 14.8583 24.7673 14.3267C24.6434 14.3092 24.5182 14.2921 24.3917 14.2754C24.6972 14.8185 24.8631 15.4004 24.8631 16.0053C24.8631 16.6053 24.7001 17.1826 24.3995 17.7218C24.527 17.705 24.6533 17.6879 24.7783 17.6703ZM24.8939 17.8771C24.8878 17.8849 24.8816 17.8926 24.8754 17.9003C24.9609 17.8837 25.0457 17.8668 25.1297 17.8496C25.1329 17.8468 25.1362 17.8439 25.1394 17.8411C25.0583 17.8532 24.9765 17.8653 24.8939 17.8771ZM7.73955 18.2433L7.71811 18.2234C7.79414 18.2366 7.87083 18.2496 7.94817 18.2624L7.97462 18.2966C7.89533 18.2791 7.81697 18.2613 7.73955 18.2433ZM8.30553 18.3673C8.28971 18.3491 8.27407 18.3308 8.25861 18.3124C8.36215 18.3286 8.46678 18.3445 8.57244 18.3601C8.58699 18.3833 8.60174 18.4064 8.61671 18.4295C8.51157 18.4092 8.40783 18.3884 8.30553 18.3673ZM8.91179 18.485C8.89194 18.4569 8.87242 18.4287 8.85323 18.4003C8.96994 18.4166 9.08785 18.4325 9.20691 18.4481C9.22359 18.4808 9.24059 18.5134 9.25792 18.5459C9.14102 18.526 9.02563 18.5057 8.91179 18.485ZM9.52606 18.5901C9.50534 18.5539 9.48504 18.5175 9.46517 18.4809C9.59535 18.4971 9.72683 18.5128 9.85957 18.528L9.86552 18.5424C9.88035 18.5782 9.89548 18.6139 9.91091 18.6494C9.78097 18.6302 9.65267 18.6104 9.52606 18.5901ZM15.994 18.8606C13.8939 18.8606 11.8891 18.7501 10.1014 18.555C10.1203 18.5986 10.1397 18.642 10.1595 18.6852C11.8593 18.9233 13.8288 19.0656 15.9928 19.0656H16.0128C18.1684 19.0656 20.1306 18.9243 21.825 18.6878C21.8446 18.6453 21.8636 18.6026 21.8822 18.5598C20.1022 18.752 18.1078 18.8606 16.0198 18.8606H15.994ZM22.0771 18.6516C22.0943 18.6121 22.1112 18.5724 22.1276 18.5326C22.2589 18.5177 22.389 18.5023 22.5178 18.4865C22.4984 18.5222 22.4785 18.5577 22.4582 18.5931C22.3328 18.6131 22.2058 18.6326 22.0771 18.6516ZM22.7264 18.5489C22.7432 18.5174 22.7598 18.4858 22.776 18.454C22.8954 18.4386 23.0136 18.4228 23.1306 18.4066C23.1121 18.4338 23.0934 18.4609 23.0743 18.4879C22.9599 18.5087 22.8439 18.529 22.7264 18.5489ZM23.372 18.432C23.3862 18.4102 23.4002 18.3883 23.4139 18.3663C23.5184 18.351 23.6218 18.3355 23.7242 18.3196C23.7098 18.3366 23.6953 18.3536 23.6806 18.3704C23.5792 18.3914 23.4763 18.4119 23.372 18.432ZM24.0142 18.2993L24.0372 18.2697C24.1143 18.257 24.1907 18.2441 24.2665 18.2311L24.2506 18.2458C24.1728 18.2639 24.094 18.2817 24.0142 18.2993ZM29.1138 16.0071C29.1138 16.3408 28.7088 16.6885 27.9693 17.017C28.3737 16.6961 28.5837 16.3578 28.5837 16.0114C28.5837 15.6573 28.363 15.3107 27.9392 14.9823C28.6979 15.3158 29.1138 15.6692 29.1138 16.0071ZM24.2528 13.7671L24.2616 13.7753C24.1862 13.7622 24.1102 13.7494 24.0336 13.7367L24.0153 13.7132C24.0954 13.7309 24.1746 13.7489 24.2528 13.7671ZM23.6854 13.6426C23.6981 13.6573 23.7108 13.6721 23.7233 13.6869C23.6197 13.6707 23.5151 13.6549 23.4095 13.6393C23.3969 13.6194 23.3842 13.5996 23.3714 13.5798C23.4775 13.6003 23.5822 13.6213 23.6854 13.6426ZM23.0751 13.524C23.0927 13.5489 23.11 13.5739 23.1271 13.5989C23.0097 13.5826 22.8911 13.5666 22.7713 13.551C22.7561 13.5214 22.7406 13.4918 22.7248 13.4624C22.8432 13.4825 22.9599 13.503 23.0751 13.524ZM22.4585 13.4184C22.4776 13.4516 22.4962 13.485 22.5146 13.5185C22.3868 13.5027 22.2577 13.4873 22.1275 13.4724C22.112 13.4348 22.0961 13.3974 22.0799 13.3601C22.2077 13.379 22.3339 13.3984 22.4585 13.4184ZM21.8223 13.323C21.8409 13.3633 21.8591 13.4038 21.8768 13.4444C20.0933 13.2505 18.0945 13.1406 16.0012 13.1406H15.974C13.8842 13.1406 11.8884 13.2494 10.1076 13.4419C10.1253 13.4011 10.1435 13.3606 10.162 13.3203C11.8564 13.084 13.8186 12.9429 15.9741 12.9429H15.9928C18.1553 12.9429 20.1234 13.0851 21.8223 13.323ZM9.91338 13.3559C9.89707 13.3934 9.88111 13.431 9.8655 13.4687C9.73374 13.4837 9.60321 13.4991 9.47398 13.515C9.49236 13.4814 9.5111 13.448 9.5302 13.4147C9.65627 13.3946 9.78401 13.375 9.91338 13.3559ZM9.26131 13.4589C9.24555 13.4884 9.23005 13.5179 9.21481 13.5476C9.09594 13.563 8.97822 13.5787 8.86169 13.5949C8.8788 13.5697 8.89616 13.5447 8.91378 13.5199C9.02808 13.4991 9.14393 13.4788 9.26131 13.4589ZM8.61881 13.5751C8.60592 13.5949 8.59318 13.6149 8.58059 13.6348C8.47606 13.6501 8.37254 13.6657 8.27006 13.6815C8.2827 13.6666 8.29546 13.6518 8.30833 13.637C8.41041 13.616 8.51391 13.5953 8.61881 13.5751ZM7.97748 13.7074L7.95902 13.7312C7.88251 13.7438 7.80663 13.7565 7.73139 13.7694L7.74055 13.761C7.81857 13.7429 7.89755 13.7251 7.97748 13.7074ZM3.4019 16.0014C3.4019 15.6499 3.61905 15.3061 4.03671 14.9802C3.28306 15.3115 2.86999 15.6628 2.86999 15.9999C2.86999 16.3366 3.28309 16.6889 4.03701 17.0213C3.61942 16.6955 3.4019 16.3521 3.4019 16.0014ZM23.4406 13.3793L23.4396 13.3782C23.3567 13.3569 23.2729 13.3358 23.1881 13.3152L23.2019 13.334C23.282 13.3488 23.3616 13.3639 23.4406 13.3793ZM22.8903 13.278L22.8574 13.2372C22.7587 13.2147 22.6588 13.1927 22.5579 13.1711C22.5694 13.19 22.5808 13.2088 22.5921 13.2278C22.6923 13.2441 22.7917 13.2609 22.8903 13.278ZM22.3163 13.1839C22.3007 13.1596 22.2849 13.1354 22.269 13.1112C22.1584 13.089 22.0465 13.0673 21.9335 13.0462C21.9479 13.0751 21.9621 13.1041 21.9761 13.1332C22.0903 13.1496 22.2037 13.1665 22.3163 13.1839ZM21.7125 13.0963C19.9524 12.8573 18.0028 12.7308 15.9928 12.7308H15.9741C13.9721 12.7308 12.0285 12.8546 10.2734 13.0907C10.2899 13.0583 10.3066 13.0261 10.3236 12.9941C12.0186 12.6961 13.9576 12.5228 15.9784 12.5228H15.9927C18.0177 12.5228 19.9614 12.6972 21.6606 12.9966C21.6782 13.0297 21.6955 13.063 21.7125 13.0963ZM10.0189 13.1259C10.0324 13.0978 10.0462 13.0697 10.0601 13.0418C9.94555 13.0631 9.83217 13.085 9.72002 13.1075C9.7048 13.1305 9.68976 13.1535 9.6749 13.1767C9.78866 13.1593 9.90333 13.1423 10.0189 13.1259ZM9.39628 13.2206C9.40683 13.203 9.41748 13.1854 9.42822 13.1678C9.32836 13.1891 9.22957 13.2108 9.13187 13.233L9.10213 13.2699C9.19944 13.2531 9.29749 13.2367 9.39628 13.2206ZM8.79152 13.3252L8.80233 13.3105C8.73294 13.3274 8.66417 13.3445 8.59602 13.3619C8.66082 13.3495 8.72598 13.3373 8.79152 13.3252ZM8.60005 18.6426C8.66562 18.6593 8.73176 18.6758 8.79846 18.6921L8.78816 18.6781C8.72512 18.6664 8.66241 18.6546 8.60005 18.6426ZM9.09901 18.7339L9.12806 18.7699C9.22535 18.7921 9.32373 18.8138 9.42316 18.8351C9.41266 18.8179 9.40224 18.8006 9.39193 18.7833C9.29356 18.7672 9.19592 18.7507 9.09901 18.7339ZM9.66977 18.8275C9.68432 18.8502 9.69903 18.8729 9.71392 18.8955C9.82686 18.9182 9.94107 18.9404 10.0565 18.962C10.0428 18.9344 10.0293 18.9068 10.0159 18.8791C9.89965 18.8624 9.78425 18.8452 9.66977 18.8275ZM10.2704 18.9146C10.2867 18.9465 10.3031 18.9782 10.3199 19.0098C12.022 19.3104 13.9701 19.4855 15.9999 19.4855H16.0142C18.0327 19.4855 19.9695 19.3124 21.6632 19.0149C21.6798 18.9836 21.6961 18.9522 21.7122 18.9207C19.9576 19.1568 18.015 19.2806 16.0128 19.2806H15.9928C13.9817 19.2806 12.031 19.1539 10.2704 18.9146ZM21.97 18.885C21.9568 18.9123 21.9435 18.9395 21.9299 18.9667C22.0438 18.9455 22.1565 18.9237 22.2679 18.9014C22.2826 18.8792 22.2972 18.8569 22.3115 18.8345C22.1986 18.8518 22.0847 18.8686 21.97 18.885ZM22.5896 18.7906L22.5591 18.8412C22.6588 18.82 22.7576 18.7983 22.8552 18.7761L22.8831 18.7415C22.786 18.7582 22.6882 18.7746 22.5896 18.7906ZM23.197 18.6855L23.188 18.6979C23.2466 18.6836 23.3048 18.6692 23.3625 18.6546C23.3076 18.665 23.2525 18.6753 23.197 18.6855ZM9.40362 19.0844L9.38109 19.0604C9.45304 19.0757 9.52544 19.0908 9.59829 19.1056L9.6251 19.1444C9.55058 19.1247 9.47675 19.1047 9.40362 19.0844ZM9.9492 19.2268C9.93371 19.2065 9.91837 19.1861 9.90316 19.1657C9.99855 19.1838 10.0946 19.2015 10.1914 19.2188C10.2054 19.244 10.2195 19.2692 10.2338 19.2942C10.138 19.2723 10.0431 19.2498 9.9492 19.2268ZM15.9927 19.7004C14.0428 19.7004 12.1551 19.5497 10.463 19.2658C10.481 19.2964 10.4993 19.3269 10.5179 19.3572C12.1375 19.7042 14.0134 19.9054 15.9926 19.9054H16.0041C17.9784 19.9054 19.8502 19.7051 21.4666 19.3592C21.4851 19.329 21.5034 19.2986 21.5214 19.2681C19.8338 19.5514 17.9551 19.7004 16.007 19.7004H15.9927ZM21.7539 19.2956C21.7682 19.2706 21.7823 19.2456 21.7962 19.2204C21.8917 19.2033 21.9865 19.1858 22.0807 19.1679C22.0654 19.1884 22.05 19.2088 22.0345 19.2292C21.9419 19.2518 21.8484 19.2739 21.7539 19.2956ZM22.3593 19.1467L22.3863 19.1076C22.46 19.0926 22.5332 19.0773 22.606 19.0617L22.5832 19.086C22.5093 19.1066 22.4346 19.1268 22.3593 19.1467ZM22.5836 12.9248L22.6062 12.949C22.5325 12.9332 22.4582 12.9177 22.3835 12.9024L22.3563 12.8632C22.4328 12.8834 22.5085 12.9039 22.5836 12.9248ZM22.034 12.7812C22.0496 12.8017 22.065 12.8221 22.0804 12.8427C21.9873 12.825 21.8936 12.8077 21.7992 12.7908C21.7853 12.7656 21.7712 12.7405 21.7569 12.7156C21.8502 12.737 21.9426 12.7589 22.034 12.7812ZM21.4625 12.6503C21.4812 12.6807 21.4996 12.7113 21.5178 12.742C19.8258 12.4581 17.938 12.3079 15.987 12.3079H15.9726C14.0297 12.3079 12.1537 12.4555 10.4679 12.737C10.4853 12.7076 10.5029 12.6783 10.5208 12.6492C12.1398 12.3033 14.0148 12.1029 15.9926 12.1029C17.9696 12.1029 19.844 12.3037 21.4625 12.6503ZM10.2366 12.712C10.2229 12.7358 10.2094 12.7598 10.1961 12.7838C10.1004 12.8008 10.0053 12.8183 9.91096 12.8362C9.92535 12.8169 9.93986 12.7977 9.95451 12.7786C10.0476 12.7559 10.1416 12.7337 10.2366 12.712ZM9.62919 12.861L9.60476 12.8962C9.53153 12.9111 9.45873 12.9262 9.38639 12.9416L9.40522 12.9215C9.47916 12.901 9.55382 12.8809 9.62919 12.861ZM21.8062 12.5012L21.7925 12.4854C21.722 12.4639 21.6509 12.4429 21.5792 12.4222L21.6001 12.4551C21.6693 12.4702 21.738 12.4855 21.8062 12.5012ZM21.2944 12.3907C21.2811 12.3711 21.2676 12.3516 21.254 12.3322C19.7092 11.9219 17.9026 11.6827 15.9928 11.6827C14.0815 11.6827 12.2739 11.9215 10.7289 12.3314C10.7161 12.3496 10.7035 12.3679 10.691 12.3863C12.2646 12.0685 14.0678 11.8879 15.9826 11.8879C17.9037 11.8879 19.7144 12.0703 21.2944 12.3907ZM21.2973 19.621C19.7234 19.9394 17.9197 20.1204 16.0041 20.1204H15.9926C14.0723 20.1204 12.2642 19.9386 10.687 19.6189C10.6998 19.6378 10.7128 19.6567 10.7259 19.6755C12.272 20.0867 14.0807 20.3265 15.9928 20.3265L16 20.434V20.3265C17.9085 20.3265 19.7142 20.0877 21.258 19.678C21.2712 19.6591 21.2843 19.6401 21.2973 19.621ZM21.5953 19.5585L21.575 19.5904C21.648 19.5694 21.7203 19.548 21.792 19.5263L21.8045 19.5119C21.7353 19.5277 21.6655 19.5433 21.5953 19.5585ZM10.1784 19.5092C10.249 19.5254 10.3202 19.5413 10.3919 19.5569L10.4121 19.5886C10.3375 19.5671 10.2636 19.5452 10.1903 19.523L10.1784 19.5092ZM10.1857 12.4948C10.2552 12.4789 10.3252 12.4634 10.3957 12.4481L10.4149 12.4181C10.3414 12.4392 10.2685 12.4607 10.1963 12.4826L10.1857 12.4948ZM15.9928 20.54C14.1582 20.54 12.4336 20.33 10.9377 19.962L10.9645 19.9961C12.4594 20.4839 14.1897 20.745 15.9969 20.745C17.8 20.745 19.5261 20.4842 21.0205 19.997L21.0465 19.9641C19.5521 20.3308 17.8304 20.54 16 20.54H15.9928ZM15.9856 11.4677C14.1558 11.4677 12.4354 11.6766 10.9424 12.043L10.9678 12.0108C12.461 11.5245 14.1899 11.2645 15.9955 11.2643C17.7951 11.2645 19.521 11.5244 21.0132 12.0095L21.042 12.0459C19.5442 11.6778 17.8187 11.4677 15.9856 11.4677ZM15.9955 11.2643L15.9926 11.2643H15.9984L15.9955 11.2643ZM20.7563 20.3089L20.7548 20.3106C19.3888 20.8495 17.7526 21.1635 15.9957 21.1635C14.2355 21.1635 12.5964 20.8485 11.2287 20.308L11.226 20.3051C12.6328 20.7216 14.2624 20.96 15.9984 20.96C17.7282 20.96 19.3527 20.7231 20.7563 20.3089ZM20.7513 11.701C19.3453 11.2856 17.7186 11.0479 15.9883 11.0479C14.2593 11.0479 12.6352 11.2849 11.2319 11.6995L11.2336 11.6976C12.5998 11.1586 14.2364 10.8445 15.9943 10.8443C17.7477 10.8445 19.3802 11.1569 20.7441 11.6931L20.7513 11.701ZM15.9957 21.3799C14.5039 21.3799 13.0969 21.1554 11.8618 20.7593C13.0652 21.2819 14.4808 21.5835 15.9942 21.5835C17.5051 21.5835 18.9183 21.283 20.1202 20.7623C18.8873 21.1566 17.4837 21.3799 15.9957 21.3799ZM15.9929 10.6293C14.4997 10.6293 13.0915 10.8542 11.8558 11.2511C13.0601 10.7271 14.4776 10.4246 15.9935 10.4245C17.5083 10.4246 18.9251 10.7271 20.1292 11.2508C18.8933 10.8541 17.4853 10.6293 15.9929 10.6293ZM19.5132 21.2288C18.4728 21.7219 17.2718 22.0035 15.9941 22.0035V22.2199C17.0544 22.2199 18.0632 22.0306 18.9754 21.69C18.8044 21.7797 18.6289 21.862 18.4495 21.9363C17.2765 22.4222 15.9857 22.5493 14.7405 22.3016C14.1363 22.1814 13.5559 21.9756 13.016 21.693C13.927 22.0326 14.9342 22.2214 15.9927 22.2214V22.005C14.7022 22.005 13.4906 21.7181 12.4438 21.2165C13.517 21.5902 14.722 21.8 15.9942 21.8C17.2548 21.8 18.4484 21.5948 19.5132 21.2288ZM19.5133 10.7824C18.4475 10.4153 17.2531 10.2095 15.9928 10.2095C14.7328 10.2095 13.5389 10.4151 12.4737 10.7819C13.5139 10.289 14.7149 10.0074 15.9927 10.0074C17.271 10.0074 18.4726 10.2892 19.5133 10.7824ZM15.9913 9.79102C14.9311 9.79102 13.9222 9.98041 13.0101 10.3212C13.9272 9.83991 14.9504 9.58611 15.9929 9.58611C17.0377 9.58727 18.0561 9.84286 18.9652 10.3185C18.0548 9.97944 17.0485 9.79102 15.9913 9.79102Z" fill="url(#paint0_linear_735_589)"/>
<defs>
<linearGradient id="paint0_linear_735_589" x1="1.91276" y1="16.0027" x2="30.0728" y2="16.0027" gradientUnits="userSpaceOnUse">
<stop stop-color="#FDA9FF"/>
<stop offset="1" stop-color="#039CFF"/>
</linearGradient>
</defs>
</svg>
