<svg width="64" height="64" viewBox="0 0 64 64" fill="none" xmlns="http://www.w3.org/2000/svg">
<rect width="64" height="64" rx="8" fill="#735EA1" fill-opacity="0.08"/>
<path d="M32 52C43.0834 52 52 43.0834 52 32C52 20.9166 43.0834 12 32 12C20.9166 12 12 20.9166 12 32C12 43.0834 20.9166 52 32 52Z" fill="#2775CA"/>
<path d="M37.4996 35.1665C37.4996 32.2499 35.7496 31.2499 32.2496 30.8333C29.7496 30.4999 29.2496 29.8333 29.2496 28.6665C29.2496 27.4997 30.083 26.7499 31.7496 26.7499C33.2496 26.7499 34.083 27.2499 34.4996 28.4999C34.583 28.7499 34.833 28.9165 35.083 28.9165H36.4162C36.7496 28.9165 36.9996 28.6665 36.9996 28.3333V28.2499C36.6662 26.4165 35.1662 24.9999 33.2496 24.8333V22.8333C33.2496 22.4999 32.9996 22.2499 32.583 22.1665H31.333C30.9996 22.1665 30.7496 22.4165 30.6662 22.8333V24.7499C28.1662 25.0833 26.583 26.7499 26.583 28.8333C26.583 31.5833 28.2496 32.6665 31.7496 33.0833C34.083 33.4999 34.833 33.9999 34.833 35.3333C34.833 36.6667 33.6662 37.5833 32.083 37.5833C29.9162 37.5833 29.1662 36.6665 28.9162 35.4165C28.833 35.0833 28.583 34.9165 28.333 34.9165H26.9162C26.583 34.9165 26.333 35.1665 26.333 35.4999V35.5833C26.6662 37.6665 27.9996 39.1665 30.7496 39.5833V41.5833C30.7496 41.9165 30.9996 42.1665 31.4162 42.2499H32.6662C32.9996 42.2499 33.2496 41.9999 33.333 41.5833V39.5833C35.833 39.1665 37.4996 37.4165 37.4996 35.1665Z" fill="white"/>
<path d="M27.7497 43.9167C21.2497 41.5835 17.9163 34.3335 20.3331 27.9167C21.5831 24.4167 24.3331 21.7501 27.7497 20.5001C28.0831 20.3335 28.2497 20.0835 28.2497 19.6667V18.5001C28.2497 18.1667 28.0831 17.9167 27.7497 17.8335C27.6663 17.8335 27.4997 17.8335 27.4163 17.9167C19.4997 20.4167 15.1663 28.8335 17.6663 36.7501C19.1663 41.4167 22.7497 45.0001 27.4163 46.5001C27.7497 46.6667 28.0831 46.5001 28.1663 46.1667C28.2497 46.0835 28.2497 46.0001 28.2497 45.8335V44.6667C28.2497 44.4167 27.9997 44.0835 27.7497 43.9167ZM36.5831 17.9167C36.2497 17.7501 35.9163 17.9167 35.8331 18.2501C35.7497 18.3335 35.7497 18.4167 35.7497 18.5835V19.7501C35.7497 20.0835 35.9997 20.4167 36.2497 20.5835C42.7497 22.9167 46.0831 30.1667 43.6663 36.5835C42.4163 40.0835 39.6663 42.7501 36.2497 44.0001C35.9163 44.1667 35.7497 44.4167 35.7497 44.8335V46.0001C35.7497 46.3335 35.9163 46.5835 36.2497 46.6667C36.3331 46.6667 36.4997 46.6667 36.5831 46.5835C44.4997 44.0835 48.8331 35.6667 46.3331 27.7501C44.8331 23.0001 41.1663 19.4167 36.5831 17.9167Z" fill="white"/>
</svg>
