<svg width="64" height="64" viewBox="0 0 64 64" fill="none" xmlns="http://www.w3.org/2000/svg">
<rect y="4.57764e-05" width="64" height="64" rx="8" fill="#735EA1" fill-opacity="0.08"/>
<path fill-rule="evenodd" clip-rule="evenodd" d="M19.5833 14H44.9283C45.5343 14 46.0925 14.3149 46.3915 14.8213L53.7753 27.2685C54.158 27.9144 54.0424 28.7277 53.5002 29.254L33.1748 48.7302C32.5169 49.3601 31.4564 49.3601 30.7986 48.7302L10.501 29.2779C9.94287 28.7437 9.8392 27.9024 10.2499 27.2525L18.14 14.7814C18.447 14.295 18.9932 14 19.5793 14H19.5833ZM41.655 19.5578V23.0503H34.4346V25.4704C39.506 25.7295 43.3096 26.7901 43.3375 28.0659V30.7212C43.3096 31.993 39.506 33.0575 34.4346 33.3167V39.2572H29.6423V33.3167C24.571 33.0575 20.7674 31.997 20.7395 30.7212V28.0659C20.7674 26.7901 24.571 25.7295 29.6423 25.4704V23.0503H22.422V19.5578H41.655ZM32.0385 31.4947C37.4488 31.4947 41.9739 30.5976 43.0783 29.3975C42.1414 28.3809 38.7445 27.5795 34.4346 27.3602V29.8959C33.6612 29.9358 32.8598 29.9557 32.0385 29.9557C31.2172 29.9557 30.4158 29.9358 29.6423 29.8959V27.3602C25.3325 27.5795 21.9356 28.3809 20.9987 29.3975C22.107 30.5976 26.6282 31.4947 32.0385 31.4947Z" fill="#009393"/>
</svg>
