<?xml version="1.0" encoding="UTF-8"?>
<svg width="22px" height="20px" viewBox="0 0 22 20" version="1.1" xmlns="http://www.w3.org/2000/svg" xmlns:xlink="http://www.w3.org/1999/xlink">
    <title>airdrop</title>
    <g id="Overview" stroke="none" stroke-width="1" fill="none" fill-rule="evenodd">
        <g id="Overview-活动详情2" transform="translate(-979.000000, -660.000000)" fill="#FFB144" fill-rule="nonzero">
            <g id="编组-4" transform="translate(283.000000, 387.000000)">
                <g id="编组-8" transform="translate(578.000000, 245.000000)">
                    <g id="airdrop" transform="translate(118.000000, 28.000000)">
                        <path d="M21.9998789,10.9810247 C21.9989643,13.6814527 20.9919165,16.2859726 19.1727884,18.2923906 C18.9538648,18.5091482 18.599721,18.5091482 18.3807974,18.2923906 L17.9848018,17.8989538 C17.7943303,17.6873762 17.7943303,17.3673732 17.9848018,17.1557956 C21.3425607,13.4332726 21.1334566,7.73830263 17.5116238,4.26875046 C13.8897911,0.7991983 8.15396987,0.7991983 4.53213712,4.26875046 C0.91030436,7.73830263 0.701200211,13.4332726 4.0589591,17.1557956 C4.24943067,17.3673732 4.24943067,17.6873762 4.0589591,17.8989538 L3.66296357,18.2923906 C3.44403998,18.5091482 3.0898961,18.5091482 2.87097251,18.2923906 C-0.445008764,14.6784139 -0.94089882,9.31568107 1.65680173,5.16191246 C4.25450229,1.00814385 9.31340464,-0.925459765 14.0433607,0.427546493 C18.7733167,1.78055275 22.0228576,6.09079065 21.9998789,10.9810247 L21.9998789,10.9810247 Z M10.9998807,3.33085971 C7.98986878,3.32700606 5.25356648,5.06609811 3.99519604,7.78278338 C2.73682559,10.4994686 3.18713488,13.6955875 5.1479468,15.9645566 C5.25258434,16.0725872 5.39349474,16.1386982 5.54394233,16.1503885 C5.6995053,16.152196 5.84958968,16.093335 5.96193762,15.9864142 L6.34693327,15.6039063 C6.54257553,15.3943175 6.54257553,15.0703367 6.34693327,14.860748 C4.27410721,12.4249615 4.47722517,8.80469577 6.80968621,6.61288762 C9.14214724,4.42107948 12.791615,4.42107948 15.124076,6.61288762 C17.456537,8.80469577 17.659655,12.4249615 15.5868289,14.860748 C15.3911867,15.0703367 15.3911867,15.3943175 15.5868289,15.6039063 L15.9718246,15.9864142 C16.0841725,16.093335 16.2342569,16.152196 16.3898199,16.1503885 C16.5402675,16.1386982 16.6811779,16.0725872 16.7858154,15.9645566 C18.738975,13.7045962 19.1941956,10.5237388 17.9524852,7.81244229 C16.7107748,5.10114578 13.9979518,3.3524884 10.9998807,3.33085971 Z M13.1998559,12.5657004 C13.0452375,12.7813036 13.0684115,13.0760136 13.2548553,13.2651435 L13.6508508,13.6585802 C13.7648481,13.7688226 13.9213055,13.8246238 14.079846,13.8115834 C14.2386562,13.8031178 14.3847073,13.7225027 14.4758415,13.5930074 C15.8372571,11.789516 15.5950425,9.25319248 13.9165329,7.73626918 C12.2380233,6.21934588 9.67373915,6.21934588 7.99522957,7.73626918 C6.31672,9.25319248 6.07450539,11.789516 7.43592097,13.5930074 C7.52705519,13.7225027 7.67310627,13.8031178 7.8319165,13.8115834 C7.99045695,13.8246238 8.1469144,13.7688226 8.26091166,13.6585802 L8.65690719,13.2651435 C8.843351,13.0760136 8.86652496,12.7813036 8.71190656,12.5657004 C7.90315834,11.4314178 8.08050938,9.87463762 9.12396783,8.94864342 C10.1674263,8.02264923 11.7443362,8.02264923 12.7877946,8.94864342 C13.8312531,9.87463762 14.0086041,11.4314178 13.1998559,12.5657004 L13.1998559,12.5657004 Z M9.89989314,10.9810247 C9.89989314,11.5846056 10.3923744,12.0739045 10.9998807,12.0739045 C11.6073871,12.0739045 12.0998683,11.5846056 12.0998683,10.9810247 C12.0998683,10.3774439 11.6073871,9.88814491 10.9998807,9.88814491 C10.7081459,9.88814491 10.4283597,10.0032873 10.222072,10.208242 C10.0157844,10.4131967 9.89989314,10.691175 9.89989314,10.9810247 L9.89989314,10.9810247 Z M11.8248714,14.5000976 C11.6703041,14.3463377 11.4606054,14.2598554 11.241878,14.2596641 L10.7578835,14.2596641 C10.539156,14.2598554 10.3294574,14.3463377 10.17489,14.5000976 L6.07193637,18.5656105 C5.86097712,18.7817971 5.86097712,19.1253686 6.07193637,19.3415552 L6.30293376,19.5601311 C6.40224101,19.6662917 6.54206682,19.7258298 6.68792943,19.7241013 L15.3008322,19.7241013 C15.4466948,19.7258298 15.5865206,19.6662917 15.6858278,19.5601311 L15.9168252,19.3415552 C16.020946,19.238952 16.0795125,19.0992842 16.0795125,18.9535828 C16.0795125,18.8078814 16.020946,18.6682137 15.9168252,18.5656105 L11.8248714,14.5000976 Z" id="形状"></path>
                    </g>
                </g>
            </g>
        </g>
    </g>
</svg>