<?xml version="1.0" encoding="UTF-8"?>
<svg width="22px" height="20px" viewBox="0 0 22 20" version="1.1" xmlns="http://www.w3.org/2000/svg" xmlns:xlink="http://www.w3.org/1999/xlink">
    <title>advance-deposit</title>
    <g id="Overview" stroke="none" stroke-width="1" fill="none" fill-rule="evenodd">
        <g id="Overview-deposit" transform="translate(-975.000000, -1082.000000)" fill="#FF0E3F" fill-rule="nonzero">
            <g id="deposit-4" transform="translate(283.000000, 387.000000)">
                <g id="deposit-8" transform="translate(578.000000, 668.000000)">
                    <g id="advance-deposit" transform="translate(114.000000, 27.000000)">
                        <path d="M19.3882657,2.24814277 L2.75120393,2.24814277 C1.09983807,2.24814277 0,3.20887931 0,4.85212303 L0,16.9177284 C0,18.2892573 0.963564874,19.2499939 2.61171324,19.2499939 L19.3882657,19.2499939 C20.9001409,19.2499939 21.999986,18.2892573 21.999986,16.7818833 L21.999986,4.71625332 C22.0031965,3.20564667 20.9033831,2.24814277 19.3882657,2.24814277 Z M14.4308764,12.6575738 C14.7650502,12.6575738 15.0343296,12.9260559 15.0343296,13.2592403 C15.0343296,13.5923999 14.7650502,13.8609067 14.4308764,13.8609067 L11.802952,13.8609067 L11.802952,15.4459134 C11.802952,15.885849 11.4460578,16.2448945 11.0015982,16.2448945 C10.560381,16.2448945 10.2002445,15.8890817 10.2002445,15.4459134 L10.2002445,13.8609067 L7.57232005,13.8609067 C7.23814628,13.8609067 6.96886688,13.5924246 6.96886688,13.2592403 C6.96886688,12.9260559 7.23814628,12.6575738 7.57232005,12.6575738 L10.2002692,12.6575738 L10.2002692,11.1857589 L7.57232005,11.1857589 C7.23814628,11.1857589 6.96886688,10.9172768 6.96886688,10.5840925 C6.96886688,10.2509082 7.23814628,9.98242608 7.57232005,9.98242608 L9.72009556,9.98242608 L7.15379847,6.3271706 C6.83261843,5.81606754 7.20245686,5.15295623 7.80917702,5.15295623 C8.07845643,5.15295623 8.32825763,5.29205859 8.46777307,5.52172429 L10.9302194,9.14139603 L11.0729771,9.14139603 L13.5322059,5.51849165 C13.6716966,5.28880127 13.9215225,5.14972359 14.1908019,5.14972359 C14.7942551,5.14972359 15.1641183,5.8128349 14.8461805,6.32393795 L12.2798587,9.97919344 L14.4276589,9.97919344 C14.7618079,9.97919344 15.0310873,10.2476755 15.0310873,10.5808599 C15.0310873,10.9140442 14.7618079,11.1825263 14.4276342,11.1825263 L11.7997097,11.1825263 L11.7997097,12.6543412 L14.4308764,12.6543412 L14.4308764,12.6575492 L14.4308764,12.6575738 Z M19.965781,1.48797814 L2.03746501,1.48797814 C1.62542791,1.48797814 1.29125415,1.15156119 1.29125415,0.743976733 C1.29125415,0.333184313 1.62867016,0 2.03746501,0 L19.9657562,0 C20.3777933,0 20.7119899,0.336416956 20.7119899,0.74400141 C20.7151846,1.15479383 20.3777933,1.48800282 19.9657562,1.48800282 L19.965781,1.48797814 Z" id="deposit"></path>
                    </g>
                </g>
            </g>
        </g>
    </g>
</svg>