<?xml version="1.0" encoding="UTF-8"?>
<svg width="22px" height="17px" viewBox="0 0 22 17" version="1.1" xmlns="http://www.w3.org/2000/svg" xmlns:xlink="http://www.w3.org/1999/xlink">
    <title>discord</title>
    <g id="Overview" stroke="none" stroke-width="1" fill="none" fill-rule="evenodd">
        <g id="Overview-discord" transform="translate(-978.000000, -802.000000)" fill="#720EAD" fill-rule="nonzero">
            <g id="discord-4" transform="translate(283.000000, 387.000000)">
                <g id="discord-8" transform="translate(578.000000, 386.000000)">
                    <g id="discord" transform="translate(117.000000, 29.000000)">
                        <path d="M18.652581,1.42927428 C18.6464662,1.41731178 18.6363328,1.40793798 18.6239958,1.40283191 C17.1976116,0.742098858 15.6923673,0.270944459 14.1459324,0.00115958818 C14.1171161,-0.00424918183 14.0881122,0.00960793061 14.0739832,0.0355346708 C13.869016,0.411125498 13.6829511,0.796919151 13.5164982,1.19144404 C11.8495259,0.935966075 10.1539086,0.935966075 8.48693629,1.19144404 C8.31938151,0.79591735 8.13033491,0.410027518 7.92065879,0.0355346708 C7.90594133,0.0102281726 7.87738476,-0.0034081708 7.84867214,0.00115958818 C6.30207382,0.270378075 4.79673177,0.741567896 3.3705339,1.40286969 C3.35832508,1.40809526 3.34802354,1.41701759 3.3410508,1.42840546 C0.488935307,5.72861497 -0.292366767,9.92309276 0.0909134956,14.0656302 C0.093091997,14.0861432 0.103420576,14.1048861 0.119536045,14.1175706 C1.78029647,15.35906 3.6378771,16.3066984 5.61300779,16.9200464 C5.64149454,16.9286739 5.67228987,16.9184859 5.69019514,16.8945106 C6.11441037,16.311751 6.49029693,15.6946601 6.81403244,15.049513 C6.82303011,15.0316061 6.82400939,15.0106681 6.81672308,14.9919848 C6.80943677,14.9733015 6.79458114,14.9586583 6.77590645,14.9517518 C6.18316081,14.7227736 5.60931381,14.4467458 5.05975074,14.1262588 C5.03947721,14.1142261 5.02647791,14.0927828 5.02508857,14.069081 C5.02369923,14.0453792 5.03410266,14.0225376 5.05282895,14.0081747 C5.1684703,13.9209642 5.28210519,13.831074 5.39364307,13.7385758 C5.41359718,13.7219832 5.4411395,13.7182366 5.46473176,13.7289055 C9.06514921,15.3878621 12.9630915,15.3878621 16.5208932,13.7289055 C16.5445573,13.7175485 16.5725849,13.7209753 16.5928798,13.737707 C16.7045445,13.8306942 16.8184709,13.9208777 16.9345545,14.0081747 C16.9533809,14.0223903 16.9639488,14.0451461 16.9627321,14.0688496 C16.9615154,14.0925531 16.9486743,14.1140841 16.9284933,14.1262588 C16.3801799,14.4494417 15.8058127,14.7252967 15.2115144,14.950883 C15.1928488,14.9580543 15.1780954,14.9729177 15.1709524,14.9917474 C15.1638094,15.0105771 15.164954,15.0315879 15.1740993,15.049513 C15.5032549,15.6910723 15.8785879,16.3073858 16.2970761,16.8934907 C16.3144952,16.9181471 16.3455792,16.9287957 16.3742634,16.9199331 C18.3529335,16.3086645 20.2137608,15.360938 21.8766025,14.1175706 C21.8929819,14.1055017 21.9034128,14.0868896 21.9052251,14.066499 C22.3640839,9.27729451 21.1370183,5.1171918 18.652581,1.42927428 L18.652581,1.42927428 Z M7.35172481,11.5432546 C6.26773459,11.5432546 5.37456137,10.5389356 5.37456137,9.3055123 C5.37456137,8.072089 6.2504114,7.06769442 7.35172481,7.06769442 C8.46164369,7.06769442 9.34617402,8.08081499 9.32885082,9.30543675 C9.32885082,10.5389356 8.45296338,11.5432546 7.35172481,11.5432546 Z M14.6618866,11.5432546 C13.5779338,11.5432546 12.6847606,10.5389356 12.6847606,9.3055123 C12.6847606,8.072089 13.5606106,7.06769442 14.6618866,7.06769442 C15.7718803,7.06769442 16.6563733,8.08081499 16.6390501,9.30543675 C16.6390501,10.5389356 15.7718803,11.5432546 14.6618866,11.5432546 Z" id="discord"></path>
                    </g>
                </g>
            </g>
        </g>
    </g>
</svg>