<svg xmlns="http://www.w3.org/2000/svg" width="40" height="41" viewBox="0 0 40 41" fill="none">
  <circle cx="20" cy="20.5" r="14" fill="#C7D7FE"/>
  <path d="M10 26.5C8 28.18 7.33334 33.1667 7.33334 33.1667C7.33334 33.1667 12.32 32.5 14 30.5C14.9467 29.38 14.9333 27.66 13.88 26.62C13.3617 26.1253 12.6791 25.8395 11.963 25.8174C11.2469 25.7952 10.5478 26.0383 10 26.5Z" fill="#444CE7" stroke="#444CE7" stroke-width="2"/>
  <path d="M20 24.5L16 20.5C16.7096 18.6592 17.603 16.8947 18.6667 15.2333C20.2203 12.7493 22.3835 10.704 24.9507 9.29211C27.5179 7.88016 30.4036 7.14848 33.3334 7.16665C33.3334 10.7933 32.2934 17.1667 25.3334 21.8333C23.6492 22.8983 21.8625 23.7916 20 24.5Z" fill="#8098F9"/>
  <path d="M16 20.5H9.33337C9.33337 20.5 10.0667 16.46 12 15.1667C14.16 13.7267 18.6667 15.1667 18.6667 15.1667" fill="#8098F9"/>
  <path d="M20 24.5V31.1667C20 31.1667 24.04 30.4333 25.3334 28.5C26.7734 26.34 25.3334 21.8333 25.3334 21.8333" fill="#8098F9"/>
  <path d="M20 24.5L16 20.5M20 24.5C21.8625 23.7916 23.6492 22.8983 25.3334 21.8333M20 24.5V31.1667C20 31.1667 24.04 30.4333 25.3334 28.5C26.7734 26.34 25.3334 21.8333 25.3334 21.8333M16 20.5C16.7096 18.6592 17.603 16.8947 18.6667 15.2333C20.2203 12.7493 22.3835 10.704 24.9507 9.29211C27.5179 7.88016 30.4036 7.14848 33.3334 7.16665C33.3334 10.7933 32.2934 17.1667 25.3334 21.8333M16 20.5H9.33337C9.33337 20.5 10.0667 16.46 12 15.1667C14.16 13.7267 18.6667 15.1667 18.6667 15.1667" stroke="#8098F9" stroke-width="2" stroke-linecap="round" stroke-linejoin="round"/>
  <path d="M15 23C15.3333 21.1667 16.5 16.1 18.5 12.5" stroke="#C7D7FE" stroke-width="1.5"/>
  <path d="M28 22C26.3488 22.8635 22.0692 24.8659 18 25.5" stroke="#C7D7FE" stroke-width="1.5"/>
</svg>