<?xml version="1.0" encoding="UTF-8"?>
<svg width="68px" height="68px" viewBox="0 0 68 68" version="1.1" xmlns="http://www.w3.org/2000/svg" xmlns:xlink="http://www.w3.org/1999/xlink">
    <title>编组</title>
    <g id="页面-1" stroke="none" stroke-width="1" fill="none" fill-rule="evenodd">
        <g id="Registering" transform="translate(-787.000000, -534.000000)">
            <g id="编组" transform="translate(787.000000, 534.000000)">
                <path d="M49.3153624,55.3754054 L18.6829878,55.3754054 C15.3360949,55.3754054 12.6249246,52.6620354 12.6249246,49.3151424 L12.6249246,18.6838677 C12.6249246,15.3369748 15.3360949,12.6247046 18.6829878,12.6247046 L49.3153624,12.6247046 C52.6622553,12.6247046 55.3756253,15.3369748 55.3756253,18.6838677 L55.3756253,49.3151424 C55.3756253,52.6620354 52.6622553,55.3754054 49.3153624,55.3754054" id="Fill-13" fill="#330D84"></path>
                <path d="M45.7806123,50.4420654 L22.2181779,50.4420654 C19.643391,50.4420654 17.5569448,48.356719 17.5569448,45.7819321 L17.5569448,22.2183979 C17.5569448,19.643611 19.643391,17.5571647 22.2181779,17.5571647 L45.7806123,17.5571647 C48.3553991,17.5571647 50.4418454,19.643611 50.4418454,22.2183979 L50.4418454,45.7819321 C50.4418454,48.356719 48.3553991,50.4420654 45.7806123,50.4420654" id="Fill-15" fill="#FFBE1B"></path>
                <path d="M53.2884092,17.5019515 C53.2884092,18.2883558 52.6515866,18.9251784 51.8651823,18.9251784 C51.0787779,18.9251784 50.4419554,18.2883558 50.4419554,17.5019515 C50.4419554,16.7155471 51.0787779,16.0787245 51.8651823,16.0787245 C52.6515866,16.0787245 53.2884092,16.7155471 53.2884092,17.5019515" id="Fill-17" fill="#FFE37B"></path>
                <path d="M17.5567248,17.5019515 C17.5567248,18.2883558 16.9199022,18.9251784 16.1334979,18.9251784 C15.3470935,18.9251784 14.710271,18.2883558 14.710271,17.5019515 C14.710271,16.7155471 15.3470935,16.0787245 16.1334979,16.0787245 C16.9199022,16.0787245 17.5567248,16.7155471 17.5567248,17.5019515" id="Fill-19" fill="#FFE37B"></path>
                <path d="M53.2884092,50.4979386 C53.2884092,51.2832431 52.6515866,51.9211655 51.8651823,51.9211655 C51.0787779,51.9211655 50.4419554,51.2832431 50.4419554,50.4979386 C50.4419554,49.7115342 51.0787779,49.0736118 51.8651823,49.0736118 C52.6515866,49.0736118 53.2884092,49.7115342 53.2884092,50.4979386" id="Fill-21" fill="#FFE37B"></path>
                <path d="M17.5567248,50.4979386 C17.5567248,51.2832431 16.9199022,51.9211655 16.1334979,51.9211655 C15.3470935,51.9211655 14.710271,51.2832431 14.710271,50.4979386 C14.710271,49.7115342 15.3470935,49.0736118 16.1334979,49.0736118 C16.9199022,49.0736118 17.5567248,49.7115342 17.5567248,50.4979386" id="Fill-23" fill="#FFE37B"></path>
                <path d="M20.2612959,6.9093597 L20.2612959,1.09546677 C20.2612959,0.490540342 19.7696557,-3.55271368e-14 19.1647292,-3.55271368e-14 C18.5587029,-3.55271368e-14 18.0681626,0.490540342 18.0681626,1.09546677 L18.0681626,6.9093597 C17.4137422,7.28881355 16.9726958,7.99492768 16.9726958,8.80662896 C16.9726958,10.0164818 17.9537765,10.9986624 19.1647292,10.9986624 C20.375682,10.9986624 21.3567626,10.0164818 21.3567626,8.80662896 C21.3567626,7.99492768 20.9157163,7.28881355 20.2612959,6.9093597" id="Fill-27" fill="#5D8EF9"></path>
                <path d="M27.6779139,6.9093597 L27.6779139,1.09546677 C27.6779139,0.490540342 27.1873735,-3.55271368e-14 26.5824471,-3.55271368e-14 C25.9764208,-3.55271368e-14 25.4858805,0.490540342 25.4858805,1.09546677 L25.4858805,6.9093597 C24.8303602,7.28881355 24.3904137,7.99492768 24.3904137,8.80662896 C24.3904137,10.0164818 25.3703945,10.9986624 26.5824471,10.9986624 C27.7923,10.9986624 28.7744805,10.0164818 28.7744805,8.80662896 C28.7744805,7.99492768 28.3334342,7.28881355 27.6779139,6.9093597" id="Fill-29" fill="#5D8EF9"></path>
                <path d="M35.0955218,6.9093597 L35.0955218,1.09546677 C35.0955218,0.490540342 34.6049814,-3.55271368e-14 33.9989551,-3.55271368e-14 C33.3940287,-3.55271368e-14 32.9034884,0.490540342 32.9034884,1.09546677 L32.9034884,6.9093597 C32.2479681,7.28881355 31.8069217,7.99492768 31.8069217,8.80662896 C31.8069217,10.0164818 32.7880024,10.9986624 33.9989551,10.9986624 C35.2099079,10.9986624 36.1920884,10.0164818 36.1920884,8.80662896 C36.1920884,7.99492768 35.7499422,7.28881355 35.0955218,6.9093597" id="Fill-31" fill="#5D8EF9"></path>
                <path d="M42.5132396,6.9093597 L42.5132396,1.09546677 C42.5132396,0.490540342 42.0226993,-3.55271368e-14 41.416673,-3.55271368e-14 C40.8117466,-3.55271368e-14 40.3212062,0.490540342 40.3212062,1.09546677 L40.3212062,6.9093597 C39.665686,7.28881355 39.2246396,7.99492768 39.2246396,8.80662896 C39.2246396,10.0164818 40.2057203,10.9986624 41.416673,10.9986624 C42.6276257,10.9986624 43.6087064,10.0164818 43.6087064,8.80662896 C43.6087064,7.99492768 43.1676601,7.28881355 42.5132396,6.9093597" id="Fill-33" fill="#5D8EF9"></path>
                <path d="M49.9308475,6.9093597 L49.9308475,1.09546677 C49.9308475,0.490540342 49.4403072,-3.55271368e-14 48.8342809,-3.55271368e-14 C48.2282546,-3.55271368e-14 47.7388141,0.490540342 47.7388141,1.09546677 L47.7388141,6.9093597 C47.0832938,7.28881355 46.6422475,7.99492768 46.6422475,8.80662896 C46.6422475,10.0164818 47.6233282,10.9986624 48.8342809,10.9986624 C50.0452336,10.9986624 51.0263143,10.0164818 51.0263143,8.80662896 C51.0263143,7.99492768 50.5852679,7.28881355 49.9308475,6.9093597" id="Fill-35" fill="#5D8EF9"></path>
                <path d="M20.2612959,61.0906403 L20.2612959,66.9034334 C20.2612959,67.5094597 19.7696557,68 19.1647292,68 C18.5587029,68 18.0681626,67.5094597 18.0681626,66.9034334 L18.0681626,61.0906403 C17.4137422,60.7111864 16.9726958,60.0050723 16.9726958,59.193371 C16.9726958,57.9835182 17.9537765,57.0013376 19.1647292,57.0013376 C20.375682,57.0013376 21.3567626,57.9835182 21.3567626,59.193371 C21.3567626,60.0050723 20.9157163,60.7111864 20.2612959,61.0906403" id="Fill-37" fill="#5D8EF9"></path>
                <path d="M27.6779139,61.0906403 L27.6779139,66.9034334 C27.6779139,67.5094597 27.1873735,68 26.5824471,68 C25.9764208,68 25.4858805,67.5094597 25.4858805,66.9034334 L25.4858805,61.0906403 C24.8303602,60.7111864 24.3904137,60.0050723 24.3904137,59.193371 C24.3904137,57.9835182 25.3703945,57.0013376 26.5824471,57.0013376 C27.7923,57.0013376 28.7744805,57.9835182 28.7744805,59.193371 C28.7744805,60.0050723 28.3334342,60.7111864 27.6779139,61.0906403" id="Fill-39" fill="#5D8EF9"></path>
                <path d="M35.0955218,61.0906403 L35.0955218,66.9034334 C35.0955218,67.5094597 34.6049814,68 33.9989551,68 C33.3940287,68 32.9034884,67.5094597 32.9034884,66.9034334 L32.9034884,61.0906403 C32.2479681,60.7111864 31.8069217,60.0050723 31.8069217,59.193371 C31.8069217,57.9835182 32.7880024,57.0013376 33.9989551,57.0013376 C35.2099079,57.0013376 36.1920884,57.9835182 36.1920884,59.193371 C36.1920884,60.0050723 35.7499422,60.7111864 35.0955218,61.0906403" id="Fill-41" fill="#5D8EF9"></path>
                <path d="M42.5132396,61.0906403 L42.5132396,66.9034334 C42.5132396,67.5094597 42.0226993,68 41.416673,68 C40.8117466,68 40.3212062,67.5094597 40.3212062,66.9034334 L40.3212062,61.0906403 C39.665686,60.7111864 39.2246396,60.0050723 39.2246396,59.193371 C39.2246396,57.9835182 40.2057203,57.0013376 41.416673,57.0013376 C42.6276257,57.0013376 43.6087064,57.9835182 43.6087064,59.193371 C43.6087064,60.0050723 43.1676601,60.7111864 42.5132396,61.0906403" id="Fill-43" fill="#5D8EF9"></path>
                <path d="M49.9308475,61.0906403 L49.9308475,66.9034334 C49.9308475,67.5094597 49.4403072,68 48.8342809,68 C48.2282546,68 47.7388141,67.5094597 47.7388141,66.9034334 L47.7388141,61.0906403 C47.0832938,60.7111864 46.6422475,60.0050723 46.6422475,59.193371 C46.6422475,57.9835182 47.6233282,57.0013376 48.8342809,57.0013376 C50.0452336,57.0013376 51.0263143,57.9835182 51.0263143,59.193371 C51.0263143,60.0050723 50.5852679,60.7111864 49.9308475,61.0906403" id="Fill-45" fill="#5D8EF9"></path>
                <path d="M6.9093597,47.7385941 L1.09546677,47.7385941 C0.490540342,47.7385941 0,48.2291345 0,48.8351608 C0,49.4400872 0.490540342,49.9306276 1.09546677,49.9306276 L6.9093597,49.9306276 C7.28881355,50.5861478 7.99492768,51.0271942 8.80552909,51.0271942 C10.0164818,51.0271942 10.9986624,50.0461135 10.9986624,48.8351608 C10.9986624,47.6242081 10.0164818,46.6420275 8.80552909,46.6420275 C7.99492768,46.6420275 7.28881355,47.0841737 6.9093597,47.7385941" id="Fill-47" fill="#5D8EF9"></path>
                <path d="M6.9093597,40.3209863 L1.09546677,40.3209863 C0.490540342,40.3209863 0,40.8115266 0,41.4175529 C0,42.0224793 0.490540342,42.5130197 1.09546677,42.5130197 L6.9093597,42.5130197 C7.28881355,43.1685399 7.99492768,43.6095863 8.80552909,43.6095863 C10.0164818,43.6095863 10.9986624,42.6285056 10.9986624,41.4175529 C10.9986624,40.2066002 10.0164818,39.2244196 8.80552909,39.2244196 C7.99492768,39.2244196 7.28881355,39.6665658 6.9093597,40.3209863" id="Fill-49" fill="#5D8EF9"></path>
                <path d="M6.9093597,32.9032684 L1.09546677,32.9032684 C0.490540342,32.9032684 0,33.3938087 0,33.999835 C0,34.6058613 0.490540342,35.0953018 1.09546677,35.0953018 L6.9093597,35.0953018 C7.28881355,35.7508221 7.99492768,36.1918684 8.80552909,36.1918684 C10.0164818,36.1918684 10.9986624,35.2107877 10.9986624,33.999835 C10.9986624,32.7888823 10.0164818,31.8078016 8.80552909,31.8078016 C7.99492768,31.8078016 7.28881355,32.248848 6.9093597,32.9032684" id="Fill-51" fill="#5D8EF9"></path>
                <path d="M6.9093597,25.4856605 L1.09546677,25.4856605 C0.490540342,25.4856605 0,25.9762008 0,26.5822271 C0,27.1882534 0.490540342,27.6787938 1.09546677,27.6787938 L6.9093597,27.6787938 C7.28881355,28.3332142 7.99492768,28.7742605 8.80552909,28.7742605 C10.0164818,28.7742605 10.9986624,27.7931799 10.9986624,26.5822271 C10.9986624,25.3712744 10.0164818,24.3901937 8.80552909,24.3901937 C7.99492768,24.3901937 7.28881355,24.8312401 6.9093597,25.4856605" id="Fill-53" fill="#5D8EF9"></path>
                <path d="M6.9093597,18.0690425 L1.09546677,18.0690425 C0.490540342,18.0690425 0,18.558483 0,19.1645093 C0,19.7705356 0.490540342,20.2610759 1.09546677,20.2610759 L6.9093597,20.2610759 C7.28881355,20.9154963 7.99492768,21.3565427 8.80552909,21.3565427 C10.0164818,21.3565427 10.9986624,20.3765619 10.9986624,19.1645093 C10.9986624,17.9546564 10.0164818,16.9724758 8.80552909,16.9724758 C7.99492768,16.9724758 7.28881355,17.4135222 6.9093597,18.0690425" id="Fill-55" fill="#5D8EF9"></path>
                <path d="M61.0895404,47.7385941 L66.9034334,47.7385941 C67.5083598,47.7385941 67.9989001,48.2291345 67.9989001,48.8351608 C67.9989001,49.4400872 67.5083598,49.9306276 66.9034334,49.9306276 L61.0895404,49.9306276 C60.7100866,50.5861478 60.0050723,51.0271942 59.193371,51.0271942 C57.9824183,51.0271942 57.0013376,50.0461135 57.0013376,48.8351608 C57.0013376,47.6242081 57.9824183,46.6420275 59.193371,46.6420275 C60.0050723,46.6420275 60.7100866,47.0841737 61.0895404,47.7385941" id="Fill-57" fill="#5D8EF9"></path>
                <path d="M61.0895404,40.3209863 L66.9034334,40.3209863 C67.5083598,40.3209863 67.9989001,40.8115266 67.9989001,41.4175529 C67.9989001,42.0224793 67.5083598,42.5130197 66.9034334,42.5130197 L61.0895404,42.5130197 C60.7100866,43.1685399 60.0050723,43.6095863 59.193371,43.6095863 C57.9824183,43.6095863 57.0013376,42.6285056 57.0013376,41.4175529 C57.0013376,40.2066002 57.9824183,39.2244196 59.193371,39.2244196 C60.0050723,39.2244196 60.7100866,39.6665658 61.0895404,40.3209863" id="Fill-59" fill="#5D8EF9"></path>
                <path d="M61.0895404,32.9032684 L66.9034334,32.9032684 C67.5083598,32.9032684 67.9989001,33.3938087 67.9989001,33.999835 C67.9989001,34.6058613 67.5083598,35.0953018 66.9034334,35.0953018 L61.0895404,35.0953018 C60.7100866,35.7508221 60.0050723,36.1918684 59.193371,36.1918684 C57.9824183,36.1918684 57.0013376,35.2107877 57.0013376,33.999835 C57.0013376,32.7888823 57.9824183,31.8078016 59.193371,31.8078016 C60.0050723,31.8078016 60.7100866,32.248848 61.0895404,32.9032684" id="Fill-61" fill="#5D8EF9"></path>
                <path d="M61.0895404,25.4856605 L66.9034334,25.4856605 C67.5083598,25.4856605 67.9989001,25.9762008 67.9989001,26.5822271 C67.9989001,27.1882534 67.5083598,27.6787938 66.9034334,27.6787938 L61.0895404,27.6787938 C60.7100866,28.3332142 60.0050723,28.7742605 59.193371,28.7742605 C57.9824183,28.7742605 57.0013376,27.7931799 57.0013376,26.5822271 C57.0013376,25.3712744 57.9824183,24.3901937 59.193371,24.3901937 C60.0050723,24.3901937 60.7100866,24.8312401 61.0895404,25.4856605" id="Fill-63" fill="#5D8EF9"></path>
                <path d="M61.0895404,18.0690425 L66.9034334,18.0690425 C67.5083598,18.0690425 67.9989001,18.558483 67.9989001,19.1645093 C67.9989001,19.7705356 67.5083598,20.2610759 66.9034334,20.2610759 L61.0895404,20.2610759 C60.7100866,20.9154963 60.0050723,21.3565427 59.193371,21.3565427 C57.9824183,21.3565427 57.0013376,20.3765619 57.0013376,19.1645093 C57.0013376,17.9546564 57.9824183,16.9724758 59.193371,16.9724758 C60.0050723,16.9724758 60.7100866,17.4135222 61.0895404,18.0690425" id="Fill-65" fill="#5D8EF9"></path>
                <text id="Fn" font-family=".AppleSystemUIFont" font-size="18" font-weight="normal" fill="#FFFFFF">
                    <tspan x="24.5789613" y="41">Fn</tspan>
                </text>
            </g>
        </g>
    </g>
</svg>