<svg xmlns="http://www.w3.org/2000/svg" width="40" height="40" viewBox="0 0 40 40" fill="none">
  <circle cx="20" cy="20" r="14" fill="#D8C8EC"/>
  <path d="M9.99999 26.0004C7.99999 27.6804 7.33333 32.6671 7.33333 32.6671C7.33333 32.6671 12.32 32.0004 14 30.0004C14.9467 28.8804 14.9333 27.1604 13.88 26.1204C13.3617 25.6258 12.6791 25.3399 11.963 25.3178C11.2469 25.2956 10.5478 25.5387 9.99999 26.0004Z" fill="#543D8C" stroke="#543D8C" stroke-width="2"/>
  <path d="M20 23.9997L16 19.9997C16.7096 18.1589 17.603 16.3944 18.6667 14.733C20.2203 12.249 22.3835 10.2037 24.9507 8.7918C27.5179 7.37986 30.4036 6.64817 33.3334 6.66635C33.3334 10.293 32.2934 16.6663 25.3334 21.333C23.6492 22.398 21.8625 23.2913 20 23.9997Z" fill="#8B75B4"/>
  <path d="M16 19.9997H9.33337C9.33337 19.9997 10.0667 15.9597 12 14.6663C14.16 13.2263 18.6667 14.6663 18.6667 14.6663" fill="#8B75B4"/>
  <path d="M20 23.9997V30.6663C20 30.6663 24.04 29.933 25.3334 27.9997C26.7734 25.8397 25.3334 21.333 25.3334 21.333" fill="#8B75B4"/>
  <path d="M20 23.9997L16 19.9997M20 23.9997C21.8625 23.2913 23.6492 22.398 25.3334 21.333M20 23.9997V30.6663C20 30.6663 24.04 29.933 25.3334 27.9997C26.7734 25.8397 25.3334 21.333 25.3334 21.333M16 19.9997C16.7096 18.1589 17.603 16.3944 18.6667 14.733C20.2203 12.249 22.3835 10.2037 24.9507 8.7918C27.5179 7.37986 30.4036 6.64817 33.3334 6.66635C33.3334 10.293 32.2934 16.6663 25.3334 21.333M16 19.9997H9.33337C9.33337 19.9997 10.0667 15.9597 12 14.6663C14.16 13.2263 18.6667 14.6663 18.6667 14.6663" stroke="#8B75B4" stroke-width="2" stroke-linecap="round" stroke-linejoin="round"/>
  <path d="M15 22.5C15.3333 20.6667 16.5 15.6 18.5 12" stroke="#D8C8EC" stroke-width="1.5"/>
  <path d="M28 21.4998C26.3488 22.3633 22.0692 24.3658 18 24.9998" stroke="#D8C8EC" stroke-width="1.5"/>
</svg>