<svg xmlns="http://www.w3.org/2000/svg" width="40" height="40" viewBox="0 0 40 40" fill="none">
  <path d="M32.2834 18.667V28.0003C32.2834 33.0003 30.6167 34.667 25.6167 34.667H14.2834C9.28337 34.667 7.6167 33.0003 7.6167 28.0003V18.667H32.2834Z" fill="#D8C8EC"/>
  <path d="M35.8333 13.6663V15.333C35.8333 17.1663 34.95 18.6663 32.5 18.6663H7.49996C4.94996 18.6663 4.16663 17.1663 4.16663 15.333V13.6663C4.16663 11.833 4.94996 10.333 7.49996 10.333H32.5C34.95 10.333 35.8333 11.833 35.8333 13.6663Z" fill="#543D8C"/>
  <path d="M19.4 10.3337H10.2C9.6333 9.71706 9.64997 8.76706 10.25 8.16706L12.6166 5.80039C13.2333 5.18372 14.25 5.18372 14.8666 5.80039L19.4 10.3337Z" fill="#D8C8EC"/>
  <path d="M29.7834 10.3337H20.5834L25.1167 5.80039C25.7334 5.18372 26.75 5.18372 27.3667 5.80039L29.7334 8.16706C30.3334 8.76706 30.35 9.71706 29.7834 10.3337Z" fill="#D8C8EC"/>
  <path d="M14.9 18.667V27.2337C14.9 28.567 16.3667 29.3503 17.4834 28.6337L19.05 27.6003C19.6167 27.2337 20.3334 27.2337 20.8834 27.6003L22.3667 28.6003C23.4667 29.3337 24.95 28.5503 24.95 27.217V18.667H14.9Z" fill="#8B75B4"/>
</svg>