<svg xmlns="http://www.w3.org/2000/svg" width="40" height="41" viewBox="0 0 40 41" fill="none">
  <path d="M32.2834 19.1667V28.5C32.2834 33.5 30.6167 35.1667 25.6167 35.1667H14.2834C9.28337 35.1667 7.6167 33.5 7.6167 28.5V19.1667H32.2834Z" fill="#C7D7FE"/>
  <path d="M35.8333 14.1666V15.8333C35.8333 17.6666 34.95 19.1666 32.5 19.1666H7.49996C4.94996 19.1666 4.16663 17.6666 4.16663 15.8333V14.1666C4.16663 12.3333 4.94996 10.8333 7.49996 10.8333H32.5C34.95 10.8333 35.8333 12.3333 35.8333 14.1666Z" fill="#444CE7"/>
  <path d="M19.4 10.8334H10.2C9.6333 10.2167 9.64997 9.26669 10.25 8.66669L12.6166 6.30002C13.2333 5.68336 14.25 5.68336 14.8666 6.30002L19.4 10.8334Z" fill="#C7D7FE"/>
  <path d="M29.7834 10.8334H20.5834L25.1167 6.30002C25.7334 5.68336 26.75 5.68336 27.3667 6.30002L29.7334 8.66669C30.3334 9.26669 30.35 10.2167 29.7834 10.8334Z" fill="#C7D7FE"/>
  <path d="M15.4 27.7334V19.6667H24.45V27.7167C24.45 28.6476 23.4148 29.1968 22.645 28.6847C22.6447 28.6844 22.6444 28.6842 22.644 28.684L21.1629 27.6854L21.1607 27.684C20.4403 27.2037 19.5078 27.2083 18.7784 27.6802L18.7784 27.6802L18.7747 27.6826L17.2109 28.7141C16.4207 29.2188 15.4 28.6625 15.4 27.7334Z" fill="#8098F9" stroke="#8098F9"/>
</svg>