<svg width="80" height="80" viewBox="0 0 80 80" fill="none" xmlns="http://www.w3.org/2000/svg">
<rect width="80" height="80" rx="40" fill="#F7F0FF"/>
<path fill-rule="evenodd" clip-rule="evenodd" d="M30.6422 23.8992C31.0655 23.4917 31.6554 23.25 32.2857 23.25C34.2123 23.25 35.6127 24.5408 36.6564 26.3673C36.8737 26.7476 37.0628 27.1313 37.2259 27.5H32.2857C31.6554 27.5 31.0655 27.2583 30.6422 26.8508C30.2215 26.4459 30 25.9134 30 25.375C30 24.8366 30.2215 24.3041 30.6422 23.8992ZM47.7143 27.5H42.7741C42.9372 27.1313 43.1263 26.7476 43.3436 26.3673C44.3873 24.5408 45.7877 23.25 47.7143 23.25C48.3446 23.25 48.9345 23.4917 49.3578 23.8992C49.7785 24.3041 50 24.8366 50 25.375C50 25.9134 49.7785 26.4459 49.3578 26.8508C48.9345 27.2583 48.3446 27.5 47.7143 27.5ZM47.7143 19.25C43.771 19.25 41.3427 21.9061 40 24.161C38.6573 21.9061 36.229 19.25 32.2857 19.25C30.6428 19.25 29.0525 19.8775 27.8683 21.0172C26.6816 22.1595 26 23.7253 26 25.375C26 26.6986 26.4388 27.9683 27.2252 29.0085C23.7873 29.9051 21.25 33.0313 21.25 36.75V52.25C21.25 56.6683 24.8317 60.25 29.25 60.25H50.75C55.1683 60.25 58.75 56.6683 58.75 52.25V36.75C58.75 33.0313 56.2127 29.9051 52.7748 29.0085C53.5612 27.9683 54 26.6986 54 25.375C54 23.7253 53.3184 22.1595 52.1317 21.0172C50.9475 19.8775 49.3572 19.25 47.7143 19.25Z" fill="url(#paint0_linear_7300_274)"/>
<path d="M31 43.75H49" stroke="white" stroke-width="4" stroke-linecap="round"/>
<path d="M40 52.75L40 36.25" stroke="white" stroke-width="4" stroke-linecap="round"/>
<defs>
<linearGradient id="paint0_linear_7300_274" x1="23.7083" y1="34.9024" x2="55.2373" y2="42.9414" gradientUnits="userSpaceOnUse">
<stop stop-color="#9747FF"/>
<stop offset="1" stop-color="#7C5BFF"/>
</linearGradient>
</defs>
</svg>
