<?xml version="1.0" encoding="UTF-8"?>
<svg width="70px" height="70px" viewBox="0 0 70 70" version="1.1" xmlns="http://www.w3.org/2000/svg" xmlns:xlink="http://www.w3.org/1999/xlink">
    <title>编组</title>
    <g id="页面-1" stroke="none" stroke-width="1" fill="none" fill-rule="evenodd">
        <g id="Registering" transform="translate(-986.000000, -533.000000)">
            <g id="编组" transform="translate(986.000000, 533.000000)">
                <path d="M26.6793498,20.7051981 C29.0191674,17.2788134 32.9549781,15.0285881 37.4189668,15.0285881 C38.0346534,15.0285881 38.6409641,15.0754678 39.2347736,15.1588095 C39.3524937,14.4545723 39.4149999,13.7336668 39.4149999,12.9981764 C39.4149999,5.81933266 33.596709,0 26.418907,0 C19.2400632,0 13.4217724,5.81933266 13.4217724,12.9981764 C13.4217724,14.4597811 13.6676303,15.8651302 14.1124665,17.1767198 C15.1531957,16.9079429 16.2418464,16.7662621 17.3659173,16.7662621 C21.0194081,16.7662621 24.3186967,18.27683 26.6793498,20.7051981" id="Fill-13" fill="#5D8EF9"></path>
                <path d="M26.6803915,20.7032188 C24.3186967,18.2758924 21.0194081,16.7663662 17.3659173,16.7663662 C10.1881152,16.7663662 4.36982436,22.5846571 4.36982436,29.7624592 C4.36982436,31.2073955 4.60838991,32.5950344 5.04385018,33.8920393 L25.8219723,33.8920393 C24.9281328,32.1304046 24.4218321,30.1374967 24.4218321,28.0258269 C24.4218321,25.30993 25.2552489,22.7888442 26.6803915,20.7032188" id="Fill-15" fill="#FFBE1B"></path>
                <path d="M26.6803915,20.7032188 C28.7587246,17.6612475 32.0955171,15.5495777 35.9427773,15.1151592 C36.0927923,14.4327993 36.1730087,13.724395 36.1730087,12.9982806 C36.1730087,7.61024115 31.8069465,3.24105368 26.418907,3.24105368 C21.0308676,3.24105368 16.6627219,7.61024115 16.6627219,12.9982806 C16.6627219,14.3348728 16.9325405,15.6068751 17.4190476,16.7684498 C21.051703,16.7819928 24.331198,18.2883936 26.6803915,20.7032188" id="Fill-17" fill="#8AC9F9"></path>
                <path d="M25.114714,23.838741 C23.3322438,21.5114247 20.524671,20.0071074 17.3660214,20.0071074 C11.977982,20.0071074 7.60983626,24.3752531 7.60983626,29.7632926 C7.60983626,31.239482 7.94007766,32.6385805 8.52659472,33.8918309 L25.8220764,33.8918309 C24.9282369,32.1301962 24.4219363,30.1372883 24.4219363,28.0266604 C24.4219363,26.5598468 24.6667524,25.153456 25.114714,23.838741" id="Fill-23" fill="#FFE37B"></path>
                <path d="M49.0133568,33.8921435 C49.9071963,32.1305088 50.4145388,30.1376009 50.4145388,28.0259311 C50.4145388,20.8481291 44.5952061,15.0287964 37.4184459,15.0287964 C30.2396021,15.0287964 24.422353,20.8481291 24.422353,28.0259311 C24.422353,30.1376009 24.9286537,32.1305088 25.8214514,33.8921435 L49.0133568,33.8921435 Z" id="Fill-25" fill="#330D84"></path>
                <path d="M45.2115178,33.8921435 C46.4428911,32.2607301 47.1742143,30.2271932 47.1742143,28.0259311 C47.1742143,22.6378916 42.8050269,18.2697459 37.4190709,18.2697459 C32.0310315,18.2697459 27.661844,22.6378916 27.661844,28.0259311 C27.661844,30.2271932 28.3921254,32.2607301 29.6245405,33.8921435 L45.2115178,33.8921435 Z" id="Fill-29" fill="#5932AE"></path>
                <path d="M11.9613136,59.8367204 C11.9581883,59.8440127 11.9529795,59.8513051 11.9498541,59.8575558 L11.2289486,59.8575558 C10.6257632,59.8575558 10.0496639,59.6939977 9.55169736,59.4033436 L8.34532657,59.4033436 C7.27855309,59.4033436 6.41388319,60.2680135 6.41388319,61.3358288 C6.41388319,62.4026023 7.27855309,63.2683139 8.34532657,63.2683139 L11.2695777,63.2683139 C11.2570764,63.1068394 11.2487423,62.9422396 11.2487423,62.7776398 C11.2487423,61.717117 11.5071015,60.7191004 11.9613136,59.8367204" id="Fill-33" fill="#330D84"></path>
                <path d="M12.1169542,59.5559631 C12.1367479,59.5226264 12.154458,59.488248 12.1742516,59.4538695 C12.154458,59.488248 12.1367479,59.5226264 12.1169542,59.5559631" id="Fill-35" fill="#330D84"></path>
                <path d="M42.7667939,59.5437744 C42.7490838,59.5146048 42.7334572,59.4823099 42.7147053,59.4531403 C42.7334572,59.4823099 42.7490838,59.5146048 42.7667939,59.5437744" id="Fill-37" fill="#330D84"></path>
                <path d="M61.3019831,29.2632425 C61.1405086,28.5298357 61.2832312,27.8016378 61.6457675,27.2078284 L58.2277169,27.9651959 C57.5891113,28.1068767 57.0651005,28.5610889 56.8359109,29.1736502 L53.9283281,36.4045825 C54.0866773,37.0265198 54.0689672,37.7057545 53.8231092,38.3714461 L45.9264852,57.6775458 C45.6931285,58.3130261 45.2795455,58.8432876 44.7576182,59.2214504 L44.6846942,59.4037603 L44.4742565,59.4037603 C44.0148355,59.6694119 43.4897829,59.8308864 42.9376443,59.8527636 C42.934519,59.846513 42.9303519,59.8413041 42.9282684,59.8350535 C43.3824805,60.7163918 43.6408397,61.7164919 43.6408397,62.7780565 C43.6408397,62.9426563 43.6325056,63.1062144 43.6200043,63.2687307 L46.0244117,63.2687307 C46.8297007,63.2687307 47.551648,62.7676388 47.8339679,62.0133966 L60.0872781,31.5113843 L62.4791843,30.9811228 C61.8999596,30.5956676 61.4644993,29.9945657 61.3019831,29.2632425" id="Fill-39" fill="#330D84"></path>
                <path d="M31.4710796,59.8367204 C31.4679542,59.8440127 31.4637872,59.8513051 31.4596201,59.8575558 L23.4296494,59.8575558 C23.4265241,59.8513051 23.422357,59.8450545 23.4192317,59.8377621 C23.8724021,60.7201421 24.1307613,61.7192005 24.1307613,62.7776398 C24.1307613,62.9422396 24.1224271,63.1068394 24.1109676,63.2683139 L30.7793436,63.2683139 C30.7668424,63.1068394 30.75955,62.9422396 30.75955,62.7776398 C30.75955,61.717117 31.0168674,60.7191004 31.4710796,59.8367204" id="Fill-41" fill="#330D84"></path>
                <path d="M23.2590073,59.548879 C23.2412972,59.5186677 23.2246289,59.4863728 23.205877,59.4561614 C23.2246289,59.4863728 23.2412972,59.5186677 23.2590073,59.548879" id="Fill-43" fill="#330D84"></path>
                <path d="M31.6257825,59.5580466 C31.646618,59.5236682 31.6643281,59.4892897 31.6851635,59.4538695 C31.6643281,59.4892897 31.646618,59.5236682 31.6257825,59.5580466" id="Fill-45" fill="#330D84"></path>
                <path d="M64.0244431,31.4505448 C62.7441066,31.4505448 61.5908661,30.5639977 61.3022956,29.2628258 C60.9689289,27.7574667 61.919024,26.2677342 63.4243831,25.9343675 L66.6049098,25.2301303 C68.1081854,24.8967636 69.6000014,25.8468588 69.9333681,27.3511761 C70.2667348,28.8565351 69.3166397,30.3462676 67.8112806,30.6806761 L64.6307539,31.3849133 C64.4276085,31.4297094 64.2244632,31.4505448 64.0244431,31.4505448" id="Fill-47" fill="#FFBE1B"></path>
                <path d="M50.7000882,33.8921435 L3.33076199,33.8921435 C1.01594688,33.8921435 -0.591505733,36.1975826 0.207532605,38.3717587 L8.10415659,57.6778584 C8.58649655,58.9884062 9.83349641,59.8572432 11.2284277,59.8572432 L11.950375,59.8572432 C13.0140232,57.7684924 15.1840321,56.3370991 17.6894913,56.3370991 C20.1949505,56.3370991 22.3660012,57.7684924 23.4296494,59.8572432 L31.4596201,59.8572432 C32.5253518,57.7684924 34.6943189,56.3370991 37.2008199,56.3370991 C39.7031538,56.3370991 41.872121,57.7653671 42.9378527,59.8530762 C44.2775701,59.7978623 45.4599802,58.9456936 45.9266936,57.6778584 L53.8233176,38.3717587 C54.6244395,36.1975826 53.0159451,33.8921435 50.7000882,33.8921435" id="Fill-49" fill="#6857E5"></path>
                <path d="M43.6407355,62.7779523 C43.6407355,66.3356002 40.7571135,69.2192223 37.2005074,69.2192223 C33.6428595,69.2192223 30.7602792,66.3356002 30.7602792,62.7779523 C30.7602792,59.2203045 33.6428595,56.3366824 37.2005074,56.3366824 C40.7571135,56.3366824 43.6407355,59.2203045 43.6407355,62.7779523" id="Fill-51" fill="#5D8EF9"></path>
                <path d="M39.701487,62.7779523 C39.701487,64.1593407 38.5826249,65.2792445 37.2012366,65.2792445 C35.8188065,65.2792445 34.697861,64.1593407 34.697861,62.7779523 C34.697861,61.3955223 35.8188065,60.2766602 37.2012366,60.2766602 C38.5826249,60.2766602 39.701487,61.3955223 39.701487,62.7779523" id="Fill-53" fill="#FFBE1B"></path>
                <path d="M24.1308654,62.7779523 C24.1308654,66.3356002 21.2462016,69.2192223 17.6895955,69.2192223 C14.1329894,69.2192223 11.2493673,66.3356002 11.2493673,62.7779523 C11.2493673,59.2203045 14.1329894,56.3366824 17.6895955,56.3366824 C21.2462016,56.3366824 24.1308654,59.2203045 24.1308654,62.7779523" id="Fill-55" fill="#5D8EF9"></path>
                <path d="M20.191721,62.7779523 C20.191721,64.1593407 19.0718172,65.2792445 17.6904289,65.2792445 C16.3079988,65.2792445 15.188095,64.1593407 15.188095,62.7779523 C15.188095,61.3955223 16.3079988,60.2766602 17.6904289,60.2766602 C19.0718172,60.2766602 20.191721,61.3955223 20.191721,62.7779523" id="Fill-57" fill="#FFBE1B"></path>
                <text id="Free" font-family=".AppleSystemUIFont" font-size="14" font-weight="normal" fill="#FFFFFF">
                    <tspan x="11.3235294" y="51.2941176">Free</tspan>
                </text>
            </g>
        </g>
    </g>
</svg>