<svg width="303" height="74" viewBox="0 0 303 74" fill="none" xmlns="http://www.w3.org/2000/svg">
<g filter="url(#filter0_b_8729_428)">
<path fill-rule="evenodd" clip-rule="evenodd" d="M21 5C12.1634 5 5 12.1634 5 21V47C5 55.8366 12.1634 63 21 63H222.179C224.779 63 227.211 64.2872 229.137 66.0348C232.232 68.8444 236.936 72.0356 241.596 73.8017C243.598 74.5604 245.321 72.6645 244.702 70.6151C244.679 70.5385 244.656 70.4624 244.633 70.3868C243.401 66.3089 246.303 63 250.563 63H287C295.837 63 303 55.8366 303 47V21C303 12.1634 295.837 5 287 5H21Z" fill="url(#paint0_linear_8729_428)" fill-opacity="0.9"/>
<path fill-rule="evenodd" clip-rule="evenodd" d="M21 5C12.1634 5 5 12.1634 5 21V47C5 55.8366 12.1634 63 21 63H222.179C224.779 63 227.211 64.2872 229.137 66.0348C232.232 68.8444 236.936 72.0356 241.596 73.8017C243.598 74.5604 245.321 72.6645 244.702 70.6151C244.679 70.5385 244.656 70.4624 244.633 70.3868C243.401 66.3089 246.303 63 250.563 63H287C295.837 63 303 55.8366 303 47V21C303 12.1634 295.837 5 287 5H21Z" fill="url(#paint1_linear_8729_428)" fill-opacity="0.5"/>
</g>
<path d="M239.57 62.7378L238.603 62.9956L239.57 62.7378ZM237.596 69.8017L237.241 70.7368L237.596 69.8017ZM240.702 66.6151L241.659 66.3259V66.3259L240.702 66.6151ZM223.654 60.5893L224.38 59.9023L223.654 60.5893ZM2 17C2 8.71573 8.71573 2 17 2V0C7.61116 0 0 7.61116 0 17H2ZM2 43V17H0V43H2ZM17 58C8.71573 58 2 51.2843 2 43H0C0 52.3888 7.61116 60 17 60V58ZM220.252 58H17V60H220.252V58ZM237.95 68.8666C232.619 66.8462 227.199 62.8837 224.38 59.9023L222.927 61.2763C225.934 64.4572 231.603 68.6001 237.241 70.7368L237.95 68.8666ZM238.603 62.9956C238.905 64.1243 239.298 65.4268 239.745 66.9044L241.659 66.3259C241.21 64.8384 240.827 63.5704 240.536 62.48L238.603 62.9956ZM283 58H242.762V60H283V58ZM298 43C298 51.2843 291.284 58 283 58V60C292.389 60 300 52.3888 300 43H298ZM298 17V43H300V17H298ZM283 2C291.284 2 298 8.71573 298 17H300C300 7.61116 292.389 0 283 0V2ZM17 2H283V0H17V2ZM240.536 62.48C240.349 61.7795 240.529 61.19 240.909 60.7606C241.303 60.3161 241.957 60 242.762 60V58C241.437 58 240.22 58.5238 239.413 59.4337C238.593 60.3586 238.241 61.6381 238.603 62.9956L240.536 62.48ZM237.241 70.7368C238.632 71.264 239.986 70.8668 240.857 69.9503C241.713 69.0496 242.071 67.6882 241.659 66.3259L239.745 66.9044C239.952 67.5914 239.758 68.2027 239.407 68.5726C239.07 68.9267 238.561 69.0981 237.95 68.8666L237.241 70.7368ZM220.252 60C221.216 60 222.176 60.4819 222.927 61.2763L224.38 59.9023C223.345 58.8071 221.889 58 220.252 58V60Z" fill="#0E0E2C"/>
<path d="M17.06 21.432H18.752L21.152 25.284L23.54 21.432H25.232L21.848 26.592V30H20.444V26.592L17.06 21.432ZM28.8969 23.628C29.8329 23.628 30.5889 23.928 31.1649 24.552C31.7289 25.164 32.0169 25.944 32.0169 26.904C32.0169 27.852 31.7289 28.632 31.1769 29.232C30.6009 29.856 29.8329 30.168 28.8969 30.168C27.9489 30.168 27.1929 29.856 26.6169 29.232C26.0529 28.632 25.7769 27.852 25.7769 26.904C25.7769 25.944 26.0529 25.164 26.6289 24.552C27.1929 23.928 27.9489 23.628 28.8969 23.628ZM28.8969 24.744C28.3209 24.744 27.8889 24.96 27.5769 25.416C27.3129 25.8 27.1809 26.304 27.1809 26.904C27.1809 27.504 27.3129 27.996 27.5769 28.38C27.8889 28.824 28.3209 29.052 28.8969 29.052C29.4609 29.052 29.9049 28.824 30.2169 28.38C30.4809 27.984 30.6249 27.492 30.6249 26.904C30.6249 26.304 30.4809 25.8 30.2169 25.416C29.9049 24.96 29.4609 24.744 28.8969 24.744ZM33.2122 23.796H34.5802V27.576C34.5802 28.08 34.6762 28.44 34.8922 28.68C35.1082 28.908 35.4442 29.028 35.9242 29.028C36.2242 29.028 36.5122 28.896 36.7882 28.644C37.0642 28.38 37.2682 28.032 37.3882 27.588V23.796H38.7562V30H37.3882V29.196C36.8602 29.844 36.2122 30.168 35.4442 30.168C33.9562 30.168 33.2122 29.328 33.2122 27.66V23.796ZM47.3367 21.264C48.3447 21.264 49.1367 21.468 49.7007 21.888C50.3007 22.332 50.6487 23.028 50.7327 23.964H49.3407C49.2207 23.436 48.9927 23.052 48.6807 22.824C48.3687 22.584 47.8887 22.476 47.2647 22.476C46.7247 22.476 46.3167 22.548 46.0287 22.704C45.6687 22.884 45.5007 23.184 45.5007 23.592C45.5007 23.952 45.6927 24.252 46.1007 24.468C46.2807 24.564 46.7727 24.744 47.5647 24.996C48.7287 25.356 49.4727 25.644 49.8087 25.836C50.5527 26.28 50.9247 26.892 50.9247 27.684C50.9247 28.452 50.6247 29.064 50.0247 29.508C49.4247 29.94 48.5727 30.168 47.4807 30.168C46.4247 30.168 45.5967 29.964 45.0087 29.556C44.2887 29.052 43.8927 28.26 43.8327 27.168H45.2247C45.3207 27.816 45.5487 28.284 45.9207 28.56C46.2567 28.8 46.7727 28.932 47.4807 28.932C48.1047 28.932 48.6087 28.824 48.9687 28.62C49.3287 28.404 49.5207 28.128 49.5207 27.768C49.5207 27.312 49.2447 26.952 48.7167 26.688C48.5487 26.604 47.9967 26.412 47.0487 26.124C45.9927 25.788 45.3327 25.548 45.0807 25.404C44.4207 25.008 44.0967 24.432 44.0967 23.676C44.0967 22.92 44.4087 22.32 45.0567 21.888C45.6567 21.468 46.4127 21.264 47.3367 21.264ZM53.9531 21.792V23.796H55.3331V24.924H53.9531V28.428C53.9531 28.572 53.9771 28.68 54.0491 28.764C54.1211 28.836 54.2171 28.872 54.3611 28.872H55.1771V30H54.1331C53.5931 30 53.1971 29.856 52.9451 29.568C52.7051 29.304 52.5851 28.932 52.5851 28.428V24.924H51.4691V23.796H52.5851V22.356L53.9531 21.792ZM57.2807 21.264C57.5447 21.264 57.7727 21.348 57.9527 21.516C58.1207 21.684 58.2167 21.9 58.2167 22.164C58.2167 22.428 58.1207 22.656 57.9407 22.824C57.7607 22.992 57.5447 23.076 57.2807 23.076C57.0167 23.076 56.8007 22.992 56.6207 22.824C56.4407 22.644 56.3567 22.428 56.3567 22.164C56.3567 21.9 56.4407 21.684 56.6207 21.516C56.8007 21.348 57.0167 21.264 57.2807 21.264ZM56.5967 23.796H57.9647V30H56.5967V23.796ZM59.7814 21.264H61.1494V30H59.7814V21.264ZM62.8283 21.264H64.1963V30H62.8283V21.264ZM69.8713 21.432H71.2753V25.008H75.6193V21.432H77.0233V30H75.6193V26.208H71.2753V30H69.8713V21.432ZM81.4072 23.628C82.3192 23.628 83.0032 23.856 83.4352 24.312C83.8192 24.708 84.0112 25.284 84.0112 26.04V30H82.7392V29.184C82.4992 29.496 82.1992 29.724 81.8512 29.892C81.4552 30.072 80.9872 30.168 80.4472 30.168C79.7992 30.168 79.2952 30 78.9232 29.676C78.5392 29.34 78.3472 28.92 78.3472 28.404C78.3472 27.708 78.6112 27.168 79.1632 26.796C79.6672 26.436 80.3752 26.244 81.2872 26.22L82.6432 26.184V25.944C82.6432 25.128 82.1992 24.732 81.3112 24.732C80.9272 24.732 80.6272 24.792 80.3992 24.936C80.1352 25.092 79.9552 25.332 79.8832 25.656L78.5272 25.548C78.6592 24.864 78.9952 24.36 79.5352 24.048C79.9912 23.76 80.6152 23.628 81.4072 23.628ZM82.6432 27.168L81.3832 27.204C80.2912 27.228 79.7512 27.612 79.7512 28.356C79.7512 28.572 79.8352 28.752 80.0272 28.896C80.2192 29.04 80.4592 29.124 80.7592 29.124C81.2872 29.124 81.7312 28.968 82.0912 28.668C82.4512 28.356 82.6432 27.96 82.6432 27.48V27.168ZM84.7944 23.796H86.2824L87.7704 28.296L89.2584 23.796H90.7464L88.4544 30H87.0864L84.7944 23.796ZM94.1647 23.628C95.1847 23.628 95.9647 23.964 96.5047 24.66C96.9967 25.284 97.2487 26.16 97.2487 27.276H92.6047C92.6527 27.852 92.8087 28.296 93.0727 28.596C93.3367 28.896 93.7207 29.052 94.2127 29.052C94.6327 29.052 94.9687 28.956 95.2327 28.764C95.4367 28.608 95.6167 28.356 95.7847 28.008H97.1527C97.0087 28.584 96.7207 29.076 96.2887 29.46C95.7367 29.928 95.0527 30.168 94.2247 30.168C93.3007 30.168 92.5687 29.88 92.0287 29.316C91.4527 28.728 91.1647 27.924 91.1647 26.892C91.1647 25.968 91.4287 25.2 91.9807 24.576C92.5087 23.94 93.2407 23.628 94.1647 23.628ZM94.2007 24.744C93.7447 24.744 93.3967 24.864 93.1327 25.128C92.8807 25.38 92.7127 25.752 92.6287 26.244H95.8207C95.7007 25.236 95.1607 24.744 94.2007 24.744ZM104.885 21.432H106.481L109.757 30H108.257L107.477 27.852H103.889L103.109 30H101.609L104.885 21.432ZM104.309 26.7H107.057L105.713 22.944H105.665L104.309 26.7ZM113.678 23.628C115.226 23.628 116.006 24.468 116.006 26.172V30H114.638V26.292C114.638 25.272 114.17 24.768 113.234 24.768C112.898 24.768 112.598 24.888 112.346 25.128C112.058 25.392 111.89 25.776 111.842 26.268V30H110.474V23.796H111.842V24.516C112.082 24.228 112.358 24 112.658 23.856C112.97 23.7 113.306 23.628 113.678 23.628ZM125.367 21.264C126.675 21.264 127.707 21.684 128.463 22.536C129.183 23.34 129.543 24.408 129.543 25.728C129.543 27.048 129.183 28.104 128.463 28.908C127.707 29.748 126.675 30.168 125.367 30.168C124.047 30.168 123.015 29.736 122.271 28.896C121.551 28.08 121.203 27.024 121.203 25.728C121.203 24.42 121.551 23.364 122.271 22.548C123.015 21.684 124.047 21.264 125.367 21.264ZM125.367 22.5C124.479 22.5 123.795 22.8 123.303 23.4C122.835 23.976 122.607 24.744 122.607 25.728C122.607 26.7 122.835 27.468 123.303 28.044C123.783 28.632 124.479 28.932 125.367 28.932C126.255 28.932 126.939 28.644 127.419 28.08C127.887 27.516 128.127 26.736 128.127 25.728C128.127 24.72 127.887 23.928 127.419 23.352C126.939 22.776 126.255 22.5 125.367 22.5ZM130.747 23.796H132.115V27.576C132.115 28.08 132.211 28.44 132.427 28.68C132.643 28.908 132.979 29.028 133.459 29.028C133.759 29.028 134.047 28.896 134.323 28.644C134.599 28.38 134.803 28.032 134.923 27.588V23.796H136.291V30H134.923V29.196C134.395 29.844 133.747 30.168 132.979 30.168C131.491 30.168 130.747 29.328 130.747 27.66V23.796ZM139.676 21.792V23.796H141.056V24.924H139.676V28.428C139.676 28.572 139.7 28.68 139.772 28.764C139.844 28.836 139.94 28.872 140.084 28.872H140.9V30H139.856C139.316 30 138.92 29.856 138.668 29.568C138.428 29.304 138.308 28.932 138.308 28.428V24.924H137.192V23.796H138.308V22.356L139.676 21.792ZM144.419 23.628C146.051 23.628 146.951 24.276 147.095 25.596H145.763C145.667 25.284 145.523 25.056 145.331 24.936C145.127 24.804 144.815 24.744 144.395 24.744C144.035 24.744 143.759 24.792 143.579 24.9C143.363 25.008 143.267 25.176 143.267 25.416C143.267 25.608 143.423 25.788 143.759 25.932C143.963 26.016 144.371 26.136 144.995 26.292C145.691 26.46 146.219 26.652 146.555 26.88C147.047 27.192 147.299 27.636 147.299 28.188C147.299 29.508 146.363 30.168 144.503 30.168C142.775 30.168 141.851 29.436 141.719 27.984H143.051C143.123 28.38 143.267 28.656 143.471 28.824C143.675 28.968 143.999 29.052 144.455 29.052C145.415 29.052 145.895 28.788 145.895 28.284C145.895 27.996 145.715 27.768 145.355 27.6C145.163 27.504 144.755 27.396 144.131 27.252C143.399 27.084 142.883 26.904 142.583 26.712C142.103 26.412 141.863 25.992 141.863 25.452C141.863 24.876 142.091 24.432 142.571 24.12C143.039 23.784 143.651 23.628 144.419 23.628ZM150.328 21.792V23.796H151.708V24.924H150.328V28.428C150.328 28.572 150.352 28.68 150.424 28.764C150.496 28.836 150.592 28.872 150.736 28.872H151.552V30H150.508C149.968 30 149.572 29.856 149.32 29.568C149.08 29.304 148.96 28.932 148.96 28.428V24.924H147.844V23.796H148.96V22.356L150.328 21.792ZM155.552 23.628C156.464 23.628 157.148 23.856 157.58 24.312C157.964 24.708 158.156 25.284 158.156 26.04V30H156.884V29.184C156.644 29.496 156.344 29.724 155.996 29.892C155.6 30.072 155.132 30.168 154.592 30.168C153.944 30.168 153.44 30 153.068 29.676C152.684 29.34 152.492 28.92 152.492 28.404C152.492 27.708 152.756 27.168 153.308 26.796C153.812 26.436 154.52 26.244 155.432 26.22L156.788 26.184V25.944C156.788 25.128 156.344 24.732 155.456 24.732C155.072 24.732 154.772 24.792 154.544 24.936C154.28 25.092 154.1 25.332 154.028 25.656L152.672 25.548C152.804 24.864 153.14 24.36 153.68 24.048C154.136 23.76 154.76 23.628 155.552 23.628ZM156.788 27.168L155.528 27.204C154.436 27.228 153.896 27.612 153.896 28.356C153.896 28.572 153.98 28.752 154.172 28.896C154.364 29.04 154.604 29.124 154.904 29.124C155.432 29.124 155.876 28.968 156.236 28.668C156.596 28.356 156.788 27.96 156.788 27.48V27.168ZM162.803 23.628C164.351 23.628 165.131 24.468 165.131 26.172V30H163.763V26.292C163.763 25.272 163.295 24.768 162.359 24.768C162.023 24.768 161.723 24.888 161.471 25.128C161.183 25.392 161.015 25.776 160.967 26.268V30H159.599V23.796H160.967V24.516C161.207 24.228 161.483 24 161.783 23.856C162.095 23.7 162.431 23.628 162.803 23.628ZM170.988 21.264H172.356V30H171.084V29.34C170.652 29.892 170.028 30.168 169.212 30.168C168.288 30.168 167.568 29.844 167.052 29.196C166.572 28.596 166.332 27.816 166.332 26.868C166.332 25.956 166.56 25.2 167.04 24.6C167.544 23.952 168.252 23.628 169.14 23.628C169.86 23.628 170.472 23.964 170.988 24.648V21.264ZM169.464 24.732C168.84 24.732 168.396 24.936 168.108 25.344C167.856 25.692 167.736 26.196 167.736 26.868C167.736 27.54 167.844 28.056 168.084 28.416C168.36 28.848 168.804 29.064 169.416 29.064C169.944 29.064 170.364 28.848 170.652 28.428C170.904 28.044 171.036 27.54 171.036 26.94V26.844C171.036 26.184 170.868 25.656 170.556 25.272C170.268 24.912 169.896 24.732 169.464 24.732ZM174.714 21.264C174.978 21.264 175.206 21.348 175.386 21.516C175.554 21.684 175.65 21.9 175.65 22.164C175.65 22.428 175.554 22.656 175.374 22.824C175.194 22.992 174.978 23.076 174.714 23.076C174.45 23.076 174.234 22.992 174.054 22.824C173.874 22.644 173.79 22.428 173.79 22.164C173.79 21.9 173.874 21.684 174.054 21.516C174.234 21.348 174.45 21.264 174.714 21.264ZM174.03 23.796H175.398V30H174.03V23.796ZM180.299 23.628C181.847 23.628 182.627 24.468 182.627 26.172V30H181.259V26.292C181.259 25.272 180.791 24.768 179.855 24.768C179.519 24.768 179.219 24.888 178.967 25.128C178.679 25.392 178.511 25.776 178.463 26.268V30H177.095V23.796H178.463V24.516C178.703 24.228 178.979 24 179.279 23.856C179.591 23.7 179.927 23.628 180.299 23.628ZM186.648 23.628C187.416 23.628 188.028 23.928 188.484 24.552V23.796H189.852V29.604C189.852 31.56 188.88 32.544 186.936 32.544C186.06 32.544 185.4 32.376 184.944 32.064C184.488 31.728 184.2 31.224 184.08 30.528H185.448C185.52 30.876 185.664 31.116 185.892 31.26C186.108 31.392 186.456 31.464 186.936 31.464C187.968 31.464 188.484 30.912 188.484 29.808V28.896C188.028 29.532 187.416 29.856 186.648 29.856C185.808 29.856 185.124 29.568 184.608 29.016C184.08 28.452 183.828 27.696 183.828 26.76C183.828 25.824 184.08 25.068 184.608 24.492C185.124 23.916 185.808 23.628 186.648 23.628ZM186.864 24.732C186.348 24.732 185.952 24.912 185.664 25.272C185.376 25.62 185.232 26.112 185.232 26.76C185.232 27.348 185.34 27.804 185.568 28.14C185.832 28.536 186.252 28.74 186.852 28.74C187.38 28.74 187.788 28.56 188.076 28.224C188.352 27.864 188.496 27.384 188.496 26.76C188.496 26.124 188.352 25.632 188.076 25.272C187.788 24.912 187.38 24.732 186.864 24.732ZM195.403 21.432H199.327C200.179 21.432 200.851 21.636 201.331 22.044C201.775 22.428 202.003 22.944 202.003 23.592C202.003 24.072 201.883 24.48 201.655 24.816C201.427 25.128 201.103 25.356 200.671 25.524C201.235 25.632 201.655 25.86 201.943 26.208C202.219 26.544 202.363 27.012 202.363 27.588C202.363 28.452 202.062 29.088 201.475 29.496C200.971 29.832 200.251 30 199.339 30H195.403V21.432ZM196.807 22.584V25.032H198.955C199.555 25.032 199.975 24.924 200.227 24.732C200.467 24.528 200.599 24.204 200.599 23.76C200.599 23.352 200.467 23.052 200.227 22.872C199.963 22.68 199.555 22.584 198.979 22.584H196.807ZM196.807 26.184V28.848H199.135C199.663 28.848 200.083 28.764 200.383 28.596C200.767 28.38 200.959 28.044 200.959 27.564C200.959 27.072 200.815 26.724 200.539 26.508C200.251 26.292 199.795 26.184 199.171 26.184H196.807ZM206.208 23.628C207.228 23.628 208.008 23.964 208.548 24.66C209.04 25.284 209.292 26.16 209.292 27.276H204.648C204.696 27.852 204.852 28.296 205.116 28.596C205.38 28.896 205.764 29.052 206.256 29.052C206.676 29.052 207.012 28.956 207.276 28.764C207.48 28.608 207.66 28.356 207.828 28.008H209.196C209.052 28.584 208.764 29.076 208.332 29.46C207.78 29.928 207.096 30.168 206.268 30.168C205.344 30.168 204.612 29.88 204.072 29.316C203.496 28.728 203.208 27.924 203.208 26.892C203.208 25.968 203.472 25.2 204.024 24.576C204.552 23.94 205.284 23.628 206.208 23.628ZM206.244 24.744C205.788 24.744 205.44 24.864 205.176 25.128C204.924 25.38 204.756 25.752 204.672 26.244H207.864C207.744 25.236 207.204 24.744 206.244 24.744ZM213.58 23.628C215.128 23.628 215.908 24.468 215.908 26.172V30H214.54V26.292C214.54 25.272 214.072 24.768 213.136 24.768C212.8 24.768 212.5 24.888 212.248 25.128C211.96 25.392 211.792 25.776 211.744 26.268V30H210.376V23.796H211.744V24.516C211.984 24.228 212.26 24 212.56 23.856C212.872 23.7 213.208 23.628 213.58 23.628ZM219.989 23.628C221.009 23.628 221.789 23.964 222.329 24.66C222.821 25.284 223.073 26.16 223.073 27.276H218.429C218.477 27.852 218.633 28.296 218.897 28.596C219.161 28.896 219.545 29.052 220.037 29.052C220.457 29.052 220.793 28.956 221.057 28.764C221.261 28.608 221.441 28.356 221.609 28.008H222.977C222.833 28.584 222.545 29.076 222.113 29.46C221.561 29.928 220.877 30.168 220.049 30.168C219.125 30.168 218.393 29.88 217.853 29.316C217.277 28.728 216.989 27.924 216.989 26.892C216.989 25.968 217.253 25.2 217.805 24.576C218.333 23.94 219.065 23.628 219.989 23.628ZM220.025 24.744C219.569 24.744 219.221 24.864 218.957 25.128C218.705 25.38 218.537 25.752 218.453 26.244H221.645C221.525 25.236 220.985 24.744 220.025 24.744ZM226.594 21.432H227.914V22.584H226.786C226.605 22.584 226.474 22.632 226.378 22.728C226.282 22.824 226.246 22.968 226.246 23.172V23.796H230.049V30H228.682V24.912H226.246V30H224.878V24.912H223.498V23.796H224.878V23.136C224.878 22.608 225.021 22.188 225.322 21.888C225.61 21.576 226.042 21.432 226.594 21.432ZM233.555 21.792V23.796H234.935V24.924H233.555V28.428C233.555 28.572 233.579 28.68 233.651 28.764C233.723 28.836 233.819 28.872 233.963 28.872H234.779V30H233.735C233.195 30 232.799 29.856 232.547 29.568C232.307 29.304 232.187 28.932 232.187 28.428V24.924H231.071V23.796H232.187V22.356L233.555 21.792ZM239.414 21.432H246.434V22.632H243.626V30H242.222V22.632H239.414V21.432ZM250.217 23.628C251.153 23.628 251.909 23.928 252.485 24.552C253.049 25.164 253.337 25.944 253.337 26.904C253.337 27.852 253.049 28.632 252.497 29.232C251.921 29.856 251.153 30.168 250.217 30.168C249.269 30.168 248.513 29.856 247.937 29.232C247.373 28.632 247.097 27.852 247.097 26.904C247.097 25.944 247.373 25.164 247.949 24.552C248.513 23.928 249.269 23.628 250.217 23.628ZM250.217 24.744C249.641 24.744 249.209 24.96 248.897 25.416C248.633 25.8 248.501 26.304 248.501 26.904C248.501 27.504 248.633 27.996 248.897 28.38C249.209 28.824 249.641 29.052 250.217 29.052C250.781 29.052 251.225 28.824 251.537 28.38C251.801 27.984 251.945 27.492 251.945 26.904C251.945 26.304 251.801 25.8 251.537 25.416C251.225 24.96 250.781 24.744 250.217 24.744ZM262.369 21.264C263.377 21.264 264.217 21.528 264.865 22.056C265.489 22.56 265.861 23.256 265.993 24.12H264.625C264.481 23.556 264.217 23.148 263.821 22.884C263.437 22.62 262.945 22.5 262.345 22.5C261.445 22.5 260.773 22.8 260.317 23.424C259.897 23.976 259.693 24.744 259.693 25.728C259.693 26.736 259.897 27.516 260.305 28.056C260.749 28.632 261.445 28.932 262.381 28.932C262.993 28.932 263.497 28.776 263.881 28.488C264.289 28.164 264.577 27.672 264.745 27.024H266.113C265.921 28.032 265.477 28.812 264.769 29.376C264.109 29.904 263.317 30.168 262.393 30.168C260.965 30.168 259.897 29.712 259.201 28.824C258.589 28.056 258.289 27.024 258.289 25.728C258.289 24.456 258.601 23.412 259.237 22.62C259.957 21.708 261.001 21.264 262.369 21.264ZM267.438 21.264H268.806V30H267.438V21.264ZM273.185 23.628C274.097 23.628 274.781 23.856 275.213 24.312C275.597 24.708 275.789 25.284 275.789 26.04V30H274.517V29.184C274.277 29.496 273.977 29.724 273.629 29.892C273.233 30.072 272.765 30.168 272.225 30.168C271.577 30.168 271.073 30 270.701 29.676C270.317 29.34 270.125 28.92 270.125 28.404C270.125 27.708 270.389 27.168 270.941 26.796C271.445 26.436 272.153 26.244 273.065 26.22L274.421 26.184V25.944C274.421 25.128 273.977 24.732 273.089 24.732C272.705 24.732 272.405 24.792 272.177 24.936C271.913 25.092 271.733 25.332 271.661 25.656L270.305 25.548C270.437 24.864 270.773 24.36 271.313 24.048C271.769 23.76 272.393 23.628 273.185 23.628ZM274.421 27.168L273.161 27.204C272.069 27.228 271.529 27.612 271.529 28.356C271.529 28.572 271.613 28.752 271.805 28.896C271.997 29.04 272.237 29.124 272.537 29.124C273.065 29.124 273.509 28.968 273.869 28.668C274.229 28.356 274.421 27.96 274.421 27.48V27.168ZM278.156 21.264C278.42 21.264 278.648 21.348 278.828 21.516C278.996 21.684 279.092 21.9 279.092 22.164C279.092 22.428 278.996 22.656 278.816 22.824C278.636 22.992 278.42 23.076 278.156 23.076C277.892 23.076 277.676 22.992 277.496 22.824C277.316 22.644 277.232 22.428 277.232 22.164C277.232 21.9 277.316 21.684 277.496 21.516C277.676 21.348 277.892 21.264 278.156 21.264ZM277.472 23.796H278.84V30H277.472V23.796ZM283.584 23.628C284.496 23.628 285.144 23.964 285.54 24.636C285.828 24.252 286.128 23.988 286.44 23.844C286.716 23.7 287.064 23.628 287.484 23.628C288.12 23.628 288.648 23.832 289.08 24.264C289.488 24.696 289.704 25.248 289.704 25.932V30H288.336V26.172C288.336 25.68 288.228 25.32 288.024 25.104C287.808 24.876 287.472 24.768 286.992 24.768C286.656 24.768 286.38 24.888 286.152 25.152C285.912 25.404 285.804 25.752 285.804 26.208V30H284.436V26.184C284.436 25.236 284.028 24.768 283.212 24.768C282.816 24.768 282.504 24.912 282.264 25.224C282.024 25.512 281.904 25.872 281.904 26.28V30H280.536V23.796H281.904V24.432C282.42 23.892 282.984 23.628 283.584 23.628Z" fill="white"/>
<path d="M21.56 38.264C22.664 38.264 23.528 38.504 24.164 38.996C24.776 39.476 25.16 40.184 25.316 41.144H23.9C23.78 40.592 23.516 40.184 23.132 39.908C22.736 39.632 22.208 39.5 21.56 39.5C20.756 39.5 20.12 39.764 19.652 40.316C19.136 40.892 18.884 41.696 18.884 42.752C18.884 43.76 19.112 44.54 19.568 45.08C20.06 45.656 20.828 45.944 21.872 45.944C22.28 45.944 22.664 45.896 23.024 45.8C23.36 45.704 23.66 45.572 23.948 45.404V43.64H21.68V42.44H25.352V46.064C24.896 46.424 24.38 46.688 23.792 46.88C23.168 47.072 22.484 47.168 21.716 47.168C20.348 47.168 19.292 46.736 18.536 45.872C17.828 45.068 17.48 44.024 17.48 42.752C17.48 41.468 17.828 40.412 18.536 39.584C19.28 38.696 20.288 38.264 21.56 38.264ZM29.6703 40.628C30.6063 40.628 31.3623 40.928 31.9383 41.552C32.5023 42.164 32.7903 42.944 32.7903 43.904C32.7903 44.852 32.5023 45.632 31.9503 46.232C31.3743 46.856 30.6063 47.168 29.6703 47.168C28.7223 47.168 27.9663 46.856 27.3903 46.232C26.8263 45.632 26.5503 44.852 26.5503 43.904C26.5503 42.944 26.8263 42.164 27.4023 41.552C27.9663 40.928 28.7223 40.628 29.6703 40.628ZM29.6703 41.744C29.0943 41.744 28.6623 41.96 28.3503 42.416C28.0863 42.8 27.9543 43.304 27.9543 43.904C27.9543 44.504 28.0863 44.996 28.3503 45.38C28.6623 45.824 29.0943 46.052 29.6703 46.052C30.2343 46.052 30.6783 45.824 30.9903 45.38C31.2543 44.984 31.3983 44.492 31.3983 43.904C31.3983 43.304 31.2543 42.8 30.9903 42.416C30.6783 41.96 30.2343 41.744 29.6703 41.744ZM40.5377 38.432H42.1337L45.4097 47H43.9097L43.1297 44.852H39.5417L38.7617 47H37.2617L40.5377 38.432ZM39.9617 43.7H42.7097L41.3657 39.944H41.3177L39.9617 43.7ZM46.1263 38.264H47.4943V41.624C47.7223 41.276 48.0103 41.024 48.3463 40.856C48.6463 40.7 48.9943 40.628 49.3903 40.628C50.1463 40.628 50.7103 40.844 51.0823 41.288C51.4303 41.708 51.6103 42.332 51.6103 43.16V47H50.2423V43.4C50.2423 42.872 50.1343 42.464 49.9303 42.188C49.6903 41.888 49.3423 41.744 48.8743 41.744C48.4423 41.744 48.1063 41.912 47.8663 42.248C47.6143 42.584 47.4943 43.004 47.4943 43.532V47H46.1263V38.264ZM55.692 40.628C56.712 40.628 57.492 40.964 58.032 41.66C58.524 42.284 58.776 43.16 58.776 44.276H54.132C54.18 44.852 54.336 45.296 54.6 45.596C54.864 45.896 55.248 46.052 55.74 46.052C56.16 46.052 56.496 45.956 56.76 45.764C56.964 45.608 57.144 45.356 57.312 45.008H58.68C58.536 45.584 58.248 46.076 57.816 46.46C57.264 46.928 56.58 47.168 55.752 47.168C54.828 47.168 54.096 46.88 53.556 46.316C52.98 45.728 52.692 44.924 52.692 43.892C52.692 42.968 52.956 42.2 53.508 41.576C54.036 40.94 54.768 40.628 55.692 40.628ZM55.728 41.744C55.272 41.744 54.924 41.864 54.66 42.128C54.408 42.38 54.24 42.752 54.156 43.244H57.348C57.228 42.236 56.688 41.744 55.728 41.744ZM62.6806 40.628C63.5926 40.628 64.2766 40.856 64.7086 41.312C65.0926 41.708 65.2846 42.284 65.2846 43.04V47H64.0126V46.184C63.7726 46.496 63.4726 46.724 63.1246 46.892C62.7286 47.072 62.2606 47.168 61.7206 47.168C61.0726 47.168 60.5686 47 60.1966 46.676C59.8126 46.34 59.6206 45.92 59.6206 45.404C59.6206 44.708 59.8846 44.168 60.4366 43.796C60.9406 43.436 61.6486 43.244 62.5606 43.22L63.9166 43.184V42.944C63.9166 42.128 63.4726 41.732 62.5846 41.732C62.2006 41.732 61.9006 41.792 61.6726 41.936C61.4086 42.092 61.2286 42.332 61.1566 42.656L59.8006 42.548C59.9326 41.864 60.2686 41.36 60.8086 41.048C61.2646 40.76 61.8886 40.628 62.6806 40.628ZM63.9166 44.168L62.6566 44.204C61.5646 44.228 61.0246 44.612 61.0246 45.356C61.0246 45.572 61.1086 45.752 61.3006 45.896C61.4926 46.04 61.7326 46.124 62.0326 46.124C62.5606 46.124 63.0046 45.968 63.3646 45.668C63.7246 45.356 63.9166 44.96 63.9166 44.48V44.168ZM71.1438 38.264H72.5118V47H71.2398V46.34C70.8078 46.892 70.1838 47.168 69.3678 47.168C68.4438 47.168 67.7238 46.844 67.2078 46.196C66.7278 45.596 66.4878 44.816 66.4878 43.868C66.4878 42.956 66.7158 42.2 67.1958 41.6C67.6998 40.952 68.4078 40.628 69.2958 40.628C70.0158 40.628 70.6278 40.964 71.1438 41.648V38.264ZM69.6198 41.732C68.9958 41.732 68.5518 41.936 68.2638 42.344C68.0118 42.692 67.8918 43.196 67.8918 43.868C67.8918 44.54 67.9998 45.056 68.2398 45.416C68.5158 45.848 68.9598 46.064 69.5718 46.064C70.0998 46.064 70.5198 45.848 70.8078 45.428C71.0598 45.044 71.1918 44.54 71.1918 43.94V43.844C71.1918 43.184 71.0238 42.656 70.7118 42.272C70.4238 41.912 70.0518 41.732 69.6198 41.732ZM80.4987 38.432H82.0947L85.3707 47H83.8707L83.0907 44.852H79.5027L78.7227 47H77.2227L80.4987 38.432ZM79.9227 43.7H82.6707L81.3267 39.944H81.2787L79.9227 43.7ZM89.2912 40.628C90.8392 40.628 91.6192 41.468 91.6192 43.172V47H90.2512V43.292C90.2512 42.272 89.7832 41.768 88.8472 41.768C88.5112 41.768 88.2112 41.888 87.9592 42.128C87.6712 42.392 87.5032 42.776 87.4552 43.268V47H86.0872V40.796H87.4552V41.516C87.6952 41.228 87.9712 41 88.2712 40.856C88.5832 40.7 88.9192 40.628 89.2912 40.628ZM97.4758 38.264H98.8438V47H97.5718V46.34C97.1398 46.892 96.5158 47.168 95.6998 47.168C94.7758 47.168 94.0558 46.844 93.5398 46.196C93.0598 45.596 92.8198 44.816 92.8198 43.868C92.8198 42.956 93.0478 42.2 93.5278 41.6C94.0318 40.952 94.7398 40.628 95.6278 40.628C96.3478 40.628 96.9598 40.964 97.4758 41.648V38.264ZM95.9518 41.732C95.3278 41.732 94.8838 41.936 94.5958 42.344C94.3438 42.692 94.2238 43.196 94.2238 43.868C94.2238 44.54 94.3318 45.056 94.5718 45.416C94.8478 45.848 95.2918 46.064 95.9038 46.064C96.4318 46.064 96.8518 45.848 97.1398 45.428C97.3918 45.044 97.5238 44.54 97.5238 43.94V43.844C97.5238 43.184 97.3558 42.656 97.0438 42.272C96.7558 41.912 96.3838 41.732 95.9518 41.732ZM108.115 38.264C109.123 38.264 109.963 38.528 110.611 39.056C111.235 39.56 111.607 40.256 111.739 41.12H110.371C110.227 40.556 109.963 40.148 109.567 39.884C109.183 39.62 108.691 39.5 108.091 39.5C107.191 39.5 106.519 39.8 106.063 40.424C105.643 40.976 105.439 41.744 105.439 42.728C105.439 43.736 105.643 44.516 106.051 45.056C106.495 45.632 107.191 45.932 108.127 45.932C108.739 45.932 109.243 45.776 109.627 45.488C110.035 45.164 110.323 44.672 110.491 44.024H111.859C111.667 45.032 111.223 45.812 110.515 46.376C109.855 46.904 109.063 47.168 108.139 47.168C106.711 47.168 105.643 46.712 104.947 45.824C104.335 45.056 104.035 44.024 104.035 42.728C104.035 41.456 104.347 40.412 104.983 39.62C105.703 38.708 106.747 38.264 108.115 38.264ZM113.184 38.264H114.552V47H113.184V38.264ZM118.931 40.628C119.843 40.628 120.527 40.856 120.959 41.312C121.343 41.708 121.535 42.284 121.535 43.04V47H120.263V46.184C120.023 46.496 119.723 46.724 119.375 46.892C118.979 47.072 118.511 47.168 117.971 47.168C117.323 47.168 116.819 47 116.447 46.676C116.063 46.34 115.871 45.92 115.871 45.404C115.871 44.708 116.135 44.168 116.687 43.796C117.191 43.436 117.899 43.244 118.811 43.22L120.167 43.184V42.944C120.167 42.128 119.723 41.732 118.835 41.732C118.451 41.732 118.151 41.792 117.923 41.936C117.659 42.092 117.479 42.332 117.407 42.656L116.051 42.548C116.183 41.864 116.519 41.36 117.059 41.048C117.515 40.76 118.139 40.628 118.931 40.628ZM120.167 44.168L118.907 44.204C117.815 44.228 117.275 44.612 117.275 45.356C117.275 45.572 117.359 45.752 117.551 45.896C117.743 46.04 117.983 46.124 118.283 46.124C118.811 46.124 119.255 45.968 119.615 45.668C119.975 45.356 120.167 44.96 120.167 44.48V44.168ZM123.902 38.264C124.166 38.264 124.394 38.348 124.574 38.516C124.742 38.684 124.838 38.9 124.838 39.164C124.838 39.428 124.742 39.656 124.562 39.824C124.382 39.992 124.166 40.076 123.902 40.076C123.638 40.076 123.422 39.992 123.242 39.824C123.062 39.644 122.978 39.428 122.978 39.164C122.978 38.9 123.062 38.684 123.242 38.516C123.422 38.348 123.638 38.264 123.902 38.264ZM123.218 40.796H124.586V47H123.218V40.796ZM129.331 40.628C130.243 40.628 130.891 40.964 131.287 41.636C131.575 41.252 131.875 40.988 132.187 40.844C132.463 40.7 132.811 40.628 133.231 40.628C133.867 40.628 134.395 40.832 134.827 41.264C135.235 41.696 135.451 42.248 135.451 42.932V47H134.083V43.172C134.083 42.68 133.975 42.32 133.771 42.104C133.555 41.876 133.219 41.768 132.739 41.768C132.403 41.768 132.127 41.888 131.898 42.152C131.659 42.404 131.551 42.752 131.551 43.208V47H130.183V43.184C130.183 42.236 129.775 41.768 128.959 41.768C128.562 41.768 128.251 41.912 128.011 42.224C127.771 42.512 127.651 42.872 127.651 43.28V47H126.283V40.796H127.651V41.432C128.167 40.892 128.73 40.628 129.331 40.628ZM141.004 38.432H142.408V47H141.004V38.432ZM145.91 38.792V40.796H147.29V41.924H145.91V45.428C145.91 45.572 145.934 45.68 146.006 45.764C146.078 45.836 146.174 45.872 146.318 45.872H147.134V47H146.09C145.55 47 145.154 46.856 144.902 46.568C144.662 46.304 144.542 45.932 144.542 45.428V41.924H143.426V40.796H144.542V39.356L145.91 38.792ZM152.43 38.432H153.834L158.07 44.612H158.118V38.432H159.534V47H158.166L153.882 40.736H153.834V47H152.43V38.432ZM163.979 40.628C164.915 40.628 165.671 40.928 166.247 41.552C166.811 42.164 167.099 42.944 167.099 43.904C167.099 44.852 166.811 45.632 166.259 46.232C165.683 46.856 164.915 47.168 163.979 47.168C163.031 47.168 162.275 46.856 161.699 46.232C161.135 45.632 160.859 44.852 160.859 43.904C160.859 42.944 161.135 42.164 161.711 41.552C162.275 40.928 163.031 40.628 163.979 40.628ZM163.979 41.744C163.403 41.744 162.971 41.96 162.659 42.416C162.395 42.8 162.263 43.304 162.263 43.904C162.263 44.504 162.395 44.996 162.659 45.38C162.971 45.824 163.403 46.052 163.979 46.052C164.543 46.052 164.987 45.824 165.299 45.38C165.563 44.984 165.707 44.492 165.707 43.904C165.707 43.304 165.563 42.8 165.299 42.416C164.987 41.96 164.543 41.744 163.979 41.744ZM167.634 40.796H169.146L170.382 45.38L171.606 40.796H172.866L174.09 45.38L175.326 40.796H176.838L174.75 47H173.478L172.242 42.464L170.994 47H169.722L167.634 40.796Z" fill="white"/>
<path d="M185 43H201M201 43L195 37M201 43L195 49" stroke="white" stroke-width="2" stroke-linecap="round" stroke-linejoin="round"/>
<defs>
<filter id="filter0_b_8729_428" x="-3" y="-3" width="314" height="84.9725" filterUnits="userSpaceOnUse" color-interpolation-filters="sRGB">
<feFlood flood-opacity="0" result="BackgroundImageFix"/>
<feGaussianBlur in="BackgroundImageFix" stdDeviation="4"/>
<feComposite in2="SourceAlpha" operator="in" result="effect1_backgroundBlur_8729_428"/>
<feBlend mode="normal" in="SourceGraphic" in2="effect1_backgroundBlur_8729_428" result="shape"/>
</filter>
<linearGradient id="paint0_linear_8729_428" x1="83.8455" y1="90.2975" x2="53.4613" y2="1.07526" gradientUnits="userSpaceOnUse">
<stop stop-color="#9747FF"/>
</linearGradient>
<linearGradient id="paint1_linear_8729_428" x1="164.5" y1="112" x2="148" y2="59" gradientUnits="userSpaceOnUse">
<stop stop-color="#81CDFF"/>
<stop offset="1" stop-color="#81CDFF" stop-opacity="0"/>
</linearGradient>
</defs>
</svg>
