<svg width="193" height="70" viewBox="0 0 193 70" fill="none" xmlns="http://www.w3.org/2000/svg">
<g filter="url(#filter0_b_12792_21755)">
<path fill-rule="evenodd" clip-rule="evenodd" d="M17 5C10.3726 5 5 10.3726 5 17V47C5 53.6274 10.3726 59 17 59H121.179C123.779 59 126.211 60.2872 128.137 62.0348C131.232 64.8444 135.936 68.0356 140.596 69.8017C142.598 70.5604 144.321 68.6645 143.702 66.6151C143.679 66.5385 143.656 66.4624 143.633 66.3868C142.401 62.3089 145.303 59 149.563 59H181C187.627 59 193 53.6274 193 47V17C193 10.3726 187.627 5 181 5H17Z" fill="url(#paint0_linear_12792_21755)" fill-opacity="0.9"/>
<path fill-rule="evenodd" clip-rule="evenodd" d="M17 5C10.3726 5 5 10.3726 5 17V47C5 53.6274 10.3726 59 17 59H121.179C123.779 59 126.211 60.2872 128.137 62.0348C131.232 64.8444 135.936 68.0356 140.596 69.8017C142.598 70.5604 144.321 68.6645 143.702 66.6151C143.679 66.5385 143.656 66.4624 143.633 66.3868C142.401 62.3089 145.303 59 149.563 59H181C187.627 59 193 53.6274 193 47V17C193 10.3726 187.627 5 181 5H17Z" fill="url(#paint1_linear_12792_21755)" fill-opacity="0.5"/>
</g>
<path d="M137.57 58.7378L136.603 58.9956L137.57 58.7378ZM135.596 65.8017L135.241 66.7368L135.596 65.8017ZM121.654 56.5893L122.38 55.9023L121.654 56.5893ZM2 13C2 6.92487 6.92487 2 13 2V0C5.8203 0 0 5.8203 0 13H2ZM2 43V13H0V43H2ZM13 54C6.92487 54 2 49.0751 2 43H0C0 50.1797 5.8203 56 13 56V54ZM118.252 54H13V56H118.252V54ZM135.95 64.8666C130.619 62.8462 125.199 58.8837 122.38 55.9023L120.927 57.2763C123.934 60.4572 129.603 64.6001 135.241 66.7368L135.95 64.8666ZM136.603 58.9956C136.905 60.1243 137.298 61.4268 137.745 62.9044L139.659 62.3259C139.21 60.8384 138.827 59.5704 138.536 58.48L136.603 58.9956ZM177 54H140.762V56H177V54ZM188 43C188 49.0751 183.075 54 177 54V56C184.18 56 190 50.1797 190 43H188ZM188 13V43H190V13H188ZM177 2C183.075 2 188 6.92487 188 13H190C190 5.8203 184.18 0 177 0V2ZM13 2H177V0H13V2ZM138.536 58.48C138.349 57.7795 138.529 57.19 138.909 56.7606C139.303 56.3161 139.957 56 140.762 56V54C139.437 54 138.22 54.5238 137.413 55.4337C136.593 56.3586 136.241 57.6381 136.603 58.9956L138.536 58.48ZM135.241 66.7368C136.632 67.264 137.986 66.8668 138.857 65.9503C139.713 65.0496 140.071 63.6882 139.659 62.3259L137.745 62.9044C137.952 63.5914 137.758 64.2027 137.407 64.5726C137.07 64.9267 136.561 65.0981 135.95 64.8666L135.241 66.7368ZM118.252 56C119.216 56 120.176 56.4819 120.927 57.2763L122.38 55.9023C121.345 54.8071 119.889 54 118.252 54V56Z" fill="black"/>
<path d="M21.1147 17.264C22.1227 17.264 22.9627 17.528 23.6107 18.056C24.2347 18.56 24.6067 19.256 24.7387 20.12H23.3707C23.2267 19.556 22.9627 19.148 22.5667 18.884C22.1827 18.62 21.6907 18.5 21.0907 18.5C20.1907 18.5 19.5187 18.8 19.0627 19.424C18.6427 19.976 18.4387 20.744 18.4387 21.728C18.4387 22.736 18.6427 23.516 19.0507 24.056C19.4947 24.632 20.1907 24.932 21.1267 24.932C21.7387 24.932 22.2427 24.776 22.6267 24.488C23.0347 24.164 23.3227 23.672 23.4907 23.024H24.8587C24.6667 24.032 24.2227 24.812 23.5147 25.376C22.8547 25.904 22.0627 26.168 21.1387 26.168C19.7107 26.168 18.6427 25.712 17.9467 24.824C17.3347 24.056 17.0347 23.024 17.0347 21.728C17.0347 20.456 17.3467 19.412 17.9827 18.62C18.7027 17.708 19.7467 17.264 21.1147 17.264ZM26.1838 17.264H27.5518V26H26.1838V17.264ZM30.0346 17.264C30.2986 17.264 30.5266 17.348 30.7066 17.516C30.8746 17.684 30.9706 17.9 30.9706 18.164C30.9706 18.428 30.8746 18.656 30.6946 18.824C30.5146 18.992 30.2986 19.076 30.0346 19.076C29.7706 19.076 29.5546 18.992 29.3746 18.824C29.1946 18.644 29.1106 18.428 29.1106 18.164C29.1106 17.9 29.1946 17.684 29.3746 17.516C29.5546 17.348 29.7706 17.264 30.0346 17.264ZM29.3506 19.796H30.7186V26H29.3506V19.796ZM35.1993 19.628C36.0033 19.628 36.6393 19.808 37.1193 20.168C37.6113 20.552 37.9233 21.128 38.0433 21.908H36.6873C36.6033 21.512 36.4353 21.224 36.1953 21.032C35.9433 20.84 35.6073 20.744 35.1993 20.744C34.6953 20.744 34.2993 20.924 34.0113 21.308C33.7233 21.68 33.5793 22.208 33.5793 22.88C33.5793 23.564 33.7113 24.104 33.9993 24.488C34.2633 24.86 34.6593 25.052 35.1873 25.052C36.0993 25.052 36.6033 24.596 36.7113 23.696H38.0673C37.9233 24.536 37.5993 25.16 37.1073 25.568C36.6273 25.964 35.9793 26.168 35.1753 26.168C34.2153 26.168 33.4713 25.856 32.9433 25.232C32.4273 24.632 32.1753 23.852 32.1753 22.892C32.1753 21.956 32.4273 21.188 32.9313 20.6C33.4713 19.952 34.2273 19.628 35.1993 19.628ZM39.1419 17.264H40.5099V22.256L43.0539 19.796H44.8179L42.0699 22.364L45.0579 26H43.3059L41.1339 23.24L40.5099 23.828V26H39.1419V17.264ZM51.7148 17.792V19.796H53.0948V20.924H51.7148V24.428C51.7148 24.572 51.7388 24.68 51.8108 24.764C51.8828 24.836 51.9788 24.872 52.1228 24.872H52.9388V26H51.8948C51.3548 26 50.9588 25.856 50.7068 25.568C50.4668 25.304 50.3468 24.932 50.3468 24.428V20.924H49.2308V19.796H50.3468V18.356L51.7148 17.792ZM56.9984 19.628C57.9344 19.628 58.6904 19.928 59.2664 20.552C59.8304 21.164 60.1184 21.944 60.1184 22.904C60.1184 23.852 59.8304 24.632 59.2784 25.232C58.7024 25.856 57.9344 26.168 56.9984 26.168C56.0504 26.168 55.2944 25.856 54.7184 25.232C54.1544 24.632 53.8784 23.852 53.8784 22.904C53.8784 21.944 54.1544 21.164 54.7304 20.552C55.2944 19.928 56.0504 19.628 56.9984 19.628ZM56.9984 20.744C56.4224 20.744 55.9904 20.96 55.6784 21.416C55.4144 21.8 55.2824 22.304 55.2824 22.904C55.2824 23.504 55.4144 23.996 55.6784 24.38C55.9904 24.824 56.4224 25.052 56.9984 25.052C57.5624 25.052 58.0064 24.824 58.3184 24.38C58.5824 23.984 58.7264 23.492 58.7264 22.904C58.7264 22.304 58.5824 21.8 58.3184 21.416C58.0064 20.96 57.5624 20.744 56.9984 20.744ZM69.1498 17.264C70.1578 17.264 70.9978 17.528 71.6458 18.056C72.2698 18.56 72.6418 19.256 72.7738 20.12H71.4058C71.2618 19.556 70.9978 19.148 70.6018 18.884C70.2178 18.62 69.7258 18.5 69.1258 18.5C68.2258 18.5 67.5538 18.8 67.0978 19.424C66.6778 19.976 66.4738 20.744 66.4738 21.728C66.4738 22.736 66.6778 23.516 67.0858 24.056C67.5298 24.632 68.2258 24.932 69.1618 24.932C69.7738 24.932 70.2778 24.776 70.6618 24.488C71.0698 24.164 71.3578 23.672 71.5258 23.024H72.8938C72.7018 24.032 72.2578 24.812 71.5498 25.376C70.8898 25.904 70.0978 26.168 69.1738 26.168C67.7458 26.168 66.6778 25.712 65.9818 24.824C65.3698 24.056 65.0698 23.024 65.0698 21.728C65.0698 20.456 65.3818 19.412 66.0178 18.62C66.7378 17.708 67.7818 17.264 69.1498 17.264ZM74.2189 17.264H75.5869V26H74.2189V17.264ZM79.9658 19.628C80.8778 19.628 81.5618 19.856 81.9938 20.312C82.3778 20.708 82.5698 21.284 82.5698 22.04V26H81.2978V25.184C81.0578 25.496 80.7578 25.724 80.4098 25.892C80.0138 26.072 79.5458 26.168 79.0058 26.168C78.3578 26.168 77.8538 26 77.4818 25.676C77.0978 25.34 76.9058 24.92 76.9058 24.404C76.9058 23.708 77.1698 23.168 77.7218 22.796C78.2258 22.436 78.9338 22.244 79.8458 22.22L81.2018 22.184V21.944C81.2018 21.128 80.7578 20.732 79.8698 20.732C79.4858 20.732 79.1858 20.792 78.9578 20.936C78.6938 21.092 78.5138 21.332 78.4418 21.656L77.0858 21.548C77.2178 20.864 77.5538 20.36 78.0938 20.048C78.5498 19.76 79.1738 19.628 79.9658 19.628ZM81.2018 23.168L79.9418 23.204C78.8498 23.228 78.3098 23.612 78.3098 24.356C78.3098 24.572 78.3938 24.752 78.5858 24.896C78.7778 25.04 79.0178 25.124 79.3178 25.124C79.8458 25.124 80.2898 24.968 80.6498 24.668C81.0098 24.356 81.2018 23.96 81.2018 23.48V23.168ZM84.937 17.264C85.201 17.264 85.429 17.348 85.609 17.516C85.777 17.684 85.873 17.9 85.873 18.164C85.873 18.428 85.777 18.656 85.597 18.824C85.417 18.992 85.201 19.076 84.937 19.076C84.673 19.076 84.457 18.992 84.277 18.824C84.097 18.644 84.013 18.428 84.013 18.164C84.013 17.9 84.097 17.684 84.277 17.516C84.457 17.348 84.673 17.264 84.937 17.264ZM84.253 19.796H85.621V26H84.253V19.796ZM90.3657 19.628C91.2777 19.628 91.9257 19.964 92.3217 20.636C92.6097 20.252 92.9097 19.988 93.2217 19.844C93.4977 19.7 93.8457 19.628 94.2657 19.628C94.9017 19.628 95.4297 19.832 95.8617 20.264C96.2697 20.696 96.4857 21.248 96.4857 21.932V26H95.1177V22.172C95.1177 21.68 95.0097 21.32 94.8057 21.104C94.5897 20.876 94.2537 20.768 93.7737 20.768C93.4377 20.768 93.1617 20.888 92.9337 21.152C92.6937 21.404 92.5857 21.752 92.5857 22.208V26H91.2177V22.184C91.2177 21.236 90.8097 20.768 89.9937 20.768C89.5977 20.768 89.2857 20.912 89.0457 21.224C88.8057 21.512 88.6857 21.872 88.6857 22.28V26H87.3177V19.796H88.6857V20.432C89.2017 19.892 89.7657 19.628 90.3657 19.628ZM101.259 19.796H102.747L104.391 24.212L105.963 19.796H107.451L104.091 28.376H102.627L103.719 25.856L101.259 19.796ZM111.116 19.628C112.052 19.628 112.808 19.928 113.384 20.552C113.948 21.164 114.236 21.944 114.236 22.904C114.236 23.852 113.948 24.632 113.396 25.232C112.82 25.856 112.052 26.168 111.116 26.168C110.168 26.168 109.412 25.856 108.836 25.232C108.272 24.632 107.996 23.852 107.996 22.904C107.996 21.944 108.272 21.164 108.848 20.552C109.412 19.928 110.168 19.628 111.116 19.628ZM111.116 20.744C110.54 20.744 110.108 20.96 109.796 21.416C109.532 21.8 109.4 22.304 109.4 22.904C109.4 23.504 109.532 23.996 109.796 24.38C110.108 24.824 110.54 25.052 111.116 25.052C111.68 25.052 112.124 24.824 112.436 24.38C112.7 23.984 112.844 23.492 112.844 22.904C112.844 22.304 112.7 21.8 112.436 21.416C112.124 20.96 111.68 20.744 111.116 20.744ZM115.431 19.796H116.799V23.576C116.799 24.08 116.895 24.44 117.111 24.68C117.327 24.908 117.663 25.028 118.143 25.028C118.443 25.028 118.731 24.896 119.007 24.644C119.283 24.38 119.487 24.032 119.607 23.588V19.796H120.975V26H119.607V25.196C119.079 25.844 118.431 26.168 117.663 26.168C116.175 26.168 115.431 25.328 115.431 23.66V19.796ZM125.343 19.628C125.643 19.628 125.907 19.676 126.123 19.784V21.152C125.811 21.056 125.523 21.02 125.235 21.02C124.875 21.02 124.551 21.152 124.263 21.44C123.927 21.764 123.771 22.184 123.771 22.712V26H122.415V19.796H123.771V20.684C123.939 20.372 124.131 20.132 124.359 19.964C124.635 19.736 124.959 19.628 125.343 19.628ZM133.72 19.628C134.632 19.628 135.316 19.856 135.748 20.312C136.132 20.708 136.324 21.284 136.324 22.04V26H135.052V25.184C134.812 25.496 134.512 25.724 134.164 25.892C133.768 26.072 133.3 26.168 132.76 26.168C132.112 26.168 131.608 26 131.236 25.676C130.852 25.34 130.66 24.92 130.66 24.404C130.66 23.708 130.924 23.168 131.476 22.796C131.98 22.436 132.688 22.244 133.6 22.22L134.956 22.184V21.944C134.956 21.128 134.512 20.732 133.624 20.732C133.24 20.732 132.94 20.792 132.712 20.936C132.448 21.092 132.268 21.332 132.196 21.656L130.84 21.548C130.972 20.864 131.308 20.36 131.848 20.048C132.304 19.76 132.928 19.628 133.72 19.628ZM134.956 23.168L133.696 23.204C132.604 23.228 132.064 23.612 132.064 24.356C132.064 24.572 132.148 24.752 132.34 24.896C132.532 25.04 132.772 25.124 133.072 25.124C133.6 25.124 134.044 24.968 134.404 24.668C134.764 24.356 134.956 23.96 134.956 23.48V23.168ZM140.551 19.628C141.355 19.628 141.991 19.808 142.471 20.168C142.963 20.552 143.275 21.128 143.395 21.908H142.039C141.955 21.512 141.787 21.224 141.547 21.032C141.295 20.84 140.959 20.744 140.551 20.744C140.047 20.744 139.651 20.924 139.363 21.308C139.075 21.68 138.931 22.208 138.931 22.88C138.931 23.564 139.063 24.104 139.351 24.488C139.615 24.86 140.011 25.052 140.539 25.052C141.451 25.052 141.955 24.596 142.063 23.696H143.419C143.275 24.536 142.951 25.16 142.459 25.568C141.979 25.964 141.331 26.168 140.527 26.168C139.567 26.168 138.823 25.856 138.295 25.232C137.779 24.632 137.527 23.852 137.527 22.892C137.527 21.956 137.779 21.188 138.283 20.6C138.823 19.952 139.579 19.628 140.551 19.628ZM147.277 19.628C148.081 19.628 148.717 19.808 149.197 20.168C149.689 20.552 150.001 21.128 150.121 21.908H148.765C148.681 21.512 148.513 21.224 148.273 21.032C148.021 20.84 147.685 20.744 147.277 20.744C146.773 20.744 146.377 20.924 146.089 21.308C145.801 21.68 145.657 22.208 145.657 22.88C145.657 23.564 145.789 24.104 146.077 24.488C146.341 24.86 146.737 25.052 147.265 25.052C148.177 25.052 148.681 24.596 148.789 23.696H150.145C150.001 24.536 149.677 25.16 149.185 25.568C148.705 25.964 148.057 26.168 147.253 26.168C146.293 26.168 145.549 25.856 145.021 25.232C144.505 24.632 144.253 23.852 144.253 22.892C144.253 21.956 144.505 21.188 145.009 20.6C145.549 19.952 146.305 19.628 147.277 19.628ZM154.1 19.628C155.036 19.628 155.792 19.928 156.368 20.552C156.932 21.164 157.22 21.944 157.22 22.904C157.22 23.852 156.932 24.632 156.38 25.232C155.804 25.856 155.036 26.168 154.1 26.168C153.152 26.168 152.396 25.856 151.82 25.232C151.256 24.632 150.98 23.852 150.98 22.904C150.98 21.944 151.256 21.164 151.832 20.552C152.396 19.928 153.152 19.628 154.1 19.628ZM154.1 20.744C153.524 20.744 153.092 20.96 152.78 21.416C152.516 21.8 152.384 22.304 152.384 22.904C152.384 23.504 152.516 23.996 152.78 24.38C153.092 24.824 153.524 25.052 154.1 25.052C154.664 25.052 155.108 24.824 155.42 24.38C155.684 23.984 155.828 23.492 155.828 22.904C155.828 22.304 155.684 21.8 155.42 21.416C155.108 20.96 154.664 20.744 154.1 20.744ZM158.415 19.796H159.783V23.576C159.783 24.08 159.879 24.44 160.095 24.68C160.311 24.908 160.647 25.028 161.127 25.028C161.427 25.028 161.715 24.896 161.991 24.644C162.267 24.38 162.471 24.032 162.591 23.588V19.796H163.959V26H162.591V25.196C162.063 25.844 161.415 26.168 160.647 26.168C159.159 26.168 158.415 25.328 158.415 23.66V19.796ZM168.604 19.628C170.152 19.628 170.932 20.468 170.932 22.172V26H169.564V22.292C169.564 21.272 169.096 20.768 168.16 20.768C167.824 20.768 167.524 20.888 167.272 21.128C166.984 21.392 166.816 21.776 166.768 22.268V26H165.4V19.796H166.768V20.516C167.008 20.228 167.284 20 167.584 19.856C167.896 19.7 168.232 19.628 168.604 19.628ZM174.316 17.792V19.796H175.696V20.924H174.316V24.428C174.316 24.572 174.34 24.68 174.412 24.764C174.484 24.836 174.58 24.872 174.724 24.872H175.54V26H174.496C173.956 26 173.56 25.856 173.308 25.568C173.068 25.304 172.948 24.932 172.948 24.428V20.924H171.832V19.796H172.948V18.356L174.316 17.792Z" fill="white"/>
<path d="M20.54 36.628C21.452 36.628 22.136 36.856 22.568 37.312C22.952 37.708 23.144 38.284 23.144 39.04V43H21.872V42.184C21.632 42.496 21.332 42.724 20.984 42.892C20.588 43.072 20.12 43.168 19.58 43.168C18.932 43.168 18.428 43 18.056 42.676C17.672 42.34 17.48 41.92 17.48 41.404C17.48 40.708 17.744 40.168 18.296 39.796C18.8 39.436 19.508 39.244 20.42 39.22L21.776 39.184V38.944C21.776 38.128 21.332 37.732 20.444 37.732C20.06 37.732 19.76 37.792 19.532 37.936C19.268 38.092 19.088 38.332 19.016 38.656L17.66 38.548C17.792 37.864 18.128 37.36 18.668 37.048C19.124 36.76 19.748 36.628 20.54 36.628ZM21.776 40.168L20.516 40.204C19.424 40.228 18.884 40.612 18.884 41.356C18.884 41.572 18.968 41.752 19.16 41.896C19.352 42.04 19.592 42.124 19.892 42.124C20.42 42.124 20.864 41.968 21.224 41.668C21.584 41.356 21.776 40.96 21.776 40.48V40.168ZM27.3712 36.628C28.1752 36.628 28.8112 36.808 29.2912 37.168C29.7832 37.552 30.0952 38.128 30.2152 38.908H28.8592C28.7752 38.512 28.6072 38.224 28.3672 38.032C28.1152 37.84 27.7792 37.744 27.3712 37.744C26.8672 37.744 26.4712 37.924 26.1832 38.308C25.8952 38.68 25.7512 39.208 25.7512 39.88C25.7512 40.564 25.8832 41.104 26.1712 41.488C26.4352 41.86 26.8312 42.052 27.3592 42.052C28.2712 42.052 28.7752 41.596 28.8832 40.696H30.2392C30.0952 41.536 29.7712 42.16 29.2792 42.568C28.7992 42.964 28.1512 43.168 27.3472 43.168C26.3872 43.168 25.6432 42.856 25.1152 42.232C24.5992 41.632 24.3472 40.852 24.3472 39.892C24.3472 38.956 24.5992 38.188 25.1032 37.6C25.6432 36.952 26.3992 36.628 27.3712 36.628ZM33.2578 34.792V36.796H34.6378V37.924H33.2578V41.428C33.2578 41.572 33.2818 41.68 33.3538 41.764C33.4258 41.836 33.5218 41.872 33.6658 41.872H34.4818V43H33.4378C32.8978 43 32.5018 42.856 32.2498 42.568C32.0098 42.304 31.8898 41.932 31.8898 41.428V37.924H30.7738V36.796H31.8898V35.356L33.2578 34.792ZM36.5854 34.264C36.8494 34.264 37.0774 34.348 37.2574 34.516C37.4254 34.684 37.5214 34.9 37.5214 35.164C37.5214 35.428 37.4254 35.656 37.2454 35.824C37.0654 35.992 36.8494 36.076 36.5854 36.076C36.3214 36.076 36.1054 35.992 35.9254 35.824C35.7454 35.644 35.6614 35.428 35.6614 35.164C35.6614 34.9 35.7454 34.684 35.9254 34.516C36.1054 34.348 36.3214 34.264 36.5854 34.264ZM35.9014 36.796H37.2694V43H35.9014V36.796ZM38.3061 36.796H39.7941L41.2821 41.296L42.7701 36.796H44.2581L41.9661 43H40.5981L38.3061 36.796ZM47.8564 36.628C48.7684 36.628 49.4524 36.856 49.8844 37.312C50.2684 37.708 50.4604 38.284 50.4604 39.04V43H49.1884V42.184C48.9484 42.496 48.6484 42.724 48.3004 42.892C47.9044 43.072 47.4364 43.168 46.8964 43.168C46.2484 43.168 45.7444 43 45.3724 42.676C44.9884 42.34 44.7964 41.92 44.7964 41.404C44.7964 40.708 45.0604 40.168 45.6124 39.796C46.1164 39.436 46.8244 39.244 47.7364 39.22L49.0924 39.184V38.944C49.0924 38.128 48.6484 37.732 47.7604 37.732C47.3764 37.732 47.0764 37.792 46.8484 37.936C46.5844 38.092 46.4044 38.332 46.3324 38.656L44.9764 38.548C45.1084 37.864 45.4444 37.36 45.9844 37.048C46.4404 36.76 47.0644 36.628 47.8564 36.628ZM49.0924 40.168L47.8324 40.204C46.7404 40.228 46.2004 40.612 46.2004 41.356C46.2004 41.572 46.2844 41.752 46.4764 41.896C46.6684 42.04 46.9084 42.124 47.2084 42.124C47.7364 42.124 48.1804 41.968 48.5404 41.668C48.9004 41.356 49.0924 40.96 49.0924 40.48V40.168ZM53.8476 34.792V36.796H55.2276V37.924H53.8476V41.428C53.8476 41.572 53.8716 41.68 53.9436 41.764C54.0156 41.836 54.1116 41.872 54.2556 41.872H55.0716V43H54.0276C53.4876 43 53.0916 42.856 52.8396 42.568C52.5996 42.304 52.4796 41.932 52.4796 41.428V37.924H51.3636V36.796H52.4796V35.356L53.8476 34.792ZM57.1753 34.264C57.4393 34.264 57.6673 34.348 57.8473 34.516C58.0153 34.684 58.1113 34.9 58.1113 35.164C58.1113 35.428 58.0153 35.656 57.8353 35.824C57.6553 35.992 57.4393 36.076 57.1753 36.076C56.9113 36.076 56.6953 35.992 56.5153 35.824C56.3353 35.644 56.2513 35.428 56.2513 35.164C56.2513 34.9 56.3353 34.684 56.5153 34.516C56.6953 34.348 56.9113 34.264 57.1753 34.264ZM56.4913 36.796H57.8593V43H56.4913V36.796ZM62.4359 36.628C63.3719 36.628 64.1279 36.928 64.7039 37.552C65.2679 38.164 65.5559 38.944 65.5559 39.904C65.5559 40.852 65.2679 41.632 64.7159 42.232C64.1399 42.856 63.3719 43.168 62.4359 43.168C61.4879 43.168 60.7319 42.856 60.1559 42.232C59.5919 41.632 59.3159 40.852 59.3159 39.904C59.3159 38.944 59.5919 38.164 60.1679 37.552C60.7319 36.928 61.4879 36.628 62.4359 36.628ZM62.4359 37.744C61.8599 37.744 61.4279 37.96 61.1159 38.416C60.8519 38.8 60.7199 39.304 60.7199 39.904C60.7199 40.504 60.8519 40.996 61.1159 41.38C61.4279 41.824 61.8599 42.052 62.4359 42.052C62.9999 42.052 63.4439 41.824 63.7559 41.38C64.0199 40.984 64.1639 40.492 64.1639 39.904C64.1639 39.304 64.0199 38.8 63.7559 38.416C63.4439 37.96 62.9999 37.744 62.4359 37.744ZM69.9553 36.628C71.5033 36.628 72.2833 37.468 72.2833 39.172V43H70.9153V39.292C70.9153 38.272 70.4473 37.768 69.5113 37.768C69.1753 37.768 68.8753 37.888 68.6233 38.128C68.3353 38.392 68.1673 38.776 68.1193 39.268V43H66.7513V36.796H68.1193V37.516C68.3593 37.228 68.6353 37 68.9353 36.856C69.2473 36.7 69.5833 36.628 69.9553 36.628ZM80.3 36.628C81.068 36.628 81.68 36.928 82.136 37.552V36.796H83.504V42.604C83.504 44.56 82.532 45.544 80.588 45.544C79.712 45.544 79.052 45.376 78.596 45.064C78.14 44.728 77.852 44.224 77.732 43.528H79.1C79.172 43.876 79.316 44.116 79.544 44.26C79.76 44.392 80.108 44.464 80.588 44.464C81.62 44.464 82.136 43.912 82.136 42.808V41.896C81.68 42.532 81.068 42.856 80.3 42.856C79.46 42.856 78.776 42.568 78.26 42.016C77.732 41.452 77.48 40.696 77.48 39.76C77.48 38.824 77.732 38.068 78.26 37.492C78.776 36.916 79.46 36.628 80.3 36.628ZM80.516 37.732C80 37.732 79.604 37.912 79.316 38.272C79.028 38.62 78.884 39.112 78.884 39.76C78.884 40.348 78.992 40.804 79.22 41.14C79.484 41.536 79.904 41.74 80.504 41.74C81.032 41.74 81.44 41.56 81.728 41.224C82.004 40.864 82.148 40.384 82.148 39.76C82.148 39.124 82.004 38.632 81.728 38.272C81.44 37.912 81.032 37.732 80.516 37.732ZM85.8628 34.264C86.1268 34.264 86.3548 34.348 86.5348 34.516C86.7028 34.684 86.7988 34.9 86.7988 35.164C86.7988 35.428 86.7028 35.656 86.5228 35.824C86.3428 35.992 86.1268 36.076 85.8628 36.076C85.5988 36.076 85.3828 35.992 85.2028 35.824C85.0228 35.644 84.9388 35.428 84.9388 35.164C84.9388 34.9 85.0228 34.684 85.2028 34.516C85.3828 34.348 85.5988 34.264 85.8628 34.264ZM85.1788 36.796H86.5468V43H85.1788V36.796ZM90.6794 34.432H91.9994V35.584H90.8714C90.6914 35.584 90.5594 35.632 90.4634 35.728C90.3674 35.824 90.3314 35.968 90.3314 36.172V36.796H91.9154V37.912H90.3314V43H88.9634V37.912H87.5834V36.796H88.9634V36.136C88.9634 35.608 89.1074 35.188 89.4074 34.888C89.6954 34.576 90.1274 34.432 90.6794 34.432ZM94.7226 34.792V36.796H96.1026V37.924H94.7226V41.428C94.7226 41.572 94.7466 41.68 94.8186 41.764C94.8906 41.836 94.9866 41.872 95.1306 41.872H95.9466V43H94.9026C94.3626 43 93.9666 42.856 93.7146 42.568C93.4746 42.304 93.3546 41.932 93.3546 41.428V37.924H92.2386V36.796H93.3546V35.356L94.7226 34.792ZM104.266 36.628C105.178 36.628 105.898 36.952 106.426 37.6C106.906 38.2 107.146 38.968 107.146 39.928C107.146 40.84 106.906 41.596 106.438 42.196C105.934 42.844 105.226 43.168 104.338 43.168C103.618 43.168 102.994 42.82 102.49 42.148V45.376H101.122V36.796H102.394V37.456C102.826 36.904 103.45 36.628 104.266 36.628ZM104.062 37.732C103.522 37.732 103.114 37.936 102.826 38.368C102.562 38.74 102.442 39.232 102.442 39.856V39.952C102.442 40.6 102.598 41.128 102.922 41.524C103.21 41.884 103.57 42.064 104.014 42.064C104.614 42.064 105.07 41.86 105.358 41.476C105.61 41.116 105.742 40.6 105.742 39.928C105.742 39.256 105.622 38.74 105.394 38.38C105.106 37.948 104.662 37.732 104.062 37.732ZM111.161 36.628C112.073 36.628 112.757 36.856 113.189 37.312C113.573 37.708 113.765 38.284 113.765 39.04V43H112.493V42.184C112.253 42.496 111.953 42.724 111.605 42.892C111.209 43.072 110.741 43.168 110.201 43.168C109.553 43.168 109.049 43 108.677 42.676C108.293 42.34 108.101 41.92 108.101 41.404C108.101 40.708 108.365 40.168 108.917 39.796C109.421 39.436 110.129 39.244 111.041 39.22L112.397 39.184V38.944C112.397 38.128 111.953 37.732 111.065 37.732C110.681 37.732 110.381 37.792 110.153 37.936C109.889 38.092 109.709 38.332 109.637 38.656L108.281 38.548C108.413 37.864 108.749 37.36 109.289 37.048C109.745 36.76 110.369 36.628 111.161 36.628ZM112.397 40.168L111.137 40.204C110.045 40.228 109.505 40.612 109.505 41.356C109.505 41.572 109.589 41.752 109.781 41.896C109.973 42.04 110.213 42.124 110.513 42.124C111.041 42.124 111.485 41.968 111.845 41.668C112.205 41.356 112.397 40.96 112.397 40.48V40.168ZM117.992 36.628C118.796 36.628 119.432 36.808 119.912 37.168C120.404 37.552 120.716 38.128 120.836 38.908H119.48C119.396 38.512 119.228 38.224 118.988 38.032C118.736 37.84 118.4 37.744 117.992 37.744C117.488 37.744 117.092 37.924 116.804 38.308C116.516 38.68 116.372 39.208 116.372 39.88C116.372 40.564 116.504 41.104 116.792 41.488C117.056 41.86 117.452 42.052 117.98 42.052C118.892 42.052 119.396 41.596 119.504 40.696H120.86C120.716 41.536 120.392 42.16 119.9 42.568C119.42 42.964 118.772 43.168 117.968 43.168C117.008 43.168 116.264 42.856 115.736 42.232C115.22 41.632 114.968 40.852 114.968 39.892C114.968 38.956 115.22 38.188 115.724 37.6C116.264 36.952 117.02 36.628 117.992 36.628ZM121.935 34.264H123.303V39.256L125.847 36.796H127.611L124.863 39.364L127.851 43H126.099L123.927 40.24L123.303 40.828V43H121.935V34.264ZM131.388 36.628C132.3 36.628 132.984 36.856 133.416 37.312C133.8 37.708 133.992 38.284 133.992 39.04V43H132.72V42.184C132.48 42.496 132.18 42.724 131.832 42.892C131.436 43.072 130.968 43.168 130.428 43.168C129.78 43.168 129.276 43 128.904 42.676C128.52 42.34 128.328 41.92 128.328 41.404C128.328 40.708 128.592 40.168 129.144 39.796C129.648 39.436 130.356 39.244 131.268 39.22L132.624 39.184V38.944C132.624 38.128 132.18 37.732 131.292 37.732C130.908 37.732 130.608 37.792 130.38 37.936C130.116 38.092 129.936 38.332 129.864 38.656L128.508 38.548C128.64 37.864 128.976 37.36 129.516 37.048C129.972 36.76 130.596 36.628 131.388 36.628ZM132.624 40.168L131.364 40.204C130.272 40.228 129.732 40.612 129.732 41.356C129.732 41.572 129.816 41.752 130.008 41.896C130.2 42.04 130.44 42.124 130.74 42.124C131.268 42.124 131.712 41.968 132.072 41.668C132.432 41.356 132.624 40.96 132.624 40.48V40.168ZM138.015 36.628C138.783 36.628 139.395 36.928 139.851 37.552V36.796H141.219V42.604C141.219 44.56 140.247 45.544 138.303 45.544C137.427 45.544 136.767 45.376 136.311 45.064C135.855 44.728 135.567 44.224 135.447 43.528H136.815C136.887 43.876 137.031 44.116 137.259 44.26C137.475 44.392 137.823 44.464 138.303 44.464C139.335 44.464 139.851 43.912 139.851 42.808V41.896C139.395 42.532 138.783 42.856 138.015 42.856C137.175 42.856 136.491 42.568 135.975 42.016C135.447 41.452 135.195 40.696 135.195 39.76C135.195 38.824 135.447 38.068 135.975 37.492C136.491 36.916 137.175 36.628 138.015 36.628ZM138.231 37.732C137.715 37.732 137.319 37.912 137.031 38.272C136.743 38.62 136.599 39.112 136.599 39.76C136.599 40.348 136.707 40.804 136.935 41.14C137.199 41.536 137.619 41.74 138.219 41.74C138.747 41.74 139.155 41.56 139.443 41.224C139.719 40.864 139.863 40.384 139.863 39.76C139.863 39.124 139.719 38.632 139.443 38.272C139.155 37.912 138.747 37.732 138.231 37.732ZM145.294 36.628C146.314 36.628 147.094 36.964 147.634 37.66C148.126 38.284 148.378 39.16 148.378 40.276H143.734C143.782 40.852 143.938 41.296 144.202 41.596C144.466 41.896 144.85 42.052 145.342 42.052C145.762 42.052 146.098 41.956 146.362 41.764C146.566 41.608 146.746 41.356 146.914 41.008H148.282C148.138 41.584 147.85 42.076 147.418 42.46C146.866 42.928 146.182 43.168 145.354 43.168C144.43 43.168 143.698 42.88 143.158 42.316C142.582 41.728 142.294 40.924 142.294 39.892C142.294 38.968 142.558 38.2 143.11 37.576C143.638 36.94 144.37 36.628 145.294 36.628ZM145.33 37.744C144.874 37.744 144.526 37.864 144.262 38.128C144.01 38.38 143.842 38.752 143.758 39.244H146.95C146.83 38.236 146.29 37.744 145.33 37.744ZM149.93 34.432H151.55L151.25 40.54H150.23L149.93 34.432ZM150.734 41.188C150.998 41.188 151.226 41.272 151.406 41.44C151.574 41.608 151.67 41.824 151.67 42.088C151.67 42.352 151.574 42.58 151.406 42.748C151.214 42.916 150.998 43 150.734 43C150.47 43 150.254 42.904 150.086 42.736C149.894 42.568 149.81 42.352 149.81 42.088C149.81 41.824 149.894 41.608 150.086 41.44C150.254 41.272 150.47 41.188 150.734 41.188Z" fill="white"/>
<path d="M159 39H175M175 39L169 33M175 39L169 45" stroke="white" stroke-width="2" stroke-linecap="round" stroke-linejoin="round"/>
<defs>
<filter id="filter0_b_12792_21755" x="-3" y="-3" width="204" height="80.9727" filterUnits="userSpaceOnUse" color-interpolation-filters="sRGB">
<feFlood flood-opacity="0" result="BackgroundImageFix"/>
<feGaussianBlur in="BackgroundImageFix" stdDeviation="4"/>
<feComposite in2="SourceAlpha" operator="in" result="effect1_backgroundBlur_12792_21755"/>
<feBlend mode="normal" in="SourceGraphic" in2="effect1_backgroundBlur_12792_21755" result="shape"/>
</filter>
<linearGradient id="paint0_linear_12792_21755" x1="-7.98071" y1="85.3508" x2="-37.2135" y2="1.7815" gradientUnits="userSpaceOnUse">
<stop stop-color="#9747FF"/>
</linearGradient>
<linearGradient id="paint1_linear_12792_21755" x1="65.9854" y1="105.795" x2="50.0971" y2="56.1103" gradientUnits="userSpaceOnUse">
<stop stop-color="#81CDFF"/>
<stop offset="1" stop-color="#81CDFF" stop-opacity="0"/>
</linearGradient>
</defs>
</svg>
