<svg width="209" height="74" viewBox="0 0 209 74" fill="none" xmlns="http://www.w3.org/2000/svg">
<g filter="url(#filter0_b_12792_21755)">
<path fill-rule="evenodd" clip-rule="evenodd" d="M16 5C9.37258 5 4 10.3726 4 17V51C4 57.6274 9.37258 63 16 63H128.179C130.779 63 133.211 64.2872 135.137 66.0348C138.232 68.8444 142.936 72.0356 147.596 73.8017C149.598 74.5604 151.321 72.6645 150.702 70.6151V70.6151C150.679 70.5385 150.656 70.4624 150.633 70.3868C149.401 66.3089 152.303 63 156.563 63H197C203.627 63 209 57.6274 209 51V17C209 10.3726 203.627 5 197 5H16Z" fill="url(#paint0_linear_12792_21755)" fill-opacity="0.9"/>
<path fill-rule="evenodd" clip-rule="evenodd" d="M16 5C9.37258 5 4 10.3726 4 17V51C4 57.6274 9.37258 63 16 63H128.179C130.779 63 133.211 64.2872 135.137 66.0348C138.232 68.8444 142.936 72.0356 147.596 73.8017C149.598 74.5604 151.321 72.6645 150.702 70.6151V70.6151C150.679 70.5385 150.656 70.4624 150.633 70.3868C149.401 66.3089 152.303 63 156.563 63H197C203.627 63 209 57.6274 209 51V17C209 10.3726 203.627 5 197 5H16Z" fill="url(#paint1_linear_12792_21755)" fill-opacity="0.5"/>
</g>
<path d="M145.57 62.7378L144.603 62.9956L145.57 62.7378ZM143.596 69.8017L143.241 70.7368L143.596 69.8017ZM2 13C2 6.92487 6.92487 2 13 2V0C5.8203 0 0 5.8203 0 13H2ZM2 47V13H0V47H2ZM13 58C6.92487 58 2 53.0751 2 47H0C0 54.1797 5.8203 60 13 60V58ZM126.252 58H13V60H126.252V58ZM143.95 68.8666C138.619 66.8462 133.199 62.8837 130.38 59.9023L128.927 61.2763C131.934 64.4572 137.603 68.6001 143.241 70.7368L143.95 68.8666ZM144.603 62.9956C144.905 64.1243 145.298 65.4268 145.745 66.9044L147.659 66.3259C147.21 64.8384 146.827 63.5704 146.536 62.48L144.603 62.9956ZM194 58H148.762V60H194V58ZM205 47C205 53.0751 200.075 58 194 58V60C201.18 60 207 54.1797 207 47H205ZM205 13V47H207V13H205ZM194 2C200.075 2 205 6.92487 205 13H207C207 5.8203 201.18 0 194 0V2ZM13 2H194V0H13V2ZM146.536 62.48C146.349 61.7795 146.529 61.19 146.909 60.7606C147.303 60.3161 147.957 60 148.762 60V58C147.437 58 146.22 58.5238 145.413 59.4337C144.593 60.3586 144.241 61.6381 144.603 62.9956L146.536 62.48ZM143.241 70.7368C144.632 71.264 145.986 70.8668 146.857 69.9503C147.713 69.0496 148.071 67.6882 147.659 66.3259L145.745 66.9044C145.952 67.5914 145.758 68.2027 145.407 68.5726C145.07 68.9267 144.561 69.0981 143.95 68.8666L143.241 70.7368ZM126.252 60C127.216 60 128.176 60.4819 128.927 61.2763L130.38 59.9023C129.345 58.8071 127.889 58 126.252 58V60Z" fill="black"/>
<path d="M22.5288 21.264C23.5368 21.264 24.3768 21.528 25.0247 22.056C25.6488 22.56 26.0208 23.256 26.1528 24.12H24.7848C24.6408 23.556 24.3768 23.148 23.9808 22.884C23.5968 22.62 23.1048 22.5 22.5048 22.5C21.6048 22.5 20.9328 22.8 20.4768 23.424C20.0568 23.976 19.8528 24.744 19.8528 25.728C19.8528 26.736 20.0568 27.516 20.4648 28.056C20.9088 28.632 21.6048 28.932 22.5408 28.932C23.1528 28.932 23.6568 28.776 24.0408 28.488C24.4488 28.164 24.7368 27.672 24.9048 27.024H26.2728C26.0808 28.032 25.6368 28.812 24.9288 29.376C24.2688 29.904 23.4768 30.168 22.5528 30.168C21.1248 30.168 20.0568 29.712 19.3608 28.824C18.7488 28.056 18.4488 27.024 18.4488 25.728C18.4488 24.456 18.7607 23.412 19.3968 22.62C20.1168 21.708 21.1608 21.264 22.5288 21.264ZM27.5978 21.264H28.9658V30H27.5978V21.264ZM31.4487 21.264C31.7127 21.264 31.9407 21.348 32.1207 21.516C32.2887 21.684 32.3847 21.9 32.3847 22.164C32.3847 22.428 32.2887 22.656 32.1087 22.824C31.9287 22.992 31.7127 23.076 31.4487 23.076C31.1847 23.076 30.9687 22.992 30.7887 22.824C30.6087 22.644 30.5247 22.428 30.5247 22.164C30.5247 21.9 30.6087 21.684 30.7887 21.516C30.9687 21.348 31.1847 21.264 31.4487 21.264ZM30.7647 23.796H32.1327V30H30.7647V23.796ZM36.6134 23.628C37.4174 23.628 38.0534 23.808 38.5334 24.168C39.0254 24.552 39.3374 25.128 39.4574 25.908H38.1014C38.0174 25.512 37.8494 25.224 37.6094 25.032C37.3574 24.84 37.0214 24.744 36.6134 24.744C36.1094 24.744 35.7134 24.924 35.4254 25.308C35.1374 25.68 34.9934 26.208 34.9934 26.88C34.9934 27.564 35.1254 28.104 35.4134 28.488C35.6774 28.86 36.0734 29.052 36.6014 29.052C37.5134 29.052 38.0174 28.596 38.1254 27.696H39.4814C39.3374 28.536 39.0134 29.16 38.5214 29.568C38.0414 29.964 37.3934 30.168 36.5894 30.168C35.6294 30.168 34.8854 29.856 34.3574 29.232C33.8414 28.632 33.5894 27.852 33.5894 26.892C33.5894 25.956 33.8414 25.188 34.3454 24.6C34.8854 23.952 35.6414 23.628 36.6134 23.628ZM40.5559 21.264H41.9239V26.256L44.4679 23.796H46.2319L43.4839 26.364L46.4719 30H44.7199L42.5479 27.24L41.9239 27.828V30H40.5559V21.264ZM50.6448 21.432H57.6648V22.632H54.8568V30H53.4528V22.632H50.6448V21.432ZM61.4477 23.628C62.3837 23.628 63.1397 23.928 63.7157 24.552C64.2797 25.164 64.5677 25.944 64.5677 26.904C64.5677 27.852 64.2797 28.632 63.7277 29.232C63.1517 29.856 62.3837 30.168 61.4477 30.168C60.4997 30.168 59.7437 29.856 59.1677 29.232C58.6037 28.632 58.3277 27.852 58.3277 26.904C58.3277 25.944 58.6037 25.164 59.1797 24.552C59.7437 23.928 60.4997 23.628 61.4477 23.628ZM61.4477 24.744C60.8717 24.744 60.4397 24.96 60.1277 25.416C59.8637 25.8 59.7317 26.304 59.7317 26.904C59.7317 27.504 59.8637 27.996 60.1277 28.38C60.4397 28.824 60.8717 29.052 61.4477 29.052C62.0117 29.052 62.4557 28.824 62.7677 28.38C63.0317 27.984 63.1757 27.492 63.1757 26.904C63.1757 26.304 63.0317 25.8 62.7677 25.416C62.4557 24.96 62.0117 24.744 61.4477 24.744ZM73.5991 21.264C74.6071 21.264 75.4471 21.528 76.0951 22.056C76.7191 22.56 77.0911 23.256 77.2231 24.12H75.8551C75.7111 23.556 75.4471 23.148 75.0511 22.884C74.6671 22.62 74.1751 22.5 73.5751 22.5C72.6751 22.5 72.0031 22.8 71.5471 23.424C71.1271 23.976 70.9231 24.744 70.9231 25.728C70.9231 26.736 71.1271 27.516 71.5351 28.056C71.9791 28.632 72.6751 28.932 73.6111 28.932C74.2231 28.932 74.7271 28.776 75.1111 28.488C75.5191 28.164 75.8071 27.672 75.9751 27.024H77.3431C77.1511 28.032 76.7071 28.812 75.9991 29.376C75.3391 29.904 74.5471 30.168 73.6231 30.168C72.1951 30.168 71.1271 29.712 70.4311 28.824C69.8191 28.056 69.5191 27.024 69.5191 25.728C69.5191 24.456 69.8311 23.412 70.4671 22.62C71.1871 21.708 72.2311 21.264 73.5991 21.264ZM78.6681 21.264H80.0361V30H78.6681V21.264ZM84.415 23.628C85.327 23.628 86.011 23.856 86.443 24.312C86.827 24.708 87.019 25.284 87.019 26.04V30H85.747V29.184C85.507 29.496 85.207 29.724 84.859 29.892C84.463 30.072 83.995 30.168 83.455 30.168C82.807 30.168 82.303 30 81.931 29.676C81.547 29.34 81.355 28.92 81.355 28.404C81.355 27.708 81.619 27.168 82.171 26.796C82.675 26.436 83.383 26.244 84.295 26.22L85.651 26.184V25.944C85.651 25.128 85.207 24.732 84.319 24.732C83.935 24.732 83.635 24.792 83.407 24.936C83.143 25.092 82.963 25.332 82.891 25.656L81.535 25.548C81.667 24.864 82.003 24.36 82.543 24.048C82.999 23.76 83.623 23.628 84.415 23.628ZM85.651 27.168L84.391 27.204C83.299 27.228 82.759 27.612 82.759 28.356C82.759 28.572 82.843 28.752 83.035 28.896C83.227 29.04 83.467 29.124 83.767 29.124C84.295 29.124 84.739 28.968 85.099 28.668C85.459 28.356 85.651 27.96 85.651 27.48V27.168ZM89.3862 21.264C89.6502 21.264 89.8782 21.348 90.0582 21.516C90.2262 21.684 90.3222 21.9 90.3222 22.164C90.3222 22.428 90.2262 22.656 90.0462 22.824C89.8662 22.992 89.6502 23.076 89.3862 23.076C89.1222 23.076 88.9062 22.992 88.7262 22.824C88.5462 22.644 88.4622 22.428 88.4622 22.164C88.4622 21.9 88.5462 21.684 88.7262 21.516C88.9062 21.348 89.1222 21.264 89.3862 21.264ZM88.7022 23.796H90.0702V30H88.7022V23.796ZM94.8149 23.628C95.7269 23.628 96.3749 23.964 96.7709 24.636C97.0589 24.252 97.3589 23.988 97.6709 23.844C97.9469 23.7 98.2949 23.628 98.7149 23.628C99.3509 23.628 99.8789 23.832 100.311 24.264C100.719 24.696 100.935 25.248 100.935 25.932V30H99.5669V26.172C99.5669 25.68 99.4589 25.32 99.2549 25.104C99.0389 24.876 98.7029 24.768 98.2229 24.768C97.8869 24.768 97.6109 24.888 97.3829 25.152C97.1429 25.404 97.0349 25.752 97.0349 26.208V30H95.6669V26.184C95.6669 25.236 95.2589 24.768 94.4429 24.768C94.0469 24.768 93.7349 24.912 93.4949 25.224C93.2549 25.512 93.1349 25.872 93.1349 26.28V30H91.7669V23.796H93.1349V24.432C93.6509 23.892 94.2149 23.628 94.8149 23.628ZM105.708 21.432H107.4L109.8 25.284L112.188 21.432H113.88L110.496 26.592V30H109.092V26.592L105.708 21.432ZM117.545 23.628C118.481 23.628 119.237 23.928 119.813 24.552C120.377 25.164 120.665 25.944 120.665 26.904C120.665 27.852 120.377 28.632 119.825 29.232C119.249 29.856 118.481 30.168 117.545 30.168C116.597 30.168 115.841 29.856 115.265 29.232C114.701 28.632 114.425 27.852 114.425 26.904C114.425 25.944 114.701 25.164 115.277 24.552C115.841 23.928 116.597 23.628 117.545 23.628ZM117.545 24.744C116.969 24.744 116.537 24.96 116.225 25.416C115.961 25.8 115.829 26.304 115.829 26.904C115.829 27.504 115.961 27.996 116.225 28.38C116.537 28.824 116.969 29.052 117.545 29.052C118.109 29.052 118.553 28.824 118.865 28.38C119.129 27.984 119.273 27.492 119.273 26.904C119.273 26.304 119.129 25.8 118.865 25.416C118.553 24.96 118.109 24.744 117.545 24.744ZM121.861 23.796H123.229V27.576C123.229 28.08 123.325 28.44 123.541 28.68C123.757 28.908 124.093 29.028 124.573 29.028C124.873 29.028 125.161 28.896 125.437 28.644C125.713 28.38 125.917 28.032 126.037 27.588V23.796H127.405V30H126.037V29.196C125.509 29.844 124.861 30.168 124.093 30.168C122.605 30.168 121.861 29.328 121.861 27.66V23.796ZM131.773 23.628C132.073 23.628 132.337 23.676 132.553 23.784V25.152C132.241 25.056 131.953 25.02 131.665 25.02C131.305 25.02 130.981 25.152 130.693 25.44C130.357 25.764 130.201 26.184 130.201 26.712V30H128.845V23.796H130.201V24.684C130.369 24.372 130.561 24.132 130.789 23.964C131.065 23.736 131.389 23.628 131.773 23.628ZM137.449 21.432H143.629V22.632H138.853V25.008H143.341V26.208H138.853V28.8H143.833V30H137.449V21.432ZM144.645 23.796H146.241L147.537 25.692L148.821 23.796H150.417L148.281 26.7L150.693 30H149.085L147.537 27.708L145.977 30H144.369L146.781 26.7L144.645 23.796ZM154.258 23.628C155.062 23.628 155.698 23.808 156.178 24.168C156.67 24.552 156.982 25.128 157.102 25.908H155.746C155.662 25.512 155.494 25.224 155.254 25.032C155.002 24.84 154.666 24.744 154.258 24.744C153.754 24.744 153.358 24.924 153.07 25.308C152.782 25.68 152.638 26.208 152.638 26.88C152.638 27.564 152.77 28.104 153.058 28.488C153.322 28.86 153.718 29.052 154.246 29.052C155.158 29.052 155.662 28.596 155.77 27.696H157.126C156.982 28.536 156.658 29.16 156.166 29.568C155.686 29.964 155.038 30.168 154.234 30.168C153.274 30.168 152.53 29.856 152.002 29.232C151.486 28.632 151.234 27.852 151.234 26.892C151.234 25.956 151.486 25.188 151.99 24.6C152.53 23.952 153.286 23.628 154.258 23.628ZM158.32 21.264H159.688V30H158.32V21.264ZM161.247 23.796H162.615V27.576C162.615 28.08 162.711 28.44 162.927 28.68C163.143 28.908 163.479 29.028 163.959 29.028C164.259 29.028 164.547 28.896 164.823 28.644C165.099 28.38 165.303 28.032 165.423 27.588V23.796H166.791V30H165.423V29.196C164.895 29.844 164.247 30.168 163.479 30.168C161.991 30.168 161.247 29.328 161.247 27.66V23.796ZM170.572 23.628C172.204 23.628 173.104 24.276 173.248 25.596H171.916C171.82 25.284 171.676 25.056 171.484 24.936C171.28 24.804 170.968 24.744 170.548 24.744C170.188 24.744 169.912 24.792 169.732 24.9C169.516 25.008 169.42 25.176 169.42 25.416C169.42 25.608 169.576 25.788 169.912 25.932C170.116 26.016 170.524 26.136 171.148 26.292C171.844 26.46 172.372 26.652 172.708 26.88C173.2 27.192 173.452 27.636 173.452 28.188C173.452 29.508 172.516 30.168 170.656 30.168C168.928 30.168 168.004 29.436 167.872 27.984H169.204C169.276 28.38 169.42 28.656 169.624 28.824C169.828 28.968 170.152 29.052 170.608 29.052C171.568 29.052 172.048 28.788 172.048 28.284C172.048 27.996 171.868 27.768 171.508 27.6C171.316 27.504 170.908 27.396 170.284 27.252C169.552 27.084 169.036 26.904 168.736 26.712C168.256 26.412 168.016 25.992 168.016 25.452C168.016 24.876 168.244 24.432 168.724 24.12C169.192 23.784 169.804 23.628 170.572 23.628ZM175.46 21.264C175.724 21.264 175.952 21.348 176.132 21.516C176.3 21.684 176.396 21.9 176.396 22.164C176.396 22.428 176.3 22.656 176.12 22.824C175.94 22.992 175.724 23.076 175.46 23.076C175.196 23.076 174.98 22.992 174.8 22.824C174.62 22.644 174.536 22.428 174.536 22.164C174.536 21.9 174.62 21.684 174.8 21.516C174.98 21.348 175.196 21.264 175.46 21.264ZM174.776 23.796H176.144V30H174.776V23.796ZM177.181 23.796H178.669L180.157 28.296L181.645 23.796H183.133L180.841 30H179.473L177.181 23.796ZM186.551 23.628C187.571 23.628 188.351 23.964 188.891 24.66C189.383 25.284 189.635 26.16 189.635 27.276H184.991C185.039 27.852 185.195 28.296 185.459 28.596C185.723 28.896 186.107 29.052 186.599 29.052C187.019 29.052 187.355 28.956 187.619 28.764C187.823 28.608 188.003 28.356 188.171 28.008H189.539C189.395 28.584 189.107 29.076 188.675 29.46C188.123 29.928 187.439 30.168 186.611 30.168C185.687 30.168 184.955 29.88 184.415 29.316C183.839 28.728 183.551 27.924 183.551 26.892C183.551 25.968 183.815 25.2 184.367 24.576C184.895 23.94 185.627 23.628 186.551 23.628ZM186.587 24.744C186.131 24.744 185.783 24.864 185.519 25.128C185.267 25.38 185.099 25.752 185.015 26.244H188.207C188.087 25.236 187.547 24.744 186.587 24.744Z" fill="white"/>
<path d="M17.84 38.432H23.684V39.632H19.244V42.008H23.432V43.208H19.244V47H17.84V38.432ZM25.6284 38.264C25.8924 38.264 26.1204 38.348 26.3004 38.516C26.4684 38.684 26.5644 38.9 26.5644 39.164C26.5644 39.428 26.4684 39.656 26.2884 39.824C26.1084 39.992 25.8924 40.076 25.6284 40.076C25.3644 40.076 25.1484 39.992 24.9684 39.824C24.7884 39.644 24.7044 39.428 24.7044 39.164C24.7044 38.9 24.7884 38.684 24.9684 38.516C25.1484 38.348 25.3644 38.264 25.6284 38.264ZM24.9444 40.796H26.3124V47H24.9444V40.796ZM30.9371 40.628C31.2371 40.628 31.5011 40.676 31.7171 40.784V42.152C31.4051 42.056 31.1171 42.02 30.8291 42.02C30.4691 42.02 30.1451 42.152 29.8571 42.44C29.5211 42.764 29.3651 43.184 29.3651 43.712V47H28.0091V40.796H29.3651V41.684C29.5331 41.372 29.7251 41.132 29.9531 40.964C30.2291 40.736 30.5531 40.628 30.9371 40.628ZM34.8373 40.628C36.4693 40.628 37.3693 41.276 37.5133 42.596H36.1813C36.0853 42.284 35.9413 42.056 35.7493 41.936C35.5453 41.804 35.2333 41.744 34.8133 41.744C34.4533 41.744 34.1773 41.792 33.9973 41.9C33.7813 42.008 33.6853 42.176 33.6853 42.416C33.6853 42.608 33.8413 42.788 34.1773 42.932C34.3813 43.016 34.7893 43.136 35.4133 43.292C36.1093 43.46 36.6373 43.652 36.9733 43.88C37.4653 44.192 37.7173 44.636 37.7173 45.188C37.7173 46.508 36.7813 47.168 34.9213 47.168C33.1933 47.168 32.2693 46.436 32.1373 44.984H33.4693C33.5413 45.38 33.6853 45.656 33.8893 45.824C34.0933 45.968 34.4173 46.052 34.8733 46.052C35.8333 46.052 36.3133 45.788 36.3133 45.284C36.3133 44.996 36.1333 44.768 35.7733 44.6C35.5813 44.504 35.1733 44.396 34.5493 44.252C33.8173 44.084 33.3013 43.904 33.0013 43.712C32.5213 43.412 32.2813 42.992 32.2813 42.452C32.2813 41.876 32.5093 41.432 32.9893 41.12C33.4573 40.784 34.0693 40.628 34.8373 40.628ZM40.746 38.792V40.796H42.126V41.924H40.746V45.428C40.746 45.572 40.77 45.68 40.842 45.764C40.914 45.836 41.01 45.872 41.154 45.872H41.97V47H40.926C40.386 47 39.99 46.856 39.738 46.568C39.498 46.304 39.378 45.932 39.378 45.428V41.924H38.262V40.796H39.378V39.356L40.746 38.792ZM47.2658 38.432H50.3978C51.7898 38.432 52.8338 38.816 53.5538 39.584C54.2378 40.304 54.5858 41.348 54.5858 42.716C54.5858 44.072 54.2378 45.116 53.5538 45.848C52.8338 46.616 51.7898 47 50.3978 47H47.2658V38.432ZM48.6698 39.632V45.8H50.1338C51.2018 45.8 51.9818 45.548 52.4738 45.056C52.9538 44.552 53.1938 43.772 53.1938 42.716C53.1938 41.636 52.9538 40.844 52.4738 40.364C51.9818 39.872 51.2018 39.632 50.1338 39.632H48.6698ZM58.4225 40.628C59.4425 40.628 60.2225 40.964 60.7625 41.66C61.2545 42.284 61.5065 43.16 61.5065 44.276H56.8625C56.9105 44.852 57.0665 45.296 57.3305 45.596C57.5945 45.896 57.9785 46.052 58.4705 46.052C58.8905 46.052 59.2265 45.956 59.4905 45.764C59.6945 45.608 59.8745 45.356 60.0425 45.008H61.4105C61.2665 45.584 60.9785 46.076 60.5465 46.46C59.9945 46.928 59.3105 47.168 58.4825 47.168C57.5585 47.168 56.8265 46.88 56.2865 46.316C55.7105 45.728 55.4225 44.924 55.4225 43.892C55.4225 42.968 55.6865 42.2 56.2385 41.576C56.7665 40.94 57.4985 40.628 58.4225 40.628ZM58.4585 41.744C58.0025 41.744 57.6545 41.864 57.3905 42.128C57.1385 42.38 56.9705 42.752 56.8865 43.244H60.0785C59.9585 42.236 59.4185 41.744 58.4585 41.744ZM65.7351 40.628C66.6471 40.628 67.3671 40.952 67.8951 41.6C68.3751 42.2 68.6151 42.968 68.6151 43.928C68.6151 44.84 68.3751 45.596 67.9071 46.196C67.4031 46.844 66.6951 47.168 65.8071 47.168C65.0871 47.168 64.4631 46.82 63.9591 46.148V49.376H62.5911V40.796H63.8631V41.456C64.2951 40.904 64.9191 40.628 65.7351 40.628ZM65.5311 41.732C64.9911 41.732 64.5831 41.936 64.2951 42.368C64.0311 42.74 63.9111 43.232 63.9111 43.856V43.952C63.9111 44.6 64.0671 45.128 64.3911 45.524C64.6791 45.884 65.0391 46.064 65.4831 46.064C66.0831 46.064 66.5391 45.86 66.8271 45.476C67.0791 45.116 67.2111 44.6 67.2111 43.928C67.2111 43.256 67.0911 42.74 66.8631 42.38C66.5751 41.948 66.1311 41.732 65.5311 41.732ZM72.6898 40.628C73.6258 40.628 74.3818 40.928 74.9578 41.552C75.5218 42.164 75.8098 42.944 75.8098 43.904C75.8098 44.852 75.5218 45.632 74.9698 46.232C74.3938 46.856 73.6258 47.168 72.6898 47.168C71.7418 47.168 70.9858 46.856 70.4098 46.232C69.8458 45.632 69.5698 44.852 69.5698 43.904C69.5698 42.944 69.8458 42.164 70.4218 41.552C70.9858 40.928 71.7418 40.628 72.6898 40.628ZM72.6898 41.744C72.1138 41.744 71.6818 41.96 71.3698 42.416C71.1058 42.8 70.9738 43.304 70.9738 43.904C70.9738 44.504 71.1058 44.996 71.3698 45.38C71.6818 45.824 72.1138 46.052 72.6898 46.052C73.2538 46.052 73.6978 45.824 74.0098 45.38C74.2738 44.984 74.4178 44.492 74.4178 43.904C74.4178 43.304 74.2738 42.8 74.0098 42.416C73.6978 41.96 73.2538 41.744 72.6898 41.744ZM79.3452 40.628C80.9772 40.628 81.8772 41.276 82.0212 42.596H80.6892C80.5932 42.284 80.4492 42.056 80.2572 41.936C80.0532 41.804 79.7412 41.744 79.3212 41.744C78.9612 41.744 78.6852 41.792 78.5052 41.9C78.2892 42.008 78.1932 42.176 78.1932 42.416C78.1932 42.608 78.3492 42.788 78.6852 42.932C78.8892 43.016 79.2972 43.136 79.9212 43.292C80.6172 43.46 81.1452 43.652 81.4812 43.88C81.9732 44.192 82.2252 44.636 82.2252 45.188C82.2252 46.508 81.2892 47.168 79.4292 47.168C77.7012 47.168 76.7772 46.436 76.6452 44.984H77.9772C78.0492 45.38 78.1932 45.656 78.3972 45.824C78.6012 45.968 78.9252 46.052 79.3812 46.052C80.3412 46.052 80.8212 45.788 80.8212 45.284C80.8212 44.996 80.6412 44.768 80.2812 44.6C80.0892 44.504 79.6812 44.396 79.0572 44.252C78.3252 44.084 77.8092 43.904 77.5092 43.712C77.0292 43.412 76.7892 42.992 76.7892 42.452C76.7892 41.876 77.0172 41.432 77.4972 41.12C77.9652 40.784 78.5772 40.628 79.3452 40.628ZM84.2338 38.264C84.4978 38.264 84.7258 38.348 84.9058 38.516C85.0738 38.684 85.1698 38.9 85.1698 39.164C85.1698 39.428 85.0738 39.656 84.8938 39.824C84.7138 39.992 84.4978 40.076 84.2338 40.076C83.9698 40.076 83.7538 39.992 83.5738 39.824C83.3938 39.644 83.3098 39.428 83.3098 39.164C83.3098 38.9 83.3938 38.684 83.5738 38.516C83.7538 38.348 83.9698 38.264 84.2338 38.264ZM83.5498 40.796H84.9178V47H83.5498V40.796ZM88.5585 38.792V40.796H89.9385V41.924H88.5585V45.428C88.5585 45.572 88.5825 45.68 88.6545 45.764C88.7265 45.836 88.8225 45.872 88.9665 45.872H89.7825V47H88.7385C88.1985 47 87.8025 46.856 87.5505 46.568C87.3105 46.304 87.1905 45.932 87.1905 45.428V41.924H86.0745V40.796H87.1905V39.356L88.5585 38.792ZM95.0783 38.432H99.0023C99.8543 38.432 100.526 38.636 101.006 39.044C101.45 39.428 101.678 39.944 101.678 40.592C101.678 41.072 101.558 41.48 101.33 41.816C101.102 42.128 100.778 42.356 100.346 42.524C100.91 42.632 101.33 42.86 101.618 43.208C101.894 43.544 102.038 44.012 102.038 44.588C102.038 45.452 101.738 46.088 101.15 46.496C100.646 46.832 99.9263 47 99.0143 47H95.0783V38.432ZM96.4823 39.584V42.032H98.6303C99.2303 42.032 99.6503 41.924 99.9023 41.732C100.142 41.528 100.274 41.204 100.274 40.76C100.274 40.352 100.142 40.052 99.9023 39.872C99.6383 39.68 99.2303 39.584 98.6543 39.584H96.4823ZM96.4823 43.184V45.848H98.8103C99.3383 45.848 99.7583 45.764 100.058 45.596C100.442 45.38 100.634 45.044 100.634 44.564C100.634 44.072 100.49 43.724 100.214 43.508C99.9263 43.292 99.4703 43.184 98.8463 43.184H96.4823ZM106.123 40.628C107.059 40.628 107.815 40.928 108.391 41.552C108.955 42.164 109.243 42.944 109.243 43.904C109.243 44.852 108.955 45.632 108.403 46.232C107.827 46.856 107.059 47.168 106.123 47.168C105.175 47.168 104.419 46.856 103.843 46.232C103.279 45.632 103.003 44.852 103.003 43.904C103.003 42.944 103.279 42.164 103.855 41.552C104.419 40.928 105.175 40.628 106.123 40.628ZM106.123 41.744C105.547 41.744 105.115 41.96 104.803 42.416C104.539 42.8 104.407 43.304 104.407 43.904C104.407 44.504 104.539 44.996 104.803 45.38C105.115 45.824 105.547 46.052 106.123 46.052C106.687 46.052 107.131 45.824 107.443 45.38C107.707 44.984 107.851 44.492 107.851 43.904C107.851 43.304 107.707 42.8 107.443 42.416C107.131 41.96 106.687 41.744 106.123 41.744ZM113.643 40.628C115.191 40.628 115.971 41.468 115.971 43.172V47H114.603V43.292C114.603 42.272 114.135 41.768 113.199 41.768C112.863 41.768 112.563 41.888 112.311 42.128C112.023 42.392 111.855 42.776 111.807 43.268V47H110.439V40.796H111.807V41.516C112.047 41.228 112.323 41 112.623 40.856C112.935 40.7 113.271 40.628 113.643 40.628ZM117.411 40.796H118.779V44.576C118.779 45.08 118.875 45.44 119.091 45.68C119.307 45.908 119.643 46.028 120.123 46.028C120.423 46.028 120.711 45.896 120.987 45.644C121.263 45.38 121.467 45.032 121.587 44.588V40.796H122.955V47H121.587V46.196C121.059 46.844 120.411 47.168 119.643 47.168C118.155 47.168 117.411 46.328 117.411 44.66V40.796ZM126.736 40.628C128.368 40.628 129.268 41.276 129.412 42.596H128.08C127.984 42.284 127.84 42.056 127.648 41.936C127.444 41.804 127.132 41.744 126.712 41.744C126.352 41.744 126.076 41.792 125.896 41.9C125.68 42.008 125.584 42.176 125.584 42.416C125.584 42.608 125.74 42.788 126.076 42.932C126.28 43.016 126.688 43.136 127.312 43.292C128.008 43.46 128.536 43.652 128.872 43.88C129.364 44.192 129.616 44.636 129.616 45.188C129.616 46.508 128.68 47.168 126.82 47.168C125.092 47.168 124.168 46.436 124.036 44.984H125.368C125.44 45.38 125.584 45.656 125.788 45.824C125.992 45.968 126.316 46.052 126.772 46.052C127.732 46.052 128.212 45.788 128.212 45.284C128.212 44.996 128.032 44.768 127.672 44.6C127.48 44.504 127.072 44.396 126.448 44.252C125.716 44.084 125.2 43.904 124.9 43.712C124.42 43.412 124.18 42.992 124.18 42.452C124.18 41.876 124.408 41.432 124.888 41.12C125.356 40.784 125.968 40.628 126.736 40.628ZM131.168 38.432H132.788L132.488 44.54H131.468L131.168 38.432ZM131.972 45.188C132.236 45.188 132.464 45.272 132.644 45.44C132.812 45.608 132.908 45.824 132.908 46.088C132.908 46.352 132.812 46.58 132.644 46.748C132.452 46.916 132.236 47 131.972 47C131.708 47 131.492 46.904 131.324 46.736C131.132 46.568 131.048 46.352 131.048 46.088C131.048 45.824 131.132 45.608 131.324 45.44C131.492 45.272 131.708 45.188 131.972 45.188Z" fill="white"/>
<path d="M142 43H158M158 43L152 37M158 43L152 49" stroke="white" stroke-width="2" stroke-linecap="round" stroke-linejoin="round"/>
<defs>
<filter id="filter0_b_12792_21755" x="-4" y="-3" width="221" height="84.9727" filterUnits="userSpaceOnUse" color-interpolation-filters="sRGB">
<feFlood flood-opacity="0" result="BackgroundImageFix"/>
<feGaussianBlur in="BackgroundImageFix" stdDeviation="4"/>
<feComposite in2="SourceAlpha" operator="in" result="effect1_backgroundBlur_12792_21755"/>
<feBlend mode="normal" in="SourceGraphic" in2="effect1_backgroundBlur_12792_21755" result="shape"/>
</filter>
<linearGradient id="paint0_linear_12792_21755" x1="-10.1545" y1="90.2975" x2="-40.5387" y2="1.07526" gradientUnits="userSpaceOnUse">
<stop stop-color="#9747FF"/>
</linearGradient>
<linearGradient id="paint1_linear_12792_21755" x1="70.5" y1="112" x2="54" y2="59" gradientUnits="userSpaceOnUse">
<stop stop-color="#81CDFF"/>
<stop offset="1" stop-color="#81CDFF" stop-opacity="0"/>
</linearGradient>
</defs>
</svg>
