<svg width="83" height="38" viewBox="0 0 83 38" fill="none" xmlns="http://www.w3.org/2000/svg">
<g filter="url(#filter0_b_8731_531)">
<path fill-rule="evenodd" clip-rule="evenodd" d="M12 4C7.58172 4 4 7.58172 4 12V23C4 27.4183 7.58172 31 12 31H43.0435C44.965 31 46.8023 31.7209 48.3567 32.8505C50.5863 34.4707 53.2367 36.0181 55.8703 37.0144C57.5201 37.6385 58.9397 36.0758 58.4289 34.3873C57.9121 32.6792 59.1871 31 60.9717 31H71C75.4183 31 79 27.4183 79 23V12C79 7.58172 75.4183 4 71 4H12Z" fill="url(#paint0_linear_8731_531)" fill-opacity="0.9"/>
<path fill-rule="evenodd" clip-rule="evenodd" d="M12 4C7.58172 4 4 7.58172 4 12V23C4 27.4183 7.58172 31 12 31H43.0435C44.965 31 46.8023 31.7209 48.3567 32.8505C50.5863 34.4707 53.2367 36.0181 55.8703 37.0144C57.5201 37.6385 58.9397 36.0758 58.4289 34.3873C57.9121 32.6792 59.1871 31 60.9717 31H71C75.4183 31 79 27.4183 79 23V12C79 7.58172 75.4183 4 71 4H12Z" fill="url(#paint1_linear_8731_531)" fill-opacity="0.5"/>
</g>
<path d="M52.8703 34.0144L52.5164 34.9497L52.8703 34.0144ZM44.1743 28.9541L43.5537 29.7382L44.1743 28.9541ZM2 9C2 5.13401 5.13401 2 9 2V0C4.02944 0 0 4.02944 0 9H2ZM2 20V9H0V20H2ZM9 27C5.13401 27 2 23.866 2 20H0C0 24.9706 4.02944 29 9 29V27ZM41.5271 27H9V29H41.5271V27ZM53.2241 33.079C50.2261 31.945 47.1744 30.0533 44.7949 28.1699L43.5537 29.7382C46.0513 31.715 49.2806 33.7256 52.5164 34.9497L53.2241 33.079ZM68 27H57.9717V29H68V27ZM75 20C75 23.866 71.866 27 68 27V29C72.9706 29 77 24.9706 77 20H75ZM75 9V20H77V9H75ZM68 2C71.866 2 75 5.13401 75 9H77C77 4.02944 72.9706 0 68 0V2ZM9 2H68V0H9V2ZM56.386 31.0978C56.0682 30.0472 56.8417 29 57.9717 29V27C55.5326 27 53.756 29.3112 54.4717 31.6769L56.386 31.0978ZM52.5164 34.9497C53.7315 35.4093 54.9207 35.0616 55.685 34.2566C56.4344 33.4674 56.7436 32.2796 56.386 31.0978L54.4717 31.6769C54.625 32.1835 54.4798 32.6213 54.2346 32.8795C54.0044 33.122 53.6588 33.2435 53.2241 33.079L52.5164 34.9497ZM41.5271 29C42.2439 29 42.9552 29.2644 43.5537 29.7382L44.7949 28.1699C43.8805 27.4462 42.7399 27 41.5271 27V29Z" fill="black"/>
<path d="M20.56 13.264C21.568 13.264 22.408 13.528 23.056 14.056C23.68 14.56 24.052 15.256 24.184 16.12H22.816C22.672 15.556 22.408 15.148 22.012 14.884C21.628 14.62 21.136 14.5 20.536 14.5C19.636 14.5 18.964 14.8 18.508 15.424C18.088 15.976 17.884 16.744 17.884 17.728C17.884 18.736 18.088 19.516 18.496 20.056C18.94 20.632 19.636 20.932 20.572 20.932C21.184 20.932 21.688 20.776 22.072 20.488C22.48 20.164 22.768 19.672 22.936 19.024H24.304C24.112 20.032 23.668 20.812 22.96 21.376C22.3 21.904 21.508 22.168 20.584 22.168C19.156 22.168 18.088 21.712 17.392 20.824C16.78 20.056 16.48 19.024 16.48 17.728C16.48 16.456 16.792 15.412 17.428 14.62C18.148 13.708 19.192 13.264 20.56 13.264ZM25.6291 13.264H26.9971V22H25.6291V13.264ZM29.4799 13.264C29.7439 13.264 29.9719 13.348 30.1519 13.516C30.3199 13.684 30.4159 13.9 30.4159 14.164C30.4159 14.428 30.3199 14.656 30.1399 14.824C29.9599 14.992 29.7439 15.076 29.4799 15.076C29.2159 15.076 28.9999 14.992 28.8199 14.824C28.6399 14.644 28.5559 14.428 28.5559 14.164C28.5559 13.9 28.6399 13.684 28.8199 13.516C28.9999 13.348 29.2159 13.264 29.4799 13.264ZM28.7959 15.796H30.1639V22H28.7959V15.796ZM34.6446 15.628C35.4486 15.628 36.0846 15.808 36.5646 16.168C37.0566 16.552 37.3686 17.128 37.4886 17.908H36.1326C36.0486 17.512 35.8806 17.224 35.6406 17.032C35.3886 16.84 35.0526 16.744 34.6446 16.744C34.1406 16.744 33.7446 16.924 33.4566 17.308C33.1686 17.68 33.0246 18.208 33.0246 18.88C33.0246 19.564 33.1566 20.104 33.4446 20.488C33.7086 20.86 34.1046 21.052 34.6326 21.052C35.5446 21.052 36.0486 20.596 36.1566 19.696H37.5126C37.3686 20.536 37.0446 21.16 36.5526 21.568C36.0726 21.964 35.4246 22.168 34.6206 22.168C33.6606 22.168 32.9166 21.856 32.3886 21.232C31.8726 20.632 31.6206 19.852 31.6206 18.892C31.6206 17.956 31.8726 17.188 32.3766 16.6C32.9166 15.952 33.6726 15.628 34.6446 15.628ZM38.5872 13.264H39.9552V18.256L42.4992 15.796H44.2632L41.5152 18.364L44.5032 22H42.7512L40.5792 19.24L39.9552 19.828V22H38.5872V13.264ZM49.3361 13.432H50.9801L53.8961 20.152H53.9441L56.8481 13.432H58.4921V22H57.0881V16.096H57.0401L54.5201 22H53.3081L50.7881 16.096H50.7401V22H49.3361V13.432ZM62.6959 15.628C63.7159 15.628 64.4959 15.964 65.0359 16.66C65.5279 17.284 65.7799 18.16 65.7799 19.276H61.1359C61.1839 19.852 61.3399 20.296 61.6039 20.596C61.8679 20.896 62.2519 21.052 62.7439 21.052C63.1639 21.052 63.4999 20.956 63.7639 20.764C63.9679 20.608 64.1479 20.356 64.3159 20.008H65.6839C65.5399 20.584 65.2519 21.076 64.8199 21.46C64.2679 21.928 63.5839 22.168 62.7559 22.168C61.8319 22.168 61.0999 21.88 60.5599 21.316C59.9839 20.728 59.6959 19.924 59.6959 18.892C59.6959 17.968 59.9599 17.2 60.5119 16.576C61.0399 15.94 61.7719 15.628 62.6959 15.628ZM62.7319 16.744C62.2759 16.744 61.9279 16.864 61.6639 17.128C61.4119 17.38 61.2439 17.752 61.1599 18.244H64.3519C64.2319 17.236 63.6919 16.744 62.7319 16.744Z" fill="white"/>
<defs>
<filter id="filter0_b_8731_531" x="-4" y="-4" width="91" height="49.1545" filterUnits="userSpaceOnUse" color-interpolation-filters="sRGB">
<feFlood flood-opacity="0" result="BackgroundImageFix"/>
<feGaussianBlur in="BackgroundImageFix" stdDeviation="4"/>
<feComposite in2="SourceAlpha" operator="in" result="effect1_backgroundBlur_8731_531"/>
<feBlend mode="normal" in="SourceGraphic" in2="effect1_backgroundBlur_8731_531" result="shape"/>
</filter>
<linearGradient id="paint0_linear_8731_531" x1="-103.154" y1="53.2975" x2="-133.539" y2="-35.9248" gradientUnits="userSpaceOnUse">
<stop stop-color="#9747FF"/>
</linearGradient>
<linearGradient id="paint1_linear_8731_531" x1="-22.5" y1="75" x2="-39" y2="22" gradientUnits="userSpaceOnUse">
<stop stop-color="#81CDFF"/>
<stop offset="1" stop-color="#81CDFF" stop-opacity="0"/>
</linearGradient>
</defs>
</svg>
