<svg width="68" height="48" viewBox="0 0 68 48" fill="none" xmlns="http://www.w3.org/2000/svg">
<path d="M59.5579 31.7036C59.5579 32.9364 58.5585 33.1917 57.3258 33.1917C56.0931 33.1917 55.0938 32.9364 55.0938 31.7036C55.0938 30.4709 56.3411 28.9756 57.5738 28.9756C58.5658 29.2236 59.5579 30.4709 59.5579 31.7036Z" fill="white"/>
<path d="M59.1602 36.7529C60.2647 36.7529 61.1602 36.4245 61.1602 37.2529C61.1602 38.0814 60.2647 38.7529 59.1602 38.7529" stroke="black" stroke-width="1.5"/>
<path d="M57.4806 35.915C60.4989 35.915 64.7605 35.2817 64.7605 32.2635C64.7605 29.2452 62.3316 26.1912 59.9027 25.584" stroke="black" stroke-width="1.5" stroke-linecap="round" stroke-linejoin="round"/>
<path d="M52.1025 34.3107C55.1209 34.3107 59.0323 34.4344 59.3826 32.5752C59.7329 30.7159 56.9536 29.689 54.5247 29.4004L52.1025 34.3107Z" fill="white" stroke="black" stroke-width="1.5" stroke-linecap="round" stroke-linejoin="round"/>
<path d="M44.6316 14.9015C44.6316 14.9015 44.0191 6.37891 39.1513 6.37891C37.2575 6.37891 35.6743 8.03093 35.6743 10.0071C35.6743 14.2572 41.665 14.9015 44.6316 14.9015ZM44.6316 14.9015C44.6316 14.9015 45.3536 6.48841 50.2214 6.48841C52.1152 6.48841 53.6984 8.14044 53.6984 10.1166C53.6984 14.0611 47.627 15.0172 44.6316 14.9015Z" stroke="black" stroke-width="1.5" stroke-linecap="round" stroke-linejoin="round"/>
<path d="M27.3353 23.4205V23.4205C27.3353 29.0998 27.1101 34.2351 27.2831 39.6457C27.3377 41.3534 27.365 42.2072 27.7758 43.0073C28.1097 43.6577 28.7538 44.3231 29.393 44.6779C30.1794 45.1143 31.0348 45.1695 32.7456 45.2798C34.755 45.4093 37.2044 45.5159 39.8229 45.5159C43.3743 45.5159 48.6042 45.6358 52.7181 45.7479C54.9103 45.8076 56.0064 45.8374 56.8914 45.4034C57.6472 45.0326 58.3137 44.3758 58.6953 43.6254C59.1422 42.7468 59.1287 41.6903 59.1019 39.5774C59.0393 34.6622 58.8649 28.4504 58.725 23.9778C58.6608 21.9271 58.6288 20.9017 58.2087 20.0932C57.8413 19.3861 57.2587 18.7945 56.5573 18.4164C55.7553 17.984 54.7291 17.9363 52.6767 17.8408C49.9131 17.7121 46.4612 17.5591 42.9777 17.4245C38.1765 17.7281 33.446 16.2243 29.2419 17.9878C28.5848 18.3371 28.0507 18.8945 27.7159 19.5801C27.3353 20.3595 27.3353 21.3798 27.3353 23.4205Z" fill="#FDC62F"/>
<path d="M23.2725 36.1357C23.2725 36.1357 42.9142 36.7935 58.8108 36.1357" stroke="white" stroke-width="2"/>
<path d="M47.4741 14.792C48.3341 25.3879 48.6868 36.843 48.2608 47.45" stroke="white" stroke-width="2"/>
<path d="M59.1371 24.6766C59.0977 23.2951 59.0511 22.0551 59.0028 20.9657C58.9201 19.1009 58.8788 18.1685 58.4555 17.3714C58.0957 16.6939 57.4849 16.0813 56.8083 15.7197C56.0123 15.2942 55.0505 15.249 53.1269 15.1584C49.9639 15.0095 45.7993 14.8225 41.5928 14.6599C36.3219 14.9933 31.1287 13.3423 26.5134 15.2783C25.7922 15.6618 25.2057 16.2737 24.8382 17.0264C24.4204 17.882 24.4204 19.0021 24.4204 21.2423C24.4204 22.3139 24.4315 22.9591 24.4204 24M24.5 35C24.4974 36.6894 24.4673 38.1181 24.4712 39.5584C24.4755 41.2051 24.4777 42.0285 24.878 42.8517C25.1977 43.5092 25.8588 44.2151 26.4939 44.5772C27.2891 45.0307 28.1439 45.0891 29.8535 45.206C32.1482 45.3629 35.0309 45.499 38.1294 45.499C42.2101 45.499 48.3094 45.6431 52.9098 45.7707C55.089 45.8311 56.1787 45.8614 57.0603 45.4321C57.8173 45.0636 58.4773 44.419 58.8635 43.671C59.3134 42.7997 59.309 41.7321 59.3002 39.5967C59.2944 38.2109 59.2849 36.7105 59.2726 35.1963M59.2054 28.8317C59.2194 29.8857 59.2327 31.0214 59.2448 32.1898" stroke="black" stroke-width="1.5" stroke-linecap="round" stroke-linejoin="round"/>
<path d="M40.1548 20.2793V22.7793M31.5298 20.2793V22.7793M32.7754 27.4792C34.5004 29.2792 37.2796 29.2792 39.0046 27.4792" stroke="black" stroke-width="2" stroke-linecap="round" stroke-linejoin="round"/>
<path d="M41.5923 29.2793C40.0426 29.2434 38.7257 27.3792 38.7702 25.2845" stroke="black" stroke-width="2" stroke-linecap="round" stroke-linejoin="round"/>
<path d="M12.0805 20.8578C11.6047 20.3334 11.331 19.5547 12.5568 19.2848C13.8403 19.0021 15.2547 19.1575 16.3323 19.396M12.7137 22.6574C12.7137 22.6574 11.6079 22.6574 11.6079 21.9064C11.6079 20.8649 13.5807 20.7002 15.0589 20.8529M15.7048 22.5675C14.0853 22.318 12.5635 22.595 12.5605 23.4794C12.5579 24.2237 14.1352 24.2604 14.6079 24.2604C23.0218 24.2604 18.6467 35.4131 28.4783 35.8074" stroke="black" stroke-width="1.5" stroke-linecap="round" stroke-linejoin="round"/>
<path d="M16.2507 19.7634C16.3677 18.9798 17.2364 18.6719 17.9984 18.6719C23.8518 18.6719 21.9028 26.1184 25.5151 27.2756C21.864 28.9832 18.6154 20.5743 18.6154 20.5743C16.7127 21.1907 16.1797 20.2394 16.2507 19.7634Z" fill="white"/>
<path d="M26.3635 26.0734C23.3704 24.9405 23.5071 18.8613 17.965 18.8613C17.203 18.8613 16.0863 19.2753 15.9803 19.9749C15.8126 21.0804 17.0716 21.7239 18.9745 21.1076" stroke="black" stroke-width="1.5" stroke-linecap="round" stroke-linejoin="round"/>
</svg>
