<svg width="68" height="49" viewBox="0 0 68 49" fill="none" xmlns="http://www.w3.org/2000/svg">
<path d="M59.6342 31.2798C59.8625 32.4912 58.9277 32.9272 57.7163 33.1554C56.5049 33.3837 55.4756 33.3178 55.2473 32.1064C55.0191 30.895 55.9679 29.1946 57.1794 28.9663C58.2001 29.0263 59.406 30.0684 59.6342 31.2798Z" fill="white"/>
<path d="M59.4206 36.5413C60.4931 36.8057 61.4411 36.7012 61.2428 37.5055C61.0445 38.3098 60.0144 38.7476 58.9419 38.4832" stroke="#0E0E2C" stroke-width="1.5"/>
<path d="M58.5 36.4998C61.4661 35.9409 65.5368 34.5294 64.9779 31.5634C64.419 28.5973 61.4666 26.0459 58.9673 25.8989" stroke="#0E0E2C" stroke-width="1.5" stroke-linecap="round" stroke-linejoin="round"/>
<path d="M52.6202 34.9453C55.5863 34.3864 59.453 33.7837 59.453 31.8917C59.453 29.9998 56.5316 29.5052 54.0912 29.6714L52.6202 34.9453Z" fill="white" stroke="#0E0E2C" stroke-width="1.5" stroke-linecap="round" stroke-linejoin="round"/>
<path d="M44.3106 14.8848C44.3106 14.8848 44.343 6.34036 39.4891 5.97306C37.6006 5.83016 35.8973 7.35801 35.7482 9.32852C35.4275 13.5665 41.3525 14.661 44.3106 14.8848ZM44.3106 14.8848C44.3106 14.8848 45.6654 6.55025 50.5193 6.91756C52.4077 7.06046 53.8617 8.82723 53.7126 10.7977C53.415 14.731 47.2888 15.2263 44.3106 14.8848Z" stroke="#0E0E2C" stroke-width="1.5" stroke-linecap="round" stroke-linejoin="round"/>
<path d="M27.9919 22.248L27.9919 22.248C27.5634 27.9111 26.9514 33.0149 26.7156 38.4231C26.6412 40.13 26.604 40.9835 26.9532 41.8123C27.2371 42.486 27.8292 43.1981 28.4398 43.6001C29.191 44.0946 30.0398 44.2142 31.7374 44.4532C33.7313 44.734 36.1656 45.0252 38.7767 45.2228C42.318 45.4908 47.5239 46.0049 51.6177 46.4271C53.7991 46.652 54.8898 46.7645 55.805 46.3985C56.5867 46.0858 57.3008 45.4812 57.7379 44.7617C58.2498 43.9193 58.3161 42.8648 58.4488 40.7559C58.7573 35.85 59.0521 29.6428 59.2501 25.1724C59.3409 23.1226 59.3862 22.0977 59.0284 21.2598C58.7154 20.527 58.1791 19.8932 57.5082 19.4632C56.7411 18.9716 55.7214 18.8465 53.6821 18.5964C50.9361 18.2596 47.5056 17.8466 44.0422 17.4495C39.2317 17.39 34.6282 15.5335 30.303 16.9747C29.6215 17.2735 29.0468 17.789 28.6612 18.4473C28.2229 19.1958 28.1459 20.2132 27.9919 22.248Z" fill="#FDC62F"/>
<path d="M23.3823 34.3015C23.3823 34.3015 42.8511 36.9843 58.7306 37.9718" stroke="white" stroke-width="2"/>
<path d="M48.9031 15.8117C48.8336 26.4422 48.1836 37.8843 46.8321 48.4134" stroke="white" stroke-width="2"/>
<path d="M59.4997 26C59.5647 24.6194 59.6118 23.3795 59.6459 22.2896C59.7041 20.4239 59.7332 19.491 59.3713 18.6642C59.0637 17.9615 58.5008 17.3046 57.8534 16.8929C57.0918 16.4086 56.1362 16.2909 54.2249 16.0554C51.0822 15.6683 46.9435 15.1676 42.7613 14.6881C37.4803 14.6227 32.4265 12.5847 27.6782 14.1669C26.9301 14.4948 26.2991 15.0608 25.8759 15.7835C25.3947 16.6052 25.3102 17.7221 25.1412 19.956C25.0603 21.0245 24.9735 22.0749 24.8838 23.112M24.0628 33.5C23.9299 35.2202 23.8173 36.7095 23.7406 38.221C23.6548 39.9125 23.6119 40.7582 23.9568 41.591C24.2365 42.2665 24.828 42.9858 25.4366 43.3908C26.1871 43.8901 27.0416 44.0138 28.7505 44.2613C31.0269 44.5909 33.8911 44.944 36.9807 45.1778C41.0498 45.4858 47.1209 46.0897 51.6985 46.5641C53.867 46.7888 54.9512 46.9012 55.8627 46.5397C56.6453 46.2293 57.3521 45.6364 57.7937 44.9196C58.308 44.0848 58.3842 43.0198 58.5365 40.8899C58.6354 39.5076 58.739 38.0107 58.841 36.5M59.2543 30.1484C59.1887 31.2005 59.1163 32.3339 59.0402 33.5" stroke="#0E0E2C" stroke-width="1.5" stroke-linecap="round" stroke-linejoin="round"/>
<path d="M40.5989 20.8192L40.3023 23.3016M32.0348 19.7961L31.7382 22.2785M32.4176 27.093C33.9169 29.0849 36.6764 29.4146 38.6028 27.8319" stroke="#0E0E2C" stroke-width="2" stroke-linecap="round" stroke-linejoin="round"/>
<path d="M40.9587 29.9262C39.4242 29.7068 38.3377 27.6995 38.6304 25.6249" stroke="#0E0E2C" stroke-width="2" stroke-linecap="round" stroke-linejoin="round"/>
<g filter="url(#filter0_b_8729_438)">
<path d="M5.63817 28.3421C5.64567 27.878 6.22647 27.6737 6.52288 28.0309L8.49522 30.4076C8.58841 30.5199 8.72601 30.5859 8.87192 30.5882L11.96 30.6381C12.4241 30.6456 12.6285 31.2264 12.2713 31.5228L9.89453 33.4951C9.78224 33.5883 9.71625 33.7259 9.7139 33.8718L9.66406 36.96C9.65656 37.424 9.07576 37.6284 8.77935 37.2712L6.80701 34.8944C6.71382 34.7821 6.57622 34.7162 6.43031 34.7138L3.34219 34.664C2.87809 34.6565 2.67377 34.0757 3.03096 33.7793L5.4077 31.8069C5.51999 31.7137 5.58598 31.5761 5.58833 31.4302L5.63817 28.3421Z" fill="url(#paint0_linear_8729_438)" fill-opacity="0.8"/>
</g>
<path d="M14.5047 14.7259C14.2135 14.0804 14.193 13.2553 15.4424 13.3761C16.7505 13.5025 18.0482 14.0861 19 14.6448M14.5527 16.6331C14.5527 16.6331 13.5007 16.2925 13.732 15.578C14.0529 14.5871 15.9804 15.0381 17.3398 15.6387M17.4261 17.4689C15.9622 16.7326 14.429 16.5274 14.1537 17.3679C13.9221 18.0752 15.4113 18.596 15.861 18.7416C23.8658 21.3334 16.2679 30.596 25.5 33.9998" stroke="#0E0E2C" stroke-width="1.5" stroke-linecap="round" stroke-linejoin="round"/>
<g filter="url(#filter1_b_8729_438)">
<path d="M64.4729 4.89163C64.8336 4.59948 65.363 4.9137 65.2794 5.37026L65.0034 6.87715C64.9771 7.0207 65.0148 7.16856 65.1066 7.28196L66.0709 8.47241C66.363 8.83309 66.0488 9.36257 65.5923 9.27893L64.0854 9.00288C63.9418 8.97659 63.794 9.01432 63.6806 9.10616L62.4901 10.0704C62.1294 10.3626 61.5999 10.0483 61.6836 9.59178L61.9596 8.08488C61.9859 7.94134 61.9482 7.79348 61.8563 7.68008L60.8921 6.48963C60.6 6.12895 60.9142 5.59947 61.3707 5.68311L62.8776 5.95915C63.0212 5.98545 63.169 5.94772 63.2824 5.85587L64.4729 4.89163Z" fill="url(#paint1_linear_8729_438)" fill-opacity="0.8"/>
</g>
<rect x="17.7744" y="10.8728" width="3.22353" height="8.03053" transform="rotate(20.1315 17.7744 10.8728)" fill="white" stroke="#0E0E2C" stroke-width="1.5" stroke-linecap="round" stroke-linejoin="round"/>
<path d="M17.5002 14.4991C17.8528 13.7896 18.7741 13.7642 19.4991 13.999C25.0678 15.802 20.9197 22.2861 24 24.4998C20.0004 24.9997 19.5001 15.9989 19.5001 15.9989C17.5 15.9993 17.286 14.93 17.5002 14.4991Z" fill="white"/>
<path d="M25 23.4998C22.5015 21.4999 24.5042 15.7585 19.2316 14.0513C18.5066 13.8166 17.3167 13.8664 17.0003 14.4993C16.5003 15.4994 17.4997 16.4995 19.5 16.4993" stroke="#0E0E2C" stroke-width="1.5" stroke-linecap="round" stroke-linejoin="round"/>
<path d="M24.0453 9.20212C24.2122 8.66753 24.2957 8.40023 24.2554 8.16355C24.22 7.95537 24.1196 7.76374 23.9685 7.61614C23.7968 7.44835 23.5295 7.36489 22.9949 7.19796L19.4275 6.08407C19.194 6.01117 19.0773 5.97472 18.9757 5.91404C18.8856 5.86025 18.8045 5.79261 18.7355 5.7136C17.4742 4.27086 14.797 1.22642 14.0554 0.38321C13.988 0.306659 13.9544 0.268384 13.8925 0.229645C13.8523 0.204479 13.7599 0.169028 13.7132 0.160869C13.6413 0.148309 13.616 0.151279 13.5655 0.15722C13.5061 0.164198 13.4496 0.178081 13.4092 0.203471C13.253 0.301655 13.1628 0.590796 12.9822 1.16908L9.36469 12.7547C9.18412 13.333 9.09384 13.6221 9.16639 13.7917C9.1805 13.8247 9.20581 13.8575 9.23659 13.8886C9.27125 13.9236 9.28858 13.9411 9.36522 13.9783C9.41357 14.0018 9.52888 14.0285 9.58265 14.0287C9.66786 14.0289 9.72348 14.0095 9.83473 13.9707C10.9833 13.5705 14.9343 12.2079 16.8593 11.7222C16.9611 11.6966 17.0662 11.6871 17.1709 11.6941C17.289 11.702 17.4057 11.7385 17.6392 11.8114L21.2066 12.9253C21.7412 13.0922 22.0085 13.1756 22.2452 13.1354C22.4534 13.0999 22.645 12.9995 22.7926 12.8485C22.9604 12.6768 23.0439 12.4095 23.2108 11.8749L24.0453 9.20212Z" fill="#FDC62F"/>
<defs>
<filter id="filter0_b_8729_438" x="-5.1507" y="19.8492" width="25.6036" height="25.6035" filterUnits="userSpaceOnUse" color-interpolation-filters="sRGB">
<feFlood flood-opacity="0" result="BackgroundImageFix"/>
<feGaussianBlur in="BackgroundImageFix" stdDeviation="4"/>
<feComposite in2="SourceAlpha" operator="in" result="effect1_backgroundBlur_8729_438"/>
<feBlend mode="normal" in="SourceGraphic" in2="effect1_backgroundBlur_8729_438" result="shape"/>
</filter>
<filter id="filter1_b_8729_438" x="52.7789" y="-3.22156" width="21.4051" height="21.4052" filterUnits="userSpaceOnUse" color-interpolation-filters="sRGB">
<feFlood flood-opacity="0" result="BackgroundImageFix"/>
<feGaussianBlur in="BackgroundImageFix" stdDeviation="4"/>
<feComposite in2="SourceAlpha" operator="in" result="effect1_backgroundBlur_8729_438"/>
<feBlend mode="normal" in="SourceGraphic" in2="effect1_backgroundBlur_8729_438" result="shape"/>
</filter>
<linearGradient id="paint0_linear_8729_438" x1="7.35858" y1="40.4901" x2="-1.50111" y2="37.7238" gradientUnits="userSpaceOnUse">
<stop stop-color="#9747FF"/>
<stop offset="1" stop-color="#735EA1"/>
</linearGradient>
<linearGradient id="paint1_linear_8729_438" x1="59.3489" y1="10.6859" x2="56.9719" y2="4.97304" gradientUnits="userSpaceOnUse">
<stop stop-color="#9747FF"/>
<stop offset="1" stop-color="#735EA1"/>
</linearGradient>
</defs>
</svg>
