<svg width="40" height="41" viewBox="0 0 40 41" fill="none" xmlns="http://www.w3.org/2000/svg">
<path d="M27.7499 35H12.251C11.8438 35 11.501 34.6572 11.501 34.25C11.501 33.8428 11.8438 33.5 12.251 33.5H27.7499C28.1571 33.5 28.4999 33.8428 28.4999 34.25C28.4999 34.6572 28.1571 35 27.7499 35Z" fill="#8098F9" stroke="#8098F9"/>
<path d="M20.75 25.8334L20.75 34.25C20.75 34.6572 20.4072 35 20 35C19.5928 35 19.25 34.6572 19.25 34.25L19.25 25.8334C19.25 25.4262 19.5928 25.0834 20 25.0834C20.4072 25.0834 20.75 25.4262 20.75 25.8334Z" fill="#8098F9" stroke="#8098F9"/>
<path d="M29 29.5H11C7.685 29.5 5 26.8757 5 23.6357V11.3643C5 8.12425 7.685 5.5 11 5.5H29C32.315 5.5 35 8.12425 35 11.3643V23.6357C35 26.8757 32.315 29.5 29 29.5Z" fill="#C7D7FE"/>
<path d="M23.3333 20.8333L26.6667 17.5L23.3333 14.1667M16.6667 14.1667L13.3333 17.5L16.6667 20.8333M21.3333 11.5L18.6667 23.5" stroke="#444CE7" stroke-width="2" stroke-linecap="round" stroke-linejoin="round"/>
</svg>
