<svg width="40" height="40" viewBox="0 0 40 40" fill="none" xmlns="http://www.w3.org/2000/svg">
<path d="M27.7499 35H12.251C11.5676 35 11.001 34.4333 11.001 33.75C11.001 33.0667 11.5676 32.5 12.251 32.5L27.7499 32.5C28.4333 32.5 28.9999 33.0667 28.9999 33.75C28.9999 34.4333 28.4333 35 27.7499 35Z" fill="#8B75B4"/>
<path d="M21.25 25.3334L21.25 33.75C21.25 34.4333 20.6833 35 20 35C19.3167 35 18.75 34.4333 18.75 33.75L18.75 25.3334C18.75 24.6501 19.3167 24.0834 20 24.0834C20.6833 24.0834 21.25 24.6501 21.25 25.3334Z" fill="#8B75B4"/>
<path d="M29 29H11C7.685 29 5 26.3757 5 23.1357V10.8643C5 7.62425 7.685 5 11 5H29C32.315 5 35 7.62425 35 10.8643V23.1357C35 26.3757 32.315 29 29 29Z" fill="#D8C8EC"/>
<path d="M23.3333 20.3333L26.6667 17L23.3333 13.6667M16.6667 13.6667L13.3333 17L16.6667 20.3333M21.3333 11L18.6667 23" stroke="#543D8C" stroke-width="2" stroke-linecap="round" stroke-linejoin="round"/>
</svg>
