<?xml version="1.0" encoding="UTF-8"?>
<svg width="69px" height="76px" viewBox="0 0 69 76" version="1.1" xmlns="http://www.w3.org/2000/svg" xmlns:xlink="http://www.w3.org/1999/xlink">
    <title>编组</title>
    <g id="页面-1" stroke="none" stroke-width="1" fill="none" fill-rule="evenodd">
        <g id="Registering" transform="translate(-597.000000, -530.000000)">
            <g id="编组" transform="translate(597.000000, 530.000000)">
                <path d="M42.3081607,18.3564532 L42.3081607,5.20258163 C42.3081607,2.3295931 39.9785676,-5.68434189e-14 37.105579,-5.68434189e-14 L5.20258163,-5.68434189e-14 C2.32827097,-5.68434189e-14 0,2.3295931 0,5.20258163 L0,70.7960962 C0,73.6704069 2.32827097,76 5.20258163,76 L37.105579,76 C39.9785676,76 42.3081607,73.6704069 42.3081607,70.7960962 L42.3081607,48.2696449 L42.3081607,18.3564532 Z" id="Fill-13" fill="#330D84"></path>
                <path d="M39.3281666,18.056034 L39.3281666,10.2025816 C39.3281666,7.3295931 36.9985735,5 34.125585,5 L8.20390376,5 C5.3295931,5 3,7.3295931 3,10.2025816 L3,60.7145591 C3,63.5875476 5.3295931,65.9171407 8.20390376,65.9171407 L34.125585,65.9171407 C36.9985735,65.9171407 39.3281666,63.5875476 39.3281666,60.7145591 L39.3281666,47.9692257 L39.3281666,18.056034 Z" id="Fill-21" fill="#8AC9F9"></path>
                <path d="M21.4987955,48 C16.8061499,48 13,44.196259 13,39.5036134 C13,34.8061499 16.8061499,31 21.4987955,31 C26.1938501,31 30,34.8061499 30,39.5036134 C30,44.196259 26.1938501,48 21.4987955,48 M36.4896928,44.1605192 L34.5257998,43.0244185 C34.9041444,41.7506747 35.109719,40.3982779 35.109719,39.0021848 C35.109719,37.6017221 34.9041444,36.2493253 34.5257998,34.9733967 L36.4896928,33.8394808 C36.9795726,33.5598252 37.1435948,32.9371546 36.8636635,32.452127 L34.6110913,28.5500578 C34.3267861,28.0650302 33.7056885,27.8989847 33.2179957,28.1786403 L31.2497287,29.3125562 C29.3951838,27.357152 26.9851503,25.9282869 24.2733158,25.2837682 L24.2733158,23.0181211 C24.2733158,22.4566251 23.8162405,22 23.2541909,22 L18.7468595,22 C18.182623,22 17.7277346,22.4566251 17.7277346,23.0181211 L17.7277346,25.2837682 C15.0159001,25.9282869 12.6036796,27.357152 10.7491347,29.3125562 L8.78086775,28.1786403 C8.29317493,27.8989847 7.67207736,28.0650302 7.38995909,28.5500578 L5.13738689,32.452127 C4.85526862,32.9371546 5.02147783,33.5598252 5.50917065,33.8394808 L7.4730637,34.9733967 C7.09471904,36.2493253 6.88914449,37.6017221 6.88914449,39.0021848 C6.88914449,40.3982779 7.09471904,41.7506747 7.4730637,43.0244185 L5.50917065,44.1605192 C5.02147783,44.4423596 4.85526862,45.0606606 5.13738689,45.547873 L7.38995909,49.452127 C7.67207736,49.9371546 8.29317493,50.1032001 8.78086775,49.8235445 L10.7491347,48.6874438 C12.6036796,50.6450328 15.0159001,52.0717131 17.7277346,52.714047 L17.7277346,54.9818789 C17.7277346,55.5433749 18.182623,56 18.7468595,56 L23.2541909,56 C23.8162405,56 24.2733158,55.5433749 24.2733158,54.9818789 L24.2733158,52.7162318 C26.9851503,52.0717131 29.3951838,50.6472176 31.2497287,48.6874438 L33.2179957,49.8235445 C33.7056885,50.1032001 34.3267861,49.9371546 34.6110913,49.452127 L36.8636635,45.547873 C37.1435948,45.0606606 36.9795726,44.4423596 36.4896928,44.1605192" id="Fill-53" fill="#FFFFFF"></path>
                <path d="M28.6046771,9.35645321 C25.2333779,9.35645321 22.5008512,12.0913457 22.5008512,15.461462 L22.5008512,30.0148282 C22.5008512,33.3849445 25.2333779,36.119837 28.6046771,36.119837 L33.0169388,36.119837 L33.0169388,44.3564532 L41.3966873,36.119837 L62.3082055,36.119837 C65.6771389,36.119837 68.4120314,33.3849445 68.4120314,30.0148282 L68.4120314,15.461462 C68.4120314,12.0913457 65.6771389,9.35645321 62.3082055,9.35645321 L28.6046771,9.35645321 Z" id="Fill-15" fill="#FFBE1B"></path>
                <path d="M25.3990432,73.7374389 L16.9083242,73.7374389 C16.0991806,73.7374389 15.4434041,73.0816624 15.4434041,72.273841 L15.4434041,69.3109476 C15.4434041,68.5031261 16.0991806,67.8460275 16.9083242,67.8460275 L25.3990432,67.8460275 C26.2081868,67.8460275 26.8639633,68.5031261 26.8639633,69.3109476 L26.8639633,72.273841 C26.8639633,73.0816624 26.2081868,73.7374389 25.3990432,73.7374389" id="Fill-17" fill="#5932AE"></path>
                <path d="M26.0587861,3.62197519 L16.2485813,3.62197519 C15.9643234,3.62197519 15.7329506,3.39060244 15.7329506,3.10634448 L15.7329506,2.06450603 C15.7329506,1.78024807 15.9643234,1.55019745 16.2485813,1.55019745 L26.0587861,1.55019745 C26.3443662,1.55019745 26.5744168,1.78024807 26.5744168,2.06450603 L26.5744168,3.10634448 C26.5744168,3.39060244 26.3443662,3.62197519 26.0587861,3.62197519" id="Fill-19" fill="#5932AE"></path>
                <text id="Data" font-family=".AppleSystemUIFont" font-size="16" font-weight="normal" fill="#2D286D">
                    <tspan x="28" y="29">Data</tspan>
                </text>
            </g>
        </g>
    </g>
</svg>