<?xml version="1.0" encoding="UTF-8"?>
<svg width="19px" height="22px" viewBox="0 0 19 22" version="1.1" xmlns="http://www.w3.org/2000/svg" xmlns:xlink="http://www.w3.org/1999/xlink">
    <title>referral</title>
    <g id="Overview" stroke="none" stroke-width="1" fill="none" fill-rule="evenodd">
        <g id="Overview-referral" transform="translate(-439.000000, -1082.000000)" fill="#FFAC27" fill-rule="nonzero">
            <g id="referral-4" transform="translate(283.000000, 387.000000)">
                <g id="referral-8" transform="translate(37.000000, 668.000000)">
                    <g id="referral" transform="translate(119.000000, 27.000000)">
                        <path d="M12.7846826,10.583829 C14.3513681,9.52318249 15.3792989,7.78993094 15.3792989,5.82062088 C15.3792989,2.603111 12.6623886,0 9.29434528,0 C5.9296072,0 3.20939163,2.603111 3.20939163,5.80445248 C3.20939163,7.78993094 4.25384864,9.55228559 5.83706037,10.5967637 C2.65741593,12.0228158 0,15.7253774 0,18.3414231 C0,23.2048752 18.7407348,23.2048752 18.7407348,18.4287324 C18.744037,15.3729065 16.0106005,11.9646096 12.7846826,10.583829 Z M8.09123658,7.56680714 L10.6594109,7.56680714 C10.755263,7.56680714 10.8378941,7.6476491 10.8279784,7.74142577 C10.7387368,8.4496013 10.1239615,8.99932661 9.37697637,8.99932661 C8.6299913,8.99932661 8.01191073,8.4496013 7.92597439,7.74142577 C7.90944817,7.6476491 7.99538451,7.56680714 8.09123658,7.56680714 L8.09123658,7.56680714 Z M11.6675103,17.5653403 L10.3156656,17.5653403 L10.3156656,18.8879147 C10.3156656,19.3956022 9.89589964,19.8062794 9.37697637,19.8062794 C8.85805311,19.8062794 8.43828716,19.3956022 8.43828716,18.8879147 L8.43828716,17.5653403 L7.08313725,17.5653403 C6.56421399,17.5653403 6.14444804,17.1546632 6.14444804,16.6469757 C6.14444804,16.1392882 6.56421399,15.7286111 7.08313725,15.7286111 L8.43498192,15.7286111 L8.43498192,14.4060367 C8.43498192,13.8983492 8.85474787,13.487672 9.37367113,13.487672 C9.89259439,13.487672 10.3123603,13.8983492 10.3123603,14.4060367 L10.3123603,15.7286111 L11.664205,15.7286111 C12.1831283,15.7286111 12.6029136,16.1392882 12.6029136,16.6469757 C12.6061995,17.1546632 12.1864335,17.5653403 11.6675103,17.5653403 L11.6675103,17.5653403 Z" id="referral"></path>
                    </g>
                </g>
            </g>
        </g>
    </g>
</svg>