<?xml version="1.0" encoding="UTF-8"?>
<svg width="21px" height="22px" viewBox="0 0 21 22" version="1.1" xmlns="http://www.w3.org/2000/svg" xmlns:xlink="http://www.w3.org/1999/xlink">
    <title>register</title>
    <g id="Overview" stroke="none" stroke-width="1" fill="none" fill-rule="evenodd">
        <g id="Overview-register" transform="translate(-439.000000, -518.000000)" fill-rule="nonzero">
            <g id="register-4" transform="translate(283.000000, 387.000000)">
                <g id="register-8" transform="translate(38.000000, 104.000000)">
                    <g id="register" transform="translate(118.148438, 27.503906)">
                        <path d="M19.2822611,21.4391967 L0.717738936,21.4391967 C0.32354035,21.4391967 0,21.1714392 0,21.1119375 L0,0.86649312 C0,0.271476385 0.32354035,0 0.717738936,0 L19.2822611,0 C19.6764597,0 20,0.267757531 20,0.595016735 L20,20.84418 C20,21.1714392 19.6764597,21.4391967 19.2822611,21.4391967 Z" id="register" fill="#FF6A69"></path>
                        <path d="M12.9453328,6.07288955 L2.53997769,6.07288955 C2.34659725,6.07288955 2.1866865,5.9129788 2.1866865,5.71959836 L2.1866865,5.42952771 C2.1866865,5.23614727 2.34659725,5.07623652 2.53997769,5.07623652 L12.9453328,5.07623652 C13.1387133,5.07623652 13.298624,5.23614727 13.298624,5.42952771 L13.298624,5.71959836 C13.298624,5.9129788 13.1387133,6.07288955 12.9453328,6.07288955 Z M9.00334697,10.0780959 L2.53997769,10.0780959 C2.34659725,10.0780959 2.1866865,9.9181852 2.1866865,9.72480476 L2.1866865,9.44589067 C2.1866865,9.25251023 2.34659725,9.09259948 2.53997769,9.09259948 L9.00334697,9.09259948 C9.19672741,9.09259948 9.35663816,9.25251023 9.35663816,9.44589067 L9.35663816,9.72480476 C9.35663816,9.9181852 9.19672741,10.0780959 9.00334697,10.0780959 Z M6.4373373,14.3696541 L2.53997769,14.3696541 C2.34659725,14.3696541 2.1866865,14.2097434 2.1866865,14.016363 L2.1866865,13.759762 C2.1866865,13.5663816 2.34659725,13.4064708 2.53997769,13.4064708 L6.4373373,13.4064708 C6.63071774,13.4064708 6.79062849,13.5663816 6.79062849,13.759762 L6.79062849,14.016363 C6.79062849,14.2097434 6.63071774,14.3696541 6.4373373,14.3696541 Z M17.9843808,19.4161398 C18.2186687,19.4161398 18.4083302,19.1744143 18.4083302,18.8769059 C18.4083302,18.5793975 18.2186687,18.337672 17.9843808,18.337672 L12.071402,18.337672 C11.8371142,18.337672 11.6474526,18.5793975 11.6474526,18.8769059 C11.6474526,19.1744143 11.8371142,19.4161398 12.071402,19.4161398 L17.9843808,19.4161398 Z M14.2283377,10.6954258 C14.2283377,10.2231313 14.321309,9.75827445 14.4998141,9.33432503 C13.6519152,9.56117516 13.0048345,10.35701 12.8597992,11.3573819 C12.7147639,12.3577538 13.0978059,13.3618446 13.8304202,13.9047973 C14.0126441,14.0423949 14.1204909,14.2841205 14.116772,14.5370026 C14.116772,14.9572332 13.8267014,15.2993678 13.4659725,15.2993678 L12.1606545,15.2993678 C11.5767943,15.2993678 11.1044998,15.8534771 11.1044998,16.5340275 C11.1044998,16.8724433 11.2197843,17.1997025 11.4243213,17.441428 C11.6288583,17.6831536 11.9077724,17.8170324 12.2015619,17.8170324 L17.7686872,17.8170324 C18.055039,17.8170324 18.3265154,17.6868724 18.5273336,17.4488657 C18.7281517,17.2145779 18.8434362,16.8947564 18.8434362,16.5600595 C18.8471551,16.2253626 18.7318706,15.9055411 18.5310524,15.6675344 C18.3302343,15.4295277 18.055039,15.2956489 17.7686872,15.2956489 L16.4931201,15.2956489 C16.1323912,15.2956489 15.8423206,14.9535143 15.8423206,14.5332837 C15.8386017,14.2804016 15.9464485,14.0423949 16.1286724,13.9010785 C16.2030495,13.8452956 16.2774266,13.785794 16.3443659,13.7188546 C15.1097062,13.4250651 14.2283377,12.1606545 14.2283377,10.6954258 L14.2283377,10.6954258 Z" id="register" fill="#FFFFFF"></path>
                        <path d="M17.1253254,11.8185199 C17.1253254,11.0524358 16.8129416,10.3309781 16.2774266,9.85496467 C15.7419115,9.37895128 15.039048,9.20044626 14.3696541,9.37151357 C13.8155448,9.82149498 13.4250651,11.5730755 13.8006694,12.4321309 C14.1762737,13.2911863 15.2956489,14.4105615 16.2997397,13.7634808 C16.8240982,13.2837486 17.1253254,12.5734474 17.1253254,11.8185199 L17.1253254,11.8185199 Z" id="register" fill="#FEE8EB"></path>
                    </g>
                </g>
            </g>
        </g>
    </g>
</svg>