<svg width="20" height="20" viewBox="0 0 20 20" fill="none" xmlns="http://www.w3.org/2000/svg">
<path d="M19 4H15.8C14.1198 4 13.2798 4 12.638 4.32698C12.0735 4.6146 11.6146 5.07354 11.327 5.63803C11 6.27976 11 7.11984 11 8.8V10M19 4L16 1M19 4L16 7M8 1H5.8C4.11984 1 3.27976 1 2.63803 1.32698C2.07354 1.6146 1.6146 2.07354 1.32698 2.63803C1 3.27976 1 4.11984 1 5.8V14.2C1 15.8802 1 16.7202 1.32698 17.362C1.6146 17.9265 2.07354 18.3854 2.63803 18.673C3.27976 19 4.11984 19 5.8 19H14.2C15.8802 19 16.7202 19 17.362 18.673C17.9265 18.3854 18.3854 17.9265 18.673 17.362C19 16.7202 19 15.8802 19 14.2V12" stroke="#0E0E2C" stroke-width="2" stroke-linecap="round" stroke-linejoin="round"/>
</svg>
