<?xml version="1.0" encoding="UTF-8"?>
<svg width="22px" height="22px" viewBox="0 0 22 22" version="1.1" xmlns="http://www.w3.org/2000/svg" xmlns:xlink="http://www.w3.org/1999/xlink">
    <title>subscribe</title>
    <g id="Overview" stroke="none" stroke-width="1" fill="none" fill-rule="evenodd">
        <g id="Overview-subscribe" transform="translate(-437.000000, -940.000000)" fill-rule="nonzero">
            <g id="subscribe-4" transform="translate(283.000000, 387.000000)">
                <g id="subscribe-8" transform="translate(37.000000, 527.000000)">
                    <g id="subscribe" transform="translate(117.000000, 26.000000)">
                        <path d="M0,11 C0,17.0751322 4.92486775,22 11,22 C17.0751322,22 22,17.0751322 22,11 C22,4.92486775 17.0751322,0 11,0 C4.92486775,0 0,4.92486775 0,11 Z" id="subscribe" fill="#5DE89A"></path>
                        <path d="M15.5925653,4.52941176 L7.05323306,4.52941176 C6.01590901,4.52941176 5.17647059,5.35614949 5.17647059,6.37500767 L5.17647059,16.8883351 C5.17647059,17.8241476 6.21631548,18.400509 7.03054554,17.9171091 L11.1281646,15.485236 C11.2050501,15.4393749 11.3008419,15.4393749 11.3777274,15.4839965 L15.6265966,17.9493358 C16.4420871,18.4215803 17.4705882,17.8439794 17.4705882,16.9143643 L17.4705882,6.37500767 C17.4693278,5.35614949 16.628629,4.52941176 15.5925653,4.52941176 Z M13.4473338,10.9896172 L12.0709573,10.9896172 L12.0709573,12.3431368 C12.0709573,12.7497593 11.7357581,13.079392 11.322269,13.079392 C10.9087799,13.079392 10.5735807,12.7497593 10.5735807,12.3431368 L10.5735807,10.9896172 L9.19720416,10.9896172 C8.78371503,10.9896172 8.44851587,10.6599845 8.44851587,10.253362 C8.44851587,9.8467395 8.78371503,9.51710683 9.19720416,9.51710682 L10.5735807,9.51710682 L10.5735807,8.16358718 C10.5735807,7.75696467 10.9087799,7.427332 11.322269,7.427332 C11.7357581,7.427332 12.0709573,7.75696467 12.0709573,8.16358718 L12.0709573,9.51710682 L13.4473338,9.51710682 C13.860823,9.51710682 14.1960221,9.84673949 14.1960221,10.253362 C14.1960221,10.6599845 13.860823,10.9896172 13.4473338,10.9896172 L13.4473338,10.9896172 Z" id="subscribe" fill="#FFFFFF"></path>
                    </g>
                </g>
            </g>
        </g>
    </g>
</svg>