<?xml version="1.0" encoding="UTF-8"?>
<svg width="22px" height="19px" viewBox="0 0 22 19" version="1.1" xmlns="http://www.w3.org/2000/svg" xmlns:xlink="http://www.w3.org/1999/xlink">
    <title>twitter</title>
    <g id="Overview" stroke="none" stroke-width="1" fill="none" fill-rule="evenodd">
        <g id="Overview-twitter" transform="translate(-441.000000, -803.000000)" fill="#36ADFF" fill-rule="nonzero">
            <g id="twitter-4" transform="translate(283.000000, 387.000000)">
                <g id="twitter-8" transform="translate(38.000000, 386.000000)">
                    <g id="twitter" transform="translate(120.000000, 30.000000)">
                        <path d="M22,2.12091787 C21.1752589,2.49224522 20.3002014,2.73628346 19.404,2.84489688 C20.3451938,2.27338401 21.0489466,1.37472813 21.384,0.316539409 C20.496529,0.850449725 19.525598,1.22712557 18.513,1.43035327 C17.2436313,0.0701652522 15.2831514,-0.36816963 13.5661496,0.32430926 C11.8491478,1.01678815 10.7231754,2.69991091 10.725,4.57130837 C10.7265117,4.92011326 10.7671046,5.26761823 10.846,5.60715527 C7.21329703,5.42032069 3.83014845,3.67915902 1.54,0.817755648 C1.13719881,1.51366392 0.924587585,2.30559123 0.924,3.11221221 C0.883405268,4.6252611 1.60424798,6.0556877 2.838,6.91031749 C2.09,6.88804121 0.693,6.68755471 0.693,6.34227242 L0.693,6.39796311 C0.750263095,8.58093828 2.29487143,10.4318325 4.411,10.8532186 C4.05289786,10.9549068 3.6829134,11.0073551 3.311,11.0091525 C3.0341597,11.0101781 2.75787134,10.9840674 2.486,10.9311855 C3.08143462,12.7930924 4.77754372,14.0677318 6.71,14.1055551 C5.11396433,15.3874557 3.13717625,16.0860578 1.1,16.0881437 C0.732360062,16.0876051 0.365066026,16.0652907 0,16.0213149 C2.06436876,17.3624904 4.46624246,18.0739288 6.919,18.0707324 C10.3383678,18.106666 13.6286547,16.7502038 16.0507764,14.3060425 C18.4728981,11.8618813 19.8237876,8.53493573 19.8,5.07252461 L19.8,4.48220326 C20.6645261,3.83196036 21.4092283,3.03266284 22,2.12091787 Z" id="telegram"></path>
                    </g>
                </g>
            </g>
        </g>
    </g>
</svg>