<svg xmlns="http://www.w3.org/2000/svg" width="40" height="40" viewBox="0 0 40 40" fill="none">
  <path d="M35.1333 14.2997V25.6997C35.1333 27.5663 34.1333 29.2997 32.5167 30.2497L22.6167 35.9664C21 36.8997 19 36.8997 17.3667 35.9664L7.46667 30.2497C5.85001 29.3164 4.85001 27.583 4.85001 25.6997V14.2997C4.85001 12.4331 5.85001 10.6997 7.46667 9.74966L17.3667 4.03301C18.9833 3.09967 20.9833 3.09967 22.6167 4.03301L32.5167 9.74966C34.1333 10.6997 35.1333 12.4164 35.1333 14.2997Z" fill="#D8C8EC"/>
  <path d="M33 15.212V24.788C33 26.356 32.1414 27.812 30.7534 28.61L22.2537 33.412C20.8657 34.196 19.1486 34.196 17.7463 33.412L9.24656 28.61C7.85856 27.826 7 26.37 7 24.788V15.212C7 13.644 7.85856 12.188 9.24656 11.39L17.7463 6.588C19.1343 5.804 20.8514 5.804 22.2537 6.588L30.7534 11.39C32.1414 12.188 33 13.63 33 15.212Z" fill="#D8C8EC" stroke="#8B75B4"/>
  <path d="M20 19C22.2092 19 24 17.2091 24 14.9999C24 12.7908 22.2092 11 20 11C17.7909 11 16 12.7908 16 14.9999C16 17.2091 17.7909 19 20 19Z" fill="#8B75B4" stroke="#8B75B4" stroke-width="1.5"/>
  <path d="M25.0913 28C26.6301 28 27.5229 26.0676 26.6681 24.6289C25.3762 22.4602 22.8686 21 20 21C17.1314 21 14.6238 22.4602 13.3319 24.6289C12.4771 26.0676 13.3699 28 14.9087 28H25.0913Z" fill="#543D8C" stroke="#543D8C" stroke-width="1.5"/>
</svg>