<svg width="80" height="80" viewBox="0 0 80 80" fill="none" xmlns="http://www.w3.org/2000/svg">
<rect width="80" height="80" rx="40" fill="#F7F0FF"/>
<rect x="19" y="23.5" width="42" height="33" rx="8" fill="url(#paint0_linear_7300_285)"/>
<path d="M33.2499 42.25C30.8723 42.25 28.758 43.398 27.4119 45.1795C27.1222 45.5629 26.9773 45.7546 26.982 46.0137C26.9857 46.2139 27.1114 46.4664 27.2689 46.59C27.4728 46.75 27.7553 46.75 28.3203 46.75H38.1795C38.7445 46.75 39.027 46.75 39.2309 46.59C39.3884 46.4664 39.5141 46.2139 39.5177 46.0137C39.5225 45.7546 39.3776 45.5629 39.0879 45.1795C37.7418 43.398 35.6274 42.25 33.2499 42.25Z" fill="white"/>
<path d="M33.2499 40C35.1138 40 36.6249 38.489 36.6249 36.625C36.6249 34.761 35.1138 33.25 33.2499 33.25C31.3859 33.25 29.8749 34.761 29.8749 36.625C29.8749 38.489 31.3859 40 33.2499 40Z" fill="white"/>
<path d="M33.2499 42.25C30.8723 42.25 28.758 43.398 27.4119 45.1795C27.1222 45.5629 26.9773 45.7546 26.982 46.0137C26.9857 46.2139 27.1114 46.4664 27.2689 46.59C27.4728 46.75 27.7553 46.75 28.3203 46.75H38.1795C38.7445 46.75 39.027 46.75 39.2309 46.59C39.3884 46.4664 39.5141 46.2139 39.5177 46.0137C39.5225 45.7546 39.3776 45.5629 39.0879 45.1795C37.7418 43.398 35.6274 42.25 33.2499 42.25Z" stroke="white" stroke-width="1.5" stroke-linecap="round" stroke-linejoin="round"/>
<path d="M33.2499 40C35.1138 40 36.6249 38.489 36.6249 36.625C36.6249 34.761 35.1138 33.25 33.2499 33.25C31.3859 33.25 29.8749 34.761 29.8749 36.625C29.8749 38.489 31.3859 40 33.2499 40Z" stroke="white" stroke-width="1.5" stroke-linecap="round" stroke-linejoin="round"/>
<path d="M43.75 36.625H52.75" stroke="white" stroke-width="3" stroke-linecap="round"/>
<path d="M43.75 43.75H49.75" stroke="white" stroke-width="3" stroke-linecap="round"/>
<defs>
<linearGradient id="paint0_linear_7300_285" x1="20.1667" y1="30.2692" x2="57.6708" y2="41.5185" gradientUnits="userSpaceOnUse">
<stop stop-color="#9747FF"/>
<stop offset="1" stop-color="#7C5BFF"/>
</linearGradient>
</defs>
</svg>
