<svg xmlns="http://www.w3.org/2000/svg" width="40" height="41" viewBox="0 0 40 41" fill="none">
  <path d="M35.1333 14.8V26.2C35.1333 28.0666 34.1333 29.8001 32.5167 30.75L22.6167 36.4667C21 37.4 19 37.4 17.3667 36.4667L7.46667 30.75C5.85001 29.8167 4.85001 28.0833 4.85001 26.2V14.8C4.85001 12.9334 5.85001 11.2 7.46667 10.25L17.3667 4.53331C18.9833 3.59998 20.9833 3.59998 22.6167 4.53331L32.5167 10.25C34.1333 11.2 35.1333 12.9167 35.1333 14.8Z" fill="#C7D7FE"/>
  <path d="M33 15.712V25.288C33 26.856 32.1414 28.312 30.7534 29.11L22.2537 33.912C20.8657 34.696 19.1486 34.696 17.7463 33.912L9.24656 29.11C7.85856 28.326 7 26.87 7 25.288V15.712C7 14.144 7.85856 12.688 9.24656 11.89L17.7463 7.088C19.1343 6.304 20.8514 6.304 22.2537 7.088L30.7534 11.89C32.1414 12.688 33 14.13 33 15.712Z" fill="#C7D7FE" stroke="#444CE7"/>
  <path d="M20 19.5C22.2092 19.5 24 17.7091 24 15.4999C24 13.2908 22.2092 11.5 20 11.5C17.7909 11.5 16 13.2908 16 15.4999C16 17.7091 17.7909 19.5 20 19.5Z" fill="#8098F9" stroke="#8098F9" stroke-width="1.5"/>
  <path d="M25.0913 28.5C26.6301 28.5 27.5229 26.5676 26.6681 25.1289C25.3762 22.9602 22.8686 21.5 20 21.5C17.1314 21.5 14.6238 22.9602 13.3319 25.1289C12.4771 26.5676 13.3699 28.5 14.9087 28.5H25.0913Z" fill="#444CE7" stroke="#444CE7" stroke-width="1.5"/>
</svg>