<?xml version="1.0" encoding="UTF-8"?>
<svg width="62px" height="80px" viewBox="0 0 62 80" version="1.1" xmlns="http://www.w3.org/2000/svg" xmlns:xlink="http://www.w3.org/1999/xlink">
    <title>编组</title>
    <g id="页面-1" stroke="none" stroke-width="1" fill="none" fill-rule="evenodd">
        <g id="Successfully" transform="translate(-420.000000, -682.000000)">
            <g id="编组" transform="translate(420.000000, 682.000000)">
                <path d="M46.208861,21.3153398 C45.9613474,21.1146871 45.6874004,21.0498054 45.4158564,21.0654251 C44.9604794,24.3527648 44.6420761,25.6287716 44.6420761,25.6287716 C44.6420761,25.6287716 44.6312624,25.5915247 44.6132395,25.5206354 C44.6504867,26.5623472 44.6817263,27.4983259 44.7021522,28.2672942 C44.9124186,28.3069442 45.1334986,28.3021381 45.341362,28.201211 C46.0346403,27.8623843 46.671447,25.1325467 46.9033408,24.2518377 C47.1352346,23.3699271 47.2061244,22.1275626 46.208861,21.3153398" id="Fill-13" fill="#F4B828"></path>
                <path d="M16.8900376,27.6379417 C16.8900376,27.6379417 16.1991624,24.9249253 15.9528503,23.1346708 C15.9132001,22.8427032 15.5947967,22.0809439 15.2235264,21.0668669 C15.0000432,21.078882 14.7777616,21.1497713 14.5747044,21.3155801 C13.5762394,22.1278029 13.6483308,23.3701674 13.8802246,24.252078 C14.1109168,25.132787 14.7477236,27.8626246 15.4422034,28.2014513 C15.988896,28.4669857 16.6413225,28.076494 16.8948437,27.89867 C16.8948437,27.7989445 16.8960452,27.6980174 16.8960452,27.5982918 C16.9056574,27.5382161 16.9236802,27.4132588 16.9477107,27.2318303 C16.9128665,27.4925586 16.8900376,27.6379417 16.8900376,27.6379417" id="Fill-15" fill="#F4B828"></path>
                <path d="M43.944232,19.7025489 C43.97427,18.1357759 44.1400801,16.3287003 43.9598518,15.1860614 C43.7784219,14.0422209 43.1764593,12.1738682 41.7923058,12.0537169 C41.7923058,12.0537169 35.6224894,18.9672229 22.3949316,18.098529 C21.1129075,18.014423 19.9726629,17.8113673 18.9549736,17.5206012 C17.6933753,18.5010358 17.2404015,19.7397958 17.2764472,20.7538728 C17.3929948,24.1673713 16.9532377,27.222819 16.8955646,27.597691 C16.8919601,28.1539916 16.889557,28.6886649 16.889557,29.1824867 C16.889557,32.6957108 19.0547,34.9689735 22.2663688,37.4188586 C24.0578383,38.7861804 26.6339019,40.1991598 28.2691736,40.9597175 C29.4118212,41.4931893 32.7724787,41.3898592 33.6940462,40.9645236 C35.4206336,40.1643159 37.1640423,39.3412794 38.9831469,37.918688 C41.9641234,35.5889542 44.7348336,32.9480286 44.7348336,29.9850974 C44.7348336,29.2353533 44.6855712,27.5868774 44.6134798,25.520275 C44.4741033,24.9976168 43.8877604,22.5777696 43.944232,19.7025489" id="Fill-17" fill="#F7DC7C"></path>
                <path d="M37.7465403,40.8146949 C37.6311941,40.2523868 37.5374754,39.5170608 37.4773993,38.981186 C36.1929721,39.7970133 34.9397844,40.3881578 33.6938059,40.964884 C32.7722384,41.3902196 29.4115809,41.4923482 28.2689333,40.960078 C27.1575253,40.4422258 25.6087632,39.6227939 24.1693396,38.7216592 C24.1140696,39.2395113 24.0167463,40.0781674 23.891788,40.7245814 L30.8389892,45.2843234 L37.7465403,40.8146949 Z" id="Fill-19" fill="#F4B828"></path>
                <path d="M44.5919726,6.01130781 C43.0660394,4.15256714 41.1604252,3.20697638 39.0505523,3.46410017 C37.4453187,1.37587051 34.9028977,-0.211328211 30.8645817,0.0229668315 C24.5181415,0.388226795 24.4460502,3.71761942 19.5919005,5.17505473 C14.7377509,6.63249005 12.7840759,2.79966346 10.8352069,4.11652175 C8.88633791,5.43458155 10.0361946,10.4424879 13.9783889,14.59732 C13.6515749,18.0156246 15.8419498,22.3350639 15.9524899,23.1340701 C16.1988019,24.925526 16.8896772,27.6385425 16.8896772,27.6385425 C16.8896772,27.6385425 17.4015256,24.3980618 17.2765673,20.7550743 C17.2405216,19.7397958 17.6934955,18.5022373 18.9550938,17.5206012 C19.9727831,17.8113673 21.1130276,18.014423 22.3950518,18.098529 C35.6226095,18.9672229 41.7924259,12.0537169 41.7924259,12.0537169 C43.1765795,12.1738682 43.7785421,14.0422209 43.9599719,15.1860614 C44.1402003,16.3287003 43.9743902,18.1357759 43.9443521,19.7025489 C43.8806715,22.9562462 44.6424365,25.6296127 44.6424365,25.6296127 C44.6424365,25.6296127 45.0028932,24.185394 45.5039279,20.4138446 C45.7910917,18.2583302 48.6374978,10.9387128 44.5919726,6.01130781" id="Fill-21" fill="#2D286D"></path>
                <path d="M50.0762004,46.1792103 L42.4837818,43.8915295 L38.6148803,42.185381 C38.7362341,42.6924195 38.7182113,43.1453899 38.7182113,43.1453899 C38.7182113,43.1453899 35.1160478,49.8966916 34.9862834,49.5001923 C34.0671189,46.6874503 31.1149789,45.4378767 30.8242105,45.3201285 C30.4493356,45.4799297 27.6918422,46.7427199 26.7174077,49.4641469 C26.5780311,49.8594447 22.9590463,43.0817097 22.9590463,43.0817097 C22.9590463,43.0817097 22.939822,42.604709 23.0719894,42.0784463 L19.2475443,43.8614916 L11.3355207,46.202039 C7.12418547,47.4504111 4.23572615,51.3156785 4.23572615,55.7096117 L4.23572615,60.026648 L57.1279341,60.026648 L57.1279341,55.6687603 C57.1279341,51.2976558 54.2623037,47.440799 50.0762004,46.1792103" id="Fill-23" fill="#5E83C2"></path>
                <path d="M24.6682116,60.0271286 L21.7989766,42.6724743 L19.2469435,43.8619722 L11.33492,46.2025196 C7.12358471,47.4496902 4.23512539,51.3161591 4.23512539,55.7088908 L4.23512539,60.0271286 L24.6682116,60.0271286 Z" id="Fill-25" fill="#2D286D"></path>
                <path d="M20.458198,52.6279711 C20.4365706,53.2046973 17.7247351,54.9841381 17.7043092,55.7891519 C17.6958985,56.0991422 18.6102569,57.9146284 19.7348817,60.0268883 L24.6683318,60.0268883 L21.7990968,42.672234 L20.6204035,43.222527 C19.1377252,45.0476253 16.7575097,48.0814457 16.7430915,48.7482855 C16.7226656,49.719108 20.4786239,52.0512448 20.458198,52.6279711" id="Fill-27" fill="#503992"></path>
                <path d="M57.1280543,60.0271286 L57.1280543,55.7088908 C57.1280543,51.3161591 54.239595,47.3271358 50.0282597,46.0799653 L42.1162361,43.7382164 L39.564203,42.5487185 L36.6889604,60.0271286 L57.1280543,60.0271286 Z" id="Fill-29" fill="#2D286D"></path>
                <path d="M41.6280577,60.0271286 C42.753884,57.9148687 43.6670408,56.098181 43.6586302,55.7893922 C43.6394058,54.9843784 40.9263687,53.2049376 40.9047413,52.6282114 C40.885517,52.0502836 44.6414753,49.7193483 44.6198479,48.7485258 C44.6066312,48.081686 42.2252142,44.9241098 40.7437373,43.09781 L39.5638426,42.5487185 L36.6898015,60.0271286 L41.6280577,60.0271286 Z" id="Fill-31" fill="#503992"></path>
                <path d="M33.3898208,60.0271286 L32.20512,51.3882499 C31.6848609,51.6117313 30.1613307,51.6501797 29.6675051,51.3486 L28.3842794,60.0271286 L33.3898208,60.0271286 Z" id="Fill-33" fill="#2D286D"></path>
                <path d="M30.8237299,45.3203688 C30.5377676,45.4429231 28.8712564,46.2034809 27.660122,47.7630448 C28.0938715,48.6785977 29.2365191,51.0419738 29.6294169,51.327934 C30.1196379,51.6799773 31.9423471,51.609088 32.3160205,51.327934 C32.6236101,51.0960419 33.6773451,48.6293357 34.0462124,47.7510296 C32.8110476,46.1602264 31.0484146,45.4116838 30.8237299,45.3203688" id="Fill-35" fill="#503992"></path>
                <path d="M23.8738853,40.7125663 L30.8655429,45.3011446 C30.8655429,45.3011446 27.7632126,46.541106 26.7166868,49.4643872 C26.5785117,49.8584835 22.9583254,43.08195 22.9583254,43.08195 C22.9583254,43.08195 22.9270858,42.299765 23.2250633,41.6305222 C23.5230408,40.964884 23.8738853,40.7125663 23.8738853,40.7125663" id="Fill-37" fill="#8AC1E8"></path>
                <path d="M37.8028917,40.7770875 L30.7980173,45.3091947 C30.7980173,45.3091947 34.0180968,46.5407456 34.9865237,49.5000722 C35.1162881,49.8965715 38.7184516,43.1452697 38.7184516,43.1452697 C38.7184516,43.1452697 38.7508927,42.3630847 38.4517136,41.696245 C38.1525346,41.0282037 37.8028917,40.7770875 37.8028917,40.7770875" id="Fill-39" fill="#8AC1E8"></path>
                <path d="M57.6033765,80 L3.76076443,80 C1.6845341,80 0,78.3154787 0,76.2380627 L0,63.7867831 C0,61.709367 1.6845341,60.0272488 3.76076443,60.0272488 L57.6033765,60.0272488 C59.6808083,60.0272488 61.3641409,61.709367 61.3641409,63.7867831 L61.3641409,76.2380627 C61.3641409,78.3154787 59.6808083,80 57.6033765,80" id="Fill-41" fill="#F4B828"></path>
                <polygon id="Fill-43" fill="#2D286D" points="12.0393724 75.2513802 9.08002328 64.7645744 11.122611 64.7645744 13.0126054 72.4722805 13.1099287 72.4722805 15.1260829 64.7645744 16.9848377 64.7645744 19.0082011 72.4758851 19.1007183 72.4758851 20.9895112 64.7645744 23.0320989 64.7645744 20.0739512 75.2513802 18.1995766 75.2513802 16.1005174 67.8933143 16.0188139 67.8933143 13.913747 75.2513802"></polygon>
                <path d="M26.9387281,75.4050537 C26.1505295,75.4050537 25.4692665,75.2404464 24.8985434,74.9112318 C24.3266189,74.5808158 23.8868617,74.1146287 23.5792721,73.5078646 C23.2728839,72.902302 23.1190891,72.1874018 23.1190891,71.3655669 C23.1190891,70.5569486 23.2728839,69.8456529 23.5828766,69.2316797 C23.8916678,68.6201096 24.3242158,68.1419074 24.8805206,67.7982747 C25.4368254,67.4558434 26.0904534,67.2840271 26.8414048,67.2840271 C27.3256182,67.2840271 27.7845997,67.3621254 28.2159462,67.5171206 C28.6484941,67.6721158 29.0293767,67.9124184 29.3633998,68.2368269 C29.6962215,68.5612354 29.9581533,68.9721529 30.1491954,69.4731838 C30.3402374,69.9730133 30.4351576,70.5689637 30.4351576,71.2574307 L30.4351576,71.8257464 L23.9889911,71.8257464 L23.9889911,70.5761728 L28.6593078,70.5761728 C28.6557033,70.2217265 28.5788059,69.904527 28.4286156,69.625776 C28.2784253,69.3482265 28.0693605,69.1283496 27.801421,68.9697499 C27.5334816,68.8087471 27.2210858,68.7270442 26.8666368,68.7270442 C26.4881573,68.7270442 26.1553356,68.8195607 25.8681718,69.0021907 C25.5822095,69.1848207 25.3599279,69.4227203 25.2001255,69.719494 C25.0415246,70.0150662 24.9610226,70.3382732 24.957418,70.689115 L24.957418,71.7788873 C24.957418,72.2366638 25.040323,72.6283571 25.2085361,72.9551686 C25.3743462,73.2807786 25.6098446,73.5294918 25.9102251,73.7025097 C26.2106056,73.8755276 26.5614501,73.960835 26.96396,73.960835 C27.233101,73.960835 27.4782115,73.9235881 27.6968886,73.8454898 C27.9143641,73.7697945 28.1042046,73.6556507 28.2652086,73.5054616 C28.425011,73.3552725 28.5463648,73.1702394 28.6280683,72.946758 L30.3594617,73.1414031 C30.2501232,73.5991796 30.0422599,73.9980819 29.7370732,74.3369086 C29.4306851,74.6781383 29.0413919,74.9400681 28.5667906,75.1263027 C28.0921894,75.3125372 27.5503029,75.4050537 26.9387281,75.4050537" id="Fill-45" fill="#2D286D"></path>
                <path d="M33.9026305,71.3194288 C33.9026305,71.8276688 33.9747218,72.2734301 34.120106,72.6555113 C34.2654902,73.0375924 34.4757566,73.3355676 34.7497036,73.5482354 C35.0248522,73.7621048 35.3576739,73.8690394 35.7505716,73.8690394 C36.1602907,73.8690394 36.5027245,73.7585002 36.7802761,73.5386233 C37.0566262,73.3187465 37.2656911,73.0159652 37.4062692,72.6326825 C37.5480488,72.2481983 37.6201401,71.8108476 37.6201401,71.3194288 C37.6201401,70.8316145 37.5492503,70.3966668 37.4098737,70.0181901 C37.2692957,69.6397135 37.0614323,69.3417383 36.7838807,69.127869 C36.5087321,68.9127982 36.1638952,68.804662 35.7505716,68.804662 C35.3540693,68.804662 35.0188446,68.9091936 34.741293,69.1170554 C34.4661444,69.3261186 34.255878,69.6168848 34.1152999,69.9929584 C33.9735203,70.369032 33.9026305,70.8099872 33.9026305,71.3194288 L33.9026305,71.3194288 Z M32.0835259,75.2507794 L32.0835259,64.7651751 L33.9374746,64.7651751 L33.9374746,68.6881152 L34.0155736,68.6881152 C34.1104938,68.4958731 34.2450643,68.2916159 34.419285,68.0753436 C34.5935058,67.8578697 34.8290041,67.6728367 35.1257801,67.51664 C35.4237576,67.3616448 35.8010355,67.284748 36.2624201,67.284748 C36.8703903,67.284748 37.4194859,67.4397432 37.9085055,67.7473305 C38.397525,68.0561194 38.7868182,68.5126943 39.076385,69.1146523 C39.3647503,69.7166104 39.508933,70.4555409 39.508933,71.3290409 C39.508933,72.1929287 39.3671534,72.9270532 39.0835941,73.5314143 C38.8000349,74.1357753 38.4143463,74.5959548 37.9265283,74.9131543 C37.4375088,75.2315552 36.8848086,75.3901549 36.2684277,75.3901549 C35.8178569,75.3901549 35.4429819,75.3144596 35.146206,75.1642705 C34.84943,75.0140814 34.6115286,74.8326529 34.4313003,74.6187836 C34.2522735,74.4049142 34.1140984,74.2030601 34.0155736,74.0120195 L33.9074366,74.0120195 L33.9074366,75.2507794 L32.0835259,75.2507794 Z" id="Fill-47" fill="#2D286D"></path>
                <path d="M48.4123325,75.3944804 C47.6757994,75.3944804 47.0209698,75.269523 46.4490453,75.0160038 C45.8783222,74.763686 45.4265499,74.4116427 45.0949298,73.9610753 C44.7645112,73.5105079 44.5878874,72.9902528 44.5674615,72.3991084 L46.4923001,72.3991084 C46.5103229,72.6826655 46.6040416,72.9289756 46.7746578,73.1392404 C46.9452739,73.3495052 47.1723616,73.512911 47.4547193,73.6282562 C47.7382786,73.744803 48.0554804,73.8024756 48.4075264,73.8024756 C48.7836029,73.8024756 49.1164245,73.7363924 49.4059914,73.6054275 C49.6955582,73.473261 49.9238474,73.2906311 50.0872544,73.0551345 C50.2506615,72.8184364 50.3311634,72.548096 50.3275589,72.2405087 C50.3311634,71.9233092 50.2482584,71.6433567 50.0824484,71.4018526 C49.9142352,71.1591469 49.6739308,70.9693079 49.3579305,70.8323354 C49.0407286,70.6965644 48.6622491,70.6280782 48.2188875,70.6280782 L47.2913123,70.6280782 L47.2913123,69.1622323 L48.2188875,69.1622323 C48.5841502,69.1622323 48.9037551,69.1009551 49.1789037,68.9735947 C49.4528507,68.8474358 49.6691247,68.6684104 49.8265241,68.4389214 C49.9839235,68.2094324 50.0596194,67.941495 50.0560149,67.6375122 C50.0596194,67.3407385 49.9935357,67.0824132 49.8589652,66.8613348 C49.7243947,66.6414579 49.5357558,66.4696415 49.2906452,66.3470872 C49.0467362,66.2245329 48.760774,66.1620542 48.4339599,66.1620542 C48.111952,66.1620542 47.815176,66.2209283 47.5424305,66.3374751 C47.2696849,66.4540219 47.0486048,66.6174276 46.8827948,66.831297 C46.7145817,67.0451663 46.6268706,67.2986855 46.6160569,67.5918547 L44.7873401,67.5918547 C44.8017584,67.0043148 44.971173,66.4876642 45.2967855,66.0431044 C45.6235995,65.5973431 46.0597521,65.2489043 46.6052432,64.9989896 C47.1507342,64.7478734 47.7647121,64.6217145 48.4435721,64.6217145 C49.142858,64.6217145 49.7520298,64.7526794 50.2686843,65.0134077 C50.7865404,65.2741361 51.1866472,65.6249779 51.4702065,66.0647316 C51.7525642,66.5068884 51.8943438,66.9922997 51.8943438,67.52457 C51.8979484,68.1145129 51.7249292,68.6107378 51.3752862,69.0096401 C51.0256433,69.4097439 50.5666618,69.6692708 49.9995433,69.7930266 L49.9995433,69.8747295 C50.7384795,69.9768581 51.3031949,70.2496016 51.6972942,70.6917584 C52.092595,71.1339152 52.2872416,71.6830066 52.2836861,72.3378312 C52.2836861,72.9241696 52.1178269,73.4504323 51.7850053,73.9130148 C51.4509821,74.3743958 50.9932022,74.7372527 50.4116654,75.0003841 C49.8301287,75.2635155 49.1632839,75.3944804 48.4123325,75.3944804" id="Fill-49" fill="#2D286D"></path>
            </g>
        </g>
    </g>
</svg>