<svg width="235" height="28" viewBox="0 0 235 28" fill="none" xmlns="http://www.w3.org/2000/svg">
<path d="M30.0794 19.1385H30.003C13.7388 19.1385 0 16.7794 0 13.997C0 11.2145 13.7052 8.85547 29.9267 8.85547H30.003C46.2612 8.85547 60 11.2145 60 13.997C60 16.7794 46.2826 19.1385 30.0794 19.1385ZM29.9267 9.3061C22.1488 9.3061 14.7068 9.84445 8.96275 10.8183C2.69341 11.8889 0.461114 13.1532 0.461114 13.9818C0.461114 14.8105 2.69951 16.0808 8.99023 17.1545C14.7465 18.1374 22.2099 18.6667 30.003 18.6667H30.0794C37.8512 18.6667 45.2962 18.1283 51.0373 17.1545C57.3066 16.0838 59.5419 14.8196 59.5419 13.9909C59.5419 13.1622 57.3005 11.892 51.0128 10.8183C45.2535 9.83537 37.7932 9.3061 30.003 9.3061H29.9267Z" fill="url(#paint0_linear_14426_3799)"/>
<path d="M30.0427 20.0247H29.9877C14.5846 20.0247 1.58789 17.2603 1.58789 13.9758C1.58789 10.6913 14.5724 7.95422 29.945 7.95422H30.003C45.403 7.95422 58.4028 10.7185 58.4028 14.003C58.4028 17.2876 45.4122 20.0247 30.0427 20.0247ZM29.9297 8.41999C22.5366 8.41999 15.4885 9.04906 10.0804 10.1893C5.03557 11.2539 2.02458 12.6723 2.02458 13.9879C2.02458 15.3035 5.04168 16.7311 10.0987 17.7987C15.513 18.9419 22.5732 19.571 29.9816 19.571H30.0366C37.4266 19.571 44.4747 18.9419 49.8859 17.8017C54.9307 16.7371 57.9417 15.3187 57.9417 14.003C57.9417 12.6874 54.9246 11.2599 49.8676 10.1923C44.4533 9.05209 37.3931 8.41999 29.9908 8.41999H29.9297Z" fill="url(#paint1_linear_14426_3799)"/>
<path d="M30.0281 20.9109H29.9854C22.9404 20.9109 16.2435 20.1881 11.1224 18.8755C6.00124 17.5629 3.1582 15.8239 3.1582 13.9911C3.1582 12.1583 5.98292 10.4253 11.0979 9.11269C16.213 7.80009 22.9098 7.08936 29.9457 7.08936H29.9854C37.0303 7.08936 43.7272 7.81219 48.8514 9.12479C53.9756 10.4374 56.8125 12.1764 56.8125 14.0122C56.8125 15.8481 53.9909 17.575 48.8728 18.8876C43.7547 20.2002 37.0639 20.9109 30.0281 20.9109ZM29.9457 7.53697C14.4296 7.53697 3.61626 10.9364 3.61626 13.9911C3.61626 17.0457 14.4479 20.4573 29.9854 20.4573H30.0281C45.5411 20.4573 56.3545 17.0548 56.3545 14.0032C56.3545 10.9515 45.5259 7.53697 29.9854 7.53697H29.9457Z" fill="url(#paint2_linear_14426_3799)"/>
<path d="M30.0162 21.7969H29.9856C23.3407 21.7969 17.0347 20.9833 12.2311 19.5074C7.4276 18.0315 4.73419 16.0656 4.73419 13.9909C4.73419 11.9161 7.3879 9.96236 12.2098 8.4804C17.0316 6.99843 23.304 6.19696 29.9429 6.19696H29.9734C36.6214 6.19696 42.9243 7.0075 47.7279 8.48644C52.5314 9.96538 55.2126 11.9282 55.2126 14.003C55.2126 16.0777 52.5589 18.0285 47.737 19.5104C42.9152 20.9924 36.655 21.7969 30.0162 21.7969ZM29.9551 6.65062C16.769 6.65062 5.21974 10.0803 5.21974 13.9909C5.21974 17.9014 16.7995 21.3432 30.0009 21.3432H30.0314C43.2175 21.3432 54.7668 17.9105 54.7668 14.003C54.7668 10.0954 43.187 6.65062 29.9856 6.65062H29.9551Z" fill="url(#paint3_linear_14426_3799)"/>
<path d="M30.0108 22.6828H29.9863C16.9438 22.6828 6.33203 18.7843 6.33203 13.9906C6.33203 9.19692 16.9346 5.31055 29.965 5.31055C42.9953 5.31055 53.6407 9.20902 53.6407 13.9997C53.6407 18.7903 43.0411 22.6828 30.0108 22.6828ZM29.9863 5.76421C17.4049 5.76421 6.77788 9.53263 6.77788 13.9906C6.77788 18.4486 17.4019 22.2291 29.9863 22.2291H30.0108C42.5708 22.2291 53.1826 18.4607 53.1826 13.9997C53.1826 9.53868 42.5586 5.76421 29.9863 5.76421Z" fill="url(#paint4_linear_14426_3799)"/>
<path d="M29.9996 23.5693H29.9843C17.8152 23.5693 7.91797 19.2747 7.91797 13.994C7.91797 8.71341 17.8091 4.4248 29.9691 4.4248C42.1291 4.4248 52.066 8.72249 52.066 14.0001C52.066 19.2777 42.1596 23.5693 29.9996 23.5693ZM29.9843 4.87847C18.2641 4.87847 8.37603 9.05215 8.37603 13.994C8.37603 18.9359 18.2702 23.1187 29.9843 23.1187L29.9996 23.3455V23.1187C41.7046 23.1187 51.5926 18.945 51.5926 14.0031C51.5926 9.06122 41.6985 4.87847 29.9843 4.87847Z" fill="url(#paint5_linear_14426_3799)"/>
<path d="M29.9971 24.4554C18.6982 24.4554 9.51562 19.7615 9.51562 13.994C9.51562 8.2264 18.6982 3.53857 29.9757 3.53857C41.2532 3.53857 50.4664 8.23246 50.4664 14C50.4664 19.7676 41.2838 24.4554 29.9971 24.4554ZM29.9971 3.99525C24.6347 3.99525 19.5899 5.05985 15.7789 6.9985C12.035 8.90085 9.97674 11.3869 9.97674 13.994C9.97674 16.601 12.0411 19.0901 15.7789 20.9955C19.593 22.9341 24.6347 24.0017 29.994 24.0017C35.3442 24.0017 40.3768 22.9341 44.2001 20.9955C47.944 19.0931 50.0022 16.6101 50.0022 14C50.0022 11.3899 47.9379 8.90387 44.2001 7.00152C40.3859 5.06287 35.3381 3.99525 29.9849 3.99525H29.9971Z" fill="url(#paint6_linear_14426_3799)"/>
<path d="M29.9903 25.3414C19.5709 25.3414 11.0938 20.2513 11.0938 13.9968C11.0938 7.74233 19.5679 2.65527 29.9842 2.65527C40.4005 2.65527 48.8838 7.74536 48.8838 13.9998C48.8838 20.2543 40.4067 25.3414 29.9903 25.3414ZM29.9903 3.10893C19.8214 3.10893 11.5549 7.99336 11.5549 13.9968C11.5549 20.0003 19.8244 24.8847 29.9903 24.8847C40.1532 24.8847 48.4197 20.0003 48.4197 13.9968C48.4197 7.99336 40.1562 3.10893 29.9842 3.10893H29.9903Z" fill="url(#paint7_linear_14426_3799)"/>
<path d="M29.9886 26.2278C20.4456 26.2278 12.6799 20.7415 12.6799 13.9971C12.6799 7.25266 20.4426 1.76941 29.9855 1.76941C39.5285 1.76941 47.2972 7.25569 47.2972 14.0001C47.2972 20.7446 39.5468 26.2278 29.9886 26.2278ZM29.9886 2.22307C20.696 2.22307 13.138 7.50671 13.138 13.9971C13.138 20.4875 20.6991 25.7711 29.9886 25.7711C39.2781 25.7711 46.8361 20.4905 46.8361 14.0001C46.8361 7.50974 39.275 2.22307 29.9855 2.22307H29.9886Z" fill="url(#paint8_linear_14426_3799)"/>
<path d="M29.9886 27.1138V26.6571C38.4016 26.6571 45.2573 20.9803 45.2573 14C45.2573 7.01962 38.4016 1.3428 29.9855 1.3428C21.5694 1.3428 14.7168 7.01962 14.7168 14C14.7168 20.9803 21.5633 26.6601 29.9855 26.6601V27.1168C21.3159 27.1168 14.2618 21.2313 14.2618 14C14.2618 6.76859 21.3159 0.886108 29.9825 0.886108C38.649 0.886108 45.7092 6.77161 45.7092 14.003C45.7092 21.2343 38.6551 27.1138 29.9886 27.1138Z" fill="url(#paint9_linear_14426_3799)"/>
<path d="M29.9852 28C27.1897 27.9988 24.4573 27.1767 22.1335 25.6376C19.8096 24.0986 17.9988 21.9116 16.9298 19.3534C15.8608 16.7951 15.5818 13.9804 16.1279 11.265C16.674 8.54969 18.0208 6.0557 19.998 4.09837C21.9751 2.14104 24.4939 0.808273 27.2358 0.26857C29.9777 -0.271133 32.8196 0.00646711 35.4023 1.06627C37.9849 2.12608 40.1922 3.92049 41.7452 6.22265C43.2982 8.5248 44.1271 11.2313 44.1271 14C44.1231 17.7129 42.6316 21.2724 39.9802 23.8972C37.3288 26.522 33.7341 27.9976 29.9852 28ZM29.9852 0.453664C27.28 0.453664 24.6356 1.24815 22.3863 2.73664C20.137 4.22513 18.3839 6.34077 17.3486 8.81604C16.3134 11.2913 16.0425 14.015 16.5703 16.6428C17.0981 19.2705 18.4007 21.6842 20.3136 23.5787C22.2265 25.4732 24.6636 26.7634 27.3168 27.286C29.97 27.8087 32.7202 27.5405 35.2195 26.5152C37.7187 25.4899 39.8549 23.7536 41.3578 21.5259C42.8608 19.2983 43.6629 16.6792 43.6629 14C43.6589 10.4085 42.2166 6.96528 39.6524 4.42571C37.0882 1.88615 33.6115 0.457666 29.9852 0.453664Z" fill="url(#paint10_linear_14426_3799)"/>
<path d="M81.7432 19V14.6043H69.5469C69.1366 14.6043 68.7432 14.448 68.4531 14.1699C68.163 13.8918 68 13.5145 68 13.1212V9H69.2605V13.3957H81.7432V9H83V19H81.7432Z" fill="white"/>
<path d="M92.2135 18.9538C90.8308 18.9538 89.5047 18.4294 88.527 17.4961C87.5493 16.5627 87 15.2968 87 13.9769C87 12.6569 87.5493 11.3911 88.527 10.4577C89.5047 9.52436 90.8308 9 92.2135 9L101.996 9.04267V10.2478L92.2172 10.2051C91.1684 10.2051 90.1624 10.6029 89.4208 11.3109C88.6791 12.0189 88.2624 12.9792 88.2624 13.9805C88.2624 14.9817 88.6791 15.942 89.4208 16.65C90.1624 17.358 91.1684 17.7558 92.2172 17.7558L102 17.7949V19L92.2135 18.9538ZM92.9583 14.6239V13.4188L101.996 13.4579V14.6594L92.9583 14.6239Z" fill="white"/>
<path d="M113.081 19C112.874 19.0002 112.669 18.9606 112.478 18.8835C112.287 18.8065 112.115 18.6936 111.97 18.5515L111.926 18.5056L106 9.64266L107.059 9L113.081 18.0078L119.107 9L120.167 9.64619L114.241 18.5056L114.2 18.5515C114.054 18.6938 113.88 18.8067 113.688 18.8838C113.496 18.9608 113.29 19.0003 113.081 19Z" fill="white"/>
<path d="M129.378 18.9573C127.996 18.9573 126.67 18.4328 125.693 17.4991C124.716 16.5654 124.167 15.2991 124.167 13.9787C124.167 12.6582 124.716 11.3919 125.693 10.4582C126.67 9.52453 127.996 9 129.378 9L139.159 9.03911V10.2447L129.385 10.2055C128.856 10.19 128.329 10.2762 127.836 10.4589C127.342 10.6416 126.892 10.9172 126.512 11.2693C126.132 11.6213 125.83 12.0427 125.624 12.5084C125.417 12.9742 125.311 13.4747 125.311 13.9804C125.311 14.4862 125.417 14.9867 125.624 15.4524C125.83 15.9182 126.132 16.3395 126.512 16.6916C126.892 17.0437 127.342 17.3192 127.836 17.502C128.329 17.6847 128.856 17.7709 129.385 17.7553L139.167 17.798V19L129.378 18.9573ZM130.122 14.6259V13.4203L139.156 13.4595V14.665L130.122 14.6259Z" fill="white"/>
<path d="M150.207 19C149.798 18.9991 149.405 18.843 149.116 18.5661C148.826 18.2891 148.664 17.9139 148.664 17.5227V14.8807C148.664 14.4898 148.826 14.115 149.116 13.8386C149.405 13.5622 149.798 13.407 150.207 13.407H155.225C155.446 13.406 155.666 13.3634 155.87 13.2815C156.075 13.1996 156.26 13.0801 156.417 12.9297C156.573 12.7794 156.696 12.6011 156.78 12.4052C156.864 12.2092 156.907 11.9994 156.906 11.7876V11.7344C156.906 11.3256 156.736 10.9336 156.433 10.6446C156.13 10.3556 155.72 10.1932 155.292 10.1932H144.428V19H143.167V10.4773C143.168 10.0858 143.331 9.71056 143.621 9.43372C143.911 9.15688 144.304 9.00094 144.714 9H155.292C156.054 9 156.785 9.28921 157.325 9.804C157.864 10.3188 158.167 11.017 158.167 11.745V11.7983C158.168 12.5449 157.858 13.2613 157.307 13.7906C156.755 14.3198 156.007 14.6186 155.225 14.6215H149.925V17.8175H157.735V19H150.207Z" fill="white"/>
<path d="M163.72 19C163.308 19 162.913 18.8436 162.622 18.5653C162.33 18.287 162.167 17.9095 162.167 17.5159V9H163.433V17.7906H177.167V19H163.72Z" fill="white"/>
<path d="M194.902 19V15.1006H185.739V13.8912H194.902V10.2059H182.428V19H181.167V10.4806C181.168 10.0876 181.331 9.71099 181.621 9.43343C181.911 9.15587 182.305 9 182.714 9H194.619C195.029 9 195.422 9.15587 195.712 9.43343C196.002 9.71099 196.166 10.0876 196.167 10.4806V19H194.902Z" fill="white"/>
<path d="M213.616 19C213.367 18.9995 213.122 18.9426 212.902 18.8339L212.842 18.8056L201.424 9.91285V18.9541H200.167V10.4713C200.165 10.2182 200.233 9.9691 200.363 9.74829C200.493 9.52747 200.681 9.3425 200.909 9.21145C201.137 9.0804 201.397 9.00774 201.663 9.00059C201.929 8.99343 202.193 9.05202 202.428 9.17062L202.484 9.19889L213.906 18.0916V9.03985H215.167V17.5226C215.168 17.7751 215.1 18.0235 214.969 18.2435C214.839 18.4634 214.651 18.6474 214.423 18.7773C214.18 18.9206 213.901 18.9976 213.616 19Z" fill="white"/>
<path d="M219.167 19V13.834H220.426V17.7933H228.97C230.016 17.7933 231.02 17.3938 231.759 16.6828C232.499 15.9717 232.915 15.0074 232.915 14.0018C232.915 12.9962 232.499 12.0318 231.759 11.3208C231.02 10.6097 230.016 10.2103 228.97 10.2103H219.167V9H228.966C230.345 9 231.668 9.5266 232.643 10.4639C233.619 11.4013 234.167 12.6726 234.167 13.9982C234.167 15.3238 233.619 16.5951 232.643 17.5325C231.668 18.4698 230.345 18.9964 228.966 18.9964L219.167 19Z" fill="white"/>
<defs>
<linearGradient id="paint0_linear_14426_3799" x1="-0.0152687" y1="13.9939" x2="59.9847" y2="13.9939" gradientUnits="userSpaceOnUse">
<stop stop-color="#FDA9FF"/>
<stop offset="1" stop-color="#039CFF"/>
</linearGradient>
<linearGradient id="paint1_linear_14426_3799" x1="1.57262" y1="13.997" x2="58.3967" y2="13.997" gradientUnits="userSpaceOnUse">
<stop stop-color="#FDA9FF"/>
<stop offset="1" stop-color="#039CFF"/>
</linearGradient>
<linearGradient id="paint2_linear_14426_3799" x1="3.1582" y1="13.9971" x2="56.8125" y2="13.9971" gradientUnits="userSpaceOnUse">
<stop stop-color="#FDA9FF"/>
<stop offset="1" stop-color="#039CFF"/>
</linearGradient>
<linearGradient id="paint3_linear_14426_3799" x1="4.74641" y1="13.9969" x2="55.2248" y2="13.9969" gradientUnits="userSpaceOnUse">
<stop stop-color="#FDA9FF"/>
<stop offset="1" stop-color="#039CFF"/>
</linearGradient>
<linearGradient id="paint4_linear_14426_3799" x1="6.33203" y1="13.9967" x2="53.6407" y2="13.9967" gradientUnits="userSpaceOnUse">
<stop stop-color="#FDA9FF"/>
<stop offset="1" stop-color="#039CFF"/>
</linearGradient>
<linearGradient id="paint5_linear_14426_3799" x1="7.91797" y1="13.9971" x2="52.0538" y2="13.9971" gradientUnits="userSpaceOnUse">
<stop stop-color="#FDA9FF"/>
<stop offset="1" stop-color="#039CFF"/>
</linearGradient>
<linearGradient id="paint6_linear_14426_3799" x1="9.50341" y1="13.997" x2="50.4664" y2="13.997" gradientUnits="userSpaceOnUse">
<stop stop-color="#FDA9FF"/>
<stop offset="1" stop-color="#039CFF"/>
</linearGradient>
<linearGradient id="paint7_linear_14426_3799" x1="11.0876" y1="13.9968" x2="48.8777" y2="13.9968" gradientUnits="userSpaceOnUse">
<stop stop-color="#FDA9FF"/>
<stop offset="1" stop-color="#039CFF"/>
</linearGradient>
<linearGradient id="paint8_linear_14426_3799" x1="12.6769" y1="13.9971" x2="47.2941" y2="13.9971" gradientUnits="userSpaceOnUse">
<stop stop-color="#FDA9FF"/>
<stop offset="1" stop-color="#039CFF"/>
</linearGradient>
<linearGradient id="paint9_linear_14426_3799" x1="14.2618" y1="13.9969" x2="45.7092" y2="13.9969" gradientUnits="userSpaceOnUse">
<stop stop-color="#FDA9FF"/>
<stop offset="1" stop-color="#039CFF"/>
</linearGradient>
<linearGradient id="paint10_linear_14426_3799" x1="15.8494" y1="14" x2="44.121" y2="14" gradientUnits="userSpaceOnUse">
<stop stop-color="#FDA9FF"/>
<stop offset="1" stop-color="#039CFF"/>
</linearGradient>
</defs>
</svg>
