<svg xmlns="http://www.w3.org/2000/svg" width="24" height="24" viewBox="0 0 24 24" fill="none">
  <path d="M5.79383 17.1057L5.79379 17.1057C5.11566 16.7226 4.69995 16.014 4.69995 15.2478V9.50223C4.69995 8.74652 5.11393 8.03595 5.79554 7.64336L10.8936 4.76316C10.8936 4.76315 10.8937 4.76314 10.8937 4.76314C11.5728 4.37957 12.4169 4.37817 13.1072 4.7637C13.1076 4.76388 13.1079 4.76405 13.1082 4.76423L18.2028 7.64246C18.2033 7.64275 18.2038 7.64305 18.2043 7.64334C18.8867 8.03637 19.2999 8.739 19.2999 9.50223V15.2478C19.2999 16.0035 18.886 16.714 18.2044 17.1066C18.2039 17.1069 18.2033 17.1072 18.2028 17.1076L13.1063 19.9869C13.1063 19.9869 13.1062 19.9869 13.1062 19.9869C12.4271 20.3704 11.583 20.3718 10.8927 19.9863C10.8924 19.9861 10.892 19.986 10.8917 19.9858L5.79383 17.1057Z" fill="white" fill-opacity="0.25" stroke="white" stroke-linejoin="round"/>
  <path d="M12.0001 11.775C13.3256 11.775 14.4001 10.7005 14.4001 9.37497C14.4001 8.04948 13.3256 6.97501 12.0001 6.97501C10.6746 6.97501 9.6001 8.04948 9.6001 9.37497C9.6001 10.7005 10.6746 11.775 12.0001 11.775Z" fill="white"/>
  <path d="M15.0548 17.175C15.9781 17.175 16.5138 16.0155 16.0009 15.1523C15.2258 13.8511 13.7212 12.975 12 12.975C10.2789 12.975 8.77431 13.8511 7.99922 15.1523C7.48629 16.0155 8.02201 17.175 8.94528 17.175H15.0548Z" fill="white"/>
</svg>