<?xml version="1.0" encoding="UTF-8"?>
<svg width="18px" height="18px" viewBox="0 0 18 18" version="1.1" xmlns="http://www.w3.org/2000/svg" xmlns:xlink="http://www.w3.org/1999/xlink">
    <title>check</title>
    <g id="Overview" stroke="none" stroke-width="1" fill="none" fill-rule="evenodd">
        <g id="Overview-notice" transform="translate(-680.000000, -428.000000)" fill="#00BD9A" fill-rule="nonzero">
            <g id="group-3" transform="translate(370.000000, 418.000000)">
                <g id="check" transform="translate(310.000000, 10.000000)">
                    <path d="M9,0 C4.01538461,0 0,4.01538461 0,9 C0,13.9846154 4.01538461,18 9,18 C13.9846154,18 18,13.9846154 18,9 C18,4.01538461 13.9846154,0 9,0 Z M9,16.6153846 C4.77692307,16.6153846 1.38461539,13.2230769 1.38461539,9 C1.38461539,4.77692307 4.77692307,1.38461539 9,1.38461539 C13.2230769,1.38461539 16.6153846,4.77692307 16.6153846,9 C16.6153846,13.2230769 13.2230769,16.6153846 9,16.6153846 Z" id="shape"></path>
                    <path d="M12.9581077,5.96771677 L9.37907398,10.564597 C9.10895822,10.8564624 8.63625565,10.9294288 8.3661399,10.7105297 L5.80004023,8.59450549 C5.52992447,8.37560642 5.0572219,8.44857278 4.85463508,8.74043819 C4.65204825,9.0323036 4.7195772,9.54306807 4.98969295,9.76196712 L7.55579264,11.8779914 C7.89343734,12.1698568 8.3661399,12.3157895 8.83884247,12.3157895 C9.44660292,12.3157895 10.0543634,12.0239241 10.459537,11.5131596 L14.0385708,6.91627936 C14.3086865,6.62441395 14.2411576,6.11364947 13.9710418,5.89475043 C13.6333971,5.60288502 13.2282235,5.60288502 12.9581077,5.96771677 L12.9581077,5.96771677 Z" id="path"></path>
                </g>
            </g>
        </g>
    </g>
</svg>