<svg xmlns="http://www.w3.org/2000/svg" width="16" height="16" viewBox="0 0 16 16" fill="none">
  <path fill-rule="evenodd" clip-rule="evenodd" d="M4.38211 11.9975C4.65351 12.0953 4.95295 12.1936 5.28018 12.2842C4.70371 12.837 3.81009 13.6111 3.81009 13.6111C1.03491 13.5299 0.667236 11.4308 0.667236 11.4308C0.667236 7.69633 2.47544 3.21786 2.47544 3.21786C4.28364 1.96529 6.00395 2.0001 6.00395 2.0001L6.16326 2.98952C6.16326 2.98952 7.30678 2.87689 8.00057 2.87083C8.69436 2.86478 9.7164 2.95851 9.7164 2.95851L9.9971 2.00018C9.9971 2.00018 11.7174 1.96529 13.5256 3.21794C13.5256 3.21794 15.3339 7.69633 15.3339 11.4308C15.3339 11.4308 14.9661 13.5299 12.191 13.6111C12.191 13.6111 11.3566 12.851 10.805 12.3032C11.0946 12.2212 11.3873 12.1231 11.6841 12.0083C12.158 11.845 12.6796 11.609 13.2236 11.2781L12.7053 10.0039C12.2236 10.2969 11.7694 10.5007 11.3671 10.6386L11.3605 10.6409L11.3553 10.6428L11.3464 10.6461C10.7529 10.8764 10.1887 11.0277 9.64066 11.114L9.63209 11.1154C8.50262 11.3109 7.46464 11.2574 6.57399 11.104C5.89732 10.9832 5.31373 10.8075 4.82135 10.6301C4.32869 10.452 3.90716 10.2637 3.49927 10L2.84061 11.2589C3.33925 11.5812 3.843 11.8026 4.38211 11.9975Z" fill="white" fill-opacity="0.25" stroke="white" stroke-linejoin="round"/>
  <circle cx="5.55621" cy="7.49999" r="1.22222" fill="white"/>
  <circle cx="10.4456" cy="7.4999" r="1.22222" fill="white"/>
</svg>