<svg width="24" height="24" viewBox="0 0 24 24" fill="none" xmlns="http://www.w3.org/2000/svg">
<g clip-path="url(#clip0_14426_4201)">
<path fill-rule="evenodd" clip-rule="evenodd" d="M8.38211 15.9975C8.65351 16.0953 8.95295 16.1936 9.28018 16.2842C8.70371 16.837 7.81009 17.6111 7.81009 17.6111C5.03491 17.5299 4.66724 15.4308 4.66724 15.4308C4.66724 11.6963 6.47544 7.21786 6.47544 7.21786C8.28364 5.96529 10.0039 6.0001 10.0039 6.0001L10.1633 6.98952C10.1633 6.98952 11.3068 6.87689 12.0006 6.87083C12.6944 6.86478 13.7164 6.95851 13.7164 6.95851L13.9971 6.00018C13.9971 6.00018 15.7174 5.96529 17.5256 7.21794C17.5256 7.21794 19.3339 11.6963 19.3339 15.4308C19.3339 15.4308 18.9661 17.5299 16.191 17.6111C16.191 17.6111 15.3566 16.851 14.805 16.3032C15.0946 16.2212 15.3873 16.1231 15.6841 16.0083C16.158 15.845 16.6796 15.609 17.2236 15.2781L16.7053 14.0039C16.2236 14.2969 15.7694 14.5007 15.3671 14.6386L15.3605 14.6409L15.3553 14.6428L15.3464 14.6461C14.7529 14.8764 14.1887 15.0277 13.6407 15.114L13.6321 15.1154C12.5026 15.3109 11.4646 15.2574 10.574 15.104C9.89732 14.9832 9.31373 14.8075 8.82135 14.6301C8.32869 14.452 7.90716 14.2637 7.49927 14L6.84061 15.2589C7.33925 15.5812 7.843 15.8026 8.38211 15.9975Z" fill="white" fill-opacity="0.25" stroke="white" stroke-linejoin="round"/>
<circle cx="9.55621" cy="11.5" r="1.22222" fill="white"/>
<circle cx="14.4456" cy="11.4999" r="1.22222" fill="white"/>
</g>
<defs>
<clipPath id="clip0_14426_4201">
<rect x="4" y="4" width="16" height="16" rx="3.55556" fill="white"/>
</clipPath>
</defs>
</svg>
