<svg width="24" height="24" viewBox="0 0 24 24" fill="none" xmlns="http://www.w3.org/2000/svg">
<g clip-path="url(#clip0_14426_4047)">
<path fill-rule="evenodd" clip-rule="evenodd" d="M8.38223 15.9975C8.65364 16.0953 8.95307 16.1936 9.2803 16.2842C8.70383 16.837 7.81022 17.6111 7.81022 17.6111C5.03503 17.5299 4.66736 15.4308 4.66736 15.4308C4.66736 11.6963 6.47556 7.21786 6.47556 7.21786C8.28377 5.96529 10.0041 6.0001 10.0041 6.0001L10.1634 6.98952C10.1634 6.98952 11.3069 6.87689 12.0007 6.87083C12.6945 6.86478 13.7165 6.95851 13.7165 6.95851L13.9972 6.00018C13.9972 6.00018 15.7175 5.96529 17.5257 7.21794C17.5257 7.21794 19.334 11.6963 19.334 15.4308C19.334 15.4308 18.9663 17.5299 16.1912 17.6111C16.1912 17.6111 15.3567 16.851 14.8051 16.3032C15.0947 16.2212 15.3874 16.1231 15.6843 16.0083C16.1582 15.845 16.6797 15.609 17.2237 15.2781L16.7054 14.0039C16.2237 14.2969 15.7695 14.5007 15.3672 14.6386L15.3606 14.6409L15.3554 14.6428L15.3466 14.6461C14.7531 14.8764 14.1888 15.0277 13.6408 15.114L13.6322 15.1154C12.5027 15.3109 11.4648 15.2574 10.5741 15.104C9.89744 14.9832 9.31385 14.8075 8.82147 14.6301C8.32881 14.452 7.90728 14.2637 7.49939 14L6.84073 15.2589C7.33937 15.5812 7.84312 15.8026 8.38223 15.9975Z" stroke="white" stroke-opacity="0.25" stroke-linejoin="round"/>
<circle cx="9.55621" cy="11.5" r="1.22222" fill="white" fill-opacity="0.25"/>
<circle cx="14.4455" cy="11.4999" r="1.22222" fill="white" fill-opacity="0.25"/>
</g>
<defs>
<clipPath id="clip0_14426_4047">
<rect x="4" y="4" width="16" height="16" rx="3.55556" fill="white"/>
</clipPath>
</defs>
</svg>
