<svg xmlns="http://www.w3.org/2000/svg" width="16" height="16" viewBox="0 0 16 16" fill="none">
  <path fill-rule="evenodd" clip-rule="evenodd" d="M4.38223 11.9975C4.65364 12.0953 4.95307 12.1936 5.2803 12.2842C4.70383 12.837 3.81022 13.6111 3.81022 13.6111C1.03503 13.5299 0.667358 11.4308 0.667358 11.4308C0.667358 7.69633 2.47556 3.21786 2.47556 3.21786C4.28377 1.96529 6.00407 2.0001 6.00407 2.0001L6.16338 2.98952C6.16338 2.98952 7.3069 2.87689 8.00069 2.87083C8.69449 2.86478 9.71652 2.95851 9.71652 2.95851L9.99723 2.00018C9.99723 2.00018 11.7175 1.96529 13.5257 3.21794C13.5257 3.21794 15.334 7.69633 15.334 11.4308C15.334 11.4308 14.9663 13.5299 12.1912 13.6111C12.1912 13.6111 11.3567 12.851 10.8051 12.3032C11.0947 12.2212 11.3874 12.1231 11.6843 12.0083C12.1582 11.845 12.6797 11.609 13.2237 11.2781L12.7054 10.0039C12.2237 10.2969 11.7695 10.5007 11.3672 10.6386L11.3606 10.6409L11.3554 10.6428L11.3466 10.6461C10.7531 10.8764 10.1888 11.0277 9.64078 11.114L9.63221 11.1154C8.50274 11.3109 7.46476 11.2574 6.57411 11.104C5.89744 10.9832 5.31385 10.8075 4.82147 10.6301C4.32881 10.452 3.90728 10.2637 3.49939 10L2.84073 11.2589C3.33937 11.5812 3.84312 11.8026 4.38223 11.9975Z" stroke="white" stroke-opacity="0.25" stroke-linejoin="round"/>
  <circle cx="5.55621" cy="7.49999" r="1.22222" fill="white" fill-opacity="0.25"/>
  <circle cx="10.4455" cy="7.4999" r="1.22222" fill="white" fill-opacity="0.25"/>
</svg>