<svg width="24" height="24" viewBox="0 0 24 24" fill="none" xmlns="http://www.w3.org/2000/svg">
<path d="M19.0001 13C19.0001 9.68629 16.3138 7 13.0001 7M19.0001 13C19.0001 14.6484 18.3353 16.1415 17.2593 17.226C17.1556 17.3305 17.1037 17.3828 17.073 17.4331C17.0438 17.4811 17.0268 17.5224 17.0137 17.5771C17.0001 17.6343 17.0001 17.6995 17.0001 17.8298V20.2C17.0001 20.48 17.0001 20.62 16.9456 20.727C16.8976 20.8211 16.8211 20.8976 16.7271 20.9455C16.6201 21 16.4801 21 16.2001 21H14.3001C14.02 21 13.88 21 13.7731 20.9455C13.679 20.8976 13.6025 20.8211 13.5546 20.727C13.5001 20.62 13.5001 20.48 13.5001 20.2V19.8C13.5001 19.52 13.5001 19.38 13.4456 19.273C13.3976 19.1789 13.3211 19.1024 13.2271 19.0545C13.1201 19 12.9801 19 12.7001 19H11.3001C11.02 19 10.88 19 10.7731 19.0545C10.679 19.1024 10.6025 19.1789 10.5546 19.273C10.5001 19.38 10.5001 19.52 10.5001 19.8V20.2C10.5001 20.48 10.5001 20.62 10.4456 20.727C10.3976 20.8211 10.3211 20.8976 10.2271 20.9455C10.1201 21 9.9801 21 9.70007 21H7.8C7.51997 21 7.37996 21 7.273 20.9455C7.17892 20.8976 7.10243 20.8211 7.0545 20.727C7 20.62 7 20.48 7 20.2V19.2243C7 19.0223 7 18.9212 6.97124 18.8401C6.94366 18.7624 6.90894 18.708 6.85004 18.6502C6.78859 18.59 6.6845 18.5417 6.47631 18.445C5.4941 17.989 4.65596 17.2751 4.04888 16.3902C3.94213 16.2346 3.88875 16.1568 3.83175 16.1108C3.77725 16.0668 3.72833 16.0411 3.66126 16.021C3.59111 16 3.50782 16 3.34126 16H2.8C2.51997 16 2.37996 16 2.273 15.9455C2.17892 15.8976 2.10243 15.8211 2.0545 15.727C2 15.62 2 15.48 2 15.2V11.7857C2 11.5192 2 11.3859 2.04953 11.283C2.09867 11.181 2.181 11.0987 2.28303 11.0495C2.38586 11 2.51916 11 2.78575 11C2.97871 11 3.0752 11 3.15291 10.9738C3.23671 10.9456 3.29546 10.908 3.35626 10.8438C3.41265 10.7842 3.45868 10.6846 3.55073 10.4855C3.8462 9.84622 4.25085 9.26777 4.74075 8.77404C4.84452 8.66945 4.8964 8.61716 4.92703 8.56687C4.95626 8.51889 4.97327 8.47759 4.98632 8.42294C5 8.36567 5 8.30051 5 8.17018V7.06058C5 6.70053 5 6.52051 5.07498 6.39951C5.14066 6.29351 5.24357 6.21588 5.36354 6.18184C5.50048 6.14299 5.67358 6.19245 6.01977 6.29136L8.39234 6.96922C8.43266 6.98074 8.45282 6.9865 8.47331 6.99054C8.49151 6.99414 8.50991 6.99671 8.5284 6.99826C8.54921 7 8.57034 7 8.6126 7H13.0001M19.0001 13H20C21.1046 13 22 12.1046 22 11C22 10.2597 21.5978 9.61337 21 9.26756M13.0001 7H9.03544C9.01209 6.8367 9 6.66976 9 6.5C9 4.567 10.567 3 12.5 3C14.433 3 16 4.567 16 6.5C16 6.9172 15.927 7.31736 15.7931 7.68839C14.9589 7.24881 14.0086 7 13.0001 7Z" stroke="#0FE1F8" stroke-width="1.5" stroke-linecap="round" stroke-linejoin="round"/>
</svg>
