<svg xmlns="http://www.w3.org/2000/svg" width="16" height="16" viewBox="0 0 16 16" fill="none">
  <path d="M15.3268 3.23592C15.3552 3.06497 15.2911 2.8917 15.1581 2.78052C15.0252 2.66933 14.8433 2.63685 14.6801 2.69515L0.99121 7.58403C0.806774 7.6499 0.679446 7.81948 0.667641 8.01497C0.655837 8.21046 0.761834 8.39413 0.937003 8.48171L4.84811 10.4373C5.00503 10.5157 5.19196 10.5041 5.33793 10.4068L8.58454 8.24237L6.64054 10.6724C6.55495 10.7794 6.51818 10.9174 6.5392 11.0528C6.56022 11.1882 6.6371 11.3085 6.75112 11.3845L10.1733 15.2957C10.3114 15.3877 10.4866 15.4034 10.6389 15.3375C10.7911 15.2715 10.8995 15.1329 10.9268 14.9692L15.3268 3.23592Z" fill="white" fill-opacity="0.25" stroke="white" stroke-linejoin="round"/>
</svg>