<svg width="24" height="24" viewBox="0 0 24 24" fill="none" xmlns="http://www.w3.org/2000/svg">
<path d="M19.3268 7.23592C19.3552 7.06497 19.2911 6.8917 19.1581 6.78052C19.0252 6.66933 18.8433 6.63685 18.6801 6.69515L4.99121 11.584C4.80677 11.6499 4.67945 11.8195 4.66764 12.015C4.65584 12.2105 4.76183 12.3941 4.937 12.4817L8.84811 14.4373C9.00503 14.5157 9.19196 14.5041 9.33793 14.4068L12.5845 12.2424L10.6405 14.6724C10.5549 14.7794 10.5182 14.9174 10.5392 15.0528C10.5602 15.1882 10.6371 15.3085 10.7511 15.3845L14.1733 19.2957C14.3114 19.3877 14.4866 19.4034 14.6389 19.3375C14.7911 19.2715 14.8995 19.1329 14.9268 18.9692L19.3268 7.23592Z" fill="white" fill-opacity="0.25" stroke="white" stroke-linejoin="round"/>
</svg>
