<svg xmlns="http://www.w3.org/2000/svg" width="16" height="16" viewBox="0 0 16 16" fill="none">
  <path d="M15.3266 3.23592C15.3551 3.06497 15.291 2.8917 15.158 2.78052C15.0251 2.66933 14.8432 2.63685 14.68 2.69515L0.991088 7.58403C0.806652 7.6499 0.679324 7.81948 0.667519 8.01497C0.655715 8.21046 0.761712 8.39413 0.936881 8.48171L4.84799 10.4373C5.00491 10.5157 5.19184 10.5041 5.33781 10.4068L8.58442 8.24237L6.64042 10.6724C6.55482 10.7794 6.51806 10.9174 6.53908 11.0528C6.5601 11.1882 6.63698 11.3085 6.75099 11.3845L10.1732 15.2957C10.3112 15.3877 10.4865 15.4034 10.6387 15.3375C10.791 15.2715 10.8994 15.1329 10.9266 14.9692L15.3266 3.23592Z" stroke="white" stroke-opacity="0.25" stroke-linejoin="round"/>
</svg>