<svg width="24" height="24" viewBox="0 0 24 24" fill="none" xmlns="http://www.w3.org/2000/svg">
<path d="M19.3266 7.23592C19.3551 7.06497 19.291 6.8917 19.158 6.78052C19.0251 6.66933 18.8432 6.63685 18.68 6.69515L4.99109 11.584C4.80665 11.6499 4.67932 11.8195 4.66752 12.015C4.65571 12.2105 4.76171 12.3941 4.93688 12.4817L8.84799 14.4373C9.00491 14.5157 9.19184 14.5041 9.33781 14.4068L12.5844 12.2424L10.6404 14.6724C10.5548 14.7794 10.5181 14.9174 10.5391 15.0528C10.5601 15.1882 10.637 15.3085 10.751 15.3845L14.1732 19.2957C14.3112 19.3877 14.4865 19.4034 14.6387 19.3375C14.791 19.2715 14.8994 19.1329 14.9266 18.9692L19.3266 7.23592Z" stroke="white" stroke-opacity="0.25" stroke-linejoin="round"/>
</svg>
