<svg width="20" height="20" viewBox="0 0 20 20" fill="none" xmlns="http://www.w3.org/2000/svg">
<g clip-path="url(#clip0_14193_1762)">
<path d="M4.16663 8.16602C4.16663 6.76588 4.16663 6.06582 4.43911 5.53104C4.67879 5.06063 5.06124 4.67818 5.53165 4.4385C6.06643 4.16602 6.76649 4.16602 8.16663 4.16602H11.8333C13.2334 4.16602 13.9335 4.16602 14.4683 4.4385C14.9387 4.67818 15.3211 5.06063 15.5608 5.53104C15.8333 6.06582 15.8333 6.76588 15.8333 8.16602V11.8327C15.8333 13.2328 15.8333 13.9329 15.5608 14.4677C15.3211 14.9381 14.9387 15.3205 14.4683 15.5602C13.9335 15.8327 13.2334 15.8327 11.8333 15.8327H8.16663C6.76649 15.8327 6.06643 15.8327 5.53165 15.5602C5.06124 15.3205 4.67879 14.9381 4.43911 14.4677C4.16663 13.9329 4.16663 13.2328 4.16663 11.8327V8.16602Z" fill="#9747FF"/>
<path d="M7.49996 1.66602V4.16602M12.5 1.66602V4.16602M7.49996 15.8327V18.3327M12.5 15.8327V18.3327M15.8333 7.49935H18.3333M15.8333 11.666H18.3333M1.66663 7.49935H4.16663M1.66663 11.666H4.16663M8.16663 15.8327H11.8333C13.2334 15.8327 13.9335 15.8327 14.4683 15.5602C14.9387 15.3205 15.3211 14.9381 15.5608 14.4677C15.8333 13.9329 15.8333 13.2328 15.8333 11.8327V8.16602C15.8333 6.76588 15.8333 6.06582 15.5608 5.53104C15.3211 5.06063 14.9387 4.67818 14.4683 4.4385C13.9335 4.16602 13.2334 4.16602 11.8333 4.16602H8.16663C6.76649 4.16602 6.06643 4.16602 5.53165 4.4385C5.06124 4.67818 4.67879 5.06063 4.43911 5.53104C4.16663 6.06582 4.16663 6.76588 4.16663 8.16602V11.8327C4.16663 13.2328 4.16663 13.9329 4.43911 14.4677C4.67879 14.9381 5.06124 15.3205 5.53165 15.5602C6.06643 15.8327 6.76649 15.8327 8.16663 15.8327Z" stroke="#9747FF" stroke-width="1.5" stroke-linecap="round" stroke-linejoin="round"/>
<path d="M7.72084 12.5H6.56743L8.32488 7.40909H9.71196L11.4669 12.5H10.3135L9.03831 8.57244H8.99854L7.72084 12.5ZM7.64875 10.4989H10.3732V11.3391H7.64875V10.4989ZM13.156 7.40909V12.5H12.0797V7.40909H13.156Z" fill="white"/>
<rect x="5" y="5" width="10" height="10" rx="1.5" stroke="white" stroke-linejoin="round"/>
</g>
<defs>
<clipPath id="clip0_14193_1762">
<rect width="20" height="20" fill="white"/>
</clipPath>
</defs>
</svg>
