<?xml version="1.0" encoding="UTF-8"?>
<svg width="28px" height="27px" viewBox="0 0 28 27" version="1.1" xmlns="http://www.w3.org/2000/svg" xmlns:xlink="http://www.w3.org/1999/xlink">
    <title>g 8</title>
    <g id="Overview" stroke="none" stroke-width="1" fill="none" fill-rule="evenodd">
        <g transform="translate(-675.000000, -248.000000)" id="g-3">
            <g transform="translate(510.000000, 207.000000)">
                <g id="g-8" transform="translate(165.666667, 41.000000)">
                    <circle id="orect" fill="#FFCECB" cx="13.5" cy="13.5" r="12.5"></circle>
                    <path d="M13.5,0 C20.9057143,0 27,6.09428571 27,13.5 C27,20.9828571 20.9057143,27 13.5,27 C6.01714286,27 0,20.9057143 0,13.5 C0,6.09428571 6.09428571,0 13.5,0 Z M13.5,1.92857143 C7.09714286,1.92857143 1.92857143,7.17428571 1.92857143,13.5 C1.92857143,19.9028571 7.17428571,25.0714286 13.5,25.0714286 C19.8257143,25.0714286 25.0714286,19.8257143 25.0714286,13.5 C25.0714286,7.09714286 19.8257143,1.92857143 13.5,1.92857143 Z M13.8085714,7.94571429 C14.4257143,7.94571429 14.9657143,8.02285714 15.5057143,8.17714286 C15.9685714,8.25428571 16.4314286,8.48571429 16.8171429,8.79428571 C17.2028571,9.10285714 17.5114286,9.41142857 17.7428571,9.87428571 C17.9742857,10.3371429 18.0514286,10.8771429 18.0514286,11.4171429 L18.0514286,11.4171429 L18.0516535,15.8824323 C18.0530029,16.3102041 18.062449,16.6408163 18.1285714,16.9714286 C18.2057143,17.28 18.2828571,17.5885714 18.5142857,17.7428571 L18.5142857,17.7428571 L18.5142857,17.8971429 L15.9685714,17.8971429 C15.8914286,17.82 15.8142857,17.6657143 15.8142857,17.5114286 C15.7371429,17.3571429 15.66,17.2028571 15.66,17.0485714 L15.66,17.0485714 L15.1971429,17.5114286 C14.9657143,17.6657143 14.8114286,17.82 14.58,17.8971429 C14.3485714,17.9742857 14.04,18.0514286 13.8085714,18.1285714 C13.5771429,18.2057143 13.2685714,18.2057143 12.96,18.2057143 C12.4971429,18.2057143 11.9571429,18.1285714 11.5714286,17.9742857 C11.1857143,17.82 10.8,17.5885714 10.4914286,17.3571429 C10.1828571,17.1257143 9.95142857,16.8171429 9.79714286,16.4314286 C9.64285714,16.1228571 9.56571429,15.66 9.56571429,15.2742857 C9.56571429,14.2714286 9.95142857,13.4228571 10.7228571,12.8828571 C11.4942857,12.3428571 12.6514286,12.0342857 14.1942857,12.0342857 L14.1942857,12.0342857 L15.5828571,12.0342857 L15.5828571,11.4171429 C15.5828571,10.8771429 15.4285714,10.4914286 15.12,10.26 C14.8114286,10.0285714 14.4257143,9.87428571 13.8085714,9.87428571 C13.2685714,9.87428571 12.8828571,9.95142857 12.6514286,10.1828571 C12.42,10.3371429 12.2657143,10.6457143 12.2657143,11.0314286 L12.2657143,11.0314286 L9.72,11.0314286 C9.72,10.6457143 9.79714286,10.26 9.95142857,9.87428571 C10.1057143,9.48857143 10.3371429,9.18 10.7228571,8.87142857 C11.1085714,8.56285714 11.4942857,8.33142857 12.0342857,8.17714286 C12.5742857,8.02285714 13.1914286,7.94571429 13.8085714,7.94571429 Z M15.5057143,13.5 L14.1942857,13.5 C13.8085714,13.5 13.5,13.5771429 13.1914286,13.6542857 C12.8828571,13.7314286 12.6514286,13.8085714 12.4971429,13.9628571 C12.3428571,14.04 12.2657143,14.2714286 12.1114286,14.4257143 C11.9571429,14.58 11.9571429,14.8114286 11.9571429,15.0428571 C11.9571429,15.4285714 12.1114286,15.66 12.3428571,15.8914286 C12.5742857,16.1228571 12.96,16.2 13.4228571,16.2 C13.6542857,16.2 13.8857143,16.2 14.1171429,16.1228571 C14.3485714,16.0457143 14.58,15.9685714 14.7342857,15.8914286 C14.8885714,15.8142857 15.0428571,15.7371429 15.1971429,15.5828571 C15.3514286,15.4285714 15.4285714,15.3514286 15.5057143,15.1971429 L15.5057143,15.1971429 L15.5057143,13.5 Z" id="shape结合" fill="#F9837C" fill-rule="nonzero"></path>
                </g>
            </g>
        </g>
    </g>
</svg>