<?xml version="1.0" encoding="UTF-8"?>
<svg width="29px" height="25px" viewBox="0 0 29 25" version="1.1" xmlns="http://www.w3.org/2000/svg" xmlns:xlink="http://www.w3.org/1999/xlink">
    <title>带宽包</title>
    <g id="Overview" stroke="none" stroke-width="1" fill="none" fill-rule="evenodd">
        <g transform="translate(-902.000000, -246.000000)" id="g-3">
            <g transform="translate(737.000000, 207.000000)">
                <g id="带宽包" transform="translate(166.333333, 39.999871)">
                    <path d="M14.979703,0 C16.9126996,-3.55085719e-16 18.479703,1.56700338 18.479703,3.5 C18.479703,3.67008985 18.4675701,3.8373459 18.4441225,4.00094991 L22,4.00012948 C24.209139,4.00012948 26,5.79099048 26,8.00012948 L26,19.0001295 C26,21.2092685 24.209139,23.0001295 22,23.0001295 L4,23.0001295 C1.790861,23.0001295 2.705415e-16,21.2092685 0,19.0001295 L0,8.00012948 C-2.705415e-16,5.79099048 1.790861,4.00012948 4,4.00012948 L7.51528339,4.00094991 C7.49183585,3.8373459 7.47970295,3.67008985 7.47970295,3.5 C7.47970295,1.56700338 9.04670633,3.55085719e-16 10.979703,0 L14.979703,0 Z" id="形状结合" stroke="#70B6C1" stroke-width="1.5" fill="#9AD3DC"></path>
                    <path d="M19.6518555,17.104231 C19.6703125,17.0705396 19.6905273,17.0383131 19.7054688,17.0025709 C19.7209961,16.9647779 19.7300781,16.9255201 19.7415039,16.8868482 C19.750293,16.8566725 19.7620117,16.8276685 19.7681641,16.7963209 C19.7825195,16.7248365 19.7901367,16.6521803 19.7901367,16.579231 L19.7901367,13.2637037 C19.7901367,12.6534498 19.2953125,12.1583326 18.6847656,12.1583326 C18.0742188,12.1583326 17.5793945,12.6531568 17.5793945,13.2637037 L17.5793945,13.9111646 L13.9398438,10.2716139 C13.8882993,10.2203503 13.8318802,10.1742338 13.7713867,10.1339185 C13.7441406,10.1157545 13.7148438,10.1034498 13.6867188,10.0879225 C13.6518555,10.0688795 13.6181641,10.0477857 13.58125,10.0322584 C13.5446289,10.017024 13.506543,10.0085279 13.469043,9.99739511 C13.4376953,9.98802011 13.4075195,9.97600839 13.375,9.96956308 C13.2320313,9.94114511 13.0849609,9.94114511 12.9419922,9.96956308 C12.9094727,9.97600839 12.8792969,9.98831308 12.8479492,9.99739511 C12.8104492,10.0085279 12.7723633,10.017024 12.7357422,10.0322584 C12.6988281,10.0474928 12.6651367,10.0685865 12.6302734,10.0879225 C12.6021484,10.1034498 12.5725586,10.1157545 12.5456055,10.1339185 C12.4849609,10.1743482 12.428418,10.2203443 12.3771484,10.2716139 C12.3765625,10.2721998 12.3765625,10.2724928 12.3759766,10.2730787 C12.325198,10.3241388 12.2795679,10.3800724 12.2397461,10.4400709 C12.2207031,10.4684889 12.2078125,10.4989576 12.1916992,10.5285475 C12.1732422,10.5622389 12.1530273,10.5944654 12.1380859,10.6302076 C12.1225586,10.6680006 12.1134766,10.7072584 12.1020508,10.7459303 C12.0932617,10.776106 12.081543,10.80511 12.0750977,10.8364576 C12.0607422,10.907942 12.053125,10.9805982 12.053125,11.0535475 L12.053125,13.9111646 L8.41328125,10.2716139 C8.16132813,10.0196607 7.81826172,9.91917245 7.49013672,9.96135995 C7.44560547,9.95579355 7.40166016,9.94788339 7.35537109,9.94788339 C6.74511719,9.94788339 6.25,10.4427076 6.25,11.0532545 L6.25,14.3687818 C6.25,14.9790357 6.74482422,15.4741529 7.35537109,15.4741529 C7.965625,15.4741529 8.46074219,14.9793287 8.46074219,14.3687818 L8.46074219,13.4450514 L12.3765625,17.3608717 C12.4281069,17.4121352 12.4845261,17.4582517 12.5450195,17.498567 C12.5725586,17.517024 12.6024414,17.5296217 12.6311523,17.545442 C12.6654297,17.564192 12.6985352,17.5849928 12.7351563,17.6002271 C12.7720703,17.6154615 12.8107422,17.6242506 12.8488281,17.6353834 C12.8798828,17.6444654 12.9094727,17.6564771 12.9416992,17.6629225 C13.0131836,17.6772779 13.0855469,17.6848951 13.1582031,17.6848951 C13.2308594,17.6848951 13.3032227,17.6772779 13.374707,17.6629225 C13.4069336,17.6564771 13.4365234,17.6444654 13.4675781,17.6353834 C13.5056641,17.6242506 13.544043,17.6154615 13.580957,17.6002271 C13.6175781,17.5849928 13.6506836,17.564192 13.6852539,17.545442 C13.7139648,17.5299146 13.7435547,17.517317 13.7710938,17.49886 C13.8317383,17.4584303 13.8882813,17.4124342 13.9395508,17.3611646 C13.9401367,17.3605787 13.9401367,17.3602857 13.9407227,17.3596998 C13.9914063,17.3087232 14.0371094,17.2527662 14.0769531,17.1927076 C14.0959961,17.1642896 14.1088867,17.1338209 14.125,17.104231 C14.143457,17.0705396 14.1636719,17.0383131 14.1786133,17.0025709 C14.1941406,16.9647779 14.2032227,16.9255201 14.2146484,16.8868482 C14.2234375,16.8566725 14.2351563,16.8276685 14.2413086,16.7963209 C14.2556641,16.7248365 14.2632813,16.6521803 14.2632813,16.579231 L14.2632813,13.7213209 L17.902832,17.3608717 C17.9543765,17.4121352 18.0107956,17.4582517 18.0712891,17.498567 C18.0988281,17.517024 18.1287109,17.5296217 18.1574219,17.545442 C18.1916992,17.564192 18.2248047,17.5849928 18.2614258,17.6002271 C18.2983398,17.6154615 18.3370117,17.6242506 18.3750977,17.6353834 C18.4061523,17.6444654 18.4357422,17.6564771 18.4679688,17.6629225 C18.5394531,17.6772779 18.6118164,17.6848951 18.6844727,17.6848951 C18.7571289,17.6848951 18.8294922,17.6772779 18.9009766,17.6629225 C18.9332031,17.6564771 18.962793,17.6444654 18.9938477,17.6353834 C19.0319336,17.6242506 19.0703125,17.6154615 19.1072266,17.6002271 C19.1438477,17.5849928 19.1769531,17.564192 19.2115234,17.545442 C19.2402344,17.5299146 19.2698242,17.517317 19.2973633,17.49886 C19.3580078,17.4584303 19.4145508,17.4124342 19.4658203,17.3611646 C19.4664063,17.3605787 19.4664063,17.3602857 19.4669922,17.3596998 C19.5176758,17.3087232 19.5633789,17.2527662 19.6032227,17.1927076 C19.6225586,17.1642896 19.6357422,17.1335279 19.6518555,17.104231 L19.6518555,17.104231 Z" id="路径" fill="#70B6C1" fill-rule="nonzero"></path>
                    <line x1="7.05463283" y1="4.01465982" x2="19.0546328" y2="4.01465982" id="直线" stroke="#70B6C1" stroke-width="1.6" stroke-linecap="square"></line>
                </g>
            </g>
        </g>
    </g>
</svg>