<?xml version="1.0" encoding="UTF-8"?>
<svg width="25px" height="25px" viewBox="0 0 25 25" version="1.1" xmlns="http://www.w3.org/2000/svg" xmlns:xlink="http://www.w3.org/1999/xlink">
    <title>g 13</title>
    <g id="Overview" stroke="none" stroke-width="1" fill="none" fill-rule="evenodd">
        <g transform="translate(-1132.000000, -248.000000)" id="g-3">
            <g transform="translate(964.000000, 207.000000)">
                <g id="g-13" transform="translate(168.000000, 41.000000)">
                    <circle id="orect" fill="#FFEDBA" cx="12" cy="12" r="11"></circle>
                    <g id="时间(4)" fill="#F3CC5C" fill-rule="nonzero">
                        <path d="M12.1875,22.5 C17.8828125,22.5 22.5,17.8828125 22.5,12.1875 C22.5,6.4921875 17.8828125,1.875 12.1875,1.875 C6.4921875,1.875 1.875,6.4921875 1.875,12.1875 C1.875,17.8828125 6.4921875,22.5 12.1875,22.5 Z M12.1875,24.375 C5.45625,24.375 0,18.91875 0,12.1875 C0,5.45625 5.45625,0 12.1875,0 C18.91875,0 24.375,5.45625 24.375,12.1875 C24.375,18.91875 18.91875,24.375 12.1875,24.375 Z" id="shape"></path>
                        <path d="M12.1875,13.125 L17.8125,13.125 C18.330267,13.125 18.75,13.544733 18.75,14.0625 C18.75,14.580267 18.330267,15 17.8125,15 L11.25,15 C10.732233,15 10.3125,14.580267 10.3125,14.0625 L10.3125,5.625 C10.3125,5.10723305 10.732233,4.6875 11.25,4.6875 C11.767767,4.6875 12.1875,5.10723305 12.1875,5.625 L12.1875,13.125 Z" id="path"></path>
                    </g>
                </g>
            </g>
        </g>
    </g>
</svg>