<?xml version="1.0" encoding="UTF-8"?>
<svg width="23px" height="23px" viewBox="0 0 23 23" version="1.1" xmlns="http://www.w3.org/2000/svg" xmlns:xlink="http://www.w3.org/1999/xlink">
    <title>shape</title>
    <g id="Overview" stroke="none" stroke-width="1" fill="none" fill-rule="evenodd">
        <g transform="translate(-309.000000, -816.000000)" fill="#836CAE" fill-rule="nonzero" id="shape">
            <path d="M320.5,816 C322.085643,816 323.577292,816.302094 324.974947,816.906283 C326.372601,817.510472 327.590441,818.331026 328.628465,819.367945 C329.666489,820.404863 330.487918,821.621406 331.092751,823.017572 C331.697584,824.413738 332,825.903798 332,827.487753 C332,829.088037 331.697584,830.586262 331.092751,831.982428 C330.487918,833.378594 329.666489,834.595137 328.628465,835.632055 C327.590441,836.668974 326.372601,837.489528 324.974947,838.093717 C323.577292,838.697906 322.085643,839 320.5,839 C318.914357,839 317.422708,838.697906 316.025053,838.093717 C314.627399,837.489528 313.409559,836.668974 312.371535,835.632055 C311.333511,834.595137 310.512082,833.378594 309.907249,831.982428 C309.302416,830.586262 309,829.088037 309,827.487753 C309,825.903798 309.302416,824.413738 309.907249,823.017572 C310.512082,821.621406 311.333511,820.404863 312.371535,819.367945 C313.409559,818.331026 314.627399,817.510472 316.025053,816.906283 C317.422708,816.302094 318.914357,816 320.5,816 Z M323.638593,830.671991 C323.687633,830.606674 323.663113,830.525027 323.565032,830.42705 C323.466951,830.329073 323.352523,830.21885 323.221748,830.096379 C323.090974,829.973908 322.976546,829.847355 322.878465,829.71672 C322.780384,829.586085 322.74769,829.463614 322.780384,829.349308 C322.862118,829.088037 322.890725,828.896166 322.866205,828.773695 C322.841684,828.651225 322.764037,828.569578 322.633262,828.528754 C322.502488,828.48793 322.314499,828.471601 322.069296,828.479766 C321.824094,828.48793 321.529851,828.492013 321.186567,828.492013 C321.006752,828.492013 320.85963,828.500178 320.745203,828.516507 C320.630775,828.532836 320.52452,828.545083 320.426439,828.553248 C320.328358,828.561413 320.222104,828.569578 320.107676,828.577742 C319.993248,828.585907 319.862473,828.581825 319.715352,828.565495 C319.486496,828.549166 319.310768,828.508342 319.188166,828.443025 C319.065565,828.377707 318.951137,828.312389 318.844883,828.247071 C318.738628,828.181754 318.603767,828.124601 318.440299,828.075612 C318.27683,828.026624 318.039801,827.993965 317.729211,827.977636 C317.287847,827.961306 316.97317,827.940895 316.785181,827.9164 C316.597193,827.891906 316.462331,827.867412 316.380597,827.842918 C316.298863,827.818424 316.233476,827.802094 316.184435,827.79393 C316.135394,827.785765 316.037313,827.781683 315.890192,827.781683 C315.74307,827.798012 315.518301,827.871495 315.215885,828.00213 C314.913468,828.132765 314.606965,828.283813 314.296375,828.455272 C313.985785,828.626731 313.716063,828.802272 313.487207,828.981896 C313.258351,829.161519 313.143923,829.308484 313.143923,829.42279 C313.143923,829.749379 313.164357,830.01065 313.205224,830.206603 C313.246091,830.402556 313.303305,830.553603 313.376866,830.659744 C313.450427,830.765886 313.528074,830.851615 313.609808,830.916933 C313.691542,830.982251 313.773277,831.055733 313.855011,831.13738 C313.936745,831.219027 314.047086,831.27618 314.186034,831.308839 C314.324982,831.341498 314.476191,831.36191 314.639659,831.370075 C314.803127,831.378239 314.954336,831.398651 315.093284,831.43131 C315.232232,831.463969 315.342573,831.521122 315.424307,831.602769 C315.587775,831.798722 315.759417,831.880369 315.939232,831.84771 C316.119048,831.815052 316.278429,831.761981 316.417377,831.688499 C316.556326,831.615016 316.670753,831.58644 316.760661,831.602769 C316.850569,831.619098 316.903696,831.774228 316.920043,832.068158 C316.920043,832.198793 316.944563,832.29677 316.993603,832.362087 C317.042644,832.427405 317.108031,832.476393 317.189766,832.509052 L317.484009,832.656017 C317.598436,832.721335 317.721038,832.811147 317.851812,832.925453 C317.982587,833.056088 318.027541,833.178559 317.986674,833.292865 C317.945807,833.407171 317.884506,833.517395 317.802772,833.623536 C317.721038,833.729677 317.64339,833.843983 317.569829,833.966454 C317.496269,834.088924 317.500355,834.207313 317.58209,834.321619 C317.696517,834.501243 317.819119,834.631878 317.949893,834.713525 C318.080668,834.795172 318.207356,834.864572 318.329957,834.921725 C318.452559,834.978878 318.5629,835.044196 318.660981,835.117678 C318.759062,835.191161 318.824449,835.309549 318.857143,835.472844 C318.857143,835.521832 318.914357,835.615726 319.028785,835.754526 C319.143213,835.893326 319.253554,836.036209 319.359808,836.183174 C319.466063,836.330139 319.551883,836.452609 319.617271,836.550586 C319.682658,836.648562 319.666311,836.689386 319.56823,836.673057 C319.764392,836.705715 319.972815,836.722045 320.193497,836.722045 C320.414179,836.722045 320.557214,836.681221 320.622601,836.599574 L320.671642,836.550586 L320.671642,836.526092 L320.745203,836.501598 C320.777896,836.485268 320.82285,836.464856 320.880064,836.440362 C320.937278,836.415868 321.014925,836.362797 321.113006,836.28115 C321.309168,836.150515 321.497157,835.979056 321.676972,835.766773 C321.856788,835.554491 322.012082,835.321796 322.142857,835.06869 C322.273632,834.815584 322.383973,834.558396 322.473881,834.297125 C322.563788,834.035854 322.625089,833.790912 322.657783,833.5623 C322.690476,833.350018 322.743603,833.194888 322.817164,833.096912 C322.890725,832.998935 322.956112,832.913206 323.013326,832.839723 C323.07054,832.766241 323.119581,832.668264 323.160448,832.545793 C323.201315,832.423323 323.197228,832.215123 323.148188,831.921193 C323.099147,831.545616 323.144101,831.272098 323.283049,831.100639 C323.421997,830.92918 323.540512,830.786298 323.638593,830.671992 L323.638593,830.671991 Z M326.066098,834.517572 C326.294954,834.239972 326.413468,834.01136 326.421642,833.831736 C326.429815,833.652112 326.23774,833.513312 325.845416,833.415335 C325.436745,833.317359 325.146588,833.264288 324.974947,833.256124 C324.803305,833.247959 324.643923,833.333688 324.496802,833.513312 C324.34968,833.692936 324.243426,833.876642 324.178038,834.06443 C324.112651,834.252219 324.128998,834.509407 324.227079,834.835996 C324.276119,834.982961 324.316986,835.101349 324.34968,835.191161 C324.382374,835.280973 324.423241,835.338126 324.472281,835.36262 C324.521322,835.387114 324.594883,835.395279 324.692964,835.387114 C324.791045,835.378949 324.929993,835.350373 325.109808,835.301384 C325.30597,835.252396 325.493959,835.13809 325.673774,834.958466 C325.853589,834.778843 325.984364,834.631878 326.066098,834.517572 L326.066098,834.517572 Z M326.728145,827.365282 C326.842573,827.250976 327.034648,827.165247 327.304371,827.108094 C327.574094,827.050941 327.847903,826.977458 328.1258,826.887646 C328.403696,826.797835 328.648898,826.671282 328.861407,826.507987 C329.073916,826.344693 329.188344,826.116081 329.204691,825.822151 C329.221038,825.528222 329.221038,825.258786 329.204691,825.013845 C329.188344,824.768903 329.139303,824.523962 329.057569,824.27902 C328.975835,824.034079 328.865494,823.77689 328.726546,823.507455 C328.587598,823.238019 328.411869,822.931842 328.19936,822.588924 C327.970505,822.229677 327.762082,821.927583 327.574094,821.682641 C327.386105,821.4377 327.202203,821.229499 327.022388,821.05804 C326.842573,820.886581 326.654584,820.731452 326.458422,820.592652 C326.26226,820.453852 326.041578,820.310969 325.796375,820.164004 C325.534826,820.017039 325.277363,819.857827 325.023987,819.686368 C324.770611,819.514909 324.496802,819.400603 324.202559,819.34345 C323.908316,819.286297 323.589552,819.323039 323.246269,819.453674 C322.902985,819.58431 322.510661,819.870075 322.069296,820.310969 L321.652452,820.751864 C321.472637,820.915158 321.284648,821.070288 321.088486,821.217252 C320.892324,821.364217 320.704335,821.49077 320.52452,821.596912 C320.344705,821.703053 320.181237,821.756124 320.034115,821.756124 C319.90334,821.756124 319.699005,821.772453 319.421109,821.805112 C319.143213,821.837771 318.86123,821.919418 318.57516,822.050053 C318.28909,822.180689 318.043888,822.364395 317.839552,822.601171 C317.635217,822.837948 317.549396,823.15229 317.58209,823.544196 C317.598436,823.985091 317.676084,824.270856 317.815032,824.401491 C317.95398,824.532126 318.133795,824.605609 318.354478,824.621938 C318.57516,824.638268 318.836709,824.654597 319.139126,824.670927 C319.441542,824.687256 319.764392,824.793397 320.107676,824.98935 C320.516347,825.087327 320.900498,825.185304 321.260128,825.28328 C321.570718,825.364927 321.885394,825.466986 322.204158,825.589457 C322.522921,825.711928 322.788557,825.838481 323.001066,825.969116 C323.246269,826.116081 323.34435,826.307952 323.295309,826.544728 C323.246269,826.781505 323.160448,827.022364 323.037846,827.267306 C322.915245,827.512247 322.813077,827.749024 322.731343,827.977636 C322.649609,828.206248 322.69865,828.385871 322.878465,828.516507 C323.123667,828.696131 323.303483,828.810437 323.41791,828.859425 C323.532338,828.908413 323.65494,828.92066 323.785714,828.896166 C323.916489,828.871672 324.096304,828.834931 324.32516,828.785943 C324.554016,828.736954 324.905473,828.71246 325.379531,828.71246 C325.248756,828.71246 325.224236,828.663472 325.30597,828.565495 C325.387704,828.467519 325.514392,828.345048 325.686034,828.198083 C325.857676,828.051118 326.041578,827.900071 326.23774,827.744941 C326.433902,827.589812 326.59737,827.463259 326.728145,827.365282 L326.728145,827.365282 Z"></path>
        </g>
    </g>
</svg>