<?xml version="1.0" encoding="UTF-8"?>
<svg width="20px" height="20px" viewBox="0 0 20 20" version="1.1" xmlns="http://www.w3.org/2000/svg" xmlns:xlink="http://www.w3.org/1999/xlink">
    <title>Overview</title>
    <g id="Overview" stroke="none" stroke-width="1" fill="none" fill-rule="evenodd">
        <g transform="translate(-786.000000, -406.000000)" fill="#898989" id="check">
            <g transform="translate(786.000000, 406.000000)">
                <path d="M20,0 L20,20 L0,20 L0,0 L20,0 Z M15.6,11.52 L4.185,11.52 C3.81,11.52 3.48,11.73 3.345,12.075 C3.21,12.42 3.3,12.81 3.555,13.065 L3.555,13.065 L6.6,16.05 C6.78,16.215 7.005,16.305 7.23,16.305 C7.455,16.305 7.695,16.2 7.875,16.035 C8.22,15.675 8.22,15.105 7.86,14.76 L7.86,14.76 L6.39,13.32 L15.6,13.32 C16.095,13.32 16.5,12.915 16.5,12.42 C16.5,11.925 16.095,11.52 15.6,11.52 L15.6,11.52 Z M13.185,4.32 C12.825,3.975 12.255,3.975 11.91,4.335 C11.565,4.695 11.565,5.265 11.925,5.61 L11.925,5.61 L13.395,7.05 L4.185,7.05 C3.69,7.05 3.285,7.455 3.285,7.95 C3.285,8.445 3.69,8.85 4.185,8.85 L4.185,8.85 L15.6,8.85 C15.96,8.85 16.305,8.64 16.44,8.295 C16.575,7.95 16.485,7.56 16.23,7.305 L16.23,7.305 Z" id="shapecombine"></path>
            </g>
        </g>
    </g>
</svg>