<svg version="1.2" xmlns="http://www.w3.org/2000/svg" viewBox="0 0 28 33" width="28" height="33">
	<title>ipfs-svg</title>
	<style>
		.s0 { fill: #baa1e9;stroke: #775da6;stroke-width: 1.5 } 
		.s1 { fill: #775da6 } 
	</style>
	<g id="Overview">
		<g id="g-3">
			<g id="Layer">
				<g id="g-6">
					<path id="rect" fill-rule="evenodd" class="s0" d="m26.4 8.9l-12.3 6.8-12.2-6.8 12.2-7.3z"/>
					<path id="or" fill-rule="evenodd" class="s1" d="m12 3.2c-0.2-0.3 1-0.5 1-1 0-0.3 0.3 0 0.4-0.1q0.2-0.1 0.5 0 1.5-0.4 1.5 0.7c0 0.4 0.8 0.1 0.6 0.4-0.4 0.5-1.1 0.8-2 0.8-0.8 0-1.5-0.3-2-0.8z"/>
					<path id="or" fill-rule="evenodd" class="s1" d="m14 14c0.9 0 1.6 0.3 2 0.8 0.2 0.3-0.6 0-0.6 0.4q0 1.1-1.5 0.7-0.3 0.1-0.5 0c-0.1-0.1-0.4 0.2-0.4-0.1 0-0.5-1.2-0.7-1-1 0.5-0.5 1.2-0.8 2-0.8z"/>
					<path id="rect" fill-rule="evenodd" class="s0" d="m27.2 10.2v13.6l-12.3 7.2v-14z"/>
					<path id="or" fill-rule="evenodd" class="s1" d="m14.7 18.5c-0.4 0-0.1-0.8-0.4-1.1-0.3-0.1 0-0.2 0-0.3q0-0.2 0.2-0.4 0.3-1.1 1.2-0.5c0.3 0.2 0.4-0.5 0.5-0.2 0.3 0.5 0.3 1.1 0 1.7-0.4 0.5-0.9 0.8-1.5 0.8z"/>
					<path id="or" fill-rule="evenodd" class="s1" d="m27.1 22.1c0.4-0.1 0.2 0.8 0.6 1 0.2 0.1-0.1 0.3 0 0.4q0 0.1-0.2 0.3-0.1 1.1-1.1 0.7c-0.3-0.1-0.3 0.6-0.5 0.3-0.3-0.5-0.4-1.1-0.1-1.7 0.2-0.5 0.7-0.9 1.3-1z"/>
					<path id="rect" fill-rule="evenodd" class="s0" d="m13.4 17v14l-12.3-7.2v-13.6z"/>
					<path id="or" fill-rule="evenodd" class="s1" d="m12.2 17.7c-0.4-0.5-0.4-1.1-0.1-1.6 0.1-0.4 0.2 0.4 0.5 0.1q0.9-0.5 1.2 0.6 0.2 0.2 0.2 0.3c0 0.1 0.3 0.3 0 0.4-0.3 0.2 0 1.1-0.4 1.1-0.6 0-1.1-0.3-1.4-0.9z"/>
					<path id="or" fill-rule="evenodd" class="s1" d="m2.3 24.7c-0.2 0.3-0.7-0.4-1.1-0.3-0.3 0.1-0.2-0.2-0.3-0.2q-0.1-0.1-0.2-0.4-0.7-0.8 0.2-1.2c0.4-0.2-0.2-0.7 0.2-0.6 0.5 0.1 1 0.4 1.3 1 0.3 0.5 0.2 1.2-0.1 1.7z"/>
				</g>
			</g>
		</g>
	</g>
</svg>