<?xml version="1.0" encoding="UTF-8"?>
<svg width="25px" height="22px" viewBox="0 0 25 22" version="1.1" xmlns="http://www.w3.org/2000/svg" xmlns:xlink="http://www.w3.org/1999/xlink">
    <title>通知</title>
    <g id="页面-1" stroke="none" stroke-width="1" fill="none" fill-rule="evenodd">
        <g id="Overview-有活动" transform="translate(-305.000000, -117.000000)" fill="#FF994E" fill-rule="nonzero">
            <g id="通知" transform="translate(305.000000, 117.000000)">
                <path d="M13.5039741,0.104044612 C13.1222548,-0.0776352851 12.6716865,-0.0176632802 12.3474866,0.254856566 L6.09617932,5.52004582 L1.1094262,5.49976117 C0.822700969,5.49976117 0.5464338,5.61441354 0.343373074,5.81990585 C0.138569337,6.02539816 0.0226591369,6.30497353 0.0226591369,6.59777803 L0,15.3969059 C0,15.6897104 0.113295684,15.9701677 0.317227916,16.1765419 C0.520288643,16.3846801 0.797427316,16.5002144 1.08676706,16.5002144 L6.12842502,16.5002144 L12.3483581,21.7460009 C12.5470613,21.9135698 12.7954403,22 13.0438193,22 C13.2006902,22 13.3575612,21.9656043 13.5048456,21.8959309 C13.8865649,21.715133 14.1305863,21.3270788 14.1305863,20.9002193 L14.1305863,1.09975628 C14.1305863,0.673778659 13.8865649,0.285724509 13.5039741,0.104044612 L13.5039741,0.104044612 L13.5039741,0.104044612 Z M17.7185735,5.60383024 C17.1825978,5.34718534 16.5455274,5.58089977 16.2849474,6.12064781 C16.0252388,6.66215974 16.2500872,7.31744209 16.7817054,7.58819805 C16.8505543,7.62435764 18.4785261,8.48072259 18.4785261,10.9192901 C18.4785261,13.5245446 16.9560064,14.3879651 16.9054591,14.4161872 C16.3686119,14.6878251 16.1507356,15.349281 16.4191592,15.8925569 C16.6108903,16.2788471 16.9934811,16.5010963 17.3935021,16.5010963 C17.5564735,16.5010963 17.722931,16.4640548 17.878059,16.385562 C17.9913547,16.3273539 20.6520602,14.9338867 20.6520602,10.9192901 C20.6520602,7.04580418 17.8379697,5.66115642 17.7185735,5.60383024 L17.7185735,5.60383024 L17.7185735,5.60383024 Z M21.1026285,2.37327945 C20.6015129,2.04784312 19.9365544,2.19600925 19.6088684,2.70224353 C19.2829255,3.20847781 19.4258523,3.88933645 19.9243533,4.22271024 C20.0420066,4.30120302 22.8264659,6.22118911 22.8264659,11.0004287 C22.8264659,15.7902517 20.1553022,17.7120016 20.0489786,17.7852028 C19.5487346,18.1229863 19.4145228,18.8047269 19.7474378,19.3109611 C19.956599,19.62846 20.3017151,19.8004385 20.6529317,19.8004385 C20.8594785,19.8004385 21.0695113,19.7395846 21.2551419,19.6152309 C21.4076553,19.5129257 25,17.0205597 25,10.9995468 C25,4.96706866 21.2621139,2.47646657 21.1026285,2.37327945 L21.1026285,2.37327945 Z" id="形状"></path>
            </g>
        </g>
    </g>
</svg>