<?xml version="1.0" encoding="UTF-8"?>
<svg width="23px" height="23px" viewBox="0 0 23 23" version="1.1" xmlns="http://www.w3.org/2000/svg" xmlns:xlink="http://www.w3.org/1999/xlink">
    <title>形状结合</title>
    <g id="Overview" stroke="none" stroke-width="1" fill="none" fill-rule="evenodd">
        <g transform="translate(-876.000000, -403.000000)" fill="#836CAE" fill-rule="nonzero" id="编组-7">
            <g transform="translate(852.000000, 374.000000)">
                <path d="M31.5493919,29.5978407 L34.0716141,40.3533963 L34.0716141,40.5200629 C34.0950788,40.5587633 34.1210607,40.5958803 34.1493919,40.6311741 C34.1842695,40.6942576 34.2252032,40.7537974 34.2716141,40.8089518 L34.2716141,40.8089518 L34.4271697,40.9533963 L34.6049475,41.0645074 L34.8049475,41.1422852 L35.5382808,41.1422852 L45.760503,36.9422852 C47.5013746,42.7718286 44.2302429,48.9173708 38.422244,50.728823 C32.6142451,52.5402752 26.4294782,49.3439258 24.5477118,43.5583259 C22.6659454,37.7727261 25.7870423,31.5496444 31.5493919,29.5978407 L31.5493919,29.5978407 Z M33.7160586,29.0978407 C38.294559,28.4843462 42.7685863,30.7968147 44.9160586,34.8867296 L44.9160586,34.8867296 L35.9049475,38.5867296 Z" id="形状结合"></path>
            </g>
        </g>
    </g>
</svg>