<svg xmlns="http://www.w3.org/2000/svg" width="16" height="16" viewBox="0 0 16 16" fill="none">
  <g clip-path="url(#clip0_12823_605)">
    <path d="M2.66683 14.6668C3.40321 14.6668 4.00016 14.0699 4.00016 13.3335C4.00016 12.5971 3.40321 12.0002 2.66683 12.0002C1.93045 12.0002 1.3335 12.5971 1.3335 13.3335C1.3335 14.0699 1.93045 14.6668 2.66683 14.6668Z" fill="#5865F2" fill-opacity="0.2"/>
    <path d="M13.3335 14.6668C14.0699 14.6668 14.6668 14.0699 14.6668 13.3335C14.6668 12.5971 14.0699 12.0002 13.3335 12.0002C12.5971 12.0002 12.0002 12.5971 12.0002 13.3335C12.0002 14.0699 12.5971 14.6668 13.3335 14.6668Z" fill="#5865F2" fill-opacity="0.2"/>
    <path d="M8.00016 14.6668C8.73654 14.6668 9.3335 14.0699 9.3335 13.3335C9.3335 12.5971 8.73654 12.0002 8.00016 12.0002C7.26378 12.0002 6.66683 12.5971 6.66683 13.3335C6.66683 14.0699 7.26378 14.6668 8.00016 14.6668Z" fill="#5865F2" fill-opacity="0.2"/>
    <path d="M2.00016 3.3335C2.00016 2.71224 2.00016 2.40161 2.10166 2.15658C2.23698 1.82988 2.49655 1.57032 2.82325 1.43499C3.06828 1.3335 3.37891 1.3335 4.00016 1.3335H12.0002C12.6214 1.3335 12.932 1.3335 13.1771 1.43499C13.5038 1.57032 13.7633 1.82988 13.8987 2.15658C14.0002 2.40161 14.0002 2.71224 14.0002 3.3335C14.0002 3.95475 14.0002 4.26538 13.8987 4.51041C13.7633 4.83711 13.5038 5.09668 13.1771 5.232C12.932 5.3335 12.6214 5.3335 12.0002 5.3335H4.00016C3.37891 5.3335 3.06828 5.3335 2.82325 5.232C2.49655 5.09668 2.23698 4.83711 2.10166 4.51041C2.00016 4.26538 2.00016 3.95475 2.00016 3.3335Z" fill="#5865F2" fill-opacity="0.2"/>
    <path d="M2.66683 12.0002V11.8668C2.66683 10.7467 2.66683 10.1867 2.88482 9.75885C3.07656 9.38252 3.38252 9.07656 3.75885 8.88482C4.18667 8.66683 4.74672 8.66683 5.86683 8.66683H10.1335C11.2536 8.66683 11.8137 8.66683 12.2415 8.88482C12.6178 9.07656 12.9238 9.38252 13.1155 9.75885C13.3335 10.1867 13.3335 10.7467 13.3335 11.8668V12.0002M2.66683 12.0002C1.93045 12.0002 1.3335 12.5971 1.3335 13.3335C1.3335 14.0699 1.93045 14.6668 2.66683 14.6668C3.40321 14.6668 4.00016 14.0699 4.00016 13.3335C4.00016 12.5971 3.40321 12.0002 2.66683 12.0002ZM13.3335 12.0002C12.5971 12.0002 12.0002 12.5971 12.0002 13.3335C12.0002 14.0699 12.5971 14.6668 13.3335 14.6668C14.0699 14.6668 14.6668 14.0699 14.6668 13.3335C14.6668 12.5971 14.0699 12.0002 13.3335 12.0002ZM8.00016 12.0002C7.26378 12.0002 6.66683 12.5971 6.66683 13.3335C6.66683 14.0699 7.26378 14.6668 8.00016 14.6668C8.73654 14.6668 9.3335 14.0699 9.3335 13.3335C9.3335 12.5971 8.73654 12.0002 8.00016 12.0002ZM8.00016 12.0002V5.3335M4.00016 5.3335H12.0002C12.6214 5.3335 12.932 5.3335 13.1771 5.232C13.5038 5.09668 13.7633 4.83711 13.8987 4.51041C14.0002 4.26538 14.0002 3.95475 14.0002 3.3335C14.0002 2.71224 14.0002 2.40161 13.8987 2.15658C13.7633 1.82988 13.5038 1.57032 13.1771 1.43499C12.932 1.3335 12.6214 1.3335 12.0002 1.3335H4.00016C3.37891 1.3335 3.06828 1.3335 2.82325 1.43499C2.49655 1.57032 2.23698 1.82988 2.10166 2.15658C2.00016 2.40161 2.00016 2.71224 2.00016 3.3335C2.00016 3.95475 2.00016 4.26538 2.10166 4.51041C2.23698 4.83711 2.49655 5.09668 2.82325 5.232C3.06828 5.3335 3.37891 5.3335 4.00016 5.3335Z" stroke="#5865F2" stroke-width="1.5" stroke-linecap="round" stroke-linejoin="round"/>
  </g>
  <defs>
    <clipPath id="clip0_12823_605">
      <rect width="16" height="16" fill="white"/>
    </clipPath>
  </defs>
</svg>