<svg xmlns="http://www.w3.org/2000/svg" width="161" height="120" viewBox="0 0 161 120" fill="none">
  <path d="M116.506 94.9396H51.5088C50.8629 94.9395 50.2435 94.6828 49.7868 94.2261C49.3302 93.7693 49.0736 93.1499 49.0736 92.504V18.6832C49.0736 18.0373 49.3302 17.4179 49.7869 16.9612C50.2436 16.5046 50.863 16.248 51.5088 16.248H116.506C117.152 16.248 117.772 16.5045 118.229 16.9612C118.685 17.4179 118.942 18.0373 118.942 18.6832V77.816" stroke="#143C9B" stroke-width="0.3048"/>
  <path d="M103.87 24.924H39.1828C38.8626 24.924 38.5454 24.9871 38.2496 25.1097C37.9537 25.2322 37.6849 25.4119 37.4585 25.6383C37.232 25.8648 37.0524 26.1337 36.9299 26.4296C36.8074 26.7254 36.7443 27.0426 36.7444 27.3628V100.872C36.7444 101.519 37.0013 102.139 37.4586 102.596C37.9159 103.053 38.5361 103.31 39.1828 103.31H103.87C104.517 103.31 105.137 103.053 105.594 102.596C106.052 102.139 106.308 101.519 106.308 100.872V27.3628C106.308 26.7161 106.051 26.096 105.594 25.6387C105.137 25.1815 104.517 24.9241 103.87 24.924Z" fill="white" stroke="#143C9B" stroke-width="0.3048"/>
  <path fill-rule="evenodd" clip-rule="evenodd" d="M81.7152 27.672C84.4444 31.156 88.4012 33.394 93.5856 34.3872C95.3712 34.7292 95.2 32.6372 96.1688 31.8176C96.6696 31.3944 98.3604 30.108 100.268 32.4592C102.176 34.8104 99.2628 37.3568 98.8256 37.6812C98.534 37.8972 97.792 37.8452 96.5984 37.5252L96.8708 52.1692L111.027 51.8648C105.481 29.1056 99.62 18.8116 93.4456 20.982C92.939 21.1614 92.4266 21.3239 91.9092 21.4692C87.0132 22.8292 86.0692 16.8624 81.2732 18.4452C76.4772 20.0276 78.9052 27.4172 78.9052 27.4172C77.9084 28.078 76.9572 30.3852 77.2276 32.4452C77.4076 33.8176 78.3196 35.508 79.9628 37.5152L80.628 28.0056C80.6366 27.8828 80.6822 27.7654 80.7588 27.6691C80.8355 27.5727 80.9395 27.5018 81.0572 27.4657C81.1749 27.4296 81.3008 27.4301 81.4183 27.467C81.5357 27.5039 81.6392 27.5751 81.7152 27.672Z" fill="#143C9B"/>
  <path d="M83.9544 34.1968L82.5232 36.364L83.7988 36.73M95.0024 36.3292C95.3854 36.8914 95.9341 37.3203 96.5721 37.5563C97.2101 37.7923 97.9058 37.8237 98.5625 37.6462C99.2192 37.4687 99.8042 37.091 100.236 36.5656C100.669 36.0403 100.926 35.3934 100.974 34.7148C101.021 34.0345 100.855 33.3564 100.499 32.7751C100.142 32.1938 99.6128 31.7384 98.9849 31.4724C98.3569 31.2064 97.6616 31.1432 96.996 31.2915C96.3304 31.4398 95.7276 31.7922 95.272 32.2996" stroke="#143C9B" stroke-width="0.3048"/>
  <path d="M99.2964 35.878C99.4748 35.6513 99.603 35.3892 99.6724 35.1091C99.7418 34.829 99.7509 34.5374 99.699 34.2536C99.6471 33.9697 99.5354 33.7002 99.3713 33.4628C99.2073 33.2254 98.9946 33.0257 98.7475 32.8768C98.5003 32.7278 98.2244 32.6332 97.9378 32.5991C97.6513 32.565 97.3608 32.5922 97.0856 32.679C96.8104 32.7657 96.5568 32.91 96.3417 33.1023C96.1265 33.2945 95.9547 33.5303 95.8376 33.794" stroke="#143C9B" stroke-width="0.3048"/>
  <path d="M97.8928 34.3528C97.8834 34.0424 97.803 33.7382 97.6577 33.4637C97.5125 33.1892 97.3062 32.9516 97.0548 32.7692M84.6252 44.0392L83.8644 52.6124L82.2748 52.7796M98.1944 37.696L97.1872 52.1032L98.4228 52.1896" stroke="#143C9B" stroke-width="0.3048"/>
  <path d="M91.0612 44.578L84.9096 44.148C81.9708 43.9424 79.7548 41.3936 79.9604 38.4548L80.8476 25.7672" stroke="#143C9B" stroke-width="0.3048"/>
  <path fill-rule="evenodd" clip-rule="evenodd" d="M91.072 44.7384L84.3908 47.4304L84.6188 44.1276L91.072 44.7384Z" fill="#143C9B"/>
  <path d="M84.7956 40.4944C85.3688 40.362 85.742 39.856 85.6284 39.3644C85.5148 38.8728 84.958 38.5816 84.3844 38.714C83.8108 38.8464 83.438 39.3524 83.5516 39.844C83.6652 40.3356 84.222 40.6268 84.7956 40.4944Z" stroke="#143C9B" stroke-width="0.3048"/>
  <path d="M37.2764 46.3852C44.4644 46.3852 50.2912 40.5588 50.2912 33.3716C50.2912 26.1844 44.4644 20.3576 37.2764 20.3576C30.0884 20.3576 24.2616 26.1848 24.2616 33.372C24.2616 40.5592 30.0888 46.3852 37.2764 46.3852Z" fill="#FFC500"/>
  <path d="M43.0376 32.5892H31.5164V34.0116H43.0376V32.5892Z" fill="white"/>
  <path fill-rule="evenodd" clip-rule="evenodd" d="M36.5656 39.0604V27.5404H37.988V39.0604H36.5656Z" fill="white"/>
  <path d="M54.2488 103.463H137.817V53.1316C137.817 52.4849 137.56 51.8647 137.103 51.4074C136.646 50.9501 136.025 50.6932 135.379 50.6932H135.372L124.118 50.7232" stroke="#143C9B" stroke-width="0.3048"/>
  <path fill-rule="evenodd" clip-rule="evenodd" d="M109.182 51.868C117.599 51.8632 124.424 58.6848 124.426 67.1016C124.426 67.1028 124.426 67.104 124.422 67.1048V82.3064L113.578 82.2892V94.9396H68.4332V81.0248L50.2156 80.7844L65.1348 56.8948C66.0936 55.3596 67.4271 54.0935 69.0101 53.2158C70.593 52.3381 72.3732 51.8776 74.1832 51.8776H77.2624C77.3596 51.8756 77.4572 51.8748 77.5548 51.8744L84.366 51.8728C85.1756 55.1108 88.1004 57.5088 91.5848 57.5088C95.0696 57.5088 97.9952 55.1096 98.804 51.87L109.182 51.868Z" fill="#04D6BA"/>
  <path d="M68.6344 63.2804V72.7172M113.995 74.3916V80.784" stroke="white" stroke-width="0.3048"/>
  <path d="M123.813 82.3064V92.504M58.3656 88.1468L39.8116 54.8704M67.2624 73.0212L47.8332 36.552C47.6916 36.286 47.2896 36.2232 46.9348 36.412C46.6444 36.5664 46.468 36.8476 46.5044 37.098C47.282 40.318 47.7588 42.5324 47.9344 43.7408C48.1396 45.1536 48.09 46.6876 47.7856 48.3432" stroke="#143C9B" stroke-width="0.3048"/>
  <path d="M44.8792 45.8624C45.0382 45.7776 45.2124 45.725 45.3917 45.7077C45.5711 45.6904 45.7521 45.7087 45.9244 45.7616C46.0968 45.8141 46.257 45.9002 46.396 46.0148C46.535 46.1294 46.65 46.2704 46.7344 46.4296L48.44 49.6376C48.618 49.972 48.6432 50.3468 48.5408 50.6824C48.4883 50.8548 48.4022 51.015 48.2876 51.154C48.173 51.293 48.032 51.408 47.8728 51.4924L47.346 51.7728C47.1871 51.8575 47.0129 51.91 46.8336 51.9273C46.6543 51.9445 46.4734 51.9261 46.3012 51.8732C46.1288 51.8208 45.9685 51.7349 45.8295 51.6203C45.6905 51.5057 45.5755 51.3648 45.4912 51.2056L43.7852 47.9972C43.7005 47.8383 43.648 47.6641 43.6308 47.4848C43.6135 47.3055 43.6319 47.1246 43.6848 46.9524C43.7372 46.7801 43.8232 46.6198 43.9378 46.4808C44.0523 46.3418 44.1933 46.2268 44.3524 46.1424L44.8792 45.8624Z" stroke="#143C9B" stroke-width="0.3048"/>
  <path d="M41.7416 47.5308L41.484 47.668C41.3073 47.7619 41.1507 47.8898 41.0234 48.0442C40.8961 48.1986 40.8004 48.3766 40.7419 48.568C40.6833 48.7594 40.6631 48.9605 40.6822 49.1597C40.7014 49.359 40.7596 49.5525 40.8536 49.7292L42.4164 52.668C42.5104 52.8447 42.6382 53.0012 42.7927 53.1285C42.9471 53.2558 43.1251 53.3514 43.3165 53.4099C43.5079 53.4684 43.709 53.4886 43.9082 53.4694C44.1074 53.4502 44.3009 53.392 44.4776 53.298L44.7352 53.1612C44.9119 53.0672 45.0684 52.9394 45.1957 52.7849C45.323 52.6305 45.4186 52.4525 45.4771 52.2611C45.5356 52.0697 45.5558 51.8686 45.5366 51.6694C45.5174 51.4702 45.4592 51.2767 45.3652 51.1L43.8028 48.1612C43.7089 47.9844 43.581 47.8279 43.4266 47.7006C43.2722 47.5733 43.0942 47.4776 42.9028 47.4191C42.7114 47.3605 42.5103 47.3403 42.3111 47.3594C42.1118 47.3786 41.9183 47.4368 41.7416 47.5308ZM38.7376 49.1276L38.48 49.2648C38.3033 49.3588 38.1468 49.4866 38.0195 49.6411C37.8922 49.7955 37.7966 49.9735 37.7381 50.1649C37.6796 50.3563 37.6594 50.5574 37.6786 50.7566C37.6978 50.9558 37.756 51.1493 37.85 51.326L39.4124 54.2648C39.5063 54.4415 39.6342 54.598 39.7886 54.7254C39.943 54.8527 40.121 54.9484 40.3124 55.0069C40.5038 55.0655 40.7049 55.0857 40.9041 55.0666C41.1034 55.0474 41.2969 54.9892 41.4736 54.8952L41.7312 54.758C41.908 54.6641 42.0645 54.5362 42.1918 54.3818C42.3191 54.2274 42.4148 54.0494 42.4733 53.858C42.5319 53.6666 42.5521 53.4655 42.533 53.2663C42.5138 53.067 42.4556 52.8735 42.3616 52.6968L40.7988 49.758C40.609 49.4011 40.2853 49.1342 39.8987 49.016C39.5122 48.8978 39.0945 48.9379 38.7376 49.1276Z" stroke="#143C9B" stroke-width="0.3048"/>
  <path fill-rule="evenodd" clip-rule="evenodd" d="M56.9236 53.6484L47.1412 51.5724C47.0274 51.5483 46.9229 51.4921 46.84 51.4106C46.7571 51.329 46.6993 51.2254 46.6733 51.112C46.6474 50.9987 46.6544 50.8802 46.6936 50.7707C46.7327 50.6612 46.8024 50.5652 46.8944 50.494L47.6468 49.9108C48.8057 49.0125 50.238 48.5395 51.704 48.5712L52.7216 48.5932" fill="white"/>
  <path d="M56.9236 53.6484L47.1412 51.5724C47.0274 51.5483 46.9229 51.4921 46.84 51.4106C46.7571 51.329 46.6993 51.2254 46.6733 51.112C46.6474 50.9987 46.6544 50.8802 46.6936 50.7707C46.7327 50.6612 46.8024 50.5652 46.8944 50.494L47.6468 49.9108C48.8057 49.0125 50.238 48.5395 51.704 48.5712L52.7216 48.5932" stroke="#143C9B" stroke-width="0.3048"/>
  <path fill-rule="evenodd" clip-rule="evenodd" d="M99.4776 73.0216H19.9196C19.668 73.0216 19.4225 73.0994 19.2169 73.2444C19.0113 73.3894 18.8555 73.5945 18.771 73.8315C18.6866 74.0685 18.6775 74.3258 18.745 74.5682C18.8126 74.8105 18.9535 75.0261 19.1484 75.1852L53.8008 103.478C53.9096 103.567 54.046 103.615 54.1864 103.615H137.817L101.02 73.5712C100.584 73.2157 100.04 73.0215 99.4776 73.0216Z" fill="#3370FF"/>
  <path d="M60.3292 79.5668C60.2691 79.5666 60.2096 79.5783 60.1541 79.6013C60.0985 79.6242 60.048 79.6578 60.0056 79.7003C59.9631 79.7428 59.9294 79.7933 59.9065 79.8488C59.8836 79.9044 59.8718 79.9639 59.872 80.024C59.872 80.1672 59.9392 80.3024 60.0532 80.3888L63.8776 83.2792C63.9572 83.3392 64.054 83.3716 64.1536 83.3716H104.643C104.769 83.3716 104.883 83.3204 104.966 83.2376C105.012 83.1914 105.048 83.1358 105.071 83.0746C105.094 83.0133 105.103 82.9479 105.099 82.8827C105.094 82.8175 105.076 82.7541 105.045 82.6966C105.014 82.6391 104.971 82.589 104.918 82.5496L101.094 79.6592C101.015 79.5991 100.918 79.5667 100.818 79.5668H60.3292Z" stroke="white" stroke-width="0.3048"/>
  <path d="M73.8848 31.3168H49.836C49.4996 31.3168 49.2264 31.5896 49.2264 31.9264V34.664C49.2264 35.0008 49.4996 35.274 49.836 35.274H73.8848C74.2216 35.274 74.4944 35.0008 74.4944 34.664V31.9264C74.4944 31.5896 74.2216 31.3168 73.8848 31.3168Z" stroke="#143C9B" stroke-width="0.3048"/>
  <path d="M131.749 81.6976C136.277 82.0728 139.518 82.7772 141.472 83.8104C143.393 84.8268 144.434 86.1412 144.594 87.7536C142.139 86.1764 138.242 85.4752 132.903 85.6508L131.749 81.6976Z" stroke="#143C9B" stroke-width="0.3048"/>
  <path fill-rule="evenodd" clip-rule="evenodd" d="M144.594 86.9512C144.594 86.9512 145.31 88.8604 144.194 90.9636C142.793 93.604 135.644 97.4964 119.034 94.414C114.71 93.6116 111.426 94.7352 111.426 94.7352L107.983 88.6364C113.962 87.9408 119.995 88.6632 126.081 90.8028C133.56 93.4328 144.318 89.9336 144.594 86.9512Z" fill="#14C0FF"/>
</svg>