<svg xmlns="http://www.w3.org/2000/svg" width="16" height="16" viewBox="0 0 16 16" fill="none">
  <path d="M2.11328 4.95996L7.99994 8.36662L13.8466 4.97994" stroke="white" stroke-width="1.5" stroke-linecap="round" stroke-linejoin="round"/>
  <path d="M8 14.407V8.36035" stroke="white" stroke-width="1.5" stroke-linecap="round" stroke-linejoin="round"/>
  <path d="M14.4066 8.55303V6.11301C14.4066 5.19301 13.7466 4.07302 12.9399 3.62636L9.37992 1.65301C8.61992 1.22634 7.37991 1.22634 6.61991 1.65301L3.05992 3.62636C2.25325 4.07302 1.59326 5.19301 1.59326 6.11301V9.88637C1.59326 10.8064 2.25325 11.9264 3.05992 12.373L6.61991 14.3464C6.99991 14.5597 7.49992 14.6664 7.99992 14.6664C8.49992 14.6664 8.99992 14.5597 9.37992 14.3464" stroke="white" stroke-width="1.5" stroke-linecap="round" stroke-linejoin="round"/>
  <path d="M10.6665 12.667L12.6665 10.667M12.6665 10.667L14.6665 12.667M12.6665 10.667V14.667" stroke="white" stroke-width="1.5" stroke-linecap="round" stroke-linejoin="round"/>
</svg>