<?xml version="1.0" encoding="UTF-8"?>
<svg width="20px" height="20px" viewBox="0 0 20 20" version="1.1" xmlns="http://www.w3.org/2000/svg" xmlns:xlink="http://www.w3.org/1999/xlink">
    <title>shapecombine</title>
    <g id="Overview" stroke="none" stroke-width="1" fill="none" fill-rule="evenodd">
        <g id="UVedit" transform="translate(-949.000000, -497.000000)" fill="#34A9FF">
            <path d="M969,497 L969,517 L949,517 L949,497 L969,497 Z M966,502 C961.243457,503.858048 958.321556,507.254776 957.328525,508.561529 L957.202491,508.729937 C957.10791,508.858366 957.039468,508.956254 956.997313,509.017898 L956.959355,509.074107 C956.950915,509.086801 956.94669,509.09333 956.94669,509.09333 C955.733338,506.853335 953.96003,505.64002 953.96003,505.64002 L953.96003,505.64002 L952,507.506695 C955.173337,509.172667 956.660856,511.37815 957.093012,512.059612 L957.158448,512.163629 C957.194939,512.221868 957.217337,512.257332 957.226668,512.266662 C957.291036,512.163674 957.353628,512.062462 957.415179,511.962382 L957.597446,511.664898 L957.597446,511.664898 L957.777875,511.370352 C958.471631,510.241967 959.222067,509.093339 961.146665,506.94669 C963.759992,503.96003 966,503.213353 966,503.213353 L966,503.213353 Z" id="shapecombine"></path>
        </g>
    </g>
</svg>