<?xml version="1.0" encoding="UTF-8"?>
<svg width="21px" height="20px" viewBox="0 0 21 20" version="1.1" xmlns="http://www.w3.org/2000/svg" xmlns:xlink="http://www.w3.org/1999/xlink">
    <title>形状结合</title>
    <g id="Overview" stroke="none" stroke-width="1" fill="none" fill-rule="evenodd">
        <g transform="translate(-308.000000, -407.000000)" fill="#836CAE" fill-rule="nonzero" id="形状结合">
            <path d="M313.364844,426.768359 L308.428906,426.768359 C308.193359,426.768359 308,426.575 308,426.339453 L308,413.735938 C308,413.500391 308.193359,413.307031 308.428906,413.307031 L313.364844,413.307031 C313.600391,413.307031 313.79375,413.500391 313.79375,413.735938 L313.79375,426.342969 C313.79375,426.575 313.603906,426.768359 313.364844,426.768359 L313.364844,426.768359 Z M320.694922,426.768359 L315.758984,426.768359 C315.523438,426.768359 315.330078,426.575 315.330078,426.339453 L315.330078,407.428906 C315.330078,407.193359 315.523438,407 315.758984,407 L320.694922,407 C320.930469,407 321.123828,407.193359 321.123828,407.428906 L321.123828,426.339453 C321.123828,426.575 320.930469,426.768359 320.694922,426.768359 Z M328.19375,426.768359 L323.254297,426.768359 C323.01875,426.768359 322.825391,426.575 322.825391,426.339453 L322.825391,416.460547 C322.825391,416.225 323.01875,416.031641 323.254297,416.031641 L328.190234,416.031641 C328.425781,416.031641 328.619188,416.225 328.619188,416.460547 L328.619188,426.339453 C328.622656,426.575 328.429297,426.768359 328.19375,426.768359 Z"></path>
        </g>
    </g>
</svg>