<svg width="20" height="20" viewBox="0 0 20 20" fill="none" xmlns="http://www.w3.org/2000/svg">
<g clip-path="url(#clip0_4148_640)">
<path d="M20 0H0V20H20V0Z" fill="black"/>
<path d="M11.0409 12.2575C11.0409 11.7154 11.4687 11.276 11.9963 11.276H12.3785C12.9061 11.276 13.3338 11.7154 13.3338 12.2575V12.6502C13.3338 13.1922 12.9061 13.6317 12.3785 13.6317H11.9963C11.4687 13.6317 11.0409 13.1922 11.0409 12.6502V12.2575Z" fill="#1EEFA4"/>
<path d="M11.9963 7.74246C11.4687 7.74246 11.0409 8.18192 11.0409 8.724V9.11662C11.0409 9.6587 11.4687 10.0982 11.9963 10.0982H12.3785C12.9061 10.0982 13.3338 9.6587 13.3338 9.11662V8.724C13.3338 8.18192 12.9061 7.74246 12.3785 7.74246H11.9963Z" fill="#1EEFA4"/>
<path fill-rule="evenodd" clip-rule="evenodd" d="M7.60154 3.62C5.49096 3.62 3.78 5.3778 3.78 7.54616V12.4538C3.78 14.6222 5.49096 16.38 7.60154 16.38H12.3785C14.489 16.38 16.2 14.6222 16.2 12.4538V7.54616C16.2 5.3778 14.489 3.62 12.3785 3.62H7.60154ZM12.3785 5.19046H7.60154C6.3352 5.19046 5.30862 6.24514 5.30862 7.54616V12.4538C5.30862 13.7549 6.3352 14.8095 7.60154 14.8095H12.3785C13.6448 14.8095 14.6714 13.7549 14.6714 12.4538V7.54616C14.6714 6.24514 13.6448 5.19046 12.3785 5.19046Z" fill="#1EEFA4"/>
</g>
<defs>
<clipPath id="clip0_4148_640">
<rect width="20" height="20" rx="10" fill="white"/>
</clipPath>
</defs>
</svg>
