<?xml version="1.0" encoding="UTF-8"?>
<svg width="14px" height="15px" viewBox="0 0 14 15" version="1.1" xmlns="http://www.w3.org/2000/svg" xmlns:xlink="http://www.w3.org/1999/xlink">
    <title>现有库存</title>
    <g id="Upload" stroke="none" stroke-width="1" fill="none" fill-rule="evenodd">
        <g id="Upload-1" transform="translate(-348.000000, -244.000000)" fill="#FFFFFF" fill-rule="nonzero">
            <g id="编组-2" transform="translate(290.000000, 151.000000)">
                <g id="现有库存" transform="translate(58.000000, 93.000000)">
                    <path d="M13.0028265,2.79272152 L7.79536461,0.189873418 C7.55002826,0.0712025316 7.27303561,0 6.99604296,0 C6.71905031,0 6.44205766,0.0632911392 6.19672131,0.189873418 L3.57716224,1.50316456 L3.56133409,1.50316456 C3.53759186,1.51107595 3.50593556,1.52689873 3.48219333,1.54272152 L3.46636518,1.54272152 L0.997173544,2.79272152 C0.387789712,3.10126582 0,3.71044304 0,4.39873418 L0,10.5933544 C0,11.2816456 0.37196156,11.8987342 0.989259469,12.2072785 L6.19672131,14.8101266 C6.44205766,14.9367089 6.71905031,15 6.99604296,15 C7.27303561,15 7.55002826,14.9367089 7.79536461,14.8101266 L13.0028265,12.2072785 C13.6122103,11.8987342 14,11.289557 14,10.6012658 L14,4.39873418 C14,3.71835443 13.6201244,3.10126582 13.0028265,2.79272152 Z M5.13623516,1.82753165 L6.63990955,1.07594937 C6.75070661,1.02056962 6.87733183,0.988924051 6.99604296,0.988924051 C7.12266817,0.988924051 7.24137931,1.02056962 7.35217637,1.07594937 L12.11645,3.45727848 L12.4013567,3.59968354 L12.11645,3.74208861 L10.3199548,4.63607595 L10.2487281,4.66772152 L10.1775014,4.63607595 L5.13623516,2.11234177 L4.85132843,1.96993671 L5.13623516,1.82753165 Z M6.50537027,7.24683544 L6.50537027,13.8607595 L6.27586207,13.75 L1.42453363,11.3291139 C1.14754098,11.1867089 0.981345393,10.9098101 0.981345393,10.6012658 L0.981345393,4.48575949 L1.17919729,4.48575949 L1.21085359,4.50158228 L6.41831543,7.10443038 L6.50537027,7.15189873 L6.50537027,7.24683544 Z M6.99604296,6.29746835 L6.92481628,6.26582278 L1.87563595,3.73417722 L1.59072923,3.59177215 L1.87563595,3.44936709 L3.67213115,2.54746835 L3.74335783,2.51582278 L3.81458451,2.54746835 L8.86376484,5.07120253 L9.14867157,5.21360759 L8.86376484,5.35601266 L7.06726964,6.25791139 L6.99604296,6.29746835 L6.99604296,6.29746835 Z M13.0186546,10.6012658 L13.0186546,10.6091772 L13.0107405,10.7041139 L13.0107405,10.7199367 C12.9711702,10.9810127 12.8049746,11.210443 12.5675523,11.3291139 L7.72413793,13.75 L7.49462973,13.8607595 L7.49462973,7.15189873 L7.58168457,7.10443038 L12.7891464,4.50158228 L12.8208027,4.48575949 L13.0186546,4.48575949 L13.0186546,10.6012658 Z" id="形状"></path>
                </g>
            </g>
        </g>
    </g>
</svg>