<?xml version="1.0" encoding="UTF-8"?>
<svg width="15px" height="15px" viewBox="0 0 15 15" version="1.1" xmlns="http://www.w3.org/2000/svg" xmlns:xlink="http://www.w3.org/1999/xlink">
    <title>编辑</title>
    <g id="Upload" stroke="none" stroke-width="1" fill="none" fill-rule="evenodd">
        <g id="Upload-2" transform="translate(-516.000000, -244.000000)" fill="#FFFFFF" fill-rule="nonzero">
            <g id="g-2" transform="translate(290.000000, 151.000000)">
                <g id="编辑" transform="translate(226.000000, 93.000000)">
                    <path d="M14.3183019,3.75082047 C13.9418128,3.75082047 13.6366038,4.03069716 13.6366038,4.37593768 L13.6366038,13.7497656 L1.36339622,13.7497656 L1.36339622,1.25023442 L10.1957539,1.25023442 C10.572243,1.25023442 10.877452,0.970357723 10.877452,0.625117209 C10.877452,0.279876696 10.572243,0 10.1957539,0 L0.68169811,0 C0.305209026,0 0,0.279876696 0,0.625117209 L0,14.3748828 C0,14.7201233 0.305209026,15 0.68169811,15 L14.3183019,15 C14.694791,15 15,14.7201233 15,14.3748828 L15,4.37593768 C15,4.03069716 14.694791,3.75082047 14.3183019,3.75082047 L14.3183019,3.75082047 Z" id="path"></path>
                    <path d="M6.10629674,8.15333061 C6.23747606,8.27218699 6.40937995,8.33161518 6.58128384,8.33161518 C6.75318773,8.33161518 6.92511261,8.27218699 7.05627094,8.15333061 L13.8032625,2.03918958 C14.0655792,1.8014578 14.0655792,1.41603061 13.8032625,1.17829883 C13.5409039,0.940567055 13.115584,0.940567055 12.8532673,1.17829883 L6.10629674,7.29243986 C5.8439591,7.53015262 5.8439591,7.91559883 6.10629674,8.15333061 Z M11.362454,9.91825652 C11.362454,9.58206113 11.0617009,9.30951706 10.6907084,9.30951706 L2.67174558,9.30951706 C2.30075309,9.30951706 2,9.58206113 2,9.91825652 C2,10.2544519 2.30075309,10.526996 2.67174558,10.526996 L10.6907084,10.526996 C11.0617009,10.526996 11.362454,10.2544519 11.362454,9.91825652 Z M2.67174558,11.7825211 C2.30075309,11.7825211 2,12.0550652 2,12.3912605 C2,12.7274559 2.30075309,13 2.67174558,13 L7.94074994,13 C8.31174243,13 8.61249552,12.7274559 8.61249552,12.3912605 C8.61249552,12.0550652 8.31174243,11.7825211 7.94074994,11.7825211 L2.67174558,11.7825211 Z" id="shape"></path>
                </g>
            </g>
        </g>
    </g>
</svg>