<?xml version="1.0" encoding="UTF-8"?>
<svg width="20px" height="18px" viewBox="0 0 20 18" version="1.1" xmlns="http://www.w3.org/2000/svg" xmlns:xlink="http://www.w3.org/1999/xlink">
    <title>path</title>
    <g id="Upload" stroke="none" stroke-width="1" fill="none" fill-rule="evenodd">
        <g id="Upload-1" transform="translate(-352.000000, -705.000000)" fill="#FF6960" fill-rule="nonzero">
            <g id="g-2" transform="translate(290.000000, 421.000000)">
                <g id="g-3" transform="translate(30.000000, 30.000000)">
                    <path d="M43.1547815,259.646774 C43.1590912,259.60684 43.1613024,259.566277 43.1613024,259.525198 C43.1613024,258.906516 42.6597613,258.404975 42.0410791,258.404975 C41.4223968,258.404975 40.9208557,258.906516 40.9208557,259.525198 C40.9208557,259.526472 40.9208578,259.527746 40.9208621,259.529019 L40.9173835,259.529019 L41.1698359,264.868763 C41.1698081,264.871631 41.1697943,264.874502 41.1697943,264.877376 C41.1697943,265.358573 41.5598818,265.748661 42.0410791,265.748661 C42.5222764,265.748661 42.9123639,265.358573 42.9123639,264.877376 C42.9123639,264.869444 42.9122579,264.861537 42.9120473,264.853656 L43.1547815,259.646774 Z M39.3012443,255.905778 C40.7911635,253.362013 43.2099955,253.367469 44.6967191,255.905778 L51.3556441,267.274674 C52.8455634,269.818439 51.6646878,271.880568 48.7103375,271.880568 L35.2876258,271.880568 C32.3367441,271.880568 31.1555956,269.812983 32.6423192,267.274674 L39.3012443,255.905778 Z M42.0410791,269.35827 C42.6597613,269.35827 43.1613024,268.856728 43.1613024,268.238046 C43.1613024,267.619364 42.6597613,267.117823 42.0410791,267.117823 C41.4223968,267.117823 40.9208557,267.619364 40.9208557,268.238046 C40.9208557,268.856728 41.4223968,269.35827 42.0410791,269.35827 Z" id="shape"></path>
                </g>
            </g>
        </g>
    </g>
</svg>