<?xml version="1.0" encoding="UTF-8"?>
<svg width="19px" height="19px" viewBox="0 0 19 19" version="1.1" xmlns="http://www.w3.org/2000/svg" xmlns:xlink="http://www.w3.org/1999/xlink">
    <title>log</title>
    <g id="Account" stroke="none" stroke-width="1" fill="none" fill-rule="evenodd">
        <g id="Overview" transform="translate(-1249.000000, -189.000000)" fill="#617083" fill-rule="nonzero" stroke="#617083" stroke-width="0.3">
            <g id="log" transform="translate(1250.000000, 190.000000)">
                <path d="M14.6025641,0 L2.3974359,0 C1.07376558,0.000957868407 0.000957868407,1.07376558 0,2.3974359 L0,14.6025641 C0.000957868407,15.9262344 1.07376558,16.9990421 2.3974359,17 L10.9846154,17 C11.3457246,17 11.6384615,16.7072631 11.6384615,16.3461538 C11.6384615,15.9850446 11.3457246,15.6923077 10.9846154,15.6923077 L2.3974359,15.6923077 C1.79676583,15.6923077 1.30769231,15.2032342 1.30769231,14.6025641 L1.30769231,2.3974359 C1.30769231,1.79676583 1.79676583,1.30769231 2.3974359,1.30769231 L14.6025641,1.30769231 C15.2032342,1.30769231 15.6923077,1.79676583 15.6923077,2.3974359 L15.6923077,14.6025641 C15.6923077,15.2032342 15.2032342,15.6923077 14.6025641,15.6923077 L14.4072786,15.6923077 C14.0461694,15.6923077 13.7534325,15.9850446 13.7534325,16.3461538 C13.7534325,16.7072631 14.0461694,17 14.4072786,17 L14.6025641,17 C15.9262344,16.9990421 16.9990421,15.9262344 17,14.6025641 L17,2.3974359 C16.9990421,1.07376558 15.9262344,0.000957868407 14.6025641,0 Z" id="路径"></path>
                <path d="M3.6950198,4.30434808 L10.6226167,4.30434808 C10.9994394,4.30434808 11.3049145,4.01235988 11.3049145,3.65217419 C11.3049145,3.29198849 10.9994394,3.00000029 10.6226167,3.00000029 L3.6950198,3.00000029 C3.31819714,3.00000029 3.01272201,3.29198849 3.01272201,3.65217419 C3.01272201,4.01235988 3.31819714,4.30434808 3.6950198,4.30434808 Z M12.3374585,7.34782625 L3.68229779,7.34782625 C3.30547513,7.34782625 3,7.63981445 3,8.00000015 C3,8.36018584 3.30547513,8.65217404 3.68229779,8.65217404 L12.3374585,8.65217404 C12.7142812,8.65217404 13.0197563,8.36018584 13.0197563,8.00000015 C13.0197563,7.63981445 12.7142812,7.34782625 12.3374585,7.34782625 L12.3374585,7.34782625 Z M3.6950198,11.6956522 C3.31819715,11.6956522 3.01272205,11.9876404 3.01272205,12.3478261 C3.01272205,12.7080118 3.31819715,13 3.6950198,13 L7.1237972,13 C7.50061987,13 7.80609499,12.7080118 7.80609499,12.3478261 C7.80609499,11.9876404 7.50061987,11.6956522 7.1237972,11.6956522 L3.6950198,11.6956522 Z M13.3172488,3.00000015 L13.2471889,3.00000015 C12.8705747,3.00000015 12.6003742,3.2921708 12.6003742,3.65217419 C12.6003742,4.01217757 12.9415231,4.30434808 13.318155,4.30434808 C13.6949777,4.3041089 14.0002499,4.0119268 13.9999998,3.6517411 C13.9997495,3.29155541 13.6940715,2.99976111 13.3172488,3.00000015 L13.3172488,3.00000015 Z" id="shape"></path>
            </g>
        </g>
    </g>
</svg>