<?xml version="1.0" encoding="UTF-8"?>
<svg width="16px" height="16px" viewBox="0 0 16 16" version="1.1" xmlns="http://www.w3.org/2000/svg" xmlns:xlink="http://www.w3.org/1999/xlink">
    <title>icon/Add </title>
    <defs>
        <path d="M11.5,11.0073 C11.5,12.6793 10.32,14.0763 8.75,14.4213 L8.75,4.5073 L9.5,4.5073 C10.603,4.5073 11.5,5.4043 11.5,6.5073 L11.5,11.0073 Z M7.25,2.9993 L6.75,2.9993 L6.75,2.7493 C6.75,2.0603 7.311,1.4993 8,1.4993 C8.689,1.4993 9.25,2.0603 9.25,2.7493 L9.25,2.9993 L8.75,2.9993 L7.25,2.9993 Z M7.25,14.4213 C5.68,14.0763 4.5,12.6793 4.5,11.0073 L4.5,6.5073 C4.5,5.4043 5.397,4.5073 6.5,4.5073 L7.25,4.5073 L7.25,14.4213 Z M15.25,8.7533 C15.662,8.7533 16,8.4163 16,8.0033 C16,7.5903 15.662,7.2533 15.25,7.2533 L13,7.2533 L13,6.5073 C13,6.4073 12.985,6.3123 12.977,6.2153 C14.746,5.5033 16,3.7743 16,1.7533 C16,1.3393 15.664,1.0033 15.25,1.0033 C14.836,1.0033 14.5,1.3393 14.5,1.7533 C14.5,3.1043 13.679,4.2483 12.517,4.7623 C12.116,4.0793 11.497,3.5383 10.75,3.2493 L10.75,2.7493 C10.75,1.2313 9.519,-0.0007 8,-0.0007 C6.481,-0.0007 5.25,1.2313 5.25,2.7493 L5.25,3.2493 C4.499,3.5393 3.877,4.0853 3.477,4.7733 C2.315,4.2583 1.5,3.1033 1.5,1.7533 C1.5,1.3393 1.164,1.0033 0.75,1.0033 C0.336,1.0033 0,1.3393 0,1.7533 C0,3.7743 1.254,5.5033 3.023,6.2163 C3.015,6.3133 3,6.4083 3,6.5073 L3,7.2533 L0.75,7.2533 C0.337,7.2533 0,7.5903 0,8.0033 C0,8.4163 0.337,8.7533 0.75,8.7533 L3,8.7533 L3,9.8023 C1.244,10.5213 0,12.2413 0,14.2533 C0,14.6673 0.336,15.0033 0.75,15.0033 C1.164,15.0033 1.5,14.6673 1.5,14.2533 C1.5,13.0773 2.119,12.0503 3.046,11.4643 C3.283,13.9983 5.406,16.0073 8,16.0073 C10.589,16.0073 12.71,14.0053 12.952,11.4783 C13.877,12.0633 14.5,13.0793 14.5,14.2533 C14.5,14.6673 14.836,15.0033 15.25,15.0033 C15.664,15.0033 16,14.6673 16,14.2533 C16,12.2413 14.757,10.5213 13,9.8033 L13,8.7533 L15.25,8.7533 Z" id="path-1"></path>
    </defs>
    <g id="page-1" stroke="none" stroke-width="1" fill="none" fill-rule="evenodd">
        <g id="Support" transform="translate(-1055.000000, -189.000000)">
            <g id="btn-1" transform="translate(1035.000000, 170.000000)">
                <g id="icon/Add-" transform="translate(20.000000, 19.000000)">
                    <mask id="mask-2" fill="white">
                        <use xlink:href="#path-1"></use>
                    </mask>
                    <use id="mask" fill="#231916" xlink:href="#path-1"></use>
                    <g id="group" mask="url(#mask-2)">
                        <g transform="translate(0.000000, 0.000000)" id="Colors/Background">
                            <rect id="Color" fill="#617083" x="0" y="0" width="16" height="16"></rect>
                        </g>
                    </g>
                </g>
            </g>
        </g>
    </g>
</svg>