<?xml version="1.0" encoding="UTF-8"?>
<svg width="16px" height="16px" viewBox="0 0 16 16" version="1.1" xmlns="http://www.w3.org/2000/svg" xmlns:xlink="http://www.w3.org/1999/xlink">
    <title>icon/Add </title>
    <defs>
        <path d="M14.5,9.5 C14.5,9.857 14.291,10.164 14,10.342 L14,4.834 C14,3.459 12.875,2.334 11.5,2.334 L4.534,2.334 C4.619,1.871 5.016,1.5 5.5,1.5 L13.5,1.5 C14.042,1.5 14.5,1.958 14.5,2.5 L14.5,9.5 Z M12.5,11.834 C12.5,12.376 12.042,12.834 11.5,12.834 L8.666,12.834 L8.044,12.834 L7.605,13.273 L7,13.879 L6.395,13.273 L5.956,12.834 L5.334,12.834 L2.5,12.834 C1.958,12.834 1.5,12.376 1.5,11.834 L1.5,4.834 C1.5,4.292 1.958,3.834 2.5,3.834 L11.5,3.834 C12.042,3.834 12.5,4.292 12.5,4.834 L12.5,11.834 Z M13.5,0 L5.5,0 C4.182,0 3.104,1.037 3.017,2.334 L2.5,2.334 C1.125,2.334 0,3.459 0,4.834 L0,11.834 C0,13.209 1.125,14.334 2.5,14.334 L5.334,14.334 L7,16 L8.666,14.334 L11.5,14.334 C12.875,14.334 14,13.209 14,11.834 L14,11.949 C15.138,11.716 16,10.704 16,9.5 L16,2.5 C16,1.125 14.875,0 13.5,0 L13.5,0 Z M10.25,7.5347 L3.75,7.5347 C3.337,7.5347 3,7.1977 3,6.7847 L3,6.7847 C3,6.3717 3.337,6.0347 3.75,6.0347 L10.25,6.0347 C10.663,6.0347 11,6.3717 11,6.7847 L11,6.7847 C11,7.1977 10.663,7.5347 10.25,7.5347 M10.25,10.7852 L3.75,10.7852 C3.337,10.7852 3,10.4472 3,10.0352 L3,10.0342 C3,9.6222 3.337,9.2852 3.75,9.2852 L10.25,9.2852 C10.663,9.2852 11,9.6222 11,10.0342 L11,10.0352 C11,10.4472 10.663,10.7852 10.25,10.7852" id="path-1"></path>
    </defs>
    <g id="page-1" stroke="none" stroke-width="1" fill="none" fill-rule="evenodd">
        <g id="Support" transform="translate(-1055.000000, -137.000000)">
            <g id="btn-1" transform="translate(1035.000000, 118.000000)">
                <g id="icon/Add-" transform="translate(20.000000, 19.000000)">
                    <mask id="mask-2" fill="white">
                        <use xlink:href="#path-1"></use>
                    </mask>
                    <use id="mask" fill="#231916" xlink:href="#path-1"></use>
                    <g id="group" mask="url(#mask-2)" fill="#617083">
                        <g id="Colors/Background">
                            <rect id="Color" x="0" y="0" width="16" height="16"></rect>
                        </g>
                    </g>
                </g>
            </g>
        </g>
    </g>
</svg>