<?xml version="1.0" encoding="UTF-8"?>
<svg width="16px" height="16px" viewBox="0 0 16 16" version="1.1" xmlns="http://www.w3.org/2000/svg" xmlns:xlink="http://www.w3.org/1999/xlink">
    <title>icon/Add </title>
    <defs>
        <path d="M13.1532,14.076 C13.1072,14.317 12.8502,14.5 12.5562,14.5 L3.4442,14.5 C3.1492,14.5 2.8932,14.317 2.8462,14.076 L1.5072,7.076 C1.4832,6.948 1.5162,6.828 1.6062,6.72 C1.6602,6.654 1.8192,6.5 2.1042,6.5 L7.0382,6.5 L8.9472,6.5 L13.8952,6.5 C14.1802,6.5 14.3392,6.654 14.3932,6.72 C14.4832,6.828 14.5162,6.948 14.4922,7.076 L13.1532,14.076 Z M3.4932,2.002 C3.4932,1.73 3.7872,1.5 4.1352,1.5 L6.8052,1.5 C7.1532,1.5 7.4472,1.73 7.4472,2.002 C7.4472,3.102 8.3582,3.998 9.4782,3.998 L11.8552,3.998 C12.2012,3.998 12.4932,4.226 12.4932,4.495 L12.4932,5 L8.9472,5 L7.0382,5 L3.4932,5 L3.4932,2.002 Z M13.9932,5.011 L13.9932,4.495 C13.9932,3.392 13.0362,2.498 11.8552,2.498 L9.4782,2.498 C9.1852,2.498 8.9472,2.276 8.9472,2.002 C8.9472,0.896 7.9882,0 6.8052,0 L4.1352,0 C2.9522,0 1.9932,0.896 1.9932,2.002 L1.9932,5.012 C0.7372,5.076 -0.1938,6.166 0.0342,7.358 L1.3732,14.357 C1.5552,15.308 2.4262,16 3.4442,16 L12.5562,16 C13.5732,16 14.4442,15.308 14.6272,14.357 L15.9662,7.358 C16.1942,6.161 15.2562,5.066 13.9932,5.011 L13.9932,5.011 Z M10.7499,8.9998 L5.2499,8.9998 C4.8369,8.9998 4.4999,8.6628 4.4999,8.2498 C4.4999,7.8368 4.8369,7.4998 5.2499,7.4998 L10.7499,7.4998 C11.1619,7.4998 11.4999,7.8368 11.4999,8.2498 C11.4999,8.6628 11.1619,8.9998 10.7499,8.9998" id="path-1"></path>
    </defs>
    <g id="page-1" stroke="none" stroke-width="1" fill="none" fill-rule="evenodd">
        <g id="Account" transform="translate(-1248.000000, -131.000000)">
            <g id="btn-1" transform="translate(1228.000000, 112.000000)">
                <g id="icon/Add-" transform="translate(20.000000, 19.000000)">
                    <mask id="mask-2" fill="white">
                        <use xlink:href="#path-1"></use>
                    </mask>
                    <use id="mask" fill="#231916" xlink:href="#path-1"></use>
                    <g id="group" mask="url(#mask-2)">
                        <g transform="translate(0.000000, 0.000000)" id="Colors/Background">
                            <rect id="Color" fill="#617083" x="0" y="0" width="16" height="16"></rect>
                        </g>
                    </g>
                </g>
            </g>
        </g>
    </g>
</svg>