<?xml version="1.0" encoding="UTF-8"?>
<svg width="14px" height="16px" viewBox="0 0 14 16" version="1.1" xmlns="http://www.w3.org/2000/svg" xmlns:xlink="http://www.w3.org/1999/xlink">
    <title>icon/Add </title>
    <defs>
        <path d="M12.5,0 L3.5,0 C2.125,0 1,1.125 1,2.5 L1,13.5 C1,14.875 2.125,16 3.5,16 L12.5,16 C13.875,16 15,14.875 15,13.5 L15,2.5 C15,1.125 13.875,0 12.5,0 M12.5,1.5 C13.042,1.5 13.5,1.958 13.5,2.5 L13.5,13.5 C13.5,14.042 13.042,14.5 12.5,14.5 L3.5,14.5 C2.958,14.5 2.5,14.042 2.5,13.5 L2.5,2.5 C2.5,1.958 2.958,1.5 3.5,1.5 L12.5,1.5 M11.25,5.5 L4.75,5.5 C4.337,5.5 4,5.163 4,4.75 L4,4.75 C4,4.337 4.337,4 4.75,4 L11.25,4 C11.663,4 12,4.337 12,4.75 L12,4.75 C12,5.163 11.663,5.5 11.25,5.5 M11.25,8.75 L4.75,8.75 C4.337,8.75 4,8.413 4,8 L4,8 C4,7.587 4.337,7.25 4.75,7.25 L11.25,7.25 C11.663,7.25 12,7.587 12,8 L12,8 C12,8.413 11.663,8.75 11.25,8.75 M11.25,12 L4.75,12 C4.337,12 4,11.663 4,11.25 C4,10.837 4.337,10.5 4.75,10.5 L11.25,10.5 C11.663,10.5 12,10.837 12,11.25 C12,11.663 11.663,12 11.25,12" id="path-1"></path>
    </defs>
    <g id="page-1" stroke="none" stroke-width="1" fill="none" fill-rule="evenodd">
        <g id="Support" transform="translate(-1056.000000, -85.000000)">
            <g id="btn-1" transform="translate(1035.000000, 66.000000)">
                <g id="icon/Add-" transform="translate(20.000000, 19.000000)">
                    <mask id="mask-2" fill="white">
                        <use xlink:href="#path-1"></use>
                    </mask>
                    <use id="mask" fill="#231916" xlink:href="#path-1"></use>
                    <g id="group" mask="url(#mask-2)" fill="#617083">
                        <g id="Colors/Background">
                            <rect id="Color" x="0" y="0" width="16" height="16"></rect>
                        </g>
                    </g>
                </g>
            </g>
        </g>
    </g>
</svg>