<?xml version="1.0" encoding="UTF-8"?>
<svg width="16px" height="16px" viewBox="0 0 16 16" version="1.1" xmlns="http://www.w3.org/2000/svg" xmlns:xlink="http://www.w3.org/1999/xlink">
    <title>icon/Add </title>
    <defs>
        <path d="M4.03798792,7.2954 C4.30435156,7.56176364 4.32856644,7.9785405 4.11063255,8.27225199 L4.03798792,8.3564 L2.15098792,10.2444 C1.68198792,10.7114 1.42498792,11.3384 1.42498792,12.0084 C1.42498792,12.6784 1.68198792,13.3054 2.15098792,13.7734 C2.61898792,14.2424 3.24598792,14.5004 3.91598792,14.5004 C4.51898792,14.5004 5.08715792,14.29142 5.53593392,13.907723 L5.68098792,13.7734 L7.56798792,11.8864 C7.86098792,11.5934 8.33598792,11.5934 8.62898792,11.8864 C8.89535156,12.1527636 8.91956644,12.5695405 8.70163255,12.863252 L8.62898792,12.9474 L6.74198792,14.8344 C5.96498792,15.6114 4.93998792,16.0004 3.91598792,16.0004 C2.96198792,16.0004 2.00798792,15.6634 1.25398792,14.9894 C-0.422918325,13.4907437 -0.37021227,10.8124225 1.1275424,9.15366797 L1.27698792,8.9964 L2.97798792,7.2954 C3.26998792,7.0024 3.74498792,7.0024 4.03798792,7.2954 Z M11.3477879,13.1236 L11.8647879,15.0556 C11.9637879,15.4222667 11.7720518,15.7990167 11.4313064,15.9416793 L11.3347879,15.9746 C10.9347879,16.0806 10.5227879,15.8436 10.4157879,15.4446 L9.89778792,13.5126 C9.79178792,13.1126 10.0287879,12.7016 10.4297879,12.5936 C10.8287879,12.4876 11.2397879,12.7246 11.3477879,13.1236 Z M12.6346879,11.5738 L14.0476879,12.9868 C14.3140516,13.2531636 14.3382664,13.6707669 14.1203326,13.9638774 L14.0476879,14.0478 C13.7546879,14.3408 13.2796879,14.3408 12.9866879,14.0478 L11.5736879,12.6348 C11.2806879,12.3418 11.2806879,11.8658 11.5736879,11.5738 C11.8656879,11.2808 12.3416879,11.2808 12.6346879,11.5738 Z M13.5123879,9.8775 L15.4443879,10.3955 C15.8101379,10.4935833 16.0397629,10.8479514 15.9938468,11.2136632 L15.9743879,11.3135 C15.8673879,11.7135 15.4553879,11.9515 15.0553879,11.8445 L13.1233879,11.3275 C12.7243879,11.2195 12.4873879,10.8085 12.5933879,10.4085 C12.7013879,10.0075 13.1123879,9.7705 13.5123879,9.8775 Z M6.23498792,5.1742 L10.8249879,9.7642 C11.0913516,10.0305636 11.1155664,10.4481669 10.8976326,10.7412774 L10.8249879,10.8252 C10.5329879,11.1182 10.0569879,11.1182 9.76398792,10.8252 L5.17398792,6.2352 C4.88098792,5.9422 4.88098792,5.4672 5.17398792,5.1742 C5.46698792,4.8812 5.94198792,4.8812 6.23498792,5.1742 Z M12.0087879,-0.0005 C12.9540187,-0.0005 13.9001015,0.330955621 14.6504047,0.993080337 L14.8337879,1.1655 L14.9841046,1.32412341 C16.3386824,2.83400993 16.3386824,5.14799007 14.9841046,6.65787659 L14.8337879,6.8165 L12.9467879,8.7045 C12.6537879,8.9975 12.1797879,8.9975 11.8867879,8.7045 C11.6204243,8.43813636 11.5962094,8.0213595 11.8141433,7.72764801 L11.8867879,7.6435 L13.7727879,5.7565 C14.2417879,5.2885 14.4997879,4.6615 14.4997879,3.9915 C14.4997879,3.3215 14.2417879,2.6945 13.7727879,2.2265 C13.3057879,1.7575 12.6787879,1.4995 12.0087879,1.4995 C11.4057879,1.4995 10.8376179,1.70848 10.3888419,2.092177 L10.2437879,2.2265 L8.35578792,4.1135 C8.06278792,4.4065 7.58778792,4.4065 7.29478792,4.1135 C7.02933338,3.84713636 7.00520115,3.4303595 7.22239123,3.13739932 L7.29478792,3.0535 L9.18378792,1.1655 C9.95978792,0.3885 10.9837879,-0.0005 12.0087879,-0.0005 Z M0.943687925,4.156 L2.87568792,4.673 C3.27568792,4.78 3.51268792,5.192 3.40568792,5.592 C3.29868792,5.992 2.88768792,6.229 2.48668792,6.122 L0.555687925,5.604 C0.189021258,5.50683333 -0.0406801307,5.15254167 0.00599984612,4.78606597 L0.0256879248,4.686 C0.132687925,4.286 0.544687925,4.048 0.943687925,4.156 Z M3.02998792,1.9516 L4.44398792,3.3656 C4.73598792,3.6586 4.73598792,4.1336 4.44398792,4.4266 C4.15098792,4.7196 3.67598792,4.7196 3.38298792,4.4266 L1.96898792,3.0126 C1.70262429,2.74623636 1.67840941,2.3294595 1.8963433,2.03574801 L1.96898792,1.9516 C2.26198792,1.6586 2.73698792,1.6586 3.02998792,1.9516 Z M5.60038792,0.5559 L6.11838792,2.4869 C6.22538792,2.8879 5.98838792,3.2989 5.58838792,3.4059 C5.18738792,3.5129 4.77638792,3.2759 4.66938792,2.8759 L4.15238792,0.9439 C4.05338792,0.57815 4.24512404,0.201476389 4.58586941,0.0588201389 L4.68238792,0.0259 C5.08238792,-0.0811 5.49338792,0.1559 5.60038792,0.5559 Z" id="path-1"></path>
    </defs>
    <g id="page-1" stroke="none" stroke-width="1" fill="none" fill-rule="evenodd">
        <g id="Account" transform="translate(-1248.000000, -287.000000)">
            <g id="btn-1" transform="translate(1228.000000, 268.000000)">
                <g id="icon/Add-" transform="translate(20.000000, 19.000000)">
                    <mask id="mask-2" fill="white">
                        <use xlink:href="#path-1"></use>
                    </mask>
                    <use id="mask" fill="#231916" xlink:href="#path-1"></use>
                    <g id="group" mask="url(#mask-2)">
                        <g transform="translate(0.000000, 0.000000)" id="Colors/Background">
                            <rect id="Color" fill="#617083" x="0" y="0" width="16" height="16"></rect>
                        </g>
                    </g>
                </g>
            </g>
        </g>
    </g>
</svg>