<?xml version="1.0" encoding="UTF-8"?>
<svg width="16px" height="16px" viewBox="0 0 16 16" version="1.1" xmlns="http://www.w3.org/2000/svg" xmlns:xlink="http://www.w3.org/1999/xlink">
    <title>icon/Add </title>
    <defs>
        <path d="M6.375,16 L2.75,16 C1.233,16 -5.68434189e-14,14.767 -5.68434189e-14,13.25 L-5.68434189e-14,2.75 C-5.68434189e-14,1.233 1.233,0 2.75,0 L7.484,0 C8.219,0 8.909,0.286 9.429,0.806 L11.944,3.321 C12.464,3.841 12.75,4.531 12.75,5.266 L12.75,6 C12.75,6.414 12.414,6.75 12,6.75 C11.586,6.75 11.25,6.414 11.25,6 L11.25,5.266 C11.25,4.937 11.116,4.615 10.884,4.382 L8.368,1.866 C8.135,1.633 7.813,1.5 7.484,1.5 L2.75,1.5 C2.061,1.5 1.5,2.061 1.5,2.75 L1.5,13.25 C1.5,13.939 2.061,14.5 2.75,14.5 L6.375,14.5 C6.789,14.5 7.125,14.836 7.125,15.25 C7.125,15.664 6.789,16 6.375,16 M12.3535,8.5107 L12.3535,7.5457 L10.6815,9.2187 L12.3535,10.8917 L12.3535,10.0107 C13.5445,10.0667 14.4995,11.0447 14.4995,12.2497 C14.4995,13.4897 13.4905,14.4997 12.2495,14.4997 C11.0095,14.4997 9.9995,13.4897 9.9995,12.2497 C9.9995,11.8357 9.6645,11.4997 9.2495,11.4997 C8.8355,11.4997 8.4995,11.8357 8.4995,12.2497 C8.4995,14.3177 10.1825,15.9997 12.2495,15.9997 C14.3175,15.9997 15.9995,14.3177 15.9995,12.2497 C15.9995,10.2177 14.3725,8.5667 12.3535,8.5107 M9.125,6.3149 L3.625,6.3149 C3.212,6.3149 2.875,5.9779 2.875,5.5649 C2.875,5.1519 3.212,4.8149 3.625,4.8149 L9.125,4.8149 C9.537,4.8149 9.875,5.1519 9.875,5.5649 C9.875,5.9779 9.537,6.3149 9.125,6.3149 M6.125,12.3027 L3.625,12.3027 C3.212,12.3027 2.875,11.9657 2.875,11.5527 C2.875,11.1407 3.212,10.8027 3.625,10.8027 L6.125,10.8027 C6.538,10.8027 6.875,11.1407 6.875,11.5527 C6.875,11.9657 6.538,12.3027 6.125,12.3027 M6.1455,9.3086 L3.6045,9.3086 C3.2035,9.3086 2.8745,8.9806 2.8745,8.5796 L2.8745,8.5386 C2.8745,8.1376 3.2035,7.8086 3.6045,7.8086 L7.1455,7.8086 C7.5465,7.8086 7.8745,8.1376 7.8745,8.5386 L7.8745,8.5796 C7.8745,8.9806 7.5465,9.3086 7.1455,9.3086" id="path-1"></path>
    </defs>
    <g id="page-1" stroke="none" stroke-width="1" fill="none" fill-rule="evenodd">
        <g id="Support" transform="translate(-1055.000000, -241.000000)">
            <g id="btn-1" transform="translate(1035.000000, 222.000000)">
                <g id="icon/Add-" transform="translate(20.000000, 19.000000)">
                    <mask id="mask-2" fill="white">
                        <use xlink:href="#path-1"></use>
                    </mask>
                    <use id="mask" fill="#231916" xlink:href="#path-1"></use>
                    <g id="group" mask="url(#mask-2)">
                        <g transform="translate(-0.000000, 0.000000)" id="Colors/Background">
                            <rect id="Color" fill="#617083" x="0" y="0" width="16" height="16"></rect>
                        </g>
                    </g>
                </g>
            </g>
        </g>
    </g>
</svg>