<?xml version="1.0" encoding="UTF-8"?>
<svg width="16px" height="16px" viewBox="0 0 16 16" version="1.1" xmlns="http://www.w3.org/2000/svg" xmlns:xlink="http://www.w3.org/1999/xlink">
    <title>icon/Add </title>
    <defs>
        <path d="M14.5,11.5 C14.5,12.042 14.042,12.5 13.5,12.5 L10.414,12.5 L9.793,12.5 L9.354,12.939 L8,14.293 L6.646,12.939 L6.207,12.5 L5.586,12.5 L2.5,12.5 C1.958,12.5 1.5,12.042 1.5,11.5 L1.5,6.5 C1.5,5.958 1.958,5.5 2.5,5.5 L3,5.5 L3,8.505 C3,9.88 4.125,11.005 5.5,11.005 L10.5,11.005 C11.875,11.005 13,9.88 13,8.505 L13,5.5 L13.5,5.5 C14.042,5.5 14.5,5.958 14.5,6.5 L14.5,11.5 Z M4.5,2.5 C4.5,1.958 4.958,1.5 5.5,1.5 L10.5,1.5 C11.042,1.5 11.5,1.958 11.5,2.5 L11.5,8.505 C11.5,9.047 11.042,9.505 10.5,9.505 L5.5,9.505 C4.958,9.505 4.5,9.047 4.5,8.505 L4.5,2.5 Z M13.5,4 L13,4 L13,2.5 C13,1.125 11.875,0 10.5,0 L5.5,0 C4.125,0 3,1.125 3,2.5 L3,4 L2.5,4 C1.125,4 0,5.125 0,6.5 L0,11.5 C0,12.875 1.125,14 2.5,14 L5.586,14 L7.293,15.707 C7.488,15.902 7.744,16 8,16 C8.256,16 8.512,15.902 8.707,15.707 L10.414,14 L13.5,14 C14.875,14 16,12.875 16,11.5 L16,6.5 C16,5.125 14.875,4 13.5,4 L13.5,4 Z M6.4448,4.8696 L9.9448,4.8696 C10.3578,4.8696 10.6948,4.5326 10.6948,4.1196 C10.6948,3.7066 10.3578,3.3696 9.9448,3.3696 L6.4448,3.3696 C6.0328,3.3696 5.6948,3.7066 5.6948,4.1196 C5.6948,4.5326 6.0328,4.8696 6.4448,4.8696 M6.4448,7.6352 L7.9448,7.6352 C8.3578,7.6352 8.6948,7.2982 8.6948,6.8852 C8.6948,6.4722 8.3578,6.1352 7.9448,6.1352 L6.4448,6.1352 C6.0328,6.1352 5.6948,6.4722 5.6948,6.8852 C5.6948,7.2982 6.0328,7.6352 6.4448,7.6352" id="path-1"></path>
    </defs>
    <g id="page-1" stroke="none" stroke-width="1" fill="none" fill-rule="evenodd">
        <g id="Account" transform="translate(-1248.000000, -235.000000)">
            <g id="btn-1" transform="translate(1228.000000, 216.000000)">
                <g id="icon/Add-" transform="translate(20.000000, 19.000000)">
                    <mask id="mask-2" fill="white">
                        <use xlink:href="#path-1"></use>
                    </mask>
                    <use id="mask" fill="#231916" xlink:href="#path-1"></use>
                    <g id="group" mask="url(#mask-2)" fill="#617083">
                        <g id="Colors/Background">
                            <rect id="Color" x="0" y="0" width="16" height="16"></rect>
                        </g>
                    </g>
                </g>
            </g>
        </g>
    </g>
</svg>