<svg xmlns="http://www.w3.org/2000/svg" width="24" height="24" viewBox="0 0 24 24" fill="none">
  <path d="M6 20.087H8.61029C8.95063 20.087 9.28888 20.1275 9.61881 20.2085L12.3769 20.8788C12.9753 21.0246 13.5988 21.0387 14.2035 20.9213L17.253 20.328C18.0585 20.1711 18.7996 19.7853 19.3803 19.2204L21.5379 17.1216C22.154 16.5233 22.154 15.5523 21.5379 14.953C20.9832 14.4133 20.1047 14.3526 19.4771 14.8102L16.9626 16.6447C16.6025 16.908 16.1643 17.0497 15.7137 17.0497H13.2855L14.8311 17.0497C15.7022 17.0497 16.4079 16.3632 16.4079 15.5158V15.209C16.4079 14.5054 15.9156 13.8919 15.2141 13.7218L12.8286 13.1416C12.4404 13.0475 12.0428 12.9999 11.6431 12.9999C10.6783 12.9999 8.93189 13.7987 8.93189 13.7987L6 15.0248M2 14.5999L2 20.3999C2 20.9599 2 21.24 2.10899 21.4539C2.20487 21.642 2.35785 21.795 2.54601 21.8909C2.75992 21.9999 3.03995 21.9999 3.6 21.9999H4.4C4.96005 21.9999 5.24008 21.9999 5.45399 21.8909C5.64215 21.795 5.79513 21.642 5.89101 21.4539C6 21.24 6 20.9599 6 20.3999V14.5999C6 14.0398 6 13.7598 5.89101 13.5459C5.79513 13.3577 5.64215 13.2048 5.45399 13.1089C5.24008 12.9999 4.96005 12.9999 4.4 12.9999H3.6C3.03995 12.9999 2.75992 12.9999 2.54601 13.1089C2.35785 13.2048 2.20487 13.3577 2.10899 13.5459C2 13.7598 2 14.0398 2 14.5999ZM17.1914 3.59215C16.5946 2.34329 15.2186 1.68168 13.8804 2.32027C12.5423 2.95886 11.9722 4.47328 12.5325 5.80272C12.8787 6.62435 13.8707 8.2199 14.5781 9.31893C14.8394 9.725 14.9701 9.92804 15.161 10.0468C15.3247 10.1487 15.5297 10.2036 15.7224 10.1972C15.9471 10.1898 16.1618 10.0793 16.5911 9.85832C17.7532 9.26021 19.4101 8.37445 20.1208 7.83602C21.2707 6.96481 21.5556 5.36347 20.6947 4.14614C19.8337 2.9288 18.3327 2.80902 17.1914 3.59215Z" stroke="#667085" stroke-width="2" stroke-linecap="round" stroke-linejoin="round"/>
</svg>