<?xml version="1.0" encoding="UTF-8"?>
<svg width="16px" height="16px" viewBox="0 0 16 16" version="1.1" xmlns="http://www.w3.org/2000/svg" xmlns:xlink="http://www.w3.org/1999/xlink">
    <title>icon/Add </title>
    <defs>
        <path d="M5.5,0 C8.525,0 11,2.475 11,5.5 C11,7.10863158 10.2999446,8.56199446 9.1889255,9.57014667 L9,9.734 L9,16 L5.5,14 L2,16 L2,9.734 C0.78,8.723 0,7.198 0,5.5 C0,2.475 2.475,0 5.5,0 Z M15.25,12.5 C15.664,12.5 16,12.836 16,13.25 C16,13.664 15.664,14 15.25,14 L11.251,14 C10.837,14 10.501,13.664 10.501,13.25 C10.501,12.836 10.837,12.5 11.251,12.5 L15.25,12.5 Z M7.5,10.616 C6.879,10.86 6.206,11 5.5,11 C4.89485714,11 4.31395918,10.8971429 3.76927114,10.7140991 L3.5,10.616 L3.5,13.415 L4.756,12.697 L5.5,12.272 L6.244,12.697 L7.5,13.415 L7.5,10.616 Z M15.25,7.25 C15.664,7.25 16,7.586 16,8 C16,8.414 15.664,8.75 15.25,8.75 L12.75,8.75 C12.336,8.75 12,8.414 12,8 C12,7.586 12.336,7.25 12.75,7.25 L15.25,7.25 Z M15.25,2 C15.664,2 16,2.336 16,2.75 C16,3.164 15.664,3.5 15.25,3.5 L12.75,3.5 C12.336,3.5 12,3.164 12,2.75 C12,2.336 12.336,2 12.75,2 L15.25,2 Z" id="path-1"></path>
    </defs>
    <g id="page-1" stroke="none" stroke-width="1" fill="none" fill-rule="evenodd">
        <g id="Account" transform="translate(-1248.000000, -183.000000)">
            <g id="btn-1" transform="translate(1228.000000, 164.000000)">
                <g id="icon/Add-" transform="translate(20.000000, 19.000000)">
                    <mask id="mask-2" fill="white">
                        <use xlink:href="#path-1"></use>
                    </mask>
                    <use id="mask" fill="#231916" xlink:href="#path-1"></use>
                    <g id="group" mask="url(#mask-2)" fill="#617083">
                        <g id="Colors/Background">
                            <rect id="Color" x="0" y="0" width="16" height="16"></rect>
                        </g>
                    </g>
                </g>
            </g>
        </g>
    </g>
</svg>