<?xml version="1.0" standalone="no"?><!DOCTYPE svg PUBLIC "-//W3C//DTD SVG 1.1//EN" "http://www.w3.org/Graphics/SVG/1.1/DTD/svg11.dtd"><svg t="1665643464960" class="icon" viewBox="0 0 1024 1024" version="1.1" xmlns="http://www.w3.org/2000/svg" p-id="6604" xmlns:xlink="http://www.w3.org/1999/xlink" width="200" height="200"><path d="M122.88 286.72h788.48a81.92 81.92 0 0 1 81.92 81.92v112.64H40.96V368.64a81.92 81.92 0 0 1 81.92-81.92z" fill="#FF7A45" p-id="6605"></path><path d="M81.92 430.08h860.16v460.8a81.92 81.92 0 0 1-81.92 81.92H163.84a81.92 81.92 0 0 1-81.92-81.92V430.08z" fill="#FF7A45" p-id="6606"></path><path d="M81.92 481.28h860.16v81.92H81.92z" fill="#CF5A1A" p-id="6607"></path><path d="M789.51424 98.79552A125.8496 125.8496 0 0 1 808.96 166.00064C808.96 235.49952 752.61952 291.84 683.1104 291.84l-105.32864 0.01024A192.18432 192.18432 0 0 0 713.70752 348.16h3.10272a30.72 30.72 0 0 1 0 61.44h-3.10272a253.5936 253.5936 0 0 1-170.99776-66.304L542.72 972.8h-65.8944V347.27936A253.57312 253.57312 0 0 1 310.31296 409.6H307.2a30.72 30.72 0 0 1 0-61.44h3.10272c51.8656 0 100.48512-20.86912 135.936-56.32H336.42496c-69.49888 0-125.8496-56.34048-125.8496-125.8496 0-23.77728 6.7584-47.08352 19.456-67.19488 39.38304-62.37184 121.88672-80.9984 184.25856-41.60512a133.57056 133.57056 0 0 1 45.14816 47.54432l50.3296 89.66144 50.33984-89.66144a133.57056 133.57056 0 0 1 45.14816-47.54432c62.3616-39.39328 144.86528-20.76672 184.25856 41.60512z m-408.03328 10.3424a72.13056 72.13056 0 0 0-99.51232 22.46656 64.4096 64.4096 0 0 0 54.45632 98.79552h123.09504l-53.6576-95.5904a72.13056 72.13056 0 0 0-24.38144-25.67168z m256.58368 0a72.13056 72.13056 0 0 0-24.38144 25.67168L560.0256 230.4h123.0848a64.4096 64.4096 0 0 0 54.45632-98.79552 72.13056 72.13056 0 0 0-99.50208-22.46656z" fill="#FFBB96" p-id="6608"></path></svg>