<?xml version="1.0" encoding="UTF-8"?>
<svg width="16px" height="16px" viewBox="0 0 16 16" version="1.1" xmlns="http://www.w3.org/2000/svg" xmlns:xlink="http://www.w3.org/1999/xlink">
    <title>ic-wallet</title>
    <desc>Created with Sketch.</desc>
    <g id="page-1" stroke="none" stroke-width="1" fill="none" fill-rule="evenodd">
        <g id="billing" transform="translate(-1377.000000, -22.000000)" fill="#69B452">
            <path d="M1393,35.5989265 C1393,35.8184948 1392.96174,36.0229445 1392.88559,36.2133763 C1392.80932,36.4032689 1392.70059,36.5706072 1392.55967,36.7152338 C1392.41864,36.8595684 1392.2542,36.9721606 1392.06624,37.052359 C1391.87828,37.1328269 1391.67266,37.1733754 1391.44943,37.1736449 L1378.65649,37.1736449 C1378.43326,37.1736449 1378.22196,37.133366 1378.02223,37.052359 C1377.82267,36.9715541 1377.64646,36.8590517 1377.49334,36.7152338 C1377.34029,36.5711239 1377.21991,36.4037856 1377.13198,36.2133763 C1377.04396,36.0226749 1377,35.8179557 1377,35.5989265 L1377,26.9615854 C1377,26.5228307 1377.15559,26.1505711 1377.46675,25.8448513 C1377.7781,25.5390417 1378.1571,25.3862605 1378.60359,25.3862605 L1391.39644,25.3862605 C1391.84299,25.3862605 1392.22192,25.5390417 1392.53307,25.8448513 C1392.84443,26.1505711 1393,26.5228307 1393,26.9615854 L1393,29.3156208 L1389.0001,29.3156208 C1388.55344,29.3156208 1388.17444,29.4656838 1387.86326,29.7657874 C1387.55193,30.0659809 1387.39634,30.4354325 1387.39634,30.8737379 C1387.40802,31.1739538 1387.47269,31.4394845 1387.59036,31.6702626 C1387.68433,31.8664004 1387.83992,32.0451507 1388.05729,32.2069626 C1388.27438,32.3686848 1388.5888,32.4495121 1389.0001,32.4495121 L1393,32.4495121 L1393,35.5999824 L1393,35.5989265 Z M1390.60366,24.5902524 L1382.60366,24.5902524 C1383.2382,24.2671451 1383.83737,23.9554498 1384.40119,23.6552563 C1384.89471,23.4012948 1385.38235,23.1473558 1385.86392,22.8937538 C1386.34533,22.6400619 1386.72116,22.4437444 1386.99155,22.3048462 C1387.40283,22.0854576 1387.7699,21.984547 1388.09274,22.0019121 C1388.41575,22.0192097 1388.68874,22.0740457 1388.91209,22.1663749 C1389.17067,22.2935241 1389.39393,22.4606826 1389.58189,22.6683223 L1390.60366,24.5902524 Z M1388.20717,30.8737379 C1388.20717,30.6543718 1388.28359,30.469646 1388.43611,30.3198525 C1388.5888,30.1699692 1388.77667,30.0948478 1389.0001,30.0948478 C1389.22333,30.0948478 1389.4112,30.1699692 1389.56374,30.3198525 C1389.71641,30.469646 1389.79276,30.6543718 1389.79276,30.8737379 C1389.79276,31.0930366 1389.71641,31.2806603 1389.56374,31.4364069 C1389.4112,31.5922658 1389.22333,31.6702626 1389.0001,31.6702626 C1388.77667,31.6702626 1388.5888,31.5922658 1388.43611,31.4364069 C1388.28359,31.2806603 1388.20717,31.0930366 1388.20717,30.8737379 Z" id="iconfontqianbao"></path>
        </g>
    </g>
</svg>