<svg xmlns="http://www.w3.org/2000/svg" width="24" height="24" viewBox="0 0 24 24" fill="none">
  <path d="M18.4615 10H11.5385C10.6888 10 10 10.6888 10 11.5385V18.4615C10 19.3112 10.6888 20 11.5385 20H18.4615C19.3112 20 20 19.3112 20 18.4615V11.5385C20 10.6888 19.3112 10 18.4615 10Z" stroke="white" stroke-linecap="round" stroke-linejoin="round"/>
  <path d="M6.30769 14H5.53846C5.13044 14 4.73912 13.8379 4.4506 13.5494C4.16209 13.2609 4 12.8696 4 12.4615V5.53846C4 5.13044 4.16209 4.73912 4.4506 4.4506C4.73912 4.16209 5.13044 4 5.53846 4H12.4615C12.8696 4 13.2609 4.16209 13.5494 4.4506C13.8379 4.73912 14 5.13044 14 5.53846V6.30769" stroke="white" stroke-linecap="square" stroke-linejoin="round"/>
</svg>