<svg xmlns="http://www.w3.org/2000/svg" width="206" height="165" viewBox="0 0 206 165" fill="none">
  <path fill-rule="evenodd" clip-rule="evenodd" d="M51.9128 110.067H126.897C127.321 110.067 127.735 110.021 128.133 109.934C128.531 110.021 128.945 110.067 129.369 110.067H172.217C175.402 110.067 177.985 107.492 177.985 104.317C177.985 101.141 175.402 98.5671 172.217 98.5671H167.273C164.087 98.5671 161.505 95.9928 161.505 92.8173C161.505 89.6418 164.087 87.0676 167.273 87.0676H182.929C186.114 87.0676 188.697 84.4933 188.697 81.3178C188.697 78.1423 186.114 75.5681 182.929 75.5681H164.801C167.986 75.5681 170.569 72.9938 170.569 69.8183C170.569 66.6428 167.986 64.0686 164.801 64.0686H112.065C115.25 64.0686 117.833 61.4943 117.833 58.3188C117.833 55.1433 115.25 52.5691 112.065 52.5691H65.0968C61.9112 52.5691 59.3288 55.1433 59.3288 58.3188C59.3288 61.4943 61.9112 64.0686 65.0968 64.0686H32.1368C28.9512 64.0686 26.3688 66.6428 26.3688 69.8183C26.3688 72.9938 28.9512 75.5681 32.1368 75.5681H52.7368C55.9224 75.5681 58.5048 78.1423 58.5048 81.3178C58.5048 84.4933 55.9224 87.0676 52.7368 87.0676H19.7768C16.5912 87.0676 14.0088 89.6418 14.0088 92.8173C14.0088 95.9928 16.5912 98.5671 19.7768 98.5671H51.9128C48.7272 98.5671 46.1448 101.141 46.1448 104.317C46.1448 107.492 48.7272 110.067 51.9128 110.067ZM186.225 110.067C189.41 110.067 191.993 107.492 191.993 104.317C191.993 101.141 189.41 98.567 186.225 98.567C183.039 98.567 180.457 101.141 180.457 104.317C180.457 107.492 183.039 110.067 186.225 110.067Z" fill="#17191D"/>
  <path fill-rule="evenodd" clip-rule="evenodd" d="M51.9128 110.067H126.897C127.321 110.067 127.735 110.021 128.133 109.934C128.531 110.021 128.945 110.067 129.369 110.067H172.217C175.402 110.067 177.985 107.492 177.985 104.317C177.985 101.141 175.402 98.5671 172.217 98.5671H167.273C164.087 98.5671 161.505 95.9928 161.505 92.8173C161.505 89.6418 164.087 87.0676 167.273 87.0676H182.929C186.114 87.0676 188.697 84.4933 188.697 81.3178C188.697 78.1423 186.114 75.5681 182.929 75.5681H164.801C167.986 75.5681 170.569 72.9938 170.569 69.8183C170.569 66.6428 167.986 64.0686 164.801 64.0686H112.065C115.25 64.0686 117.833 61.4943 117.833 58.3188C117.833 55.1433 115.25 52.5691 112.065 52.5691H65.0968C61.9112 52.5691 59.3288 55.1433 59.3288 58.3188C59.3288 61.4943 61.9112 64.0686 65.0968 64.0686H32.1368C28.9512 64.0686 26.3688 66.6428 26.3688 69.8183C26.3688 72.9938 28.9512 75.5681 32.1368 75.5681H52.7368C55.9224 75.5681 58.5048 78.1423 58.5048 81.3178C58.5048 84.4933 55.9224 87.0676 52.7368 87.0676H19.7768C16.5912 87.0676 14.0088 89.6418 14.0088 92.8173C14.0088 95.9928 16.5912 98.5671 19.7768 98.5671H51.9128C48.7272 98.5671 46.1448 101.141 46.1448 104.317C46.1448 107.492 48.7272 110.067 51.9128 110.067ZM186.225 110.067C189.41 110.067 191.993 107.492 191.993 104.317C191.993 101.141 189.41 98.567 186.225 98.567C183.039 98.567 180.457 101.141 180.457 104.317C180.457 107.492 183.039 110.067 186.225 110.067Z" fill="white" fill-opacity="0.2"/>
  <path fill-rule="evenodd" clip-rule="evenodd" d="M93.2095 92.2478C93.1451 92.7022 93.1118 93.1666 93.1118 93.6387C93.1118 99.0824 97.5388 103.495 103 103.495C108.461 103.495 112.888 99.0824 112.888 93.6387C112.888 93.1666 112.855 92.7022 112.79 92.2478H136.784V114.174C136.784 115.534 135.677 116.638 134.312 116.638H71.6878C70.3226 116.638 69.2158 115.534 69.2158 114.174V92.2478H93.2095Z" fill="#434343"/>
  <path fill-rule="evenodd" clip-rule="evenodd" d="M113.712 91.996C113.712 97.8934 108.916 102.674 103 102.674C97.0837 102.674 92.2878 97.8934 92.2878 91.996C92.2878 91.8049 92.2929 91.6151 92.3028 91.4265H69.2158L77.0936 68.2075C77.4332 67.2066 78.3753 66.5328 79.4353 66.5328H126.564C127.624 66.5328 128.566 67.2066 128.906 68.2075L136.784 91.4265H113.697C113.707 91.6151 113.712 91.8049 113.712 91.996Z" fill="#434343"/>
  <path fill-rule="evenodd" clip-rule="evenodd" d="M112.144 92.7801C112.144 97.3372 108.05 101.853 103 101.853C97.9495 101.853 93.8554 97.3372 93.8554 92.7801C93.8554 92.6325 93.8597 91.6643 93.8682 91.5186H76.6318L83.3568 75.2195C83.6467 74.446 84.4509 73.9254 85.3558 73.9254H120.644C121.549 73.9254 122.353 74.446 122.643 75.2195L129.368 91.5186H112.131C112.14 91.6643 112.144 92.6325 112.144 92.7801Z" fill="#7F7F7F"/>
  <path fill-rule="evenodd" clip-rule="evenodd" d="M70.2461 91.5954V113.352C70.2461 114.146 70.8917 114.79 71.6881 114.79H134.312C135.108 114.79 135.754 114.146 135.754 113.352V91.5954L127.931 68.5365C127.732 67.9526 127.183 67.5596 126.565 67.5596H79.4356C78.8172 67.5596 78.2677 67.9526 78.0696 68.5365L70.2461 91.5954Z" stroke="#808080" stroke-width="1.62975"/>
  <path d="M80.7521 91.1746C83.9958 91.1746 87.4964 91.1746 91.2539 91.1746C92.7999 91.1746 92.7999 92.2576 92.7999 92.8173C92.7999 98.2611 97.3288 102.674 102.915 102.674C108.502 102.674 113.031 98.2611 113.031 92.8173C113.031 92.2576 113.031 91.1746 114.577 91.1746H135.136M74.6328 91.1746H76.6321H74.6328Z" stroke="#959595" stroke-width="1.62975" stroke-linecap="round" stroke-linejoin="round"/>
  <path d="M123.682 47.8895L114.536 58.1184M102.258 44.3552V58.1184V44.3552ZM80.752 47.8895L89.898 58.1184L80.752 47.8895Z" stroke="#C0C0C0" stroke-width="1.62975" stroke-linecap="round" stroke-linejoin="round"/>
</svg>