<svg xmlns="http://www.w3.org/2000/svg" width="16" height="13" viewBox="0 0 16 13" fill="none">
  <path d="M8.85923 11.6606C6.81256 11.7724 3.8581 10.2915 2.16362 9.33916C0.469134 8.38682 1.52321 5.98705 3.19976 6.44598C4.87632 6.90491 5.0185 6.94375 5.0185 6.94375L2.45913 2.45554C2.13995 1.89581 2.33495 1.18332 2.89468 0.864143C3.4544 0.544965 4.16689 0.739969 4.48607 1.29969L5.88959 3.76097C5.57041 3.20125 5.76541 2.48876 6.32514 2.16958C6.88486 1.8504 7.59735 2.0454 7.91653 2.60513L8.16421 3.03947C7.84503 2.47975 8.04003 1.76726 8.59975 1.44808C9.15948 1.1289 9.87172 1.32347 10.1909 1.88319L11.0168 3.3315C10.6976 2.77177 10.8926 2.05923 11.4523 1.74005C12.012 1.42087 12.7245 1.61587 13.0437 2.1756L14.4875 4.7075C14.6782 5.04192 14.7912 5.41695 14.7603 5.80066C14.7048 6.49 14.5004 7.68975 13.7818 8.85353C12.6845 10.6304 10.9059 11.5487 8.85923 11.6606Z" fill="white" fill-opacity="0.5" stroke="white" stroke-width="1.33333" stroke-linecap="round" stroke-linejoin="round"/>
</svg>