<svg xmlns="http://www.w3.org/2000/svg" width="21" height="20" viewBox="0 0 21 20" fill="none">
  <path d="M14.865 3.40399C15.0306 3.03264 14.8032 2.60452 14.4027 2.53391L8.28055 1.4544C8.00045 1.40502 7.72233 1.55097 7.60384 1.80953L3.19065 11.4395C3.02016 11.8115 3.24728 12.2443 3.6503 12.3154L6.01572 12.7325C6.41263 12.8024 6.64051 13.2243 6.48148 13.5946L4.27939 18.7224C4.02625 19.3119 4.71933 19.8546 5.23087 19.4674L17.438 10.2282C17.8731 9.8988 17.7068 9.20906 17.1693 9.1143L13.4603 8.46029C13.0599 8.38969 12.8324 7.96156 12.998 7.59022L14.865 3.40399Z" fill="white"/>
</svg>