<svg width="157" height="22" viewBox="0 0 157 22" fill="none" xmlns="http://www.w3.org/2000/svg">
<path d="M23.3883 15.0374H23.329C10.6827 15.0374 0 13.1839 0 10.9976C0 8.81142 10.6565 6.95789 23.2696 6.95789H23.329C35.9705 6.95789 46.6532 8.81142 46.6532 10.9976C46.6532 13.1839 35.9872 15.0374 23.3883 15.0374ZM23.2696 7.31196C17.2219 7.31196 11.4354 7.73494 6.96901 8.50012C2.09427 9.34134 0.358541 10.3346 0.358541 10.9858C0.358541 11.6369 2.09901 12.6349 6.99038 13.4785C11.4662 14.2508 17.2694 14.6667 23.329 14.6667H23.3883C29.4313 14.6667 35.2202 14.2437 39.6842 13.4785C44.5589 12.6373 46.297 11.644 46.297 10.9929C46.297 10.3418 44.5542 9.34371 39.6652 8.50012C35.187 7.72781 29.3862 7.31196 23.329 7.31196H23.2696Z" fill="url(#paint0_linear_69_217)"/>
<path d="M23.3597 15.7336H23.317C11.3403 15.7336 1.23462 13.5616 1.23462 10.981C1.23462 8.40027 11.3308 6.24969 23.2838 6.24969H23.3289C35.3032 6.24969 45.4113 8.42165 45.4113 11.0023C45.4113 13.583 35.3104 15.7336 23.3597 15.7336ZM23.2719 6.61565C17.5233 6.61565 12.0431 7.10993 7.83796 8.0058C3.91537 8.84227 1.57417 9.95676 1.57417 10.9905C1.57417 12.0242 3.92012 13.1458 7.85221 13.9846C12.0621 14.8829 17.5518 15.3772 23.3123 15.3772H23.355C29.1012 15.3772 34.5814 14.8829 38.7889 13.987C42.7115 13.1505 45.0527 12.036 45.0527 11.0023C45.0527 9.96864 42.7068 8.84702 38.7747 8.00818C34.5648 7.11231 29.075 6.61565 23.3194 6.61565H23.2719Z" fill="url(#paint1_linear_69_217)"/>
<path d="M23.3479 16.4299H23.3146C17.8368 16.4299 12.6296 15.8619 8.64764 14.8306C4.66569 13.7993 2.45508 12.4329 2.45508 10.9928C2.45508 9.55279 4.65144 8.19115 8.62865 7.15983C12.6059 6.1285 17.813 5.57007 23.2838 5.57007H23.3146C28.7925 5.57007 33.9996 6.13801 37.984 7.16934C41.9683 8.20066 44.1742 9.56705 44.1742 11.0095C44.1742 12.4519 41.9802 13.8088 38.0006 14.8401C34.021 15.8714 28.8186 16.4299 23.3479 16.4299ZM23.2838 5.92177C11.2192 5.92177 2.81125 8.59275 2.81125 10.9928C2.81125 13.3929 11.2334 16.0734 23.3146 16.0734H23.3479C35.4101 16.0734 43.818 13.4 43.818 11.0023C43.818 8.60463 35.3982 5.92177 23.3146 5.92177H23.2838Z" fill="url(#paint2_linear_69_217)"/>
<path d="M23.3385 17.1262H23.3147C18.1479 17.1262 13.2447 16.4869 9.5097 15.3273C5.77469 14.1676 3.68042 12.623 3.68042 10.9929C3.68042 9.36271 5.74382 7.82761 9.49307 6.66321C13.2423 5.49881 18.1194 4.86908 23.2815 4.86908H23.3052C28.4744 4.86908 33.3753 5.50594 37.1103 6.66796C40.8453 7.82998 42.9301 9.37221 42.9301 11.0024C42.9301 12.6325 40.8667 14.1653 37.1174 15.3297C33.3682 16.4941 28.5005 17.1262 23.3385 17.1262ZM23.291 5.22553C13.0381 5.22553 4.05796 7.92028 4.05796 10.9929C4.05796 14.0655 13.0619 16.7697 23.3266 16.7697H23.3504C33.6032 16.7697 42.5834 14.0726 42.5834 11.0024C42.5834 7.93216 33.5795 5.22553 23.3147 5.22553H23.291Z" fill="url(#paint3_linear_69_217)"/>
<path d="M23.3336 17.8224H23.3146C13.1733 17.8224 4.92212 14.7593 4.92212 10.9928C4.92212 7.22637 13.1662 4.17279 23.298 4.17279C33.4298 4.17279 41.7071 7.23587 41.7071 11C41.7071 14.7641 33.4654 17.8224 23.3336 17.8224ZM23.3146 4.52924C13.5319 4.52924 5.26879 7.49014 5.26879 10.9928C5.26879 14.4955 13.5295 17.4659 23.3146 17.4659H23.3336C33.0997 17.4659 41.3509 14.505 41.3509 11C41.3509 7.49489 33.0902 4.52924 23.3146 4.52924Z" fill="url(#paint4_linear_69_217)"/>
<path d="M23.3266 18.5187H23.3148C13.8526 18.5187 6.15698 15.1443 6.15698 10.9952C6.15698 6.84618 13.8478 3.47656 23.3029 3.47656C32.758 3.47656 40.4844 6.85332 40.4844 11C40.4844 15.1467 32.7817 18.5187 23.3266 18.5187ZM23.3148 3.83301C14.2016 3.83301 6.51315 7.11233 6.51315 10.9952C6.51315 14.8782 14.2064 18.1646 23.3148 18.1646L23.3266 18.3428V18.1646C32.4279 18.1646 40.1164 14.8853 40.1164 11.0024C40.1164 7.11946 32.4232 3.83301 23.3148 3.83301Z" fill="url(#paint5_linear_69_217)"/>
<path d="M23.3241 19.2149C14.5387 19.2149 7.39868 15.5269 7.39868 10.9952C7.39868 6.46357 14.5387 2.78027 23.3075 2.78027C32.0763 2.78027 39.2401 6.46832 39.2401 11C39.2401 15.5316 32.1001 19.2149 23.3241 19.2149ZM23.3241 3.13909C19.1546 3.13909 15.232 3.97556 12.2687 5.49879C9.3576 6.99349 7.75722 8.94682 7.75722 10.9952C7.75722 13.0436 9.36235 14.9993 12.2687 16.4964C15.2344 18.0196 19.1546 18.8585 23.3217 18.8585C27.4818 18.8585 31.3949 18.0196 34.3677 16.4964C37.2788 15.0017 38.8791 13.0507 38.8791 11C38.8791 8.9492 37.274 6.99586 34.3677 5.50116C31.402 3.97794 27.477 3.13909 23.3146 3.13909H23.3241Z" fill="url(#paint6_linear_69_217)"/>
<path d="M23.3196 19.9112C15.2179 19.9112 8.62646 15.9119 8.62646 10.9976C8.62646 6.0834 15.2156 2.08643 23.3148 2.08643C31.4141 2.08643 38.0103 6.08578 38.0103 11C38.0103 15.9142 31.4188 19.9112 23.3196 19.9112ZM23.3196 2.44287C15.4126 2.44287 8.98501 6.28063 8.98501 10.9976C8.98501 15.7146 15.415 19.5524 23.3196 19.5524C31.2217 19.5524 37.6494 15.7146 37.6494 10.9976C37.6494 6.28063 31.2241 2.44287 23.3148 2.44287H23.3196Z" fill="url(#paint7_linear_69_217)"/>
<path d="M23.317 20.6075C15.8969 20.6075 9.85864 16.2968 9.85864 10.9976C9.85864 5.69841 15.8945 1.39014 23.3147 1.39014C30.7348 1.39014 36.7754 5.70079 36.7754 11C36.7754 16.2992 30.7491 20.6075 23.317 20.6075ZM23.317 1.74659C16.0916 1.74659 10.2148 5.89802 10.2148 10.9976C10.2148 16.0972 16.094 20.2486 23.317 20.2486C30.5401 20.2486 36.4169 16.0996 36.4169 11C36.4169 5.9004 30.5377 1.74659 23.3147 1.74659H23.317Z" fill="url(#paint8_linear_69_217)"/>
<path d="M23.317 21.3038V20.9449C29.8587 20.9449 35.1893 16.4846 35.1893 11C35.1893 5.51548 29.8587 1.05512 23.3147 1.05512C16.7707 1.05512 11.4424 5.51548 11.4424 11C11.4424 16.4846 16.7659 20.9473 23.3147 20.9473V21.3061C16.5736 21.3061 11.0886 16.6818 11.0886 11C11.0886 5.31824 16.5736 0.696289 23.3123 0.696289C30.051 0.696289 35.5407 5.32061 35.5407 11.0024C35.5407 16.6842 30.0557 21.3038 23.317 21.3038Z" fill="url(#paint9_linear_69_217)"/>
<path d="M23.3147 22C21.141 21.9991 19.0164 21.3531 17.2095 20.1438C15.4027 18.9346 13.9946 17.2163 13.1634 15.2062C12.3323 13.1961 12.1153 10.9846 12.5399 8.85109C12.9645 6.71762 14.0117 4.75805 15.5491 3.22015C17.0864 1.68225 19.0449 0.635072 21.1769 0.211019C23.3089 -0.213033 25.5186 0.0050813 27.5268 0.837785C29.5349 1.67049 31.2512 3.08039 32.4587 4.88922C33.6663 6.69806 34.3108 8.82461 34.3108 11C34.3076 13.9172 33.148 16.714 31.0864 18.7764C29.0247 20.8387 26.2297 21.9981 23.3147 22ZM23.3147 0.35645C21.2113 0.35645 19.1551 0.980687 17.4061 2.15022C15.6572 3.31974 14.2941 4.98203 13.4891 6.92689C12.6842 8.87174 12.4735 11.0118 12.8839 13.0765C13.2943 15.1411 14.3072 17.0376 15.7945 18.5261C17.2819 20.0147 19.1769 21.0283 21.2399 21.439C23.3029 21.8497 25.4413 21.6389 27.3846 20.8334C29.3279 20.0278 30.9889 18.6636 32.1575 16.9132C33.3261 15.1629 33.9499 13.1051 33.9499 11C33.9467 8.17812 32.8252 5.47272 30.8314 3.47735C28.8376 1.48197 26.1344 0.359595 23.3147 0.35645Z" fill="url(#paint10_linear_69_217)"/>
<path d="M61.5987 14.4421V11.5009H53.7806C53.5176 11.5009 53.2654 11.3963 53.0795 11.2102C52.8935 11.0241 52.7891 10.7717 52.7891 10.5085V7.75098H53.5971V10.6922H61.5987V7.75098H62.4043V14.4421H61.5987Z" fill="white"/>
<path d="M67.337 14.4302C66.452 14.4302 65.6032 14.0783 64.9774 13.452C64.3516 12.8257 64 11.9763 64 11.0906C64 10.2049 64.3516 9.35543 64.9774 8.72913C65.6032 8.10283 66.452 7.75098 67.337 7.75098L73.5986 7.77961V8.58827L67.3394 8.55964C66.668 8.55964 66.0242 8.82655 65.5494 9.30164C65.0747 9.77673 64.808 10.4211 64.808 11.093C64.808 11.7649 65.0747 12.4092 65.5494 12.8843C66.0242 13.3594 66.668 13.6263 67.3394 13.6263L73.601 13.6525V14.4612L67.337 14.4302ZM67.8137 11.5247V10.7161L73.5986 10.7423V11.5486L67.8137 11.5247Z" fill="white"/>
<path d="M80.5574 14.2555C80.4239 14.2557 80.2919 14.2289 80.169 14.1769C80.0462 14.1248 79.9351 14.0485 79.8423 13.9526L79.8137 13.9216L76 7.93415L76.6817 7.5L80.5574 13.5852L84.4354 7.5L85.1171 7.93654L81.3034 13.9216L81.2772 13.9526C81.1835 14.0487 81.0716 14.125 80.9479 14.177C80.8243 14.2291 80.6915 14.2558 80.5574 14.2555Z" fill="white"/>
<path d="M90.337 14.4302C89.452 14.4302 88.6032 14.0783 87.9774 13.452C87.3516 12.8257 87 11.9763 87 11.0906C87 10.2049 87.3516 9.35542 87.9774 8.72912C88.6032 8.10282 89.452 7.75098 90.337 7.75098L96.601 7.77721V8.58588L90.3417 8.55963C90.0029 8.54923 89.6655 8.60702 89.3495 8.72959C89.0334 8.85216 88.7452 9.03701 88.5018 9.27317C88.2585 9.50933 88.065 9.79199 87.9329 10.1044C87.8008 10.4168 87.7327 10.7526 87.7327 11.0918C87.7327 11.431 87.8008 11.7668 87.9329 12.0792C88.065 12.3916 88.2585 12.6742 88.5018 12.9104C88.7452 13.1465 89.0334 13.3314 89.3495 13.454C89.6655 13.5765 90.0029 13.6343 90.3417 13.6239L96.6057 13.6525V14.4588L90.337 14.4302ZM90.8137 11.5247V10.7161L96.5986 10.7423V11.551L90.8137 11.5247Z" fill="white"/>
<path d="M103.512 14.4684C103.25 14.4677 102.998 14.3629 102.812 14.1769C102.627 13.9908 102.523 13.7388 102.523 13.476V11.7013C102.523 11.4387 102.627 11.1869 102.813 11.0013C102.998 10.8156 103.25 10.7113 103.512 10.7113H106.727C106.87 10.7107 107.01 10.682 107.141 10.627C107.272 10.572 107.391 10.4917 107.491 10.3907C107.591 10.2897 107.67 10.17 107.724 10.0384C107.778 9.90672 107.805 9.76576 107.805 9.62354V9.58776C107.805 9.31319 107.696 9.04986 107.502 8.85571C107.308 8.66156 107.045 8.55249 106.77 8.55249H99.808V14.4684H99V8.74332C99.0006 8.48033 99.1053 8.22828 99.2911 8.04232C99.4769 7.85636 99.7288 7.75161 99.9916 7.75098H106.77C107.259 7.75098 107.728 7.94525 108.073 8.29105C108.419 8.63686 108.613 9.10588 108.613 9.59492V9.6307C108.614 10.1322 108.415 10.6135 108.062 10.969C107.708 11.3245 107.229 11.5252 106.727 11.5271H103.331V13.674H108.336V14.4684H103.512Z" fill="white"/>
<path d="M111.992 14.4373C111.729 14.4373 111.476 14.3328 111.29 14.1467C111.104 13.9606 111 13.7082 111 13.445V7.75098H111.808V13.6287H120.575V14.4373H111.992Z" fill="white"/>
<path d="M131.8 14.4373V11.8301H125.929V11.0214H131.8V8.55725H123.808V14.4373H123V8.74093C123.001 8.47816 123.105 8.22637 123.291 8.04078C123.477 7.8552 123.729 7.75098 123.992 7.75098H131.619C131.882 7.75098 132.133 7.8552 132.319 8.04078C132.505 8.22637 132.61 8.47816 132.61 8.74093V14.4373H131.8Z" fill="white"/>
<path d="M143.619 14.5C143.46 14.4997 143.303 14.4613 143.161 14.3879L143.123 14.3688L135.806 8.36706V14.469H135V8.74397C134.999 8.57316 135.042 8.40503 135.126 8.256C135.209 8.10697 135.33 7.98213 135.476 7.89368C135.622 7.80524 135.788 7.7562 135.959 7.75137C136.129 7.74654 136.298 7.78609 136.449 7.86613L136.485 7.88521L143.805 13.887V7.77787H144.613V13.5029C144.614 13.6733 144.57 13.841 144.486 13.9894C144.403 14.1379 144.282 14.2621 144.136 14.3497C143.981 14.4464 143.802 14.4984 143.619 14.5Z" fill="white"/>
<path d="M147 14.4326V10.9809H147.808V13.6263H153.29C153.962 13.6263 154.605 13.3594 155.08 12.8843C155.555 12.4092 155.822 11.7649 155.822 11.093C155.822 10.4211 155.555 9.77672 155.08 9.30163C154.605 8.82654 153.962 8.55964 153.29 8.55964H147V7.75098H153.288C154.173 7.75098 155.022 8.10283 155.647 8.72913C156.273 9.35543 156.625 10.2049 156.625 11.0906C156.625 11.9763 156.273 12.8257 155.647 13.452C155.022 14.0783 154.173 14.4302 153.288 14.4302L147 14.4326Z" fill="white"/>
<defs>
<linearGradient id="paint0_linear_69_217" x1="-0.0118723" y1="10.9953" x2="46.6413" y2="10.9953" gradientUnits="userSpaceOnUse">
<stop stop-color="#FDA9FF"/>
<stop offset="1" stop-color="#039CFF"/>
</linearGradient>
<linearGradient id="paint1_linear_69_217" x1="1.22275" y1="10.9976" x2="45.4065" y2="10.9976" gradientUnits="userSpaceOnUse">
<stop stop-color="#FDA9FF"/>
<stop offset="1" stop-color="#039CFF"/>
</linearGradient>
<linearGradient id="paint2_linear_69_217" x1="2.45508" y1="10.9976" x2="44.1742" y2="10.9976" gradientUnits="userSpaceOnUse">
<stop stop-color="#FDA9FF"/>
<stop offset="1" stop-color="#039CFF"/>
</linearGradient>
<linearGradient id="paint3_linear_69_217" x1="3.68992" y1="10.9976" x2="42.9396" y2="10.9976" gradientUnits="userSpaceOnUse">
<stop stop-color="#FDA9FF"/>
<stop offset="1" stop-color="#039CFF"/>
</linearGradient>
<linearGradient id="paint4_linear_69_217" x1="4.92212" y1="10.9976" x2="41.7071" y2="10.9976" gradientUnits="userSpaceOnUse">
<stop stop-color="#FDA9FF"/>
<stop offset="1" stop-color="#039CFF"/>
</linearGradient>
<linearGradient id="paint5_linear_69_217" x1="6.15698" y1="10.9976" x2="40.4749" y2="10.9976" gradientUnits="userSpaceOnUse">
<stop stop-color="#FDA9FF"/>
<stop offset="1" stop-color="#039CFF"/>
</linearGradient>
<linearGradient id="paint6_linear_69_217" x1="7.38918" y1="10.9976" x2="39.2401" y2="10.9976" gradientUnits="userSpaceOnUse">
<stop stop-color="#FDA9FF"/>
<stop offset="1" stop-color="#039CFF"/>
</linearGradient>
<linearGradient id="paint7_linear_69_217" x1="8.62172" y1="10.9976" x2="38.0055" y2="10.9976" gradientUnits="userSpaceOnUse">
<stop stop-color="#FDA9FF"/>
<stop offset="1" stop-color="#039CFF"/>
</linearGradient>
<linearGradient id="paint8_linear_69_217" x1="9.85627" y1="10.9976" x2="36.773" y2="10.9976" gradientUnits="userSpaceOnUse">
<stop stop-color="#FDA9FF"/>
<stop offset="1" stop-color="#039CFF"/>
</linearGradient>
<linearGradient id="paint9_linear_69_217" x1="11.0886" y1="10.9976" x2="35.5407" y2="10.9976" gradientUnits="userSpaceOnUse">
<stop stop-color="#FDA9FF"/>
<stop offset="1" stop-color="#039CFF"/>
</linearGradient>
<linearGradient id="paint10_linear_69_217" x1="12.3234" y1="11" x2="34.306" y2="11" gradientUnits="userSpaceOnUse">
<stop stop-color="#FDA9FF"/>
<stop offset="1" stop-color="#039CFF"/>
</linearGradient>
</defs>
</svg>
