<svg xmlns="http://www.w3.org/2000/svg" width="8" height="8" viewBox="0 0 8 8" fill="none">
  <g clip-path="url(#clip0_1879_10953)">
    <path d="M2.99998 3.83333L3.66665 4.5L5.16665 3M6.66665 4C6.66665 5.63615 4.88199 6.82613 4.23264 7.20496C4.15885 7.24801 4.12195 7.26954 4.06987 7.2807C4.02946 7.28937 3.9705 7.28937 3.93009 7.2807C3.87801 7.26954 3.84111 7.24801 3.76732 7.20496C3.11797 6.82613 1.33331 5.63615 1.33331 4V2.40586C1.33331 2.13936 1.33331 2.00611 1.3769 1.89157C1.4154 1.79038 1.47797 1.70009 1.5592 1.62851C1.65114 1.54748 1.77591 1.50069 2.02545 1.40711L3.81271 0.736889C3.88201 0.710902 3.91666 0.697909 3.95231 0.692758C3.98392 0.688189 4.01603 0.688189 4.04765 0.692758C4.0833 0.697909 4.11795 0.710902 4.18725 0.736889L5.97451 1.40711C6.22405 1.50069 6.34881 1.54748 6.44076 1.62851C6.52199 1.70009 6.58456 1.79038 6.62306 1.89157C6.66665 2.00611 6.66665 2.13936 6.66665 2.40586V4Z" stroke="#2D3282" stroke-linecap="round" stroke-linejoin="round"/>
  </g>
  <defs>
    <clipPath id="clip0_1879_10953">
      <rect width="8" height="8" fill="white"/>
    </clipPath>
  </defs>
</svg>