<svg xmlns="http://www.w3.org/2000/svg" width="48" height="48" viewBox="0 0 48 48" fill="none">
  <path d="M26 10C26 12.2091 21.0751 14 15 14C8.92487 14 4 12.2091 4 10M26 10C26 7.79086 21.0751 6 15 6C8.92487 6 4 7.79086 4 10M26 10V13M4 10V34C4 36.2091 8.92487 38 15 38M15 22C14.6629 22 14.3294 21.9945 14 21.9837C8.3935 21.8 4 20.0866 4 18M15 30C8.92487 30 4 28.2091 4 26M44 23C44 25.2091 39.0751 27 33 27C26.9249 27 22 25.2091 22 23M44 23C44 20.7909 39.0751 19 33 19C26.9249 19 22 20.7909 22 23M44 23V38C44 40.2091 39.0751 42 33 42C26.9249 42 22 40.2091 22 38V23M44 30.5C44 32.7091 39.0751 34.5 33 34.5C26.9249 34.5 22 32.7091 22 30.5" stroke="white" stroke-width="2" stroke-linecap="round" stroke-linejoin="round"/>
</svg>