<svg xmlns="http://www.w3.org/2000/svg" width="17" height="16" viewBox="0 0 17 16" fill="none">
  <path d="M15.66 2.06927C15.6885 1.89831 15.6243 1.72504 15.4914 1.61386C15.3584 1.50268 15.1766 1.4702 15.0133 1.52849L1.32446 6.41737C1.14003 6.48324 1.0127 6.65282 1.00089 6.84831C0.989089 7.0438 1.09509 7.22747 1.27026 7.31506L5.18136 9.27061C5.33828 9.34907 5.52521 9.33743 5.67119 9.24011L8.91779 7.07571L6.9738 9.5057C6.8882 9.6127 6.85143 9.75071 6.87245 9.88611C6.89348 10.0215 6.97036 10.1419 7.08437 10.2179L10.5066 14.129C10.6446 14.221 10.8199 14.2368 10.9721 14.1708C11.1243 14.1049 11.2327 13.9662 11.26 13.8026L15.66 2.06927Z" fill="white"/>
</svg>