<svg xmlns="http://www.w3.org/2000/svg" width="12" height="12" viewBox="0 0 12 12" fill="none">
  <path d="M6 5.25V3.5M6 7H6.005M4.95 9.6L5.68 10.5733C5.78856 10.7181 5.84284 10.7905 5.90938 10.8163C5.96767 10.839 6.03233 10.839 6.09062 10.8163C6.15716 10.7905 6.21144 10.7181 6.32 10.5733L7.05 9.6C7.19657 9.40457 7.26986 9.30685 7.35925 9.23225C7.47844 9.13278 7.61915 9.06242 7.77025 9.02675C7.88357 9 8.00571 9 8.25 9C8.94891 9 9.29837 9 9.57403 8.88582C9.94157 8.73358 10.2336 8.44157 10.3858 8.07403C10.5 7.79837 10.5 7.44891 10.5 6.75V3.9C10.5 3.05992 10.5 2.63988 10.3365 2.31901C10.1927 2.03677 9.96323 1.8073 9.68099 1.66349C9.36012 1.5 8.94008 1.5 8.1 1.5H3.9C3.05992 1.5 2.63988 1.5 2.31901 1.66349C2.03677 1.8073 1.8073 2.03677 1.66349 2.31901C1.5 2.63988 1.5 3.05992 1.5 3.9V6.75C1.5 7.44891 1.5 7.79837 1.61418 8.07403C1.76642 8.44157 2.05843 8.73358 2.42597 8.88582C2.70163 9 3.05109 9 3.75 9C3.99429 9 4.11643 9 4.22975 9.02675C4.38085 9.06242 4.52156 9.13278 4.64075 9.23225C4.73014 9.30685 4.80343 9.40457 4.95 9.6Z" stroke="white" stroke-linecap="round" stroke-linejoin="round"/>
</svg>