<svg xmlns="http://www.w3.org/2000/svg" width="17" height="16" viewBox="0 0 17 16" fill="none">
  <path d="M13.8333 6.33335V4.80002C13.8333 4.05328 13.8333 3.67992 13.6879 3.3947C13.5601 3.14382 13.3561 2.93984 13.1052 2.81201C12.82 2.66669 12.4466 2.66669 11.6999 2.66669H3.96659C3.21985 2.66669 2.84648 2.66669 2.56126 2.81201C2.31038 2.93984 2.10641 3.14382 1.97858 3.3947C1.83325 3.67992 1.83325 4.05328 1.83325 4.80002V11.2C1.83325 11.9468 1.83325 12.3201 1.97858 12.6053C2.10641 12.8562 2.31038 13.0602 2.56126 13.188C2.84648 13.3334 3.21985 13.3334 3.96659 13.3334L11.6999 13.3334C12.4467 13.3334 12.82 13.3334 13.1052 13.188C13.3561 13.0602 13.5601 12.8562 13.6879 12.6053C13.8333 12.3201 13.8333 11.9468 13.8333 11.2V9.66669M10.4999 8.00002C10.4999 7.69025 10.4999 7.53537 10.5255 7.40657C10.6307 6.87765 11.0442 6.46418 11.5731 6.35897C11.7019 6.33335 11.8568 6.33335 12.1666 6.33335H13.4999C13.8097 6.33335 13.9646 6.33335 14.0934 6.35897C14.6223 6.46418 15.0358 6.87765 15.141 7.40657C15.1666 7.53537 15.1666 7.69025 15.1666 8.00002C15.1666 8.30979 15.1666 8.46468 15.141 8.59347C15.0358 9.1224 14.6223 9.53586 14.0934 9.64107C13.9646 9.66669 13.8097 9.66669 13.4999 9.66669H12.1666C11.8568 9.66669 11.7019 9.66669 11.5731 9.64107C11.0442 9.53586 10.6307 9.12239 10.5255 8.59347C10.4999 8.46468 10.4999 8.30979 10.4999 8.00002Z" stroke="white" stroke-width="1.5" stroke-linecap="round" stroke-linejoin="round"/>
</svg>