<?xml version="1.0" encoding="UTF-8"?>
<svg width="23px" height="23px" viewBox="0 0 23 23" version="1.1" xmlns="http://www.w3.org/2000/svg" xmlns:xlink="http://www.w3.org/1999/xlink">
    <title>discord</title>
    <g id="Overview" stroke="none" stroke-width="1" fill="none" fill-rule="evenodd">
        <g transform="translate(-70.000000, -1237.000000)" fill="#836CAE" id="g-4">
            <g transform="translate(0.000000, -1.000000)">
                <path d="M70,1249.5 C70,1255.85125 75.1487533,1261 81.5,1261 C87.8512467,1261 93,1255.85125 93,1249.5 C93,1243.14875 87.8512467,1238 81.5,1238 C75.1487533,1238 70,1243.14875 70,1249.5 Z M81.6362682,1244.46401 C78.8477456,1244.46401 76.894745,1245.66203 76.894745,1245.66203 C77.9688967,1244.70361 79.8352013,1244.14821 79.8352013,1244.14821 L79.6615307,1243.974 C77.9038608,1244.00664 76.3087808,1245.22637 76.3087808,1245.22637 C74.5186207,1248.97279 74.6379183,1252.2182 74.6379183,1252.2182 C76.0918178,1254.11321 78.2618928,1253.97161 78.2618928,1253.97161 L78.9996726,1253.03505 C77.6976722,1252.75188 76.8730014,1251.59741 76.8730014,1251.59741 C76.8730014,1251.59741 78.8260855,1252.93702 81.6362682,1252.93702 C84.4464366,1252.93702 86.3995486,1251.59741 86.3995486,1251.59741 C86.3995486,1251.59741 85.5748778,1252.76278 84.2728774,1253.03505 L85.0106572,1253.97161 C85.0106572,1253.97161 87.1699578,1254.11321 88.6346317,1252.2182 C88.6346317,1252.2182 88.7540407,1248.98372 86.9528835,1245.22637 C86.9528835,1245.22637 85.3579148,1244.00664 83.6001335,1243.974 L83.4265743,1244.14821 C83.4265743,1244.14821 85.3036254,1244.70361 86.3670306,1245.66203 C86.3886629,1245.66203 84.4248043,1244.46401 81.6362682,1244.46401 L81.6362682,1244.46401 Z M79.6317619,1247.974 C80.1877951,1247.974 80.6451349,1248.42482 80.6361377,1248.97396 C80.6361377,1249.51499 80.1877951,1249.974 79.6317619,1249.974 C79.0847029,1249.974 78.6362682,1249.51499 78.6362682,1248.97396 C78.6362682,1248.42482 79.0667314,1247.974 79.6317619,1247.974 L79.6317619,1247.974 Z M83.6318038,1247.974 C84.1878043,1247.974 84.6362682,1248.42482 84.6362682,1248.97396 C84.6362682,1249.51499 84.1878043,1249.974 83.6318038,1249.974 C83.0847322,1249.974 82.6362682,1249.51499 82.6362682,1248.97396 C82.6362682,1248.42482 83.0667595,1247.974 83.6318038,1247.974 Z" id="discord"></path>
            </g>
        </g>
    </g>
</svg>