<svg width="24" height="24" viewBox="0 0 24 24" fill="none" xmlns="http://www.w3.org/2000/svg">
<path fill-rule="evenodd" clip-rule="evenodd" d="M8.3815 15.9975C8.6529 16.0953 8.95234 16.1936 9.27957 16.2842C8.7031 16.837 7.80948 17.6111 7.80948 17.6111C5.0343 17.5299 4.66663 15.4308 4.66663 15.4308C4.66663 11.6963 6.47483 7.21786 6.47483 7.21786C8.28303 5.96529 10.0033 6.0001 10.0033 6.0001L10.1626 6.98952C10.1626 6.98952 11.3062 6.87689 12 6.87083C12.6938 6.86478 13.7158 6.95851 13.7158 6.95851L13.9965 6.00018C13.9965 6.00018 15.7168 5.96529 17.525 7.21794C17.525 7.21794 19.3333 11.6963 19.3333 15.4308C19.3333 15.4308 18.9655 17.5299 16.1904 17.6111C16.1904 17.6111 15.356 16.851 14.8044 16.3032C15.094 16.2212 15.3867 16.1231 15.6835 16.0083C16.1574 15.845 16.679 15.609 17.223 15.2781L16.6468 14.4701C16.1651 14.763 15.7109 14.9668 15.3086 15.1047L15.302 15.107L15.2967 15.1089L15.2879 15.1123C14.6944 15.3426 14.1301 15.4939 13.5821 15.5801L13.5736 15.5815C12.4441 15.7771 11.4061 15.7236 10.5155 15.5702C9.83878 15.4494 9.2552 15.2737 8.76282 15.0963C8.27015 14.9182 7.84863 14.7299 7.44073 14.4662L6.84 15.2589C7.33863 15.5812 7.84239 15.8026 8.3815 15.9975ZM10.7777 11.5C10.7777 12.175 10.2305 12.7222 9.55551 12.7222C8.8805 12.7222 8.33329 12.175 8.33329 11.5C8.33329 10.825 8.8805 10.2778 9.55551 10.2778C10.2305 10.2778 10.7777 10.825 10.7777 11.5ZM14.4444 12.7222C15.1194 12.7222 15.6666 12.175 15.6666 11.5C15.6666 10.825 15.1194 10.2778 14.4444 10.2778C13.7694 10.2778 13.2222 10.825 13.2222 11.5C13.2222 12.175 13.7694 12.7222 14.4444 12.7222Z" fill="#101828"/>
</svg>
