<?xml version="1.0" encoding="UTF-8"?>
<svg width="30px" height="30px" viewBox="0 0 30 30" version="1.1" xmlns="http://www.w3.org/2000/svg" xmlns:xlink="http://www.w3.org/1999/xlink">
    <title>shape</title>
    <g id="Account" stroke="none" stroke-width="1" fill="none" fill-rule="evenodd">
        <g id="My-Referrals" transform="translate(-1351.000000, -214.000000)" fill="#775DA6" fill-rule="nonzero">
            <path d="M1368.3029,243.780622 L1368.3029,233.236882 L1371.77282,233.236882 L1372.30187,229.053599 L1368.3029,229.053599 L1368.3029,226.378786 C1368.3029,225.694532 1368.44295,225.196892 1368.70747,224.854765 C1368.98755,224.512637 1369.50104,224.341574 1370.29461,224.341574 L1372.44191,224.341574 L1372.44191,220.593725 C1371.71058,220.484867 1370.66805,220.422662 1369.32988,220.422662 C1367.7583,220.422662 1366.49793,220.90475 1365.54876,221.868927 C1364.59959,222.833104 1364.13278,224.201613 1364.13278,225.958903 L1364.13278,229.038048 L1360.6473,229.038048 L1360.6473,233.221331 L1364.11722,233.221331 L1364.11722,243.842827 C1356.72614,242.925304 1351,236.627052 1351,228.991394 C1351,220.718135 1357.70643,214 1366,214 C1374.29357,214 1381,220.702584 1381,228.991394 C1381,236.487091 1375.4917,242.676484 1368.3029,243.780622 Z M1366.08444,244.017602 L1365.98444,244.017602 L1366.08444,244.017602 Z" id="shape"></path>
        </g>
    </g>
</svg>