<?xml version="1.0" encoding="UTF-8"?>
<svg width="24px" height="23px" viewBox="0 0 24 23" version="1.1" xmlns="http://www.w3.org/2000/svg" xmlns:xlink="http://www.w3.org/1999/xlink">
    <title>g 15</title>
    <g id="Overview" stroke="none" stroke-width="1" fill="none" fill-rule="evenodd">
        <g transform="translate(-199.000000, -1237.000000)" fill="#836CAE" id="g-4">
            <g transform="translate(0.000000, -1.000000)">
                <g id="g-15" transform="translate(199.500000, 1237.999854)">
                    <path d="M22.9995452,11.7860661 C23.0214915,14.2796092 22.2485601,16.7122508 20.7982147,18.7143396 C19.401259,20.7144882 17.4189738,22.2064772 15.1389384,22.9739945 C14.9357751,23.0320679 14.717949,22.991719 14.5474806,22.8645558 C14.4242736,22.7445943 14.3583706,22.5755366 14.366777,22.4016121 L14.366777,19.1689308 C14.4331932,18.359815 14.1476674,17.561847 13.5865622,16.9885767 C14.1014327,16.9367841 14.6120359,16.8468787 15.1142328,16.7191894 C15.6071891,16.5836736 16.0798035,16.3798244 16.5188568,16.1130349 C16.7152732,16.0032421 16.9024333,15.8779097 17.0787446,15.7383758 C17.3154389,15.5510546 17.5325809,15.3381385 17.7263175,15.1028652 C18.0974145,14.6223283 18.3761382,14.0738199 18.5476013,13.4865081 C18.7655558,12.7355973 18.8708272,11.9549593 18.859822,11.1715261 C18.8853938,9.99927015 18.4572495,8.86423909 17.6687888,8.01464289 C18.0392441,6.99677824 17.9978863,5.86947497 17.5537315,4.88294896 C17.144004,4.80639454 16.72125,4.86535592 16.3463991,5.05134895 C15.8657313,5.22846326 15.4035126,5.45404887 14.9664806,5.72481737 L14.3997284,6.08680665 C12.5191211,5.5480648 10.5304509,5.5480648 8.64997195,6.08680665 C8.4857922,5.96901545 8.28035093,5.84274012 8.01754141,5.67434013 C7.60845565,5.42987898 7.17970169,5.22155757 6.73612439,5.05134895 C6.33846095,4.84440868 5.88737572,4.77081384 5.44658983,4.84092295 C5.00378257,5.8369525 4.96531247,6.97264124 5.33981042,7.99780618 C4.56235497,8.86065471 4.13886298,9.99719845 4.15702318,11.1715261 C4.14537627,11.9494348 4.25064767,12.7246798 4.46924385,13.4697042 C4.6474769,14.0541551 4.92559104,14.6013811 5.29055971,15.0860284 C5.62103683,15.5086562 6.03175893,15.8580508 6.49798835,16.1130349 C6.94281697,16.3678875 7.41392334,16.5710789 7.90261237,16.7191894 C8.40744024,16.8474049 8.92080276,16.9374418 9.43856095,16.9885767 C9.00865192,17.4036082 8.74510444,17.9677696 8.699351,18.5712275 C8.48325747,18.67672 8.25365608,18.7503149 8.01754141,18.7901376 C7.74680685,18.842292 7.47170871,18.8677115 7.19622555,18.8659028 C6.81883993,18.8683692 6.45050232,18.7474868 6.14482702,18.5207503 C5.8044035,18.2678379 5.52365838,17.9398838 5.32338282,17.5610907 C5.14216585,17.2436595 4.89549516,16.9707206 4.60060048,16.761314 C4.38088132,16.5884418 4.12946203,16.4624295 3.86139054,16.3908735 L3.56572581,16.3908735 C3.41758864,16.3821263 3.26932313,16.4049808 3.13029814,16.4581875 C3.04822431,16.5087963 3.02351874,16.5676261 3.05637394,16.6350716 C3.09535741,16.710212 3.14210548,16.7807157 3.19597646,16.8454647 C3.25552651,16.916363 3.32155777,16.9812436 3.39313975,17.039054 L3.49991916,17.1064995 C3.7577234,17.2485592 3.98206282,17.4468838 4.15702318,17.687366 C4.34038986,17.9270589 4.4974467,18.1867783 4.62527397,18.4617889 L4.7730582,18.8154256 C4.88962358,19.1951395 5.11948165,19.5278289 5.43016223,19.766634 C5.72582695,19.9861689 6.06522375,20.1356934 6.42406415,20.2044213 C6.76445558,20.2773585 7.11126405,20.3140901 7.45906716,20.31386 C7.73390862,20.3189899 8.00875007,20.2993251 8.28035093,20.2548986 L8.62539472,20.1959372 L8.62539472,22.4016121 C8.62853906,22.57797 8.55660414,22.7470277 8.42826351,22.8645558 C8.25429778,22.9909627 8.03445029,23.0310485 7.82865609,22.9739945 C5.55561519,22.196612 3.58427104,20.6953496 2.20223496,18.6890516 C0.74434958,16.7005769 -0.0297048428,14.2731639 0.000872312282,11.7860661 C-0.0111596218,9.71511778 0.522384461,7.67925694 1.54509885,5.89321736 C2.54952471,4.0998775 4.00086472,2.61239359 5.75053252,1.58295369 C7.49326994,0.53476981 9.47966203,-0.0119300196 11.5001607,0.00040155555 C13.5207555,-0.0119300196 15.5071476,0.53476981 17.2499171,1.58295369 C18.9995528,2.61239359 20.4509249,4.0998775 21.4553187,5.89321736 C22.4788031,7.67899386 23.0123472,9.71498624 22.9995452,11.7860661 Z" id="github"></path>
                </g>
            </g>
        </g>
    </g>
</svg>