<svg width="24" height="24" viewBox="0 0 24 24" fill="none" xmlns="http://www.w3.org/2000/svg">
<path d="M13.92 6.08685C12.724 5.80899 11.4802 5.80899 10.2842 6.08686C9.59341 5.66285 9.06558 5.46829 8.68195 5.3863C8.47338 5.34173 8.30807 5.3306 8.18372 5.33392C8.12167 5.33558 8.07032 5.34082 8.02941 5.34712C8.00898 5.35026 7.99122 5.35366 7.97611 5.35697C7.96856 5.35863 7.96168 5.36026 7.95546 5.36183L7.94664 5.36413L7.9426 5.36523L7.94067 5.36577L7.93881 5.3663C7.93881 5.3663 7.93882 5.3663 7.93881 5.3663C7.9384 5.36649 7.94045 5.37205 8.07323 5.83633L7.93881 5.3663C7.79982 5.40605 7.68553 5.50522 7.62658 5.63722C7.46202 6.00569 7.37215 6.40313 7.36214 6.80656C7.35471 7.10636 7.3915 7.40504 7.47085 7.69309C7.26232 7.94568 7.0924 8.22853 6.9672 8.53246C6.80287 8.9314 6.71881 9.35882 6.71983 9.79027C6.71996 11.3096 7.1682 12.3311 7.93206 12.9875C8.46726 13.4474 9.11788 13.6921 9.76933 13.8322C9.66175 14.1311 9.63384 14.4473 9.65561 14.7695V15.355C9.25698 15.4388 8.98172 15.4123 8.78549 15.3475C8.5389 15.2661 8.34985 15.1024 8.16952 14.8674C8.0782 14.7483 7.99406 14.6176 7.9057 14.4745L7.84961 14.3832C7.78042 14.2702 7.70574 14.1483 7.63038 14.0372C7.44366 13.7618 7.16817 13.4177 6.72176 13.3005L6.2485 13.1762L6 14.1227L6.47326 14.247C6.551 14.2674 6.65334 14.34 6.82044 14.5864C6.88184 14.6769 6.94041 14.7725 7.00728 14.8816C7.02828 14.9159 7.05016 14.9516 7.07315 14.9888C7.16499 15.1375 7.27034 15.303 7.39308 15.463C7.64089 15.786 7.97829 16.1116 8.4788 16.2768C8.82268 16.3903 9.21138 16.4176 9.65561 16.3493V18.1774C9.65561 18.4476 9.87468 18.6667 10.1449 18.6667H14.0593C14.3295 18.6667 14.5486 18.4476 14.5486 18.1774V14.6912C14.5486 14.3821 14.5351 14.0996 14.4481 13.836C15.0963 13.6992 15.7418 13.4543 16.2735 12.994C17.0371 12.333 17.4844 11.3023 17.4844 9.77374L17.4844 9.77216C17.4819 9.01006 17.2145 8.27597 16.7333 7.6931C16.8127 7.40506 16.8495 7.10637 16.842 6.80656C16.832 6.40313 16.7422 6.00569 16.5776 5.63722C16.5186 5.50518 16.4043 5.40599 16.2653 5.36627L16.1308 5.83674C16.2653 5.36627 16.2639 5.36587 16.2634 5.36574L16.2615 5.3652L16.2574 5.3641L16.2486 5.3618C16.2424 5.36024 16.2355 5.35861 16.228 5.35695C16.2129 5.35364 16.1951 5.35025 16.1747 5.34711C16.1338 5.34082 16.0824 5.33558 16.0204 5.33392C15.896 5.3306 15.7306 5.34173 15.522 5.3863C15.1383 5.46828 14.6105 5.66284 13.92 6.08685Z" fill="#101828"/>
</svg>
