<?xml version="1.0" encoding="UTF-8"?>
<svg width="23px" height="23px" viewBox="0 0 23 23" version="1.1" xmlns="http://www.w3.org/2000/svg" xmlns:xlink="http://www.w3.org/1999/xlink">
    <title>medium-circle-fill</title>
    <g id="Overview" stroke="none" stroke-width="1" fill="none" fill-rule="evenodd">
        <g transform="translate(-156.000000, -1237.000000)" fill="#836CAE" fill-rule="nonzero" id="g-4">
            <g transform="translate(0.000000, -1.000000)">
                <g id="medium-circle-fill" transform="translate(156.000000, 1238.000000)">
                    <path d="M11.5,0 C5.14933036,0 0,5.14933036 0,11.5 C0,17.8506696 5.14933036,23 11.5,23 C17.8506696,23 23,17.8506696 23,11.5 C23,5.14933036 17.8506696,0 11.5,0 Z M18.0714286,6.51238839 L17.0241071,7.51607143 C16.9316964,7.58537946 16.888058,7.69832589 16.9060268,7.80870536 L16.9060268,15.1938616 C16.888058,15.306808 16.9316964,15.4197545 17.0241071,15.4864955 L18.0508929,16.4901786 L18.0508929,16.7135045 L12.8964286,16.7135045 L12.8964286,16.5004464 L13.9565848,15.4710938 C14.0618304,15.3658482 14.0618304,15.3350446 14.0618304,15.1784598 L14.0618304,9.20256696 L11.1098214,16.6878348 L10.711942,16.6878348 L7.27734375,9.20256696 L7.27734375,14.2209821 C7.24654018,14.4314732 7.32098214,14.6445313 7.46986607,14.7959821 L8.85089286,16.4670759 L8.85089286,16.6904018 L4.92857143,16.6904018 L4.92857143,16.4670759 L6.30959821,14.7959821 C6.45848214,14.6445313 6.52265625,14.4289063 6.48928571,14.2209821 L6.48928571,8.41964286 C6.50725446,8.25792411 6.44564732,8.10133929 6.32243304,7.99095982 L5.09542411,6.51238839 L5.09542411,6.2890625 L8.90736607,6.2890625 L11.8491071,12.7449777 L14.4391741,6.29419643 L18.0714286,6.29419643 L18.0714286,6.51238839 Z" id="shape"></path>
                </g>
            </g>
        </g>
    </g>
</svg>