<svg width="24" height="24" viewBox="0 0 24 24" fill="none" xmlns="http://www.w3.org/2000/svg">
<g clip-path="url(#clip0_226_6530)">
<path d="M13.0339 11.8704C13.0339 14.3798 11.0063 16.4074 8.51694 16.4074C6.0276 16.4074 4 14.3999 4 11.8704C4 9.3409 6.0276 7.33337 8.51694 7.33337C11.0063 7.33337 13.0339 9.36098 13.0339 11.8704Z" fill="#101828"/>
<path d="M17.9925 11.8704C17.9925 14.2393 16.9887 16.1464 15.744 16.1464C14.4994 16.1464 13.4956 14.2393 13.4956 11.8704C13.4956 9.50151 14.4994 7.59436 15.744 7.59436C16.9686 7.59436 17.9925 9.52159 17.9925 11.8704Z" fill="#101828"/>
<path d="M20.0001 11.8704C20.0001 13.9783 19.6387 15.7048 19.1971 15.7048C18.7554 15.7048 18.394 13.9783 18.394 11.8704C18.394 9.76249 18.7554 8.03601 19.1971 8.03601C19.6588 8.03601 20.0001 9.76249 20.0001 11.8704Z" fill="#101828"/>
</g>
<defs>
<clipPath id="clip0_226_6530">
<rect width="16" height="16" fill="white" transform="translate(4 4)"/>
</clipPath>
</defs>
</svg>
