<?xml version="1.0" encoding="UTF-8"?>
<svg width="23px" height="23px" viewBox="0 0 23 23" version="1.1" xmlns="http://www.w3.org/2000/svg" xmlns:xlink="http://www.w3.org/1999/xlink">
    <title>telegram</title>
    <g id="Overview" stroke="none" stroke-width="1" fill="none" fill-rule="evenodd">
        <g transform="translate(-113.000000, -1237.000000)" fill="#836CAE" fill-rule="nonzero" id="编组-4">
            <g transform="translate(0.000000, -1.000000)">
                <g id="telegram" transform="translate(113.000000, 1238.000000)">
                    <path d="M15.2606027,16.7751116 L17.1473214,7.88058036 C17.2243303,7.50409227 17.1794085,7.23456102 17.0125558,7.07198661 C16.8457031,6.9094122 16.625372,6.87946429 16.3515625,6.98214286 L5.26227678,11.2561384 C5.01413689,11.3502604 4.84514508,11.4572173 4.75530135,11.5770089 C4.66545761,11.6968006 4.65476192,11.8101748 4.72321428,11.9171317 C4.79166664,12.0240886 4.9285714,12.1075149 5.13392858,12.1674107 L7.97042411,13.0530134 L14.5546875,8.90736608 C14.734375,8.78757441 14.8712798,8.76190477 14.9654018,8.83035714 C15.0252976,8.87313988 15.0081845,8.93731399 14.9140625,9.02287947 L9.58761161,13.8359375 L9.38225447,16.7622768 C9.57905506,16.7622768 9.77157738,16.6681548 9.95982142,16.4799107 L11.3459821,15.1450893 L14.2209821,17.2628348 C14.7686012,17.5708706 15.1151414,17.4082961 15.2606027,16.7751116 L15.2606027,16.7751116 Z M23,11.5 C23,13.0572917 22.6962426,14.546131 22.0887277,15.9665179 C21.4812128,17.3869048 20.6640625,18.6104911 19.6372768,19.6372768 C18.6104911,20.6640625 17.3869048,21.4812128 15.9665179,22.0887277 C14.546131,22.6962426 13.0572917,23 11.5,23 C9.94270833,23 8.45386905,22.6962426 7.03348214,22.0887277 C5.61309523,21.4812128 4.38950893,20.6640625 3.36272322,19.6372768 C2.33593751,18.6104911 1.51878722,17.3869048 0.911272331,15.9665179 C0.303757444,14.546131 0,13.0572917 0,11.5 C0,9.94270833 0.303757444,8.45386905 0.911272331,7.03348214 C1.51878722,5.61309523 2.33593751,4.38950893 3.36272322,3.36272322 C4.38950893,2.33593751 5.61309523,1.51878722 7.03348214,0.911272331 C8.45386905,0.303757444 9.94270833,0 11.5,0 C13.0572917,0 14.546131,0.303757444 15.9665179,0.911272331 C17.3869048,1.51878722 18.6104911,2.33593751 19.6372768,3.36272322 C20.6640625,4.38950893 21.4812128,5.61309523 22.0887277,7.03348214 C22.6962426,8.45386905 23,9.94270833 23,11.5 Z" id="形状"></path>
                </g>
            </g>
        </g>
    </g>
</svg>