<svg width="24" height="24" viewBox="0 0 24 24" fill="none" xmlns="http://www.w3.org/2000/svg">
<path d="M19.16 6.06927C19.1885 5.89831 19.1243 5.72504 18.9914 5.61386C18.8584 5.50268 18.6766 5.4702 18.5133 5.52849L4.82446 10.4174C4.64003 10.4832 4.5127 10.6528 4.50089 10.8483C4.48909 11.0438 4.59509 11.2275 4.77026 11.3151L8.68136 13.2706C8.83828 13.3491 9.02521 13.3374 9.17119 13.2401L12.4178 11.0757L10.4738 13.5057C10.3882 13.6127 10.3514 13.7507 10.3725 13.8861C10.3935 14.0215 10.4704 14.1419 10.5844 14.2179L14.0066 18.129C14.1446 18.221 14.3199 18.2368 14.4721 18.1708C14.6243 18.1049 14.7327 17.9662 14.76 17.8026L19.16 6.06927Z" fill="#101828"/>
</svg>
