<?xml version="1.0" encoding="UTF-8"?>
<svg width="23px" height="23px" viewBox="0 0 23 23" version="1.1" xmlns="http://www.w3.org/2000/svg" xmlns:xlink="http://www.w3.org/1999/xlink">
    <title>twitter</title>
    <g id="Overview" stroke="none" stroke-width="1" fill="none" fill-rule="evenodd">
        <g transform="translate(-27.000000, -1237.000000)" fill="#836CAE" id="编组-4">
            <g transform="translate(0.000000, -1.000000)">
                <path d="M38.5,1238 C44.8512746,1238 50,1243.14873 50,1249.5 C50,1255.85127 44.8512746,1261 38.5,1261 C32.1487254,1261 27,1255.85127 27,1249.5 C27,1243.14873 32.1487254,1238 38.5,1238 Z M41.4377558,1244.01755 C40.6574016,1244.02276 39.9122445,1244.34292 39.3717419,1244.90528 C38.831254,1245.46762 38.5413134,1246.2244 38.567781,1247.00357 C38.5655509,1247.23853 38.5890549,1247.47299 38.6377647,1247.70287 C36.2841723,1247.52738 34.125375,1246.33152 32.7297955,1244.43013 C32.4749348,1244.90029 32.3425527,1245.42696 32.3447828,1245.9616 C32.3359065,1246.97098 32.8090663,1247.9242 33.6187492,1248.52805 C33.1585444,1248.50424 32.7113386,1248.3673 32.31676,1248.12946 L32.31676,1248.19937 C32.2871233,1249.61754 33.2425688,1250.86802 34.61975,1251.21337 C34.3703911,1251.27509 34.1134616,1251.30098 33.8567669,1251.29026 C33.6752643,1251.29044 33.4943338,1251.26932 33.3177608,1251.22734 C33.6569247,1252.44296 34.7370643,1253.30508 35.9987652,1253.36721 C35.0065967,1254.20024 33.7528038,1254.65823 32.4567713,1254.66091 C32.2227736,1254.66166 31.988996,1254.64763 31.7567735,1254.61895 C33.048742,1255.51996 34.5841566,1256.0077 36.1597569,1256.01755 C41.4377558,1255.99659 44.3567779,1251.40913 44.3567779,1247.42312 L44.3567779,1247.03854 C44.9097074,1246.6112 45.3834981,1246.09054 45.7567735,1245.50008 C45.2344931,1245.73224 44.6797737,1245.88316 44.1117765,1245.94763 C44.7144574,1245.57061 45.1577605,1244.98593 45.3577641,1244.30428 C44.7974401,1244.64333 44.1811733,1244.88014 43.5377492,1245.00358 C43.0095121,1244.39211 42.2461183,1244.03364 41.4377558,1244.01755 Z" id="twitter"></path>
            </g>
        </g>
    </g>
</svg>