<svg width="24" height="24" viewBox="0 0 24 24" fill="none" xmlns="http://www.w3.org/2000/svg">
<path d="M8.4 3H4.6C4.03995 3 3.75992 3 3.54601 3.10899C3.35785 3.20487 3.20487 3.35785 3.10899 3.54601C3 3.75992 3 4.03995 3 4.6V8.4C3 8.96005 3 9.24008 3.10899 9.45399C3.20487 9.64215 3.35785 9.79513 3.54601 9.89101C3.75992 10 4.03995 10 4.6 10H8.4C8.96005 10 9.24008 10 9.45399 9.89101C9.64215 9.79513 9.79513 9.64215 9.89101 9.45399C10 9.24008 10 8.96005 10 8.4V4.6C10 4.03995 10 3.75992 9.89101 3.54601C9.79513 3.35785 9.64215 3.20487 9.45399 3.10899C9.24008 3 8.96005 3 8.4 3Z" stroke="#0F172A" stroke-width="2" stroke-linecap="round" stroke-linejoin="round"/>
<path d="M19.4 14H15.6C15.0399 14 14.7599 14 14.546 14.109C14.3578 14.2049 14.2049 14.3578 14.109 14.546C14 14.7599 14 15.0399 14 15.6V19.4C14 19.9601 14 20.2401 14.109 20.454C14.2049 20.6422 14.3578 20.7951 14.546 20.891C14.7599 21 15.0399 21 15.6 21H19.4C19.9601 21 20.2401 21 20.454 20.891C20.6422 20.7951 20.7951 20.6422 20.891 20.454C21 20.2401 21 19.9601 21 19.4V15.6C21 15.0399 21 14.7599 20.891 14.546C20.7951 14.3578 20.6422 14.2049 20.454 14.109C20.2401 14 19.9601 14 19.4 14Z" stroke="#0F172A" stroke-width="2" stroke-linecap="round" stroke-linejoin="round"/>
<path d="M8.4 14H4.6C4.03995 14 3.75992 14 3.54601 14.109C3.35785 14.2049 3.20487 14.3578 3.10899 14.546C3 14.7599 3 15.0399 3 15.6V19.4C3 19.9601 3 20.2401 3.10899 20.454C3.20487 20.6422 3.35785 20.7951 3.54601 20.891C3.75992 21 4.03995 21 4.6 21H8.4C8.96005 21 9.24008 21 9.45399 20.891C9.64215 20.7951 9.79513 20.6422 9.89101 20.454C10 20.2401 10 19.9601 10 19.4V15.6C10 15.0399 10 14.7599 9.89101 14.546C9.79513 14.3578 9.64215 14.2049 9.45399 14.109C9.24008 14 8.96005 14 8.4 14Z" stroke="#0F172A" stroke-width="2" stroke-linecap="round" stroke-linejoin="round"/>
<path d="M13.6569 5.37126C13.262 5.76621 13.0645 5.96369 12.9903 6.1915C12.925 6.3919 12.9246 6.60781 12.9893 6.8084C13.0629 7.03643 13.2598 7.23449 13.6536 7.63062L16.3679 10.3612C16.7638 10.7594 16.9617 10.9586 17.1903 11.0334C17.3914 11.0992 17.6082 11.0995 17.8095 11.0343C18.0383 10.9602 18.2369 10.7616 18.634 10.3646L21.3645 7.63401C21.7616 7.23693 21.9601 7.03838 22.0343 6.80954C22.0995 6.60825 22.0991 6.39146 22.0333 6.19037C21.9585 5.96175 21.7594 5.7638 21.3611 5.3679L18.6306 2.65361C18.2344 2.25984 18.0364 2.06295 17.8084 1.98939C17.6078 1.92467 17.3918 1.92499 17.1915 1.99031C16.9636 2.06455 16.7662 2.26203 16.3712 2.65698L13.6569 5.37126Z" fill="#F3E8FF" stroke="#775DA6" stroke-width="2" stroke-linecap="round" stroke-linejoin="round"/>
</svg>
