<svg width="24" height="24" viewBox="0 0 24 24" fill="none" xmlns="http://www.w3.org/2000/svg">
<path d="M20 15V7.5L13.75 3.98438M10.25 3.98438L4 7.5V15M5.5 17.3438L12 21L16 18.75L18.5 17.3438" stroke="#0F172A" stroke-width="2" stroke-linecap="round" stroke-linejoin="round"/>
<path d="M12 8.5V5" stroke="#0F172A" stroke-width="2" stroke-linecap="round" stroke-linejoin="round"/>
<path d="M15 13.5L18.5 15.5" stroke="#0F172A" stroke-width="2" stroke-linecap="round" stroke-linejoin="round"/>
<path d="M9 13.5L5.5 15.5" stroke="#0F172A" stroke-width="2" stroke-linecap="round" stroke-linejoin="round"/>
<path d="M12 5C12.8284 5 13.5 4.32843 13.5 3.5C13.5 2.67157 12.8284 2 12 2C11.1716 2 10.5 2.67157 10.5 3.5C10.5 4.32843 11.1716 5 12 5Z" stroke="#0F172A" stroke-width="2" stroke-linecap="round" stroke-linejoin="round"/>
<path d="M4 18C4.82843 18 5.5 17.3284 5.5 16.5C5.5 15.6716 4.82843 15 4 15C3.17157 15 2.5 15.6716 2.5 16.5C2.5 17.3284 3.17157 18 4 18Z" stroke="#0F172A" stroke-width="2" stroke-linecap="round" stroke-linejoin="round"/>
<path d="M20 18C20.8284 18 21.5 17.3284 21.5 16.5C21.5 15.6716 20.8284 15 20 15C19.1716 15 18.5 15.6716 18.5 16.5C18.5 17.3284 19.1716 18 20 18Z" stroke="#0F172A" stroke-width="2" stroke-linecap="round" stroke-linejoin="round"/>
<path d="M10.5 9.375L9 10.25V12V13.75L10.5 14.625L12 15.5L13.5 14.625L15 13.75V12V10.25L13.5 9.375L12 8.5L10.5 9.375Z" fill="#F3E8FF" stroke="#775DA6" stroke-width="2" stroke-linecap="round" stroke-linejoin="round"/>
</svg>
